<?xml version="1.0" standalone="no"?>
<!DOCTYPE svg PUBLIC "-//W3C//DTD SVG 1.1//EN" "http://www.w3.org/Graphics/SVG/1.1/DTD/svg11.dtd" >
<svg xmlns="http://www.w3.org/2000/svg">
<metadata>
Created by FontPrep 20130207 at Tue Jun 25 22:57:41 2013
 By Adem ilter
Copyright (c) 2011 by Jos Buivenga. All rights reserved.
</metadata>
<defs>
<font id="863557591785834a1b67577f709fa542" >
  <font-face 
    font-family="MuseoSansRounded-500"
    font-weight="400"
    font-stretch="normal"
    units-per-em="2048"
    panose-1="2 0 0 0 0 0 0 0 0 0"
    ascent="1536"
    descent="-512"
    x-height="1036"
    cap-height="1446"
    bbox="-220.846 -438 2228 1827"
    underline-thickness="102"
    underline-position="-102"
    unicode-range="U+0020-FB04"
  />
<missing-glyph horiz-adv-x="1124" 
d="M215 102h696l-348 523zM154 195l348 522l-348 522v-1044zM625 717l348 -522v1044zM563 809l348 522h-696zM51 68v1298q0 68 68 68h889q68 0 67 -68v-1298q0 -68 -67 -68h-889q-68 0 -68 68z" />
    <glyph glyph-name="f_f" unicode="ff" horiz-adv-x="1316" 
d="M190 68v809h-65q-68 0 -68 67v25q0 68 68 67h65v39q0 92 30 165t72 112q112 104 271 104h27q68 0 67 -67v-39q0 -61 -72 -66t-115 -31q-78 -46 -81 -186v-31h461v39q0 92 29 165t70 112q112 104 274 104h24q68 0 68 -67v-39q0 -61 -72 -68q-141 -8 -178 -101
q-18 -46 -18 -114v-31h178q68 0 67 -67v-25q0 -68 -61 -67h-184v-809q0 -68 -66 -68h-66q-66 0 -65 68v809h-461v-809q0 -68 -67 -68h-64q-68 0 -68 68z" />
    <glyph glyph-name="fi" unicode="fi" horiz-adv-x="1144" 
d="M866 1243q-68 0 -67 68v67q0 68 67 68h70q68 0 68 -68v-67q0 -68 -68 -68h-70zM188 68v809h-65q-68 0 -68 67v25q0 68 68 67h65v39q0 92 30 165t72 112q112 104 273 104h25q68 0 67 -67v-39q0 -61 -72 -66t-116 -31q-78 -46 -80 -186v-31h547q68 0 67 -67v-901
q0 -68 -67 -68h-64q-68 0 -67 68v809h-416v-809q0 -68 -68 -68h-63q-68 0 -68 68z" />
    <glyph glyph-name="fl" unicode="fl" horiz-adv-x="1193" 
d="M188 68v796h-65q-68 0 -68 68v26q0 68 68 68h65v49q0 92 30 165t72 112q112 104 273 104h25q68 0 67 -67v-39q0 -61 -72 -66t-116 -31q-78 -46 -80 -186v-41h178q68 0 68 -68v-26q0 -68 -68 -68h-178v-796q0 -68 -68 -68h-63q-68 0 -68 68zM801 283v1095q0 68 67 68h64
q68 0 67 -68v-1071q0 -129 95 -137q53 -6 53 -59v-50q0 -70 -70 -69q-276 0 -276 291z" />
    <glyph glyph-name="f_f_i" unicode="ffi" horiz-adv-x="1802" 
d="M1458 1311v67q0 68 68 68h69q68 0 68 -68v-67q0 -68 -68 -68h-69q-68 0 -68 68zM123 877q-68 0 -68 67v25q0 68 68 67h61l4 39q0 92 30 165t72 112q112 104 273 104h25q68 0 67 -67v-39q0 -61 -72 -66t-116 -31q-78 -46 -80 -186v-31h461v39q0 92 30 165t71 112
q42 40 111 72t161 32h26q68 0 68 -67v-39q0 -61 -74 -68q-139 -8 -176 -101q-18 -46 -18 -114v-31h544q68 0 68 -67v-901q0 -68 -68 -68h-63q-68 0 -68 68v809h-413v-809q0 -68 -68 -68h-64q-68 0 -67 68v809h-461v-809q0 -68 -68 -68h-63q-68 0 -68 68l-4 809h-61z" />
    <glyph glyph-name="f_f_l" unicode="ffl" horiz-adv-x="1853" 
d="M1462 283v1095q0 68 68 68h63q68 0 68 -68v-1071q0 -85 29 -109t63 -28q53 -6 53 -59v-50q0 -70 -67 -69q-277 0 -277 291zM125 877q-68 0 -68 67v25q0 68 68 67h61l4 39q0 92 30 165t72 112q112 104 271 104h27q68 0 67 -67v-39q0 -61 -72 -66t-115 -31
q-78 -46 -81 -186v-31h461v39q0 92 29 165t70 112q112 104 274 104h24q68 0 68 -67v-39q0 -61 -72 -68q-141 -8 -178 -101q-18 -46 -18 -114v-31h178q68 0 67 -67v-25q0 -68 -61 -67h-184v-809q0 -68 -66 -68h-66q-66 0 -65 68v809h-461v-809q0 -68 -67 -68h-64
q-68 0 -68 68l-4 809h-61z" />
    <glyph glyph-name="f_j" unicode="fj" horiz-adv-x="1148" 
d="M870 1243q-68 0 -67 68v67q0 68 67 68h70q68 0 68 -68v-67q0 -68 -68 -68h-70zM190 68v809h-65q-68 0 -68 67v25q0 68 68 67h65v39q0 92 30 165t72 112q112 104 271 104h27q68 0 67 -67v-39q0 -61 -72 -66t-115 -31q-78 -46 -81 -186v-31h547q68 0 68 -67v-1000
q0 -96 -30 -171q-30 -74 -72 -114t-112 -73t-159 -33h-27q-66 0 -65 68v37q0 61 65 67q201 14 201 227v900h-416v-809q0 -68 -67 -68h-64q-68 0 -68 68z" />
    <glyph glyph-name=".notdef" horiz-adv-x="1124" 
d="M215 102h696l-348 523zM154 195l348 522l-348 522v-1044zM625 717l348 -522v1044zM563 809l348 522h-696zM51 68v1298q0 68 68 68h889q68 0 67 -68v-1298q0 -68 -67 -68h-889q-68 0 -68 68z" />
    <glyph glyph-name=".null" horiz-adv-x="0" 
 />
    <glyph glyph-name="nonmarkingreturn" horiz-adv-x="681" 
 />
    <glyph glyph-name="space" unicode=" " horiz-adv-x="512" 
 />
    <glyph glyph-name="exclam" unicode="!" horiz-adv-x="530" 
d="M164 68v65q0 68 67 68h70q68 0 68 -68v-65q0 -68 -68 -68h-70q-67 0 -67 68zM242 397q-68 0 -68 68l-10 913q0 68 65 68h70q68 0 68 -68l-11 -913q-4 -68 -69 -68h-45z" />
    <glyph glyph-name="quotedbl" unicode="&#x22;" horiz-adv-x="673" 
d="M182 1036q-68 0 -67 68v299q0 68 67 67h21q68 0 67 -67v-299q0 -68 -67 -68h-21zM471 1036q-68 0 -68 68v299q0 68 68 67h21q68 0 67 -67v-299q0 -68 -67 -68h-21z" />
    <glyph glyph-name="numbersign" unicode="#" horiz-adv-x="1437" 
d="M530 543h318l61 344h-319zM145 391q-79 0 -59 90q8 61 74 62h205l59 344h-191q-74 0 -63 71l4 19q10 59 72 59h205l59 350q12 59 74 60h30q74 0 62 -72l-60 -338h318l59 350q12 59 76 60h29q74 0 61 -72l-59 -338h192q74 0 64 -71l-4 -19q-10 -59 -72 -59h-205l-61 -344
h190q82 0 60 -90q-10 -61 -74 -62h-203l-55 -330q-12 -61 -76 -61h-29q-74 0 -61 72l55 319h-317l-58 -330q-8 -61 -73 -61h-29q-73 0 -61 72l55 319h-193z" />
    <glyph glyph-name="dollar" unicode="$" horiz-adv-x="1097" 
d="M811 368q0 90 -73 151t-177 105q-105 44 -209 95t-177 139t-73 224t104 246q104 112 275 136v125q0 68 66 68h16q63 0 64 -60v-131q166 -8 303 -104q49 -31 18 -92l-26 -51q-33 -57 -95 -19q-129 82 -251 82t-196 -61t-75 -159q0 -98 140 -173q63 -33 139 -64t152 -69
t137 -84q61 -47 101 -121t40 -168q0 -159 -104 -271t-283 -132v-121q0 -68 -64 -68h-16q-66 0 -66 59v130q-194 18 -354 143q-53 41 -10 94l33 47q37 51 96 12q150 -113 313 -112q106 0 179 57t73 147z" />
    <glyph glyph-name="percent" unicode="%" horiz-adv-x="1546" 
d="M993 279q0 -63 43 -107t108 -45q66 0 108 43q42 44 42 108t-44 109t-107 45t-107 -45t-43 -108zM834 278q0 126 90 215t219 89t220 -89t91 -214t-91 -214t-220 -89t-219 88t-90 214zM250 1166q0 -66 42 -108t108 -42q64 0 109 44q44 44 44 107t-44 109q-43 46 -107 45
q-64 0 -108 -45t-44 -110zM1280 1446h37q43 0 55 -25t-14 -57l-1012 -1323q-33 -41 -82 -41h-37q-43 0 -55 24t14 58l1012 1325q31 39 82 39zM713 1167q-1 -125 -93 -214t-220 -89t-219 89t-91 214t91 214t219 89t220 -89t93 -214z" />
    <glyph glyph-name="ampersand" unicode="&#x26;" horiz-adv-x="1318" 
d="M618 674q-154 0 -236 -68t-83 -182q0 -114 82 -188t219 -74t216 81t79 246v185h-277zM92 406q0 123 69 227t187 143v4q-20 5 -60 34q-40 30 -66 63t-46 92t-20 129q0 176 124 274t320 98h94q68 0 68 -67v-37q0 -68 -68 -68h-84q-114 0 -182 -61t-68 -155t60 -162
q60 -70 207 -70h268v129q0 68 68 68h63q68 0 68 -58v-139h125q68 0 67 -68v-41q0 -68 -67 -67h-125v-193q0 -241 -133 -373t-361 -132t-369 122q-139 124 -139 308z" />
    <glyph glyph-name="quotesingle" unicode="'" horiz-adv-x="385" 
d="M180 1085q-68 0 -67 66v252q0 68 67 67h25q66 0 65 -67v-252q0 -66 -65 -66h-25z" />
    <glyph glyph-name="parenleft" unicode="(" horiz-adv-x="563" 
d="M100 696q0 403 211 764q25 45 80 45h31q39 1 52 -21t-5 -57q-188 -359 -188 -759t192 -783q16 -35 4 -57t-51 -23h-35q-53 0 -76 41q-215 387 -215 850z" />
    <glyph glyph-name="parenright" unicode=")" horiz-adv-x="563" 
d="M170 1505q55 0 80 -45q209 -358 209 -764q0 -465 -209 -846q-25 -45 -82 -45h-31q-39 -1 -52 23t5 61q188 377 188 781t-186 757q-18 35 -7 57t50 21h35z" />
    <glyph glyph-name="asterisk" unicode="*" horiz-adv-x="968" 
d="M459 1446h47q70 0 63 -68l-10 -223l209 76q66 27 86 -39l14 -39q18 -68 -45 -82l-215 -61v-4l135 -172q47 -53 -10 -95l-33 -24q-57 -41 -92 16l-123 184h-4l-121 -180q-39 -61 -94 -20l-35 24q-55 39 -10 92l135 175v4l-211 59q-70 16 -47 82l13 39q23 70 84 43l208 -78
l-8 221q-6 70 64 70z" />
    <glyph glyph-name="plus" unicode="+" horiz-adv-x="1255" 
d="M154 504q-68 0 -68 67v25q0 68 68 68h391v436q0 68 67 67h33q68 0 68 -67v-436h389q68 0 67 -68v-25q0 -68 -67 -67h-389v-436q0 -68 -68 -68h-33q-68 0 -67 68v436h-391z" />
    <glyph glyph-name="comma" unicode="," horiz-adv-x="485" 
d="M233 215h64q39 1 53 -21t0 -57l-139 -340q-20 -51 -80 -51h-22q-78 0 -58 76l107 336q14 57 75 57z" />
    <glyph glyph-name="hyphen" unicode="-" horiz-adv-x="860" 
d="M199 496q-68 0 -68 67v41q0 68 68 68h463q68 0 67 -68v-41q0 -68 -67 -67h-463z" />
    <glyph glyph-name="period" unicode="." horiz-adv-x="466" 
d="M127 68v79q0 68 68 68h77q68 0 68 -68v-79q0 -68 -68 -68h-77q-68 0 -68 68z" />
    <glyph glyph-name="slash" unicode="/" horiz-adv-x="808" 
d="M674 1524q35 0 51 -22t4 -54l-477 -1479q-20 -55 -78 -55h-37q-37 0 -52 22t-3 54l477 1478q18 55 78 56h37z" />
    <glyph glyph-name="zero" unicode="0" horiz-adv-x="1273" 
d="M637 162q303 0 303 561t-303 561t-303 -561t303 -561zM637 -25q-139 -1 -241 57t-160 162q-57 104 -84 236q-27 131 -27 295t27 294q94 451 485 451q512 0 512 -748t-512 -747z" />
    <glyph glyph-name="one" unicode="1" horiz-adv-x="960" 
d="M92 68v41q0 68 68 67h252v934l2 88h-4q-18 -33 -64 -78l-92 -90q-51 -47 -94 2l-29 29q-49 49 0 96l262 256q35 33 82 33h66q68 0 67 -68v-1202h250q68 0 68 -67v-41q0 -68 -68 -68h-698q-68 0 -68 68z" />
    <glyph glyph-name="two" unicode="2" horiz-adv-x="1144" 
d="M98 68v43q0 121 53 224q52 103 131 171t171 136t171 121q79 54 131 127q52 72 52 164t-73 159t-187 67q-152 0 -256 -133q-49 -53 -96 -14l-37 28q-53 41 -19 92q59 84 163 151t259 66q201 0 329 -114t128 -301q0 -97 -38 -181t-118 -163t-210 -164q-130 -86 -191 -135
q-138 -111 -142 -236h654q68 0 67 -67v-41q0 -68 -67 -68h-803q-72 0 -72 68z" />
    <glyph glyph-name="three" unicode="3" horiz-adv-x="1138" 
d="M506 168q140 0 225 75q86 75 86 195t-96 191q-96 70 -240 69h-45q-53 0 -76 50l-6 12q-23 47 17 88l278 330l90 94v4q-43 -6 -123 -6h-421q-68 0 -68 67v41q0 68 68 68h729q68 0 67 -64v-18q0 -49 -30 -82l-363 -418q168 -18 296 -124t128 -300q0 -192 -137 -328
t-359 -136t-417 153q-49 39 -11 94l33 47q39 49 94 13q141 -115 281 -115z" />
    <glyph glyph-name="four" unicode="4" horiz-adv-x="1222" 
d="M272 559h476v526l10 144h-4q-35 -68 -72 -119l-410 -547v-4zM115 387q-68 0 -68 68v12q0 45 27 84l614 852q29 43 80 43h113q68 0 67 -68v-819h129q68 0 68 -67v-37q0 -68 -58 -68h-139v-319q0 -68 -67 -68h-66q-68 0 -67 68v319h-633z" />
    <glyph glyph-name="five" unicode="5" horiz-adv-x="1132" 
d="M505 168q140 0 233 82t93 211t-94 213t-235 84q-96 0 -199 -51q-53 -19 -108 2q-55 23 -50 79l62 594q6 63 69 64h598q68 0 68 -68v-41q0 -68 -68 -67h-485l-35 -305l-10 -76h4q80 45 187 45q223 0 363 -136t140 -340t-146 -343t-372 -139t-391 157q-51 41 -6 92l33 45
q39 49 92 9q117 -111 257 -111z" />
    <glyph glyph-name="six" unicode="6" horiz-adv-x="1212" 
d="M324 553q0 -135 96 -263t224 -128t200 83t72 217t-81 218t-213 84t-214 -62q-84 -62 -84 -149zM772 1284q-188 0 -300 -144t-138 -349h4q47 63 135 104t199 41q198 0 322 -133t124 -340t-131 -347t-350 -140t-371 188t-153 490q0 302 156 549q77 120 206 194
q129 73 269 73t237 -34q63 -23 39 -86l-19 -52q-20 -57 -81 -41q-76 27 -148 27z" />
    <glyph glyph-name="seven" unicode="7" horiz-adv-x="1054" 
d="M702 1270h-579q-68 0 -68 67v41q0 68 68 68h831q68 0 68 -64v-32q0 -47 -18 -82l-611 -1219q-23 -49 -78 -49h-67q-39 0 -52 22t3 58l524 1059l80 133v4q-29 -6 -101 -6z" />
    <glyph glyph-name="eight" unicode="8" horiz-adv-x="1226" 
d="M313 428q0 -121 89 -198q89 -76 208 -76t206 70t87 178q0 109 -125 180q-50 29 -291 133q-174 -131 -174 -287zM879 1067q0 107 -72 167t-189 60q-116 0 -184 -58t-68 -140t54 -136q53 -55 170 -106q27 -12 81 -35t81 -35q127 137 127 283zM111 408q0 231 231 393
q-174 115 -174 281t117 278t327 110q210 0 338 -104q127 -104 127 -286t-172 -369q205 -123 205 -305t-138 -306q-138 -125 -356 -125q-218 -1 -362 123q-143 124 -143 310z" />
    <glyph glyph-name="nine" unicode="9" horiz-adv-x="1212" 
d="M589 682q130 0 215 63t85 148q0 135 -96 263q-97 128 -225 128t-200 -83t-71 -217q0 -134 81 -218t211 -84zM539 512q-195 0 -320 134t-125 342t131 345t334 137q237 0 389 -187t152 -490t-157 -549q-77 -121 -205 -195t-272 -74t-235 37q-63 18 -38 84l18 54
q20 55 82 38q96 -27 147 -26q188 0 300 144t139 349h-5q-47 -63 -138 -103t-197 -40z" />
    <glyph glyph-name="colon" unicode=":" horiz-adv-x="475" 
d="M135 68v75q0 68 66 68h73q68 0 68 -68v-75q0 -68 -68 -68h-73q-66 0 -66 68zM201 825q-66 0 -66 68v76q0 68 66 67h73q68 0 68 -67v-76q0 -68 -68 -68h-73z" />
    <glyph glyph-name="semicolon" unicode=";" horiz-adv-x="559" 
d="M264 215h64q39 1 53 -21t0 -57l-123 -338q-18 -53 -78 -53h-24q-74 0 -58 74l90 338q14 57 76 57zM268 821q-68 0 -67 68v80q0 68 67 67h72q68 0 68 -67v-80q0 -68 -68 -68h-72z" />
    <glyph glyph-name="less" unicode="&#x3c;" horiz-adv-x="1255" 
d="M121 571v23q0 57 51 80l823 366q35 14 58 1t22 -50v-41q0 -53 -53 -78l-680 -286v-4l680 -289q53 -20 53 -78v-39q-1 -39 -23 -53t-57 2l-823 369q-51 20 -51 77z" />
    <glyph glyph-name="equal" unicode="=" horiz-adv-x="1255" 
d="M207 309q-68 0 -68 68v24q0 68 68 68h842q68 0 67 -68v-24q0 -68 -67 -68h-842zM207 696q-68 0 -68 68v24q0 68 68 68h842q68 0 67 -68v-24q0 -68 -67 -68h-842z" />
    <glyph glyph-name="greater" unicode="&#x3e;" horiz-adv-x="1255" 
d="M180 176v39q0 57 51 78l680 289v4l-680 286q-51 25 -51 78v41q0 39 22 52t56 -1l825 -368q51 -25 52 -80v-23q0 -57 -52 -77l-825 -369q-34 -14 -56 -1t-22 52z" />
    <glyph glyph-name="question" unicode="?" horiz-adv-x="933" 
d="M276 68v65q0 68 68 68h72q68 0 67 -68v-65q0 -68 -67 -68h-72q-68 0 -68 68zM350 397q-68 0 -67 68v41q0 149 123 260q51 47 102 93q123 111 123 226q0 87 -67 145t-163 58t-184 -51q-63 -33 -96 18l-27 37q-39 57 12 92q140 90 312 90t296 -104t124 -270q0 -90 -36 -165
t-87 -124t-103 -95q-128 -112 -135 -224l-2 -43q-8 -51 -65 -52h-60z" />
    <glyph glyph-name="at" unicode="@" horiz-adv-x="1626" 
d="M752 497q0 -101 68 -171t171 -70h205v483h-201q-106 0 -175 -70q-68 -71 -68 -172zM106 503q0 308 218 528t532 220q274 1 402 -117t128 -298v-580h80q68 0 68 -68v-14q0 -68 -68 -68h-491q-186 0 -305 114t-119 273t118 271t306 113h221q-4 92 -91 151t-241 59
q-236 0 -398 -175t-161 -411q-1 -235 143 -403t373 -190q66 -6 66 -70v-26q0 -72 -70 -66q-311 23 -511 236t-200 521z" />
    <glyph glyph-name="A" unicode="A" horiz-adv-x="1271" 
d="M416 584h438l-160 458l-55 205h-4q-33 -131 -57 -205zM588 1446h98q57 0 76 -55l475 -1313q12 -34 -3 -56t-52 -22h-70q-57 0 -76 55l-129 361h-545l-126 -361q-14 -55 -74 -55h-70q-39 0 -53 22t-2 56l475 1313q18 55 76 55z" />
    <glyph glyph-name="B" unicode="B" horiz-adv-x="1263" 
d="M385 176h326q117 0 183 68t67 178q0 110 -69 180q-69 68 -181 68h-326v-494zM385 838h305q96 0 155 61q58 61 58 157t-57 155q-57 58 -160 59h-301v-432zM184 68v1310q0 68 68 68h438q186 0 302 -98t116 -271q0 -104 -47 -186t-131 -125v-4q111 -33 174 -129t63 -221
q0 -196 -132 -304t-335 -108h-448q-68 0 -68 68z" />
    <glyph glyph-name="C" unicode="C" horiz-adv-x="1447" 
d="M94 728q0 320 207 532t528 210q279 0 480 -149q47 -37 12 -94l-27 -41q-35 -53 -94 -17q-172 115 -362 115q-246 0 -390 -158t-145 -396t147 -402q148 -166 374 -166t409 141q55 43 94 -8l31 -41q39 -51 -10 -94q-221 -184 -514 -185q-330 0 -535 216q-205 217 -205 537z
" />
    <glyph glyph-name="D" unicode="D" horiz-adv-x="1492" 
d="M385 176h264q248 0 393 143q146 143 146 405t-146 403q-146 142 -393 143h-264v-1094zM184 68v1310q0 68 68 68h412q334 0 534 -192t199 -530q0 -340 -200 -532t-533 -192h-412q-68 0 -68 68z" />
    <glyph glyph-name="E" unicode="E" horiz-adv-x="1136" 
d="M184 68v1310q0 68 68 68h704q68 0 68 -68v-41q0 -68 -68 -67h-571v-453h453q68 0 67 -67v-41q0 -68 -67 -68h-453v-465h606q68 0 68 -67v-41q0 -68 -68 -68h-739q-68 0 -68 68z" />
    <glyph glyph-name="F" unicode="F" horiz-adv-x="1034" 
d="M184 68v1310q0 68 68 68h661q68 0 68 -68v-41q0 -68 -68 -67h-528v-475h438q68 0 68 -68v-41q0 -68 -68 -68h-438v-550q0 -68 -68 -68h-65q-68 0 -68 68z" />
    <glyph glyph-name="G" unicode="G" horiz-adv-x="1538" 
d="M94 719q0 323 210 537t527 214q160 0 283 -43t193 -92q51 -39 14 -92l-29 -43q-33 -51 -94 -18q-168 102 -356 102q-244 0 -391 -160t-147 -402t151 -400q152 -160 376 -160q151 0 253 60t143 106l16 20v203h-168q-68 0 -67 67v41q0 68 67 68h285q68 0 67 -68v-591
q0 -68 -67 -68h-39q-68 0 -68 57v54l2 45h-4q-14 -19 -64 -57q-159 -121 -382 -124q-297 0 -504 211t-207 533z" />
    <glyph glyph-name="H" unicode="H" horiz-adv-x="1521" 
d="M184 68v1310q0 68 68 68h65q68 0 68 -68v-569h752v569q0 68 67 68h68q66 0 65 -68v-1310q0 -68 -65 -68h-68q-68 0 -67 68v567h-752v-567q0 -68 -68 -68h-65q-68 0 -68 68z" />
    <glyph glyph-name="I" unicode="I" horiz-adv-x="569" 
d="M184 68v1310q0 68 68 68h65q68 0 68 -68v-1310q0 -68 -68 -68h-65q-68 0 -68 68z" />
    <glyph glyph-name="J" unicode="J" horiz-adv-x="1069" 
d="M45 420q0 68 68 67h69q33 0 47 -15t19 -54q6 -117 61 -187q55 -69 159 -69t168 62q65 62 64 194v852h-297q-66 0 -65 67v41q0 68 65 68h431q68 0 67 -68v-962q0 -219 -126 -330t-302 -111t-302 113t-126 332z" />
    <glyph glyph-name="K" unicode="K" horiz-adv-x="1239" 
d="M184 68v1310q0 68 68 68h65q68 0 68 -68v-540h217l338 563q25 45 80 45h76q41 0 54 -24t-7 -58l-375 -604v-4l401 -676q21 -36 9 -58t-54 -22h-84q-53 0 -79 47l-359 617h-217v-596q0 -68 -68 -68h-65q-68 0 -68 68z" />
    <glyph glyph-name="L" unicode="L" horiz-adv-x="1044" 
d="M184 68v1310q0 68 68 68h65q68 0 68 -68v-1202h582q68 0 67 -67v-41q0 -68 -67 -68h-715q-68 0 -68 68z" />
    <glyph glyph-name="M" unicode="M" horiz-adv-x="1730" 
d="M403 1446q57 0 76 -53l314 -729l71 -195h4q37 115 70 195l313 729q18 53 76 53h92q63 0 70 -64l106 -1312q4 -70 -65 -70h-66q-63 0 -69 66l-66 845l-4 213h-4q-45 -133 -78 -213l-266 -598q-20 -53 -78 -53h-68q-57 0 -77 53l-267 598l-77 217h-4q4 -129 -5 -217
l-65 -845q-6 -66 -68 -66h-67q-70 0 -66 70l107 1312q6 63 69 64h92z" />
    <glyph glyph-name="N" unicode="N" horiz-adv-x="1523" 
d="M184 68v1310q0 68 68 68h78q53 0 82 -45l616 -895q48 -74 100 -174l19 -35h4q-12 129 -12 209v872q0 68 67 68h66q68 0 67 -68v-1310q0 -68 -67 -68h-78q-55 0 -80 45l-618 893l-119 211h-4q12 -129 12 -211v-870q0 -68 -68 -68h-65q-68 0 -68 68z" />
    <glyph glyph-name="O" unicode="O" horiz-adv-x="1669" 
d="M836 1284q-229 0 -382 -158t-153 -397t153 -403t382 -164t381 164q151 164 151 404t-152 396q-152 158 -380 158zM1577 728q0 -318 -211 -534q-211 -218 -530 -218q-320 0 -532 217t-212 535t211 530t531 212t532 -212q211 -212 211 -530z" />
    <glyph glyph-name="P" unicode="P" horiz-adv-x="1220" 
d="M385 711h295q131 -1 206 75t75 206t-75 204t-204 74h-297v-559zM184 68v1310q0 68 68 68h461q201 0 327 -124t125 -329q0 -205 -127 -331t-325 -127h-328v-467q0 -68 -68 -68h-65q-68 0 -68 68z" />
    <glyph glyph-name="Q" unicode="Q" horiz-adv-x="1671" 
d="M1370 731q0 237 -154 395t-381 158q-228 0 -380 -158t-152 -397t152 -403t379 -164q186 0 315 106l-121 121q-49 43 -4 94l27 27q45 53 90 8l123 -125q106 147 106 338zM834 -25q-320 1 -530 219t-210 535t211 529t532 212t531 -212t211 -527q0 -270 -170 -477l119 -119
q49 -43 6 -94l-27 -29q-49 -49 -92 -4l-123 123q-195 -156 -458 -156z" />
    <glyph glyph-name="R" unicode="R" horiz-adv-x="1263" 
d="M385 752h291q118 0 188 74t70 194q0 168 -135 225q-55 25 -172 25h-242v-518zM184 68v1310q0 68 68 68h389q184 0 280 -43q97 -43 157 -141t60 -236t-69 -247q-70 -110 -188 -148v-4q18 -20 43 -66l260 -481q20 -36 7 -58t-52 -22h-82q-57 0 -80 47l-283 528h-309v-507
q0 -68 -68 -68h-65q-68 0 -68 68z" />
    <glyph glyph-name="S" unicode="S" horiz-adv-x="1099" 
d="M553 164q115 0 185 56t69 148q0 92 -72 153t-174 105q-103 44 -205 93t-174 137t-71 213q0 180 133 291t336 110q115 0 212 -34t148 -73q51 -38 23 -95l-29 -51q-31 -55 -92 -19q-142 84 -262 84t-192 -55t-73 -137q0 -150 187 -228q187 -77 329 -159q78 -44 130 -125
q51 -82 51 -191q0 -176 -124 -294t-335 -118q-139 -1 -253 47t-181 103q-47 43 -8 94l34 49q37 47 93 13q162 -117 315 -117z" />
    <glyph glyph-name="T" unicode="T" horiz-adv-x="1218" 
d="M510 68v1202h-430q-68 0 -68 67v41q0 68 68 68h1061q66 0 65 -68v-41q0 -68 -65 -67h-430v-1202q0 -68 -68 -68h-68q-65 0 -65 68z" />
    <glyph glyph-name="U" unicode="U" horiz-adv-x="1468" 
d="M166 512v866q0 68 67 68h68q66 0 66 -68v-864q0 -164 99 -258t267 -94t267 94t100 260v862q0 68 67 68h68q68 0 68 -68v-866q0 -242 -157 -389t-412 -147q-256 0 -412 146q-156 148 -156 390z" />
    <glyph glyph-name="V" unicode="V" horiz-adv-x="1275" 
d="M86 1446h78q57 0 76 -55l340 -967l55 -199h4q31 121 55 199l344 967q18 55 76 55h76q39 0 53 -22t2 -56l-481 -1313q-18 -55 -76 -55h-98q-58 0 -78 55l-481 1313q-12 34 2 56t53 22z" />
    <glyph glyph-name="W" unicode="W" horiz-adv-x="1935" 
d="M139 1446h72q61 0 76 -60l239 -1001l27 -154h4q12 74 35 154l268 1004q14 57 76 57h57q61 0 74 -57l268 -1004l33 -154h4q10 76 29 154l252 1001q14 59 76 60h69q76 0 60 -74l-347 -1315q-14 -57 -75 -57h-113q-57 0 -74 57l-237 881l-45 205h-6q-20 -113 -46 -205
l-237 -881q-16 -57 -76 -57h-113q-59 0 -75 59l-334 1313q-16 74 59 74z" />
    <glyph glyph-name="X" unicode="X" horiz-adv-x="1202" 
d="M143 1446h86q49 0 80 -45l199 -346l92 -172h4q43 92 90 172l203 346q25 45 78 45h86q41 0 53 -23t-8 -57l-381 -621l408 -665q23 -36 9 -58t-55 -22h-79q-53 0 -80 47l-236 397l-92 166h-4q-41 -86 -88 -166l-234 -397q-27 -47 -79 -47h-78q-41 0 -55 22t8 58l405 665
l-377 621q-20 36 -8 58t53 22z" />
    <glyph glyph-name="Y" unicode="Y" horiz-adv-x="1161" 
d="M479 68v544l-438 754q-20 36 -6 58t53 22h82q55 0 78 -47l244 -428l88 -183h4q43 100 88 183l241 428q25 47 78 47h82q39 0 53 -23t-6 -57l-438 -754v-544q0 -68 -68 -68h-67q-68 0 -68 68z" />
    <glyph glyph-name="Z" unicode="Z" horiz-adv-x="1204" 
d="M66 68v20q0 45 28 86l668 965q45 66 90 118l14 15v4q-39 -6 -108 -6h-588q-68 0 -68 67v41q0 68 68 68h881q68 0 67 -66v-20q0 -45 -26 -86l-670 -967q-39 -54 -90 -114l-15 -17v-4q39 4 109 4h633q68 0 67 -67v-41q0 -68 -67 -68h-926q-67 0 -67 68z" />
    <glyph glyph-name="bracketleft" unicode="[" horiz-adv-x="583" 
d="M164 -127v1567q0 66 67 65h205q66 0 66 -65v-17q0 -68 -64 -67h-100v-1399h98q66 0 66 -68v-16q0 -68 -66 -68h-205q-67 0 -67 68z" />
    <glyph glyph-name="backslash" unicode="\" horiz-adv-x="808" 
d="M172 1524q59 0 78 -56l479 -1478q10 -36 -5 -56t-52 -20h-37q-58 0 -78 55l-477 1479q-10 35 5 55t52 21h35z" />
    <glyph glyph-name="bracketright" unicode="]" horiz-adv-x="583" 
d="M82 -111q0 68 65 68h99v1399h-99q-66 0 -65 67v17q0 66 65 65h205q68 0 68 -65v-1567q0 -68 -68 -68h-205q-66 0 -65 68v16z" />
    <glyph glyph-name="asciicircum" unicode="^" horiz-adv-x="1255" 
d="M227 506q-39 0 -53 22t2 58l352 809q20 51 78 51h19q57 0 77 -51l353 -809q16 -35 1 -58t-55 -22h-34q-55 0 -78 53l-275 668l-272 -668q-23 -53 -78 -53h-37z" />
    <glyph glyph-name="underscore" unicode="_" horiz-adv-x="1126" 
d="M12 -68q0 68 68 68h967q68 0 67 -68v-24q0 -68 -67 -68h-967q-68 0 -68 68v24z" />
    <glyph glyph-name="grave" unicode="`" horiz-adv-x="1021" 
d="M575 1546q-49 0 -81 41l-101 137q-27 33 -17 58t52 24h61q53 0 80 -47l80 -139q18 -30 10 -52t-43 -22h-41z" />
    <glyph glyph-name="a" unicode="a" horiz-adv-x="1058" 
d="M260 299q0 -68 51 -117t142 -49q123 1 201 103t79 227v45h-53q-420 0 -420 -209zM59 283q0 93 45 161t110 104q164 91 464 91h53v27q0 227 -225 227q-117 0 -234 -66q-59 -29 -92 25l-16 29q-33 61 22 92q156 88 344 88q188 -1 293 -105q106 -104 107 -301v-587
q0 -68 -68 -68h-51q-68 0 -68 68v61l7 64h-5l-12 -24q-8 -15 -38 -52q-31 -37 -65 -66t-94 -53t-128 -23q-143 1 -246 85t-103 223z" />
    <glyph glyph-name="b" unicode="b" horiz-adv-x="1212" 
d="M338 532q0 -168 76 -276t210 -109q134 1 220 99t86 268t-81 271t-210 101t-215 -92q-86 -94 -86 -262zM145 68v1310q0 68 68 68h63q66 0 66 -68v-420l-6 -88h4q34 67 117 128t221 63q205 0 329 -150q123 -149 123 -393t-132 -394t-336 -149q-134 0 -217 66
q-84 66 -105 111l-10 20h-4q6 -25 6 -61v-52q0 -59 -68 -59h-51q-68 0 -68 68z" />
    <glyph glyph-name="c" unicode="c" horiz-adv-x="1087" 
d="M614 -25q-230 -1 -384 153t-154 388t155 389q156 156 398 156q201 0 342 -111q53 -35 12 -92l-20 -31q-33 -51 -93 -16q-109 78 -248 78q-139 -1 -241 -105t-102 -264t103 -266q104 -106 252 -106t273 94q57 37 92 -19l17 -30q33 -55 -19 -91q-154 -127 -383 -127z" />
    <glyph glyph-name="d" unicode="d" horiz-adv-x="1212" 
d="M874 502q0 168 -76 276t-211 109q-134 1 -219 -99t-85 -269t81 -270q82 -101 210 -101t214 92q86 94 86 262zM537 -25q-209 -1 -333 149t-124 395t131 393t338 149q134 0 211 -59t100 -101l10 -18h4q-6 31 -6 69v426q0 68 68 68h63q68 0 68 -68v-1310q0 -68 -68 -68h-53
q-68 0 -67 63v60l4 51h-4q-63 -127 -209 -177q-61 -22 -133 -22z" />
    <glyph glyph-name="e" unicode="e" horiz-adv-x="1116" 
d="M289 629h555q-4 133 -75 205t-181 72t-195 -74q-84 -74 -104 -203zM78 524q0 238 146 388t364 149q218 0 337 -136q118 -136 117 -358q0 -29 -19 -49t-50 -20h-692q8 -164 110 -257q101 -93 243 -93t253 81q61 33 92 -22l18 -31q35 -57 -20 -90q-158 -111 -350 -111
q-242 0 -396 155q-153 156 -153 394z" />
    <glyph glyph-name="f" unicode="f" horiz-adv-x="659" 
d="M188 68v796h-65q-68 0 -68 68v26q0 68 68 68h65v49q0 92 30 165t72 112q112 104 273 104h25q68 0 67 -67v-39q0 -61 -72 -66t-116 -31q-78 -46 -80 -186v-41h178q68 0 68 -68v-26q0 -68 -68 -68h-178v-796q0 -68 -68 -68h-63q-68 0 -68 68z" />
    <glyph glyph-name="g" unicode="g" horiz-adv-x="1198" 
d="M575 184q131 0 207 84t76 271q0 350 -287 350q-137 0 -212 -90t-75 -252q0 -163 81 -263q80 -100 210 -100zM548 -258q124 0 215 71t91 220v90l6 65h-4q-96 -176 -308 -176t-339 150t-127 380t122 374t341 145q180 0 283 -112q24 -26 40 -62h4q-4 12 -4 33v59q0 57 68 57
h49q68 0 68 -67v-926q0 -237 -151 -355t-342 -118t-322 57q-61 27 -35 90l14 35q27 57 86 35q121 -45 245 -45z" />
    <glyph glyph-name="h" unicode="h" horiz-adv-x="1212" 
d="M145 68v1310q0 68 68 68h63q66 0 66 -68v-469l-6 -86h4q41 90 143 164t244 74q356 0 356 -397v-596q0 -68 -67 -68h-64q-68 0 -67 68v550q0 125 -41 193t-156 68q-150 0 -248 -110t-98 -277v-424q0 -68 -66 -68h-63q-68 0 -68 68z" />
    <glyph glyph-name="i" unicode="i" horiz-adv-x="485" 
d="M143 68v901q0 68 68 67h63q68 0 68 -67v-901q0 -68 -68 -68h-63q-68 0 -68 68zM209 1243q-68 0 -68 68v67q0 68 68 68h70q68 0 67 -68v-67q0 -68 -67 -68h-70z" />
    <glyph glyph-name="j" unicode="j" horiz-adv-x="487" 
d="M145 -23v992q0 68 68 67h63q66 0 66 -67v-1000q0 -96 -30 -171q-30 -74 -72 -114t-111 -73q-70 -33 -160 -33h-24q-68 0 -68 68v37q0 59 68 67q71 4 118 34q46 30 64 76t18 117zM209 1243q-68 0 -68 68v67q0 68 68 68h70q68 0 67 -68v-67q0 -68 -67 -68h-70z" />
    <glyph glyph-name="k" unicode="k" horiz-adv-x="1042" 
d="M145 68v1310q0 68 68 68h63q66 0 66 -68v-721h150l251 336q27 43 80 43h76q41 0 53 -24t-12 -58l-287 -374v-5l332 -493q23 -34 9 -58t-54 -24h-82q-53 0 -80 47l-282 438h-154v-417q0 -68 -66 -68h-63q-68 0 -68 68z" />
    <glyph glyph-name="l" unicode="l" horiz-adv-x="536" 
d="M143 283v1095q0 68 68 68h63q68 0 68 -68v-1071q0 -129 94 -137q53 -6 53 -59v-50q0 -70 -69 -69q-277 0 -277 291z" />
    <glyph glyph-name="m" unicode="m" horiz-adv-x="1847" 
d="M143 68v901q0 68 68 67h57q68 0 68 -67v-92l-6 -60h4q41 96 142 170t218 74q256 0 312 -236h4q45 96 145 166t221 70q176 0 259 -98t83 -299v-596q0 -68 -67 -68h-64q-68 0 -67 68v553q0 125 -38 193t-145 67q-137 0 -222 -120t-85 -278v-415q0 -68 -65 -68h-66
q-66 0 -65 68v553q0 123 -36 191t-145 69q-139 0 -225 -121t-86 -277v-415q0 -68 -68 -68h-63q-68 0 -68 68z" />
    <glyph glyph-name="n" unicode="n" horiz-adv-x="1210" 
d="M143 68v901q0 68 68 67h57q68 0 68 -67v-92l-6 -60h4q41 90 141 167t252 77q354 0 354 -397v-596q0 -68 -67 -68h-64q-68 0 -67 68v550q0 125 -40 193t-155 68q-150 0 -248 -111t-98 -272v-428q0 -68 -68 -68h-63q-68 0 -68 68z" />
    <glyph glyph-name="o" unicode="o" horiz-adv-x="1267" 
d="M276 520q0 -160 104 -266t254 -106q149 0 252 104q103 106 103 267t-103 265q-104 104 -252 104t-253 -104t-105 -264zM76 520q0 233 162 387t396 154t396 -154t162 -387t-163 -389t-396 -156t-395 156t-162 389z" />
    <glyph glyph-name="p" unicode="p" horiz-adv-x="1212" 
d="M338 534q0 -166 79 -277q79 -110 210 -110q131 -1 217 99t86 269t-81 270t-210 101t-215 -92q-86 -94 -86 -260zM145 -342v1311q0 68 68 67h47q68 0 68 -57v-61l-4 -56h4l11 22q7 13 37 47q115 130 311 130t320 -150q123 -149 123 -393t-132 -394t-336 -149
q-162 0 -276 119q-26 27 -36 45l-10 21h-4q6 -37 6 -90v-412q0 -68 -66 -68h-63q-68 0 -68 68z" />
    <glyph glyph-name="q" unicode="q" horiz-adv-x="1212" 
d="M874 502q0 168 -76 276t-211 109q-134 1 -219 -99t-85 -269t81 -270q82 -101 210 -101t214 92q86 94 86 262zM80 520q0 244 131 392t340 149q140 0 219 -64q80 -64 102 -108l11 -21h4q-4 25 -4 58v53q0 57 67 57h49q68 0 68 -67v-1311q0 -68 -68 -68h-63q-68 0 -68 68
v420l6 90h-4q-63 -126 -204 -172q-61 -20 -134 -21q-204 1 -328 151t-124 394z" />
    <glyph glyph-name="r" unicode="r" horiz-adv-x="729" 
d="M143 68v901q0 68 68 67h57q68 0 68 -67v-119l-6 -78h4q37 113 122 193t195 79q66 0 66 -67v-57q0 -68 -74 -68q-143 0 -222 -128t-79 -296v-360q0 -68 -68 -68h-63q-68 0 -68 68z" />
    <glyph glyph-name="s" unicode="s" horiz-adv-x="899" 
d="M457 139q78 0 127 36t49 96q0 61 -55 99q-54 38 -134 66t-158 61t-132 101q-55 68 -56 164q0 141 108 220t268 79t286 -80q57 -29 22 -90l-18 -31q-29 -51 -90 -22q-104 59 -196 59t-141 -34q-48 -34 -48 -93t55 -98t134 -66q79 -26 157 -60t133 -101t55 -164
q0 -133 -103 -219q-104 -86 -286 -87q-182 0 -332 113q-51 33 -14 92l21 29q35 47 94 14q129 -84 254 -84z" />
    <glyph glyph-name="t" unicode="t" horiz-adv-x="700" 
d="M193 373v491h-72q-66 0 -66 68v26q0 68 68 68h74v227q0 68 67 68h60q68 0 67 -68v-227h180q68 0 68 -68v-26q0 -68 -66 -68h-182v-461q0 -217 197 -233q41 -4 56 -18t15 -50v-43q0 -68 -81 -67q-166 0 -276 97q-109 98 -109 284z" />
    <glyph glyph-name="u" unicode="u" horiz-adv-x="1202" 
d="M483 -25q-352 0 -352 398v596q0 68 68 67h63q66 0 66 -67v-551q0 -123 41 -191t153 -67q154 0 246 114t92 277v418q0 68 68 67h63q68 0 68 -67v-901q0 -68 -68 -68h-57q-68 0 -68 68v92l6 59h-4q-41 -92 -143 -168t-242 -76z" />
    <glyph glyph-name="v" unicode="v" horiz-adv-x="1021" 
d="M162 1036q57 0 76 -55l233 -645l37 -141h4q18 84 37 141l233 645q18 55 76 55h70q37 0 52 -22t1 -56l-336 -905q-18 -53 -76 -53h-114q-58 0 -76 53l-340 905q-12 35 2 57t51 21h70z" />
    <glyph glyph-name="w" unicode="w" horiz-adv-x="1644" 
d="M104 1036h68q61 0 76 -57l203 -670l24 -110h4q12 57 29 110l209 668q12 57 74 57h63q61 0 76 -57l209 -668l26 -110h4q10 57 27 110l203 670q12 57 74 57h67q37 0 52 -20t5 -55l-292 -904q-14 -57 -76 -57h-101q-61 0 -75 57l-199 609l-29 112h-4q-12 -59 -30 -112
l-197 -609q-14 -57 -76 -57h-102q-62 0 -76 57l-293 904q-10 35 5 55t52 20z" />
    <glyph glyph-name="x" unicode="x" horiz-adv-x="989" 
d="M213 1036q53 0 78 -47l168 -268l33 -62h4q20 35 34 62l166 268q27 47 80 47h76q41 0 54 -24t-9 -58l-281 -422l302 -450q24 -34 10 -58t-56 -24h-73q-53 0 -80 47l-191 299l-32 57h-4q-14 -33 -31 -57l-191 -299q-27 -47 -80 -47h-73q-41 0 -55 24t10 58l301 450
l-283 422q-24 35 -10 59t55 23h78z" />
    <glyph glyph-name="y" unicode="y" horiz-adv-x="1028" 
d="M160 1036q57 0 76 -53l243 -625l37 -125h4q16 70 35 123l236 625q18 55 75 55h74q37 0 52 -22t1 -56l-456 -1140q-45 -119 -135 -184t-201 -64q-63 0 -144 33q-59 25 -30 88l16 35q23 49 76 34q57 -23 82 -22q59 0 105 44t73 112l51 118l-401 946q-14 35 0 57t51 21h80z
" />
    <glyph glyph-name="z" unicode="z" horiz-adv-x="1024" 
d="M63 57v17q0 41 29 78l494 618l86 96v4q-33 -4 -101 -4h-417q-68 0 -68 68v35q0 68 68 67h718q68 0 68 -57v-16q0 -41 -29 -78l-493 -621l-88 -94v-4q33 4 100 4h459q68 0 67 -66v-36q0 -68 -67 -68h-758q-68 0 -68 57z" />
    <glyph glyph-name="braceleft" unicode="{" horiz-adv-x="665" 
d="M229 158v196q0 156 -118 207q-55 29 -56 76v59q0 45 56 74q119 57 118 211v170q0 109 34 187t85 111q90 60 172 60h23q68 0 67 -67v-25q0 -68 -67 -67q-139 0 -140 -215v-205q0 -115 -57 -178t-108 -82v-4q102 -34 147 -153q18 -48 18 -107v-232q0 -138 50 -177
q50 -38 90 -38q68 0 67 -68v-24q0 -68 -67 -68h-23q-80 0 -172 61q-51 34 -85 112t-34 186z" />
    <glyph glyph-name="bar" unicode="|" horiz-adv-x="497" 
d="M162 -258v1812q0 68 67 68h39q68 0 68 -68v-1812q0 -68 -68 -68h-39q-67 0 -67 68z" />
    <glyph glyph-name="braceright" unicode="}" horiz-adv-x="667" 
d="M55 -109q0 68 68 68q41 1 75 27q64 50 64 188v232q0 149 107 229q24 18 59 31v4q-21 7 -53 29q-63 43 -87 108q-25 65 -26 123v205q0 215 -139 215q-68 0 -68 67v25q0 68 68 67h22q66 1 122 -29q57 -30 89 -68t57 -106q24 -68 23 -155v-170q0 -154 119 -211
q55 -29 55 -74v-59q0 -47 -55 -76q-119 -51 -119 -207v-196q0 -88 -24 -156q-40 -116 -120 -159q-80 -44 -147 -44h-22q-68 0 -68 68v24z" />
    <glyph glyph-name="asciitilde" unicode="~" horiz-adv-x="1206" 
d="M184 418q-76 0 -63 88q35 258 280 258q72 0 130 -32q57 -32 89 -68q87 -100 175 -101q98 0 127 129q23 63 71 64h31q33 0 50 -20t13 -52q-27 -274 -280 -274q-72 0 -130 30t-89 69q-82 101 -174 99q-100 0 -127 -129q-23 -61 -72 -61h-31z" />
    <glyph glyph-name="uni00A0" unicode="&#xa0;" horiz-adv-x="512" 
 />
    <glyph glyph-name="exclamdown" unicode="&#xa1;" horiz-adv-x="518" 
d="M360 969v-66q0 -68 -67 -67h-70q-68 0 -67 67v66q0 68 67 67h70q67 1 67 -67zM283 639q68 0 67 -68l10 -913q0 -68 -65 -68h-70q-68 0 -67 68l10 913q4 68 70 68h45z" />
    <glyph glyph-name="cent" unicode="&#xa2;" horiz-adv-x="1144" 
d="M528 41v109q-198 28 -314 188t-116 386t117 387t313 187v105q0 68 66 67h16q63 0 64 -57v-115q115 -14 210 -85t146 -169q31 -59 -35 -88l-57 -22q-53 -18 -88 33q-90 147 -238 147t-230 -108q-81 -108 -81 -284t80 -282q79 -106 229 -106t240 147q37 51 88 33l57 -22
q66 -29 35 -89q-51 -98 -146 -171t-210 -82v-109q0 -68 -64 -68h-16q-66 0 -66 68z" />
    <glyph glyph-name="sterling" unicode="&#xa3;" horiz-adv-x="1183" 
d="M109 68v41q0 68 67 67h62v477h-43q-61 0 -62 66v12q0 66 62 66h43v278q0 170 126 283t318 112q152 0 289 -88q55 -41 8 -94l-31 -41q-37 -45 -94 -10q-84 49 -182 49t-164 -62t-66 -157v-270h310q68 0 67 -66v-12q0 -66 -67 -66h-310v-477h598q68 0 68 -67v-41
q0 -68 -68 -68h-864q-67 0 -67 68z" />
    <glyph glyph-name="yen" unicode="&#xa5;" horiz-adv-x="1208" 
d="M236 408q-68 0 -68 59v12q0 57 68 58h266v75l-56 99h-210q-68 0 -68 59v12q0 57 59 58h152l-297 526q-18 36 -5 58t54 22h84q57 0 78 -51l221 -400l88 -209h4q43 113 88 209l221 400q20 51 78 51h84q41 0 55 -23t-6 -57l-297 -526h142q68 0 67 -58v-12q0 -59 -67 -59
h-211l-53 -99v-75h264q68 0 67 -58v-12q0 -59 -67 -59h-264v-340q0 -68 -68 -68h-70q-68 0 -67 68v340h-266z" />
    <glyph glyph-name="section" unicode="&#xa7;" horiz-adv-x="899" 
d="M398 39q86 0 147 56t61 159q0 41 -12 92l-119 696q-8 34 8 54t52 20h24q61 0 74 -59l131 -740q10 -55 10 -92q0 -156 -104 -254t-283 -98q-125 0 -233 68q-58 35 -17 92l17 26q33 49 92 19q66 -39 152 -39zM131 1120q1 154 105 252t282 98q129 0 234 -65q55 -35 16 -94
l-18 -25q-35 -43 -101 -12q-67 31 -147 31q-80 1 -142 -53t-61 -154q0 -37 12 -82l121 -715q8 -35 -8 -54t-51 -20h-25q-62 1 -74 60l-133 739q-10 51 -10 94z" />
    <glyph glyph-name="dieresis" unicode="&#xa8;" horiz-adv-x="1021" 
d="M326 1599q-68 0 -68 68v72q0 68 68 67h28q68 0 68 -67v-72q0 -68 -68 -68h-28zM668 1599q-68 0 -68 68v72q0 68 68 67h28q68 0 68 -67v-72q0 -68 -68 -68h-28z" />
    <glyph glyph-name="copyright" unicode="&#xa9;" horiz-adv-x="1671" 
d="M444 720q0 169 112 290t294 120q100 0 177 -45t114 -94t-2 -80l-27 -22q-39 -35 -82 14q-76 86 -186 86t-178 -78q-68 -77 -68 -191t68 -191t184 -77t188 91q37 43 74 8l25 -19q41 -35 8 -79q-119 -141 -299 -141t-291 119q-111 120 -111 289zM254 723q0 -256 167 -432
t413 -176t414 176q169 176 169 432t-169 432t-415 176q-247 0 -413 -176t-166 -432zM104 723q0 311 212 529t516 218t520 -218t215 -529q0 -311 -215 -529q-216 -218 -520 -218t-516 218t-212 529z" />
    <glyph glyph-name="ordfeminine" unicode="&#xaa;" horiz-adv-x="819" 
d="M195 543q-68 0 -68 55v8q0 53 68 53h428q68 0 67 -53v-8q0 -55 -67 -55h-428zM390 903q58 0 102 56q43 56 43 126v17h-25q-233 0 -234 -111q0 -37 28 -63t86 -25zM338 782q-76 0 -144 54t-67 147q0 223 387 223h21v13q0 129 -129 129q-60 0 -118 -27t-81 14l-6 13
q-29 49 32 75q86 43 201 43q116 0 182 -66t66 -192v-344q0 -68 -61 -67h-9q-63 0 -63 63v43h-4q-5 -13 -19 -33t-64 -54q-48 -34 -124 -34z" />
    <glyph glyph-name="guillemotleft" unicode="&#xab;" horiz-adv-x="1071" 
d="M492 999q43 -1 54 -25t-16 -56l-268 -340l268 -338q27 -35 19 -59t-49 -23h-49q-51 0 -84 39l-265 333q-41 47 0 95l265 336q33 39 84 38h41zM905 999q43 -1 54 -25t-15 -56l-268 -340l268 -338q29 -35 19 -59t-52 -23h-49q-49 0 -82 39l-266 333q-37 47 0 95l266 336
q33 39 82 38h43z" />
    <glyph glyph-name="logicalnot" unicode="&#xac;" horiz-adv-x="1263" 
d="M203 696q-68 0 -68 68v24q0 68 68 68h841q68 0 68 -68v-411q0 -68 -68 -68h-30q-68 0 -68 68v319h-743z" />
    <glyph glyph-name="uni00AD" unicode="&#xad;" horiz-adv-x="860" 
d="M199 496q-68 0 -68 67v41q0 68 68 68h463q68 0 67 -68v-41q0 -68 -67 -67h-463z" />
    <glyph glyph-name="registered" unicode="&#xae;" horiz-adv-x="1671" 
d="M727 745h123q59 0 92 35q33 36 33 96t-33 93t-90 32h-125v-256zM582 406v638q0 68 67 68h232q109 0 175 -64t66 -159t-43 -149t-98 -68v-4q8 -8 27 -43l106 -207q18 -35 8 -57t-45 -21h-24q-57 0 -80 49l-119 250h-127v-233q0 -66 -63 -66h-19q-63 0 -63 66zM254 723
q0 -256 167 -432t413 -176t414 176q169 176 169 432t-169 432t-415 176q-247 0 -413 -176t-166 -432zM104 723q0 311 213 529t517 218t518 -218t215 -529q0 -311 -214 -529q-215 -218 -519 -218t-517 218t-213 529z" />
    <glyph glyph-name="macron" unicode="&#xaf;" horiz-adv-x="1021" 
d="M317 1606q-68 0 -67 65v15q0 66 67 65h388q68 0 67 -65v-15q0 -66 -67 -65h-388z" />
    <glyph glyph-name="degree" unicode="&#xb0;" horiz-adv-x="782" 
d="M391 1016q63 0 108 44q44 44 44 107t-44 109q-43 46 -107 45q-64 0 -108 -45q-44 -44 -44 -108t44 -108t107 -44zM389 864q-129 0 -219 88t-90 214t91 215t219 89t220 -89t92 -214t-92 -214t-221 -89z" />
    <glyph glyph-name="plusminus" unicode="&#xb1;" horiz-adv-x="1255" 
d="M186 -195h883q68 0 68 -67v-25q0 -68 -68 -67h-883q-68 0 -67 67v25q-1 67 67 67zM154 504q-68 0 -68 67v25q0 68 68 68h391v436q0 68 67 67h33q68 0 68 -67v-436h389q68 0 67 -68v-25q0 -68 -67 -67h-389v-436q0 -68 -68 -68h-33q-68 0 -67 68v436h-391z" />
    <glyph glyph-name="twosuperior" unicode="&#xb2;" horiz-adv-x="731" 
d="M127 866q-68 0 -68 74q0 96 45 171q44 75 108 121t128 86q154 97 154 189q0 57 -42 95t-106 38t-127 -53q-53 -39 -92 -2q-64 48 -12 98q109 99 237 99t213 -75q84 -75 84 -194q0 -81 -42 -147t-103 -108q-60 -42 -122 -78q-148 -88 -155 -179h369q68 0 68 -63v-8
q0 -63 -68 -64h-469z" />
    <glyph glyph-name="threesuperior" unicode="&#xb3;" horiz-adv-x="731" 
d="M330 846q-146 0 -248 92q-51 37 -2 98q33 43 90 13q72 -61 151 -61t129 44q50 45 50 111q0 65 -52 105t-122 40h-27q-51 0 -66 39q-14 39 19 82l145 168l52 49v4q-39 -6 -74 -6h-223q-68 0 -68 66v8q0 63 68 63h421q68 0 68 -49v-10q0 -37 -33 -76l-190 -221
q100 -16 169 -82q69 -65 69 -183t-91 -206q-89 -88 -235 -88z" />
    <glyph glyph-name="acute" unicode="&#xb4;" horiz-adv-x="1021" 
d="M412 1546q-35 0 -47 23t6 53l82 137q27 47 79 47h60q43 0 53 -24t-16 -58l-101 -137q-33 -41 -82 -41h-34z" />
    <glyph glyph-name="mu" unicode="&#xb5;" horiz-adv-x="1290" 
d="M174 -342v1311q0 68 68 67h63q66 0 66 -67v-551q0 -123 40 -191t152 -67q156 0 248 114t92 277v418q0 68 68 67h63q68 0 68 -67v-901q0 -68 -68 -68h-57q-68 0 -68 68v86l4 59h-4q-26 -54 -107 -135q-46 -45 -119 -74t-145 -29q-72 1 -119 17q-46 16 -63 33l-16 14h-4
q14 -100 14 -160v-221q0 -68 -67 -68h-41q-68 0 -68 68z" />
    <glyph glyph-name="paragraph" unicode="&#xb6;" horiz-adv-x="1210" 
d="M840 -35v1120q0 68 67 68h19q68 0 67 -68v-1120q0 -68 -67 -67h-19q-67 -1 -67 67zM559 -35v529q-199 0 -342 138t-143 338t142 338t343 138h488q68 0 67 -68v-41q0 -68 -67 -67h-334v-1305q0 -68 -68 -67h-18q-68 -1 -68 67z" />
    <glyph glyph-name="periodcentered" unicode="&#xb7;" horiz-adv-x="473" 
d="M199 485q-66 0 -66 68v82q0 68 66 67h73q68 0 68 -67v-82q0 -68 -68 -68h-73z" />
    <glyph glyph-name="cedilla" unicode="&#xb8;" horiz-adv-x="1021" 
d="M672 -264q0 -76 -60 -118t-158 -42q-97 0 -98 59q0 61 37 62l53 -6q88 0 89 65q0 55 -97 66q-48 4 -32 57l38 160h109l-29 -141q66 -8 107 -48q41 -38 41 -114z" />
    <glyph glyph-name="onesuperior" unicode="&#xb9;" horiz-adv-x="620" 
d="M129 866q-68 0 -68 64v8q0 63 60 63h131v510l4 54h-4q-6 -14 -35 -41l-43 -43q-35 -27 -65 4l-17 18q-41 45 6 92l133 131q35 35 84 35h23q68 0 68 -67v-693h120q68 0 68 -63v-8q0 -63 -68 -64h-397z" />
    <glyph glyph-name="ordmasculine" unicode="&#xba;" horiz-adv-x="927" 
d="M213 543q-68 0 -68 55v8q0 53 68 53h504q68 0 67 -53v-8q0 -55 -67 -55h-504zM463 920q84 0 142 59q59 59 59 150t-58 149t-143 59q-84 0 -142 -58q-59 -57 -59 -149t58 -151t143 -59zM463 786q-147 0 -249 98t-101 244q0 148 102 244q103 96 249 96t248 -96t101 -244
q1 -148 -101 -245t-249 -97z" />
    <glyph glyph-name="guillemotright" unicode="&#xbb;" horiz-adv-x="1071" 
d="M166 158q-43 0 -54 24t15 58l268 338l-268 340q-27 34 -17 58t50 23h49q49 0 82 -38l266 -336q41 -47 0 -95l-266 -333q-33 -39 -82 -39h-43zM623 999q49 0 82 -38l266 -336q37 -47 0 -95l-266 -333q-33 -39 -82 -39h-43q-43 0 -55 23q-11 24 16 59l268 338l-268 340
q-29 34 -19 58t51 23h50z" />
    <glyph glyph-name="onequarter" unicode="&#xbc;" horiz-adv-x="1927" 
d="M168 553q-68 0 -68 63v9q0 63 60 63h131v510l4 53h-4q-6 -14 -35 -41l-43 -43q-35 -27 -66 4l-16 19q-41 45 6 92l133 131q35 35 84 35h23q68 0 67 -68v-692h121q68 0 68 -63v-9q0 -63 -68 -63h-397zM614 0h-24q-33 0 -43 23t6 57l627 1317q23 49 80 49h22q35 0 44 -22
t-7 -58l-625 -1315q-25 -51 -80 -51zM1315 354h258v252l8 119h-4q-29 -55 -61 -98l-201 -269v-4zM1640 0q-68 0 -67 68v151h-356q-68 0 -68 51v19q0 37 25 69l356 494q29 43 82 43h45q68 0 67 -68v-473h72q59 0 59 -63v-8q0 -63 -59 -64h-72v-151q0 -68 -67 -68h-17z" />
    <glyph glyph-name="onehalf" unicode="&#xbd;" horiz-adv-x="1896" 
d="M164 553q-68 0 -68 63v9q0 63 60 63h131v510l4 53h-4q-6 -14 -35 -41l-43 -43q-35 -27 -66 4l-16 19q-41 45 6 92l133 131q35 35 84 35h23q68 0 67 -68v-692h121q68 0 68 -63v-9q0 -63 -68 -63h-397zM612 0h-24q-33 0 -43 23t6 57l627 1317q23 49 79 49h23q35 0 44 -22
t-7 -58l-625 -1315q-25 -51 -80 -51zM1272 0q-68 0 -68 74q0 96 45 171t109 121t126 86q154 97 154 189q0 57 -42 95t-105 38t-127 -53q-53 -39 -92 -2q-64 48 -12 98q110 98 238 98q128 -1 212 -75t84 -193q0 -81 -42 -147t-103 -108t-123 -79q-148 -89 -154 -178h369
q68 0 67 -63v-9q0 -63 -67 -63h-469z" />
    <glyph glyph-name="threequarters" unicode="&#xbe;" horiz-adv-x="1957" 
d="M645 0h-24q-33 0 -43 23t6 57l626 1317q23 49 80 49h23q35 0 44 -22t-7 -58l-625 -1315q-25 -51 -80 -51zM362 532q-146 0 -247 93q-55 39 -2 98q33 43 90 12q72 -61 151 -61q78 0 128 45t50 111t-52 105q-52 40 -122 40h-26q-51 0 -66 39q-14 39 19 82l145 168l51 49v4
q-39 -6 -73 -6h-224q-68 0 -67 65v8q0 63 67 64h422q68 0 68 -49v-10q0 -37 -33 -76l-190 -221q100 -16 169 -82q68 -66 68 -184t-90 -206t-236 -88zM1348 354h258v252l8 119h-4q-29 -55 -62 -98l-200 -269v-4zM1673 0q-68 0 -67 68v151h-357q-68 0 -67 51v19q0 37 24 69
l357 494q29 43 82 43h45q68 0 67 -68v-473h72q59 0 59 -63v-8q0 -63 -59 -64h-72v-151q0 -68 -67 -68h-17z" />
    <glyph glyph-name="questiondown" unicode="&#xbf;" horiz-adv-x="942" 
d="M682 969v-66q0 -68 -68 -67h-71q-68 0 -68 67v66q0 68 68 67h71q68 1 68 -67zM608 639q68 0 68 -68v-41q0 -147 -123 -260q-51 -47 -102 -93q-123 -111 -123 -226q0 -86 66 -145q67 -58 163 -58t184 51q63 33 97 -18l26 -37q39 -57 -12 -92q-139 -90 -311 -90t-296 104
t-124 271q0 91 36 165t87 123t103 95q127 114 134 225l2 43q8 51 66 51h59z" />
    <glyph glyph-name="Agrave" unicode="&#xc0;" horiz-adv-x="1271" 
d="M606 1546q-49 0 -82 41l-100 137q-28 33 -18 58t53 24h61q53 0 80 -47l80 -139q18 -30 10 -52t-43 -22h-41zM416 584h438l-160 458l-55 205h-4q-33 -131 -57 -205zM588 1446h98q57 0 76 -55l475 -1313q12 -34 -3 -56t-52 -22h-70q-57 0 -76 55l-129 361h-545l-126 -361
q-14 -55 -74 -55h-70q-39 0 -53 22t-2 56l475 1313q18 55 76 55z" />
    <glyph glyph-name="Aacute" unicode="&#xc1;" horiz-adv-x="1271" 
d="M629 1546q-35 0 -47 23t6 53l82 137q27 47 80 47h59q43 0 53 -24t-16 -58l-101 -137q-33 -41 -81 -41h-35zM416 584h438l-160 458l-55 205h-4q-33 -131 -57 -205zM588 1446h98q57 0 76 -55l475 -1313q12 -34 -3 -56t-52 -22h-70q-57 0 -76 55l-129 361h-545l-126 -361
q-14 -55 -74 -55h-70q-39 0 -53 22t-2 56l475 1313q18 55 76 55z" />
    <glyph glyph-name="Acircumflex" unicode="&#xc2;" horiz-adv-x="1271" 
d="M440 1546q-37 0 -46 24t14 58l94 133q31 45 84 45h100q53 0 82 -45l96 -133q23 -34 14 -58t-44 -24h-46q-43 0 -71 45l-80 119h-4l-80 -119q-25 -45 -72 -45h-41zM416 584h438l-160 458l-55 205h-4q-33 -131 -57 -205zM588 1446h98q57 0 76 -55l475 -1313q12 -34 -3 -56
t-52 -22h-70q-57 0 -76 55l-129 361h-545l-126 -361q-14 -55 -74 -55h-70q-39 0 -53 22t-2 56l475 1313q18 55 76 55z" />
    <glyph glyph-name="Atilde" unicode="&#xc3;" horiz-adv-x="1271" 
d="M356 1548q-59 0 -59 75t53 130q54 55 128 55t124 -34t86 -70q37 -35 73 -35t55 27q18 26 22 66t61 40h16q59 0 60 -57q0 -91 -52 -147t-128 -56t-125 35t-86 70t-74 34q-74 0 -78 -92q-6 -41 -59 -41h-17zM416 584h438l-160 458l-55 205h-4q-33 -131 -57 -205zM588 1446
h98q57 0 76 -55l475 -1313q12 -34 -3 -56t-52 -22h-70q-57 0 -76 55l-129 361h-545l-126 -361q-14 -55 -74 -55h-70q-39 0 -53 22t-2 56l475 1313q18 55 76 55z" />
    <glyph glyph-name="Adieresis" unicode="&#xc4;" horiz-adv-x="1271" 
d="M451 1599q-68 0 -68 68v72q0 68 68 67h28q68 0 68 -67v-72q0 -68 -68 -68h-28zM793 1599q-68 0 -68 68v72q0 68 68 67h28q68 0 68 -67v-72q0 -68 -68 -68h-28zM416 584h438l-160 458l-55 205h-4q-33 -131 -57 -205zM588 1446h98q57 0 76 -55l475 -1313q12 -34 -3 -56
t-52 -22h-70q-57 0 -76 55l-129 361h-545l-126 -361q-14 -55 -74 -55h-70q-39 0 -53 22t-2 56l475 1313q18 55 76 55z" />
    <glyph glyph-name="Aring" unicode="&#xc5;" horiz-adv-x="1271" 
d="M636 1606q30 0 49 19t19 50t-18 50q-20 19 -50 19t-48 -18q-18 -20 -18 -51t18 -50t48 -19zM637 1522q-72 0 -123 42t-51 110t51 111q51 42 123 42t123 -42t51 -111q0 -68 -51 -110t-123 -42zM416 584h438l-160 458l-55 205h-4q-33 -131 -57 -205zM588 1446h98
q57 0 76 -55l475 -1313q12 -34 -3 -56t-52 -22h-70q-57 0 -76 55l-129 361h-545l-126 -361q-14 -55 -74 -55h-70q-39 0 -53 22t-2 56l475 1313q18 55 76 55z" />
    <glyph glyph-name="AE" unicode="&#xc6;" horiz-adv-x="1759" 
d="M809 811v459h-96l-185 -459h281zM647 1446h934q68 0 68 -68v-41q0 -68 -68 -67h-571v-453h452q68 0 68 -67v-41q0 -68 -68 -68h-452v-465h606q68 0 67 -67v-41q0 -68 -67 -68h-739q-68 0 -68 68v575h-348l-236 -590q-20 -53 -78 -53h-69q-37 0 -51 22t0 56l542 1317
q20 51 78 51z" />
    <glyph glyph-name="Ccedilla" unicode="&#xc7;" horiz-adv-x="1452" 
d="M858 -244q0 55 -96 66q-49 4 -33 57l25 101q-297 27 -478 237q-180 211 -180 521t207 522t528 210q279 0 480 -149q47 -37 12 -94l-27 -41q-35 -53 -94 -17q-172 115 -362 115q-246 0 -390 -158t-144 -396t146 -402q148 -166 374 -166t409 141q55 43 94 -8l31 -41
q39 -51 -10 -94q-211 -176 -486 -185l-16 -77q66 -8 106 -48t41 -114q0 -76 -60 -118q-59 -42 -157 -42t-98 60t37 61l53 -6q88 0 88 65z" />
    <glyph glyph-name="Egrave" unicode="&#xc8;" horiz-adv-x="1136" 
d="M596 1546q-49 0 -82 41l-100 137q-27 33 -18 58t53 24h61q53 0 80 -47l80 -139q18 -30 10 -52t-43 -22h-41zM184 68v1310q0 68 68 68h704q68 0 68 -68v-41q0 -68 -68 -67h-571v-453h453q68 0 67 -67v-41q0 -68 -67 -68h-453v-465h606q68 0 68 -67v-41q0 -68 -68 -68h-739
q-68 0 -68 68z" />
    <glyph glyph-name="Eacute" unicode="&#xc9;" horiz-adv-x="1136" 
d="M184 68v1310q0 68 68 68h704q68 0 68 -68v-41q0 -68 -68 -67h-571v-453h453q68 0 67 -67v-41q0 -68 -67 -68h-453v-465h606q68 0 68 -67v-41q0 -68 -68 -68h-739q-68 0 -68 68zM618 1546q-35 0 -47 23t7 53l81 137q27 47 80 47h60q43 0 53 -24t-16 -58l-101 -137
q-33 -41 -82 -41h-35z" />
    <glyph glyph-name="Ecircumflex" unicode="&#xca;" horiz-adv-x="1136" 
d="M184 68v1310q0 68 68 68h704q68 0 68 -68v-41q0 -68 -68 -67h-571v-453h453q68 0 67 -67v-41q0 -68 -67 -68h-453v-465h606q68 0 68 -67v-41q0 -68 -68 -68h-739q-68 0 -68 68zM430 1546q-37 0 -46 24t13 58l95 133q31 45 83 45h101q53 0 82 -45l96 -133q24 -34 14 -58
t-45 -24h-45q-43 0 -71 45l-80 119h-4l-80 -119q-25 -45 -72 -45h-41z" />
    <glyph glyph-name="Edieresis" unicode="&#xcb;" horiz-adv-x="1136" 
d="M184 68v1310q0 68 68 68h704q68 0 68 -68v-41q0 -68 -68 -67h-571v-453h453q68 0 67 -67v-41q0 -68 -67 -68h-453v-465h606q68 0 68 -67v-41q0 -68 -68 -68h-739q-68 0 -68 68zM440 1599q-68 0 -67 68v72q0 68 67 67h29q68 0 68 -67v-72q0 -68 -68 -68h-29zM782 1599
q-68 0 -67 68v72q0 68 67 67h29q68 0 68 -67v-72q0 -68 -68 -68h-29z" />
    <glyph glyph-name="Igrave" unicode="&#xcc;" horiz-adv-x="569" 
d="M258 1546q-49 0 -82 41l-100 137q-27 33 -18 58t53 24h61q53 0 80 -47l80 -139q18 -30 10 -52t-43 -22h-41zM184 68v1310q0 68 68 68h65q68 0 68 -68v-1310q0 -68 -68 -68h-65q-68 0 -68 68z" />
    <glyph glyph-name="Iacute" unicode="&#xcd;" horiz-adv-x="569" 
d="M281 1546q-35 0 -48 23q-12 23 7 53l82 137q27 47 79 47h60q43 0 53 -24t-16 -58l-101 -137q-33 -41 -82 -41h-34zM184 68v1310q0 68 68 68h65q68 0 68 -68v-1310q0 -68 -68 -68h-65q-68 0 -68 68z" />
    <glyph glyph-name="Icircumflex" unicode="&#xce;" horiz-adv-x="569" 
d="M92 1546q-37 0 -46 24t13 58l95 133q31 45 84 45h100q53 0 82 -45l96 -133q24 -34 14 -58t-45 -24h-45q-43 0 -71 45l-80 119h-4l-80 -119q-25 -45 -72 -45h-41zM184 68v1310q0 68 68 68h65q68 0 68 -68v-1310q0 -68 -68 -68h-65q-68 0 -68 68z" />
    <glyph glyph-name="Idieresis" unicode="&#xcf;" horiz-adv-x="569" 
d="M102 1599q-68 0 -67 68v72q0 68 67 67h29q68 0 68 -67v-72q0 -68 -68 -68h-29zM444 1599q-68 0 -67 68v72q0 68 67 67h29q68 0 68 -67v-72q0 -68 -68 -68h-29zM184 68v1310q0 68 68 68h65q68 0 68 -68v-1310q0 -68 -68 -68h-65q-68 0 -68 68z" />
    <glyph glyph-name="Eth" unicode="&#xd0;" horiz-adv-x="1495" 
d="M387 176h264q248 0 392 143q145 143 145 405t-144 403q-144 142 -393 143h-264v-463h240q68 0 67 -68v-32q0 -68 -65 -68h-242v-463zM186 68v571h-53q-68 0 -67 68v32q0 68 45 68h75v571q0 68 68 68h412q334 0 532 -192t199 -530q0 -340 -199 -532t-532 -192h-412
q-68 0 -68 68z" />
    <glyph glyph-name="Ntilde" unicode="&#xd1;" horiz-adv-x="1523" 
d="M483 1548q-59 0 -59 75t53 130t127 55t124 -34t87 -70q37 -35 73 -35t55 27q19 26 23 66t60 40h16q59 0 60 -57q0 -91 -52 -147t-128 -56t-125 35t-86 70t-74 34q-74 0 -78 -92q-6 -41 -59 -41h-17zM184 68v1310q0 68 68 68h78q53 0 82 -45l616 -895q48 -74 100 -174
l19 -35h4q-12 129 -12 209v872q0 68 67 68h66q68 0 67 -68v-1310q0 -68 -67 -68h-78q-55 0 -80 45l-618 893l-119 211h-4q12 -129 12 -211v-870q0 -68 -68 -68h-65q-68 0 -68 68z" />
    <glyph glyph-name="Ograve" unicode="&#xd2;" horiz-adv-x="1669" 
d="M805 1546q-49 0 -82 41l-100 137q-27 33 -18 58t52 24h62q53 0 80 -47l80 -139q18 -30 10 -52t-43 -22h-41zM836 1284q-229 0 -382 -158t-153 -397t153 -403t382 -164t381 164q151 164 151 404t-152 396q-152 158 -380 158zM1577 728q0 -318 -211 -534
q-211 -218 -530 -218q-320 0 -532 217t-212 535t211 530t531 212t532 -212q211 -212 211 -530z" />
    <glyph glyph-name="Oacute" unicode="&#xd3;" horiz-adv-x="1669" 
d="M836 1284q-229 0 -382 -158t-153 -397t153 -403t382 -164t381 164q151 164 151 404t-152 396q-152 158 -380 158zM1577 728q0 -318 -211 -534q-211 -218 -530 -218q-320 0 -532 217t-212 535t211 530t531 212t532 -212q211 -212 211 -530zM827 1546q-35 0 -47 23t6 53
l82 137q27 47 80 47h60q43 0 53 -24t-17 -58l-100 -137q-33 -41 -82 -41h-35z" />
    <glyph glyph-name="Ocircumflex" unicode="&#xd4;" horiz-adv-x="1669" 
d="M836 1284q-229 0 -382 -158t-153 -397t153 -403t382 -164t381 164q151 164 151 404t-152 396q-152 158 -380 158zM1577 728q0 -318 -211 -534q-211 -218 -530 -218q-320 0 -532 217t-212 535t211 530t531 212t532 -212q211 -212 211 -530zM639 1546q-37 0 -46 24t13 58
l94 133q31 45 84 45h101q53 0 82 -45l96 -133q23 -34 13 -58t-44 -24h-45q-43 0 -72 45l-79 119h-5l-79 -119q-25 -45 -72 -45h-41z" />
    <glyph glyph-name="Otilde" unicode="&#xd5;" horiz-adv-x="1669" 
d="M555 1548q-59 0 -59 75t53 130t127 55t124 -34t87 -70q37 -35 73 -35t55 27t21 65q4 41 62 41h16q59 0 60 -57q0 -91 -52 -147t-128 -56t-126 35t-86 70q-37 35 -73 34q-74 0 -78 -92q-6 -41 -60 -41h-16zM836 1284q-229 0 -382 -158t-153 -397t153 -403t382 -164
t381 164q151 164 151 404t-152 396q-152 158 -380 158zM1577 728q0 -318 -211 -534q-211 -218 -530 -218q-320 0 -532 217t-212 535t211 530t531 212t532 -212q211 -212 211 -530z" />
    <glyph glyph-name="Odieresis" unicode="&#xd6;" horiz-adv-x="1669" 
d="M836 1284q-229 0 -382 -158t-153 -397t153 -403t382 -164t381 164q151 164 151 404t-152 396q-152 158 -380 158zM1577 728q0 -318 -211 -534q-211 -218 -530 -218q-320 0 -532 217t-212 535t211 530t531 212t532 -212q211 -212 211 -530zM649 1599q-68 0 -67 68v72
q0 68 67 67h29q68 0 67 -67v-72q0 -68 -67 -68h-29zM991 1599q-68 0 -67 68v72q0 68 67 67h29q68 0 67 -67v-72q0 -68 -67 -68h-29z" />
    <glyph glyph-name="multiply" unicode="&#xd7;" horiz-adv-x="1255" 
d="M141 68q-47 43 -2 94l377 422l-377 422q-45 51 2 94l19 18q49 49 94 -2l373 -414l372 414q45 51 97 2l16 -18q47 -43 2 -94l-379 -422l379 -422q45 -51 -2 -94l-16 -19q-51 -49 -97 2l-372 414l-373 -414q-45 -51 -94 -2z" />
    <glyph glyph-name="Oslash" unicode="&#xd8;" horiz-adv-x="1667" 
d="M834 162q222 0 378 164t156 410t-170 401l-641 -893q123 -82 277 -82zM836 1284q-223 0 -379 -159t-156 -397t162 -404l637 886q-119 74 -264 74zM92 731q0 313 215 526t529 213q207 0 378 -102l54 78q41 53 92 18q47 -37 20 -75l-63 -89q123 -104 191 -250t69 -319
q0 -317 -214 -536t-527 -220q-217 0 -392 111l-59 -84q-41 -52 -91 -18t-18 79l68 95q-120 106 -186 254t-66 319z" />
    <glyph glyph-name="Ugrave" unicode="&#xd9;" horiz-adv-x="1468" 
d="M705 1546q-49 0 -82 41l-101 137q-28 33 -18 58t53 24h61q53 0 80 -47l80 -139q18 -30 10 -52t-43 -22h-40zM166 512v866q0 68 67 68h68q66 0 66 -68v-864q0 -164 99 -258t267 -94t267 94t100 260v862q0 68 67 68h68q68 0 68 -68v-866q0 -242 -157 -389t-412 -147
q-256 0 -412 146q-156 148 -156 390z" />
    <glyph glyph-name="Uacute" unicode="&#xda;" horiz-adv-x="1468" 
d="M166 512v866q0 68 67 68h68q66 0 66 -68v-864q0 -164 99 -258t267 -94t267 94t100 260v862q0 68 67 68h68q68 0 68 -68v-866q0 -242 -157 -389t-412 -147q-256 0 -412 146q-156 148 -156 390zM725 1546q-35 0 -47 23t6 53l82 137q27 47 80 47h59q43 0 53 -24t-16 -58
l-100 -137q-33 -41 -82 -41h-35z" />
    <glyph glyph-name="Ucircumflex" unicode="&#xdb;" horiz-adv-x="1468" 
d="M166 512v866q0 68 67 68h68q66 0 66 -68v-864q0 -164 99 -258t267 -94t267 94t100 260v862q0 68 67 68h68q68 0 68 -68v-866q0 -242 -157 -389t-412 -147q-256 0 -412 146q-156 148 -156 390zM537 1546q-37 0 -47 24q-9 24 14 58l94 133q31 45 84 45h100q53 0 82 -45
l97 -133q23 -34 13 -58t-44 -24h-45q-43 0 -72 45l-80 119h-4l-80 -119q-25 -45 -71 -45h-41z" />
    <glyph glyph-name="Udieresis" unicode="&#xdc;" horiz-adv-x="1468" 
d="M166 512v866q0 68 67 68h68q66 0 66 -68v-864q0 -164 99 -258t267 -94t267 94t100 260v862q0 68 67 68h68q68 0 68 -68v-866q0 -242 -157 -389t-412 -147q-256 0 -412 146q-156 148 -156 390zM549 1599q-68 0 -68 68v72q0 68 68 67h29q68 0 67 -67v-72q0 -68 -67 -68h-29
zM891 1599q-68 0 -68 68v72q0 68 68 67h29q68 0 67 -67v-72q0 -68 -67 -68h-29z" />
    <glyph glyph-name="Yacute" unicode="&#xdd;" horiz-adv-x="1161" 
d="M573 1546q-35 0 -47 23t6 53l82 137q27 47 80 47h60q43 0 53 -24t-16 -58l-101 -137q-33 -41 -82 -41h-35zM479 68v544l-438 754q-20 36 -6 58t53 22h82q55 0 78 -47l244 -428l88 -183h4q43 100 88 183l241 428q25 47 78 47h82q39 0 53 -23t-6 -57l-438 -754v-544
q0 -68 -68 -68h-67q-68 0 -68 68z" />
    <glyph glyph-name="Thorn" unicode="&#xde;" horiz-adv-x="1224" 
d="M385 465h295q131 0 206 76t75 206q0 129 -75 203t-204 74h-297v-559zM184 68v1310q0 68 68 68h65q68 0 68 -66v-180h328q201 0 327 -124t125 -328q0 -204 -127 -332q-127 -127 -327 -127h-326v-221q0 -68 -68 -68h-65q-68 0 -68 68z" />
    <glyph glyph-name="germandbls" unicode="&#xdf;" horiz-adv-x="1191" 
d="M145 68v1017q0 181 131 283q132 102 306 102t284 -95t111 -234q0 -68 -32 -126t-71 -93q-102 -92 -102 -155t129 -153q53 -37 107 -78q53 -42 91 -104t38 -135q1 -151 -101 -231t-240 -80t-245 41q-53 14 -53 75v39q0 74 63 58q97 -41 187 -41q188 0 188 147
q0 55 -57 109t-126 95q-69 39 -126 105t-57 132q-1 109 102 206q104 98 104 176t-52 124t-146 46t-165 -59t-71 -168v-1003q0 -68 -66 -68h-63q-68 0 -68 68z" />
    <glyph glyph-name="agrave" unicode="&#xe0;" horiz-adv-x="1058" 
d="M500 1188q-49 0 -82 41l-101 137q-27 34 -17 58t52 24h62q53 0 80 -47l79 -139q19 -29 11 -52t-43 -22h-41zM260 299q0 -68 51 -117t142 -49q123 1 201 103t79 227v45h-53q-420 0 -420 -209zM59 283q0 93 45 161t110 104q164 91 464 91h53v27q0 227 -225 227
q-117 0 -234 -66q-59 -29 -92 25l-16 29q-33 61 22 92q156 88 344 88q188 -1 293 -105q106 -104 107 -301v-587q0 -68 -68 -68h-51q-68 0 -68 68v61l7 64h-5l-12 -24q-8 -15 -38 -52q-31 -37 -65 -66t-94 -53t-128 -23q-143 1 -246 85t-103 223z" />
    <glyph glyph-name="aacute" unicode="&#xe1;" horiz-adv-x="1058" 
d="M516 1188q-35 0 -47 22t6 54l82 137q27 47 80 47h59q44 0 54 -24t-17 -58l-100 -137q-33 -41 -82 -41h-35zM260 299q0 -68 51 -117t142 -49q123 1 201 103t79 227v45h-53q-420 0 -420 -209zM59 283q0 93 45 161t110 104q164 91 464 91h53v27q0 227 -225 227
q-117 0 -234 -66q-59 -29 -92 25l-16 29q-33 61 22 92q156 88 344 88q188 -1 293 -105q106 -104 107 -301v-587q0 -68 -68 -68h-51q-68 0 -68 68v61l7 64h-5l-12 -24q-8 -15 -38 -52q-31 -37 -65 -66t-94 -53t-128 -23q-143 1 -246 85t-103 223z" />
    <glyph glyph-name="acircumflex" unicode="&#xe2;" horiz-adv-x="1058" 
d="M330 1188q-37 0 -46 24t13 58l94 133q31 45 84 45h100q53 0 82 -45l97 -133q24 -35 14 -59t-45 -23h-45q-43 0 -72 45l-80 119h-4l-80 -119q-25 -45 -71 -45h-41zM260 299q0 -68 51 -117t142 -49q123 1 201 103t79 227v45h-53q-420 0 -420 -209zM59 283q0 93 45 161
t110 104q164 91 464 91h53v27q0 227 -225 227q-117 0 -234 -66q-59 -29 -92 25l-16 29q-33 61 22 92q156 88 344 88q188 -1 293 -105q106 -104 107 -301v-587q0 -68 -68 -68h-51q-68 0 -68 68v61l7 64h-5l-12 -24q-8 -15 -38 -52q-31 -37 -65 -66t-94 -53t-128 -23
q-143 1 -246 85t-103 223z" />
    <glyph glyph-name="atilde" unicode="&#xe3;" horiz-adv-x="1058" 
d="M246 1190q-59 0 -60 65q0 83 54 139t128 56t124 -35t86 -69t72 -35q72 0 77 92q4 41 61 41h17q59 0 59 -58q0 -92 -52 -147t-128 -55t-124 35q-50 35 -87 69t-74 35q-74 0 -77 -92q-6 -41 -60 -41h-16zM260 299q0 -68 51 -117t142 -49q123 1 201 103t79 227v45h-53
q-420 0 -420 -209zM59 283q0 93 45 161t110 104q164 91 464 91h53v27q0 227 -225 227q-117 0 -234 -66q-59 -29 -92 25l-16 29q-33 61 22 92q156 88 344 88q188 -1 293 -105q106 -104 107 -301v-587q0 -68 -68 -68h-51q-68 0 -68 68v61l7 64h-5l-12 -24q-8 -15 -38 -52
q-31 -37 -65 -66t-94 -53t-128 -23q-143 1 -246 85t-103 223z" />
    <glyph glyph-name="adieresis" unicode="&#xe4;" horiz-adv-x="1058" 
d="M340 1241q-68 0 -68 68v71q0 68 68 68h29q68 0 67 -68v-71q0 -68 -67 -68h-29zM682 1241q-68 0 -68 68v71q0 68 68 68h29q68 0 67 -68v-71q0 -68 -67 -68h-29zM260 299q0 -68 51 -117t142 -49q123 1 201 103t79 227v45h-53q-420 0 -420 -209zM59 283q0 93 45 161t110 104
q164 91 464 91h53v27q0 227 -225 227q-117 0 -234 -66q-59 -29 -92 25l-16 29q-33 61 22 92q156 88 344 88q188 -1 293 -105q106 -104 107 -301v-587q0 -68 -68 -68h-51q-68 0 -68 68v61l7 64h-5l-12 -24q-8 -15 -38 -52q-31 -37 -65 -66t-94 -53t-128 -23q-143 1 -246 85
t-103 223z" />
    <glyph glyph-name="aring" unicode="&#xe5;" horiz-adv-x="1058" 
d="M459 1317q0 -31 18 -51t48 -19q30 -1 49 19q20 20 20 51t-20 50t-49 19q-30 0 -48 -19t-18 -50zM526 1163q-72 0 -123 42t-51 111q0 68 51 110t123 42t123 -42t51 -110t-51 -111q-51 -42 -123 -42zM260 299q0 -68 51 -117t142 -49q123 1 201 103t79 227v45h-53
q-420 0 -420 -209zM59 283q0 93 45 161t110 104q164 91 464 91h53v27q0 227 -225 227q-117 0 -234 -66q-59 -29 -92 25l-16 29q-33 61 22 92q156 88 344 88q188 -1 293 -105q106 -104 107 -301v-587q0 -68 -68 -68h-51q-68 0 -68 68v61l7 64h-5l-12 -24q-8 -15 -38 -52
q-31 -37 -65 -66t-94 -53t-128 -23q-143 1 -246 85t-103 223z" />
    <glyph glyph-name="ae" unicode="&#xe6;" horiz-adv-x="1746" 
d="M264 301q0 -70 51 -118t159 -48q108 -1 184 103t77 229v35h-96q-375 0 -375 -201zM932 635h541q-4 127 -75 198q-72 71 -180 71t-186 -70q-77 -70 -100 -199zM63 291q0 195 178 273q153 71 441 71h51v31q0 227 -233 227q-111 0 -228 -66q-59 -31 -92 25l-16 29
q-31 61 24 92q150 88 326 88q260 0 344 -182h4q123 182 367 182q209 0 327 -135t117 -355q0 -27 -19 -49t-50 -20h-680q8 -170 104 -262t236 -92t254 79q61 37 92 -20l16 -31q35 -57 -18 -90q-158 -111 -332 -111q-334 0 -463 261h-4q-22 -64 -100 -149q-45 -48 -121 -80
t-170 -32q-150 -1 -252 85t-103 231z" />
    <glyph glyph-name="ccedilla" unicode="&#xe7;" horiz-adv-x="1093" 
d="M649 -244q0 55 -96 66q-49 4 -33 57l25 103q-209 27 -338 175t-129 370t155 378q156 156 398 156q201 0 342 -111q53 -35 12 -92l-20 -31q-33 -51 -93 -16q-109 78 -248 78q-139 -1 -241 -105t-102 -264t103 -266q104 -106 252 -106t273 94q57 37 92 -19l17 -30
q33 -55 -19 -91q-147 -121 -346 -127l-14 -77q67 -8 107 -48t40 -114q0 -76 -60 -118t-157 -42t-98 59q0 61 37 62l53 -6q88 0 88 65z" />
    <glyph glyph-name="egrave" unicode="&#xe8;" horiz-adv-x="1116" 
d="M569 1188q-49 0 -82 41l-100 137q-27 34 -17 58t52 24h61q53 0 80 -47l80 -139q18 -29 10 -52t-43 -22h-41zM289 629h555q-4 133 -75 205t-181 72t-195 -74q-84 -74 -104 -203zM78 524q0 238 146 388t364 149q218 0 337 -136q118 -136 117 -358q0 -29 -19 -49t-50 -20
h-692q8 -164 110 -257q101 -93 243 -93t253 81q61 33 92 -22l18 -31q35 -57 -20 -90q-158 -111 -350 -111q-242 0 -396 155q-153 156 -153 394z" />
    <glyph glyph-name="eacute" unicode="&#xe9;" horiz-adv-x="1116" 
d="M289 629h555q-4 133 -75 205t-181 72t-195 -74q-84 -74 -104 -203zM78 524q0 238 146 388t364 149q218 0 337 -136q118 -136 117 -358q0 -29 -19 -49t-50 -20h-692q8 -164 110 -257q101 -93 243 -93t253 81q61 33 92 -22l18 -31q35 -57 -20 -90q-158 -111 -350 -111
q-242 0 -396 155q-153 156 -153 394zM588 1188q-35 0 -47 22t6 54l82 137q27 47 80 47h59q43 0 53 -24t-16 -58l-100 -137q-33 -41 -82 -41h-35z" />
    <glyph glyph-name="ecircumflex" unicode="&#xea;" horiz-adv-x="1116" 
d="M289 629h555q-4 133 -75 205t-181 72t-195 -74q-84 -74 -104 -203zM78 524q0 238 146 388t364 149q218 0 337 -136q118 -136 117 -358q0 -29 -19 -49t-50 -20h-692q8 -164 110 -257q101 -93 243 -93t253 81q61 33 92 -22l18 -31q35 -57 -20 -90q-158 -111 -350 -111
q-242 0 -396 155q-153 156 -153 394zM399 1188q-37 0 -46 24t14 58l94 133q31 45 84 45h100q53 0 82 -45l96 -133q23 -35 14 -59t-44 -23h-45q-43 0 -72 45l-80 119h-4l-80 -119q-25 -45 -72 -45h-41z" />
    <glyph glyph-name="edieresis" unicode="&#xeb;" horiz-adv-x="1116" 
d="M289 629h555q-4 133 -75 205t-181 72t-195 -74q-84 -74 -104 -203zM78 524q0 238 146 388t364 149q218 0 337 -136q118 -136 117 -358q0 -29 -19 -49t-50 -20h-692q8 -164 110 -257q101 -93 243 -93t253 81q61 33 92 -22l18 -31q35 -57 -20 -90q-158 -111 -350 -111
q-242 0 -396 155q-153 156 -153 394zM410 1241q-68 0 -68 68v71q0 68 68 68h28q68 0 68 -68v-71q0 -68 -68 -68h-28zM752 1241q-68 0 -68 68v71q0 68 68 68h28q68 0 68 -68v-71q0 -68 -68 -68h-28z" />
    <glyph glyph-name="igrave" unicode="&#xec;" horiz-adv-x="485" 
d="M217 1188q-49 0 -82 41l-100 137q-27 34 -18 58t53 24h61q53 0 80 -47l80 -139q18 -29 10 -52t-43 -22h-41zM143 68v901q0 68 68 67h63q68 0 68 -67v-901q0 -68 -68 -68h-63q-68 0 -68 68z" />
    <glyph glyph-name="iacute" unicode="&#xed;" horiz-adv-x="485" 
d="M143 68v901q0 68 68 67h63q68 0 68 -67v-901q0 -68 -68 -68h-63q-68 0 -68 68zM238 1188q-35 0 -48 22q-12 23 7 54l82 137q27 47 79 47h60q43 0 53 -24t-16 -58l-101 -137q-33 -41 -82 -41h-34z" />
    <glyph glyph-name="icircumflex" unicode="&#xee;" horiz-adv-x="485" 
d="M143 68v901q0 68 68 67h63q68 0 68 -67v-901q0 -68 -68 -68h-63q-68 0 -68 68zM49 1188q-37 0 -46 24t13 58l95 133q31 45 84 45h100q53 0 82 -45l96 -133q23 -35 13 -59t-44 -23h-45q-43 0 -71 45l-80 119h-4l-80 -119q-25 -45 -72 -45h-41z" />
    <glyph glyph-name="idieresis" unicode="&#xef;" horiz-adv-x="485" 
d="M143 68v901q0 68 68 67h63q68 0 68 -67v-901q0 -68 -68 -68h-63q-68 0 -68 68zM61 1241q-68 0 -67 68v71q0 68 67 68h29q68 0 68 -68v-71q0 -68 -68 -68h-29zM403 1241q-68 0 -67 68v71q0 68 67 68h29q68 0 68 -68v-71q0 -68 -68 -68h-29z" />
    <glyph glyph-name="eth" unicode="&#xf0;" horiz-adv-x="1183" 
d="M584 795q-140 1 -220 -93t-81 -227q1 -133 77 -230t220 -97t225 115q80 116 80 249t-80 208q-81 75 -221 75zM80 475q0 199 130 339t355 140q76 0 141 -24t91 -45l26 -25h4q-61 170 -229 281l-297 -133q-33 -12 -49 -8t-29 30l-8 21q-20 47 37 73l209 93q-78 43 -197 77
q-63 18 -45 84l12 33q23 63 84 45q207 -55 361 -147l211 94q57 23 76 -21l12 -24q20 -43 -37 -68l-147 -67q295 -246 294 -660q0 -222 -118 -396q-59 -87 -163 -139t-239 -53q-221 1 -353 151t-132 349z" />
    <glyph glyph-name="ntilde" unicode="&#xf1;" horiz-adv-x="1210" 
d="M350 1190q-59 0 -59 74t53 130q54 56 128 56t124 -35t86 -69q37 -34 73 -35q36 1 55 27t21 65q4 41 62 41h16q59 0 60 -58q-1 -92 -53 -147t-128 -55t-124 35q-49 35 -86 69t-74 35q-74 0 -78 -92q-6 -41 -59 -41h-17zM143 68v901q0 68 68 67h57q68 0 68 -67v-92l-6 -60
h4q41 90 141 167t252 77q354 0 354 -397v-596q0 -68 -67 -68h-64q-68 0 -67 68v550q0 125 -40 193t-155 68q-150 0 -248 -111t-98 -272v-428q0 -68 -68 -68h-63q-68 0 -68 68z" />
    <glyph glyph-name="ograve" unicode="&#xf2;" horiz-adv-x="1267" 
d="M604 1188q-49 0 -82 41l-100 137q-27 34 -18 58t53 24h61q53 0 80 -47l80 -139q18 -29 10 -52t-43 -22h-41zM276 520q0 -160 104 -266t254 -106q149 0 252 104q103 106 103 267t-103 265q-104 104 -252 104t-253 -104t-105 -264zM76 520q0 233 162 387t396 154t396 -154
t162 -387t-163 -389t-396 -156t-395 156t-162 389z" />
    <glyph glyph-name="oacute" unicode="&#xf3;" horiz-adv-x="1267" 
d="M276 520q0 -160 104 -266t254 -106q149 0 252 104q103 106 103 267t-103 265q-104 104 -252 104t-253 -104t-105 -264zM76 520q0 233 162 387t396 154t396 -154t162 -387t-163 -389t-396 -156t-395 156t-162 389zM627 1188q-35 0 -47 22t6 54l82 137q27 47 80 47h59
q43 0 53 -24t-16 -58l-101 -137q-33 -41 -81 -41h-35z" />
    <glyph glyph-name="ocircumflex" unicode="&#xf4;" horiz-adv-x="1267" 
d="M276 520q0 -160 104 -266t254 -106q149 0 252 104q103 106 103 267t-103 265q-104 104 -252 104t-253 -104t-105 -264zM76 520q0 233 162 387t396 154t396 -154t162 -387t-163 -389t-396 -156t-395 156t-162 389zM436 1188q-37 0 -46 24t13 58l95 133q31 45 84 45h100
q53 0 82 -45l96 -133q24 -35 14 -59t-45 -23h-45q-43 0 -71 45l-80 119h-4l-80 -119q-25 -45 -72 -45h-41z" />
    <glyph glyph-name="otilde" unicode="&#xf5;" horiz-adv-x="1267" 
d="M354 1190q-59 0 -59 74t53 130q54 56 128 56t124 -35t86 -69q37 -34 73 -35q70 0 77 92q4 41 61 41h16q59 0 60 -58q0 -92 -52 -147t-128 -55t-125 35t-86 69t-74 35q-74 0 -78 -92q-6 -41 -59 -41h-17zM276 520q0 -160 104 -266t254 -106q149 0 252 104q103 106 103 267
t-103 265q-104 104 -252 104t-253 -104t-105 -264zM76 520q0 233 162 387t396 154t396 -154t162 -387t-163 -389t-396 -156t-395 156t-162 389z" />
    <glyph glyph-name="odieresis" unicode="&#xf6;" horiz-adv-x="1267" 
d="M276 520q0 -160 104 -266t254 -106q149 0 252 104q103 106 103 267t-103 265q-104 104 -252 104t-253 -104t-105 -264zM76 520q0 233 162 387t396 154t396 -154t162 -387t-163 -389t-396 -156t-395 156t-162 389zM449 1241q-68 0 -68 68v71q0 68 68 68h28q68 0 68 -68
v-71q0 -68 -68 -68h-28zM791 1241q-68 0 -68 68v71q0 68 68 68h28q68 0 68 -68v-71q0 -68 -68 -68h-28z" />
    <glyph glyph-name="divide" unicode="&#xf7;" horiz-adv-x="1255" 
d="M530 158v51q0 68 68 67h57q68 0 68 -67v-51q0 -68 -68 -68h-57q-68 0 -68 68zM178 504q-68 0 -67 67v25q0 68 67 68h899q68 0 68 -68v-25q0 -68 -68 -67h-899zM598 891q-68 0 -68 67v52q0 68 68 67h57q68 0 68 -67v-52q0 -68 -68 -67h-57z" />
    <glyph glyph-name="oslash" unicode="&#xf8;" horiz-adv-x="1269" 
d="M635 147q150 -1 253 105t103 260t-94 256l-416 -584q68 -37 154 -37zM635 889q-147 -1 -251 -105t-105 -262q0 -158 104 -266l422 590q-80 43 -170 43zM635 1061q147 0 276 -68l41 58q39 53 89 20t20 -74l-51 -71q184 -158 184 -398t-163 -397q-163 -156 -396 -156
q-147 0 -260 62l-43 -60q-36 -55 -88 -19t-19 75l47 67q-195 158 -194 420q0 233 162 387t395 154z" />
    <glyph glyph-name="ugrave" unicode="&#xf9;" horiz-adv-x="1202" 
d="M567 1188q-49 0 -82 41l-100 137q-27 34 -17 58t52 24h61q53 0 80 -47l80 -139q18 -29 10 -52t-43 -22h-41zM483 -25q-352 0 -352 398v596q0 68 68 67h63q66 0 66 -67v-551q0 -123 41 -191t153 -67q154 0 246 114t92 277v418q0 68 68 67h63q68 0 68 -67v-901
q0 -68 -68 -68h-57q-68 0 -68 68v92l6 59h-4q-41 -92 -143 -168t-242 -76z" />
    <glyph glyph-name="uacute" unicode="&#xfa;" horiz-adv-x="1202" 
d="M483 -25q-352 0 -352 398v596q0 68 68 67h63q66 0 66 -67v-551q0 -123 41 -191t153 -67q154 0 246 114t92 277v418q0 68 68 67h63q68 0 68 -67v-901q0 -68 -68 -68h-57q-68 0 -68 68v92l6 59h-4q-41 -92 -143 -168t-242 -76zM586 1188q-35 0 -47 22t6 54l82 137
q27 47 80 47h59q43 0 53 -24t-16 -58l-101 -137q-33 -41 -81 -41h-35z" />
    <glyph glyph-name="ucircumflex" unicode="&#xfb;" horiz-adv-x="1202" 
d="M483 -25q-352 0 -352 398v596q0 68 68 67h63q66 0 66 -67v-551q0 -123 41 -191t153 -67q154 0 246 114t92 277v418q0 68 68 67h63q68 0 68 -67v-901q0 -68 -68 -68h-57q-68 0 -68 68v92l6 59h-4q-41 -92 -143 -168t-242 -76zM397 1188q-37 0 -46 24t14 58l94 133
q31 45 84 45h100q53 0 82 -45l96 -133q23 -35 14 -59t-44 -23h-46q-43 0 -71 45l-80 119h-4l-80 -119q-25 -45 -72 -45h-41z" />
    <glyph glyph-name="udieresis" unicode="&#xfc;" horiz-adv-x="1202" 
d="M483 -25q-352 0 -352 398v596q0 68 68 67h63q66 0 66 -67v-551q0 -123 41 -191t153 -67q154 0 246 114t92 277v418q0 68 68 67h63q68 0 68 -67v-901q0 -68 -68 -68h-57q-68 0 -68 68v92l6 59h-4q-41 -92 -143 -168t-242 -76zM410 1241q-68 0 -68 68v71q0 68 68 68h28
q68 0 68 -68v-71q0 -68 -68 -68h-28zM752 1241q-68 0 -68 68v71q0 68 68 68h28q68 0 68 -68v-71q0 -68 -68 -68h-28z" />
    <glyph glyph-name="yacute" unicode="&#xfd;" horiz-adv-x="1028" 
d="M510 1186q-35 0 -47 22t6 54l82 137q27 47 80 47h59q43 0 53 -25t-16 -57l-100 -137q-33 -41 -82 -41h-35zM160 1036q57 0 76 -53l243 -625l37 -125h4q16 70 35 123l236 625q18 55 75 55h74q37 0 52 -22t1 -56l-456 -1140q-45 -119 -135 -184t-201 -64q-63 0 -144 33
q-59 25 -30 88l16 35q23 49 76 34q57 -23 82 -22q59 0 105 44t73 112l51 118l-401 946q-14 35 0 57t51 21h80z" />
    <glyph glyph-name="thorn" unicode="&#xfe;" horiz-adv-x="1212" 
d="M340 529q0 -175 80 -278t212 -103t216 102t84 267t-81 268t-211 103t-215 -92t-85 -267zM147 -342v1720q0 68 68 68h64q66 0 65 -68v-403l-2 -86h4q2 2 19 22q120 150 319 150t324 -152q125 -151 125 -391q-1 -240 -131 -392t-336 -151q-135 0 -212 57t-100 95l-10 18h-4
q4 -37 4 -90v-397q0 -68 -65 -68h-64q-68 0 -68 68z" />
    <glyph glyph-name="ydieresis" unicode="&#xff;" horiz-adv-x="1028" 
d="M334 1239q-68 0 -68 68v71q0 68 68 68h28q68 0 68 -68v-71q0 -68 -68 -68h-28zM676 1239q-68 0 -68 68v71q0 68 68 68h29q68 0 67 -68v-71q0 -68 -67 -68h-29zM160 1036q57 0 76 -53l243 -625l37 -125h4q16 70 35 123l236 625q18 55 75 55h74q37 0 52 -22t1 -56
l-456 -1140q-45 -119 -135 -184t-201 -64q-63 0 -144 33q-59 25 -30 88l16 35q23 49 76 34q57 -23 82 -22q59 0 105 44t73 112l51 118l-401 946q-14 35 0 57t51 21h80z" />
    <glyph glyph-name="Amacron" unicode="&#x100;" horiz-adv-x="1271" 
d="M442 1606q-68 0 -67 65v15q0 66 67 65h387q68 0 68 -65v-15q0 -66 -68 -65h-387zM416 584h438l-160 458l-55 205h-4q-33 -131 -57 -205zM588 1446h98q57 0 76 -55l475 -1313q12 -34 -3 -56t-52 -22h-70q-57 0 -76 55l-129 361h-545l-126 -361q-14 -55 -74 -55h-70
q-39 0 -53 22t-2 56l475 1313q18 55 76 55z" />
    <glyph glyph-name="amacron" unicode="&#x101;" horiz-adv-x="1058" 
d="M332 1247q-68 0 -68 66v14q0 66 68 66h387q68 0 67 -66v-14q0 -66 -67 -66h-387zM260 299q0 -68 51 -117t142 -49q123 1 201 103t79 227v45h-53q-420 0 -420 -209zM59 283q0 93 45 161t110 104q164 91 464 91h53v27q0 227 -225 227q-117 0 -234 -66q-59 -29 -92 25
l-16 29q-33 61 22 92q156 88 344 88q188 -1 293 -105q106 -104 107 -301v-587q0 -68 -68 -68h-51q-68 0 -68 68v61l7 64h-5l-12 -24q-8 -15 -38 -52q-31 -37 -65 -66t-94 -53t-128 -23q-143 1 -246 85t-103 223z" />
    <glyph glyph-name="Abreve" unicode="&#x102;" horiz-adv-x="1271" 
d="M903 1761q0 -95 -80 -159t-185 -64t-187 64t-82 159q0 45 59 45h29q51 0 59 -47q16 -102 120 -102t120 102q8 47 59 47h29q59 0 59 -45zM416 584h438l-160 458l-55 205h-4q-33 -131 -57 -205zM588 1446h98q57 0 76 -55l475 -1313q12 -34 -3 -56t-52 -22h-70q-57 0 -76 55
l-129 361h-545l-126 -361q-14 -55 -74 -55h-70q-39 0 -53 22t-2 56l475 1313q18 55 76 55z" />
    <glyph glyph-name="abreve" unicode="&#x103;" horiz-adv-x="1058" 
d="M527 1180q-105 0 -187 63t-82 160q0 45 59 45h29q51 0 60 -47q16 -103 119 -103t120 103q8 47 60 47h28q59 0 60 -45q0 -96 -80 -160q-81 -63 -186 -63zM260 299q0 -68 51 -117t142 -49q123 1 201 103t79 227v45h-53q-420 0 -420 -209zM59 283q0 93 45 161t110 104
q164 91 464 91h53v27q0 227 -225 227q-117 0 -234 -66q-59 -29 -92 25l-16 29q-33 61 22 92q156 88 344 88q188 -1 293 -105q106 -104 107 -301v-587q0 -68 -68 -68h-51q-68 0 -68 68v61l7 64h-5l-12 -24q-8 -15 -38 -52q-31 -37 -65 -66t-94 -53t-128 -23q-143 1 -246 85
t-103 223z" />
    <glyph glyph-name="Aogonek" unicode="&#x104;" horiz-adv-x="1271" 
d="M416 584h438l-160 458l-55 205h-4q-33 -131 -57 -205zM588 1446h98q55 0 76 -55l475 -1313q23 -70 -8 -101q-41 -33 -57 -48t-40 -49t-24 -64q0 -53 82 -84q39 -16 31 -68l-4 -33q-8 -51 -75 -43q-66 8 -132 54t-66 133q0 125 146 237q-45 8 -60 60l-123 344h-545
l-126 -361q-14 -55 -74 -55h-70q-39 0 -53 22t-2 56l475 1313q18 55 76 55z" />
    <glyph glyph-name="aogonek" unicode="&#x105;" horiz-adv-x="1060" 
d="M260 299q0 -68 51 -117t142 -49q123 1 201 103t79 227v45h-53q-420 0 -420 -209zM59 283q0 93 45 161t110 104q164 91 464 91h53v27q0 227 -225 227q-117 0 -234 -66q-59 -29 -92 25l-16 29q-33 61 22 92q156 88 344 88q188 -1 293 -105q106 -104 107 -301v-587
q0 -37 -37 -75t-75 -82t-38 -96t82 -83q39 -16 31 -68l-4 -33q-8 -51 -75 -43q-66 8 -132 54t-66 133q0 127 146 241q-18 16 -19 52v61l7 64h-5l-12 -24q-8 -15 -38 -52q-31 -37 -65 -66t-94 -53t-128 -23q-143 1 -246 85t-103 223z" />
    <glyph glyph-name="Cacute" unicode="&#x106;" horiz-adv-x="1447" 
d="M94 728q0 320 207 532t528 210q279 0 480 -149q47 -37 12 -94l-27 -41q-35 -53 -94 -17q-172 115 -362 115q-246 0 -390 -158t-145 -396t147 -402q148 -166 374 -166t409 141q55 43 94 -8l31 -41q39 -51 -10 -94q-221 -184 -514 -185q-330 0 -535 216q-205 217 -205 537z
M807 1546q-35 0 -47 23t6 53l82 137q27 47 80 47h59q43 0 53 -24t-16 -58l-100 -137q-33 -41 -82 -41h-35z" />
    <glyph glyph-name="cacute" unicode="&#x107;" horiz-adv-x="1087" 
d="M614 -25q-230 -1 -384 153t-154 388t155 389q156 156 398 156q201 0 342 -111q53 -35 12 -92l-20 -31q-33 -51 -93 -16q-109 78 -248 78q-139 -1 -241 -105t-102 -264t103 -266q104 -106 252 -106t273 94q57 37 92 -19l17 -30q33 -55 -19 -91q-154 -127 -383 -127z
M584 1188q-35 0 -47 22t6 54l82 137q27 47 80 47h59q43 0 53 -24t-16 -58l-101 -137q-33 -41 -82 -41h-34z" />
    <glyph glyph-name="Ccircumflex" unicode="&#x108;" horiz-adv-x="1447" 
d="M94 728q0 320 207 532t528 210q279 0 480 -149q47 -37 12 -94l-27 -41q-35 -53 -94 -17q-172 115 -362 115q-246 0 -390 -158t-145 -396t147 -402q148 -166 374 -166t409 141q55 43 94 -8l31 -41q39 -51 -10 -94q-221 -184 -514 -185q-330 0 -535 216q-205 217 -205 537z
M618 1546q-37 0 -46 24t14 58l94 133q31 45 84 45h100q53 0 82 -45l96 -133q23 -34 14 -58t-44 -24h-45q-43 0 -72 45l-80 119h-4l-80 -119q-25 -45 -72 -45h-41z" />
    <glyph glyph-name="ccircumflex" unicode="&#x109;" horiz-adv-x="1087" 
d="M614 -25q-230 -1 -384 153t-154 388t155 389q156 156 398 156q201 0 342 -111q53 -35 12 -92l-20 -31q-33 -51 -93 -16q-109 78 -248 78q-139 -1 -241 -105t-102 -264t103 -266q104 -106 252 -106t273 94q57 37 92 -19l17 -30q33 -55 -19 -91q-154 -127 -383 -127z
M395 1188q-37 0 -46 24t13 58l95 133q31 45 84 45h100q53 0 82 -45l96 -133q23 -35 14 -59t-45 -23h-45q-43 0 -71 45l-80 119h-4l-80 -119q-25 -45 -72 -45h-41z" />
    <glyph glyph-name="Cdotaccent" unicode="&#x10a;" horiz-adv-x="1447" 
d="M793 1606q-68 0 -68 67v66q0 68 68 67h43q68 0 67 -67v-66q0 -68 -67 -67h-43zM94 728q0 320 207 532t528 210q279 0 480 -149q47 -37 12 -94l-27 -41q-35 -53 -94 -17q-172 115 -362 115q-246 0 -390 -158t-145 -396t147 -402q148 -166 374 -166t409 141q55 43 94 -8
l31 -41q39 -51 -10 -94q-221 -184 -514 -185q-330 0 -535 216q-205 217 -205 537z" />
    <glyph glyph-name="cdotaccent" unicode="&#x10b;" horiz-adv-x="1087" 
d="M567 1247q-68 0 -67 68v65q0 68 67 68h43q68 0 68 -68v-65q0 -68 -68 -68h-43zM614 -25q-230 -1 -384 153t-154 388t155 389q156 156 398 156q201 0 342 -111q53 -35 12 -92l-20 -31q-33 -51 -93 -16q-109 78 -248 78q-139 -1 -241 -105t-102 -264t103 -266
q104 -106 252 -106t273 94q57 37 92 -19l17 -30q33 -55 -19 -91q-154 -127 -383 -127z" />
    <glyph glyph-name="Ccaron" unicode="&#x10c;" horiz-adv-x="1447" 
d="M94 728q0 320 207 532t528 210q279 0 480 -149q47 -37 12 -94l-27 -41q-35 -53 -94 -17q-172 115 -362 115q-246 0 -390 -158t-145 -396t147 -402q148 -166 374 -166t409 141q55 43 94 -8l31 -41q39 -51 -10 -94q-221 -184 -514 -185q-330 0 -535 216q-205 217 -205 537z
M764 1546q-53 0 -84 43l-94 135q-23 35 -14 59t46 23h41q45 0 72 -45l80 -121h4l80 121q31 45 72 45h43q37 0 46 -24t-14 -58l-96 -135q-29 -43 -82 -43h-100z" />
    <glyph glyph-name="ccaron" unicode="&#x10d;" horiz-adv-x="1087" 
d="M614 -25q-230 -1 -384 153t-154 388t155 389q156 156 398 156q201 0 342 -111q53 -35 12 -92l-20 -31q-33 -51 -93 -16q-109 78 -248 78q-139 -1 -241 -105t-102 -264t103 -266q104 -106 252 -106t273 94q57 37 92 -19l17 -30q33 -55 -19 -91q-154 -127 -383 -127z
M541 1188q-53 0 -84 43l-95 135q-24 34 -14 58t47 24h41q45 0 72 -45l80 -121h4l80 121q31 45 71 45h43q36 0 46 -24t-13 -58l-96 -135q-29 -43 -82 -43h-100z" />
    <glyph glyph-name="Dcaron" unicode="&#x10e;" horiz-adv-x="1492" 
d="M385 176h264q248 0 393 143q146 143 146 405t-146 403q-146 142 -393 143h-264v-1094zM184 68v1310q0 68 68 68h412q334 0 534 -192t199 -530q0 -340 -200 -532t-533 -192h-412q-68 0 -68 68zM639 1546q-53 0 -84 43l-94 135q-23 35 -14 59t47 23h41q45 0 71 -45l80 -121
h4l80 121q31 45 72 45h43q37 0 46 -24t-13 -58l-97 -135q-29 -43 -82 -43h-100z" />
    <glyph glyph-name="dcaron" unicode="&#x10f;" horiz-adv-x="1212" 
d="M874 502q0 168 -76 276t-211 109q-134 1 -219 -99t-85 -269t81 -270q82 -101 210 -101t214 92q86 94 86 262zM537 -25q-209 -1 -333 149t-124 395t131 393t338 149q134 0 211 -59t100 -101l10 -18h4q-6 31 -6 69v426q0 68 68 68h63q68 0 68 -68v-1310q0 -68 -68 -68h-53
q-68 0 -67 63v60l4 51h-4q-63 -127 -209 -177q-61 -22 -133 -22zM1251 1446h35q80 0 80 -115q0 -74 -32 -137t-79 -64h-16q-59 0 -59 41q0 7 10 47t10 87l-8 98q0 43 59 43z" />
    <glyph glyph-name="Dcroat" unicode="&#x110;" horiz-adv-x="1495" 
d="M387 176h264q248 0 392 143q145 143 145 405t-144 403q-144 142 -393 143h-264v-463h240q68 0 67 -68v-32q0 -68 -65 -68h-242v-463zM186 68v571h-53q-68 0 -67 68v32q0 68 45 68h75v571q0 68 68 68h412q334 0 532 -192t199 -530q0 -340 -199 -532t-532 -192h-412
q-68 0 -68 68z" />
    <glyph glyph-name="dcroat" unicode="&#x111;" horiz-adv-x="1212" 
d="M874 502q0 168 -76 278t-211 109q-134 -1 -219 -101t-85 -269t81 -270q82 -101 210 -101t214 92q86 94 86 262zM868 958v195h-198q-68 0 -68 57v13q0 59 68 59h198v96q0 68 68 68h63q68 0 68 -68v-96h88q68 0 68 -59v-13q0 -57 -49 -57h-107v-1085q0 -68 -68 -68h-53
q-68 0 -67 63v54l2 51h-4q-13 -26 -45 -63t-66 -63q-87 -65 -229 -67q-209 -1 -333 149t-124 395t131 393t340 148t317 -171h4q-4 31 -4 69z" />
    <glyph glyph-name="Emacron" unicode="&#x112;" horiz-adv-x="1136" 
d="M432 1606q-68 0 -67 65v15q0 66 67 65h387q68 0 68 -65v-15q0 -66 -68 -65h-387zM184 68v1310q0 68 68 68h704q68 0 68 -68v-41q0 -68 -68 -67h-571v-453h453q68 0 67 -67v-41q0 -68 -67 -68h-453v-465h606q68 0 68 -67v-41q0 -68 -68 -68h-739q-68 0 -68 68z" />
    <glyph glyph-name="emacron" unicode="&#x113;" horiz-adv-x="1116" 
d="M401 1247q-68 0 -67 66v14q0 66 67 66h387q68 0 68 -66v-14q0 -66 -68 -66h-387zM289 629h555q-4 133 -75 205t-181 72t-195 -74q-84 -74 -104 -203zM78 524q0 238 146 388t364 149q218 0 337 -136q118 -136 117 -358q0 -29 -19 -49t-50 -20h-692q8 -164 110 -257
q101 -93 243 -93t253 81q61 33 92 -22l18 -31q35 -57 -20 -90q-158 -111 -350 -111q-242 0 -396 155q-153 156 -153 394z" />
    <glyph glyph-name="Ebreve" unicode="&#x114;" horiz-adv-x="1136" 
d="M893 1761q0 -95 -80 -159t-185 -64q-106 0 -188 64t-82 159q0 45 60 45h28q51 0 60 -47q16 -102 120 -102t119 102q8 47 60 47h29q59 0 59 -45zM184 68v1310q0 68 68 68h704q68 0 68 -68v-41q0 -68 -68 -67h-571v-453h453q68 0 67 -67v-41q0 -68 -67 -68h-453v-465h606
q68 0 68 -67v-41q0 -68 -68 -68h-739q-68 0 -68 68z" />
    <glyph glyph-name="ebreve" unicode="&#x115;" horiz-adv-x="1116" 
d="M862 1403q0 -95 -80 -159t-185 -64t-187 63t-82 160q0 45 59 45h29q51 0 59 -47q15 -103 119 -103t121 103q8 47 59 47h29q59 0 59 -45zM289 629h555q-4 133 -75 205t-181 72t-195 -74q-84 -74 -104 -203zM78 524q0 238 146 388t364 149q218 0 337 -136
q118 -136 117 -358q0 -29 -19 -49t-50 -20h-692q8 -164 110 -257q101 -93 243 -93t253 81q61 33 92 -22l18 -31q35 -57 -20 -90q-158 -111 -350 -111q-242 0 -396 155q-153 156 -153 394z" />
    <glyph glyph-name="Edotaccent" unicode="&#x116;" horiz-adv-x="1136" 
d="M604 1606q-68 0 -67 67v66q0 68 67 67h43q68 0 68 -67v-66q0 -68 -68 -67h-43zM184 68v1310q0 68 68 68h704q68 0 68 -68v-41q0 -68 -68 -67h-571v-453h453q68 0 67 -67v-41q0 -68 -67 -68h-453v-465h606q68 0 68 -67v-41q0 -68 -68 -68h-739q-68 0 -68 68z" />
    <glyph glyph-name="edotaccent" unicode="&#x117;" horiz-adv-x="1116" 
d="M573 1247q-68 0 -67 68v65q0 68 67 68h43q68 0 68 -68v-65q0 -68 -68 -68h-43zM289 629h555q-4 133 -75 205t-181 72t-195 -74q-84 -74 -104 -203zM78 524q0 238 146 388t364 149q218 0 337 -136q118 -136 117 -358q0 -29 -19 -49t-50 -20h-692q8 -164 110 -257
q101 -93 243 -93t253 81q61 33 92 -22l18 -31q35 -57 -20 -90q-158 -111 -350 -111q-242 0 -396 155q-153 156 -153 394z" />
    <glyph glyph-name="Eogonek" unicode="&#x118;" horiz-adv-x="1136" 
d="M184 68v1310q0 68 68 68h704q68 0 68 -68v-41q0 -68 -68 -67h-571v-453h453q68 0 67 -67v-41q0 -68 -67 -68h-453v-465h606q68 0 68 -67v-43q0 -33 -38 -71t-77 -84t-39 -95q0 -55 82 -84q37 -16 31 -68l-6 -33q-6 -53 -74 -44t-134 55t-65 133q0 113 127 225h-614
q-68 0 -68 68z" />
    <glyph glyph-name="eogonek" unicode="&#x119;" horiz-adv-x="1118" 
d="M586 903q-110 1 -193 -73q-84 -74 -104 -201h553q-4 131 -75 203t-181 71zM78 524q0 238 146 388t364 149q218 0 337 -139q118 -139 117 -359q0 -27 -19 -46t-50 -19h-692q8 -164 110 -257q101 -93 243 -93t253 81q63 33 92 -22l16 -31q29 -53 -16 -92q-13 -12 -65 -54
t-82 -69q-86 -79 -85 -139q1 -61 82 -90q37 -16 29 -68l-4 -33q-8 -51 -73 -44t-133 55t-68 129q0 109 116 213q-45 -8 -69 -9q-242 0 -396 155q-153 156 -153 394z" />
    <glyph glyph-name="Ecaron" unicode="&#x11a;" horiz-adv-x="1136" 
d="M184 68v1310q0 68 68 68h704q68 0 68 -68v-41q0 -68 -68 -67h-571v-453h453q68 0 67 -67v-41q0 -68 -67 -68h-453v-465h606q68 0 68 -67v-41q0 -68 -68 -68h-739q-68 0 -68 68zM575 1546q-53 0 -83 43l-95 135q-23 35 -13 59t46 23h41q45 0 72 -45l80 -121h4l80 121
q31 45 71 45h43q37 0 46 -24t-13 -58l-96 -135q-29 -43 -82 -43h-101z" />
    <glyph glyph-name="ecaron" unicode="&#x11b;" horiz-adv-x="1116" 
d="M289 629h555q-4 133 -75 205t-181 72t-195 -74q-84 -74 -104 -203zM78 524q0 238 146 388t364 149q218 0 337 -136q118 -136 117 -358q0 -29 -19 -49t-50 -20h-692q8 -164 110 -257q101 -93 243 -93t253 81q61 33 92 -22l18 -31q35 -57 -20 -90q-158 -111 -350 -111
q-242 0 -396 155q-153 156 -153 394zM545 1188q-53 0 -84 43l-94 135q-23 34 -14 58t46 24h41q45 0 72 -45l80 -121h4l80 121q31 45 72 45h43q37 0 46 -24t-14 -58l-96 -135q-29 -43 -82 -43h-100z" />
    <glyph glyph-name="Gcircumflex" unicode="&#x11c;" horiz-adv-x="1538" 
d="M94 719q0 323 210 537t527 214q160 0 283 -43t193 -92q51 -39 14 -92l-29 -43q-33 -51 -94 -18q-168 102 -356 102q-244 0 -391 -160t-147 -402t151 -400q152 -160 376 -160q151 0 253 60t143 106l16 20v203h-168q-68 0 -67 67v41q0 68 67 68h285q68 0 67 -68v-591
q0 -68 -67 -68h-39q-68 0 -68 57v54l2 45h-4q-14 -19 -64 -57q-159 -121 -382 -124q-297 0 -504 211t-207 533zM612 1546q-37 0 -46 24t14 58l94 133q31 45 84 45h100q53 0 82 -45l96 -133q23 -34 14 -58t-44 -24h-45q-43 0 -72 45l-80 119h-4l-80 -119q-25 -45 -72 -45h-41
z" />
    <glyph glyph-name="gcircumflex" unicode="&#x11d;" horiz-adv-x="1198" 
d="M575 184q131 0 207 84t76 271q0 350 -287 350q-137 0 -212 -90t-75 -252q0 -163 81 -263q80 -100 210 -100zM548 -258q124 0 215 71t91 220v90l6 65h-4q-96 -176 -308 -176t-339 150t-127 380t122 374t341 145q180 0 283 -112q24 -26 40 -62h4q-4 12 -4 33v59q0 57 68 57
h49q68 0 68 -67v-926q0 -237 -151 -355t-342 -118t-322 57q-61 27 -35 90l14 35q27 57 86 35q121 -45 245 -45zM387 1188q-37 0 -46 24t13 58l95 133q31 45 83 45h101q53 0 82 -45l96 -133q23 -35 13 -59t-44 -23h-45q-43 0 -71 45l-80 119h-4l-80 -119q-25 -45 -72 -45h-41
z" />
    <glyph glyph-name="Gbreve" unicode="&#x11e;" horiz-adv-x="1538" 
d="M1075 1761q0 -95 -80 -159t-185 -64t-187 64t-82 159q0 45 59 45h29q51 0 59 -47q16 -102 120 -102t120 102q8 47 59 47h29q59 0 59 -45zM94 719q0 323 210 537t527 214q160 0 283 -43t193 -92q51 -39 14 -92l-29 -43q-33 -51 -94 -18q-168 102 -356 102
q-244 0 -391 -160t-147 -402t151 -400q152 -160 376 -160q151 0 253 60t143 106l16 20v203h-168q-68 0 -67 67v41q0 68 67 68h285q68 0 67 -68v-591q0 -68 -67 -68h-39q-68 0 -68 57v54l2 45h-4q-14 -19 -64 -57q-159 -121 -382 -124q-297 0 -504 211t-207 533z" />
    <glyph glyph-name="gbreve" unicode="&#x11f;" horiz-adv-x="1198" 
d="M850 1403q0 -95 -80 -159t-185 -64t-188 63q-82 63 -82 160q0 45 60 45h28q51 0 60 -47q15 -103 119 -103t120 103q8 47 60 47h29q59 0 59 -45zM575 184q131 0 207 84t76 271q0 350 -287 350q-137 0 -212 -90t-75 -252q0 -163 81 -263q80 -100 210 -100zM548 -258
q124 0 215 71t91 220v90l6 65h-4q-96 -176 -308 -176t-339 150t-127 380t122 374t341 145q180 0 283 -112q24 -26 40 -62h4q-4 12 -4 33v59q0 57 68 57h49q68 0 68 -67v-926q0 -237 -151 -355t-342 -118t-322 57q-61 27 -35 90l14 35q27 57 86 35q121 -45 245 -45z" />
    <glyph glyph-name="Gdotaccent" unicode="&#x120;" horiz-adv-x="1538" 
d="M786 1606q-68 0 -67 67v66q0 68 67 67h43q68 0 68 -67v-66q0 -68 -68 -67h-43zM94 719q0 323 210 537t527 214q160 0 283 -43t193 -92q51 -39 14 -92l-29 -43q-33 -51 -94 -18q-168 102 -356 102q-244 0 -391 -160t-147 -402t151 -400q152 -160 376 -160q151 0 253 60
t143 106l16 20v203h-168q-68 0 -67 67v41q0 68 67 68h285q68 0 67 -68v-591q0 -68 -67 -68h-39q-68 0 -68 57v54l2 45h-4q-14 -19 -64 -57q-159 -121 -382 -124q-297 0 -504 211t-207 533z" />
    <glyph glyph-name="gdotaccent" unicode="&#x121;" horiz-adv-x="1198" 
d="M561 1247q-68 0 -67 68v65q0 68 67 68h43q68 0 68 -68v-65q0 -68 -68 -68h-43zM575 184q131 0 207 84t76 271q0 350 -287 350q-137 0 -212 -90t-75 -252q0 -163 81 -263q80 -100 210 -100zM548 -258q124 0 215 71t91 220v90l6 65h-4q-96 -176 -308 -176t-339 150
t-127 380t122 374t341 145q180 0 283 -112q24 -26 40 -62h4q-4 12 -4 33v59q0 57 68 57h49q68 0 68 -67v-926q0 -237 -151 -355t-342 -118t-322 57q-61 27 -35 90l14 35q27 57 86 35q121 -45 245 -45z" />
    <glyph glyph-name="Gcommaaccent" unicode="&#x122;" horiz-adv-x="1538" 
d="M94 719q0 323 210 537t527 214q160 0 283 -43t193 -92q51 -39 14 -92l-29 -43q-33 -51 -94 -18q-168 102 -356 102q-244 0 -391 -160t-147 -402t151 -400q152 -160 376 -160q151 0 253 60t143 106l16 20v203h-168q-68 0 -67 67v41q0 68 67 68h285q68 0 67 -68v-591
q0 -68 -67 -68h-39q-68 0 -68 57v54l2 45h-4q-14 -19 -64 -57q-159 -121 -382 -124q-297 0 -504 211t-207 533zM780 -121h35q80 0 80 -115q0 -74 -32 -137t-79 -63h-16q-59 0 -59 41q0 10 10 49t10 84l-8 98q0 43 59 43z" />
    <glyph glyph-name="gcommaaccent" unicode="&#x123;" horiz-adv-x="1198" 
d="M575 184q131 0 207 84t76 271q0 350 -287 350q-137 0 -212 -90t-75 -252q0 -163 81 -263q80 -100 210 -100zM548 -258q124 0 215 71t91 220v90l6 65h-4q-96 -176 -308 -176t-339 150t-127 380t122 374t341 145q180 0 283 -112q24 -26 40 -62h4q-4 12 -4 33v59q0 57 68 57
h49q68 0 68 -67v-926q0 -237 -151 -355t-342 -118t-322 57q-61 27 -35 90l14 35q27 57 86 35q121 -45 245 -45zM608 1161h-35q-80 0 -79 115q0 74 31 137q32 63 79 64h17q59 0 59 -41q0 -10 -10 -50t-11 -83l9 -99q0 -43 -60 -43z" />
    <glyph glyph-name="Hcircumflex" unicode="&#x124;" horiz-adv-x="1521" 
d="M184 68v1310q0 68 68 68h65q68 0 68 -68v-569h752v569q0 68 67 68h68q66 0 65 -68v-1310q0 -68 -65 -68h-68q-68 0 -67 68v567h-752v-567q0 -68 -68 -68h-65q-68 0 -68 68zM565 1546q-37 0 -46 24t13 58l95 133q31 45 84 45h100q53 0 82 -45l96 -133q23 -34 13 -58
t-44 -24h-45q-43 0 -71 45l-80 119h-4l-80 -119q-25 -45 -72 -45h-41z" />
    <glyph glyph-name="hcircumflex" unicode="&#x125;" horiz-adv-x="1212" 
d="M145 68v1310q0 68 68 68h63q66 0 66 -68v-469l-6 -86h4q41 90 143 164t244 74q356 0 356 -397v-596q0 -68 -67 -68h-64q-68 0 -67 68v550q0 125 -41 193t-156 68q-150 0 -248 -110t-98 -277v-424q0 -68 -66 -68h-63q-68 0 -68 68zM51 1546q-37 0 -46 24t13 58l95 133
q31 45 84 45h100q53 0 82 -45l96 -133q23 -34 13 -58t-44 -24h-45q-43 0 -71 45l-80 119h-4l-80 -119q-25 -45 -72 -45h-41z" />
    <glyph glyph-name="Hbar" unicode="&#x126;" horiz-adv-x="1519" 
d="M393 809h735v244h-735v-244zM188 68v985h-67q-68 0 -68 63v12q0 63 68 64h67v186q0 68 68 68h70q68 0 67 -57v-197h735v186q0 68 68 68h70q68 0 67 -57v-197h66q68 0 67 -64v-12q0 -63 -67 -63h-66v-985q0 -68 -67 -68h-70q-68 0 -68 68v567h-735v-567q0 -68 -67 -68h-70
q-68 0 -68 68z" />
    <glyph glyph-name="hbar" unicode="&#x127;" horiz-adv-x="1212" 
d="M145 68v1085h-79q-68 0 -68 57v13q0 59 68 59h79v96q0 68 68 68h63q66 0 66 -47v-117h207q68 0 67 -59v-13q0 -57 -67 -57h-207v-238l-4 -86h4q43 90 143 161t242 71q356 0 356 -397v-596q0 -68 -67 -68h-64q-68 0 -67 68v550q0 125 -41 193t-156 68q-152 0 -249 -112
t-97 -271v-428q0 -68 -66 -68h-63q-68 0 -68 68z" />
    <glyph glyph-name="Itilde" unicode="&#x128;" horiz-adv-x="569" 
d="M8 1548q-59 0 -59 75t53 130q54 55 128 55t124 -34t86 -70q37 -35 73 -35t55 27t21 65q4 41 62 41h16q59 0 60 -57q-1 -91 -53 -147t-128 -56t-124 35q-49 35 -86 70t-74 34q-74 0 -78 -92q-6 -41 -59 -41h-17zM184 68v1310q0 68 68 68h65q68 0 68 -68v-1310
q0 -68 -68 -68h-65q-68 0 -68 68z" />
    <glyph glyph-name="itilde" unicode="&#x129;" horiz-adv-x="485" 
d="M-33 1190q-59 0 -59 74t53 130t127 56t124 -35t87 -69t73 -35q70 0 77 92q4 41 61 41h16q59 0 60 -58q0 -92 -52 -147t-128 -55t-125 35t-86 69t-74 35q-74 0 -78 -92q-6 -41 -59 -41h-17zM143 68v901q0 68 68 67h63q68 0 68 -67v-901q0 -68 -68 -68h-63q-68 0 -68 68z
" />
    <glyph glyph-name="Imacron" unicode="&#x12a;" horiz-adv-x="569" 
d="M94 1606q-68 0 -67 65v15q0 66 67 65h387q68 0 68 -65v-15q0 -66 -68 -65h-387zM184 68v1310q0 68 68 68h65q68 0 68 -68v-1310q0 -68 -68 -68h-65q-68 0 -68 68z" />
    <glyph glyph-name="imacron" unicode="&#x12b;" horiz-adv-x="485" 
d="M53 1247q-68 0 -67 66v14q0 66 67 66h387q68 0 68 -66v-14q0 -66 -68 -66h-387zM143 68v901q0 68 68 67h63q68 0 68 -67v-901q0 -68 -68 -68h-63q-68 0 -68 68z" />
    <glyph glyph-name="Ibreve" unicode="&#x12c;" horiz-adv-x="569" 
d="M555 1761q0 -95 -80 -159t-185 -64q-106 0 -188 64t-82 159q0 45 60 45h29q51 0 59 -47q16 -102 120 -102t120 102q8 47 59 47h29q59 0 59 -45zM184 68v1310q0 68 68 68h65q68 0 68 -68v-1310q0 -68 -68 -68h-65q-68 0 -68 68z" />
    <glyph glyph-name="ibreve" unicode="&#x12d;" horiz-adv-x="485" 
d="M512 1403q0 -95 -80 -159t-185 -64t-188 63q-82 63 -82 160q0 45 60 45h29q51 0 59 -47q15 -103 119 -103t121 103q8 47 59 47h29q59 0 59 -45zM143 68v901q0 68 68 67h63q68 0 68 -67v-901q0 -68 -68 -68h-63q-68 0 -68 68z" />
    <glyph glyph-name="Iogonek" unicode="&#x12e;" horiz-adv-x="569" 
d="M184 68v1310q0 68 68 68h65q68 0 68 -68v-1310q0 -39 -75 -115q-156 -158 7 -221q39 -16 31 -68l-4 -33q-8 -51 -65 -45q-76 10 -142 56q-65 46 -65 124q0 77 45 140t100 104q-33 15 -33 58z" />
    <glyph glyph-name="iogonek" unicode="&#x12f;" horiz-adv-x="487" 
d="M145 68v901q0 68 68 67h63q68 0 68 -67v-901q0 -39 -75 -115t-75 -134t82 -87q39 -18 31 -68l-6 -33q-8 -51 -65 -45q-76 10 -142 56t-66 124q0 77 47 140q46 63 101 104q-31 15 -31 58zM209 1243q-68 0 -68 68v67q0 68 68 68h70q68 0 67 -68v-67q0 -68 -67 -68h-70z" />
    <glyph glyph-name="Idotaccent" unicode="&#x130;" horiz-adv-x="569" 
d="M266 1606q-68 0 -67 67v66q0 68 67 67h43q68 0 68 -67v-66q0 -68 -68 -67h-43zM184 68v1310q0 68 68 68h65q68 0 68 -68v-1310q0 -68 -68 -68h-65q-68 0 -68 68z" />
    <glyph glyph-name="dotlessi" unicode="&#x131;" horiz-adv-x="485" 
d="M143 68v901q0 68 68 67h63q68 0 68 -67v-901q0 -68 -68 -68h-63q-68 0 -68 68z" />
    <glyph glyph-name="IJ" unicode="&#x132;" horiz-adv-x="1228" 
d="M184 68v1310q0 68 68 68h65q68 0 68 -68v-1310q0 -68 -68 -68h-65q-68 0 -68 68zM573 59v56q0 53 62 69q221 39 221 308v886q0 68 68 68h69q68 0 68 -68v-897q0 -363 -280 -462q-69 -23 -139 -23t-69 63z" />
    <glyph glyph-name="ij" unicode="&#x133;" horiz-adv-x="1001" 
d="M657 -23v992q0 68 68 67h63q66 0 66 -67v-1000q0 -96 -30 -171q-30 -74 -72 -114t-111 -73q-70 -33 -160 -33h-24q-68 0 -68 68v37q0 59 68 67q71 4 118 34q46 30 64 76t18 117zM721 1243q-68 0 -68 68v67q0 68 68 68h70q68 0 67 -68v-67q0 -68 -67 -68h-70zM143 68v901
q0 68 68 67h63q68 0 68 -67v-901q0 -68 -68 -68h-63q-68 0 -68 68zM209 1243q-68 0 -68 68v67q0 68 68 68h70q68 0 67 -68v-67q0 -68 -67 -68h-70z" />
    <glyph glyph-name="Jcircumflex" unicode="&#x134;" horiz-adv-x="1071" 
d="M45 420q0 68 68 67h69q33 0 47 -15t19 -54q6 -117 61 -187q55 -69 159 -69t168 62q65 62 64 194v852h-297q-66 0 -65 67v41q0 68 65 68h431q68 0 67 -68v-962q0 -219 -126 -330t-302 -111t-302 113t-126 332zM420 1546q-37 0 -46 24t13 58l94 133q31 45 84 45h101
q53 0 82 -45l96 -133q24 -34 14 -58t-45 -24h-45q-43 0 -72 45l-80 119h-4l-80 -119q-25 -45 -71 -45h-41z" />
    <glyph glyph-name="jcircumflex" unicode="&#x135;" horiz-adv-x="487" 
d="M145 -23v992q0 68 68 67h63q66 0 66 -67v-1000q0 -96 -30 -171q-30 -74 -72 -114t-111 -73q-70 -33 -160 -33h-24q-68 0 -68 68v37q0 61 68 67q200 14 200 227zM43 1186q-37 0 -45 24t14 58l94 135q31 43 82 43h103q51 0 82 -43l94 -135q23 -35 15 -59t-46 -23h-43
q-45 0 -71 45l-80 121h-4l-80 -121q-27 -45 -72 -45h-43z" />
    <glyph glyph-name="Kcommaaccent" unicode="&#x136;" horiz-adv-x="1239" 
d="M184 68v1310q0 68 68 68h65q68 0 68 -68v-540h217l338 563q25 45 80 45h76q41 0 54 -24t-7 -58l-375 -604v-4l401 -676q21 -36 9 -58t-54 -22h-84q-53 0 -79 47l-359 617h-217v-596q0 -68 -68 -68h-65q-68 0 -68 68zM618 -121h35q80 0 80 -115q0 -74 -32 -137t-78 -63
h-17q-59 0 -59 41q0 10 10 49t10 84l-8 98q0 43 59 43z" />
    <glyph glyph-name="kcommaaccent" unicode="&#x137;" horiz-adv-x="1044" 
d="M145 68v1310q0 68 68 68h63q66 0 66 -68v-721h150l251 336q27 43 80 43h76q41 0 53 -24t-12 -58l-287 -374v-5l332 -493q23 -34 9 -58t-54 -24h-82q-53 0 -80 47l-282 438h-154v-417q0 -68 -66 -68h-63q-68 0 -68 68zM524 -121h35q80 0 80 -115q0 -74 -32 -137t-79 -63
h-16q-59 0 -59 41q0 10 10 49t10 84l-8 98q0 43 59 43z" />
    <glyph glyph-name="kgreenlandic" unicode="&#x138;" horiz-adv-x="1040" 
d="M143 68v901q0 68 68 67h63q68 0 68 -67v-340h145l267 364q29 43 82 43h77q41 0 54 -24q12 -25 -13 -58l-303 -401v-4l316 -467q23 -34 9 -58t-54 -24h-88q-51 0 -78 47l-264 414h-150v-393q0 -68 -68 -68h-63q-68 0 -68 68z" />
    <glyph glyph-name="Lacute" unicode="&#x139;" horiz-adv-x="1044" 
d="M184 68v1310q0 68 68 68h65q68 0 68 -68v-1202h582q68 0 67 -67v-41q0 -68 -67 -68h-715q-68 0 -68 68zM281 1546q-35 0 -48 23q-12 23 7 53l82 137q27 47 79 47h60q43 0 53 -24t-16 -58l-101 -137q-33 -41 -82 -41h-34z" />
    <glyph glyph-name="lacute" unicode="&#x13a;" horiz-adv-x="536" 
d="M143 283v1095q0 68 68 68h63q68 0 68 -68v-1071q0 -129 94 -137q53 -6 53 -59v-50q0 -70 -69 -69q-277 0 -277 291zM240 1546q-35 0 -47 23t6 53l82 137q27 47 79 47h60q43 0 53 -24t-16 -58l-101 -137q-33 -41 -82 -41h-34z" />
    <glyph glyph-name="Lcommaaccent" unicode="&#x13b;" horiz-adv-x="1044" 
d="M184 68v1310q0 68 68 68h65q68 0 68 -68v-1202h582q68 0 67 -67v-41q0 -68 -67 -68h-715q-68 0 -68 68zM596 -121h35q80 0 80 -115q0 -74 -32 -137t-79 -63h-16q-59 0 -60 41q0 10 11 49q10 39 10 84l-8 98q0 43 59 43z" />
    <glyph glyph-name="lcommaaccent" unicode="&#x13c;" horiz-adv-x="534" 
d="M143 283v1095q0 68 68 68h63q68 0 68 -68v-1071q0 -129 94 -137q53 -6 53 -59v-50q0 -70 -69 -69q-277 0 -277 291zM293 -121h35q80 0 80 -115q0 -74 -32 -137t-79 -63h-16q-59 0 -60 41q0 10 10 49t11 84l-9 98q0 43 60 43z" />
    <glyph glyph-name="Lcaron" unicode="&#x13d;" horiz-adv-x="1044" 
d="M184 68v1310q0 68 68 68h65q68 0 68 -68v-1202h582q68 0 67 -67v-41q0 -68 -67 -68h-715q-68 0 -68 68zM627 1446h35q80 0 79 -115q1 -74 -31 -137t-79 -64h-17q-59 0 -59 41q0 7 10 47t10 87l-8 98q0 43 60 43z" />
    <glyph glyph-name="lcaron" unicode="&#x13e;" horiz-adv-x="536" 
d="M143 283v1095q0 68 68 68h63q68 0 68 -68v-1071q0 -129 94 -137q53 -6 53 -59v-50q0 -70 -69 -69q-277 0 -277 291zM528 1446h35q80 0 80 -115q0 -74 -32 -137t-79 -64h-16q-59 0 -59 41q0 7 10 47t10 87l-8 98q0 43 59 43z" />
    <glyph glyph-name="Ldot" unicode="&#x13f;" horiz-adv-x="1046" 
d="M688 666q-66 0 -65 67v82q0 68 65 68h74q68 0 67 -68v-82q0 -68 -67 -67h-74zM184 68v1310q0 68 68 68h65q68 0 68 -68v-1202h582q68 0 67 -67v-41q0 -68 -67 -68h-715q-68 0 -68 68z" />
    <glyph glyph-name="ldot" unicode="&#x140;" horiz-adv-x="667" 
d="M539 666q-66 0 -66 67v82q0 68 66 68h73q68 0 68 -68v-82q0 -68 -68 -67h-73zM143 283v1095q0 68 68 68h63q68 0 68 -68v-1071q0 -129 94 -137q53 -6 53 -59v-50q0 -70 -69 -69q-277 0 -277 291z" />
    <glyph glyph-name="Lslash" unicode="&#x141;" horiz-adv-x="1046" 
d="M186 68v548l-59 -32q-25 -14 -44 1t-20 54v51q0 55 37 76l86 49v563q0 68 68 68h65q68 0 68 -68v-448l143 82q35 20 58 8t22 -53v-52q0 -55 -47 -81l-176 -103v-555h582q66 0 65 -67v-41q0 -68 -65 -68h-715q-68 0 -68 68z" />
    <glyph glyph-name="lslash" unicode="&#x142;" horiz-adv-x="555" 
d="M160 283v366l-84 -47q-27 -16 -46 -1t-20 54v52q0 55 37 75l113 66v530q0 68 67 68h64q68 0 67 -68v-415l88 49q33 20 57 8t23 -53v-52q0 -55 -43 -81l-125 -72v-457q0 -127 95 -135q53 -6 53 -59v-50q0 -70 -70 -69q-276 0 -276 291z" />
    <glyph glyph-name="Nacute" unicode="&#x143;" horiz-adv-x="1523" 
d="M184 68v1310q0 68 68 68h78q53 0 82 -45l616 -895q48 -74 100 -174l19 -35h4q-12 129 -12 209v872q0 68 67 68h66q68 0 67 -68v-1310q0 -68 -67 -68h-78q-55 0 -80 45l-618 893l-119 211h-4q12 -129 12 -211v-870q0 -68 -68 -68h-65q-68 0 -68 68zM754 1546q-35 0 -47 23
t6 53l82 137q27 47 79 47h60q43 0 53 -24t-16 -58l-101 -137q-33 -41 -82 -41h-34z" />
    <glyph glyph-name="nacute" unicode="&#x144;" horiz-adv-x="1210" 
d="M143 68v901q0 68 68 67h57q68 0 68 -67v-92l-6 -60h4q41 90 141 167t252 77q354 0 354 -397v-596q0 -68 -67 -68h-64q-68 0 -67 68v550q0 125 -40 193t-155 68q-150 0 -248 -111t-98 -272v-428q0 -68 -68 -68h-63q-68 0 -68 68zM623 1188q-35 0 -48 22q-12 23 7 54
l82 137q27 47 79 47h60q43 0 53 -24t-16 -58l-101 -137q-33 -41 -82 -41h-34z" />
    <glyph glyph-name="Ncommaaccent" unicode="&#x145;" horiz-adv-x="1523" 
d="M184 68v1310q0 68 68 68h78q53 0 82 -45l616 -895q48 -74 100 -174l19 -35h4q-12 129 -12 209v872q0 68 67 68h66q68 0 67 -68v-1310q0 -68 -67 -68h-78q-55 0 -80 45l-618 893l-119 211h-4q12 -129 12 -211v-870q0 -68 -68 -68h-65q-68 0 -68 68zM737 -121h35
q80 0 80 -115q0 -74 -32 -137t-79 -63h-16q-59 0 -59 41q0 10 10 49t10 84l-8 98q0 43 59 43z" />
    <glyph glyph-name="ncommaaccent" unicode="&#x146;" horiz-adv-x="1210" 
d="M143 68v901q0 68 68 67h57q68 0 68 -67v-92l-6 -60h4q41 90 141 167t252 77q354 0 354 -397v-596q0 -68 -67 -68h-64q-68 0 -67 68v550q0 125 -40 193t-155 68q-150 0 -248 -111t-98 -272v-428q0 -68 -68 -68h-63q-68 0 -68 68zM586 -121h35q80 0 79 -115q0 -74 -32 -137
t-78 -63h-17q-59 0 -59 41q0 10 10 49t11 84l-9 98q0 43 60 43z" />
    <glyph glyph-name="Ncaron" unicode="&#x147;" horiz-adv-x="1523" 
d="M184 68v1310q0 68 68 68h78q53 0 82 -45l616 -895q48 -74 100 -174l19 -35h4q-12 129 -12 209v872q0 68 67 68h66q68 0 67 -68v-1310q0 -68 -67 -68h-78q-55 0 -80 45l-618 893l-119 211h-4q12 -129 12 -211v-870q0 -68 -68 -68h-65q-68 0 -68 68zM711 1546q-53 0 -84 43
l-95 135q-24 35 -14 59t47 23h41q45 0 72 -45l80 -121h4l80 121q31 45 71 45h43q37 0 46 -24t-13 -58l-96 -135q-29 -43 -82 -43h-100z" />
    <glyph glyph-name="ncaron" unicode="&#x148;" horiz-adv-x="1210" 
d="M143 68v901q0 68 68 67h57q68 0 68 -67v-92l-6 -60h4q41 90 141 167t252 77q354 0 354 -397v-596q0 -68 -67 -68h-64q-68 0 -67 68v550q0 125 -40 193t-155 68q-150 0 -248 -111t-98 -272v-428q0 -68 -68 -68h-63q-68 0 -68 68zM578 1188q-53 0 -84 43l-95 135
q-23 34 -13 58t46 24h41q45 0 72 -45l80 -121h4l80 121q31 45 71 45h43q37 0 46 -24t-13 -58l-96 -135q-29 -43 -82 -43h-100z" />
    <glyph glyph-name="napostrophe" unicode="&#x149;" horiz-adv-x="1210" 
d="M143 68v901q0 68 68 67h57q68 0 68 -67v-92l-6 -60h4q41 90 141 167t252 77q354 0 354 -397v-596q0 -68 -67 -68h-64q-68 0 -67 68v550q0 125 -40 193t-155 68q-150 0 -248 -111t-98 -272v-428q0 -68 -68 -68h-63q-68 0 -68 68zM63 1446h35q80 0 80 -115q0 -74 -32 -137
t-78 -64h-17q-59 0 -59 41q0 7 10 47t10 87l-8 98q0 43 59 43z" />
    <glyph glyph-name="Eng" unicode="&#x14a;" horiz-adv-x="1525" 
d="M184 68v1310q0 68 68 68h78q53 0 82 -45l616 -895q48 -74 100 -174l19 -35h4q-12 129 -12 209v872q0 68 67 68h66q68 0 67 -68v-1388q0 -302 -261 -386q-64 -22 -136 -24t-72 66v41q0 59 66 69q209 14 209 248l-649 934l-119 211h-4q12 -129 12 -211v-870q0 -68 -68 -68
h-65q-68 0 -68 68z" />
    <glyph glyph-name="eng" unicode="&#x14b;" horiz-adv-x="1216" 
d="M143 68v901q0 68 68 67h57q68 0 68 -67v-92l-6 -60h4q41 90 141 167t252 77q354 0 354 -397v-695q1 -96 -29 -171q-30 -74 -72 -114t-112 -73t-159 -33h-25q-68 0 -68 68v37q0 61 68 67q199 14 199 227v641q0 125 -40 193t-155 68q-150 0 -248 -111t-98 -272v-428
q0 -68 -68 -68h-63q-68 0 -68 68z" />
    <glyph glyph-name="Omacron" unicode="&#x14c;" horiz-adv-x="1669" 
d="M836 1284q-229 0 -382 -158t-153 -397t153 -403t382 -164t381 164q151 164 151 404t-152 396q-152 158 -380 158zM1577 728q0 -318 -211 -534q-211 -218 -530 -218q-320 0 -532 217t-212 535t211 530t531 212t532 -212q211 -212 211 -530zM641 1606q-68 0 -68 65v15
q0 66 68 65h387q68 0 68 -65v-15q0 -66 -68 -65h-387z" />
    <glyph glyph-name="omacron" unicode="&#x14d;" horiz-adv-x="1267" 
d="M276 520q0 -160 104 -266t254 -106q149 0 252 104q103 106 103 267t-103 265q-104 104 -252 104t-253 -104t-105 -264zM76 520q0 233 162 387t396 154t396 -154t162 -387t-163 -389t-396 -156t-395 156t-162 389zM440 1247q-68 0 -67 66v14q0 66 67 66h387q68 0 68 -66
v-14q0 -66 -68 -66h-387z" />
    <glyph glyph-name="Obreve" unicode="&#x14e;" horiz-adv-x="1669" 
d="M837 1538q-105 0 -187 64t-83 159q0 45 60 45h28q51 0 60 -47q15 -102 119 -102t120 102q8 47 60 47h28q59 0 60 -45q0 -95 -80 -159t-185 -64zM836 1284q-229 0 -382 -158t-153 -397t153 -403t382 -164t381 164q151 164 151 404t-152 396q-152 158 -380 158zM1577 728
q0 -318 -211 -534q-211 -218 -530 -218q-320 0 -532 217t-212 535t211 530t531 212t532 -212q211 -212 211 -530z" />
    <glyph glyph-name="obreve" unicode="&#x14f;" horiz-adv-x="1267" 
d="M899 1403q0 -95 -80 -159t-185 -64t-188 63q-82 63 -81 160q0 45 59 45h29q51 0 59 -47q16 -103 120 -103t120 103q8 47 59 47h29q59 0 59 -45zM276 520q0 -160 104 -266t254 -106q149 0 252 104q103 106 103 267t-103 265q-104 104 -252 104t-253 -104t-105 -264z
M76 520q0 233 162 387t396 154t396 -154t162 -387t-163 -389t-396 -156t-395 156t-162 389z" />
    <glyph glyph-name="Ohungarumlaut" unicode="&#x150;" horiz-adv-x="1669" 
d="M836 1284q-229 0 -382 -158t-153 -397t153 -403t382 -164t381 164q151 164 151 404t-152 396q-152 158 -380 158zM1577 728q0 -318 -211 -534q-211 -218 -530 -218q-320 0 -532 217t-212 535t211 530t531 212t532 -212q211 -212 211 -530zM651 1546q-39 0 -50 22t5 56
l74 133q23 49 80 49h35q41 0 53 -22t-8 -58l-76 -133q-27 -47 -80 -47h-33zM969 1546q-41 0 -53 23q-11 23 10 57l78 133q27 47 79 47h54q43 0 53 -24t-16 -58l-101 -137q-33 -41 -82 -41h-22z" />
    <glyph glyph-name="ohungarumlaut" unicode="&#x151;" horiz-adv-x="1267" 
d="M276 520q0 -160 104 -266t254 -106q149 0 252 104q103 106 103 267t-103 265q-104 104 -252 104t-253 -104t-105 -264zM76 520q0 233 162 387t396 154t396 -154t162 -387t-163 -389t-396 -156t-395 156t-162 389zM449 1188q-39 0 -51 22q-11 23 5 56l74 133q23 49 80 49
h35q41 0 53 -24t-8 -56l-76 -133q-27 -47 -80 -47h-32zM766 1188q-41 0 -52 22t9 58l78 133q27 47 80 47h53q43 0 53 -24t-16 -58l-101 -137q-33 -41 -82 -41h-22z" />
    <glyph glyph-name="OE" unicode="&#x152;" horiz-adv-x="1937" 
d="M840 158q73 0 145 16v1100q-63 14 -145 14q-238 0 -390 -162t-151 -402q0 -242 152 -404t389 -162zM90 724q0 314 215 527t535 213q53 0 135 -9t115 -9h667q68 0 68 -68v-41q0 -68 -68 -67h-571v-453h450q68 0 68 -67v-41q0 -68 -68 -68h-450v-465h606q68 0 68 -67v-41
q0 -68 -68 -68h-700q-33 0 -116 -9t-136 -9q-319 0 -535 214q-215 214 -215 528z" />
    <glyph glyph-name="oe" unicode="&#x153;" horiz-adv-x="2027" 
d="M279 517q0 -165 102 -267t252 -102t253 102q103 104 103 269t-104 267q-103 102 -251 102t-252 -102q-104 -104 -103 -269zM1498 903q-110 1 -194 -73t-104 -201h553q-4 129 -74 201q-71 72 -181 73zM76 516q0 240 160 392t391 153q303 0 450 -246h4q131 246 426 246
q211 0 330 -136t119 -358q0 -29 -20 -49t-52 -20h-690q12 -166 114 -258t239 -92q138 0 253 81q61 33 90 -22l19 -31q33 -59 -21 -90q-154 -111 -350 -111q-313 0 -453 252h-4q-147 -252 -452 -252q-233 1 -393 151t-160 390z" />
    <glyph glyph-name="Racute" unicode="&#x154;" horiz-adv-x="1263" 
d="M385 752h291q118 0 188 74t70 194q0 168 -135 225q-55 25 -172 25h-242v-518zM184 68v1310q0 68 68 68h389q184 0 280 -43q97 -43 157 -141t60 -236t-69 -247q-70 -110 -188 -148v-4q18 -20 43 -66l260 -481q20 -36 7 -58t-52 -22h-82q-57 0 -80 47l-283 528h-309v-507
q0 -68 -68 -68h-65q-68 0 -68 68zM610 1546q-35 0 -47 23t6 53l82 137q27 47 80 47h60q43 0 53 -24t-17 -58l-100 -137q-33 -41 -82 -41h-35z" />
    <glyph glyph-name="racute" unicode="&#x155;" horiz-adv-x="729" 
d="M143 68v901q0 68 68 67h57q68 0 68 -67v-119l-6 -78h4q37 113 122 193t195 79q66 0 66 -67v-57q0 -68 -74 -68q-143 0 -222 -128t-79 -296v-360q0 -68 -68 -68h-63q-68 0 -68 68zM440 1186q-35 0 -47 22t6 54l82 137q27 47 80 47h60q43 0 53 -25t-17 -57l-100 -137
q-33 -41 -82 -41h-35z" />
    <glyph glyph-name="Rcommaaccent" unicode="&#x156;" horiz-adv-x="1263" 
d="M385 752h291q118 0 188 74t70 194q0 168 -135 225q-55 25 -172 25h-242v-518zM184 68v1310q0 68 68 68h389q184 0 280 -43q97 -43 157 -141t60 -236t-69 -247q-70 -110 -188 -148v-4q18 -20 43 -66l260 -481q20 -36 7 -58t-52 -22h-82q-57 0 -80 47l-283 528h-309v-507
q0 -68 -68 -68h-65q-68 0 -68 68zM635 -121h35q80 0 80 -115q0 -74 -32 -137t-79 -63h-16q-59 0 -60 41q0 10 10 49t11 84l-9 98q0 43 60 43z" />
    <glyph glyph-name="rcommaaccent" unicode="&#x157;" horiz-adv-x="729" 
d="M143 68v901q0 68 68 67h57q68 0 68 -67v-119l-6 -78h4q37 113 122 193t195 79q66 0 66 -67v-57q0 -68 -74 -68q-143 0 -222 -128t-79 -296v-360q0 -68 -68 -68h-63q-68 0 -68 68zM223 -121h35q80 0 80 -115q0 -74 -32 -137t-79 -63h-16q-59 0 -59 41q0 10 10 49t10 84
l-8 98q0 43 59 43z" />
    <glyph glyph-name="Rcaron" unicode="&#x158;" horiz-adv-x="1263" 
d="M385 752h291q118 0 188 74t70 194q0 168 -135 225q-55 25 -172 25h-242v-518zM184 68v1310q0 68 68 68h389q184 0 280 -43q97 -43 157 -141t60 -236t-69 -247q-70 -110 -188 -148v-4q18 -20 43 -66l260 -481q20 -36 7 -58t-52 -22h-82q-57 0 -80 47l-283 528h-309v-507
q0 -68 -68 -68h-65q-68 0 -68 68zM567 1546q-53 0 -84 43l-94 135q-23 35 -13 59t46 23h41q45 0 72 -45l79 -121h4l80 121q31 45 72 45h43q37 0 46 -24t-13 -58l-96 -135q-29 -43 -82 -43h-101z" />
    <glyph glyph-name="rcaron" unicode="&#x159;" horiz-adv-x="729" 
d="M143 68v901q0 68 68 67h57q68 0 68 -67v-119l-6 -78h4q37 113 122 193t195 79q66 0 66 -67v-57q0 -68 -74 -68q-143 0 -222 -128t-79 -296v-360q0 -68 -68 -68h-63q-68 0 -68 68zM399 1186q-53 0 -84 43l-94 135q-23 34 -13 58t46 24h41q45 0 72 -45l79 -121h5l79 121
q31 45 72 45h43q37 0 46 -24t-13 -58l-96 -135q-29 -43 -82 -43h-101z" />
    <glyph glyph-name="Sacute" unicode="&#x15a;" horiz-adv-x="1099" 
d="M553 164q115 0 185 56t69 148q0 92 -72 153t-174 105q-103 44 -205 93t-174 137t-71 213q0 180 133 291t336 110q115 0 212 -34t148 -73q51 -38 23 -95l-29 -51q-31 -55 -92 -19q-142 84 -262 84t-192 -55t-73 -137q0 -150 187 -228q187 -77 329 -159q78 -44 130 -125
q51 -82 51 -191q0 -176 -124 -294t-335 -118q-139 -1 -253 47t-181 103q-47 43 -8 94l34 49q37 47 93 13q162 -117 315 -117zM545 1546q-35 0 -47 23t6 53l82 137q27 47 80 47h59q43 0 53 -24t-16 -58l-100 -137q-33 -41 -82 -41h-35z" />
    <glyph glyph-name="sacute" unicode="&#x15b;" horiz-adv-x="899" 
d="M457 139q78 0 127 36t49 96q0 61 -55 99q-54 38 -134 66t-158 61t-132 101q-55 68 -56 164q0 141 108 220t268 79t286 -80q57 -29 22 -90l-18 -31q-29 -51 -90 -22q-104 59 -196 59t-141 -34q-48 -34 -48 -93t55 -98t134 -66q79 -26 157 -60t133 -101t55 -164
q0 -133 -103 -219q-104 -86 -286 -87q-182 0 -332 113q-51 33 -14 92l21 29q35 47 94 14q129 -84 254 -84zM440 1188q-35 0 -47 22t6 54l82 137q27 47 80 47h60q43 0 53 -24t-17 -58l-100 -137q-33 -41 -82 -41h-35z" />
    <glyph glyph-name="Scircumflex" unicode="&#x15c;" horiz-adv-x="1099" 
d="M553 164q115 0 185 56t69 148q0 92 -72 153t-174 105q-103 44 -205 93t-174 137t-71 213q0 180 133 291t336 110q115 0 212 -34t148 -73q51 -38 23 -95l-29 -51q-31 -55 -92 -19q-142 84 -262 84t-192 -55t-73 -137q0 -150 187 -228q187 -77 329 -159q78 -44 130 -125
q51 -82 51 -191q0 -176 -124 -294t-335 -118q-139 -1 -253 47t-181 103q-47 43 -8 94l34 49q37 47 93 13q162 -117 315 -117zM356 1546q-37 0 -46 24t14 58l94 133q31 45 84 45h100q53 0 82 -45l96 -133q23 -34 14 -58t-44 -24h-45q-43 0 -72 45l-80 119h-4l-80 -119
q-25 -45 -72 -45h-41z" />
    <glyph glyph-name="scircumflex" unicode="&#x15d;" horiz-adv-x="899" 
d="M457 139q78 0 127 36t49 96q0 61 -55 99q-54 38 -134 66t-158 61t-132 101q-55 68 -56 164q0 141 108 220t268 79t286 -80q57 -29 22 -90l-18 -31q-29 -51 -90 -22q-104 59 -196 59t-141 -34q-48 -34 -48 -93t55 -98t134 -66q79 -26 157 -60t133 -101t55 -164
q0 -133 -103 -219q-104 -86 -286 -87q-182 0 -332 113q-51 33 -14 92l21 29q35 47 94 14q129 -84 254 -84zM256 1188q-37 0 -46 24t13 58l94 133q31 45 84 45h101q53 0 82 -45l96 -133q24 -35 14 -59t-45 -23h-45q-43 0 -72 45l-79 119h-4l-80 -119q-25 -45 -72 -45h-41z
" />
    <glyph glyph-name="Scedilla" unicode="&#x15e;" horiz-adv-x="1103" 
d="M600 -244q0 55 -96 66q-49 4 -33 57l25 101q-223 18 -377 145q-47 43 -8 94l34 49q37 47 93 13q162 -117 315 -117q115 0 185 56t69 148q0 92 -72 153t-174 105q-103 44 -205 93t-174 137t-71 213q0 180 133 291t336 110q115 0 212 -34t148 -73q51 -38 23 -95l-29 -51
q-31 -55 -92 -19q-142 84 -262 84t-192 -55t-73 -137q0 -150 187 -228q187 -77 329 -159q78 -44 130 -125q51 -82 51 -191q0 -165 -109 -279t-297 -131l-16 -79q66 -8 106 -48t41 -114q0 -76 -60 -118q-59 -42 -157 -42t-98 60t37 61l53 -6q88 0 88 65z" />
    <glyph glyph-name="scedilla" unicode="&#x15f;" horiz-adv-x="903" 
d="M489 -244q0 55 -96 66q-49 4 -33 57l25 101q-160 16 -283 108q-51 33 -14 92l21 29q35 47 94 14q129 -84 254 -84q78 0 127 36t49 96q0 61 -55 99q-54 38 -134 66t-158 61t-132 101q-55 68 -56 164q0 141 108 220t268 79t286 -80q57 -29 22 -90l-18 -31q-29 -51 -90 -22
q-104 59 -196 59t-141 -34q-48 -34 -48 -93t55 -98t134 -66q79 -26 157 -60t133 -101t55 -177t-90 -194t-237 -97l-17 -79q66 -8 107 -48t41 -114q-1 -76 -61 -118t-157 -42t-98 59q0 61 37 62l53 -6q88 0 88 65z" />
    <glyph glyph-name="Scaron" unicode="&#x160;" horiz-adv-x="1099" 
d="M553 164q115 0 185 56t69 148q0 92 -72 153t-174 105q-103 44 -205 93t-174 137t-71 213q0 180 133 291t336 110q115 0 212 -34t148 -73q51 -38 23 -95l-29 -51q-31 -55 -92 -19q-142 84 -262 84t-192 -55t-73 -137q0 -150 187 -228q187 -77 329 -159q78 -44 130 -125
q51 -82 51 -191q0 -176 -124 -294t-335 -118q-139 -1 -253 47t-181 103q-47 43 -8 94l34 49q37 47 93 13q162 -117 315 -117zM502 1546q-53 0 -84 43l-94 135q-23 35 -14 59t46 23h41q45 0 72 -45l80 -121h4l80 121q31 45 72 45h43q37 0 46 -24t-14 -58l-96 -135
q-29 -43 -82 -43h-100z" />
    <glyph glyph-name="scaron" unicode="&#x161;" horiz-adv-x="899" 
d="M457 139q78 0 127 36t49 96q0 61 -55 99q-54 38 -134 66t-158 61t-132 101q-55 68 -56 164q0 141 108 220t268 79t286 -80q57 -29 22 -90l-18 -31q-29 -51 -90 -22q-104 59 -196 59t-141 -34q-48 -34 -48 -93t55 -98t134 -66q79 -26 157 -60t133 -101t55 -164
q0 -133 -103 -219q-104 -86 -286 -87q-182 0 -332 113q-51 33 -14 92l21 29q35 47 94 14q129 -84 254 -84zM401 1188q-53 0 -84 43l-94 135q-23 34 -13 58t46 24h41q45 0 72 -45l80 -121h4l79 121q31 45 72 45h43q37 0 46 -24t-13 -58l-96 -135q-29 -43 -82 -43h-101z" />
    <glyph glyph-name="Tcommaaccent" unicode="&#x162;" horiz-adv-x="1218" 
d="M649 -244q0 55 -96 66q-49 4 -33 57l29 123q-39 12 -39 66v1202h-430q-68 0 -68 67v41q0 68 68 68h1061q66 0 65 -68v-41q0 -68 -65 -67h-430v-1202q0 -57 -52 -68l-20 -102q67 -8 107 -48t40 -114q0 -76 -60 -118t-157 -42t-98 59q0 61 37 62l53 -6q88 0 88 65z" />
    <glyph glyph-name="tcommaaccent" unicode="&#x163;" horiz-adv-x="702" 
d="M459 -244q0 55 -97 66q-48 4 -32 57l39 162q-174 96 -174 332v491h-72q-66 0 -66 68v26q0 68 68 68h74v227q0 68 67 68h60q68 0 67 -68v-227h180q68 0 68 -68v-26q0 -68 -66 -68h-182v-461q0 -217 197 -233q41 -4 56 -18t16 -50v-43q0 -68 -82 -67q-59 0 -111 12
l-20 -106q67 -8 107 -48t40 -114q0 -76 -60 -118t-158 -42t-97 60q0 60 36 61l54 -6q88 0 88 65z" />
    <glyph glyph-name="Tcaron" unicode="&#x164;" horiz-adv-x="1218" 
d="M510 68v1202h-430q-68 0 -68 67v41q0 68 68 68h1061q66 0 65 -68v-41q0 -68 -65 -67h-430v-1202q0 -68 -68 -68h-68q-65 0 -65 68zM557 1546q-53 0 -84 43l-94 135q-23 35 -13 59t46 23h41q45 0 71 -45l80 -121h4l80 121q31 45 72 45h43q37 0 46 -24t-13 -58l-97 -135
q-29 -43 -82 -43h-100z" />
    <glyph glyph-name="tcaron" unicode="&#x165;" horiz-adv-x="700" 
d="M193 373v491h-72q-66 0 -66 68v26q0 68 68 68h74v227q0 68 67 68h60q68 0 67 -68v-227h180q68 0 68 -68v-26q0 -68 -66 -68h-182v-461q0 -217 197 -233q41 -4 56 -18t15 -50v-43q0 -68 -81 -67q-166 0 -276 97q-109 98 -109 284zM580 1442h34q80 0 80 -115
q0 -74 -32 -137t-78 -64h-17q-59 0 -59 41q0 8 10 47t10 86l-8 99q0 43 60 43z" />
    <glyph glyph-name="Tbar" unicode="&#x166;" horiz-adv-x="1222" 
d="M510 68v567h-252q-68 0 -68 67v21q0 68 68 68h252v479h-428q-68 0 -68 67v41q0 68 68 68h1059q68 0 67 -68v-41q0 -68 -67 -67h-430v-479h262q68 0 67 -68v-21q0 -68 -67 -67h-262v-567q0 -68 -66 -68h-67q-68 0 -68 68z" />
    <glyph glyph-name="tbar" unicode="&#x167;" horiz-adv-x="704" 
d="M195 373v162h-72q-68 0 -68 67v21q0 68 68 67h72v182h-72q-68 0 -68 68v18q0 68 68 68h76v227q0 68 67 68h60q66 0 65 -68v-227h182q68 0 68 -68v-18q0 -68 -68 -68h-182v-182h182q68 0 68 -67v-21q0 -68 -68 -67h-182v-140q0 -209 197 -225q41 -4 56 -18t15 -50v-43
q0 -68 -79 -67q-166 0 -276 97q-109 98 -109 284z" />
    <glyph glyph-name="Utilde" unicode="&#x168;" horiz-adv-x="1468" 
d="M455 1548q-59 0 -59 75t52 130q54 55 128 55t124 -34q49 -34 86 -70q37 -35 73 -35t55 27q18 26 22 66t61 40h17q59 0 59 -57q0 -91 -52 -147q-51 -56 -127 -56t-126 35t-86 70q-37 35 -74 34q-74 0 -78 -92q-6 -41 -59 -41h-16zM166 512v866q0 68 67 68h68q66 0 66 -68
v-864q0 -164 99 -258t267 -94t267 94t100 260v862q0 68 67 68h68q68 0 68 -68v-866q0 -242 -157 -389t-412 -147q-256 0 -412 146q-156 148 -156 390z" />
    <glyph glyph-name="utilde" unicode="&#x169;" horiz-adv-x="1202" 
d="M315 1190q-59 0 -59 74t53 130t128 56t124 -35t86 -69t73 -35q70 0 77 92q4 41 61 41h16q59 0 60 -58q0 -92 -52 -147t-128 -55t-125 35t-86 69t-74 35q-74 0 -78 -92q-6 -41 -59 -41h-17zM483 -25q-352 0 -352 398v596q0 68 68 67h63q66 0 66 -67v-551q0 -123 41 -191
t153 -67q154 0 246 114t92 277v418q0 68 68 67h63q68 0 68 -67v-901q0 -68 -68 -68h-57q-68 0 -68 68v92l6 59h-4q-41 -92 -143 -168t-242 -76z" />
    <glyph glyph-name="Umacron" unicode="&#x16a;" horiz-adv-x="1468" 
d="M541 1606q-68 0 -68 65v15q0 66 68 65h387q68 0 67 -65v-15q0 -66 -67 -65h-387zM166 512v866q0 68 67 68h68q66 0 66 -68v-864q0 -164 99 -258t267 -94t267 94t100 260v862q0 68 67 68h68q68 0 68 -68v-866q0 -242 -157 -389t-412 -147q-256 0 -412 146
q-156 148 -156 390z" />
    <glyph glyph-name="umacron" unicode="&#x16b;" horiz-adv-x="1202" 
d="M401 1247q-68 0 -67 66v14q0 66 67 66h387q68 0 68 -66v-14q0 -66 -68 -66h-387zM483 -25q-352 0 -352 398v596q0 68 68 67h63q66 0 66 -67v-551q0 -123 41 -191t153 -67q154 0 246 114t92 277v418q0 68 68 67h63q68 0 68 -67v-901q0 -68 -68 -68h-57q-68 0 -68 68v92
l6 59h-4q-41 -92 -143 -168t-242 -76z" />
    <glyph glyph-name="Ubreve" unicode="&#x16c;" horiz-adv-x="1468" 
d="M999 1761q0 -95 -80 -159t-185 -64t-187 64t-82 159q0 45 59 45h29q51 0 59 -47q16 -102 120 -102t120 102q8 47 59 47h29q59 0 59 -45zM166 512v866q0 68 67 68h68q66 0 66 -68v-864q0 -164 99 -258t267 -94t267 94t100 260v862q0 68 67 68h68q68 0 68 -68v-866
q0 -242 -157 -389t-412 -147q-256 0 -412 146q-156 148 -156 390z" />
    <glyph glyph-name="ubreve" unicode="&#x16d;" horiz-adv-x="1202" 
d="M860 1403q0 -95 -80 -159t-185 -64t-187 63t-82 160q0 45 59 45h29q51 0 59 -47q15 -103 119 -103t121 103q8 47 59 47h29q59 0 59 -45zM483 -25q-352 0 -352 398v596q0 68 68 67h63q66 0 66 -67v-551q0 -123 41 -191t153 -67q154 0 246 114t92 277v418q0 68 68 67h63
q68 0 68 -67v-901q0 -68 -68 -68h-57q-68 0 -68 68v92l6 59h-4q-41 -92 -143 -168t-242 -76z" />
    <glyph glyph-name="Uring" unicode="&#x16e;" horiz-adv-x="1468" 
d="M166 512v866q0 68 67 68h68q66 0 66 -68v-864q0 -164 99 -258t267 -94t267 94t100 260v862q0 68 67 68h68q68 0 68 -68v-866q0 -242 -157 -389t-412 -147q-256 0 -412 146q-156 148 -156 390zM732 1606q30 0 49 19t19 50t-18 50q-20 19 -50 19t-48 -18q-18 -20 -18 -51
t18 -50t48 -19zM733 1522q-72 0 -123 42t-51 110t51 111q51 42 123 42t123 -42t51 -111q0 -68 -51 -110t-123 -42z" />
    <glyph glyph-name="uring" unicode="&#x16f;" horiz-adv-x="1202" 
d="M483 -25q-352 0 -352 398v596q0 68 68 67h63q66 0 66 -67v-551q0 -123 41 -191t153 -67q154 0 246 114t92 277v418q0 68 68 67h63q68 0 68 -67v-901q0 -68 -68 -68h-57q-68 0 -68 68v92l6 59h-4q-41 -92 -143 -168t-242 -76zM593 1247q30 -1 49 19q20 20 20 51t-20 50
t-49 19q-30 0 -48 -19q-19 -19 -19 -50t18 -51t49 -19zM594 1163q-72 0 -123 42t-51 111q0 68 51 110t123 42t123 -42t51 -110t-51 -111q-51 -42 -123 -42z" />
    <glyph glyph-name="Uhungarumlaut" unicode="&#x170;" horiz-adv-x="1468" 
d="M549 1546q-39 0 -50 22t5 56l74 133q23 49 79 49h35q41 0 53 -22t-8 -58l-75 -133q-27 -47 -80 -47h-33zM866 1546q-41 0 -52 23t9 57l78 133q27 47 80 47h53q43 0 53 -24t-16 -58l-100 -137q-33 -41 -82 -41h-23zM166 512v866q0 68 67 68h68q66 0 66 -68v-864
q0 -164 99 -258t267 -94t267 94t100 260v862q0 68 67 68h68q68 0 68 -68v-866q0 -242 -157 -389t-412 -147q-256 0 -412 146q-156 148 -156 390z" />
    <glyph glyph-name="uhungarumlaut" unicode="&#x171;" horiz-adv-x="1202" 
d="M410 1188q-39 0 -51 22q-11 23 6 56l73 133q23 49 80 49h35q41 0 53 -24t-8 -56l-76 -133q-27 -47 -80 -47h-32zM727 1188q-41 0 -52 22t9 58l78 133q27 47 80 47h53q43 0 53 -24t-16 -58l-101 -137q-33 -41 -81 -41h-23zM483 -25q-352 0 -352 398v596q0 68 68 67h63
q66 0 66 -67v-551q0 -123 41 -191t153 -67q154 0 246 114t92 277v418q0 68 68 67h63q68 0 68 -67v-901q0 -68 -68 -68h-57q-68 0 -68 68v92l6 59h-4q-41 -92 -143 -168t-242 -76z" />
    <glyph glyph-name="Uogonek" unicode="&#x172;" horiz-adv-x="1468" 
d="M166 512v866q0 68 67 68h68q66 0 66 -68v-864q0 -164 99 -258t267 -94t267 94t100 260v862q0 68 67 68h68q68 0 68 -68v-866q0 -172 -70 -276t-193 -187q-82 -51 -150 -115t-67 -118q0 -55 82 -84q37 -16 29 -68l-4 -33q-8 -51 -75 -43t-133 54t-65 141q0 94 109 194
q-264 -11 -432 137t-168 398z" />
    <glyph glyph-name="uogonek" unicode="&#x173;" horiz-adv-x="1202" 
d="M483 -25q-352 0 -352 398v596q0 68 68 67h63q66 0 66 -67v-551q0 -123 41 -191t153 -67q154 0 246 114t92 277v418q0 68 68 67h63q68 0 68 -67v-901q0 -52 -75 -116t-75 -136q0 -53 82 -84q39 -18 31 -68l-4 -33q-10 -53 -76 -44t-132 55t-65 133q0 129 146 239
q-25 14 -25 54v92l6 59h-4q-41 -92 -143 -168t-242 -76z" />
    <glyph glyph-name="Wcircumflex" unicode="&#x174;" horiz-adv-x="1935" 
d="M139 1446h72q61 0 76 -60l239 -1001l27 -154h4q12 74 35 154l268 1004q14 57 76 57h57q61 0 74 -57l268 -1004l33 -154h4q10 76 29 154l252 1001q14 59 76 60h69q76 0 60 -74l-347 -1315q-14 -57 -75 -57h-113q-57 0 -74 57l-237 881l-45 205h-6q-20 -113 -46 -205
l-237 -881q-16 -57 -76 -57h-113q-59 0 -75 59l-334 1313q-16 74 59 74zM778 1546q-37 0 -46 24t13 58l95 133q31 45 84 45h100q53 0 82 -45l96 -133q24 -34 14 -58t-45 -24h-45q-43 0 -71 45l-80 119h-4l-80 -119q-25 -45 -72 -45h-41z" />
    <glyph glyph-name="wcircumflex" unicode="&#x175;" horiz-adv-x="1644" 
d="M104 1036h68q61 0 76 -57l203 -670l24 -110h4q12 57 29 110l209 668q12 57 74 57h63q61 0 76 -57l209 -668l26 -110h4q10 57 27 110l203 670q12 57 74 57h67q37 0 52 -20t5 -55l-292 -904q-14 -57 -76 -57h-101q-61 0 -75 57l-199 609l-29 112h-4q-12 -59 -30 -112
l-197 -609q-14 -57 -76 -57h-102q-62 0 -76 57l-293 904q-10 35 5 55t52 20zM627 1188q-37 0 -46 24t13 58l94 133q31 45 84 45h100q53 0 82 -45l97 -133q23 -35 13 -59t-44 -23h-45q-43 0 -72 45l-80 119h-4l-80 -119q-25 -45 -71 -45h-41z" />
    <glyph glyph-name="Ycircumflex" unicode="&#x176;" horiz-adv-x="1161" 
d="M385 1546q-37 0 -46 24t13 58l94 133q31 45 84 45h101q53 0 82 -45l96 -133q23 -34 13 -58t-44 -24h-45q-43 0 -71 45l-80 119h-4l-80 -119q-25 -45 -72 -45h-41zM479 68v544l-438 754q-20 36 -6 58t53 22h82q55 0 78 -47l244 -428l88 -183h4q43 100 88 183l241 428
q25 47 78 47h82q39 0 53 -23t-6 -57l-438 -754v-544q0 -68 -68 -68h-67q-68 0 -68 68z" />
    <glyph glyph-name="ycircumflex" unicode="&#x177;" horiz-adv-x="1028" 
d="M324 1186q-37 0 -46 24t13 58l94 133q31 45 84 45h100q53 0 82 -45l97 -133q24 -35 14 -59t-45 -23h-45q-43 0 -72 45l-80 119h-4l-80 -119q-25 -45 -71 -45h-41zM160 1036q57 0 76 -53l243 -625l37 -125h4q16 70 35 123l236 625q18 55 75 55h74q37 0 52 -22t1 -56
l-456 -1140q-45 -119 -135 -184t-201 -64q-63 0 -144 33q-59 25 -30 88l16 35q23 49 76 34q57 -23 82 -22q59 0 105 44t73 112l51 118l-401 946q-14 35 0 57t51 21h80z" />
    <glyph glyph-name="Ydieresis" unicode="&#x178;" horiz-adv-x="1161" 
d="M389 1599q-68 0 -67 68v72q0 68 67 67h29q68 0 67 -67v-72q0 -68 -67 -68h-29zM731 1599q-68 0 -67 68v72q0 68 67 67h29q68 0 67 -67v-72q0 -68 -67 -68h-29zM479 68v544l-438 754q-20 36 -6 58t53 22h82q55 0 78 -47l244 -428l88 -183h4q43 100 88 183l241 428
q25 47 78 47h82q39 0 53 -23t-6 -57l-438 -754v-544q0 -68 -68 -68h-67q-68 0 -68 68z" />
    <glyph glyph-name="Zacute" unicode="&#x179;" horiz-adv-x="1204" 
d="M66 68v20q0 45 28 86l668 965q45 66 90 118l14 15v4q-39 -6 -108 -6h-588q-68 0 -68 67v41q0 68 68 68h881q68 0 67 -66v-20q0 -45 -26 -86l-670 -967q-39 -54 -90 -114l-15 -17v-4q39 4 109 4h633q68 0 67 -67v-41q0 -68 -67 -68h-926q-67 0 -67 68zM616 1546
q-35 0 -47 23t6 53l82 137q27 47 80 47h60q43 0 53 -24t-16 -58l-101 -137q-33 -41 -82 -41h-35z" />
    <glyph glyph-name="zacute" unicode="&#x17a;" horiz-adv-x="1024" 
d="M63 57v17q0 41 29 78l494 618l86 96v4q-33 -4 -101 -4h-417q-68 0 -68 68v35q0 68 68 67h718q68 0 68 -57v-16q0 -41 -29 -78l-493 -621l-88 -94v-4q33 4 100 4h459q68 0 67 -66v-36q0 -68 -67 -68h-758q-68 0 -68 57zM498 1188q-35 0 -47 22t6 54l82 137q27 47 79 47h60
q43 0 53 -24t-16 -58l-101 -137q-33 -41 -82 -41h-34z" />
    <glyph glyph-name="Zdotaccent" unicode="&#x17b;" horiz-adv-x="1204" 
d="M602 1606q-68 0 -67 67v66q0 68 67 67h43q68 0 68 -67v-66q0 -68 -68 -67h-43zM66 68v20q0 45 28 86l668 965q45 66 90 118l14 15v4q-39 -6 -108 -6h-588q-68 0 -68 67v41q0 68 68 68h881q68 0 67 -66v-20q0 -45 -26 -86l-670 -967q-39 -54 -90 -114l-15 -17v-4
q39 4 109 4h633q68 0 67 -67v-41q0 -68 -67 -68h-926q-67 0 -67 68z" />
    <glyph glyph-name="zdotaccent" unicode="&#x17c;" horiz-adv-x="1024" 
d="M485 1247q-68 0 -67 68v65q0 68 67 68h43q68 0 68 -68v-65q0 -68 -68 -68h-43zM63 57v17q0 41 29 78l494 618l86 96v4q-33 -4 -101 -4h-417q-68 0 -68 68v35q0 68 68 67h718q68 0 68 -57v-16q0 -41 -29 -78l-493 -621l-88 -94v-4q33 4 100 4h459q68 0 67 -66v-36
q0 -68 -67 -68h-758q-68 0 -68 57z" />
    <glyph glyph-name="Zcaron" unicode="&#x17d;" horiz-adv-x="1204" 
d="M66 68v20q0 45 28 86l668 965q45 66 90 118l14 15v4q-39 -6 -108 -6h-588q-68 0 -68 67v41q0 68 68 68h881q68 0 67 -66v-20q0 -45 -26 -86l-670 -967q-39 -54 -90 -114l-15 -17v-4q39 4 109 4h633q68 0 67 -67v-41q0 -68 -67 -68h-926q-67 0 -67 68zM573 1546
q-53 0 -84 43l-94 135q-23 35 -13 59t46 23h41q45 0 72 -45l80 -121h4l80 121q31 45 71 45h43q37 0 46 -24t-13 -58l-96 -135q-29 -43 -82 -43h-101z" />
    <glyph glyph-name="zcaron" unicode="&#x17e;" horiz-adv-x="1024" 
d="M63 57v17q0 41 29 78l494 618l86 96v4q-33 -4 -101 -4h-417q-68 0 -68 68v35q0 68 68 67h718q68 0 68 -57v-16q0 -41 -29 -78l-493 -621l-88 -94v-4q33 4 100 4h459q68 0 67 -66v-36q0 -68 -67 -68h-758q-68 0 -68 57zM457 1188q-53 0 -84 43l-94 135q-23 34 -14 58
t46 24h41q45 0 72 -45l80 -121h4l80 121q31 45 71 45h43q36 0 46 -24t-13 -58l-96 -135q-29 -43 -82 -43h-100z" />
    <glyph glyph-name="longs" unicode="&#x17f;" horiz-adv-x="532" 
d="M188 68v796h-65q-68 0 -68 68v26q0 68 68 68h65v49q0 92 30 165t72 112q112 104 273 104h25q68 0 67 -67v-39q0 -61 -72 -66t-116 -31q-78 -46 -80 -186v-999q0 -68 -68 -68h-63q-68 0 -68 68z" />
    <glyph glyph-name="florin" unicode="&#x192;" horiz-adv-x="770" 
d="M8 -55q140 0 201 107q27 48 33 120l47 545h-101q-68 0 -67 65v27q0 68 67 68h115l19 208q8 98 44 171t80 113q114 101 302 101q23 0 108 -6q63 -6 64 -71v-37q0 -72 -54 -66q-66 8 -104 8q-146 0 -207 -107q-27 -48 -33 -120l-20 -194h172q68 0 67 -68v-27q0 -66 -65 -65
h-189l-47 -561q-10 -121 -58 -203t-118 -118q-121 -62 -248 -62q-35 0 -79 4q-63 6 -64 71v37q0 70 66 64q33 -4 69 -4z" />
    <glyph glyph-name="Scommaaccent" unicode="&#x218;" horiz-adv-x="1099" 
d="M553 164q115 0 185 56t69 148q0 92 -72 153t-174 105q-103 44 -205 93t-174 137t-71 213q0 180 133 291t336 110q115 0 212 -34t148 -73q51 -38 23 -95l-29 -51q-31 -55 -92 -19q-142 84 -262 84t-192 -55t-73 -137q0 -150 187 -228q187 -77 329 -159q78 -44 130 -125
q51 -82 51 -191q0 -176 -124 -294t-335 -118q-139 -1 -253 47t-181 103q-47 43 -8 94l34 49q37 47 93 13q162 -117 315 -117zM518 -121h35q80 0 80 -115q0 -74 -32 -137t-79 -63h-16q-59 0 -60 41q0 10 11 49q10 39 10 84l-8 98q0 43 59 43z" />
    <glyph glyph-name="scommaaccent" unicode="&#x219;" horiz-adv-x="899" 
d="M457 139q78 0 127 36t49 96q0 61 -55 99q-54 38 -134 66t-158 61t-132 101q-55 68 -56 164q0 141 108 220t268 79t286 -80q57 -29 22 -90l-18 -31q-29 -51 -90 -22q-104 59 -196 59t-141 -34q-48 -34 -48 -93t55 -98t134 -66q79 -26 157 -60t133 -101t55 -164
q0 -133 -103 -219q-104 -86 -286 -87q-182 0 -332 113q-51 33 -14 92l21 29q35 47 94 14q129 -84 254 -84zM420 -121h35q80 0 80 -115q0 -74 -32 -137t-79 -63h-16q-59 0 -60 41q0 10 10 49t11 84l-9 98q0 43 60 43z" />
    <glyph glyph-name="uni021A" unicode="&#x21a;" horiz-adv-x="1222" 
d="M510 68v1202h-430q-68 0 -68 67v41q0 68 68 68h1061q66 0 65 -68v-41q0 -68 -65 -67h-430v-1202q0 -68 -68 -68h-68q-65 0 -65 68zM586 -121h35q80 0 79 -115q0 -74 -32 -137t-78 -63h-17q-59 0 -59 41q0 10 10 49t11 84l-9 98q0 43 60 43z" />
    <glyph glyph-name="uni021B" unicode="&#x21b;" horiz-adv-x="698" 
d="M193 373v491h-72q-66 0 -66 68v26q0 68 68 68h74v227q0 68 67 68h60q68 0 67 -68v-227h180q68 0 68 -68v-26q0 -68 -66 -68h-182v-461q0 -217 197 -233q41 -4 56 -18t15 -50v-43q0 -68 -81 -67q-166 0 -276 97q-109 98 -109 284zM356 -121h35q80 0 80 -115
q0 -74 -32 -137t-79 -63h-16q-59 0 -59 41q0 10 10 49t10 84l-8 98q0 43 59 43z" />
    <glyph glyph-name="circumflex" unicode="&#x2c6;" horiz-adv-x="1021" 
d="M315 1546q-37 0 -46 24t14 58l94 133q31 45 84 45h100q53 0 82 -45l96 -133q23 -34 14 -58t-44 -24h-45q-43 0 -72 45l-80 119h-4l-80 -119q-25 -45 -72 -45h-41z" />
    <glyph glyph-name="caron" unicode="&#x2c7;" horiz-adv-x="1021" 
d="M461 1546q-53 0 -84 43l-94 135q-23 35 -14 59t46 23h41q45 0 72 -45l80 -121h4l80 121q31 45 72 45h43q37 0 46 -24t-14 -58l-96 -135q-29 -43 -82 -43h-100z" />
    <glyph glyph-name="breve" unicode="&#x2d8;" horiz-adv-x="1021" 
d="M778 1761q0 -95 -80 -159t-185 -64t-187 64t-82 159q0 45 59 45h29q51 0 59 -47q15 -102 119 -102t121 102q8 47 59 47h29q59 0 59 -45z" />
    <glyph glyph-name="dotaccent" unicode="&#x2d9;" horiz-adv-x="1024" 
d="M489 1606q-68 0 -67 67v66q0 68 67 67h43q68 0 68 -67v-66q0 -68 -68 -67h-43z" />
    <glyph glyph-name="ring" unicode="&#x2da;" horiz-adv-x="1024" 
d="M511 1606q30 0 49 19q20 19 20 50t-20 50t-49 19q-30 0 -48 -18q-19 -20 -19 -51t18 -50t49 -19zM512 1522q-72 0 -123 42t-51 110t51 111q51 42 123 42t123 -42t51 -111q0 -68 -51 -110t-123 -42z" />
    <glyph glyph-name="ogonek" unicode="&#x2db;" horiz-adv-x="1021" 
d="M344 -229q0 81 54 147q122 148 206 123q68 -16 21 -64q-117 -96 -117 -155t82 -90q39 -16 31 -68l-5 -33q-8 -51 -65 -45q-75 10 -141 56t-66 129z" />
    <glyph glyph-name="tilde" unicode="&#x2dc;" horiz-adv-x="1021" 
d="M231 1548q-59 0 -59 75t53 130t128 55t124 -34t86 -70q37 -35 73 -35t55 27q19 26 23 66t60 40h17q59 0 59 -57q0 -91 -52 -147t-128 -56t-125 35t-86 70t-74 34q-74 0 -78 -92q-6 -41 -59 -41h-17z" />
    <glyph glyph-name="hungarumlaut" unicode="&#x2dd;" horiz-adv-x="1021" 
d="M262 1546q-39 0 -50 22t5 56l74 133q23 49 80 49h35q41 0 53 -22t-8 -58l-76 -133q-27 -47 -80 -47h-33zM580 1546q-41 0 -53 23q-11 23 10 57l77 133q27 47 80 47h54q43 0 53 -24t-17 -58l-100 -137q-33 -41 -82 -41h-22z" />
    <glyph glyph-name="uni1E9E" unicode="&#x1e9e;" horiz-adv-x="1374" 
d="M168 68v968q0 178 118 294t298 116h567q68 0 68 -64v-30q0 -47 -25 -82l-309 -445v-4l51 -2q150 -12 247 -130q97 -119 97 -281t-126 -285t-302 -123h-238q-68 0 -67 68v41q0 68 65 67h226q102 0 168 72t65 172q0 100 -64 170q-65 70 -167 69h-111q-68 0 -67 68v35
q0 41 22 78l209 307q47 71 90 125v4q-23 -6 -88 -6h-303q-96 0 -158 -66t-61 -164v-972q0 -68 -68 -68h-69q-68 0 -68 68z" />
    <glyph glyph-name="thinspace" unicode="&#x2009;" horiz-adv-x="40" 
 />
    <glyph glyph-name="endash" unicode="&#x2013;" horiz-adv-x="1341" 
d="M199 504q-66 0 -66 67v25q0 68 66 68h944q68 0 67 -68v-25q0 -68 -67 -67h-944z" />
    <glyph glyph-name="emdash" unicode="&#x2014;" horiz-adv-x="1751" 
d="M199 504q-66 0 -66 67v25q0 68 66 68h1353q68 0 68 -68v-25q0 -68 -68 -67h-1353z" />
    <glyph glyph-name="quoteleft" unicode="&#x2018;" horiz-adv-x="428" 
d="M150 1022q-37 0 -53 21q-15 22 -3 57l103 315q18 53 75 53h19q72 0 55 -73l-74 -312q-12 -61 -71 -61h-51z" />
    <glyph glyph-name="quoteright" unicode="&#x2019;" horiz-adv-x="423" 
d="M154 1022q-76 0 -56 76l72 311q12 59 74 59h49q37 0 52 -20t3 -55l-102 -316q-18 -55 -76 -55h-16z" />
    <glyph glyph-name="quotesinglbase" unicode="&#x201a;" horiz-adv-x="462" 
d="M225 215h49q37 0 53 -21q15 -22 3 -55l-103 -315q-18 -55 -75 -55h-17q-71 -1 -57 73l74 314q12 59 73 59z" />
    <glyph glyph-name="quotedblleft" unicode="&#x201c;" horiz-adv-x="729" 
d="M150 1022q-37 0 -53 21q-15 22 -3 57l103 315q18 53 75 53h19q72 0 55 -73l-72 -312q-12 -61 -73 -61h-51zM451 1022q-37 0 -53 21q-15 22 -3 57l103 315q18 53 75 53h19q72 0 55 -73l-72 -312q-14 -61 -73 -61h-51z" />
    <glyph glyph-name="quotedblright" unicode="&#x201d;" horiz-adv-x="724" 
d="M154 1022q-76 0 -56 76l72 311q12 59 74 59h51q37 0 52 -20t3 -55l-102 -316q-18 -55 -78 -55h-16zM455 1022q-74 0 -58 76l74 311q12 59 74 59h51q78 0 55 -75l-102 -316q-20 -55 -78 -55h-16z" />
    <glyph glyph-name="quotedblbase" unicode="&#x201e;" horiz-adv-x="763" 
d="M225 215h51q77 0 56 -76l-103 -315q-23 -55 -77 -55h-17q-73 -1 -57 73l74 314q12 59 73 59zM524 215h51q39 0 53 -20t3 -56l-101 -315q-23 -55 -77 -55h-19q-71 -1 -55 73l74 314q12 59 71 59z" />
    <glyph glyph-name="dagger" unicode="&#x2020;" horiz-adv-x="866" 
d="M336 -35v914h-180q-68 0 -68 65v25q0 68 68 67h180v342q0 68 67 68h56q68 0 67 -68v-342h187q68 0 67 -67v-25q0 -66 -67 -65h-187v-914q0 -68 -67 -67h-56q-67 -1 -67 67z" />
    <glyph glyph-name="daggerdbl" unicode="&#x2021;" horiz-adv-x="890" 
d="M346 -35v385h-178q-68 0 -68 68v24q0 68 68 68h178v369h-178q-68 0 -68 65v25q0 68 68 67h178v342q0 68 68 68h57q68 0 68 -68v-342h186q68 0 68 -67v-25q0 -66 -68 -65h-186v-369h186q68 0 68 -68v-24q0 -68 -68 -68h-186v-385q0 -68 -68 -67h-57q-68 -1 -68 67z" />
    <glyph glyph-name="bullet" unicode="&#x2022;" horiz-adv-x="841" 
d="M421 279q-132 0 -224 93t-93 224q0 131 92 224t225 93q132 0 224 -92t92 -225t-92 -225t-224 -92z" />
    <glyph glyph-name="ellipsis" unicode="&#x2026;" horiz-adv-x="1525" 
d="M127 68v79q0 68 68 68h73q68 0 68 -68v-79q0 -68 -68 -68h-73q-68 0 -68 68zM659 68v79q0 68 66 68h74q68 0 67 -68v-79q0 -68 -67 -68h-74q-66 0 -66 68zM1190 68v79q0 68 67 68h74q68 0 68 -68v-79q0 -68 -68 -68h-74q-67 0 -67 68z" />
    <glyph glyph-name="perthousand" unicode="&#x2030;" horiz-adv-x="2252" 
d="M999 279q0 -63 43 -107q42 -44 106 -45q64 0 108 43q44 44 44 108t-44 109t-107 45t-107 -45t-43 -108zM1876 432q-64 0 -108 -45t-44 -109t43 -108q43 -43 107 -43t109 44q45 43 45 107t-44 109t-108 45zM840 278q0 126 90 215t219 89t220 -89t91 -214t-91 -214
t-220 -89t-219 88t-90 214zM1565 278q0 126 91 215t219 89t220 -89t92 -214t-92 -214t-221 -89t-219 88t-90 214zM408 1016q63 0 107 44t44 107t-44 109t-107 45q-64 0 -108 -45t-44 -110q0 -66 44 -108t108 -42zM1286 1446h37q43 0 55 -25t-14 -57l-1012 -1323
q-33 -41 -82 -41h-37q-43 0 -55 24t15 58l1011 1325q31 39 82 39zM407 864q-128 0 -220 89q-91 89 -91 214t91 214t219 89t221 -89q92 -89 92 -214t-92 -214t-220 -89z" />
    <glyph glyph-name="guilsinglleft" unicode="&#x2039;" horiz-adv-x="657" 
d="M492 999q43 -1 54 -25t-16 -56l-268 -340l268 -338q27 -35 19 -59t-49 -23h-49q-51 0 -84 39l-265 333q-41 47 0 95l265 336q33 39 84 38h41z" />
    <glyph glyph-name="guilsinglright" unicode="&#x203a;" horiz-adv-x="657" 
d="M166 158q-43 0 -54 24t15 58l268 338l-268 340q-27 34 -17 58t50 23h49q49 0 82 -38l266 -336q41 -47 0 -95l-266 -333q-33 -39 -82 -39h-43z" />
    <glyph glyph-name="fraction" unicode="&#x2044;" horiz-adv-x="344" 
d="M-150 0h-24q-33 0 -43 23t6 57l627 1317q23 49 80 49h22q35 0 44 -22t-7 -58l-625 -1315q-25 -51 -80 -51z" />
    <glyph glyph-name="zerosuperior" unicode="&#x2070;" horiz-adv-x="804" 
d="M235 1312q0 -326 167 -325q167 0 167 326t-166 325q-168 0 -168 -326zM402 846q-322 0 -322 468t322 468t323 -468q0 -468 -323 -468z" />
    <glyph glyph-name="foursuperior" unicode="&#x2074;" horiz-adv-x="784" 
d="M199 1221h258v252l8 118h-4q-29 -55 -62 -98l-200 -268v-4zM524 866q-68 0 -67 68v151h-357q-68 0 -67 52v18q0 37 24 70l357 493q29 43 82 43h45q68 0 67 -67v-473h72q59 0 59 -64v-8q0 -63 -59 -64h-72v-151q0 -68 -67 -68h-17z" />
    <glyph glyph-name="fivesuperior" unicode="&#x2075;" horiz-adv-x="729" 
d="M668 1153q0 -125 -92 -216t-228 -91q-135 0 -256 94q-54 44 2 100q33 41 90 9q60 -61 140 -61t134 47q54 48 54 120t-54 121t-114 49t-125 -27q-59 -14 -86 -2q-45 18 -39 76l35 326q6 63 72 63h340q68 0 67 -63v-6q0 -66 -67 -66h-279l-14 -131l-10 -65l4 -3
q45 20 112 21q134 0 224 -85t90 -210z" />
    <glyph glyph-name="sixsuperior" unicode="&#x2076;" horiz-adv-x="774" 
d="M407 987q73 0 113 48t39 121q0 73 -45 122q-46 49 -116 49t-117 -35t-48 -80q1 -78 51 -152t123 -73zM406 846q-139 0 -236 113q-96 114 -96 303q0 286 177 437q97 83 234 83q66 0 125 -23q66 -22 31 -92q-15 -31 -29 -41t-50 1t-77 11q-96 0 -157 -72t-82 -184h4
q68 64 184 64t197 -82q82 -82 82 -214t-84 -218t-223 -86z" />
    <glyph glyph-name="sevensuperior" unicode="&#x2077;" horiz-adv-x="688" 
d="M160 866q-41 0 -55 23q-13 23 8 57l313 582l57 96v4q-39 -4 -90 -4h-282q-68 0 -68 66v8q0 63 68 63h483q68 0 68 -51v-12q0 -41 -23 -80l-377 -705q-25 -47 -80 -47h-22z" />
    <glyph glyph-name="eightsuperior" unicode="&#x2078;" horiz-adv-x="790" 
d="M223 1140q0 -80 52 -120q51 -40 117 -41q66 0 117 38q50 38 50 94t-49 90t-111 61q-61 26 -80 36q-96 -78 -96 -158zM547 1530q0 55 -44 87q-45 32 -103 32t-98 -30t-40 -91t97 -115q62 -31 112 -51q76 76 76 168zM397 846q-131 0 -228 74t-97 204t145 234
q-104 76 -104 186t85 174q84 64 202 64t205 -65t87 -175t-110 -233q131 -76 131 -197q-1 -122 -93 -194t-223 -72z" />
    <glyph glyph-name="ninesuperior" unicode="&#x2079;" horiz-adv-x="774" 
d="M541 1415q-1 78 -51 152q-50 73 -123 73t-113 -48t-39 -120q0 -72 45 -122q46 -50 116 -50t118 35q47 35 47 80zM340 1182q-116 0 -197 82q-82 82 -82 214t84 218t223 86q140 0 236 -114t96 -302q0 -287 -177 -437q-97 -83 -234 -83q-66 -1 -125 22q-63 21 -31 93
q15 31 29 41t50 -2q36 -10 77 -11q96 0 157 73t82 183h-4q-68 -63 -184 -63z" />
    <glyph glyph-name="zeroinferior" unicode="&#x2080;" horiz-adv-x="804" 
d="M402 -201q167 0 167 326t-167 326t-167 -326t167 -326zM402 -342q-322 0 -322 468t322 468t323 -468q0 -468 -323 -468z" />
    <glyph glyph-name="oneinferior" unicode="&#x2081;" horiz-adv-x="620" 
d="M129 -322q-68 0 -68 64v8q0 63 60 64h131v510l4 53h-4q-6 -14 -35 -41l-43 -43q-35 -27 -65 4l-17 18q-41 45 6 93l133 131q35 35 84 34h23q68 0 68 -67v-692h120q68 0 68 -64v-8q0 -63 -68 -64h-397z" />
    <glyph glyph-name="twoinferior" unicode="&#x2082;" horiz-adv-x="731" 
d="M127 -322q-68 0 -68 74q0 96 45 171q44 75 108 121t128 86q154 97 154 189q0 57 -42 95t-106 39q-64 0 -127 -54q-53 -39 -92 -2q-64 48 -12 99q109 98 237 98t213 -75q84 -75 84 -193q0 -82 -42 -148t-103 -108q-60 -42 -122 -78q-148 -89 -155 -178h369q68 0 68 -64v-8
q0 -63 -68 -64h-469z" />
    <glyph glyph-name="threeinferior" unicode="&#x2083;" horiz-adv-x="731" 
d="M330 -342q-146 0 -248 92q-51 37 -2 98q33 43 90 13q72 -61 151 -61t129 44q50 45 50 111q0 65 -52 105t-122 40h-27q-51 0 -66 39q-14 39 19 82l145 168l52 49v4q-39 -6 -74 -6h-223q-68 0 -68 66v8q0 63 68 63h421q68 0 68 -49v-10q0 -37 -33 -76l-190 -221
q100 -16 169 -82q69 -65 69 -183t-91 -206q-89 -88 -235 -88z" />
    <glyph glyph-name="fourinferior" unicode="&#x2084;" horiz-adv-x="784" 
d="M199 33h258v252l8 118h-4q-29 -55 -62 -98l-200 -268v-4zM524 -322q-68 0 -67 68v152h-357q-68 0 -67 51v18q0 37 24 70l357 493q29 43 82 43h45q68 0 67 -67v-473h72q59 0 59 -64v-8q0 -63 -59 -63h-72v-152q0 -68 -67 -68h-17z" />
    <glyph glyph-name="fiveinferior" unicode="&#x2085;" horiz-adv-x="729" 
d="M354 260q134 0 224 -85t90 -210t-92 -216t-228 -91q-135 0 -256 94q-49 41 2 101q33 41 90 8q60 -61 140 -61t134 47q54 48 54 120t-54 121t-114 49t-125 -26q-59 -14 -86 -2q-45 18 -39 75l35 326q6 63 72 63h340q68 0 67 -63v-6q0 -66 -67 -66h-279l-14 -131l-10 -65
l4 -2q45 20 112 20z" />
    <glyph glyph-name="sixinferior" unicode="&#x2086;" horiz-adv-x="774" 
d="M407 -201q73 0 113 48t39 121q0 73 -45 122q-46 49 -116 49t-117 -35t-48 -79q1 -78 51 -152t123 -74zM406 -342q-139 0 -236 114q-96 114 -96 302q0 286 177 437q97 83 234 83q66 0 125 -23q66 -22 31 -92q-15 -31 -29 -41t-50 1t-77 12q-96 0 -157 -73t-82 -183h4
q68 63 184 63t197 -82q82 -82 82 -214t-84 -218t-223 -86z" />
    <glyph glyph-name="seveninferior" unicode="&#x2087;" horiz-adv-x="688" 
d="M160 -322q-41 0 -55 23q-13 23 8 57l313 582l57 96v4q-39 -4 -90 -4h-282q-68 0 -68 66v8q0 63 68 63h483q68 0 68 -51v-12q0 -41 -23 -80l-377 -704q-25 -47 -80 -48h-22z" />
    <glyph glyph-name="eightinferior" unicode="&#x2088;" horiz-adv-x="790" 
d="M392 -207q66 0 117 38q50 38 50 94t-49 90t-111 61q-61 26 -80 37q-96 -78 -96 -158t52 -121q51 -41 117 -41zM547 344q0 55 -44 87q-45 32 -103 32t-98 -30t-40 -91t97 -115q62 -31 112 -51q76 76 76 168zM397 -340q-131 0 -228 74t-97 205t145 233q-104 76 -104 186
t85 174q84 64 202 64t205 -65t87 -175t-110 -233q131 -76 131 -197q-1 -122 -93 -194t-223 -72z" />
    <glyph glyph-name="nineinferior" unicode="&#x2089;" horiz-adv-x="774" 
d="M376 113q70 0 118 34q47 35 47 80q-1 78 -51 152t-123 74q-73 -1 -113 -49t-39 -120q0 -72 45 -122q46 -49 116 -49zM340 -6q-116 0 -197 82q-82 82 -82 214t84 218t223 86q140 0 236 -114t96 -302q0 -286 -177 -437q-97 -83 -234 -83q-66 0 -125 23q-62 21 -31 92
q15 31 29 41t50 -1t77 -12q96 0 157 73t82 183h-4q-68 -63 -184 -63z" />
    <glyph glyph-name="Euro" unicode="&#x20ac;" horiz-adv-x="1226" 
d="M143 528q-61 0 -61 64t61 65h52q-10 66 0 148h-50q-63 -1 -63 65t63 66h72q63 238 253 386t441 148q55 0 138 -10q72 -12 51 -82l-15 -55q-13 -61 -75 -51t-103 10q-170 0 -296 -94t-177 -252h500q74 0 62 -66t-76 -65h-517q-10 -72 0 -148h478q78 0 61 -67
q-10 -61 -74 -62h-430q47 -164 176 -262t299 -98q73 0 131 11t70 -50l12 -55q14 -68 -51 -80q-88 -18 -164 -19q-260 0 -448 153t-248 400h-72z" />
    <glyph glyph-name="trademark" unicode="&#x2122;" horiz-adv-x="1976" 
d="M461 545q-68 0 -68 67v697h-243q-68 0 -68 63v10q0 63 68 64h643q68 0 67 -64v-10q0 -63 -67 -63h-244v-697q0 -68 -68 -67h-20zM1083 1446q57 0 80 -51l189 -420l28 -86h4q12 49 29 86l189 420q23 51 79 51h23q63 0 68 -64l61 -768q4 -70 -66 -69h-20q-61 0 -68 63
l-37 475l3 62h-5l-174 -381q-20 -53 -77 -53h-13q-57 0 -78 53l-174 381h-4l2 -62l-39 -475q-4 -63 -67 -63h-21q-69 -1 -65 69l63 768q4 63 68 64h22z" />
    <glyph glyph-name="minus" unicode="&#x2212;" horiz-adv-x="1255" 
d="M166 504q-68 0 -68 67v25q0 68 68 68h924q68 0 67 -68v-25q0 -68 -67 -67h-924z" />
    <glyph glyph-name="infinity" unicode="&#x221e;" horiz-adv-x="980" 
d="M492 342q-154 0 -264 110t-110 264t110 262t264 108t262 -108t108 -262t-108 -264t-262 -110z" />
    <glyph glyph-name="approxequal" unicode="&#x2248;" horiz-adv-x="1255" 
d="M834 397q74 0 167 66q57 41 93 -10q49 -67 -2 -105q-125 -106 -265 -106q-102 0 -220 72q-119 72 -193 71q-74 0 -164 -68q-55 -40 -92 11l-8 12q-39 55 10 94q132 106 248 106t234 -71q118 -72 192 -72zM834 784q74 0 167 66q57 41 93 -10l8 -13q37 -57 -10 -92
q-125 -106 -265 -106q-102 -1 -220 71q-117 72 -191 72t-166 -70q-57 -38 -92 13l-8 12q-39 55 10 94q132 107 248 107t234 -72t192 -72z" />
    <glyph glyph-name="notequal" unicode="&#x2260;" horiz-adv-x="1255" 
d="M207 309q-68 0 -68 68v24q0 68 68 68h266l162 227h-428q-68 0 -68 68v24q0 68 68 68h536l129 178q39 57 91 21q51 -37 24 -76l-90 -123h154q66 0 65 -68v-24q0 -68 -65 -68h-260l-164 -227h424q66 0 65 -68v-24q0 -68 -65 -68h-531l-125 -174q-37 -55 -90 -18
q-57 33 -14 88l76 104h-160z" />
    <glyph glyph-name="lessequal" unicode="&#x2264;" horiz-adv-x="1255" 
d="M193 -195h817q68 0 67 -67v-25q0 -68 -67 -67h-817q-68 0 -68 67v25q0 67 68 67zM123 571v23q0 57 51 80l825 366q33 16 56 2t22 -51v-41q0 -53 -53 -78l-678 -286v-4l678 -289q53 -20 53 -78v-39q-1 -39 -23 -53t-55 2l-825 369q-51 20 -51 77z" />
    <glyph glyph-name="greaterequal" unicode="&#x2265;" horiz-adv-x="1255" 
d="M244 -195h819q66 0 65 -67v-25q0 -68 -65 -67h-819q-68 0 -68 67v25q0 67 68 67zM178 176v39q0 57 51 78l680 289v4l-680 286q-51 25 -51 78v41q0 39 22 52t56 -1l825 -368q51 -25 52 -80v-23q0 -57 -52 -77l-825 -369q-34 -14 -56 -1t-22 52z" />
    <glyph glyph-name="commaaccent" unicode="&#xf6c3;" horiz-adv-x="686" 
d="M326 -121h34q80 0 80 -115q0 -74 -32 -137t-78 -63h-17q-59 0 -59 41q0 10 10 49t10 84l-8 98q0 43 60 43z" />
    <glyph glyph-name="apple" unicode="&#xf8ff;" horiz-adv-x="2314" 
d="M897 186h162v418h422v141h-422v338h309q29 0 39 -12t10 -41v-67h150v151q0 57 -25 83t-86 26h-678v-140h119v-897zM496 131v248l-203 123v461l203 118v252l440 234l225 -121l219 121l439 -234v-252l204 -118v-461l-204 -123v-248l-439 -233l-219 118l-225 -118zM426 61
l487 -258l248 136l242 -136l487 258v285l234 131v510l-234 135v279l-487 258l-242 -131l-248 131l-487 -258v-279l-233 -135v-510l233 -131v-285zM344 -10v311l-258 148v569l258 145v310l543 290l274 -145l271 145l542 -290v-310l254 -145v-569l-254 -148v-311l-542 -289
l-271 145l-274 -145z" />
    <glyph glyph-name="zero.tnum" 
d="M590 162q303 0 303 561t-303 561t-303 -561t303 -561zM590 -25q-140 -1 -242 57t-160 162q-112 204 -110 531q0 536 270 688q102 57 242 57q512 0 512 -748t-512 -747z" />
    <glyph glyph-name="one.tnum" 
d="M199 68v41q0 68 67 67h252v934l2 88h-4q-18 -33 -63 -78l-93 -90q-51 -47 -94 2l-28 29q-49 49 0 96l262 256q35 33 82 33h65q68 0 68 -68v-1202h250q68 0 67 -67v-41q0 -68 -67 -68h-699q-67 0 -67 68z" />
    <glyph glyph-name="two.tnum" 
d="M113 68v43q0 121 52 224t131 171t171 136t171 121q79 54 131 127q52 72 52 164t-72 159q-73 67 -188 67q-152 0 -256 -133q-49 -53 -96 -14l-37 28q-53 41 -18 92q59 84 163 151t258 66q201 0 329 -114t128 -301q0 -97 -38 -181t-99 -144t-135 -116t-149 -104
q-75 -49 -136 -98q-137 -110 -141 -236h653q68 0 68 -67v-41q0 -68 -68 -68h-803q-71 0 -71 68z" />
    <glyph glyph-name="three.tnum" 
d="M524 168q140 0 226 75t86 195t-96 191q-96 70 -240 69h-45q-53 0 -79 54t13 96l279 330l90 94v4q-43 -6 -123 -6h-422q-68 0 -68 67v41q0 68 68 68h729q68 0 68 -64v-18q0 -49 -31 -82l-363 -418q168 -18 296 -124t128 -300q0 -192 -137 -328t-359 -136t-417 153
q-49 39 -10 94l33 47q39 49 94 13q140 -115 280 -115z" />
    <glyph glyph-name="four.tnum" 
d="M248 559h475v526l10 144h-4q-35 -68 -72 -119l-409 -547v-4zM90 387q-68 0 -67 68v12q0 45 26 84l615 852q29 43 79 43h113q68 0 68 -68v-819h129q68 0 67 -67v-37q0 -68 -57 -68h-139v-319q0 -68 -68 -68h-65q-68 0 -68 68v319h-633z" />
    <glyph glyph-name="five.tnum" 
d="M526 168q140 0 233 82t93 211t-94 213t-236 84q-96 0 -198 -51q-53 -20 -109 2q-55 23 -49 79l61 594q6 63 70 64h598q68 0 68 -68v-41q0 -68 -68 -67h-485l-35 -305l-10 -76h4q80 45 186 45q223 0 363 -136t141 -340q-1 -204 -147 -343t-372 -139t-390 157q-51 41 -7 92
l33 45q39 49 92 9q118 -111 258 -111z" />
    <glyph glyph-name="six.tnum" 
d="M305 553q0 -135 96 -263q97 -128 225 -128t200 83t71 217q0 134 -81 218t-212 84t-215 -62t-84 -149zM754 1284q-188 0 -300 -144t-139 -349h4q47 63 135 104t199 41q197 0 322 -133t125 -340t-131 -347t-350 -140t-372 188t-153 491t157 548q77 120 206 194
q129 73 269 73t237 -34q63 -23 38 -86l-18 -52q-20 -57 -82 -41q-76 27 -147 27z" />
    <glyph glyph-name="seven.tnum" 
d="M762 1270h-580q-68 0 -67 67v41q0 68 67 68h832q68 0 67 -64v-32q0 -47 -18 -82l-610 -1219q-23 -49 -78 -49h-68q-39 0 -52 22t3 58l524 1059l80 133v4q-29 -6 -100 -6z" />
    <glyph glyph-name="eight.tnum" 
d="M289 428q0 -121 89 -198q89 -76 208 -76t206 70t87 177q0 108 -125 181q-53 30 -154 74q-101 43 -137 59q-174 -131 -174 -287zM854 1067q0 107 -72 167t-188 60t-184 -58t-68 -140t46 -128t98 -74t80 -40q26 -12 80 -35t81 -35q127 137 127 283zM86 408q0 231 231 393
q-174 115 -174 281t117 278t328 110q211 0 338 -104t127 -286t-172 -369q205 -123 205 -305t-139 -306q-138 -125 -356 -125t-362 123q-143 124 -143 310z" />
    <glyph glyph-name="nine.tnum" 
d="M571 682q131 0 215 63t84 148q0 135 -96 263t-224 128t-200 -83t-72 -217t82 -218q81 -84 211 -84zM520 512q-196 0 -320 134t-124 342t131 345t334 137q237 0 389 -187t152 -489t-157 -550q-77 -121 -205 -195t-272 -74t-235 37q-64 18 -39 84l19 54q20 55 81 38
q96 -27 148 -26q188 0 300 144t138 349h-4q-47 -63 -138 -103t-198 -40z" />
    <glyph glyph-name="hyphen.case" horiz-adv-x="860" 
d="M199 625q-68 0 -68 67v41q0 68 68 68h463q68 0 67 -68v-41q0 -68 -67 -67h-463z" />
    <glyph glyph-name="parenleft.case" horiz-adv-x="563" 
d="M100 758q0 403 211 764q25 45 80 45h31q39 0 52 -22t-5 -56q-188 -359 -188 -759t192 -783q16 -35 4 -58t-51 -22h-35q-53 0 -76 41q-215 387 -215 850z" />
    <glyph glyph-name="parenright.case" horiz-adv-x="563" 
d="M135 1567h35q55 0 80 -45q209 -358 209 -764q0 -465 -209 -846q-25 -45 -82 -45h-31q-39 -1 -52 23t5 61q188 377 188 781t-186 757q-18 35 -7 57t50 21z" />
    <glyph glyph-name="bracketleft.case" horiz-adv-x="583" 
d="M164 -66v1567q0 66 67 66h205q66 0 66 -66v-16q0 -68 -64 -68h-100v-1399h98q66 0 66 -67v-17q0 -68 -66 -67h-205q-67 -1 -67 67z" />
    <glyph glyph-name="bracketright.case" horiz-adv-x="583" 
d="M82 -49q0 68 65 67h99v1399h-99q-66 0 -65 68v16q0 66 65 66h205q68 0 68 -66v-1567q0 -68 -68 -67h-205q-66 0 -65 67v17z" />
    <glyph glyph-name="braceleft.case" horiz-adv-x="665" 
d="M229 219v197q0 156 -118 207q-55 29 -56 75v60q0 45 56 73q119 57 118 211v170q0 109 34 187q34 77 85 111q92 60 172 61h23q68 0 67 -68v-24q0 -68 -67 -68q-139 0 -140 -215v-205q0 -113 -57 -177t-108 -83v-4q102 -34 147 -153q18 -48 18 -107v-231q0 -137 49 -176
q49 -38 91 -40q68 0 67 -67v-25q0 -68 -67 -67h-23q-82 0 -172 60q-51 33 -85 111t-34 187z" />
    <glyph glyph-name="braceright.case" horiz-adv-x="667" 
d="M55 -47q0 68 68 67q39 0 74 26q65 49 65 190v231q0 149 107 229q29 21 59 31v4q-21 7 -54 30q-110 78 -112 230v205q0 215 -139 215q-68 0 -68 68v24q0 68 68 68h22q67 0 123 -30q56 -29 88 -67t57 -106q24 -68 23 -156v-170q0 -154 119 -211q55 -29 55 -73v-60
q0 -47 -55 -75q-119 -51 -119 -207v-197q0 -88 -24 -156q-41 -117 -131 -165q-69 -37 -136 -37h-22q-68 0 -68 67v25z" />
    <glyph glyph-name="at.case" horiz-adv-x="1548" 
d="M963 965q-106 0 -175 -71t-69 -172q1 -101 69 -171t170 -70h205v484h-200zM74 728q0 308 218 528t531 221q275 0 403 -118t128 -298v-580h80q68 0 67 -67v-15q0 -68 -67 -67h-492q-186 0 -305 114t-119 272q0 160 118 272t306 112h221q-4 92 -91 151t-241 60
q-235 0 -397 -175q-162 -176 -162 -412t144 -403t372 -190q66 -6 66 -70v-26q0 -72 -70 -66q-311 23 -511 236q-199 213 -199 521z" />
    <glyph glyph-name="guillemotleft.case" horiz-adv-x="1058" 
d="M436 1122h43q43 0 55 -24q11 -25 -16 -58l-270 -340l270 -338q27 -34 17 -58t-50 -23h-49q-49 -1 -82 38l-266 334q-41 47 0 95l266 335q33 39 82 39zM850 1122h43q43 0 54 -24t-15 -58l-270 -340l270 -338q26 -34 16 -58t-49 -23h-49q-49 0 -82 38l-266 334q-41 47 0 95
l266 335q33 39 82 39z" />
    <glyph glyph-name="guillemotright.case" horiz-adv-x="1058" 
d="M166 281q-43 -1 -54 23t15 58l270 338l-270 340q-27 33 -17 58t50 24h49q49 0 82 -39l266 -335q41 -47 0 -95l-266 -334q-33 -39 -82 -38h-43zM623 1122q49 0 82 -39l266 -335q41 -47 0 -95l-266 -334q-33 -39 -82 -38h-43q-43 0 -55 23q-11 23 16 58l270 338l-270 340
q-27 33 -18 58t50 24h50z" />
    <glyph glyph-name="guilsinglleft.case" horiz-adv-x="645" 
d="M436 1122h43q43 0 55 -24q11 -25 -16 -58l-270 -340l270 -338q27 -34 17 -58t-50 -23h-49q-49 -1 -82 38l-266 334q-41 47 0 95l266 335q33 39 82 39z" />
    <glyph glyph-name="guilsinglright.case" horiz-adv-x="645" 
d="M166 281q-43 -1 -54 23t15 58l270 338l-270 340q-27 33 -17 58t50 24h49q49 0 82 -39l266 -335q41 -47 0 -95l-266 -334q-33 -39 -82 -38h-43z" />
    <glyph glyph-name="endash.case" horiz-adv-x="1337" 
d="M197 627q-68 0 -68 67v25q0 68 68 67h944q68 0 67 -67v-25q0 -68 -67 -67h-944z" />
    <glyph glyph-name="emdash.case" horiz-adv-x="1746" 
d="M197 627q-68 0 -68 67v25q0 68 68 67h1353q68 0 68 -67v-25q0 -68 -68 -67h-1353z" />
    <glyph glyph-name="periodcentered.case" horiz-adv-x="466" 
d="M199 602q-68 0 -68 68v75q0 68 68 68h67q68 0 68 -68v-75q0 -68 -68 -68h-67z" />
    <glyph glyph-name="questiondown.case" horiz-adv-x="858" 
d="M616 1378v-65q0 -68 -67 -68h-72q-68 0 -67 68v65q0 68 67 68h72q67 0 67 -68zM543 1049q68 0 67 -68v-41q0 -147 -123 -260q-51 -47 -102 -93q-123 -111 -123 -227q0 -86 67 -144t163 -58t184 51q63 33 96 -19l27 -36q39 -57 -13 -93q-139 -90 -311 -90q-172 1 -296 105
t-124 270q0 90 36 165t87 124t104 95q127 112 134 224l2 43q8 51 65 52h60z" />
    <glyph glyph-name="exclamdown.case" horiz-adv-x="530" 
d="M365 1378v-65q0 -68 -68 -68h-70q-68 0 -67 68v65q0 68 67 68h70q68 0 68 -68zM287 1049q68 0 67 -68l11 -913q0 -68 -66 -68h-70q-68 0 -67 68l10 913q4 68 70 68h45z" />
    <glyph glyph-name="bullet.case" horiz-adv-x="837" 
d="M421 406q-132 0 -224 93t-93 224q0 131 92 224t225 93q132 0 224 -92t92 -225t-92 -225t-224 -92z" />
    <glyph glyph-name="zero.p_osf" horiz-adv-x="1241" 
d="M330 559q0 -170 74 -291t216 -121q144 0 219 121t75 290t-75 291t-218 122t-217 -121t-74 -291zM622 1143q240 0 366 -173t126 -415q0 -333 -215 -494q-115 -86 -258 -86q-268 0 -390 177t-122 411t127 407t366 173z" />
    <glyph glyph-name="one.p_osf" horiz-adv-x="958" 
d="M123 68v36q0 66 67 66h244v627l2 121h-4q-33 -31 -80 -60l-129 -78q-55 -31 -92 23l-18 26q-39 53 22 93l279 174q37 23 82 22h65q66 0 66 -67v-881h215q68 0 67 -66v-36q0 -68 -67 -68h-652q-67 0 -67 68z" />
    <glyph glyph-name="two.p_osf" horiz-adv-x="1116" 
d="M123 68v16q0 51 45 82q295 197 439 337q145 141 145 253t-68 162t-168 49q-133 0 -258 -109q-53 -41 -94 8l-23 29q-45 51 4 94q182 154 381 154q199 1 314 -99q114 -100 114 -260t-130 -304t-402 -312v-4q43 6 123 6h395q68 0 68 -66v-36q0 -68 -68 -68h-750
q-67 0 -67 68z" />
    <glyph glyph-name="three.p_osf" horiz-adv-x="1060" 
d="M450 -90q136 0 222 70t86 188t-100 184t-234 66h-51q-55 0 -78 53q-20 55 12 94l262 295q36 45 90 90v2q-43 -6 -122 -6h-355q-68 0 -67 68v37q0 68 67 67h676q68 0 68 -57v-12q0 -49 -31 -82l-365 -400q157 -12 285 -99q66 -44 106 -121t40 -173q1 -188 -137 -312
t-356 -124t-388 141q-51 37 -10 94l24 31q39 51 92 12q128 -106 264 -106z" />
    <glyph glyph-name="four.p_osf" horiz-adv-x="1202" 
d="M725 240v524l8 145h-4q-33 -76 -72 -129l-383 -540h451zM53 133v23q0 41 25 75l581 844q27 43 80 43h117q68 0 68 -67v-811h139q68 0 67 -68v-37q0 -68 -55 -67h-151v-238q0 -68 -68 -68h-63q-68 0 -68 68v238h-606q-66 -1 -66 65z" />
    <glyph glyph-name="five.p_osf" horiz-adv-x="1079" 
d="M490 473q-114 0 -220 -45q-46 -15 -104 2q-53 20 -47 80l61 545q6 63 70 63h571q68 0 68 -67v-37q0 -68 -68 -68h-465l-32 -278l-13 -72h4q82 39 193 39q211 0 347 -117q136 -118 136 -318t-143 -325q-144 -125 -362 -125t-382 141q-53 42 -8 95l25 30q35 47 90 9
q121 -101 255 -101t229 73t96 202t-93 201t-208 73z" />
    <glyph glyph-name="six.p_osf" horiz-adv-x="1208" 
d="M324 512q0 -127 93 -246t223 -119t200 79t70 205t-80 203q-79 77 -210 77q-132 1 -214 -59t-82 -140zM1110 432q0 -195 -130 -326t-347 -131t-368 172q-150 172 -150 455t152 521q75 116 202 187q127 70 271 70t233 -32q63 -18 37 -86l-15 -39q-23 -51 -84 -39
q-78 25 -145 24q-190 0 -302 -140t-136 -335h4q45 66 137 104t201 37q192 0 316 -124t124 -318z" />
    <glyph glyph-name="seven.p_osf" horiz-adv-x="1058" 
d="M686 948h-551q-66 0 -65 68v35q0 68 65 67h807q68 0 68 -63v-27q0 -41 -21 -80l-577 -1136q-27 -49 -80 -50h-66q-41 0 -54 22t5 58l498 983q34 74 63 109l8 14v4q-39 -4 -100 -4z" />
    <glyph glyph-name="eight.p_osf" horiz-adv-x="1210" 
d="M311 403q0 -113 87 -185t205 -71q118 0 202 65t84 160t-83 148q-83 52 -185 93q-101 41 -132 55q-178 -124 -178 -265zM864 1006q0 94 -70 149q-71 55 -184 55q-112 0 -178 -54t-66 -136t71 -135q70 -52 129 -76t105 -43t66 -27q127 141 127 267zM113 400q0 190 235 350
q-174 109 -174 265q0 157 115 261t317 104t327 -99q124 -99 124 -265q0 -67 -24 -131q-24 -63 -47 -96l-40 -55t-27 -34l-22 -24l-10 -10q205 -111 205 -283t-136 -290t-351 -118q-214 0 -353 117q-139 118 -139 308z" />
    <glyph glyph-name="nine.p_osf" horiz-adv-x="1202" 
d="M580 408q131 0 214 59t83 139q1 127 -93 246t-224 119t-200 -79t-70 -205q0 -127 80 -203q79 -76 210 -76zM434 -90q190 0 302 140t136 335h-4q-47 -65 -139 -103t-199 -38q-192 0 -316 125t-124 319t130 324q130 131 347 131t368 -172t150 -451q0 -234 -104 -441
t-300 -294q-108 -47 -229 -47t-225 33q-61 20 -37 86l15 39q23 55 65 45q4 1 48 -15t116 -16z" />
    <glyph glyph-name="zero.t_osf" 
d="M297 559q0 -170 74 -291t217 -121t218 121t75 290t-75 291t-218 122t-217 -121t-74 -291zM96 557q0 240 127 413t366 173t365 -173t127 -415q0 -333 -215 -494q-115 -86 -258 -86q-373 0 -482 368q-30 101 -30 214z" />
    <glyph glyph-name="one.t_osf" 
d="M227 68v36q0 66 68 66h244v627l2 121h-4q-33 -31 -80 -60l-129 -78q-55 -31 -92 23l-19 26q-39 53 23 93l278 174q37 23 82 22h66q66 0 65 -67v-881h215q68 0 68 -66v-36q0 -68 -68 -68h-651q-68 0 -68 68z" />
    <glyph glyph-name="two.t_osf" 
d="M150 68v16q0 51 45 82q295 197 439 337t144 265q0 100 -67 150q-68 49 -168 49q-133 0 -258 -109q-53 -41 -95 8l-22 29q-45 51 4 94q182 154 380 154q198 1 314 -99q115 -100 115 -260t-130 -304t-402 -312v-4q43 6 122 6h396q68 0 67 -66v-36q0 -68 -67 -68h-750
q-67 0 -67 68z" />
    <glyph glyph-name="three.t_osf" 
d="M505 -90q136 0 222 70t86 188t-99 184t-235 66h-51q-55 0 -78 53q-20 55 12 94l263 295q43 54 90 90v2q-43 -6 -123 -6h-354q-68 0 -68 68v37q0 68 68 67h675q68 0 68 -57v-12q0 -49 -31 -82l-364 -400q156 -12 284 -99q66 -44 106 -121t40 -173q0 -188 -137 -312
t-355 -124t-389 141q-49 37 -10 94l25 31q39 51 92 12q127 -106 263 -106z" />
    <glyph glyph-name="four.t_osf" 
d="M713 240v524l8 145h-4q-33 -76 -72 -129l-383 -540h451zM41 133v23q0 41 25 75l581 844q27 43 80 43h117q68 0 67 -67v-811h140q68 0 67 -68v-37q0 -68 -55 -67h-152v-238q0 -68 -67 -68h-64q-68 0 -67 68v238h-607q-65 -1 -65 65z" />
    <glyph glyph-name="five.t_osf" 
d="M538 473q-114 0 -221 -45q-46 -15 -104 2q-53 20 -47 80l61 545q6 63 70 63h571q68 0 68 -67v-37q0 -68 -68 -68h-465l-32 -278l-13 -72h4q82 39 193 39q211 0 347 -117q136 -118 136 -318t-143 -325t-361 -125t-382 141q-54 42 -9 95l25 30q35 47 90 9
q121 -101 255 -101t229 73t96 202q0 129 -94 201q-92 72 -206 73z" />
    <glyph glyph-name="six.t_osf" 
d="M309 512q0 -127 93 -246q94 -119 224 -119t200 79t69 205q0 126 -79 203t-210 77q-131 1 -214 -59t-83 -140zM1096 432q0 -195 -130 -326t-347 -131t-368 172t-151 456t153 520q75 116 202 187q127 70 271 70t232 -32q63 -18 37 -86l-14 -39q-23 -51 -84 -39
q-78 25 -145 24q-190 0 -302 -140t-137 -335h4q45 66 137 104t201 37q193 0 317 -124t124 -318z" />
    <glyph glyph-name="seven.t_osf" 
d="M741 948h-551q-66 0 -65 68v35q0 68 65 67h807q68 0 68 -63v-27q0 -41 -21 -80l-577 -1136q-27 -49 -80 -50h-65q-40 0 -54 22t4 58l498 983q34 75 72 123v4q-39 -4 -101 -4z" />
    <glyph glyph-name="eight.t_osf" 
d="M295 403q0 -113 87 -185t205 -71q117 0 201 65t84 161t-89 150q-76 49 -178 90q-101 41 -132 55q-178 -124 -178 -265zM848 1006q0 94 -71 149t-183 55t-178 -54t-66 -136t73 -136q73 -55 129 -77q57 -22 103 -41t66 -27q127 141 127 267zM589 -25q-213 0 -353 117
q-140 118 -140 308t236 350q-174 109 -174 265t114 261q115 104 318 104q202 0 326 -99t124 -255t-110 -292q-16 -22 -28 -34l-32 -34q205 -111 205 -283t-136 -290t-350 -118z" />
    <glyph glyph-name="nine.t_osf" 
d="M566 408q132 0 214 59t82 139q0 127 -93 246t-223 119t-200 -79t-70 -205t79 -203q80 -76 211 -76zM420 -90q190 0 302 140t136 335h-4q-47 -65 -139 -103t-199 -38q-192 0 -316 125t-124 319t130 324q130 131 347 131t368 -172t150 -451q0 -234 -104 -441t-300 -294
q-108 -47 -229 -47t-225 33q-61 20 -37 86l14 39q23 55 66 45q4 1 48 -15t116 -16z" />
    <glyph glyph-name="dollar.osf" horiz-adv-x="1032" 
d="M733 309q0 67 -63 113q-64 46 -154 81q-90 34 -180 75t-154 116q-63 76 -63 178q0 136 95 224t245 106v113q0 68 65 67h17q63 0 63 -59v-119q145 -14 258 -88q49 -35 21 -92l-23 -41q-27 -55 -92 -22q-104 69 -212 69q-230 -1 -230 -162q0 -59 63 -103t153 -78t181 -74
q90 -40 154 -114q63 -75 63 -195t-96 -213t-254 -109v-123q0 -68 -64 -68h-16q-66 0 -66 57v132q-182 20 -327 149q-47 39 -11 94l29 39q39 53 94 10q139 -117 285 -116q96 0 158 43q61 43 61 110z" />
    <glyph glyph-name="cent.osf" horiz-adv-x="1112" 
d="M520 12v103q-192 31 -312 167t-120 328t120 330t312 168v106q0 68 68 68h12q68 0 68 -53v-115q164 -14 299 -117q55 -41 14 -94l-25 -35q-37 -51 -90 -14q-104 84 -244 84t-236 -92q-97 -92 -97 -234t97 -234q98 -93 236 -93t244 86q55 37 90 -15l25 -37q35 -55 -14 -92
q-135 -106 -299 -118v-97q0 -68 -68 -67h-12q-68 -1 -68 67z" />
    <glyph glyph-name="sterling.osf" horiz-adv-x="1204" 
d="M115 68v36q0 66 63 66h62v324h-39q-57 0 -58 63v12q0 63 58 64h39v180q0 170 131 283t327 112q158 0 295 -78q61 -29 23 -92l-25 -37q-33 -49 -92 -24q-96 53 -206 53q-109 0 -181 -64t-72 -159v-174h377q68 0 68 -64v-12q0 -63 -68 -63h-377v-324h598q68 0 68 -66v-36
q0 -68 -68 -68h-856q-67 0 -67 68z" />
    <glyph glyph-name="yen.osf" horiz-adv-x="1216" 
d="M236 289q-68 0 -68 57v12q0 59 68 60h270v45l-70 117h-200q-68 0 -68 59v12q0 59 68 60h124l-239 395q-20 32 -6 56t53 24h82q53 0 78 -47l188 -330l88 -184h4q45 102 88 184l189 330q27 47 80 47h82q41 0 53 -24t-8 -56l-238 -395h129q68 0 68 -60v-12q0 -59 -68 -59
h-205l-69 -117v-45h274q68 0 68 -60v-12q0 -57 -68 -57h-274v-221q0 -68 -68 -68h-68q-68 0 -67 68v221h-270z" />
    <glyph glyph-name="florin.osf" horiz-adv-x="772" 
d="M10 -88q38 0 70 8q153 37 168 219l43 484h-103q-68 0 -67 67v25q0 68 67 67h115l21 215q8 98 43 171t79 113q45 41 119 71t153 30q78 0 136 -8q63 -6 64 -71v-37q0 -70 -54 -64q-66 8 -104 8t-72 -8q-155 -38 -170 -219l-18 -201h174q68 0 67 -67v-25q0 -68 -67 -67h-189
l-43 -500q-8 -98 -44 -171t-80 -113q-44 -41 -119 -71t-150 -30q-74 0 -108 6q-61 6 -62 72v37q1 69 60 63q33 -4 71 -4z" />
    <glyph glyph-name="Euro.osf" horiz-adv-x="1191" 
d="M156 406q-68 0 -68 53v14q0 53 68 53h65q-8 70 -2 125h-63q-68 0 -68 54v16q0 53 68 53h84q53 188 214 311t414 123q35 0 127 -12q70 -10 54 -80l-11 -35q-14 -61 -74 -51t-100 10q-160 0 -264 -74t-149 -192h440q75 0 61 -69q-12 -53 -71 -54h-461q-10 -59 2 -125h424
q37 0 52 -14t9 -55q-12 -51 -71 -51h-373q45 -117 148 -189t259 -72q33 1 106 13t89 -49l6 -37q14 -68 -51 -80q-70 -16 -152 -17q-246 0 -406 121t-218 310h-88z" />
    <glyph glyph-name="zero.numerator" horiz-adv-x="804" 
d="M402 674q167 0 167 326t-167 325q-167 1 -167 -325t167 -326zM402 532q-322 0 -322 468t322 468t323 -468q0 -468 -323 -468z" />
    <glyph glyph-name="one.numerator" horiz-adv-x="620" 
d="M129 553q-68 0 -68 63v9q0 63 60 63h131v510l4 53h-4q-6 -14 -35 -41l-43 -43q-35 -27 -65 4l-17 19q-41 45 6 92l133 131q35 35 84 35h23q68 0 68 -68v-692h120q68 0 68 -63v-9q0 -63 -68 -63h-397z" />
    <glyph glyph-name="two.numerator" horiz-adv-x="733" 
d="M127 553q-68 0 -68 74q0 96 45 171q44 75 108 121t128 86q154 97 154 189q0 57 -42 95t-106 38t-127 -53q-53 -39 -92 -2q-64 48 -12 98q109 98 237 98t213 -74q84 -74 84 -194q0 -82 -42 -148t-103 -107q-60 -42 -122 -79q-148 -89 -155 -178h369q68 0 68 -63v-9
q0 -63 -68 -63h-469z" />
    <glyph glyph-name="three.numerator" horiz-adv-x="731" 
d="M330 532q-146 0 -248 93q-51 37 -2 98q33 43 90 12q72 -61 151 -61t129 45t50 111t-52 105q-52 40 -122 40h-27q-51 0 -66 39q-14 39 19 82l145 168l52 49v4q-39 -6 -74 -6h-223q-68 0 -68 65v8q0 63 68 64h421q68 0 68 -49v-10q0 -37 -33 -76l-190 -221q100 -16 169 -82
t69 -184t-91 -206q-89 -88 -235 -88z" />
    <glyph glyph-name="four.numerator" horiz-adv-x="784" 
d="M199 907h258v252l8 119h-4q-29 -55 -62 -98l-200 -269v-4zM524 553q-68 0 -67 68v151h-357q-68 0 -67 51v19q0 37 24 69l357 494q29 43 82 43h45q68 0 67 -68v-473h72q59 0 59 -63v-8q0 -63 -59 -64h-72v-151q0 -68 -67 -68h-17z" />
    <glyph glyph-name="five.numerator" horiz-adv-x="729" 
d="M668 840q0 -124 -92 -216t-228 -92q-135 0 -256 95q-54 44 2 100q33 41 90 8q60 -61 140 -61t134 48t54 120t-54 121t-114 49t-125 -27q-59 -14 -86 -2q-45 18 -39 76l35 325q6 63 72 64h340q68 0 67 -64v-6q0 -66 -67 -65h-279l-14 -131l-10 -66l4 -2q45 20 112 21
q134 0 224 -85t90 -210z" />
    <glyph glyph-name="six.numerator" horiz-adv-x="772" 
d="M407 674q73 0 113 48t39 121q0 73 -45 122q-46 49 -116 49t-117 -35t-48 -80q1 -77 51 -151t123 -74zM713 837q0 -133 -84 -219t-223 -86t-236 114q-96 114 -96 302q0 287 177 437q97 83 234 83q66 0 128 -22t28 -92q-15 -31 -29 -41t-50 1t-77 11q-96 0 -157 -73
t-82 -183h4q68 63 184 63t197 -81q82 -82 82 -214z" />
    <glyph glyph-name="seven.numerator" horiz-adv-x="688" 
d="M160 553q-41 0 -55 22q-13 23 8 58l313 581l57 97v4q-39 -4 -90 -4h-282q-68 0 -68 65v8q0 63 68 64h483q68 0 68 -51v-13q0 -41 -23 -79l-377 -705q-25 -47 -80 -47h-22z" />
    <glyph glyph-name="eight.numerator" horiz-adv-x="790" 
d="M223 825q0 -81 52 -121q51 -40 117 -40t117 37q50 38 50 95t-50 91q-50 35 -111 60q-60 25 -79 36q-96 -78 -96 -158zM547 1214q0 56 -44 88q-45 32 -103 32t-98 -30t-40 -82t40 -85l25 -20q33 -26 144 -70q76 76 76 167zM397 530q-131 0 -228 74t-97 205t145 233
q-104 76 -104 187t85 174q84 63 202 63t205 -64t87 -175q0 -110 -110 -234q131 -77 131 -197q-1 -120 -93 -193t-223 -73z" />
    <glyph glyph-name="nine.numerator" horiz-adv-x="772" 
d="M376 987q70 0 118 35q47 35 47 80q-1 78 -51 152t-123 73q-73 0 -113 -48t-39 -121q0 -73 45 -122q46 -49 116 -49zM289 676q96 0 157 73t82 183h-4q-68 -64 -184 -64t-197 82q-82 82 -82 214t84 218t223 86t236 -113q96 -114 96 -302q0 -287 -177 -438q-97 -83 -234 -83
q-66 0 -125 23q-66 22 -31 92q15 31 29 41t50 -1t77 -11z" />
    <glyph glyph-name="zero.denominator" horiz-adv-x="804" 
d="M235 446q0 -326 167 -325q167 0 167 326t-166 325q-168 0 -168 -326zM725 448q0 -468 -323 -468q-322 0 -322 468t323 467q322 1 322 -467z" />
    <glyph glyph-name="one.denominator" horiz-adv-x="620" 
d="M129 0q-68 0 -68 63v9q0 63 60 63h131v510l4 53h-4q-6 -14 -35 -41l-43 -43q-35 -27 -65 4l-17 19q-41 45 6 92l133 131q35 35 84 35h23q68 0 68 -68v-692h120q68 0 68 -63v-9q0 -63 -68 -63h-397z" />
    <glyph glyph-name="two.denominator" horiz-adv-x="731" 
d="M127 0q-68 0 -68 74q0 96 45 171q44 75 108 121t128 86q154 97 154 189q0 57 -42 95t-106 38t-127 -53q-53 -39 -92 -2q-64 48 -12 98q109 98 237 98q128 -1 213 -75q84 -74 84 -193q0 -81 -42 -147t-103 -108q-60 -42 -122 -79q-148 -89 -155 -178h369q68 0 68 -63v-9
q0 -63 -68 -63h-469z" />
    <glyph glyph-name="three.denominator" horiz-adv-x="731" 
d="M330 -20q-146 0 -248 92q-51 37 -2 98q33 43 90 12q72 -61 151 -61t129 45q50 44 50 110t-52 106t-122 40h-27q-51 0 -66 39q-14 39 19 82l145 168l52 49v4q-39 -6 -74 -6h-223q-68 0 -68 65v8q0 63 68 64h421q68 0 68 -49v-10q0 -37 -33 -76l-190 -221q100 -16 169 -82
t69 -184q0 -117 -91 -205q-89 -88 -235 -88z" />
    <glyph glyph-name="four.denominator" horiz-adv-x="784" 
d="M199 354h258v252l8 119h-4q-29 -55 -62 -98l-200 -269v-4zM524 0q-68 0 -67 68v151h-357q-68 0 -67 51v19q0 37 24 69l357 494q29 43 82 43h45q68 0 67 -68v-473h72q59 0 59 -63v-8q0 -63 -59 -64h-72v-151q0 -68 -67 -68h-17z" />
    <glyph glyph-name="five.denominator" horiz-adv-x="729" 
d="M668 287q0 -125 -92 -216t-228 -91q-135 0 -256 94q-54 44 2 100q33 41 90 8q60 -61 140 -61t134 48t54 120t-54 121t-114 49t-125 -27q-59 -14 -86 -2q-45 18 -39 76l35 325q6 63 72 64h340q68 0 67 -64v-6q0 -66 -67 -65h-279l-14 -131l-10 -66l4 -2q45 20 112 21
q134 0 224 -85t90 -210z" />
    <glyph glyph-name="six.denominator" horiz-adv-x="774" 
d="M407 121q73 0 113 48t39 121q0 73 -45 122q-46 49 -116 49t-117 -35t-48 -80q1 -78 51 -152t123 -73zM406 -20q-139 0 -236 113q-96 114 -96 302q0 287 177 438q97 83 234 82q66 0 128 -22t28 -92q-15 -31 -29 -41t-50 1t-77 11q-96 0 -157 -73t-82 -183h4q68 64 184 64
t197 -82q82 -82 82 -214t-84 -218t-223 -86z" />
    <glyph glyph-name="seven.denominator" horiz-adv-x="688" 
d="M160 0q-41 0 -55 23q-13 23 8 57l313 582l57 96v4q-39 -4 -90 -4h-282q-68 0 -68 65v8q0 63 68 64h483q68 0 68 -51v-13q0 -41 -23 -79l-377 -705q-25 -47 -80 -47h-22z" />
    <glyph glyph-name="eight.denominator" horiz-adv-x="790" 
d="M223 274q0 -80 52 -120q51 -40 117 -41q66 0 117 38q50 38 50 94t-50 91t-111 60q-60 25 -79 36q-96 -78 -96 -158zM547 664q0 55 -44 87q-45 31 -103 31t-98 -30t-40 -82t40 -84l25 -20q33 -26 144 -70q76 76 76 168zM397 -20q-131 0 -228 74t-97 204q0 131 145 234
q-104 76 -104 186t85 174q84 63 202 63q118 -1 205 -65t87 -174t-110 -234q131 -76 131 -196t-92 -194q-93 -72 -224 -72z" />
    <glyph glyph-name="nine.denominator" horiz-adv-x="774" 
d="M376 434q70 0 118 35q47 35 47 80q-1 77 -51 151t-123 74t-113 -48t-39 -121q0 -73 45 -122q46 -49 116 -49zM289 123q96 0 157 73t82 183h-4q-68 -63 -184 -63t-197 81q-82 82 -82 214t84 218t223 86t236 -113q96 -114 96 -302q0 -287 -177 -438q-97 -83 -234 -82
q-66 -1 -125 22q-66 22 -31 92q15 31 29 41t50 -1t77 -11z" />
    </font>
</defs>
</svg>
