<?xml version="1.0" standalone="no"?>
<!DOCTYPE svg PUBLIC "-//W3C//DTD SVG 1.1//EN" "http://www.w3.org/Graphics/SVG/1.1/DTD/svg11.dtd" >
<svg xmlns="http://www.w3.org/2000/svg">
<metadata>
Created by FontPrep 20130207 at Tue Jun 25 22:57:39 2013
 By Adem ilter
Copyright (c) 2011 by Jos Buivenga. All rights reserved.
</metadata>
<defs>
<font id="d35039e41ce900c5a447dd6fcb8ce262" >
  <font-face 
    font-family="MuseoSansRounded-300"
    font-weight="300"
    font-stretch="normal"
    units-per-em="2048"
    panose-1="2 0 0 0 0 0 0 0 0 0"
    ascent="1536"
    descent="-512"
    x-height="1030"
    cap-height="1440"
    bbox="-220.2 -438 2228 1808"
    underline-thickness="102"
    underline-position="-102"
    unicode-range="U+0020-FB04"
  />
<missing-glyph horiz-adv-x="1083" 
d="M193 102h696l-348 523zM131 195l348 522l-348 522v-1044zM602 717l348 -522v1044zM541 809l348 522h-696zM29 51v1331q0 51 51 52h924q49 0 49 -52v-1331q0 -51 -49 -51h-924q-51 0 -51 51z" />
    <glyph glyph-name="f_f" unicode="ff" horiz-adv-x="1251" 
d="M197 51v862h-82q-49 0 -49 50v16q0 51 49 51h82v39q0 115 37 196q38 81 98 117q110 68 211 68h22q49 0 49 -51v-25q0 -47 -55 -49q-226 -11 -223 -258v-37h485v39q0 115 38 196t98 117q111 68 212 68h21q51 0 51 -51v-25q0 -45 -49 -48t-81 -11q-153 -38 -150 -248v-37
h213q51 0 51 -51v-16q0 -49 -47 -50h-217v-862q0 -51 -50 -51h-39q-51 0 -51 51v862h-485v-862q0 -51 -51 -51h-39q-49 0 -49 51z" />
    <glyph glyph-name="fi" unicode="fi" horiz-adv-x="1081" 
d="M829 1266q-51 0 -51 49v74q0 51 51 51h50q51 0 51 -51v-74q0 -49 -51 -49h-50zM195 51v862h-82q-49 0 -50 50v16q0 51 50 51h82v39q0 115 37 196q38 81 98 117q112 68 211 68h22q49 0 49 -51v-25q0 -47 -55 -49q-226 -11 -223 -258v-37h538q51 0 52 -51v-928
q0 -51 -52 -51h-38q-49 0 -50 51v862h-450v-862q0 -51 -51 -51h-39q-49 0 -49 51z" />
    <glyph glyph-name="fl" unicode="fl" horiz-adv-x="1126" 
d="M195 51v854h-82q-49 0 -50 49v17q0 51 50 51h82v47q0 115 37 196q38 81 98 117q112 68 211 68h22q49 0 49 -51v-25q0 -47 -55 -49q-226 -11 -223 -258v-45h213q49 0 49 -51v-17q0 -49 -49 -49h-213v-854q0 -51 -51 -51h-39q-49 0 -49 51zM1020 -8q-236 0 -236 252v1145
q0 51 50 51h38q51 0 52 -51v-1121q0 -59 19 -94t37 -43t50 -12q43 -4 43 -45v-31q0 -51 -53 -51z" />
    <glyph glyph-name="f_f_i" unicode="ffi" horiz-adv-x="1708" 
d="M1405 1315v74q0 51 49 51h51q49 0 49 -51v-74q0 -49 -49 -49h-51q-49 0 -49 49zM113 913q-49 0 -50 50v16q0 51 50 51h80l2 39q0 115 37 196q38 81 98 117q112 68 211 68h22q49 0 49 -51v-25q0 -47 -55 -49q-226 -11 -223 -258v-37h485v39q0 115 38 196t98 117
q111 68 212 68h21q51 0 51 -51v-25q0 -47 -57 -49q-158 -8 -202 -122q-22 -54 -22 -136v-37h541q49 0 49 -51v-928q0 -51 -49 -51h-39q-51 0 -51 51v862h-451v-862q0 -51 -49 -51h-39q-51 0 -51 51v862h-485v-862q0 -51 -51 -51h-39q-49 0 -49 51l-2 862h-80z" />
    <glyph glyph-name="f_f_l" unicode="ffl" horiz-adv-x="1753" 
d="M1649 -8q-236 0 -236 252v1145q0 51 49 51h39q51 0 51 -51v-1121q0 -59 18 -94t38 -43t51 -12q43 -4 43 -45v-31q0 -51 -53 -51zM115 913q-49 0 -49 50v16q0 51 49 51h80l2 39q0 115 37 196q38 81 98 117q110 68 211 68h22q49 0 49 -51v-25q0 -47 -55 -49
q-226 -11 -223 -258v-37h485v39q0 115 38 196t98 117q111 68 212 68h21q51 0 51 -51v-25q0 -45 -49 -48t-81 -11q-153 -38 -150 -248v-37h213q51 0 51 -51v-16q0 -49 -47 -50h-217v-862q0 -51 -50 -51h-39q-51 0 -51 51v862h-485v-862q0 -51 -51 -51h-39q-49 0 -49 51
l-2 862h-80z" />
    <glyph glyph-name="f_j" unicode="fj" horiz-adv-x="1085" 
d="M831 1266q-51 0 -51 49v74q0 51 51 51h50q51 0 51 -51v-74q0 -49 -51 -49h-50zM197 51v862h-82q-49 0 -49 50v16q0 51 49 51h82v39q0 115 37 196q38 81 98 117q110 68 211 68h22q49 0 49 -51v-25q0 -47 -55 -49q-226 -11 -223 -258v-37h541q49 0 49 -51v-1016
q0 -117 -39 -200t-101 -119q-110 -66 -208 -66h-21q-49 0 -49 51v23q0 45 49 49q82 4 148 48q83 55 81 218v946h-450v-862q0 -51 -51 -51h-39q-49 0 -49 51z" />
    <glyph glyph-name=".notdef" horiz-adv-x="1083" 
d="M193 102h696l-348 523zM131 195l348 522l-348 522v-1044zM602 717l348 -522v1044zM541 809l348 522h-696zM29 51v1331q0 51 51 52h924q49 0 49 -52v-1331q0 -51 -49 -51h-924q-51 0 -51 51z" />
    <glyph glyph-name=".null" horiz-adv-x="0" 
 />
    <glyph glyph-name="nonmarkingreturn" horiz-adv-x="681" 
 />
    <glyph glyph-name="space" unicode=" " horiz-adv-x="512" 
 />
    <glyph glyph-name="exclam" unicode="!" horiz-adv-x="509" 
d="M176 51v60q0 51 49 51h62q49 0 49 -51v-60q0 -51 -49 -51h-62q-49 0 -49 51zM240 377q-51 0 -52 49l-6 963q0 51 51 51h43q49 0 50 -51l-7 -963q0 -49 -49 -49h-30z" />
    <glyph glyph-name="quotedbl" unicode="&#x22;" horiz-adv-x="624" 
d="M178 1049q-51 0 -51 51v311q0 49 51 49h21q49 0 49 -49v-311q0 -51 -49 -51h-21zM426 1049q-49 0 -49 51v311q0 49 49 49h20q49 0 50 -49v-311q0 -51 -50 -51h-20z" />
    <glyph glyph-name="numbersign" unicode="#" horiz-adv-x="1449" 
d="M514 514h354l72 401h-354zM135 399q-57 0 -47 54l2 16q8 45 55 45h244l72 401h-236q-60 0 -43 70q6 45 54 45h243l64 365q8 45 55 45h23q57 0 47 -54l-64 -356h354l64 365q8 45 55 45h23q57 0 47 -54l-64 -356h232q57 0 47 -53l-2 -16q-8 -45 -55 -46h-240l-72 -401h232
q55 0 45 -53l-2 -17q-6 -45 -56 -45h-239l-62 -354q-6 -45 -55 -45h-22q-53 0 -48 53l62 346h-354l-62 -354q-6 -45 -55 -45h-23q-53 0 -47 53l62 346h-234z" />
    <glyph glyph-name="dollar" unicode="$" horiz-adv-x="1071" 
d="M549 111q123 1 205 69t82 172t-75 173t-181 115t-212 95t-183 135q-75 86 -75 218t105 241q104 109 272 129v144q0 51 50 51h16q49 0 49 -47v-144q178 -10 305 -108q39 -25 13 -70l-19 -33q-25 -41 -70 -12q-127 90 -267 90t-224 -74t-84 -169q0 -96 75 -160t181 -108
t212 -94t182 -140q75 -90 75 -230t-102 -250q-102 -109 -277 -124v-140q0 -51 -49 -51h-16q-49 0 -50 47v144q-217 16 -364 147q-37 31 -6 70l24 30q29 37 70 9q154 -125 338 -125z" />
    <glyph glyph-name="percent" unicode="%" horiz-adv-x="1470" 
d="M1081 430q-70 0 -118 -50t-48 -121q1 -71 49 -120t118 -49t117 49q48 49 48 120t-48 121t-118 50zM1081 -25q-119 0 -203 83t-85 201q0 118 85 202q86 84 204 84t203 -84t85 -202t-85 -201t-204 -83zM389 1010q70 0 118 49t48 120t-48 121t-118 50t-118 -50t-48 -122
q0 -70 48 -119t118 -49zM1249 1440h31q33 0 42 -18t-11 -44l-1026 -1347q-23 -31 -62 -31h-33q-32 0 -40 17t12 44l1026 1348q23 31 61 31zM388 895q-120 0 -204 83t-84 201q0 117 85 201t204 84t203 -84t84 -202t-84 -200q-84 -83 -204 -83z" />
    <glyph glyph-name="ampersand" unicode="&#x26;" horiz-adv-x="1304" 
d="M623 705q-181 0 -277 -80t-96 -213t92 -218t248 -85q336 0 336 389v207h-303zM104 397q0 129 70 235t193 144v4q-24 6 -64 35q-39 29 -65 62t-49 92q-22 59 -21 131q0 166 117 265t313 99h102q49 0 50 -51v-22q0 -51 -50 -52h-100q-125 -1 -206 -69t-81 -167t53 -176
q65 -96 257 -96h303v154q0 49 51 49h39q51 0 51 -45v-158h145q49 0 50 -49v-26q0 -51 -50 -51h-145v-211q0 -252 -128 -385t-346 -133q-217 0 -353 119q-136 120 -136 302z" />
    <glyph glyph-name="quotesingle" unicode="'" horiz-adv-x="370" 
d="M174 1116q-49 0 -49 49v246q0 49 49 49h23q49 0 49 -49v-246q0 -49 -49 -49h-23z" />
    <glyph glyph-name="parenleft" unicode="(" horiz-adv-x="542" 
d="M115 690q0 410 211 770q18 35 59 35h23q28 0 38 -16t-4 -43q-199 -362 -198 -746q0 -438 200 -825q12 -27 3 -43t-35 -17h-25q-43 0 -59 31q-213 389 -213 854z" />
    <glyph glyph-name="parenright" unicode=")" horiz-adv-x="542" 
d="M297 690q0 383 -199 746q-14 27 -5 43t36 16h27q41 0 59 -35q211 -360 211 -770q0 -465 -211 -850q-20 -35 -61 -35h-23q-29 -1 -38 17t3 45q201 383 201 823z" />
    <glyph glyph-name="asterisk" unicode="*" horiz-adv-x="976" 
d="M467 1440h37q53 0 47 -51l-8 -265l250 88q47 20 63 -30l8 -29q18 -49 -33 -61l-251 -74v-4l159 -205q31 -43 -10 -72l-22 -16q-43 -31 -72 10l-148 217h-4l-145 -215q-31 -41 -72 -12l-24 16q-43 29 -9 70l160 207v4l-252 74q-49 12 -32 61l8 29q16 49 63 30l248 -88
l-8 265q-6 51 47 51z" />
    <glyph glyph-name="plus" unicode="+" horiz-adv-x="1241" 
d="M137 522q-51 0 -51 49v19q0 51 51 51h422v471q0 51 49 51h27q49 0 49 -51v-471h420q51 0 51 -51v-19q0 -49 -51 -49h-420v-471q0 -51 -49 -51h-27q-49 0 -49 51v471h-422z" />
    <glyph glyph-name="comma" unicode="," horiz-adv-x="471" 
d="M229 168h50q29 0 39 -16t-1 -43l-137 -334q-16 -39 -59 -39h-19q-59 0 -43 55l111 334q12 43 59 43z" />
    <glyph glyph-name="hyphen" unicode="-" horiz-adv-x="866" 
d="M193 518q-49 0 -50 49v27q0 51 50 51h481q49 0 49 -51v-27q0 -49 -49 -49h-481z" />
    <glyph glyph-name="period" unicode="." horiz-adv-x="448" 
d="M141 51v70q0 49 49 49h68q49 0 49 -49v-70q0 -51 -49 -51h-68q-49 0 -49 51z" />
    <glyph glyph-name="slash" unicode="/" horiz-adv-x="788" 
d="M633 1520h29q57 0 40 -58l-487 -1507q-14 -41 -57 -41h-29q-58 0 -41 57l487 1508q14 41 58 41z" />
    <glyph glyph-name="zero" unicode="0" horiz-adv-x="1269" 
d="M635 109q350 0 350 611t-350 611t-350 -611t350 -611zM635 -25q-498 0 -498 746q0 219 44 379t159 262t295 102t295 -102t159 -262t44 -379q0 -746 -498 -746z" />
    <glyph glyph-name="one" unicode="1" horiz-adv-x="915" 
d="M94 51v25q0 51 51 51h273v1057l2 80h-4q-16 -31 -70 -84l-121 -119q-33 -37 -69 0l-19 20q-39 33 -2 70l264 262q27 27 62 27h47q49 0 49 -51v-1262h266q51 0 51 -51v-25q0 -51 -51 -51h-678q-51 0 -51 51z" />
    <glyph glyph-name="two" unicode="2" horiz-adv-x="1128" 
d="M106 51v41q0 102 41 192t120 167q79 78 223 176t208 152q146 123 146 274q0 121 -82 199t-217 77q-178 0 -293 -155q-35 -41 -72 -13l-22 19q-39 29 -13 67q55 80 157 149t251 68q201 0 321 -114t119 -289q0 -113 -54 -210t-135 -162t-176 -133t-176 -125
q-80 -56 -136 -136t-56 -168h705q51 0 51 -51v-25q0 -51 -51 -51h-803q-56 0 -56 51z" />
    <glyph glyph-name="three" unicode="3" horiz-adv-x="1130" 
d="M528 111q133 0 232 88q98 88 98 228t-105 221t-257 81h-58q-41 0 -55 37q-24 40 6 78l334 391l76 80v4q-41 -6 -117 -6h-489q-51 0 -52 51v25q0 51 52 51h739q51 0 51 -47v-11q0 -39 -22 -63l-408 -469q208 -15 344 -142q107 -105 107 -286q0 -182 -136 -314t-350 -132
t-409 163q-35 33 -5 72l25 31q29 35 70 4q154 -135 329 -135z" />
    <glyph glyph-name="four" unicode="4" horiz-adv-x="1204" 
d="M225 522h549v604l8 138h-4q-35 -59 -71 -111l-482 -627v-4zM104 399q-49 0 -49 50v8q0 37 19 61l667 891q25 31 62 31h63q49 0 49 -51v-867h156q49 0 49 -49v-24q0 -49 -45 -50h-160v-348q0 -51 -49 -51h-41q-51 0 -51 51v348h-670z" />
    <glyph glyph-name="five" unicode="5" horiz-adv-x="1120" 
d="M502 111q162 0 265 96q103 97 103 243t-104 242t-260 96q-106 0 -230 -61q-35 -18 -67 -6l-14 4q-41 16 -37 59l67 609q6 47 54 47h598q51 0 51 -51v-25q0 -51 -51 -51h-523l-41 -369l-14 -82h4q90 55 219 56q216 0 356 -136t140 -334t-144 -335t-365 -137
q-220 0 -382 167q-35 35 0 70l25 29q35 35 69 0q119 -131 281 -131z" />
    <glyph glyph-name="six" unicode="6" horiz-adv-x="1198" 
d="M276 545q0 -152 106 -294t254 -142t232 96t84 251q0 154 -90 246t-234 92t-248 -77q-104 -78 -104 -172zM123 649q0 242 102 458q102 217 294 307q108 50 233 50t221 -39q47 -18 28 -65l-14 -33q-18 -41 -65 -29q-80 33 -164 33q-211 0 -335 -172t-147 -409h5
q53 78 152 124t218 48q195 0 320 -128t125 -340t-129 -345t-324 -134q-231 1 -375 191t-145 483z" />
    <glyph glyph-name="seven" unicode="7" horiz-adv-x="1030" 
d="M733 1313h-622q-51 0 -52 51v25q0 51 52 51h833q51 0 51 -47v-19q0 -33 -14 -63l-635 -1274q-18 -37 -59 -37h-41q-29 0 -39 16t2 43l553 1121l78 133v4q-35 -4 -107 -4z" />
    <glyph glyph-name="eight" unicode="8" horiz-adv-x="1214" 
d="M266 416q0 -136 102 -224t237 -88q134 0 236 81q101 81 101 200q0 57 -22 100q-38 70 -175 139q-43 22 -135 60t-137 59q-207 -145 -207 -327zM760 756q154 154 153 323q0 119 -82 188t-217 69t-214 -68t-78 -168q0 -128 143 -209q105 -62 295 -135zM178 1089
q0 163 114 269t318 106t324 -102q121 -102 121 -268q0 -94 -45 -192t-76 -137q-31 -38 -57 -65q211 -119 210 -311q0 -170 -136 -292t-340 -122q-204 1 -347 121t-143 301t108 295q77 81 131 115q-182 119 -182 282z" />
    <glyph glyph-name="nine" unicode="9" horiz-adv-x="1198" 
d="M572 645q146 0 247 78q102 78 103 172q0 152 -106 294t-254 142t-231 -96t-83 -251t89 -247t235 -92zM545 518q-193 0 -318 130t-125 341t129 343t324 132q231 0 375 -190t145 -482q0 -292 -148 -543q-73 -122 -199 -198t-264 -76t-239 39q-46 19 -26 64l14 37
q14 41 63 26q84 -33 164 -32q145 0 254 89q199 163 228 492h-4q-52 -78 -154 -125t-219 -47z" />
    <glyph glyph-name="colon" unicode=":" horiz-adv-x="448" 
d="M145 51v62q0 51 52 51h59q49 0 49 -51v-62q0 -51 -49 -51h-59q-52 0 -52 51zM197 866q-51 0 -52 52v61q0 51 52 51h59q49 0 49 -51v-61q0 -51 -49 -52h-59z" />
    <glyph glyph-name="semicolon" unicode=";" horiz-adv-x="552" 
d="M272 168h52q28 0 38 -16t0 -43l-120 -334q-14 -39 -60 -39h-18q-57 0 -43 55l94 334q10 43 57 43zM268 860q-51 0 -51 49v70q0 51 51 51h64q51 0 51 -51v-70q0 -49 -51 -49h-64z" />
    <glyph glyph-name="less" unicode="&#x3c;" horiz-adv-x="1241" 
d="M125 571v21q0 43 39 57l829 371q56 25 58 -37v-33q0 -43 -39 -57l-713 -309v-4l713 -310q39 -14 39 -57v-33q0 -60 -58 -39l-829 371q-39 18 -39 59z" />
    <glyph glyph-name="equal" unicode="=" horiz-adv-x="1241" 
d="M195 344q-51 0 -52 49v19q0 51 52 51h852q51 0 51 -51v-19q0 -49 -51 -49h-852zM195 700q-51 0 -52 50v18q0 51 52 51h852q51 0 51 -51v-18q0 -49 -51 -50h-852z" />
    <glyph glyph-name="greater" unicode="&#x3e;" horiz-adv-x="1241" 
d="M190 180v33q0 43 39 57l713 310v4l-713 309q-39 14 -39 57v33q0 29 16 39t42 -2l829 -371q39 -14 39 -57v-21q0 -41 -39 -59l-829 -369q-26 -12 -42 -2t-16 39z" />
    <glyph glyph-name="question" unicode="?" horiz-adv-x="909" 
d="M289 51v60q0 51 49 51h61q49 0 50 -51v-60q0 -51 -50 -51h-61q-49 0 -49 51zM350 377q-51 0 -51 51v47q0 86 37 158t89 121t105 96q129 114 127 248q0 100 -75 168q-76 68 -189 68t-211 -60q-47 -25 -69 12l-17 25q-33 43 10 69q129 86 297 86t285 -102t117 -266
t-127 -287q-52 -51 -106 -98q-130 -114 -134 -244l-2 -49q-2 -43 -47 -43h-39z" />
    <glyph glyph-name="at" unicode="@" horiz-adv-x="1591" 
d="M676 496q0 -117 81 -199t197 -82h254v563h-250q-122 0 -202 -82t-80 -200zM117 502q0 307 213 526t516 219q258 -1 380 -111t122 -276v-645h94q49 0 49 -51v-12q0 -51 -49 -52h-500q-176 0 -293 116t-117 278t117 278t293 115h266q-4 104 -93 173t-259 68
q-250 0 -423 -186t-173 -441t158 -434t399 -196q49 -6 49 -51v-23q0 -53 -51 -49q-299 18 -499 232t-199 522z" />
    <glyph glyph-name="A" unicode="A" horiz-adv-x="1247" 
d="M375 582h495l-190 522l-53 188h-4q-33 -121 -56 -188zM590 1440h67q43 0 56 -41l495 -1340q16 -59 -41 -59h-45q-45 0 -57 41l-154 418h-577l-152 -418q-12 -41 -57 -41h-43q-59 0 -43 59l496 1340q12 41 55 41z" />
    <glyph glyph-name="B" unicode="B" horiz-adv-x="1251" 
d="M342 127h369q131 0 207 76t75 205q0 128 -79 206t-205 78h-367v-565zM342 815h350q108 0 176 70q68 71 68 183t-66 178t-180 67h-348v-498zM201 51v1338q0 51 49 51h442q174 0 283 -98t108 -265q0 -221 -184 -313v-4q111 -31 177 -128t65 -229q0 -187 -123 -295
t-309 -108h-459q-49 0 -49 51z" />
    <glyph glyph-name="C" unicode="C" horiz-adv-x="1454" 
d="M104 726q0 318 204 528t505 210t498 -153q35 -29 8 -72l-19 -27q-29 -37 -69 -8q-182 127 -400 127q-259 0 -419 -171t-160 -431t162 -440t411 -180t441 155q39 33 69 -6l19 -22q31 -37 -4 -72q-220 -188 -530 -188t-513 215q-203 217 -203 535z" />
    <glyph glyph-name="D" unicode="D" horiz-adv-x="1497" 
d="M342 127h309q270 0 430 155q160 154 160 438t-160 438t-430 155h-309v-1186zM201 51v1338q0 51 49 51h416q328 0 526 -192t197 -529q0 -339 -197 -529t-526 -190h-416q-49 0 -49 51z" />
    <glyph glyph-name="E" unicode="E" horiz-adv-x="1132" 
d="M201 51v1338q0 51 49 51h711q51 0 51 -51v-25q0 -51 -51 -51h-619v-525h496q51 0 51 -49v-26q0 -51 -51 -51h-496v-535h655q51 0 52 -51v-25q0 -51 -52 -51h-747q-49 0 -49 51z" />
    <glyph glyph-name="F" unicode="F" horiz-adv-x="1019" 
d="M201 51v1338q0 51 49 51h657q51 0 51 -51v-25q0 -51 -51 -51h-565v-541h479q49 0 49 -49v-27q0 -51 -49 -51h-479v-594q0 -51 -49 -51h-43q-49 0 -49 51z" />
    <glyph glyph-name="G" unicode="G" horiz-adv-x="1531" 
d="M104 718q0 316 208 531t519 215q276 0 474 -137q41 -31 8 -70l-19 -26q-29 -41 -69 -12q-178 113 -389 112q-258 0 -421 -175t-163 -436t163 -436t408 -175q208 0 378 136q40 32 59 54l18 20v242h-197q-49 0 -49 51v25q0 51 49 51h281q49 0 49 -51v-586q0 -51 -49 -51
h-29q-51 0 -51 45v74l2 53h-4q-17 -22 -70 -63q-177 -134 -399 -134q-299 -1 -503 213t-204 530z" />
    <glyph glyph-name="H" unicode="H" horiz-adv-x="1519" 
d="M201 51v1338q0 51 49 51h43q49 0 49 -51v-605h836v605q0 51 49 51h41q51 0 51 -51v-1338q0 -51 -51 -51h-41q-49 0 -49 51v606h-836v-606q0 -51 -49 -51h-43q-49 0 -49 51z" />
    <glyph glyph-name="I" unicode="I" horiz-adv-x="542" 
d="M201 51v1338q0 51 49 51h43q49 0 49 -51v-1338q0 -51 -49 -51h-43q-49 0 -49 51z" />
    <glyph glyph-name="J" unicode="J" horiz-adv-x="1044" 
d="M53 412q0 49 49 49h45q25 0 34 -11t14 -44q14 -297 262 -297q111 1 187 71t75 223v910h-301q-49 0 -49 51v25q0 51 49 51h393q51 0 51 -51v-986q0 -217 -119 -322t-287 -105t-285 107q-118 108 -118 329z" />
    <glyph glyph-name="K" unicode="K" horiz-adv-x="1193" 
d="M201 51v1338q0 51 49 51h43q49 0 49 -51v-574h244l366 590q20 35 60 35h51q31 0 41 -18t-6 -44l-393 -618v-4l421 -697q16 -25 6 -42t-38 -17h-58q-39 0 -59 35l-391 653h-244v-637q0 -51 -49 -51h-43q-49 0 -49 51z" />
    <glyph glyph-name="L" unicode="L" horiz-adv-x="1021" 
d="M201 51v1338q0 51 49 51h43q49 0 49 -51v-1262h616q51 0 52 -51v-25q0 -51 -52 -51h-708q-49 0 -49 51z" />
    <glyph glyph-name="M" unicode="M" horiz-adv-x="1714" 
d="M309 1440h56q45 0 59 -39l360 -807l72 -176h4q37 102 70 176l360 807q18 39 60 39h55q47 0 51 -47l109 -1340q4 -53 -49 -53h-41q-47 0 -52 47l-75 961l-7 200h-4q-41 -127 -73 -200l-324 -701q-14 -39 -57 -39h-49q-45 0 -60 39l-321 701l-76 204h-4q0 -127 -6 -204
l-76 -961q-4 -47 -51 -47h-41q-53 0 -49 53l108 1340q4 47 51 47z" />
    <glyph glyph-name="N" unicode="N" horiz-adv-x="1525" 
d="M201 51v1338q0 51 49 51h49q37 0 61 -33l713 -1004l119 -194h4q-12 119 -12 194v986q0 51 51 51h41q49 0 49 -51v-1338q0 -51 -49 -51h-49q-39 0 -60 33l-714 1003l-119 195h-4q12 -119 12 -195v-985q0 -51 -49 -51h-43q-49 0 -49 51z" />
    <glyph glyph-name="O" unicode="O" horiz-adv-x="1673" 
d="M250 726q0 -261 167 -439t419 -178t418 178t167 439q0 261 -167 433q-166 172 -418 172t-419 -172t-167 -433zM102 726q0 314 210 526t524 212t524 -212q209 -212 209 -527t-209 -532t-523 -217q-315 0 -525 218t-210 532z" />
    <glyph glyph-name="P" unicode="P" horiz-adv-x="1206" 
d="M342 692h338q145 0 231 84t86 228t-85 227q-85 82 -230 82h-340v-621zM201 51v1338q0 51 49 51h448q197 0 321 -119t124 -317t-124 -318q-124 -121 -321 -121h-356v-514q0 -51 -49 -51h-43q-49 0 -49 51z" />
    <glyph glyph-name="Q" unicode="Q" horiz-adv-x="1673" 
d="M252 727q0 -260 168 -439t400 -179t388 133l-141 145q-37 35 -2 70l16 16q35 39 70 4l139 -145q133 166 133 410t-169 417q-170 172 -418 172t-416 -172t-168 -432zM836 -25q-312 1 -522 219t-210 532t210 526t524 212t524 -211q209 -211 209 -514t-180 -506l141 -143
q39 -35 2 -72l-16 -16q-37 -37 -68 -2l-143 145q-199 -170 -471 -170z" />
    <glyph glyph-name="R" unicode="R" horiz-adv-x="1247" 
d="M342 733h342q129 0 207 83t78 218q0 86 -40 153q-39 67 -105 97t-195 29h-287v-580zM201 51v1338q0 51 49 51h389q174 0 262 -41q213 -102 213 -361q0 -145 -75 -254t-197 -143v-4q14 -18 37 -57l280 -521q14 -27 4 -43t-39 -16h-53q-41 0 -59 35l-307 571h-363v-555
q0 -51 -49 -51h-43q-49 0 -49 51z" />
    <glyph glyph-name="S" unicode="S" horiz-adv-x="1077" 
d="M543 111q131 -1 212 67t81 178q0 136 -143 225q-62 37 -139 71t-154 71t-139 81t-102 115t-40 160q0 173 129 279q130 106 328 106t344 -112q37 -29 12 -68l-19 -33q-27 -43 -71 -14q-136 92 -270 92q-134 1 -221 -65t-87 -187t143 -203q62 -35 199 -93t233 -126
q62 -45 102 -117t40 -167q0 -170 -119 -283t-319 -113q-240 0 -422 152q-33 33 -6 72l24 30q31 37 72 7q150 -125 332 -125z" />
    <glyph glyph-name="T" unicode="T" horiz-adv-x="1200" 
d="M528 51v1262h-465q-51 0 -51 51v25q0 51 51 51h1074q51 0 51 -51v-25q0 -51 -51 -51h-467v-1262q0 -51 -49 -51h-41q-52 0 -52 51z" />
    <glyph glyph-name="U" unicode="U" horiz-adv-x="1464" 
d="M180 502v887q0 51 51 51h41q51 0 52 -51v-885q0 -184 110 -290q111 -105 298 -105t298 106t111 293v881q0 51 51 51h41q49 0 49 -51v-887q0 -238 -152 -382t-398 -144t-400 144q-152 144 -152 382z" />
    <glyph glyph-name="V" unicode="V" horiz-adv-x="1249" 
d="M125 1440q45 0 57 -41l383 -1053l56 -186h4q31 113 55 186l387 1053q12 41 55 41h49q57 0 41 -60l-497 -1339q-14 -41 -58 -41h-67q-43 0 -55 41l-498 1339q-20 59 41 60h47z" />
    <glyph glyph-name="W" unicode="W" horiz-adv-x="1904" 
d="M178 1440q43 0 55 -45l269 -1073l33 -154h4q14 80 34 154l297 1075q12 43 56 43h47q43 0 55 -43l295 -1075l37 -154h4q12 80 31 154l280 1073q12 45 56 45h45q27 0 39 -14t4 -42l-357 -1341q-12 -43 -57 -43h-78q-45 0 -57 43l-266 971l-52 215h-6q-25 -123 -51 -215
l-268 -971q-12 -43 -56 -43h-79q-44 0 -56 45l-348 1339q-12 55 45 56h45z" />
    <glyph glyph-name="X" unicode="X" horiz-adv-x="1159" 
d="M197 1440q37 0 59 -35l231 -391l95 -166h4q43 92 88 166l233 391q20 35 60 35h55q31 0 41 -18t-6 -42l-385 -628l422 -693q18 -25 8 -42t-41 -17h-51q-39 0 -60 35l-280 463l-90 159h-5q-43 -86 -88 -161l-276 -461q-20 -35 -59 -35h-52q-31 0 -41 17q-9 17 7 42l421 693
l-381 628q-16 25 -6 42t41 18h56z" />
    <glyph glyph-name="Y" unicode="Y" horiz-adv-x="1134" 
d="M498 51v567l-453 762q-16 25 -6 42t41 18h51q41 0 59 -35l287 -487l88 -173h4q45 96 88 173l287 487q18 35 57 35h54q29 0 39 -18t-4 -42l-451 -762v-567q0 -51 -51 -51h-41q-49 0 -49 51z" />
    <glyph glyph-name="Z" unicode="Z" horiz-adv-x="1177" 
d="M68 51v15q0 35 20 63l725 1053q22 34 100 131v4q-35 -4 -106 -4h-649q-49 0 -49 51v25q0 51 49 51h880q51 0 52 -49v-17q0 -35 -21 -63l-725 -1053q-41 -63 -86 -115l-14 -16v-4q35 4 106 4h697q49 0 49 -51v-25q0 -51 -49 -51h-928q-51 0 -51 51z" />
    <glyph glyph-name="bracketleft" unicode="[" horiz-adv-x="546" 
d="M178 -143v1587q0 51 49 51h179q49 0 49 -51v-12q0 -51 -49 -52h-99v-1460h99q49 0 49 -51v-12q0 -51 -49 -52h-179q-49 1 -49 52z" />
    <glyph glyph-name="backslash" unicode="\" horiz-adv-x="788" 
d="M156 1520q43 0 57 -41l487 -1508q17 -57 -41 -57h-26q-46 0 -60 41l-487 1507q-16 57 43 58h27z" />
    <glyph glyph-name="bracketright" unicode="]" horiz-adv-x="546" 
d="M92 -131q0 51 51 51h97v1460h-97q-51 0 -51 52v12q0 51 51 51h176q49 0 50 -51v-1587q0 -51 -50 -52h-176q-51 0 -51 52v12z" />
    <glyph glyph-name="asciicircum" unicode="^" horiz-adv-x="1241" 
d="M215 512q-61 0 -39 59l363 830q18 39 59 39h12q41 0 60 -39l362 -830q23 -59 -39 -59h-28q-43 0 -58 39l-303 719l-303 -719q-18 -39 -59 -39h-27z" />
    <glyph glyph-name="underscore" unicode="_" horiz-adv-x="1101" 
d="M23 -51q0 51 49 51h956q51 0 51 -51v-17q0 -51 -51 -51h-956q-49 0 -49 51v17z" />
    <glyph glyph-name="grave" unicode="`" horiz-adv-x="1032" 
d="M580 1540q-37 0 -62 33l-108 149q-40 60 28 62h47q39 0 60 -35l90 -152q14 -23 7 -39t-34 -18h-28z" />
    <glyph glyph-name="a" unicode="a" horiz-adv-x="1040" 
d="M213 278q0 -66 60 -126q60 -59 169 -60q141 0 229 119q87 119 87 266v49h-58q-386 0 -464 -140q-24 -42 -23 -108zM70 276q0 354 628 355h60v33q0 266 -254 266q-131 0 -250 -72q-43 -23 -70 16l-12 21q-27 45 14 70q144 90 328 90q184 1 284 -101t99 -295v-608
q0 -51 -49 -51h-33q-51 0 -51 51v82l6 78h-4q2 0 -10 -25q-12 -24 -39 -58q-75 -92 -151 -123q-76 -30 -148 -30q-141 0 -245 80q-103 80 -103 221z" />
    <glyph glyph-name="b" unicode="b" horiz-adv-x="1189" 
d="M630 928q-142 0 -238 -104t-97 -292q0 -188 85 -310q84 -122 234 -122t245 112t95 300t-91 302t-233 114zM160 51v1338q0 51 49 51h39q51 0 51 -51v-461l-8 -84h4l11 22q7 14 37 52q63 78 168 114q65 23 138 23q205 -1 327 -149t122 -391t-130 -391t-335 -149
q-134 0 -230 76q-74 62 -104 117l-10 22h-4q8 -31 8 -75v-68q0 -47 -51 -47h-33q-49 0 -49 51z" />
    <glyph glyph-name="c" unicode="c" horiz-adv-x="1089" 
d="M614 -25q-218 1 -372 151t-154 387t155 389t369 153q214 0 359 -117q37 -29 6 -70l-14 -22q-25 -39 -70 -10q-123 94 -260 94q-172 0 -287 -117t-115 -298t116 -298t282 -117t297 109q41 31 67 -12l15 -21q23 -37 -13 -70q-163 -131 -381 -131z" />
    <glyph glyph-name="d" unicode="d" horiz-adv-x="1189" 
d="M236 516q0 -188 90 -302t233 -114t239 104t97 294q0 188 -85 309q-84 121 -234 121t-245 -112t-95 -300zM92 516q0 242 129 390t334 149q136 0 222 -71t106 -116l10 -20h4q-6 35 -6 78v463q0 51 51 51h39q49 0 49 -51v-1338q0 -51 -49 -51h-35q-51 0 -51 49v78l8 63h-4
l-11 -22q-7 -14 -37 -52q-63 -79 -169 -117q-66 -24 -141 -24q-205 -1 -327 149t-122 392z" />
    <glyph glyph-name="e" unicode="e" horiz-adv-x="1114" 
d="M588 940q-127 0 -225 -86t-123 -238h647q-6 156 -89 240t-210 84zM629 -25q-231 -1 -385 151t-154 393t146 388t356 147q208 0 322 -133q114 -134 114 -358q0 -23 -15 -37t-38 -14h-742q4 -190 119 -301t273 -111t278 95q43 27 68 -13l16 -24q23 -39 -14 -68
q-156 -115 -344 -115z" />
    <glyph glyph-name="f" unicode="f" horiz-adv-x="624" 
d="M195 51v854h-82q-49 0 -50 49v17q0 51 50 51h82v47q0 115 37 196q38 81 98 117q112 68 211 68h22q49 0 49 -51v-25q0 -47 -55 -49q-226 -11 -223 -258v-45h213q49 0 49 -51v-17q0 -49 -49 -49h-213v-854q0 -51 -51 -51h-39q-49 0 -49 51z" />
    <glyph glyph-name="g" unicode="g" horiz-adv-x="1175" 
d="M881 532q0 210 -88 304t-238 94q-149 0 -233 -102t-84 -290q0 -186 90 -296t236 -111q144 0 231 95q86 95 86 306zM540 -305q138 0 238 81t101 242v107l6 74h-4q-99 -193 -317 -193t-344 148t-126 382q0 236 122 377t333 142q149 -1 227 -63q78 -63 101 -107l8 -19h4
q-4 14 -4 35v84q0 45 49 45h33q51 0 51 -51v-954q0 -229 -142 -342t-348 -113q-162 0 -297 61q-45 20 -24 66l12 29q20 39 66 22q117 -53 255 -53z" />
    <glyph glyph-name="h" unicode="h" horiz-adv-x="1198" 
d="M160 51v1338q0 51 49 51h39q51 0 51 -51v-515l-8 -83h4q37 94 146 179q110 85 281 85q171 -1 251 -101t80 -299v-604q0 -51 -49 -51h-39q-51 0 -52 51v567q0 137 -36 212q-47 94 -200 94t-265 -121t-113 -305v-447q0 -51 -51 -51h-39q-49 0 -49 51z" />
    <glyph glyph-name="i" unicode="i" horiz-adv-x="456" 
d="M158 51v928q0 51 51 51h39q49 0 49 -51v-928q0 -51 -49 -51h-39q-51 0 -51 51zM203 1266q-49 0 -49 49v74q0 51 49 51h51q49 0 49 -51v-74q0 -49 -49 -49h-51z" />
    <glyph glyph-name="j" unicode="j" horiz-adv-x="456" 
d="M160 -33v1012q0 51 49 51h39q51 0 51 -51v-1016q0 -117 -39 -200t-100 -119q-109 -65 -209 -66h-21q-51 0 -51 51v23q0 45 51 49q79 4 147 48q83 54 83 218zM203 1266q-49 0 -49 49v74q0 51 49 51h51q49 0 49 -51v-74q0 -49 -49 -49h-51z" />
    <glyph glyph-name="k" unicode="k" horiz-adv-x="995" 
d="M160 51v1338q0 51 49 51h39q51 0 51 -51v-752h166l285 362q25 31 61 31h51q31 0 40 -18t-11 -43l-311 -387v-4l356 -517q16 -27 7 -44t-42 -17h-53q-39 0 -60 35l-321 479h-168v-463q0 -51 -51 -51h-39q-49 0 -49 51z" />
    <glyph glyph-name="l" unicode="l" horiz-adv-x="499" 
d="M395 -8q-235 0 -235 252v1145q0 51 49 51h39q51 0 51 -51v-1121q0 -59 19 -94q20 -35 38 -43t50 -12q43 -4 43 -45v-31q0 -51 -54 -51z" />
    <glyph glyph-name="m" unicode="m" horiz-adv-x="1855" 
d="M158 51v928q0 51 51 51h37q49 0 49 -51v-119l-8 -74h4q39 106 149 188q111 81 230 81q274 0 317 -258h4q45 104 151 181t228 77q182 -1 262 -101t80 -299v-604q0 -51 -51 -51h-37q-51 0 -51 51v570q0 145 -46 226q-45 81 -185 81t-238 -131t-98 -299v-447q0 -51 -50 -51
h-38q-51 0 -52 51v570q0 227 -101 282q-46 25 -116 25q-150 0 -251 -132t-101 -298v-447q0 -51 -49 -51h-39q-51 0 -51 51z" />
    <glyph glyph-name="n" unicode="n" horiz-adv-x="1196" 
d="M158 51v928q0 51 51 51h37q49 0 49 -51v-119l-8 -74h4q39 94 146 182q108 87 282 87q174 -1 254 -101t80 -299v-604q0 -51 -52 -51h-38q-49 0 -50 51v567q0 146 -45 226q-46 80 -196 80t-262 -121t-113 -299v-453q0 -51 -49 -51h-39q-51 0 -51 51z" />
    <glyph glyph-name="o" unicode="o" horiz-adv-x="1259" 
d="M229 518q0 -176 117 -297t284 -121q168 0 284 121t116 297t-117 294t-283 118t-284 -118q-117 -118 -117 -294zM86 518q0 229 159 383t385 154t385 -154t159 -383t-159 -386t-385 -157t-385 157t-159 386z" />
    <glyph glyph-name="p" unicode="p" horiz-adv-x="1189" 
d="M630 928q-142 0 -238 -104t-97 -292q0 -186 88 -309q89 -123 235 -123t241 112t95 300t-91 302t-233 114zM160 -358v1337q0 51 49 51h33q49 0 49 -47v-74l-6 -69h4l11 22q7 14 37 52q63 79 171 117q66 24 141 24q205 0 327 -150q122 -149 122 -391t-130 -390t-333 -149
q-136 0 -221 70t-107 119l-12 20h-4q8 -37 8 -90v-452q0 -51 -51 -52h-39q-49 1 -49 52z" />
    <glyph glyph-name="q" unicode="q" horiz-adv-x="1189" 
d="M236 516q0 -188 90 -302t233 -114t239 104t97 294q0 188 -85 309q-84 121 -234 121t-245 -112t-95 -300zM92 516q0 242 129 390t336 149q138 0 221 -68t111 -123l10 -20h4q-6 29 -6 69v72q0 45 51 45h33q49 0 49 -51v-1337q0 -51 -49 -52h-39q-51 0 -51 52v456l8 90h-4
l-11 -22q-7 -14 -37 -51q-114 -140 -313 -140q-200 -1 -321 149t-121 392z" />
    <glyph glyph-name="r" unicode="r" horiz-adv-x="692" 
d="M158 51v928q0 51 51 51h37q49 0 49 -51v-139l-8 -82h4q39 118 127 198t205 80q53 0 53 -49v-37q0 -51 -58 -51q-152 0 -236 -141t-85 -322v-385q0 -51 -49 -51h-39q-51 0 -51 51z" />
    <glyph glyph-name="s" unicode="s" horiz-adv-x="882" 
d="M111 766q0 137 100 213t258 76t274 -84q41 -25 15 -68l-15 -22q-23 -41 -69 -15q-96 66 -202 66q-222 0 -222 -160q0 -66 56 -110t137 -73q81 -30 162 -64q81 -33 137 -99t56 -176t-96 -193q-98 -82 -251 -82q-208 0 -349 119q-37 29 -8 70l17 20q27 35 69 9
q123 -94 273 -95q90 0 149 44q60 44 60 114t-56 116q-56 44 -138 72q-81 28 -163 64t-138 100t-56 158z" />
    <glyph glyph-name="t" unicode="t" horiz-adv-x="655" 
d="M199 371v534h-86q-49 0 -50 49v17q0 51 50 51h88v242q0 51 51 51h37q49 0 49 -51v-242h209q51 0 51 -51v-17q0 -49 -51 -49h-209v-516q0 -258 225 -270q31 -5 43 -15t12 -36v-27q0 -49 -57 -49q-170 0 -266 100t-96 279z" />
    <glyph glyph-name="u" unicode="u" horiz-adv-x="1187" 
d="M145 375v604q0 51 50 51h38q51 0 52 -51v-567q0 -146 44 -226t179 -80q170 0 275 127t106 304v442q0 51 51 51h39q49 0 49 -51v-928q0 -51 -49 -51h-37q-49 0 -49 51v119l6 74h-4q-37 -96 -144 -183q-108 -86 -275 -86q-167 -1 -249 97t-82 303z" />
    <glyph glyph-name="v" unicode="v" horiz-adv-x="978" 
d="M80 1030h45q43 0 55 -41l273 -715l34 -124h5q16 72 36 124l271 715q12 41 55 41h43q61 0 41 -59l-358 -932q-12 -39 -56 -39h-67q-44 0 -58 39l-358 932q-23 59 39 59z" />
    <glyph glyph-name="w" unicode="w" horiz-adv-x="1630" 
d="M90 1030h43q45 0 57 -43l236 -725l31 -110h4q16 61 33 110l239 723q12 41 58 41h49q45 0 57 -41l240 -723l32 -110h5q12 59 30 110l236 725q12 43 57 43h43q57 0 41 -57l-315 -930q-12 -43 -58 -43h-63q-45 0 -58 43l-239 690l-31 111h-4q-14 -59 -33 -111l-237 -690
q-12 -43 -58 -43h-63q-46 0 -60 43l-315 930q-16 57 43 57z" />
    <glyph glyph-name="x" unicode="x" horiz-adv-x="958" 
d="M131 1030h51q39 0 58 -35l202 -311l35 -59h4q18 33 35 59l201 311q20 35 59 35h51q31 0 40 -17t-7 -44l-293 -432l322 -476q16 -27 7 -44t-40 -17h-49q-39 0 -59 35l-232 352l-35 57h-4q-16 -29 -35 -57l-231 -352q-20 -35 -59 -35h-50q-33 0 -42 17q-8 17 8 44l321 476
l-291 432q-16 27 -7 44t40 17z" />
    <glyph glyph-name="y" unicode="y" horiz-adv-x="1005" 
d="M74 1030h47q43 0 57 -39l289 -712l37 -109h4q14 57 35 109l282 710q14 41 58 41h45q58 0 41 -59l-486 -1180q-41 -102 -118 -162q-79 -59 -163 -59t-157 37q-45 20 -22 65l12 23q20 39 61 24q59 -27 90 -26q119 0 193 170l61 145l-405 963q-10 27 0 43t39 16z" />
    <glyph glyph-name="z" unicode="z" horiz-adv-x="1005" 
d="M70 45v14q0 33 20 60l553 694l82 94v4q-35 -4 -102 -4h-480q-49 0 -49 49v23q0 51 49 51h721q49 0 49 -45v-14q0 -33 -20 -60l-555 -694l-84 -94v-4q37 4 104 4h527q49 0 49 -49v-23q0 -51 -49 -51h-766q-49 0 -49 45z" />
    <glyph glyph-name="braceleft" unicode="{" horiz-adv-x="628" 
d="M236 170v195q0 166 -134 221q-41 25 -41 55v41q0 31 41 55q133 49 134 224v167q0 115 31 194q32 79 80 113q85 60 159 60h16q49 0 49 -49v-19q0 -51 -49 -51t-86 -31q-71 -60 -71 -225v-196q0 -115 -55 -176t-93 -76l-16 -8v-5q20 -7 53 -28q108 -71 111 -232v-223
q0 -166 63 -218q46 -38 94 -38q49 0 49 -49v-18q0 -51 -49 -52h-16q-73 0 -159 61q-47 34 -79 114t-32 194z" />
    <glyph glyph-name="bar" unicode="|" horiz-adv-x="479" 
d="M176 -270v1835q0 49 49 49h29q51 0 51 -49v-1835q0 -51 -51 -52h-29q-49 1 -49 52z" />
    <glyph glyph-name="braceright" unicode="}" horiz-adv-x="630" 
d="M57 -129q0 49 49 49t87 31q71 59 71 225v223q0 120 55 180t109 80v5q-21 7 -54 31q-108 80 -110 229v196q0 168 -63 218q-46 38 -94 38q-49 0 -50 51v19q0 49 52 49h14q64 0 115 -30q52 -31 82 -67t52 -107t21 -163v-167q0 -174 135 -224q39 -23 39 -55v-41
q0 -33 -41 -55q-133 -55 -133 -221v-195q0 -115 -31 -195q-32 -79 -80 -113q-84 -58 -159 -61h-14q-51 0 -52 52v18z" />
    <glyph glyph-name="asciitilde" unicode="~" horiz-adv-x="1198" 
d="M184 428q-53 0 -47 70q29 248 256 247q116 0 192 -74q31 -32 61 -64q69 -75 146 -75q78 0 110 48t38 110q12 47 53 47h23q53 0 47 -53q-20 -264 -256 -264q-76 0 -134 34t-89 72q-86 106 -185 107q-124 0 -139 -158q-12 -47 -55 -47h-21z" />
    <glyph glyph-name="uni00A0" unicode="&#xa0;" horiz-adv-x="512" 
 />
    <glyph glyph-name="exclamdown" unicode="&#xa1;" horiz-adv-x="501" 
d="M328 977v-59q0 -51 -49 -52h-62q-49 0 -49 52v59q0 51 49 51h62q49 0 49 -51zM264 651q51 0 51 -49l7 -962q0 -51 -52 -52h-43q-49 0 -49 52l6 962q0 49 49 49h31z" />
    <glyph glyph-name="cent" unicode="&#xa2;" horiz-adv-x="1136" 
d="M539 25v122q-205 23 -318 182t-113 391t113 391t318 181v121q0 51 49 51h16q49 0 49 -45v-127q117 -12 211 -81t150 -175q23 -45 -27 -65l-37 -15q-39 -14 -65 25q-101 180 -277 180t-265 -123q-89 -122 -89 -318t88 -318t265 -122t278 181q25 39 65 22l37 -14
q49 -20 27 -66q-58 -106 -150 -176t-211 -80v-122q0 -51 -49 -52h-16q-49 1 -49 52z" />
    <glyph glyph-name="sterling" unicode="&#xa3;" 
d="M111 51v25q0 51 51 51h80v541h-49q-49 0 -50 49v12q0 51 50 51h49v305q0 162 119 271q121 108 289 108t294 -86q43 -29 6 -69l-20 -27q-29 -33 -70 -8q-98 57 -212 57t-188 -73q-75 -73 -75 -181v-297h342q49 0 49 -51v-12q0 -49 -49 -49h-342v-541h643q51 0 51 -51v-25
q0 -51 -51 -51h-866q-51 0 -51 51z" />
    <glyph glyph-name="yen" unicode="&#xa5;" horiz-adv-x="1185" 
d="M240 432q-51 0 -52 47v13q0 45 52 45h282v79l-57 101h-225q-51 0 -52 45v12q0 47 48 47h170l-326 559q-14 25 -4 42t41 18h51q41 0 59 -37l277 -475l88 -183h4q43 100 88 183l277 475q18 37 57 37h53q31 0 41 -18t-4 -42l-328 -559h164q51 0 51 -47v-12q0 -45 -51 -45
h-223l-55 -101v-79h278q51 0 51 -45v-13q0 -47 -51 -47h-278v-381q0 -51 -50 -51h-43q-51 0 -51 51v381h-282z" />
    <glyph glyph-name="section" unicode="&#xa7;" horiz-adv-x="843" 
d="M354 -4q98 0 162 60q63 60 64 163q0 35 -9 66l-122 823q-10 55 45 55h20q47 0 55 -45l131 -844q6 -39 7 -71q1 -143 -97 -237t-256 -93q-109 0 -196 57q-44 27 -11 70l13 16q25 37 67 15q70 -35 127 -35zM496 1464q104 0 196 -55q43 -29 10 -72l-14 -16q-24 -35 -76 -7
t-132 28t-145 -59q-65 -58 -65 -161q0 -31 6 -61l127 -832q10 -55 -45 -55h-20q-47 0 -55 45l-133 844q-6 37 -7 72q-1 143 97 236t256 93z" />
    <glyph glyph-name="dieresis" unicode="&#xa8;" horiz-adv-x="1032" 
d="M348 1608q-49 0 -49 49v76q0 51 49 51h27q49 0 49 -51v-76q0 -49 -49 -49h-27zM657 1608q-49 0 -49 49v76q0 51 49 51h27q51 0 51 -51v-76q0 -49 -51 -49h-27z" />
    <glyph glyph-name="copyright" unicode="&#xa9;" horiz-adv-x="1685" 
d="M436 717q0 172 115 297t303 125t311 -148q27 -35 -6 -63l-20 -19q-33 -27 -64 11q-90 106 -222 106t-214 -90t-82 -217t82 -217t215 -90t223 106q33 35 62 8l18 -16q35 -29 8 -64q-129 -147 -315 -147t-300 123t-114 295zM236 720q0 -266 174 -450t432 -184t434 183
t176 451t-177 450q-177 184 -434 184t-431 -184t-174 -450zM1571 719q0 -311 -213 -527t-516 -217q-303 1 -515 217t-212 527t212 528t515 217t516 -217t213 -528z" />
    <glyph glyph-name="ordfeminine" unicode="&#xaa;" horiz-adv-x="823" 
d="M190 541q-49 0 -49 45v6q0 45 49 45h441q49 0 49 -45v-6q0 -45 -49 -45h-441zM394 881q68 1 118 67q49 66 49 148v18h-24q-276 0 -277 -127q0 -45 33 -75t101 -31zM428 1460q244 0 246 -252v-362q0 -51 -47 -51h-11q-47 0 -47 49v57h-4q-6 -13 -20 -33q-15 -20 -65 -53
t-126 -33t-142 52q-67 52 -67 143q0 227 392 227h24v8q0 152 -143 152q-70 0 -135 -37q-41 -18 -67 22t20 62q88 49 192 49z" />
    <glyph glyph-name="guillemotleft" unicode="&#xab;" horiz-adv-x="1009" 
d="M481 999q33 0 41 -17t-12 -44l-287 -360l287 -359q20 -27 13 -44t-38 -17h-39q-38 -1 -61 28l-283 357q-31 35 0 69l283 359q23 29 61 28h35zM850 999q33 0 41 -17t-12 -44l-287 -360l287 -359q20 -27 13 -44t-38 -17h-39q-39 0 -61 28l-283 357q-31 35 0 69l283 359
q23 29 61 28h35z" />
    <glyph glyph-name="logicalnot" unicode="&#xac;" horiz-adv-x="1275" 
d="M209 700q-51 0 -51 50v18q0 51 51 51h854q49 0 49 -51v-395q0 -49 -49 -49h-25q-49 0 -49 49v327h-780z" />
    <glyph glyph-name="uni00AD" unicode="&#xad;" horiz-adv-x="866" 
d="M193 518q-49 0 -50 49v27q0 51 50 51h481q49 0 49 -51v-27q0 -49 -49 -49h-481z" />
    <glyph glyph-name="registered" unicode="&#xae;" horiz-adv-x="1685" 
d="M713 735h147q66 0 104 39t38 108q0 70 -38 106t-102 36h-149v-289zM596 373v696q0 51 49 51h236q106 0 173 -66q66 -66 66 -160q0 -96 -44 -152t-105 -70v-4q8 -10 26 -45l125 -242q14 -27 5 -43t-37 -16h-25q-41 0 -57 36l-144 287h-151v-272q0 -51 -49 -51h-19
q-49 0 -49 51zM236 720q0 -266 174 -450t432 -184t434 183t176 451t-177 450q-177 184 -434 184t-431 -184t-174 -450zM1571 719q0 -311 -213 -527t-516 -217q-303 1 -515 217t-212 527t212 528t515 217t516 -217t213 -528z" />
    <glyph glyph-name="macron" unicode="&#xaf;" horiz-adv-x="1032" 
d="M315 1608q-51 0 -51 49v14q0 49 51 49h404q49 0 49 -49v-14q0 -49 -49 -49h-404z" />
    <glyph glyph-name="degree" unicode="&#xb0;" horiz-adv-x="761" 
d="M381 1008q70 0 118 49t48 120t-48 121t-118 50t-118 -50t-48 -122q0 -70 48 -119t118 -49zM380 893q-120 0 -204 83t-84 201q0 117 85 201t204 84t203 -84t84 -202t-84 -200q-84 -83 -204 -83z" />
    <glyph glyph-name="plusminus" unicode="&#xb1;" horiz-adv-x="1241" 
d="M174 -213h893q51 0 51 -51v-19q0 -49 -51 -49h-893q-51 0 -51 49v19q0 51 51 51zM137 522q-51 0 -51 49v19q0 51 51 51h422v471q0 51 49 51h27q49 0 49 -51v-471h420q51 0 51 -51v-19q0 -49 -51 -49h-420v-471q0 -51 -49 -51h-27q-49 0 -49 51v471h-422z" />
    <glyph glyph-name="twosuperior" unicode="&#xb2;" horiz-adv-x="712" 
d="M117 866q-51 0 -51 72t32 138t101 122q68 57 188 136q121 80 121 182q0 66 -47 112t-123 45q-76 0 -145 -65q-39 -33 -76 4t-2 67q98 99 227 99t206 -74t77 -172q0 -172 -152 -272q-63 -43 -127 -82q-155 -95 -160 -209h404q49 0 49 -47v-7q0 -49 -49 -49h-473z" />
    <glyph glyph-name="threesuperior" unicode="&#xb3;" horiz-adv-x="722" 
d="M322 846q-144 0 -244 100q-39 33 4 76q27 33 68 4q78 -74 168 -74t148 52t58 131q0 78 -59 125t-137 47h-33q-39 1 -52 31t13 63l176 205l49 51v4q-37 -6 -75 -6h-265q-49 0 -49 49v6q0 47 49 47h439q51 0 51 -37v-8q0 -29 -25 -55l-219 -256q102 -12 178 -78
q76 -67 76 -187t-88 -205q-87 -85 -231 -85z" />
    <glyph glyph-name="acute" unicode="&#xb4;" horiz-adv-x="1032" 
d="M430 1540q-29 0 -39 18t6 39l90 152q20 35 60 35h47q33 0 40 -18t-11 -44l-109 -149q-25 -33 -61 -33h-23z" />
    <glyph glyph-name="mu" unicode="&#xb5;" horiz-adv-x="1275" 
d="M188 -358v1337q0 51 50 51h38q51 0 52 -51v-567q0 -146 44 -226t177 -80q172 0 277 127t106 304v442q0 51 51 51h39q49 0 49 -51v-928q0 -51 -49 -51h-37q-49 0 -49 51v111l2 74h-4q-20 -51 -83 -121q-125 -140 -321 -140q-74 0 -130 22t-74 44l-19 20h-4
q12 -104 12 -155v-264q0 -51 -49 -52h-28q-50 1 -50 52z" />
    <glyph glyph-name="paragraph" unicode="&#xb6;" horiz-adv-x="1155" 
d="M811 -51v1190q0 51 51 51h17q51 0 51 -51v-1190q0 -51 -51 -51h-17q-51 0 -51 51zM567 -51v545q-201 0 -345 138t-144 337t143 335t344 136h441q49 0 49 -51v-25q0 -51 -49 -51h-322v-1364q0 -51 -49 -51h-19q-49 0 -49 51z" />
    <glyph glyph-name="periodcentered" unicode="&#xb7;" horiz-adv-x="450" 
d="M195 506q-51 0 -52 49v70q0 51 52 51h63q49 0 49 -51v-70q0 -49 -49 -49h-63z" />
    <glyph glyph-name="cedilla" unicode="&#xb8;" horiz-adv-x="1032" 
d="M557 -256q0 63 -100 72q-18 2 -29 16q-10 14 -6 37l39 166h88l-27 -148q64 -10 104 -48q40 -37 40 -109t-56 -111t-148 -39q-91 0 -91 50t32 51l54 -7q100 0 100 70z" />
    <glyph glyph-name="onesuperior" unicode="&#xb9;" horiz-adv-x="591" 
d="M115 866q-51 0 -52 49v7q0 47 48 47h147v592l2 49h-2q-8 -14 -41 -49l-55 -54q-29 -27 -58 2l-12 13q-31 35 6 69l140 142q27 25 63 24h21q49 0 49 -49v-739h139q49 0 49 -47v-7q0 -49 -49 -49h-395z" />
    <glyph glyph-name="ordmasculine" unicode="&#xba;" horiz-adv-x="940" 
d="M211 541q-49 0 -49 45v6q0 45 49 45h520q51 0 51 -45v-6q0 -45 -51 -45h-520zM469 889q96 -1 163 67q66 68 66 169t-66 168q-67 67 -163 67t-163 -67q-66 -67 -66 -168t66 -169q67 -67 163 -67zM469 784q-143 0 -243 98t-99 242q0 142 99 240q100 98 242 98t242 -97
t101 -241t-99 -242t-243 -98z" />
    <glyph glyph-name="guillemotright" unicode="&#xbb;" horiz-adv-x="1009" 
d="M162 158q-33 0 -41 17t12 44l285 359l-285 360q-20 27 -13 44t40 17h37q35 0 61 -28l283 -359q31 -35 0 -69l-283 -357q-27 -29 -61 -28h-35zM526 999h37q37 0 64 -28l282 -359q31 -35 0 -69l-282 -357q-27 -29 -64 -28h-33q-33 0 -41 17q-7 17 11 44l286 359l-286 360
q-20 27 -13 44q8 17 39 17z" />
    <glyph glyph-name="onequarter" unicode="&#xbc;" horiz-adv-x="1880" 
d="M160 549q-51 0 -51 49v6q0 47 47 47h147v592l2 49h-2q-8 -14 -41 -49l-55 -53q-29 -27 -57 2q-47 44 -7 82l140 141q27 25 63 25h21q49 0 49 -49v-740h139q49 0 49 -47v-6q0 -49 -49 -49h-395zM586 0h-21q-27 0 -35 16t5 43l641 1342q18 39 59 39h18q27 0 36 -16t-5 -44
l-641 -1341q-14 -39 -57 -39zM1264 336h295v278l6 127h-4q-31 -55 -66 -100l-231 -301v-4zM1608 0q-49 0 -49 51v182h-383q-51 0 -52 39v15q0 25 21 51l391 522q23 31 61 31h23q51 0 51 -49v-506h88q47 0 47 -47v-6q0 -49 -47 -50h-88v-182q0 -51 -51 -51h-12z" />
    <glyph glyph-name="onehalf" unicode="&#xbd;" horiz-adv-x="1851" 
d="M156 549q-51 0 -52 49v6q0 47 48 47h147v592l2 49h-2q-8 -14 -41 -49l-55 -53q-29 -27 -58 2l-12 12q-31 35 6 70l140 141q29 25 63 25h20q49 0 50 -49v-740h139q49 0 49 -47v-6q0 -49 -49 -49h-395zM584 0h-21q-27 0 -35 16t4 43l642 1342q18 39 59 39h18q27 0 36 -16
t-5 -44l-641 -1341q-14 -39 -57 -39zM1233 0q-51 0 -51 72t32 137q33 67 82 107q79 65 203 149q125 84 125 184q0 66 -47 112t-123 46t-145 -66q-39 -33 -76 4t-2 68q98 98 227 98q129 1 206 -73t77 -172q0 -170 -152 -273q-63 -43 -127 -82q-156 -96 -159 -209h403
q49 0 49 -47v-6q0 -49 -49 -49h-473z" />
    <glyph glyph-name="threequarters" unicode="&#xbe;" horiz-adv-x="1918" 
d="M625 0h-21q-27 0 -35 16t4 43l641 1342q18 39 60 39h18q27 0 36 -16t-5 -44l-641 -1341q-14 -39 -57 -39zM356 528q-144 0 -243 101q-37 31 -4 67l8 9q27 33 67 4q78 -74 168 -74t149 52q58 52 58 130t-59 125t-138 47h-32q-39 0 -51 31q-14 31 12 63l176 205l49 51v4
q-37 -6 -76 -6h-264q-49 0 -49 49v7q0 47 49 47h438q51 0 52 -37v-8q0 -27 -25 -56l-219 -256q102 -11 178 -77t76 -187t-88 -206t-232 -85zM1303 336h294v278l7 127h-5q-31 -55 -65 -100l-231 -301v-4zM1647 0q-49 0 -50 51v182h-383q-51 0 -51 39v15q0 25 21 51l391 522
q23 31 61 31h23q51 0 51 -49v-506h88q47 0 47 -47v-6q0 -49 -47 -50h-88v-182q0 -51 -51 -51h-12z" />
    <glyph glyph-name="questiondown" unicode="&#xbf;" horiz-adv-x="927" 
d="M662 977v-59q0 -51 -50 -52h-61q-49 0 -49 52v59q0 51 49 51h61q50 0 50 -51zM600 651q51 0 51 -51v-47q0 -86 -37 -158t-90 -121t-105 -96q-126 -114 -126 -248q0 -100 76 -168q77 -68 189 -68t210 60q47 25 70 -12l16 -25q33 -43 -10 -69q-129 -86 -297 -86t-285 102
t-117 266t127 287q53 51 107 98q130 115 133 244l2 49q2 43 47 43h39z" />
    <glyph glyph-name="Agrave" unicode="&#xc0;" horiz-adv-x="1247" 
d="M600 1540q-37 0 -61 33l-109 149q-18 27 -11 44t40 18h47q39 0 59 -35l90 -152q13 -23 7 -39t-33 -18h-29zM375 582h495l-190 522l-53 188h-4q-33 -121 -56 -188zM590 1440h67q43 0 56 -41l495 -1340q16 -59 -41 -59h-45q-45 0 -57 41l-154 418h-577l-152 -418
q-12 -41 -57 -41h-43q-59 0 -43 59l496 1340q12 41 55 41z" />
    <glyph glyph-name="Aacute" unicode="&#xc1;" horiz-adv-x="1247" 
d="M623 1540q-29 0 -39 18t6 39l90 152q20 35 59 35h47q33 0 40 -18t-11 -44l-108 -149q-25 -33 -62 -33h-22zM375 582h495l-190 522l-53 188h-4q-33 -121 -56 -188zM590 1440h67q43 0 56 -41l495 -1340q16 -59 -41 -59h-45q-45 0 -57 41l-154 418h-577l-152 -418
q-12 -41 -57 -41h-43q-59 0 -43 59l496 1340q12 41 55 41z" />
    <glyph glyph-name="Acircumflex" unicode="&#xc2;" horiz-adv-x="1247" 
d="M442 1540q-30 0 -36 18t10 44l106 149q25 33 62 33h75q37 0 64 -33l104 -149q19 -27 13 -44t-35 -18h-35q-35 0 -55 35l-90 131h-4l-91 -131q-20 -35 -57 -35h-31zM375 582h495l-190 522l-53 188h-4q-33 -121 -56 -188zM590 1440h67q43 0 56 -41l495 -1340
q16 -59 -41 -59h-45q-45 0 -57 41l-154 418h-577l-152 -418q-12 -41 -57 -41h-43q-59 0 -43 59l496 1340q12 41 55 41z" />
    <glyph glyph-name="Atilde" unicode="&#xc3;" horiz-adv-x="1247" 
d="M352 1546q-45 0 -45 53q0 83 50 135q49 52 113 52q104 0 167 -74q62 -74 107 -74q82 0 87 103q0 39 48 39h16q43 0 43 -47q0 -89 -48 -141t-120 -52t-118 37q-48 37 -85 73t-73 36t-59 -31q-22 -31 -21 -74q-4 -35 -47 -35h-15zM375 582h495l-190 522l-53 188h-4
q-33 -121 -56 -188zM590 1440h67q43 0 56 -41l495 -1340q16 -59 -41 -59h-45q-45 0 -57 41l-154 418h-577l-152 -418q-12 -41 -57 -41h-43q-59 0 -43 59l496 1340q12 41 55 41z" />
    <glyph glyph-name="Adieresis" unicode="&#xc4;" horiz-adv-x="1247" 
d="M455 1608q-49 0 -49 49v76q0 51 49 51h26q49 0 49 -51v-76q0 -49 -49 -49h-26zM764 1608q-49 0 -49 49v76q0 51 49 51h27q51 0 51 -51v-76q0 -49 -51 -49h-27zM375 582h495l-190 522l-53 188h-4q-33 -121 -56 -188zM590 1440h67q43 0 56 -41l495 -1340q16 -59 -41 -59
h-45q-45 0 -57 41l-154 418h-577l-152 -418q-12 -41 -57 -41h-43q-59 0 -43 59l496 1340q12 41 55 41z" />
    <glyph glyph-name="Aring" unicode="&#xc5;" horiz-adv-x="1247" 
d="M557 1664q1 -30 19 -50t48 -19q30 -1 48 19t18 50t-18 49t-48 19t-48 -18q-18 -20 -19 -50zM623 1518q-63 0 -109 41q-45 41 -45 104t45 104q44 41 108 41t110 -41t46 -104t-46 -104t-109 -41zM375 582h495l-190 522l-53 188h-4q-33 -121 -56 -188zM590 1440h67
q43 0 56 -41l495 -1340q16 -59 -41 -59h-45q-45 0 -57 41l-154 418h-577l-152 -418q-12 -41 -57 -41h-43q-59 0 -43 59l496 1340q12 41 55 41z" />
    <glyph glyph-name="AE" unicode="&#xc6;" horiz-adv-x="1705" 
d="M774 786v527h-84l-215 -527h299zM641 1440h893q51 0 51 -51v-25q0 -51 -51 -51h-619v-525h498q49 0 49 -49v-26q0 -51 -49 -51h-498v-535h656q51 0 51 -51v-25q0 -51 -51 -51h-746q-51 0 -51 51v613h-348l-254 -625q-14 -39 -57 -39h-45q-29 0 -39 16t0 43l553 1342
q14 39 57 39z" />
    <glyph glyph-name="Ccedilla" unicode="&#xc7;" horiz-adv-x="1458" 
d="M874 -256q0 63 -100 72q-18 2 -29 16q-10 14 -6 37l25 111q-295 26 -476 236q-182 210 -182 519t204 519t505 210t498 -153q35 -29 8 -72l-18 -27q-29 -37 -70 -8q-182 127 -399 127q-258 0 -419 -171t-161 -431t162 -440t411 -180t441 155q39 33 69 -6l19 -22
q31 -37 -4 -72q-207 -182 -496 -189l-16 -88q63 -10 103 -48q40 -37 40 -109t-56 -111q-55 -39 -147 -39t-92 50t33 51l53 -7q100 0 100 70z" />
    <glyph glyph-name="Egrave" unicode="&#xc8;" horiz-adv-x="1132" 
d="M606 1540q-37 0 -61 33l-109 149q-18 27 -11 44t40 18h47q39 0 59 -35l91 -152q14 -23 7 -39t-34 -18h-29zM201 51v1338q0 51 49 51h711q51 0 51 -51v-25q0 -51 -51 -51h-619v-525h496q51 0 51 -49v-26q0 -51 -51 -51h-496v-535h655q51 0 52 -51v-25q0 -51 -52 -51h-747
q-49 0 -49 51z" />
    <glyph glyph-name="Eacute" unicode="&#xc9;" horiz-adv-x="1132" 
d="M201 51v1338q0 51 49 51h711q51 0 51 -51v-25q0 -51 -51 -51h-619v-525h496q51 0 51 -49v-26q0 -51 -51 -51h-496v-535h655q51 0 52 -51v-25q0 -51 -52 -51h-747q-49 0 -49 51zM627 1540q-29 0 -39 18t6 39l90 152q20 35 59 35h48q33 0 39 -18t-11 -44l-108 -149
q-25 -33 -62 -33h-22z" />
    <glyph glyph-name="Ecircumflex" unicode="&#xca;" horiz-adv-x="1132" 
d="M201 51v1338q0 51 49 51h711q51 0 51 -51v-25q0 -51 -51 -51h-619v-525h496q51 0 51 -49v-26q0 -51 -51 -51h-496v-535h655q51 0 52 -51v-25q0 -51 -52 -51h-747q-49 0 -49 51zM449 1540q-29 0 -36 18t9 44l106 149q25 33 62 33h76q37 0 63 -33l105 -149q18 -27 12 -44
t-35 -18h-35q-35 0 -55 35l-90 131h-4l-90 -131q-20 -35 -58 -35h-30z" />
    <glyph glyph-name="Edieresis" unicode="&#xcb;" horiz-adv-x="1132" 
d="M201 51v1338q0 51 49 51h711q51 0 51 -51v-25q0 -51 -51 -51h-619v-525h496q51 0 51 -49v-26q0 -51 -51 -51h-496v-535h655q51 0 52 -51v-25q0 -51 -52 -51h-747q-49 0 -49 51zM461 1608q-49 0 -49 49v76q0 51 49 51h26q49 0 50 -51v-76q0 -49 -50 -49h-26zM770 1608
q-49 0 -49 49v76q0 51 49 51h27q51 0 51 -51v-76q0 -49 -51 -49h-27z" />
    <glyph glyph-name="Igrave" unicode="&#xcc;" horiz-adv-x="542" 
d="M250 1540q-37 0 -62 33l-108 149q-18 27 -11 44t40 18h47q39 0 59 -35l90 -152q14 -23 7 -39t-33 -18h-29zM201 51v1338q0 51 49 51h43q49 0 49 -51v-1338q0 -51 -49 -51h-43q-49 0 -49 51z" />
    <glyph glyph-name="Iacute" unicode="&#xcd;" horiz-adv-x="542" 
d="M272 1540q-29 0 -39 18t7 39l90 152q20 35 59 35h47q33 0 40 -18t-11 -44l-109 -149q-25 -33 -61 -33h-23zM201 51v1338q0 51 49 51h43q49 0 49 -51v-1338q0 -51 -49 -51h-43q-49 0 -49 51z" />
    <glyph glyph-name="Icircumflex" unicode="&#xce;" horiz-adv-x="542" 
d="M94 1540q-29 0 -36 18t10 44l106 149q25 33 62 33h75q37 0 64 -33l104 -149q19 -27 13 -44t-35 -18h-35q-35 0 -55 35l-91 131h-4l-90 -131q-20 -35 -57 -35h-31zM201 51v1338q0 51 49 51h43q49 0 49 -51v-1338q0 -51 -49 -51h-43q-49 0 -49 51z" />
    <glyph glyph-name="Idieresis" unicode="&#xcf;" horiz-adv-x="542" 
d="M106 1608q-49 0 -49 49v76q0 51 49 51h27q49 0 49 -51v-76q0 -49 -49 -49h-27zM416 1608q-49 0 -49 49v76q0 51 49 51h26q51 0 52 -51v-76q0 -49 -52 -49h-26zM201 51v1338q0 51 49 51h43q49 0 49 -51v-1338q0 -51 -49 -51h-43q-49 0 -49 51z" />
    <glyph glyph-name="Eth" unicode="&#xd0;" horiz-adv-x="1497" 
d="M342 127h309q270 0 430 155q160 154 160 438t-160 438t-430 155h-309v-529h293q51 0 51 -49v-22q0 -51 -49 -51h-295v-535zM201 51v611h-72q-49 0 -49 51v22q0 49 39 49h82v605q0 51 51 51h414q328 0 526 -192t197 -529q0 -339 -197 -529t-526 -190h-414q-51 0 -51 51z
" />
    <glyph glyph-name="Ntilde" unicode="&#xd1;" horiz-adv-x="1525" 
d="M492 1546q-45 0 -46 53q0 83 50 135t114 52q106 0 167 -74t106 -74q81 0 88 103q0 39 47 39h16q43 0 43 -47q0 -89 -48 -141q-47 -52 -119 -52t-119 37t-84 73t-74 36t-59 -31t-21 -74q-4 -35 -47 -35h-14zM201 51v1338q0 51 49 51h49q37 0 61 -33l713 -1004l119 -194h4
q-12 119 -12 194v986q0 51 51 51h41q49 0 49 -51v-1338q0 -51 -49 -51h-49q-39 0 -60 33l-714 1003l-119 195h-4q12 -119 12 -195v-985q0 -51 -49 -51h-43q-49 0 -49 51z" />
    <glyph glyph-name="Ograve" unicode="&#xd2;" horiz-adv-x="1673" 
d="M813 1540q-37 0 -61 33l-109 149q-18 27 -11 44t40 18h47q39 0 59 -35l90 -152q14 -23 8 -39t-34 -18h-29zM250 726q0 -261 167 -439t419 -178t418 178t167 439q0 261 -167 433q-166 172 -418 172t-419 -172t-167 -433zM102 726q0 314 210 526t524 212t524 -212
q209 -212 209 -527t-209 -532t-523 -217q-315 0 -525 218t-210 532z" />
    <glyph glyph-name="Oacute" unicode="&#xd3;" horiz-adv-x="1673" 
d="M250 726q0 -261 167 -439t419 -178t418 178t167 439q0 261 -167 433q-166 172 -418 172t-419 -172t-167 -433zM102 726q0 314 210 526t524 212t524 -212q209 -212 209 -527t-209 -532t-523 -217q-315 0 -525 218t-210 532zM834 1540q-29 0 -39 18t6 39l90 152
q20 35 59 35h47q33 0 40 -18t-11 -44l-108 -149q-25 -33 -62 -33h-22z" />
    <glyph glyph-name="Ocircumflex" unicode="&#xd4;" horiz-adv-x="1673" 
d="M250 726q0 -261 167 -439t419 -178t418 178t167 439q0 261 -167 433q-166 172 -418 172t-419 -172t-167 -433zM102 726q0 314 210 526t524 212t524 -212q209 -212 209 -527t-209 -532t-523 -217q-315 0 -525 218t-210 532zM655 1540q-29 0 -35 18t9 44l106 149
q25 33 62 33h75q37 0 64 -33l104 -149q18 -27 12 -44t-34 -18h-35q-35 0 -55 35l-90 131h-4l-91 -131q-20 -35 -57 -35h-31z" />
    <glyph glyph-name="Otilde" unicode="&#xd5;" horiz-adv-x="1673" 
d="M565 1546q-45 0 -45 53q0 83 50 135t114 52q104 0 166 -74t107 -74q82 0 87 103q0 39 48 39h16q43 0 43 -47q0 -89 -48 -141q-47 -52 -119 -52t-120 37t-84 73q-38 36 -74 36t-58 -31t-21 -74q-4 -35 -47 -35h-15zM250 726q0 -261 167 -439t419 -178t418 178t167 439
q0 261 -167 433q-166 172 -418 172t-419 -172t-167 -433zM102 726q0 314 210 526t524 212t524 -212q209 -212 209 -527t-209 -532t-523 -217q-315 0 -525 218t-210 532z" />
    <glyph glyph-name="Odieresis" unicode="&#xd6;" horiz-adv-x="1673" 
d="M250 726q0 -261 167 -439t419 -178t418 178t167 439q0 261 -167 433q-166 172 -418 172t-419 -172t-167 -433zM102 726q0 314 210 526t524 212t524 -212q209 -212 209 -527t-209 -532t-523 -217q-315 0 -525 218t-210 532zM668 1608q-49 0 -50 49v76q0 51 50 51h26
q49 0 49 -51v-76q0 -49 -49 -49h-26zM977 1608q-49 0 -49 49v76q0 51 49 51h27q51 0 51 -51v-76q0 -49 -51 -49h-27z" />
    <glyph glyph-name="multiply" unicode="&#xd7;" horiz-adv-x="1241" 
d="M131 49q-33 33 -2 72l410 461l-410 460q-33 39 2 70l14 14q37 37 72 -2l404 -452l403 452q33 39 72 2l14 -14q35 -31 2 -70l-412 -460l412 -461q31 -39 -2 -72l-14 -12q-39 -37 -72 2l-403 453l-404 -453q-35 -39 -72 -2z" />
    <glyph glyph-name="Oslash" unicode="&#xd8;" horiz-adv-x="1671" 
d="M836 109q246 0 416 178q170 179 169 449q0 270 -196 446l-703 -981q139 -92 314 -92zM836 1331q-244 0 -415 -174q-171 -175 -171 -443t194 -446l699 975q-135 88 -307 88zM102 729q0 311 213 523t521 212q209 0 387 -110l67 96q31 41 74 10q41 -35 16 -63l-71 -103
q123 -102 191 -248t69 -317q0 -315 -213 -534t-520 -220q-213 0 -392 115l-69 -98q-31 -41 -74 -12q-41 30 -16 67l75 105q-121 104 -189 255q-69 151 -69 322z" />
    <glyph glyph-name="Ugrave" unicode="&#xd9;" horiz-adv-x="1464" 
d="M707 1540q-37 0 -62 33l-108 149q-40 60 28 62h47q39 0 60 -35l90 -152q14 -23 7 -39t-34 -18h-28zM180 502v887q0 51 51 51h41q51 0 52 -51v-885q0 -184 110 -290q111 -105 298 -105t298 106t111 293v881q0 51 51 51h41q49 0 49 -51v-887q0 -238 -152 -382t-398 -144
t-400 144q-152 144 -152 382z" />
    <glyph glyph-name="Uacute" unicode="&#xda;" horiz-adv-x="1464" 
d="M180 502v887q0 51 51 51h41q51 0 52 -51v-885q0 -184 110 -290q111 -105 298 -105t298 106t111 293v881q0 51 51 51h41q49 0 49 -51v-887q0 -238 -152 -382t-398 -144t-400 144q-152 144 -152 382zM729 1540q-29 0 -39 18t6 39l90 152q20 35 60 35h47q33 0 40 -18
t-11 -44l-109 -149q-25 -33 -61 -33h-23z" />
    <glyph glyph-name="Ucircumflex" unicode="&#xdb;" horiz-adv-x="1464" 
d="M180 502v887q0 51 51 51h41q51 0 52 -51v-885q0 -184 110 -290q111 -105 298 -105t298 106t111 293v881q0 51 51 51h41q49 0 49 -51v-887q0 -238 -152 -382t-398 -144t-400 144q-152 144 -152 382zM551 1540q-29 0 -36 18t9 44l107 149q25 33 61 33h76q37 0 63 -33
l105 -149q18 -27 12 -44t-35 -18h-34q-35 0 -56 35l-90 131h-4l-90 -131q-20 -35 -57 -35h-31z" />
    <glyph glyph-name="Udieresis" unicode="&#xdc;" horiz-adv-x="1464" 
d="M180 502v887q0 51 51 51h41q51 0 52 -51v-885q0 -184 110 -290q111 -105 298 -105t298 106t111 293v881q0 51 51 51h41q49 0 49 -51v-887q0 -238 -152 -382t-398 -144t-400 144q-152 144 -152 382zM563 1608q-49 0 -49 49v76q0 51 49 51h27q49 0 49 -51v-76
q0 -49 -49 -49h-27zM872 1608q-49 0 -49 49v76q0 51 49 51h27q51 0 51 -51v-76q0 -49 -51 -49h-27z" />
    <glyph glyph-name="Yacute" unicode="&#xdd;" horiz-adv-x="1134" 
d="M565 1540q-29 0 -39 18t6 39l91 152q20 35 59 35h47q33 0 40 -18t-11 -44l-109 -149q-25 -33 -61 -33h-23zM498 51v567l-453 762q-16 25 -6 42t41 18h51q41 0 59 -35l287 -487l88 -173h4q45 96 88 173l287 487q18 35 57 35h54q29 0 39 -18t-4 -42l-451 -762v-567
q0 -51 -51 -51h-41q-49 0 -49 51z" />
    <glyph glyph-name="Thorn" unicode="&#xde;" horiz-adv-x="1210" 
d="M342 436h338q145 0 231 83t86 229t-85 227q-85 82 -230 82h-340v-621zM201 51v1338q0 51 49 51h43q49 0 49 -49v-207h356q197 0 321 -119t124 -317t-125 -319q-125 -120 -322 -120h-354v-258q0 -51 -49 -51h-43q-49 0 -49 51z" />
    <glyph glyph-name="germandbls" unicode="&#xdf;" horiz-adv-x="1161" 
d="M160 51v1036q0 173 123 275t285 102t262 -90q99 -90 100 -215q0 -72 -36 -134t-78 -99q-114 -100 -114 -170q0 -77 200 -194q75 -44 137 -120t63 -163q0 -139 -96 -217t-238 -76q-142 0 -262 51q-39 12 -39 57v29q0 59 53 39q114 -51 220 -51q220 0 221 172
q-1 63 -63 123t-138 102q-76 40 -138 106t-62 132t35 120q36 55 78 92q42 36 78 90q35 54 35 118t-58 118q-58 55 -164 55q-106 -1 -185 -71q-80 -70 -80 -191v-1026q0 -51 -51 -51h-39q-49 0 -49 51z" />
    <glyph glyph-name="agrave" unicode="&#xe0;" horiz-adv-x="1040" 
d="M494 1198q-37 0 -62 33l-108 149q-40 60 28 62h47q39 0 60 -35l90 -152q14 -23 7 -40t-34 -17h-28zM213 278q0 -66 60 -126q60 -59 169 -60q141 0 229 119q87 119 87 266v49h-58q-386 0 -464 -140q-24 -42 -23 -108zM70 276q0 354 628 355h60v33q0 266 -254 266
q-131 0 -250 -72q-43 -23 -70 16l-12 21q-27 45 14 70q144 90 328 90q184 1 284 -101t99 -295v-608q0 -51 -49 -51h-33q-51 0 -51 51v82l6 78h-4q2 0 -10 -25q-12 -24 -39 -58q-75 -92 -151 -123q-76 -30 -148 -30q-141 0 -245 80q-103 80 -103 221z" />
    <glyph glyph-name="aacute" unicode="&#xe1;" horiz-adv-x="1040" 
d="M512 1198q-29 0 -39 17t6 40l90 152q20 35 60 35h47q33 0 40 -18t-11 -44l-109 -149q-25 -33 -61 -33h-23zM213 278q0 -66 60 -126q60 -59 169 -60q141 0 229 119q87 119 87 266v49h-58q-386 0 -464 -140q-24 -42 -23 -108zM70 276q0 354 628 355h60v33q0 266 -254 266
q-131 0 -250 -72q-43 -23 -70 16l-12 21q-27 45 14 70q144 90 328 90q184 1 284 -101t99 -295v-608q0 -51 -49 -51h-33q-51 0 -51 51v82l6 78h-4q2 0 -10 -25q-12 -24 -39 -58q-75 -92 -151 -123q-76 -30 -148 -30q-141 0 -245 80q-103 80 -103 221z" />
    <glyph glyph-name="acircumflex" unicode="&#xe2;" horiz-adv-x="1040" 
d="M336 1198q-29 0 -36 17t9 45l107 149q25 33 61 33h76q37 0 63 -33l105 -149q18 -26 12 -44t-35 -18h-34q-35 0 -56 35l-90 131h-4l-90 -131q-20 -35 -57 -35h-31zM213 278q0 -66 60 -126q60 -59 169 -60q141 0 229 119q87 119 87 266v49h-58q-386 0 -464 -140
q-24 -42 -23 -108zM70 276q0 354 628 355h60v33q0 266 -254 266q-131 0 -250 -72q-43 -23 -70 16l-12 21q-27 45 14 70q144 90 328 90q184 1 284 -101t99 -295v-608q0 -51 -49 -51h-33q-51 0 -51 51v82l6 78h-4q2 0 -10 -25q-12 -24 -39 -58q-75 -92 -151 -123
q-76 -30 -148 -30q-141 0 -245 80q-103 80 -103 221z" />
    <glyph glyph-name="atilde" unicode="&#xe3;" horiz-adv-x="1040" 
d="M246 1204q-45 0 -45 53q0 83 50 135q49 52 113 52q101 0 167 -74t108 -74q78 0 86 103q0 39 47 39h16q43 0 43 -47q0 -89 -48 -141t-132 -52q-47 0 -87 23t-64 51q-63 73 -106 72q-44 -2 -66 -32t-21 -73q-4 -35 -47 -35h-14zM213 278q0 -66 60 -126q60 -59 169 -60
q141 0 229 119q87 119 87 266v49h-58q-386 0 -464 -140q-24 -42 -23 -108zM70 276q0 354 628 355h60v33q0 266 -254 266q-131 0 -250 -72q-43 -23 -70 16l-12 21q-27 45 14 70q144 90 328 90q184 1 284 -101t99 -295v-608q0 -51 -49 -51h-33q-51 0 -51 51v82l6 78h-4
q2 0 -10 -25q-12 -24 -39 -58q-75 -92 -151 -123q-76 -30 -148 -30q-141 0 -245 80q-103 80 -103 221z" />
    <glyph glyph-name="adieresis" unicode="&#xe4;" horiz-adv-x="1040" 
d="M348 1266q-49 0 -49 49v76q0 51 49 51h27q49 0 49 -51v-76q0 -49 -49 -49h-27zM657 1266q-49 0 -49 49v76q0 51 49 51h27q51 0 51 -51v-76q0 -49 -51 -49h-27zM213 278q0 -66 60 -126q60 -59 169 -60q141 0 229 119q87 119 87 266v49h-58q-386 0 -464 -140
q-24 -42 -23 -108zM70 276q0 354 628 355h60v33q0 266 -254 266q-131 0 -250 -72q-43 -23 -70 16l-12 21q-27 45 14 70q144 90 328 90q184 1 284 -101t99 -295v-608q0 -51 -49 -51h-33q-51 0 -51 51v82l6 78h-4q2 0 -10 -25q-12 -24 -39 -58q-75 -92 -151 -123
q-76 -30 -148 -30q-141 0 -245 80q-103 80 -103 221z" />
    <glyph glyph-name="aring" unicode="&#xe5;" horiz-adv-x="1040" 
d="M517 1253q30 -1 48 19q19 20 19 50t-18 49t-49 19q-30 0 -48 -18q-18 -20 -18 -50t18 -50t48 -19zM516 1176q-63 0 -108 41t-46 104q0 63 46 104t108 41q64 0 110 -41t46 -104t-46 -104t-110 -41zM213 278q0 -66 60 -126q60 -59 169 -60q141 0 229 119q87 119 87 266v49
h-58q-386 0 -464 -140q-24 -42 -23 -108zM70 276q0 354 628 355h60v33q0 266 -254 266q-131 0 -250 -72q-43 -23 -70 16l-12 21q-27 45 14 70q144 90 328 90q184 1 284 -101t99 -295v-608q0 -51 -49 -51h-33q-51 0 -51 51v82l6 78h-4q2 0 -10 -25q-12 -24 -39 -58
q-75 -92 -151 -123q-76 -30 -148 -30q-141 0 -245 80q-103 80 -103 221z" />
    <glyph glyph-name="ae" unicode="&#xe6;" horiz-adv-x="1759" 
d="M215 289q0 -80 61 -138t170 -59q141 0 228 120q86 120 86 267v41h-121q-424 0 -424 -231zM1234 936q-126 0 -216 -80t-115 -231h627q-6 151 -88 231t-208 80zM692 625h66v39q0 266 -262 266q-129 0 -242 -72q-43 -23 -70 16l-12 21q-27 45 14 70q145 90 320 90
q276 0 348 -213h4q123 213 387 213q201 0 315 -133t113 -351q0 -23 -15 -37t-38 -14h-725q2 -200 110 -310q107 -110 265 -110t278 95q47 27 70 -15l12 -20q25 -43 -12 -70q-156 -115 -330 -115t-292 76t-177 211h-4q-18 -65 -95 -162q-44 -53 -121 -89t-173 -36
q-150 -1 -251 81t-101 217t82 222q126 130 536 130z" />
    <glyph glyph-name="ccedilla" unicode="&#xe7;" horiz-adv-x="1093" 
d="M90 524q0 226 155 378t369 153q214 0 359 -117q37 -29 6 -70l-14 -22q-25 -39 -70 -10q-123 94 -260 94q-172 0 -287 -117t-115 -298t116 -298t282 -117t297 109q39 31 67 -12l15 -21q23 -37 -13 -70q-158 -127 -352 -131l-16 -88q63 -10 103 -48q40 -37 40 -109
t-56 -111t-148 -39t-91 50q0 50 33 51l53 -7q100 0 101 70q0 63 -101 72q-19 2 -29 16t-6 37l27 113q-205 23 -335 169q-130 147 -130 373z" />
    <glyph glyph-name="egrave" unicode="&#xe8;" horiz-adv-x="1114" 
d="M580 1198q-37 0 -62 33l-108 149q-40 60 28 62h47q39 0 60 -35l90 -152q14 -23 7 -40t-34 -17h-28zM588 940q-127 0 -225 -86t-123 -238h647q-6 156 -89 240t-210 84zM629 -25q-231 -1 -385 151t-154 393t146 388t356 147q208 0 322 -133q114 -134 114 -358
q0 -23 -15 -37t-38 -14h-742q4 -190 119 -301t273 -111t278 95q43 27 68 -13l16 -24q23 -39 -14 -68q-156 -115 -344 -115z" />
    <glyph glyph-name="eacute" unicode="&#xe9;" horiz-adv-x="1114" 
d="M588 940q-127 0 -225 -86t-123 -238h647q-6 156 -89 240t-210 84zM629 -25q-231 -1 -385 151t-154 393t146 388t356 147q208 0 322 -133q114 -134 114 -358q0 -23 -15 -37t-38 -14h-742q4 -190 119 -301t273 -111t278 95q43 27 68 -13l16 -24q23 -39 -14 -68
q-156 -115 -344 -115zM596 1198q-29 0 -39 17t6 40l90 152q20 35 60 35h47q33 0 40 -18t-12 -44l-108 -149q-25 -33 -62 -33h-22z" />
    <glyph glyph-name="ecircumflex" unicode="&#xea;" horiz-adv-x="1114" 
d="M588 940q-127 0 -225 -86t-123 -238h647q-6 156 -89 240t-210 84zM629 -25q-231 -1 -385 151t-154 393t146 388t356 147q208 0 322 -133q114 -134 114 -358q0 -23 -15 -37t-38 -14h-742q4 -190 119 -301t273 -111t278 95q43 27 68 -13l16 -24q23 -39 -14 -68
q-156 -115 -344 -115zM418 1198q-29 0 -36 17t9 45l107 149q25 33 61 33h76q37 0 63 -33l105 -149q18 -26 12 -44t-35 -18h-35q-35 0 -55 35l-90 131h-4l-90 -131q-20 -35 -57 -35h-31z" />
    <glyph glyph-name="edieresis" unicode="&#xeb;" horiz-adv-x="1114" 
d="M588 940q-127 0 -225 -86t-123 -238h647q-6 156 -89 240t-210 84zM629 -25q-231 -1 -385 151t-154 393t146 388t356 147q208 0 322 -133q114 -134 114 -358q0 -23 -15 -37t-38 -14h-742q4 -190 119 -301t273 -111t278 95q43 27 68 -13l16 -24q23 -39 -14 -68
q-156 -115 -344 -115zM430 1266q-49 0 -49 49v76q0 51 49 51h27q49 0 49 -51v-76q0 -49 -49 -49h-27zM739 1266q-49 0 -49 49v76q0 51 49 51h27q51 0 51 -51v-76q0 -49 -51 -49h-27z" />
    <glyph glyph-name="igrave" unicode="&#xec;" horiz-adv-x="456" 
d="M207 1198q-37 0 -62 33l-108 149q-18 27 -11 44t40 18h47q39 0 59 -35l90 -152q14 -23 7 -40t-33 -17h-29zM158 51v928q0 51 51 51h39q49 0 49 -51v-928q0 -51 -49 -51h-39q-51 0 -51 51z" />
    <glyph glyph-name="iacute" unicode="&#xed;" horiz-adv-x="456" 
d="M158 51v928q0 51 51 51h39q49 0 49 -51v-928q0 -51 -49 -51h-39q-51 0 -51 51zM229 1198q-29 0 -39 17t7 40l90 152q20 35 59 35h47q33 0 40 -18t-11 -44l-109 -149q-25 -33 -61 -33h-23z" />
    <glyph glyph-name="icircumflex" unicode="&#xee;" horiz-adv-x="456" 
d="M158 51v928q0 51 51 51h39q49 0 49 -51v-928q0 -51 -49 -51h-39q-51 0 -51 51zM51 1198q-29 0 -36 17t10 45l106 149q25 33 62 33h75q37 0 64 -33l104 -149q18 -27 13 -45q-6 -17 -35 -17h-35q-35 0 -55 35l-91 131h-4l-90 -131q-20 -35 -57 -35h-31z" />
    <glyph glyph-name="idieresis" unicode="&#xef;" horiz-adv-x="456" 
d="M158 51v928q0 51 51 51h39q49 0 49 -51v-928q0 -51 -49 -51h-39q-51 0 -51 51zM63 1266q-49 0 -49 49v76q0 51 49 51h27q49 0 49 -51v-76q0 -49 -49 -49h-27zM373 1266q-49 0 -49 49v76q0 51 49 51h26q51 0 52 -51v-76q0 -49 -52 -49h-26z" />
    <glyph glyph-name="eth" unicode="&#xf0;" horiz-adv-x="1183" 
d="M928 514q0 150 -92 238q-92 86 -254 86t-254 -108t-92 -258q0 -152 90 -262t254 -110t256 132t92 282zM92 473q0 199 130 341t360 142q90 0 164 -28t102 -58l31 -28h4q-70 203 -256 329l-312 -141q-41 -20 -59 19l-8 16q-16 37 26 59l240 111q-96 51 -240 92
q-47 16 -32 64l6 20q16 47 63 35q209 -59 357 -146l217 99q45 20 59 -19l8 -18q16 -39 -26 -55l-162 -76q307 -244 307 -672q0 -218 -118 -393q-58 -86 -158 -138t-230 -53q-217 -1 -345 149t-128 349z" />
    <glyph glyph-name="ntilde" unicode="&#xf1;" horiz-adv-x="1196" 
d="M354 1204q-45 0 -45 53q0 83 50 135q49 52 113 52q102 0 168 -74t108 -74q78 0 86 103q0 39 47 39h16q43 0 43 -47q0 -89 -48 -141t-133 -52t-149 73t-108 73q-43 -2 -65 -32t-21 -73q-4 -35 -47 -35h-15zM158 51v928q0 51 51 51h37q49 0 49 -51v-119l-8 -74h4
q39 94 146 182q108 87 282 87q174 -1 254 -101t80 -299v-604q0 -51 -52 -51h-38q-49 0 -50 51v567q0 146 -45 226q-46 80 -196 80t-262 -121t-113 -299v-453q0 -51 -49 -51h-39q-51 0 -51 51z" />
    <glyph glyph-name="ograve" unicode="&#xf2;" horiz-adv-x="1259" 
d="M606 1198q-37 0 -61 33l-109 149q-18 27 -11 44t40 18h47q39 0 59 -35l91 -152q14 -23 7 -40t-34 -17h-29zM229 518q0 -176 117 -297t284 -121q168 0 284 121t116 297t-117 294t-283 118t-284 -118q-117 -118 -117 -294zM86 518q0 229 159 383t385 154t385 -154t159 -383
t-159 -386t-385 -157t-385 157t-159 386z" />
    <glyph glyph-name="oacute" unicode="&#xf3;" horiz-adv-x="1259" 
d="M229 518q0 -176 117 -297t284 -121q168 0 284 121t116 297t-117 294t-283 118t-284 -118q-117 -118 -117 -294zM86 518q0 229 159 383t385 154t385 -154t159 -383t-159 -386t-385 -157t-385 157t-159 386zM629 1198q-29 0 -39 17t6 40l90 152q20 35 59 35h48q33 0 40 -18
t-12 -44l-108 -149q-25 -33 -62 -33h-22z" />
    <glyph glyph-name="ocircumflex" unicode="&#xf4;" horiz-adv-x="1259" 
d="M229 518q0 -176 117 -297t284 -121q168 0 284 121t116 297t-117 294t-283 118t-284 -118q-117 -118 -117 -294zM86 518q0 229 159 383t385 154t385 -154t159 -383t-159 -386t-385 -157t-385 157t-159 386zM449 1198q-29 0 -36 17t9 45l106 149q25 33 62 33h76
q37 0 63 -33l105 -149q18 -26 12 -44t-35 -18h-35q-35 0 -55 35l-90 131h-4l-90 -131q-20 -35 -58 -35h-30z" />
    <glyph glyph-name="otilde" unicode="&#xf5;" horiz-adv-x="1259" 
d="M358 1204q-45 0 -45 53q1 83 51 135t114 52q101 0 166 -74q66 -74 108 -74q78 0 86 103q0 39 47 39h16q43 0 43 -47q0 -89 -48 -141t-133 -52t-149 73t-108 73q-43 -2 -65 -32t-21 -73q-4 -35 -47 -35h-15zM229 518q0 -176 117 -297t284 -121q168 0 284 121t116 297
t-117 294t-283 118t-284 -118q-117 -118 -117 -294zM86 518q0 229 159 383t385 154t385 -154t159 -383t-159 -386t-385 -157t-385 157t-159 386z" />
    <glyph glyph-name="odieresis" unicode="&#xf6;" horiz-adv-x="1259" 
d="M229 518q0 -176 117 -297t284 -121q168 0 284 121t116 297t-117 294t-283 118t-284 -118q-117 -118 -117 -294zM86 518q0 229 159 383t385 154t385 -154t159 -383t-159 -386t-385 -157t-385 157t-159 386zM461 1266q-49 0 -49 49v76q0 51 49 51h26q49 0 50 -51v-76
q0 -49 -50 -49h-26zM770 1266q-49 0 -49 49v76q0 51 49 51h27q51 0 51 -51v-76q0 -49 -51 -49h-27z" />
    <glyph glyph-name="divide" unicode="&#xf7;" horiz-adv-x="1241" 
d="M543 174v51q0 51 51 51h51q51 0 51 -51v-51q0 -49 -51 -49h-51q-51 0 -51 49zM170 522q-51 0 -51 49v19q0 51 51 51h901q51 0 51 -51v-19q0 -49 -51 -49h-901zM594 887q-51 0 -51 49v51q0 51 51 51h51q51 0 51 -51v-51q0 -49 -51 -49h-51z" />
    <glyph glyph-name="oslash" unicode="&#xf8;" horiz-adv-x="1261" 
d="M1032 517q0 175 -119 290l-469 -657q88 -49 189 -50q167 0 283 121t116 296zM231 514q0 -180 129 -305l476 663q-98 57 -203 58q-168 0 -285 -118t-117 -298zM88 520q0 227 159 381t384 154q152 0 280 -74l50 70q29 41 71 11t17 -65l-54 -77q181 -158 181 -394t-159 -394
q-159 -157 -384 -157q-147 0 -264 68l-50 -70q-29 -41 -71 -9t-17 65l52 71q-195 156 -195 420z" />
    <glyph glyph-name="ugrave" unicode="&#xf9;" horiz-adv-x="1187" 
d="M565 1198q-37 0 -61 33l-109 149q-18 27 -11 44t40 18h47q39 0 59 -35l91 -152q14 -23 7 -40t-34 -17h-29zM145 375v604q0 51 50 51h38q51 0 52 -51v-567q0 -146 44 -226t179 -80q170 0 275 127t106 304v442q0 51 51 51h39q49 0 49 -51v-928q0 -51 -49 -51h-37
q-49 0 -49 51v119l6 74h-4q-37 -96 -144 -183q-108 -86 -275 -86q-167 -1 -249 97t-82 303z" />
    <glyph glyph-name="uacute" unicode="&#xfa;" horiz-adv-x="1187" 
d="M145 375v604q0 51 50 51h38q51 0 52 -51v-567q0 -146 44 -226t179 -80q170 0 275 127t106 304v442q0 51 51 51h39q49 0 49 -51v-928q0 -51 -49 -51h-37q-49 0 -49 51v119l6 74h-4q-37 -96 -144 -183q-108 -86 -275 -86q-167 -1 -249 97t-82 303zM584 1198q-29 0 -39 17
t6 40l90 152q20 35 59 35h48q34 0 40 -18t-12 -44l-108 -149q-25 -33 -62 -33h-22z" />
    <glyph glyph-name="ucircumflex" unicode="&#xfb;" horiz-adv-x="1187" 
d="M145 375v604q0 51 50 51h38q51 0 52 -51v-567q0 -146 44 -226t179 -80q170 0 275 127t106 304v442q0 51 51 51h39q49 0 49 -51v-928q0 -51 -49 -51h-37q-49 0 -49 51v119l6 74h-4q-37 -96 -144 -183q-108 -86 -275 -86q-167 -1 -249 97t-82 303zM406 1198q-29 0 -36 17
t9 45l106 149q25 33 62 33h76q37 0 63 -33l105 -149q18 -26 12 -44t-35 -18h-35q-35 0 -55 35l-90 131h-4l-90 -131q-20 -35 -58 -35h-30z" />
    <glyph glyph-name="udieresis" unicode="&#xfc;" horiz-adv-x="1187" 
d="M145 375v604q0 51 50 51h38q51 0 52 -51v-567q0 -146 44 -226t179 -80q170 0 275 127t106 304v442q0 51 51 51h39q49 0 49 -51v-928q0 -51 -49 -51h-37q-49 0 -49 51v119l6 74h-4q-37 -96 -144 -183q-108 -86 -275 -86q-167 -1 -249 97t-82 303zM418 1266q-49 0 -49 49
v76q0 51 49 51h26q49 0 50 -51v-76q0 -49 -50 -49h-26zM727 1266q-49 0 -49 49v76q0 51 49 51h27q51 0 51 -51v-76q0 -49 -51 -49h-27z" />
    <glyph glyph-name="yacute" unicode="&#xfd;" horiz-adv-x="1005" 
d="M504 1196q-29 0 -39 17t6 40l90 152q20 35 60 35h47q33 0 40 -18t-12 -44l-108 -149q-25 -33 -62 -33h-22zM74 1030h47q43 0 57 -39l289 -712l37 -109h4q14 57 35 109l282 710q14 41 58 41h45q58 0 41 -59l-486 -1180q-41 -102 -118 -162q-79 -59 -163 -59t-157 37
q-45 20 -22 65l12 23q20 39 61 24q59 -27 90 -26q119 0 193 170l61 145l-405 963q-10 27 0 43t39 16z" />
    <glyph glyph-name="thorn" unicode="&#xfe;" horiz-adv-x="1191" 
d="M632 930q-144 0 -240 -104t-95 -294q0 -192 89 -312q88 -120 234 -120t241 114t95 300t-90 301t-234 115zM162 -358v1747q0 51 49 51h39q51 0 51 -51v-449l-4 -82h4l14 25q33 51 87 93q100 77 247 79q205 0 328 -150q123 -151 123 -391t-129 -390t-332 -149
q-140 0 -223 65t-105 112l-10 20h-4q4 -37 4 -90v-440q0 -51 -51 -52h-39q-49 1 -49 52z" />
    <glyph glyph-name="ydieresis" unicode="&#xff;" horiz-adv-x="1005" 
d="M340 1264q-49 0 -49 49v76q0 51 49 51h27q49 0 49 -51v-76q0 -49 -49 -49h-27zM649 1264q-49 0 -49 49v76q0 51 49 51h27q51 0 51 -51v-76q0 -49 -51 -49h-27zM74 1030h47q43 0 57 -39l289 -712l37 -109h4q14 57 35 109l282 710q14 41 58 41h45q58 0 41 -59l-486 -1180
q-41 -102 -118 -162q-79 -59 -163 -59t-157 37q-45 20 -22 65l12 23q20 39 61 24q59 -27 90 -26q119 0 193 170l61 145l-405 963q-10 27 0 43t39 16z" />
    <glyph glyph-name="Amacron" unicode="&#x100;" horiz-adv-x="1247" 
d="M422 1608q-51 0 -51 49v14q0 49 51 49h403q49 0 49 -49v-14q0 -49 -49 -49h-403zM375 582h495l-190 522l-53 188h-4q-33 -121 -56 -188zM590 1440h67q43 0 56 -41l495 -1340q16 -59 -41 -59h-45q-45 0 -57 41l-154 418h-577l-152 -418q-12 -41 -57 -41h-43q-59 0 -43 59
l496 1340q12 41 55 41z" />
    <glyph glyph-name="amacron" unicode="&#x101;" horiz-adv-x="1040" 
d="M315 1266q-51 0 -51 49v14q0 49 51 49h404q49 0 49 -49v-14q0 -49 -49 -49h-404zM213 278q0 -66 60 -126q60 -59 169 -60q141 0 229 119q87 119 87 266v49h-58q-386 0 -464 -140q-24 -42 -23 -108zM70 276q0 354 628 355h60v33q0 266 -254 266q-131 0 -250 -72
q-43 -23 -70 16l-12 21q-27 45 14 70q144 90 328 90q184 1 284 -101t99 -295v-608q0 -51 -49 -51h-33q-51 0 -51 51v82l6 78h-4q2 0 -10 -25q-12 -24 -39 -58q-75 -92 -151 -123q-76 -30 -148 -30q-141 0 -245 80q-103 80 -103 221z" />
    <glyph glyph-name="Abreve" unicode="&#x102;" horiz-adv-x="1247" 
d="M625 1534q-94 0 -166 60t-72 151q0 39 47 39h21q41 0 47 -37q12 -117 122 -117t121 117q8 37 48 37h20q47 0 47 -39q0 -88 -70 -150q-71 -61 -165 -61zM375 582h495l-190 522l-53 188h-4q-33 -121 -56 -188zM590 1440h67q43 0 56 -41l495 -1340q16 -59 -41 -59h-45
q-45 0 -57 41l-154 418h-577l-152 -418q-12 -41 -57 -41h-43q-59 0 -43 59l496 1340q12 41 55 41z" />
    <glyph glyph-name="abreve" unicode="&#x103;" horiz-adv-x="1040" 
d="M754 1403q0 -87 -71 -149t-165 -62t-166 60t-71 151q0 39 47 39h20q41 0 47 -37q12 -117 122 -117t122 117q8 37 47 37h21q47 0 47 -39zM213 278q0 -66 60 -126q60 -59 169 -60q141 0 229 119q87 119 87 266v49h-58q-386 0 -464 -140q-24 -42 -23 -108zM70 276
q0 354 628 355h60v33q0 266 -254 266q-131 0 -250 -72q-43 -23 -70 16l-12 21q-27 45 14 70q144 90 328 90q184 1 284 -101t99 -295v-608q0 -51 -49 -51h-33q-51 0 -51 51v82l6 78h-4q2 0 -10 -25q-12 -24 -39 -58q-75 -92 -151 -123q-76 -30 -148 -30q-141 0 -245 80
q-103 80 -103 221z" />
    <glyph glyph-name="Aogonek" unicode="&#x104;" horiz-adv-x="1247" 
d="M375 582h495l-190 522l-53 188h-4q-33 -121 -56 -188zM590 1440h67q41 0 56 -41l495 -1340q16 -55 -8 -77q-131 -111 -131 -183t94 -102q35 -12 27 -51l-2 -23q-6 -45 -53 -37q-73 12 -133 56t-60 129q0 131 156 245q-31 12 -41 47l-146 396h-577l-152 -418
q-12 -41 -57 -41h-43q-59 0 -43 59l496 1340q14 41 55 41z" />
    <glyph glyph-name="aogonek" unicode="&#x105;" horiz-adv-x="1044" 
d="M213 278q0 -66 60 -126q60 -59 169 -60q141 0 229 119q87 119 87 266v49h-58q-386 0 -464 -140q-24 -42 -23 -108zM70 276q0 354 628 355h60v33q0 266 -254 266q-131 0 -250 -72q-43 -23 -70 16l-12 21q-27 45 14 70q144 90 328 90q184 1 284 -101t99 -295v-608
q0 -33 -39 -71t-78 -84q-39 -47 -39 -101q0 -68 95 -98q35 -12 26 -51l-2 -23q-10 -43 -53 -37q-72 12 -132 56q-61 44 -61 123t50 145t110 106q-10 8 -10 35v82l6 78h-4q2 0 -10 -25q-12 -24 -39 -58q-75 -92 -151 -123q-76 -30 -148 -30q-141 0 -245 80q-103 80 -103 221z
" />
    <glyph glyph-name="Cacute" unicode="&#x106;" horiz-adv-x="1454" 
d="M104 726q0 318 204 528t505 210t498 -153q35 -29 8 -72l-19 -27q-29 -37 -69 -8q-182 127 -400 127q-259 0 -419 -171t-160 -431t162 -440t411 -180t441 155q39 33 69 -6l19 -22q31 -37 -4 -72q-220 -188 -530 -188t-513 215q-203 217 -203 535zM813 1540q-29 0 -39 18
t6 39l90 152q20 35 60 35h47q33 0 40 -18t-11 -44l-109 -149q-25 -33 -61 -33h-23z" />
    <glyph glyph-name="cacute" unicode="&#x107;" horiz-adv-x="1089" 
d="M614 -25q-218 1 -372 151t-154 387t155 389t369 153q214 0 359 -117q37 -29 6 -70l-14 -22q-25 -39 -70 -10q-123 94 -260 94q-172 0 -287 -117t-115 -298t116 -298t282 -117t297 109q41 31 67 -12l15 -21q23 -37 -13 -70q-163 -131 -381 -131zM588 1198q-29 0 -39 17
t6 40l90 152q20 35 60 35h47q33 0 40 -18t-12 -44l-108 -149q-25 -33 -62 -33h-22z" />
    <glyph glyph-name="Ccircumflex" unicode="&#x108;" horiz-adv-x="1454" 
d="M104 726q0 318 204 528t505 210t498 -153q35 -29 8 -72l-19 -27q-29 -37 -69 -8q-182 127 -400 127q-259 0 -419 -171t-160 -431t162 -440t411 -180t441 155q39 33 69 -6l19 -22q31 -37 -4 -72q-220 -188 -530 -188t-513 215q-203 217 -203 535zM633 1540q-29 0 -36 18
t9 44l107 149q25 33 61 33h76q37 0 63 -33l105 -149q18 -27 12 -44t-35 -18h-34q-35 0 -56 35l-90 131h-4l-90 -131q-20 -35 -57 -35h-31z" />
    <glyph glyph-name="ccircumflex" unicode="&#x109;" horiz-adv-x="1089" 
d="M614 -25q-218 1 -372 151t-154 387t155 389t369 153q214 0 359 -117q37 -29 6 -70l-14 -22q-25 -39 -70 -10q-123 94 -260 94q-172 0 -287 -117t-115 -298t116 -298t282 -117t297 109q41 31 67 -12l15 -21q23 -37 -13 -70q-163 -131 -381 -131zM410 1198q-29 0 -36 17
t9 45l106 149q25 33 62 33h76q37 0 63 -33l105 -149q18 -26 12 -44t-35 -18h-35q-35 0 -55 35l-90 131h-4l-90 -131q-20 -35 -58 -35h-30z" />
    <glyph glyph-name="Cdotaccent" unicode="&#x10a;" horiz-adv-x="1454" 
d="M797 1610q-49 0 -49 51v72q0 51 49 51h34q49 0 50 -51v-72q0 -51 -50 -51h-34zM104 726q0 318 204 528t505 210t498 -153q35 -29 8 -72l-19 -27q-29 -37 -69 -8q-182 127 -400 127q-259 0 -419 -171t-160 -431t162 -440t411 -180t441 155q39 33 69 -6l19 -22
q31 -37 -4 -72q-220 -188 -530 -188t-513 215q-203 217 -203 535z" />
    <glyph glyph-name="cdotaccent" unicode="&#x10b;" horiz-adv-x="1089" 
d="M571 1268q-49 0 -49 51v72q0 51 49 51h35q49 0 49 -51v-72q0 -51 -49 -51h-35zM614 -25q-218 1 -372 151t-154 387t155 389t369 153q214 0 359 -117q37 -29 6 -70l-14 -22q-25 -39 -70 -10q-123 94 -260 94q-172 0 -287 -117t-115 -298t116 -298t282 -117t297 109
q41 31 67 -12l15 -21q23 -37 -13 -70q-163 -131 -381 -131z" />
    <glyph glyph-name="Ccaron" unicode="&#x10c;" horiz-adv-x="1454" 
d="M104 726q0 318 204 528t505 210t498 -153q35 -29 8 -72l-19 -27q-29 -37 -69 -8q-182 127 -400 127q-259 0 -419 -171t-160 -431t162 -440t411 -180t441 155q39 33 69 -6l19 -22q31 -37 -4 -72q-220 -188 -530 -188t-513 215q-203 217 -203 535zM774 1540q-37 0 -61 33
l-107 149q-16 27 -9 44t36 18h31q37 0 57 -33l90 -131h4l90 131q20 33 56 33h32q29 0 36 -18t-11 -44l-105 -149q-27 -33 -63 -33h-76z" />
    <glyph glyph-name="ccaron" unicode="&#x10d;" horiz-adv-x="1089" 
d="M614 -25q-218 1 -372 151t-154 387t155 389t369 153q214 0 359 -117q37 -29 6 -70l-14 -22q-25 -39 -70 -10q-123 94 -260 94q-172 0 -287 -117t-115 -298t116 -298t282 -117t297 109q41 31 67 -12l15 -21q23 -37 -13 -70q-163 -131 -381 -131zM551 1198q-37 0 -62 33
l-106 149q-16 27 -9 44t36 18h30q37 0 58 -33l90 -131h4l90 131q20 33 55 33h33q29 0 36 -18t-11 -44l-105 -149q-27 -33 -63 -33h-76z" />
    <glyph glyph-name="Dcaron" unicode="&#x10e;" horiz-adv-x="1497" 
d="M342 127h309q270 0 430 155q160 154 160 438t-160 438t-430 155h-309v-1186zM201 51v1338q0 51 49 51h416q328 0 526 -192t197 -529q0 -339 -197 -529t-526 -190h-416q-49 0 -49 51zM651 1540q-37 0 -61 33l-107 149q-16 27 -9 44t36 18h31q37 0 57 -33l90 -131h4l90 131
q20 33 56 33h32q29 0 36 -18t-11 -44l-104 -149q-27 -33 -64 -33h-76z" />
    <glyph glyph-name="dcaron" unicode="&#x10f;" horiz-adv-x="1189" 
d="M236 516q0 -188 90 -302t233 -114t239 104t97 294q0 188 -85 309q-84 121 -234 121t-245 -112t-95 -300zM92 516q0 242 129 390t334 149q136 0 222 -71t106 -116l10 -20h4q-6 35 -6 78v463q0 51 51 51h39q49 0 49 -51v-1338q0 -51 -49 -51h-35q-51 0 -51 49v78l8 63h-4
l-11 -22q-7 -14 -37 -52q-63 -79 -169 -117q-66 -24 -141 -24q-205 -1 -327 149t-122 392zM1206 1438h31q59 0 59 -105q0 -63 -24 -126q-25 -62 -66 -62h-12q-45 0 -45 33q0 4 10 42t10 87l-8 96q0 35 45 35z" />
    <glyph glyph-name="Dcroat" unicode="&#x110;" horiz-adv-x="1497" 
d="M342 127h309q270 0 430 155q160 154 160 438t-160 438t-430 155h-309v-529h293q51 0 51 -49v-22q0 -51 -49 -51h-295v-535zM201 51v611h-72q-49 0 -49 51v22q0 49 39 49h82v605q0 51 51 51h414q328 0 526 -192t197 -529q0 -339 -197 -529t-526 -190h-414q-51 0 -51 51z
" />
    <glyph glyph-name="dcroat" unicode="&#x111;" horiz-adv-x="1189" 
d="M236 516q0 -188 90 -302t233 -114t239 104t97 294q0 188 -86 310q-87 122 -235 122t-243 -113t-95 -301zM92 516q0 242 129 390t334 149q141 0 223 -69t103 -109l10 -21h4q-4 35 -4 78v225h-219q-51 0 -51 47v13q0 45 51 45h219v125q0 51 51 51h39q49 0 49 -51v-125h113
q51 0 51 -45v-13q0 -47 -41 -47h-123v-1108q0 -51 -49 -51h-35q-51 0 -51 49v70l4 63h-4l-11 -22q-7 -14 -36 -50q-61 -76 -167 -112q-65 -23 -140 -23q-205 -1 -327 149t-122 392z" />
    <glyph glyph-name="Emacron" unicode="&#x112;" horiz-adv-x="1132" 
d="M428 1608q-51 0 -51 49v14q0 49 51 49h403q49 0 50 -49v-14q0 -49 -50 -49h-403zM201 51v1338q0 51 49 51h711q51 0 51 -51v-25q0 -51 -51 -51h-619v-525h496q51 0 51 -49v-26q0 -51 -51 -51h-496v-535h655q51 0 52 -51v-25q0 -51 -52 -51h-747q-49 0 -49 51z" />
    <glyph glyph-name="emacron" unicode="&#x113;" horiz-adv-x="1114" 
d="M397 1266q-51 0 -51 49v14q0 49 51 49h404q49 0 49 -49v-14q0 -49 -49 -49h-404zM588 940q-127 0 -225 -86t-123 -238h647q-6 156 -89 240t-210 84zM629 -25q-231 -1 -385 151t-154 393t146 388t356 147q208 0 322 -133q114 -134 114 -358q0 -23 -15 -37t-38 -14h-742
q4 -190 119 -301t273 -111t278 95q43 27 68 -13l16 -24q23 -39 -14 -68q-156 -115 -344 -115z" />
    <glyph glyph-name="Ebreve" unicode="&#x114;" horiz-adv-x="1132" 
d="M629 1534q-94 0 -166 60t-72 151q0 39 47 39h21q41 0 47 -37q12 -117 122 -117t122 117q8 37 47 37h20q47 0 47 -39q0 -88 -70 -150q-71 -61 -165 -61zM201 51v1338q0 51 49 51h711q51 0 51 -51v-25q0 -51 -51 -51h-619v-525h496q51 0 51 -49v-26q0 -51 -51 -51h-496
v-535h655q51 0 52 -51v-25q0 -51 -52 -51h-747q-49 0 -49 51z" />
    <glyph glyph-name="ebreve" unicode="&#x115;" horiz-adv-x="1114" 
d="M598 1192q-94 0 -166 60t-72 151q0 39 48 39h20q41 0 47 -37q12 -117 122 -117t122 117q8 37 47 37h20q47 0 48 -39q0 -87 -71 -149t-165 -62zM588 940q-127 0 -225 -86t-123 -238h647q-6 156 -89 240t-210 84zM629 -25q-231 -1 -385 151t-154 393t146 388t356 147
q208 0 322 -133q114 -134 114 -358q0 -23 -15 -37t-38 -14h-742q4 -190 119 -301t273 -111t278 95q43 27 68 -13l16 -24q23 -39 -14 -68q-156 -115 -344 -115z" />
    <glyph glyph-name="Edotaccent" unicode="&#x116;" horiz-adv-x="1132" 
d="M610 1610q-49 0 -49 51v72q0 51 49 51h35q49 0 49 -51v-72q0 -51 -49 -51h-35zM201 51v1338q0 51 49 51h711q51 0 51 -51v-25q0 -51 -51 -51h-619v-525h496q51 0 51 -49v-26q0 -51 -51 -51h-496v-535h655q51 0 52 -51v-25q0 -51 -52 -51h-747q-49 0 -49 51z" />
    <glyph glyph-name="edotaccent" unicode="&#x117;" horiz-adv-x="1114" 
d="M580 1268q-49 0 -50 51v72q0 51 50 51h34q49 0 50 -51v-72q0 -51 -50 -51h-34zM588 940q-127 0 -225 -86t-123 -238h647q-6 156 -89 240t-210 84zM629 -25q-231 -1 -385 151t-154 393t146 388t356 147q208 0 322 -133q114 -134 114 -358q0 -23 -15 -37t-38 -14h-742
q4 -190 119 -301t273 -111t278 95q43 27 68 -13l16 -24q23 -39 -14 -68q-156 -115 -344 -115z" />
    <glyph glyph-name="Eogonek" unicode="&#x118;" horiz-adv-x="1132" 
d="M201 51v1338q0 51 49 51h711q51 0 51 -51v-25q0 -51 -51 -51h-619v-525h496q51 0 51 -49v-26q0 -51 -51 -51h-496v-535h655q51 0 52 -51v-29q0 -27 -41 -65t-82 -85q-41 -48 -41 -102q0 -68 94 -98q35 -12 29 -51l-4 -23q-6 -45 -54 -37q-72 12 -132 56t-60 129
q0 121 133 229h-641q-49 0 -49 51z" />
    <glyph glyph-name="eogonek" unicode="&#x119;" horiz-adv-x="1114" 
d="M589 938q-128 0 -226 -85t-123 -237h647q-6 156 -88 239t-210 83zM90 519q0 241 146 388t357 147t323 -138t112 -355q0 -23 -14 -36t-37 -13h-744q4 -190 119 -301t273 -111t278 95q45 29 70 -15l12 -20q23 -39 -10 -70q-13 -12 -75 -58t-94 -73t-64 -74t-31 -90
q0 -68 94 -98q37 -12 29 -51l-5 -23q-10 -43 -53 -37q-70 10 -131 56t-61 127q0 109 114 215q-45 -8 -69 -9q-231 -1 -385 151t-154 393z" />
    <glyph glyph-name="Ecaron" unicode="&#x11a;" horiz-adv-x="1132" 
d="M201 51v1338q0 51 49 51h711q51 0 51 -51v-25q0 -51 -51 -51h-619v-525h496q51 0 51 -49v-26q0 -51 -51 -51h-496v-535h655q51 0 52 -51v-25q0 -51 -52 -51h-747q-49 0 -49 51zM590 1540q-37 0 -62 33l-106 149q-16 27 -9 44t36 18h30q37 0 58 -33l90 -131h4l90 131
q20 33 55 33h33q29 0 36 -18t-11 -44l-105 -149q-27 -33 -63 -33h-76z" />
    <glyph glyph-name="ecaron" unicode="&#x11b;" horiz-adv-x="1114" 
d="M588 940q-127 0 -225 -86t-123 -238h647q-6 156 -89 240t-210 84zM629 -25q-231 -1 -385 151t-154 393t146 388t356 147q208 0 322 -133q114 -134 114 -358q0 -23 -15 -37t-38 -14h-742q4 -190 119 -301t273 -111t278 95q43 27 68 -13l16 -24q23 -39 -14 -68
q-156 -115 -344 -115zM559 1198q-37 0 -61 33l-107 149q-16 27 -9 44t36 18h31q37 0 57 -33l90 -131h4l90 131q20 33 55 33h33q29 0 36 -18t-11 -44l-105 -149q-27 -33 -63 -33h-76z" />
    <glyph glyph-name="Gcircumflex" unicode="&#x11c;" horiz-adv-x="1531" 
d="M104 718q0 316 208 531t519 215q276 0 474 -137q41 -31 8 -70l-19 -26q-29 -41 -69 -12q-178 113 -389 112q-258 0 -421 -175t-163 -436t163 -436t408 -175q208 0 378 136q40 32 59 54l18 20v242h-197q-49 0 -49 51v25q0 51 49 51h281q49 0 49 -51v-586q0 -51 -49 -51
h-29q-51 0 -51 45v74l2 53h-4q-17 -22 -70 -63q-177 -134 -399 -134q-299 -1 -503 213t-204 530zM627 1540q-29 0 -36 18t9 44l107 149q25 33 61 33h76q37 0 63 -33l105 -149q18 -27 12 -44t-35 -18h-35q-35 0 -55 35l-90 131h-4l-90 -131q-20 -35 -58 -35h-30z" />
    <glyph glyph-name="gcircumflex" unicode="&#x11d;" horiz-adv-x="1175" 
d="M881 532q0 210 -88 304t-238 94q-149 0 -233 -102t-84 -290q0 -186 90 -296t236 -111q144 0 231 95q86 95 86 306zM540 -305q138 0 238 81t101 242v107l6 74h-4q-99 -193 -317 -193t-344 148t-126 382q0 236 122 377t333 142q149 -1 227 -63q78 -63 101 -107l8 -19h4
q-4 14 -4 35v84q0 45 49 45h33q51 0 51 -51v-954q0 -229 -142 -342t-348 -113q-162 0 -297 61q-45 20 -24 66l12 29q20 39 66 22q117 -53 255 -53zM393 1198q-29 0 -36 17t10 45l106 149q25 33 62 33h75q37 0 64 -33l104 -149q18 -27 13 -45q-6 -17 -35 -17h-35
q-35 0 -55 35l-91 131h-4l-90 -131q-20 -35 -57 -35h-31z" />
    <glyph glyph-name="Gbreve" unicode="&#x11e;" horiz-adv-x="1531" 
d="M809 1534q-94 0 -166 60t-72 151q0 39 47 39h21q41 0 47 -37q12 -117 122 -117t122 117q8 37 47 37h20q47 0 47 -39q0 -88 -70 -150q-71 -61 -165 -61zM104 718q0 316 208 531t519 215q276 0 474 -137q41 -31 8 -70l-19 -26q-29 -41 -69 -12q-178 113 -389 112
q-258 0 -421 -175t-163 -436t163 -436t408 -175q208 0 378 136q40 32 59 54l18 20v242h-197q-49 0 -49 51v25q0 51 49 51h281q49 0 49 -51v-586q0 -51 -49 -51h-29q-51 0 -51 45v74l2 53h-4q-17 -22 -70 -63q-177 -134 -399 -134q-299 -1 -503 213t-204 530z" />
    <glyph glyph-name="gbreve" unicode="&#x11f;" horiz-adv-x="1175" 
d="M809 1403q0 -87 -71 -149t-165 -62q-93 0 -165 60t-72 151q0 39 47 39h20q41 0 48 -37q11 -117 121 -117t122 117q8 37 47 37h21q47 0 47 -39zM881 532q0 210 -88 304t-238 94q-149 0 -233 -102t-84 -290q0 -186 90 -296t236 -111q144 0 231 95q86 95 86 306zM540 -305
q138 0 238 81t101 242v107l6 74h-4q-99 -193 -317 -193t-344 148t-126 382q0 236 122 377t333 142q149 -1 227 -63q78 -63 101 -107l8 -19h4q-4 14 -4 35v84q0 45 49 45h33q51 0 51 -51v-954q0 -229 -142 -342t-348 -113q-162 0 -297 61q-45 20 -24 66l12 29q20 39 66 22
q117 -53 255 -53z" />
    <glyph glyph-name="Gdotaccent" unicode="&#x120;" horiz-adv-x="1531" 
d="M791 1610q-49 0 -50 51v72q0 51 50 51h34q49 0 49 -51v-72q0 -51 -49 -51h-34zM104 718q0 316 208 531t519 215q276 0 474 -137q41 -31 8 -70l-19 -26q-29 -41 -69 -12q-178 113 -389 112q-258 0 -421 -175t-163 -436t163 -436t408 -175q208 0 378 136q40 32 59 54l18 20
v242h-197q-49 0 -49 51v25q0 51 49 51h281q49 0 49 -51v-586q0 -51 -49 -51h-29q-51 0 -51 45v74l2 53h-4q-17 -22 -70 -63q-177 -134 -399 -134q-299 -1 -503 213t-204 530z" />
    <glyph glyph-name="gdotaccent" unicode="&#x121;" horiz-adv-x="1175" 
d="M555 1268q-49 0 -49 51v72q0 51 49 51h35q49 0 49 -51v-72q0 -51 -49 -51h-35zM881 532q0 210 -88 304t-238 94q-149 0 -233 -102t-84 -290q0 -186 90 -296t236 -111q144 0 231 95q86 95 86 306zM540 -305q138 0 238 81t101 242v107l6 74h-4q-99 -193 -317 -193t-344 148
t-126 382q0 236 122 377t333 142q149 -1 227 -63q78 -63 101 -107l8 -19h4q-4 14 -4 35v84q0 45 49 45h33q51 0 51 -51v-954q0 -229 -142 -342t-348 -113q-162 0 -297 61q-45 20 -24 66l12 29q20 39 66 22q117 -53 255 -53z" />
    <glyph glyph-name="Gcommaaccent" unicode="&#x122;" horiz-adv-x="1531" 
d="M104 718q0 316 208 531t519 215q276 0 474 -137q41 -31 8 -70l-19 -26q-29 -41 -69 -12q-178 113 -389 112q-258 0 -421 -175t-163 -436t163 -436t408 -175q208 0 378 136q40 32 59 54l18 20v242h-197q-49 0 -49 51v25q0 51 49 51h281q49 0 49 -51v-586q0 -51 -49 -51
h-29q-51 0 -51 45v74l2 53h-4q-17 -22 -70 -63q-177 -134 -399 -134q-299 -1 -503 213t-204 530zM743 -164q0 35 45 35h31q59 0 60 -104q0 -63 -25 -125t-66 -64h-12q-45 0 -45 33q0 4 15 60t6 103q-9 48 -9 62z" />
    <glyph glyph-name="gcommaaccent" unicode="&#x123;" horiz-adv-x="1175" 
d="M881 532q0 210 -88 304t-238 94q-149 0 -233 -102t-84 -290q0 -186 90 -296t236 -111q144 0 231 95q86 95 86 306zM540 -305q138 0 238 81t101 242v107l6 74h-4q-99 -193 -317 -193t-344 148t-126 382q0 236 122 377t333 142q149 -1 227 -63q78 -63 101 -107l8 -19h4
q-4 14 -4 35v84q0 45 49 45h33q51 0 51 -51v-954q0 -229 -142 -342t-348 -113q-162 0 -297 61q-45 20 -24 66l12 29q20 39 66 22q117 -53 255 -53zM596 1159h-31q-59 0 -59 105q0 63 24 126q25 62 66 62h12q45 0 45 -33q0 -4 -10 -42t-10 -87l8 -96q0 -35 -45 -35z" />
    <glyph glyph-name="Hcircumflex" unicode="&#x124;" horiz-adv-x="1519" 
d="M201 51v1338q0 51 49 51h43q49 0 49 -51v-605h836v605q0 51 49 51h41q51 0 51 -51v-1338q0 -51 -51 -51h-41q-49 0 -49 51v606h-836v-606q0 -51 -49 -51h-43q-49 0 -49 51zM578 1540q-29 0 -36 18t9 44l106 149q25 33 62 33h76q37 0 63 -33l105 -149q18 -27 12 -44
t-35 -18h-35q-35 0 -55 35l-90 131h-4l-90 -131q-20 -35 -58 -35h-30z" />
    <glyph glyph-name="hcircumflex" unicode="&#x125;" horiz-adv-x="1198" 
d="M160 51v1338q0 51 49 51h39q51 0 51 -51v-515l-8 -83h4q37 94 146 179q110 85 281 85q171 -1 251 -101t80 -299v-604q0 -51 -49 -51h-39q-51 0 -52 51v567q0 137 -36 212q-47 94 -200 94t-265 -121t-113 -305v-447q0 -51 -51 -51h-39q-49 0 -49 51zM51 1540q-29 0 -36 18
t10 44l106 149q25 33 62 33h75q37 0 64 -33l104 -149q18 -27 12 -44t-34 -18h-35q-35 0 -55 35l-91 131h-4l-90 -131q-20 -35 -57 -35h-31z" />
    <glyph glyph-name="Hbar" unicode="&#x126;" horiz-adv-x="1517" 
d="M346 784h828v265h-828v-265zM203 51v998h-84q-51 0 -51 49v12q0 47 51 47h84v232q0 51 49 51h43q51 0 51 -47v-236h828v232q0 51 49 51h43q51 0 51 -47v-236h82q51 0 51 -47v-12q0 -49 -51 -49h-82v-998q0 -51 -51 -51h-43q-49 0 -49 51v606h-828v-606q0 -51 -51 -51h-43
q-49 0 -49 51z" />
    <glyph glyph-name="hbar" unicode="&#x127;" horiz-adv-x="1198" 
d="M160 51v1108h-107q-51 0 -51 47v13q0 45 51 45h107v125q0 51 49 51h39q51 0 51 -41v-135h221q51 0 51 -45v-13q0 -47 -51 -47h-221v-276l-4 -84h4q37 92 143 174t278 82q172 -1 253 -101q80 -100 80 -299v-604q0 -51 -49 -51h-39q-51 0 -52 51v567q0 137 -36 212
q-47 94 -202 94t-265 -123t-111 -297v-453q0 -51 -51 -51h-39q-49 0 -49 51z" />
    <glyph glyph-name="Itilde" unicode="&#x128;" horiz-adv-x="542" 
d="M4 1546q-45 0 -45 53q0 83 50 135q49 52 113 52q104 0 167 -74q62 -74 107 -74q83 0 87 103q0 39 47 39h17q43 0 43 -47q0 -89 -48 -141t-120 -52t-118 37q-48 37 -85 73t-74 36t-59 -31t-20 -74q-4 -35 -48 -35h-14zM201 51v1338q0 51 49 51h43q49 0 49 -51v-1338
q0 -51 -49 -51h-43q-49 0 -49 51z" />
    <glyph glyph-name="itilde" unicode="&#x129;" horiz-adv-x="456" 
d="M-39 1204q-45 0 -45 53q0 83 50 135t114 52q99 0 166 -74t109 -74q80 0 85 103q0 39 47 39h17q43 0 43 -47q0 -89 -48 -141t-133 -52t-149 73t-108 73q-43 -2 -65 -32t-21 -73q-4 -35 -48 -35h-14zM158 51v928q0 51 51 51h39q49 0 49 -51v-928q0 -51 -49 -51h-39
q-51 0 -51 51z" />
    <glyph glyph-name="Imacron" unicode="&#x12a;" horiz-adv-x="542" 
d="M74 1608q-51 0 -51 49v14q0 49 51 49h403q49 0 49 -49v-14q0 -49 -49 -49h-403zM201 51v1338q0 51 49 51h43q49 0 49 -51v-1338q0 -51 -49 -51h-43q-49 0 -49 51z" />
    <glyph glyph-name="imacron" unicode="&#x12b;" horiz-adv-x="456" 
d="M31 1266q-51 0 -51 49v14q0 49 51 49h403q49 0 49 -49v-14q0 -49 -49 -49h-403zM158 51v928q0 51 51 51h39q49 0 49 -51v-928q0 -51 -49 -51h-39q-51 0 -51 51z" />
    <glyph glyph-name="Ibreve" unicode="&#x12c;" horiz-adv-x="542" 
d="M510 1745q0 -87 -71 -149t-165 -62t-166 60t-71 151q0 39 47 39h20q41 0 48 -37q12 -117 122 -117t121 117q8 37 47 37h21q47 0 47 -39zM201 51v1338q0 51 49 51h43q49 0 49 -51v-1338q0 -51 -49 -51h-43q-49 0 -49 51z" />
    <glyph glyph-name="ibreve" unicode="&#x12d;" horiz-adv-x="456" 
d="M467 1403q0 -87 -71 -149t-165 -62q-93 0 -165 60t-72 151q0 39 47 39h20q41 0 48 -37q11 -117 121 -117t122 117q8 37 47 37h21q47 0 47 -39zM158 51v928q0 51 51 51h39q49 0 49 -51v-928q0 -51 -49 -51h-39q-51 0 -51 51z" />
    <glyph glyph-name="Iogonek" unicode="&#x12e;" horiz-adv-x="542" 
d="M201 51v1338q0 51 49 51h43q49 0 49 -51v-1338q0 -45 -79 -110q-31 -25 -55 -65t-24 -81q0 -68 95 -98q37 -12 28 -51l-4 -23q-10 -43 -51 -37q-72 12 -132 56t-60 122t50 144t109 104q-18 10 -18 39z" />
    <glyph glyph-name="iogonek" unicode="&#x12f;" horiz-adv-x="458" 
d="M160 51v928q0 51 51 51h39q49 0 49 -51v-928q0 -31 -39 -69t-78 -86q-39 -47 -39 -101q0 -68 93 -98q37 -12 28 -51l-2 -23q-10 -43 -53 -37q-72 12 -132 56q-61 44 -61 122t50 144t110 104q-16 10 -16 39zM205 1266q-51 0 -51 49v74q0 51 51 51h51q49 0 49 -51v-74
q0 -49 -49 -49h-51z" />
    <glyph glyph-name="Idotaccent" unicode="&#x130;" horiz-adv-x="542" 
d="M256 1610q-49 0 -49 51v72q0 51 49 51h35q49 0 49 -51v-72q0 -51 -49 -51h-35zM201 51v1338q0 51 49 51h43q49 0 49 -51v-1338q0 -51 -49 -51h-43q-49 0 -49 51z" />
    <glyph glyph-name="dotlessi" unicode="&#x131;" horiz-adv-x="456" 
d="M158 51v928q0 51 51 51h39q49 0 49 -51v-928q0 -51 -49 -51h-39q-51 0 -51 51z" />
    <glyph glyph-name="IJ" unicode="&#x132;" horiz-adv-x="1175" 
d="M201 51v1338q0 51 49 51h43q49 0 49 -51v-1338q0 -51 -49 -51h-43q-49 0 -49 51zM549 43v33q0 43 47 53q252 27 252 338v922q0 51 51 51h43q49 0 49 -51v-926q0 -131 -36 -227t-95 -146q-114 -98 -260 -96q-51 0 -51 49z" />
    <glyph glyph-name="ij" unicode="&#x133;" horiz-adv-x="931" 
d="M633 -33v1012q0 51 49 51h39q51 0 51 -51v-1016q0 -117 -39 -200t-100 -119q-109 -65 -209 -66h-21q-51 0 -51 51v23q0 45 51 49q79 4 147 48q83 54 83 218zM676 1266q-49 0 -49 49v74q0 51 49 51h51q49 0 49 -51v-74q0 -49 -49 -49h-51zM158 51v928q0 51 51 51h39
q49 0 49 -51v-928q0 -51 -49 -51h-39q-51 0 -51 51zM203 1266q-49 0 -49 49v74q0 51 49 51h51q49 0 49 -51v-74q0 -49 -49 -49h-51z" />
    <glyph glyph-name="Jcircumflex" unicode="&#x134;" horiz-adv-x="1046" 
d="M53 412q0 49 49 49h45q25 0 34 -11t14 -44q14 -297 262 -297q111 1 187 71t75 223v910h-301q-49 0 -49 51v25q0 51 49 51h393q51 0 51 -51v-986q0 -217 -119 -322t-287 -105t-285 107q-118 108 -118 329zM432 1540q-29 0 -36 18t10 44l106 149q25 33 61 33h76
q37 0 64 -33l104 -149q18 -27 12 -44t-34 -18h-35q-35 0 -55 35l-91 131h-4l-90 -131q-20 -35 -57 -35h-31z" />
    <glyph glyph-name="jcircumflex" unicode="&#x135;" horiz-adv-x="456" 
d="M160 -33v1012q0 51 49 51h39q51 0 51 -51v-1016q0 -117 -39 -200t-100 -119q-109 -65 -209 -66h-21q-51 0 -51 51v23q0 45 51 49q82 4 148 48q82 55 82 218zM43 1196q-29 0 -36 17t9 44l107 150q25 33 61 33h76q37 0 62 -33l106 -150q16 -27 9 -44t-34 -17h-32
q-35 0 -56 35l-90 131h-4l-92 -131q-20 -35 -55 -35h-31z" />
    <glyph glyph-name="Kcommaaccent" unicode="&#x136;" horiz-adv-x="1193" 
d="M201 51v1338q0 51 49 51h43q49 0 49 -51v-574h244l366 590q20 35 60 35h51q31 0 41 -18t-6 -44l-393 -618v-4l421 -697q16 -25 6 -42t-38 -17h-58q-39 0 -59 35l-391 653h-244v-637q0 -51 -49 -51h-43q-49 0 -49 51zM604 -129h31q59 0 59 -104q0 -63 -24 -126
q-25 -62 -66 -63h-12q-45 0 -45 33q0 4 10 42t10 87l-8 96q0 35 45 35z" />
    <glyph glyph-name="kcommaaccent" unicode="&#x137;" horiz-adv-x="995" 
d="M160 51v1338q0 51 49 51h39q51 0 51 -51v-752h166l285 362q25 31 61 31h51q31 0 40 -18t-11 -43l-311 -387v-4l356 -517q16 -27 7 -44t-42 -17h-53q-39 0 -60 35l-321 479h-168v-463q0 -51 -51 -51h-39q-49 0 -49 51zM504 -129h31q59 0 59 -104q0 -63 -25 -125t-65 -64
h-12q-45 0 -46 33q0 4 11 42q10 38 10 87l-8 96q0 35 45 35z" />
    <glyph glyph-name="kgreenlandic" unicode="&#x138;" horiz-adv-x="993" 
d="M158 51v928q0 51 51 51h39q49 0 49 -51v-371h162l305 389q25 33 61 33h54q33 0 42 -18t-10 -43l-331 -416v-4l335 -488q15 -27 7 -44t-39 -17h-60q-39 0 -59 35l-303 452h-164v-436q0 -51 -49 -51h-39q-51 0 -51 51z" />
    <glyph glyph-name="Lacute" unicode="&#x139;" horiz-adv-x="1021" 
d="M201 51v1338q0 51 49 51h43q49 0 49 -51v-1262h616q51 0 52 -51v-25q0 -51 -52 -51h-708q-49 0 -49 51zM272 1540q-29 0 -39 18t7 39l90 152q20 35 59 35h47q33 0 40 -18t-11 -44l-109 -149q-25 -33 -61 -33h-23z" />
    <glyph glyph-name="lacute" unicode="&#x13a;" horiz-adv-x="499" 
d="M395 -8q-235 0 -235 252v1145q0 51 49 51h39q51 0 51 -51v-1121q0 -59 19 -94q20 -35 38 -43t50 -12q43 -4 43 -45v-31q0 -51 -54 -51zM233 1540q-29 0 -39 18t7 39l90 152q20 35 59 35h47q33 0 40 -18t-11 -44l-109 -149q-25 -33 -61 -33h-23z" />
    <glyph glyph-name="Lcommaaccent" unicode="&#x13b;" horiz-adv-x="1021" 
d="M201 51v1338q0 51 49 51h43q49 0 49 -51v-1262h616q51 0 52 -51v-25q0 -51 -52 -51h-708q-49 0 -49 51zM596 -129h31q59 0 59 -104q0 -63 -24 -126q-25 -62 -66 -63h-12q-45 0 -45 33q0 4 10 42t10 87l-8 96q0 35 45 35z" />
    <glyph glyph-name="lcommaaccent" unicode="&#x13c;" horiz-adv-x="499" 
d="M395 -8q-235 0 -235 252v1145q0 51 49 51h39q51 0 51 -51v-1121q0 -59 19 -94q20 -35 38 -43t50 -12q43 -4 43 -45v-31q0 -51 -54 -51zM233 -164q0 35 46 35h30q59 0 60 -104q0 -63 -25 -125t-65 -64h-13q-45 0 -45 33q0 4 15 60t6 103q-9 48 -9 62z" />
    <glyph glyph-name="Lcaron" unicode="&#x13d;" horiz-adv-x="1021" 
d="M201 51v1338q0 51 49 51h43q49 0 49 -51v-1262h616q51 0 52 -51v-25q0 -51 -52 -51h-708q-49 0 -49 51zM578 1438h30q59 0 60 -105q0 -63 -25 -125t-65 -63h-13q-45 0 -45 33q0 4 10 42t11 87l-9 96q0 35 46 35z" />
    <glyph glyph-name="lcaron" unicode="&#x13e;" horiz-adv-x="499" 
d="M395 -8q-235 0 -235 252v1145q0 51 49 51h39q51 0 51 -51v-1121q0 -59 19 -94q20 -35 38 -43t50 -12q43 -4 43 -45v-31q0 -51 -54 -51zM477 1438h31q59 0 59 -105q0 -63 -24 -126q-25 -62 -66 -62h-12q-45 0 -45 33q0 4 10 42t10 87l-8 96q0 35 45 35z" />
    <glyph glyph-name="Ldot" unicode="&#x13f;" horiz-adv-x="1021" 
d="M649 676q-51 0 -51 49v70q0 51 51 51h64q49 0 49 -51v-70q0 -49 -49 -49h-64zM201 51v1338q0 51 49 51h43q49 0 49 -51v-1262h616q51 0 52 -51v-25q0 -51 -52 -51h-708q-49 0 -49 51z" />
    <glyph glyph-name="ldot" unicode="&#x140;" horiz-adv-x="567" 
d="M481 676q-51 0 -51 49v70q0 51 51 51h64q49 0 49 -51v-70q0 -49 -49 -49h-64zM395 -8q-235 0 -235 252v1145q0 51 49 51h39q51 0 51 -51v-1121q0 -59 19 -94q20 -35 38 -43t50 -12q43 -4 43 -45v-31q0 -51 -54 -51z" />
    <glyph glyph-name="Lslash" unicode="&#x141;" horiz-adv-x="1021" 
d="M201 51v639l-76 -41q-20 -12 -36 -2q-15 10 -15 39v35q0 41 30 59l97 56v553q0 51 51 51h41q49 0 49 -51v-471l172 98q25 16 42 6t17 -41v-35q0 -39 -34 -61l-197 -113v-645h619q49 0 49 -51v-25q0 -51 -49 -51h-709q-51 0 -51 51z" />
    <glyph glyph-name="lslash" unicode="&#x142;" horiz-adv-x="518" 
d="M410 -8q-236 0 -236 252v477l-115 -64q-23 -14 -37 -3t-14 40v35q0 43 29 59l137 78v523q0 51 49 51h39q51 0 51 -51v-441l119 68q27 16 43 6t17 -41v-35q0 -41 -33 -61l-146 -84v-533q-1 -59 19 -94t38 -43t50 -12q43 -4 43 -45v-31q0 -51 -53 -51z" />
    <glyph glyph-name="Nacute" unicode="&#x143;" horiz-adv-x="1525" 
d="M201 51v1338q0 51 49 51h49q37 0 61 -33l713 -1004l119 -194h4q-12 119 -12 194v986q0 51 51 51h41q49 0 49 -51v-1338q0 -51 -49 -51h-49q-39 0 -60 33l-714 1003l-119 195h-4q12 -119 12 -195v-985q0 -51 -49 -51h-43q-49 0 -49 51zM762 1540q-29 0 -39 18t6 39l90 152
q20 35 60 35h47q33 0 40 -18t-12 -44l-108 -149q-25 -33 -62 -33h-22z" />
    <glyph glyph-name="nacute" unicode="&#x144;" horiz-adv-x="1196" 
d="M158 51v928q0 51 51 51h37q49 0 49 -51v-119l-8 -74h4q39 94 146 182q108 87 282 87q174 -1 254 -101t80 -299v-604q0 -51 -52 -51h-38q-49 0 -50 51v567q0 146 -45 226q-46 80 -196 80t-262 -121t-113 -299v-453q0 -51 -49 -51h-39q-51 0 -51 51zM625 1198q-29 0 -39 17
t6 40l90 152q20 35 59 35h47q33 0 40 -18t-11 -44l-108 -149q-25 -33 -62 -33h-22z" />
    <glyph glyph-name="Ncommaaccent" unicode="&#x145;" horiz-adv-x="1525" 
d="M201 51v1338q0 51 49 51h49q37 0 61 -33l713 -1004l119 -194h4q-12 119 -12 194v986q0 51 51 51h41q49 0 49 -51v-1338q0 -51 -49 -51h-49q-39 0 -60 33l-714 1003l-119 195h-4q12 -119 12 -195v-985q0 -51 -49 -51h-43q-49 0 -49 51zM739 -129h31q59 0 59 -104
q0 -63 -24 -126q-25 -62 -66 -63h-12q-45 0 -45 33q0 4 10 42t10 87l-8 96q0 35 45 35z" />
    <glyph glyph-name="ncommaaccent" unicode="&#x146;" horiz-adv-x="1196" 
d="M158 51v928q0 51 51 51h37q49 0 49 -51v-119l-8 -74h4q39 94 146 182q108 87 282 87q174 -1 254 -101t80 -299v-604q0 -51 -52 -51h-38q-49 0 -50 51v567q0 146 -45 226q-46 80 -196 80t-262 -121t-113 -299v-453q0 -51 -49 -51h-39q-51 0 -51 51zM582 -129h30
q59 0 60 -104q0 -63 -25 -125t-65 -64h-13q-45 0 -45 33q0 4 11 42q10 38 10 87l-8 96q0 35 45 35z" />
    <glyph glyph-name="Ncaron" unicode="&#x147;" horiz-adv-x="1525" 
d="M201 51v1338q0 51 49 51h49q37 0 61 -33l713 -1004l119 -194h4q-12 119 -12 194v986q0 51 51 51h41q49 0 49 -51v-1338q0 -51 -49 -51h-49q-39 0 -60 33l-714 1003l-119 195h-4q12 -119 12 -195v-985q0 -51 -49 -51h-43q-49 0 -49 51zM723 1540q-37 0 -61 33l-107 149
q-16 27 -9 44t36 18h30q37 0 58 -33l90 -131h4l90 131q20 33 55 33h33q29 0 36 -18t-11 -44l-105 -149q-27 -33 -63 -33h-76z" />
    <glyph glyph-name="ncaron" unicode="&#x148;" horiz-adv-x="1196" 
d="M158 51v928q0 51 51 51h37q49 0 49 -51v-119l-8 -74h4q39 94 146 182q108 87 282 87q174 -1 254 -101t80 -299v-604q0 -51 -52 -51h-38q-49 0 -50 51v567q0 146 -45 226q-46 80 -196 80t-262 -121t-113 -299v-453q0 -51 -49 -51h-39q-51 0 -51 51zM586 1198q-37 0 -62 33
l-106 149q-16 27 -9 44t35 18h31q37 0 57 -33l91 -131h4l90 131q20 33 55 33h33q29 0 36 -18t-12 -44l-104 -149q-27 -33 -63 -33h-76z" />
    <glyph glyph-name="napostrophe" unicode="&#x149;" horiz-adv-x="1196" 
d="M158 51v928q0 51 51 51h37q49 0 49 -51v-119l-8 -74h4q39 94 146 182q108 87 282 87q174 -1 254 -101t80 -299v-604q0 -51 -52 -51h-38q-49 0 -50 51v567q0 146 -45 226q-46 80 -196 80t-262 -121t-113 -299v-453q0 -51 -49 -51h-39q-51 0 -51 51zM78 1438h31
q59 0 59 -105q0 -63 -25 -125t-65 -63h-12q-45 0 -46 33q0 4 11 42q10 38 10 87l-8 96q0 35 45 35z" />
    <glyph glyph-name="Eng" unicode="&#x14a;" horiz-adv-x="1525" 
d="M201 51v1338q0 51 49 51h49q37 0 61 -33l713 -1004l119 -194h4q-12 119 -12 194v986q0 51 51 51h41q49 0 49 -51v-1395q0 -209 -105 -307t-266 -107q-53 -4 -53 49v29q0 47 49 51q236 20 236 297l-733 1030l-119 195h-4q12 -119 12 -195v-985q0 -51 -49 -51h-43
q-49 0 -49 51z" />
    <glyph glyph-name="eng" unicode="&#x14b;" horiz-adv-x="1200" 
d="M158 51v928q0 51 51 51h37q49 0 49 -51v-119l-8 -74h4q39 94 146 182q108 87 282 87q174 -1 254 -101t80 -299v-692q0 -117 -39 -200q-38 -83 -100 -119q-110 -65 -209 -66h-21q-51 0 -51 51v23q0 45 51 49q232 11 229 266v651q0 146 -45 226q-46 80 -196 80t-262 -121
t-113 -299v-453q0 -51 -49 -51h-39q-51 0 -51 51z" />
    <glyph glyph-name="Omacron" unicode="&#x14c;" horiz-adv-x="1673" 
d="M250 726q0 -261 167 -439t419 -178t418 178t167 439q0 261 -167 433q-166 172 -418 172t-419 -172t-167 -433zM102 726q0 314 210 526t524 212t524 -212q209 -212 209 -527t-209 -532t-523 -217q-315 0 -525 218t-210 532zM635 1608q-51 0 -51 49v14q0 49 51 49h403
q49 0 49 -49v-14q0 -49 -49 -49h-403z" />
    <glyph glyph-name="omacron" unicode="&#x14d;" horiz-adv-x="1259" 
d="M229 518q0 -176 117 -297t284 -121q168 0 284 121t116 297t-117 294t-283 118t-284 -118q-117 -118 -117 -294zM86 518q0 229 159 383t385 154t385 -154t159 -383t-159 -386t-385 -157t-385 157t-159 386zM428 1266q-51 0 -51 49v14q0 49 51 49h403q49 0 50 -49v-14
q0 -49 -50 -49h-403z" />
    <glyph glyph-name="Obreve" unicode="&#x14e;" horiz-adv-x="1673" 
d="M1071 1745q-1 -87 -71 -149t-164 -62t-166 60t-72 151q0 39 47 39h21q41 0 47 -37q12 -117 122 -117t121 117q8 37 48 37h20q47 0 47 -39zM250 726q0 -261 167 -439t419 -178t418 178t167 439q0 261 -167 433q-166 172 -418 172t-419 -172t-167 -433zM102 726
q0 314 210 526t524 212t524 -212q209 -212 209 -527t-209 -532t-523 -217q-315 0 -525 218t-210 532z" />
    <glyph glyph-name="obreve" unicode="&#x14f;" horiz-adv-x="1259" 
d="M631 1192q-94 0 -166 60t-72 151q0 39 47 39h21q41 0 47 -37q12 -117 122 -117t122 117q8 37 47 37h20q47 0 47 -39q0 -88 -70 -150q-71 -61 -165 -61zM229 518q0 -176 117 -297t284 -121q168 0 284 121t116 297t-117 294t-283 118t-284 -118q-117 -118 -117 -294z
M86 518q0 229 159 383t385 154t385 -154t159 -383t-159 -386t-385 -157t-385 157t-159 386z" />
    <glyph glyph-name="Ohungarumlaut" unicode="&#x150;" horiz-adv-x="1673" 
d="M250 726q0 -261 167 -439t419 -178t418 178t167 439q0 261 -167 433q-166 172 -418 172t-419 -172t-167 -433zM102 726q0 314 210 526t524 212t524 -212q209 -212 209 -527t-209 -532t-523 -217q-315 0 -525 218t-210 532zM672 1540q-29 0 -39 18t4 41l82 148
q18 37 59 37h31q31 0 40 -18t-7 -42l-84 -147q-20 -37 -60 -37h-26zM946 1540q-31 0 -40 18t5 41l90 150q20 35 60 35h45q31 0 38 -18t-11 -44l-107 -149q-27 -33 -61 -33h-19z" />
    <glyph glyph-name="ohungarumlaut" unicode="&#x151;" horiz-adv-x="1259" 
d="M229 518q0 -176 117 -297t284 -121q168 0 284 121t116 297t-117 294t-283 118t-284 -118q-117 -118 -117 -294zM86 518q0 229 159 383t385 154t385 -154t159 -383t-159 -386t-385 -157t-385 157t-159 386zM465 1198q-29 0 -39 17t4 42l82 148q18 37 59 37h31q31 0 40 -18
t-7 -42l-84 -147q-23 -37 -59 -37h-27zM739 1198q-31 0 -40 17t6 42l90 150q20 35 59 35h45q31 0 38 -18t-11 -44l-107 -149q-27 -33 -61 -33h-19z" />
    <glyph glyph-name="OE" unicode="&#x152;" horiz-adv-x="1912" 
d="M838 109q71 0 143 16v1190q-66 16 -143 16q-260 0 -424 -174t-164 -436t164 -437t424 -175zM102 720q0 314 209 527t527 213l243 -20h662q49 0 49 -51v-25q0 -51 -49 -51h-621v-525h498q49 0 49 -49v-26q0 -51 -49 -51h-498v-535h658q49 0 49 -51v-25q0 -51 -49 -51h-697
l-245 -20q-317 0 -527 213q-209 213 -209 527z" />
    <glyph glyph-name="oe" unicode="&#x153;" horiz-adv-x="2054" 
d="M231 513q0 -183 116 -298t284 -115q167 0 283 116t116 301t-118 299t-284 114t-281 -117q-116 -117 -116 -300zM1530 938q-127 0 -225 -85t-123 -237h645q-6 154 -88 238t-209 84zM627 -25q-225 -1 -382 149t-157 389t157 391t382 151q155 0 277 -74t188 -203h4
q61 131 177 204t265 73q204 0 318 -134t114 -358q0 -19 -15 -35t-38 -16h-741q8 -196 122 -304t272 -108q159 0 273 95q45 29 70 -13l12 -22q25 -43 -12 -70q-150 -115 -327 -115t-301 75t-185 206h-4q-66 -131 -189 -206t-280 -75z" />
    <glyph glyph-name="Racute" unicode="&#x154;" horiz-adv-x="1247" 
d="M342 733h342q129 0 207 83t78 218q0 86 -40 153q-39 67 -105 97t-195 29h-287v-580zM201 51v1338q0 51 49 51h389q174 0 262 -41q213 -102 213 -361q0 -145 -75 -254t-197 -143v-4q14 -18 37 -57l280 -521q14 -27 4 -43t-39 -16h-53q-41 0 -59 35l-307 571h-363v-555
q0 -51 -49 -51h-43q-49 0 -49 51zM608 1540q-29 0 -39 18t6 39l91 152q20 35 59 35h47q33 0 40 -18t-11 -44l-109 -149q-25 -33 -61 -33h-23z" />
    <glyph glyph-name="racute" unicode="&#x155;" horiz-adv-x="692" 
d="M158 51v928q0 51 51 51h37q49 0 49 -51v-139l-8 -82h4q39 118 127 198t205 80q53 0 53 -49v-37q0 -51 -58 -51q-152 0 -236 -141t-85 -322v-385q0 -51 -49 -51h-39q-51 0 -51 51zM430 1196q-29 0 -39 17t6 40l90 152q20 35 60 35h47q33 0 40 -18t-11 -44l-109 -149
q-25 -33 -61 -33h-23z" />
    <glyph glyph-name="Rcommaaccent" unicode="&#x156;" horiz-adv-x="1245" 
d="M342 733h342q129 0 207 83t78 218q0 86 -40 153q-39 67 -105 97t-195 29h-287v-580zM201 51v1338q0 51 49 51h389q174 0 262 -41q213 -102 213 -361q0 -145 -75 -254t-197 -143v-4q14 -18 37 -57l280 -521q14 -27 4 -43t-39 -16h-53q-41 0 -59 35l-307 571h-363v-555
q0 -51 -49 -51h-43q-49 0 -49 51zM629 -129h30q59 0 60 -104q0 -63 -25 -125t-65 -64h-13q-45 0 -45 33q0 4 11 42q10 38 10 87l-8 96q0 35 45 35z" />
    <glyph glyph-name="rcommaaccent" unicode="&#x157;" horiz-adv-x="692" 
d="M158 51v928q0 51 51 51h37q49 0 49 -51v-139l-8 -82h4q39 118 127 198t205 80q53 0 53 -49v-37q0 -51 -58 -51q-152 0 -236 -141t-85 -322v-385q0 -51 -49 -51h-39q-51 0 -51 51zM211 -129h31q59 0 59 -104q0 -63 -25 -125t-65 -64h-12q-45 0 -45 33q0 4 10 42t10 87
l-8 96q0 35 45 35z" />
    <glyph glyph-name="Rcaron" unicode="&#x158;" horiz-adv-x="1247" 
d="M342 733h342q129 0 207 83t78 218q0 86 -40 153q-39 67 -105 97t-195 29h-287v-580zM201 51v1338q0 51 49 51h389q174 0 262 -41q213 -102 213 -361q0 -145 -75 -254t-197 -143v-4q14 -18 37 -57l280 -521q14 -27 4 -43t-39 -16h-53q-41 0 -59 35l-307 571h-363v-555
q0 -51 -49 -51h-43q-49 0 -49 51zM571 1540q-37 0 -61 33l-107 149q-16 27 -9 44t36 18h31q37 0 57 -33l90 -131h4l90 131q20 33 56 33h33q29 0 35 -18t-11 -44l-104 -149q-27 -33 -64 -33h-76z" />
    <glyph glyph-name="rcaron" unicode="&#x159;" horiz-adv-x="692" 
d="M158 51v928q0 51 51 51h37q49 0 49 -51v-139l-8 -82h4q39 118 127 198t205 80q53 0 53 -49v-37q0 -51 -58 -51q-152 0 -236 -141t-85 -322v-385q0 -51 -49 -51h-39q-51 0 -51 51zM393 1196q-37 0 -61 33l-107 149q-16 27 -9 44t36 18h31q37 0 57 -33l90 -131h4l90 131
q20 33 56 33h32q29 0 36 -18t-11 -44l-105 -149q-27 -33 -63 -33h-76z" />
    <glyph glyph-name="Sacute" unicode="&#x15a;" horiz-adv-x="1077" 
d="M543 111q131 -1 212 67t81 178q0 136 -143 225q-62 37 -139 71t-154 71t-139 81t-102 115t-40 160q0 173 129 279q130 106 328 106t344 -112q37 -29 12 -68l-19 -33q-27 -43 -71 -14q-136 92 -270 92q-134 1 -221 -65t-87 -187t143 -203q62 -35 199 -93t233 -126
q62 -45 102 -117t40 -167q0 -170 -119 -283t-319 -113q-240 0 -422 152q-33 33 -6 72l24 30q31 37 72 7q150 -125 332 -125zM541 1540q-29 0 -39 18t6 39l90 152q20 35 59 35h48q33 0 39 -18t-11 -44l-108 -149q-25 -33 -62 -33h-22z" />
    <glyph glyph-name="sacute" unicode="&#x15b;" horiz-adv-x="882" 
d="M111 766q0 137 100 213t258 76t274 -84q41 -25 15 -68l-15 -22q-23 -41 -69 -15q-96 66 -202 66q-222 0 -222 -160q0 -66 56 -110t137 -73q81 -30 162 -64q81 -33 137 -99t56 -176t-96 -193q-98 -82 -251 -82q-208 0 -349 119q-37 29 -8 70l17 20q27 35 69 9
q123 -94 273 -95q90 0 149 44q60 44 60 114t-56 116q-56 44 -138 72q-81 28 -163 64t-138 100t-56 158zM444 1198q-28 0 -38 17t6 40l90 152q20 35 59 35h47q33 0 40 -18t-11 -44l-109 -149q-25 -33 -61 -33h-23z" />
    <glyph glyph-name="Scircumflex" unicode="&#x15c;" horiz-adv-x="1077" 
d="M543 111q131 -1 212 67t81 178q0 136 -143 225q-62 37 -139 71t-154 71t-139 81t-102 115t-40 160q0 173 129 279q130 106 328 106t344 -112q37 -29 12 -68l-19 -33q-27 -43 -71 -14q-136 92 -270 92q-134 1 -221 -65t-87 -187t143 -203q62 -35 199 -93t233 -126
q62 -45 102 -117t40 -167q0 -170 -119 -283t-319 -113q-240 0 -422 152q-33 33 -6 72l24 30q31 37 72 7q150 -125 332 -125zM362 1540q-30 0 -36 18t10 44l106 149q25 33 62 33h76q37 0 63 -33l105 -149q18 -27 12 -44t-35 -18h-35q-35 0 -55 35l-90 131h-4l-90 -131
q-20 -35 -58 -35h-31z" />
    <glyph glyph-name="scircumflex" unicode="&#x15d;" horiz-adv-x="882" 
d="M111 766q0 137 100 213t258 76t274 -84q41 -25 15 -68l-15 -22q-23 -41 -69 -15q-96 66 -202 66q-222 0 -222 -160q0 -66 56 -110t137 -73q81 -30 162 -64q81 -33 137 -99t56 -176t-96 -193q-98 -82 -251 -82q-208 0 -349 119q-37 29 -8 70l17 20q27 35 69 9
q123 -94 273 -95q90 0 149 44q60 44 60 114t-56 116q-56 44 -138 72q-81 28 -163 64t-138 100t-56 158zM270 1198q-29 0 -36 17t10 45l106 149q25 33 62 33h75q37 0 64 -33l104 -149q18 -27 13 -45q-6 -17 -35 -17h-35q-35 0 -55 35l-90 131h-4l-91 -131q-20 -35 -57 -35
h-31z" />
    <glyph glyph-name="Scedilla" unicode="&#x15e;" horiz-adv-x="1081" 
d="M604 -256q0 63 -100 72q-18 2 -29 16q-10 14 -6 37l25 108q-215 16 -373 150q-33 33 -6 72l24 30q31 37 72 7q150 -125 332 -125q131 -1 212 67t81 178q0 136 -143 225q-62 37 -139 71t-154 71t-139 81t-102 115t-40 160q0 173 129 279q130 106 328 106t344 -112
q37 -29 12 -68l-19 -33q-27 -43 -71 -14q-136 92 -270 92q-134 1 -221 -65t-87 -187t143 -203q62 -35 199 -93t233 -126q62 -45 102 -117t40 -167q-1 -160 -107 -271t-288 -123l-17 -90q63 -10 103 -48q40 -37 41 -109q-1 -72 -57 -111t-147 -39t-91 50t33 51l53 -7
q100 0 100 70z" />
    <glyph glyph-name="scedilla" unicode="&#x15f;" horiz-adv-x="886" 
d="M506 -256q0 63 -100 72q-18 2 -29 16q-10 14 -6 37l24 108q-178 16 -293 117q-37 29 -8 70l17 20q27 35 69 9q123 -94 273 -95q90 0 149 44q60 44 60 114t-56 116q-56 44 -138 72q-81 28 -163 64t-138 100t-56 158q0 137 100 213t258 76t274 -84q41 -25 15 -68l-15 -22
q-23 -41 -69 -15q-96 66 -202 66q-222 0 -222 -160q0 -66 56 -110t137 -73q81 -30 162 -64q81 -33 137 -99t56 -172t-85 -186q-86 -80 -226 -91l-16 -90q63 -10 103 -48q40 -37 40 -109t-56 -111t-147 -39t-92 49q0 51 33 52l54 -7q100 0 100 70z" />
    <glyph glyph-name="Scaron" unicode="&#x160;" horiz-adv-x="1077" 
d="M543 111q131 -1 212 67t81 178q0 136 -143 225q-62 37 -139 71t-154 71t-139 81t-102 115t-40 160q0 173 129 279q130 106 328 106t344 -112q37 -29 12 -68l-19 -33q-27 -43 -71 -14q-136 92 -270 92q-134 1 -221 -65t-87 -187t143 -203q62 -35 199 -93t233 -126
q62 -45 102 -117t40 -167q0 -170 -119 -283t-319 -113q-240 0 -422 152q-33 33 -6 72l24 30q31 37 72 7q150 -125 332 -125zM504 1540q-37 0 -62 33l-106 149q-16 27 -9 44t35 18h31q37 0 58 -33l90 -131h4l90 131q20 33 55 33h33q29 0 36 -18t-11 -44l-105 -149
q-27 -33 -63 -33h-76z" />
    <glyph glyph-name="scaron" unicode="&#x161;" horiz-adv-x="882" 
d="M111 766q0 137 100 213t258 76t274 -84q41 -25 15 -68l-15 -22q-23 -41 -69 -15q-96 66 -202 66q-222 0 -222 -160q0 -66 56 -110t137 -73q81 -30 162 -64q81 -33 137 -99t56 -176t-96 -193q-98 -82 -251 -82q-208 0 -349 119q-37 29 -8 70l17 20q27 35 69 9
q123 -94 273 -95q90 0 149 44q60 44 60 114t-56 116q-56 44 -138 72q-81 28 -163 64t-138 100t-56 158zM412 1198q-37 0 -62 33l-106 149q-16 27 -10 44q7 17 36 18h31q37 0 57 -33l91 -131h4l90 131q20 33 55 33h33q29 0 36 -18t-12 -44l-104 -149q-27 -33 -64 -33h-75z
" />
    <glyph glyph-name="Tcommaaccent" unicode="&#x162;" horiz-adv-x="1200" 
d="M655 -256q0 63 -100 72q-18 2 -29 16q-10 14 -6 37l31 137q-23 12 -23 45v1262h-465q-51 0 -51 51v25q0 51 51 51h1074q51 0 51 -51v-25q0 -51 -51 -51h-467v-1262q0 -39 -29 -49l-20 -115q63 -10 103 -48q40 -37 40 -109t-56 -111t-148 -39t-91 50q0 50 33 51l53 -7
q100 0 100 70z" />
    <glyph glyph-name="tcommaaccent" unicode="&#x163;" horiz-adv-x="659" 
d="M201 905h-86q-49 0 -49 49v17q0 51 49 51h88v242q0 51 51 51h37q49 0 49 -51v-242h209q51 0 51 -51v-17q0 -49 -51 -49h-209v-516q0 -258 225 -270q31 -5 43 -15t13 -36v-27q-1 -49 -57 -49t-120 14l-20 -119q63 -10 103 -48q40 -37 40 -109t-56 -111t-147 -39t-92 49
q0 51 33 52l53 -7q100 0 101 70q0 63 -101 72q-18 2 -28 16t-6 37l38 170q-162 88 -161 332v534z" />
    <glyph glyph-name="Tcaron" unicode="&#x164;" horiz-adv-x="1200" 
d="M528 51v1262h-465q-51 0 -51 51v25q0 51 51 51h1074q51 0 51 -51v-25q0 -51 -51 -51h-467v-1262q0 -51 -49 -51h-41q-52 0 -52 51zM559 1540q-37 0 -61 33l-107 149q-16 27 -9 44t36 18h31q37 0 57 -33l90 -131h4l90 131q20 33 55 33h33q29 0 36 -18t-11 -44l-105 -149
q-27 -33 -63 -33h-76z" />
    <glyph glyph-name="tcaron" unicode="&#x165;" horiz-adv-x="655" 
d="M199 371v534h-86q-49 0 -50 49v17q0 51 50 51h88v242q0 51 51 51h37q49 0 49 -51v-242h209q51 0 51 -51v-17q0 -49 -51 -49h-209v-516q0 -258 225 -270q31 -5 43 -15t12 -36v-27q0 -49 -57 -49q-170 0 -266 100t-96 279zM522 1438h31q59 0 59 -105q0 -63 -24 -126
q-25 -62 -66 -62h-12q-45 0 -45 33q0 4 10 42t10 87l-8 96q0 35 45 35z" />
    <glyph glyph-name="Tbar" unicode="&#x166;" horiz-adv-x="1204" 
d="M530 51v613h-280q-49 0 -49 51v16q0 49 49 49h280v533h-467q-49 0 -49 51v25q0 51 49 51h1076q51 0 51 -51v-25q0 -51 -51 -51h-467v-533h289q51 0 51 -49v-16q0 -51 -51 -51h-289v-613q0 -51 -49 -51h-41q-52 0 -52 51z" />
    <glyph glyph-name="tbar" unicode="&#x167;" horiz-adv-x="661" 
d="M199 371v200h-86q-49 0 -50 50v16q0 51 50 51h86v221h-86q-49 0 -50 49v13q0 51 50 51h88v242q0 51 51 51h37q49 0 49 -51v-242h209q51 0 51 -51v-13q0 -49 -49 -49h-211v-221h209q51 0 51 -51v-16q0 -49 -49 -50h-211v-186q0 -254 225 -266q31 -5 43 -15t12 -36v-27
q0 -49 -57 -49q-168 0 -265 100t-97 279z" />
    <glyph glyph-name="Utilde" unicode="&#x168;" horiz-adv-x="1464" 
d="M461 1546q-45 0 -45 53q0 83 50 135t114 52q106 0 166 -74q61 -74 106 -74q83 0 88 103q0 39 47 39h17q43 0 43 -47q-1 -89 -49 -141t-120 -52t-118 37q-47 37 -84 73t-74 36q-36 0 -58 -31t-22 -74q-4 -35 -47 -35h-14zM180 502v887q0 51 51 51h41q51 0 52 -51v-885
q0 -184 110 -290q111 -105 298 -105t298 106t111 293v881q0 51 51 51h41q49 0 49 -51v-887q0 -238 -152 -382t-398 -144t-400 144q-152 144 -152 382z" />
    <glyph glyph-name="utilde" unicode="&#x169;" horiz-adv-x="1187" 
d="M315 1204q-45 0 -45 53q0 83 50 135t114 52q101 0 167 -74t108 -74q78 0 86 103q0 39 47 39h16q43 0 43 -47q0 -89 -48 -141t-133 -52t-149 73t-108 73q-43 -2 -65 -32t-21 -73q-4 -35 -47 -35h-15zM145 375v604q0 51 50 51h38q51 0 52 -51v-567q0 -146 44 -226t179 -80
q170 0 275 127t106 304v442q0 51 51 51h39q49 0 49 -51v-928q0 -51 -49 -51h-37q-49 0 -49 51v119l6 74h-4q-37 -96 -144 -183q-108 -86 -275 -86q-167 -1 -249 97t-82 303z" />
    <glyph glyph-name="Umacron" unicode="&#x16a;" horiz-adv-x="1464" 
d="M530 1608q-51 0 -51 49v14q0 49 51 49h404q49 0 49 -49v-14q0 -49 -49 -49h-404zM180 502v887q0 51 51 51h41q51 0 52 -51v-885q0 -184 110 -290q111 -105 298 -105t298 106t111 293v881q0 51 51 51h41q49 0 49 -51v-887q0 -238 -152 -382t-398 -144t-400 144
q-152 144 -152 382z" />
    <glyph glyph-name="umacron" unicode="&#x16b;" horiz-adv-x="1187" 
d="M385 1266q-51 0 -51 49v14q0 49 51 49h403q49 0 50 -49v-14q0 -49 -50 -49h-403zM145 375v604q0 51 50 51h38q51 0 52 -51v-567q0 -146 44 -226t179 -80q170 0 275 127t106 304v442q0 51 51 51h39q49 0 49 -51v-928q0 -51 -49 -51h-37q-49 0 -49 51v119l6 74h-4
q-37 -96 -144 -183q-108 -86 -275 -86q-167 -1 -249 97t-82 303z" />
    <glyph glyph-name="Ubreve" unicode="&#x16c;" horiz-adv-x="1464" 
d="M967 1745q0 -87 -71 -149t-165 -62t-166 60t-71 151q0 39 47 39h20q41 0 47 -37q12 -117 122 -117t122 117q8 37 47 37h21q47 0 47 -39zM180 502v887q0 51 51 51h41q51 0 52 -51v-885q0 -184 110 -290q111 -105 298 -105t298 106t111 293v881q0 51 51 51h41q49 0 49 -51
v-887q0 -238 -152 -382t-398 -144t-400 144q-152 144 -152 382z" />
    <glyph glyph-name="ubreve" unicode="&#x16d;" horiz-adv-x="1187" 
d="M586 1192q-94 0 -166 60t-72 151q0 39 47 39h21q41 0 47 -37q12 -117 122 -117t122 117q8 37 47 37h20q47 0 47 -39q0 -88 -70 -150q-71 -61 -165 -61zM145 375v604q0 51 50 51h38q51 0 52 -51v-567q0 -146 44 -226t179 -80q170 0 275 127t106 304v442q0 51 51 51h39
q49 0 49 -51v-928q0 -51 -49 -51h-37q-49 0 -49 51v119l6 74h-4q-37 -96 -144 -183q-108 -86 -275 -86q-167 -1 -249 97t-82 303z" />
    <glyph glyph-name="Uring" unicode="&#x16e;" horiz-adv-x="1464" 
d="M180 502v887q0 51 51 51h41q51 0 52 -51v-885q0 -184 110 -290q111 -105 298 -105t298 106t111 293v881q0 51 51 51h41q49 0 49 -51v-887q0 -238 -152 -382t-398 -144t-400 144q-152 144 -152 382zM730 1595q30 -1 48 19t18 50t-18 49t-48 19t-48 -18q-18 -20 -18 -50
t18 -50t48 -19zM729 1518q-63 0 -108 41t-46 104t45 104t109 41t109 -41t47 -104q-1 -63 -47 -104t-109 -41z" />
    <glyph glyph-name="uring" unicode="&#x16f;" horiz-adv-x="1187" 
d="M145 375v604q0 51 50 51h38q51 0 52 -51v-567q0 -146 44 -226t179 -80q170 0 275 127t106 304v442q0 51 51 51h39q49 0 49 -51v-928q0 -51 -49 -51h-37q-49 0 -49 51v119l6 74h-4q-37 -96 -144 -183q-108 -86 -275 -86q-167 -1 -249 97t-82 303zM585 1253q30 -1 48 19
t18 50t-18 49t-48 19t-48 -18q-19 -20 -19 -50t18 -50t49 -19zM584 1176q-63 0 -109 41q-45 41 -45 104t45 104t109 41t109 -41q46 -41 46 -104t-46 -104t-109 -41z" />
    <glyph glyph-name="Uhungarumlaut" unicode="&#x170;" horiz-adv-x="1464" 
d="M567 1540q-29 0 -39 18t4 41l82 148q18 37 60 37h31q31 0 39 -18t-7 -42l-84 -147q-23 -37 -59 -37h-27zM842 1540q-31 0 -40 18t5 41l90 150q20 35 59 35h45q31 0 38 -18t-11 -44l-106 -149q-27 -33 -62 -33h-18zM180 502v887q0 51 51 51h41q51 0 52 -51v-885
q0 -184 110 -290q111 -105 298 -105t298 106t111 293v881q0 51 51 51h41q49 0 49 -51v-887q0 -238 -152 -382t-398 -144t-400 144q-152 144 -152 382z" />
    <glyph glyph-name="uhungarumlaut" unicode="&#x171;" horiz-adv-x="1187" 
d="M422 1198q-29 0 -39 17t4 42l82 148q18 37 59 37h31q31 0 40 -18t-7 -42l-84 -147q-20 -37 -59 -37h-27zM696 1198q-31 0 -40 17t6 42l90 150q20 35 59 35h45q31 0 38 -18t-11 -44l-107 -149q-27 -33 -61 -33h-19zM145 375v604q0 51 50 51h38q51 0 52 -51v-567
q0 -146 44 -226t179 -80q170 0 275 127t106 304v442q0 51 51 51h39q49 0 49 -51v-928q0 -51 -49 -51h-37q-49 0 -49 51v119l6 74h-4q-37 -96 -144 -183q-108 -86 -275 -86q-167 -1 -249 97t-82 303z" />
    <glyph glyph-name="Uogonek" unicode="&#x172;" horiz-adv-x="1464" 
d="M180 502v887q0 51 51 51h41q51 0 52 -51v-885q0 -184 110 -290q111 -105 298 -105t298 106t111 293v881q0 51 51 51h41q49 0 49 -51v-887q0 -174 -72 -280t-194 -181q-221 -133 -221 -246q0 -68 94 -98q37 -12 29 -51l-5 -23q-10 -43 -53 -37q-72 12 -132 56t-60 140
q0 98 110 195q-260 -13 -429 131t-169 394z" />
    <glyph glyph-name="uogonek" unicode="&#x173;" horiz-adv-x="1187" 
d="M145 375v604q0 51 50 51h38q51 0 52 -51v-567q0 -146 44 -226t179 -80q170 0 275 127t106 304v442q0 51 51 51h39q49 0 49 -51v-928q0 -33 -39 -71t-78 -84q-39 -47 -39 -101q0 -68 95 -98q35 -12 26 -51l-2 -23q-10 -43 -53 -37q-72 12 -132 56t-60 122q0 80 50 146
q52 66 109 104q-12 12 -12 37v119l6 74h-4q-37 -96 -144 -183q-108 -86 -275 -86q-167 -1 -249 97t-82 303z" />
    <glyph glyph-name="Wcircumflex" unicode="&#x174;" horiz-adv-x="1904" 
d="M178 1440q43 0 55 -45l269 -1073l33 -154h4q14 80 34 154l297 1075q12 43 56 43h47q43 0 55 -43l295 -1075l37 -154h4q12 80 31 154l280 1073q12 45 56 45h45q27 0 39 -14t4 -42l-357 -1341q-12 -43 -57 -43h-78q-45 0 -57 43l-266 971l-52 215h-6q-25 -123 -51 -215
l-268 -971q-12 -43 -56 -43h-79q-44 0 -56 45l-348 1339q-12 55 45 56h45zM786 1540q-30 0 -36 18t10 44l106 149q25 33 62 33h76q37 0 63 -33l104 -149q19 -27 13 -44t-35 -18h-35q-35 0 -55 35l-90 131h-4l-91 -131q-20 -35 -57 -35h-31z" />
    <glyph glyph-name="wcircumflex" unicode="&#x175;" horiz-adv-x="1630" 
d="M90 1030h43q45 0 57 -43l236 -725l31 -110h4q16 61 33 110l239 723q12 41 58 41h49q45 0 57 -41l240 -723l32 -110h5q12 59 30 110l236 725q12 43 57 43h43q57 0 41 -57l-315 -930q-12 -43 -58 -43h-63q-45 0 -58 43l-239 690l-31 111h-4q-14 -59 -33 -111l-237 -690
q-12 -43 -58 -43h-63q-46 0 -60 43l-315 930q-16 57 43 57zM633 1198q-29 0 -36 17t9 45l107 149q25 33 61 33h76q37 0 63 -33l105 -149q18 -26 12 -44t-35 -18h-34q-35 0 -56 35l-90 131h-4l-90 -131q-20 -35 -57 -35h-31z" />
    <glyph glyph-name="Ycircumflex" unicode="&#x176;" horiz-adv-x="1134" 
d="M387 1540q-29 0 -36 18t9 44l107 149q25 33 61 33h76q37 0 64 -33l104 -149q18 -27 12 -44t-34 -18h-35q-35 0 -56 35l-90 131h-4l-90 -131q-20 -35 -57 -35h-31zM498 51v567l-453 762q-16 25 -6 42t41 18h51q41 0 59 -35l287 -487l88 -173h4q45 96 88 173l287 487
q18 35 57 35h54q29 0 39 -18t-4 -42l-451 -762v-567q0 -51 -51 -51h-41q-49 0 -49 51z" />
    <glyph glyph-name="ycircumflex" unicode="&#x177;" horiz-adv-x="1005" 
d="M328 1196q-29 0 -36 17t9 44l107 150q25 33 61 33h76q37 0 63 -33l105 -150q18 -27 12 -44t-35 -17h-35q-35 0 -55 35l-90 131h-4l-90 -131q-20 -35 -58 -35h-30zM74 1030h47q43 0 57 -39l289 -712l37 -109h4q14 57 35 109l282 710q14 41 58 41h45q58 0 41 -59
l-486 -1180q-41 -102 -118 -162q-79 -59 -163 -59t-157 37q-45 20 -22 65l12 23q20 39 61 24q59 -27 90 -26q119 0 193 170l61 145l-405 963q-10 27 0 43t39 16z" />
    <glyph glyph-name="Ydieresis" unicode="&#x178;" horiz-adv-x="1134" 
d="M389 1608q-49 0 -49 49v76q0 51 49 51h27q49 0 49 -51v-76q0 -49 -49 -49h-27zM698 1608q-49 0 -49 49v76q0 51 49 51h27q51 0 51 -51v-76q0 -49 -51 -49h-27zM498 51v567l-453 762q-16 25 -6 42t41 18h51q41 0 59 -35l287 -487l88 -173h4q45 96 88 173l287 487
q18 35 57 35h54q29 0 39 -18t-4 -42l-451 -762v-567q0 -51 -51 -51h-41q-49 0 -49 51z" />
    <glyph glyph-name="Zacute" unicode="&#x179;" horiz-adv-x="1177" 
d="M68 51v15q0 35 20 63l725 1053q22 34 100 131v4q-35 -4 -106 -4h-649q-49 0 -49 51v25q0 51 49 51h880q51 0 52 -49v-17q0 -35 -21 -63l-725 -1053q-41 -63 -86 -115l-14 -16v-4q35 4 106 4h697q49 0 49 -51v-25q0 -51 -49 -51h-928q-51 0 -51 51zM610 1540q-29 0 -39 18
t7 39l90 152q20 35 59 35h47q33 0 40 -18t-11 -44l-109 -149q-25 -33 -61 -33h-23z" />
    <glyph glyph-name="zacute" unicode="&#x17a;" horiz-adv-x="1005" 
d="M70 45v14q0 33 20 60l553 694l82 94v4q-35 -4 -102 -4h-480q-49 0 -49 49v23q0 51 49 51h721q49 0 49 -45v-14q0 -33 -20 -60l-555 -694l-84 -94v-4q37 4 104 4h527q49 0 49 -49v-23q0 -51 -49 -51h-766q-49 0 -49 45zM496 1198q-29 0 -39 17t6 40l90 152q20 35 59 35h47
q33 0 40 -18t-11 -44l-108 -149q-25 -33 -62 -33h-22z" />
    <glyph glyph-name="Zdotaccent" unicode="&#x17b;" horiz-adv-x="1177" 
d="M594 1610q-49 0 -49 51v72q0 51 49 51h35q49 0 49 -51v-72q0 -51 -49 -51h-35zM68 51v15q0 35 20 63l725 1053q22 34 100 131v4q-35 -4 -106 -4h-649q-49 0 -49 51v25q0 51 49 51h880q51 0 52 -49v-17q0 -35 -21 -63l-725 -1053q-41 -63 -86 -115l-14 -16v-4q35 4 106 4
h697q49 0 49 -51v-25q0 -51 -49 -51h-928q-51 0 -51 51z" />
    <glyph glyph-name="zdotaccent" unicode="&#x17c;" horiz-adv-x="1005" 
d="M483 1268q-49 0 -49 51v72q0 51 49 51h35q49 0 49 -51v-72q0 -51 -49 -51h-35zM70 45v14q0 33 20 60l553 694l82 94v4q-35 -4 -102 -4h-480q-49 0 -49 49v23q0 51 49 51h721q49 0 49 -45v-14q0 -33 -20 -60l-555 -694l-84 -94v-4q37 4 104 4h527q49 0 49 -49v-23
q0 -51 -49 -51h-766q-49 0 -49 45z" />
    <glyph glyph-name="Zcaron" unicode="&#x17d;" horiz-adv-x="1177" 
d="M68 51v15q0 35 20 63l725 1053q22 34 100 131v4q-35 -4 -106 -4h-649q-49 0 -49 51v25q0 51 49 51h880q51 0 52 -49v-17q0 -35 -21 -63l-725 -1053q-41 -63 -86 -115l-14 -16v-4q35 4 106 4h697q49 0 49 -51v-25q0 -51 -49 -51h-928q-51 0 -51 51zM571 1540q-37 0 -61 33
l-107 149q-16 27 -9 44t36 18h31q37 0 57 -33l90 -131h4l90 131q20 33 56 33h33q29 0 35 -18t-11 -44l-104 -149q-27 -33 -64 -33h-76z" />
    <glyph glyph-name="zcaron" unicode="&#x17e;" horiz-adv-x="1005" 
d="M70 45v14q0 33 20 60l553 694l82 94v4q-35 -4 -102 -4h-480q-49 0 -49 49v23q0 51 49 51h721q49 0 49 -45v-14q0 -33 -20 -60l-555 -694l-84 -94v-4q37 4 104 4h527q49 0 49 -49v-23q0 -51 -49 -51h-766q-49 0 -49 45zM463 1198q-37 0 -62 33l-106 149q-16 27 -9 44
t36 18h30q37 0 58 -33l90 -131h4l90 131q20 33 55 33h33q29 0 36 -18t-11 -44l-105 -149q-27 -33 -63 -33h-76z" />
    <glyph glyph-name="longs" unicode="&#x17f;" horiz-adv-x="491" 
d="M195 51v854h-82q-49 0 -50 49v17q0 51 50 51h82v47q0 115 37 196q38 81 98 117q112 68 211 68h22q49 0 49 -51v-25q0 -47 -55 -49q-226 -11 -223 -258v-1016q0 -51 -51 -51h-39q-49 0 -49 51z" />
    <glyph glyph-name="florin" unicode="&#x192;" horiz-adv-x="716" 
d="M864 1403v-25q0 -49 -45 -45q-66 8 -112 8q-85 0 -154 -44q-91 -58 -107 -220l-20 -213h207q49 0 49 -51v-16q0 -49 -49 -49h-217l-51 -584q-8 -96 -41 -169q-96 -212 -347 -212q-55 0 -88 6q-47 4 -47 53v23q1 53 54 47q54 -6 84 -6t65 9q159 41 180 255l49 578h-133
q-49 0 -49 49v16q0 51 49 51h144l20 219q10 119 55 201t110 118q112 62 226 62l121 -8q47 -6 47 -53z" />
    <glyph glyph-name="Scommaaccent" unicode="&#x218;" horiz-adv-x="1077" 
d="M543 111q131 -1 212 67t81 178q0 136 -143 225q-62 37 -139 71t-154 71t-139 81t-102 115t-40 160q0 173 129 279q130 106 328 106t344 -112q37 -29 12 -68l-19 -33q-27 -43 -71 -14q-136 92 -270 92q-134 1 -221 -65t-87 -187t143 -203q62 -35 199 -93t233 -126
q62 -45 102 -117t40 -167q0 -170 -119 -283t-319 -113q-240 0 -422 152q-33 33 -6 72l24 30q31 37 72 7q150 -125 332 -125zM514 -129h31q59 0 59 -104q0 -63 -24 -126q-25 -62 -66 -63h-12q-45 0 -45 33q0 4 10 42t10 87l-8 96q0 35 45 35z" />
    <glyph glyph-name="scommaaccent" unicode="&#x219;" horiz-adv-x="882" 
d="M111 766q0 137 100 213t258 76t274 -84q41 -25 15 -68l-15 -22q-23 -41 -69 -15q-96 66 -202 66q-222 0 -222 -160q0 -66 56 -110t137 -73q81 -30 162 -64q81 -33 137 -99t56 -176t-96 -193q-98 -82 -251 -82q-208 0 -349 119q-37 29 -8 70l17 20q27 35 69 9
q123 -94 273 -95q90 0 149 44q60 44 60 114t-56 116q-56 44 -138 72q-81 28 -163 64t-138 100t-56 158zM422 -129h31q59 0 59 -104q0 -63 -25 -125t-65 -64h-12q-45 0 -45 33q0 4 10 42t10 87l-8 96q0 35 45 35z" />
    <glyph glyph-name="uni021A" unicode="&#x21a;" horiz-adv-x="1202" 
d="M528 51v1262h-465q-51 0 -51 51v25q0 51 51 51h1074q51 0 51 -51v-25q0 -51 -51 -51h-467v-1262q0 -51 -49 -51h-41q-52 0 -52 51zM580 -129h30q59 0 60 -104q0 -63 -25 -125t-65 -64h-13q-45 0 -45 33q0 4 10 42t11 87l-8 96q0 35 45 35z" />
    <glyph glyph-name="uni021B" unicode="&#x21b;" horiz-adv-x="655" 
d="M199 371v534h-86q-49 0 -50 49v17q0 51 50 51h88v242q0 51 51 51h37q49 0 49 -51v-242h209q51 0 51 -51v-17q0 -49 -51 -49h-209v-516q0 -258 225 -270q31 -5 43 -15t12 -36v-27q0 -49 -57 -49q-170 0 -266 100t-96 279zM334 -129h31q59 0 59 -104q0 -63 -25 -125
t-65 -64h-12q-45 0 -46 33q0 4 11 42q10 38 10 87l-8 96q0 35 45 35z" />
    <glyph glyph-name="circumflex" unicode="&#x2c6;" horiz-adv-x="1032" 
d="M336 1540q-29 0 -36 18t9 44l107 149q25 33 61 33h76q37 0 63 -33l105 -149q18 -27 12 -44t-35 -18h-34q-35 0 -56 35l-90 131h-4l-90 -131q-20 -35 -57 -35h-31z" />
    <glyph glyph-name="caron" unicode="&#x2c7;" horiz-adv-x="1032" 
d="M477 1540q-37 0 -61 33l-107 149q-16 27 -9 44t36 18h31q37 0 57 -33l90 -131h4l90 131q20 33 56 33h32q29 0 36 -18t-11 -44l-105 -149q-27 -33 -63 -33h-76z" />
    <glyph glyph-name="breve" unicode="&#x2d8;" horiz-adv-x="1034" 
d="M754 1745q0 -87 -71 -149t-165 -62t-166 60t-71 151q0 39 47 39h20q41 0 47 -37q12 -117 122 -117t122 117q8 37 47 37h21q47 0 47 -39z" />
    <glyph glyph-name="dotaccent" unicode="&#x2d9;" horiz-adv-x="1034" 
d="M500 1610q-49 0 -49 51v72q0 51 49 51h35q49 0 49 -51v-72q0 -51 -49 -51h-35z" />
    <glyph glyph-name="ring" unicode="&#x2da;" horiz-adv-x="1034" 
d="M517 1595q30 -1 48 19q19 20 19 50t-18 49t-49 19q-30 0 -48 -18q-18 -20 -18 -50t18 -50t48 -19zM516 1518q-63 0 -108 41t-46 104q0 63 46 104t108 41q64 0 110 -41t46 -104t-46 -104t-110 -41z" />
    <glyph glyph-name="ogonek" unicode="&#x2db;" horiz-adv-x="1032" 
d="M365 -244q0 157 172 271q35 20 71 8q55 -16 13 -53q-129 -109 -129 -182t94 -103q35 -12 26 -51l-2 -23q-6 -45 -53 -37q-72 12 -132 56q-60 42 -60 114z" />
    <glyph glyph-name="tilde" unicode="&#x2dc;" horiz-adv-x="1032" 
d="M246 1546q-45 0 -45 53q0 83 50 135q49 52 113 52q106 0 167 -74t106 -74q81 0 88 103q0 39 47 39h16q43 0 43 -47q0 -89 -48 -141q-47 -52 -119 -52t-119 37t-84 73t-74 36t-59 -31t-21 -74q-4 -35 -47 -35h-14z" />
    <glyph glyph-name="hungarumlaut" unicode="&#x2dd;" horiz-adv-x="1032" 
d="M297 1540q-29 0 -39 18t4 41l82 148q18 37 59 37h31q31 0 40 -18t-7 -42l-84 -147q-23 -37 -59 -37h-27zM571 1540q-31 0 -40 18t6 41l90 150q20 35 59 35h45q31 0 38 -18t-11 -44l-107 -149q-27 -33 -61 -33h-19z" />
    <glyph glyph-name="uni1E9E" unicode="&#x1e9e;" horiz-adv-x="1357" 
d="M184 51v1006q0 163 111 273t274 110h574q51 0 51 -47v-21q0 -31 -20 -57l-302 -430l-53 -72v-4h64q155 -6 263 -124q108 -117 108 -281t-122 -284q-120 -120 -290 -120h-279q-49 0 -49 51v25q0 51 49 51h271q120 0 196 83t76 200q0 116 -76 198t-192 82h-136
q-51 0 -51 49v23q0 29 19 57l260 373q63 96 82 111l8 10v4q-25 -4 -88 -4h-352q-109 0 -181 -74t-71 -180v-1008q0 -51 -49 -51h-43q-52 0 -52 51z" />
    <glyph glyph-name="thinspace" unicode="&#x2009;" horiz-adv-x="40" 
 />
    <glyph glyph-name="endash" unicode="&#x2013;" horiz-adv-x="1310" 
d="M195 522q-51 0 -52 49v19q0 51 52 51h921q51 0 51 -51v-19q0 -49 -51 -49h-921z" />
    <glyph glyph-name="emdash" unicode="&#x2014;" horiz-adv-x="1720" 
d="M195 522q-51 0 -52 49v19q0 51 52 51h1331q51 0 51 -51v-19q0 -49 -51 -49h-1331z" />
    <glyph glyph-name="quoteleft" unicode="&#x2018;" horiz-adv-x="411" 
d="M147 1042q-61 0 -41 56l101 319q14 41 57 41h15q53 0 40 -55l-75 -318q-10 -43 -54 -43h-43z" />
    <glyph glyph-name="quoteright" unicode="&#x2019;" horiz-adv-x="407" 
d="M152 1042q-55 0 -43 56l75 317q8 43 56 43h41q59 0 43 -55l-103 -320q-12 -41 -57 -41h-12z" />
    <glyph glyph-name="quotesinglbase" unicode="&#x201a;" horiz-adv-x="452" 
d="M219 168h43q58 0 41 -57l-100 -320q-16 -41 -58 -41h-14q-53 0 -43 55l78 318q8 45 53 45z" />
    <glyph glyph-name="quotedblleft" unicode="&#x201c;" horiz-adv-x="673" 
d="M147 1042q-61 0 -41 56l101 319q14 41 57 41h15q53 0 43 -55l-78 -318q-10 -43 -54 -43h-43zM408 1042q-57 0 -41 56l102 319q12 41 55 41h15q53 0 43 -55l-76 -318q-10 -43 -55 -43h-43z" />
    <glyph glyph-name="quotedblright" unicode="&#x201d;" horiz-adv-x="669" 
d="M152 1042q-55 0 -43 56l75 317q8 43 56 43h43q27 0 38 -15t3 -40l-103 -320q-12 -41 -55 -41h-14zM412 1042q-53 0 -41 56l75 317q10 43 54 43h43q61 0 41 -55l-101 -320q-14 -41 -57 -41h-14z" />
    <glyph glyph-name="quotedblbase" unicode="&#x201e;" horiz-adv-x="712" 
d="M219 168h43q58 0 41 -57l-100 -320q-16 -41 -58 -41h-14q-55 0 -43 55l78 318q8 45 53 45zM481 168h41q59 0 43 -57l-102 -320q-12 -41 -57 -41h-13q-55 0 -43 55l76 318q8 45 55 45z" />
    <glyph glyph-name="dagger" unicode="&#x2020;" horiz-adv-x="819" 
d="M338 -51v962h-188q-51 0 -52 52v16q0 51 52 51h188v359q0 51 51 51h35q51 0 51 -51v-359h199q49 0 49 -51v-16q0 -51 -49 -52h-199v-962q0 -51 -51 -51h-35q-51 0 -51 51z" />
    <glyph glyph-name="daggerdbl" unicode="&#x2021;" horiz-adv-x="843" 
d="M350 -51v418h-190q-49 0 -49 49v18q0 51 49 51h190v426h-190q-49 0 -49 52v16q0 51 49 51h190v359q0 51 49 51h37q49 0 49 -51v-359h199q51 0 51 -51v-16q0 -51 -51 -52h-199v-426h199q51 0 51 -51v-18q0 -49 -51 -49h-199v-418q0 -51 -49 -51h-37q-49 0 -49 51z" />
    <glyph glyph-name="bullet" unicode="&#x2022;" horiz-adv-x="811" 
d="M406 303q-121 0 -207 86t-86 207t86 207t207 86q122 0 206 -86t84 -207t-84 -207t-206 -86z" />
    <glyph glyph-name="ellipsis" unicode="&#x2026;" horiz-adv-x="1409" 
d="M141 51v70q0 49 49 49h66q49 0 49 -49v-70q0 -51 -49 -51h-66q-49 0 -49 51zM623 51v70q0 49 49 49h65q49 0 49 -49v-70q0 -51 -49 -51h-65q-49 0 -49 51zM1104 51v70q0 49 49 49h66q49 0 49 -49v-70q0 -51 -49 -51h-66q-49 0 -49 51z" />
    <glyph glyph-name="perthousand" unicode="&#x2030;" horiz-adv-x="2134" 
d="M1087 430q-69 0 -117 -50t-48 -121t48 -120t118 -49t117 49q48 49 48 120t-48 121t-118 50zM1610 259q0 -71 48 -120t118 -49t118 49t48 120t-48 121t-118 50t-118 -50t-48 -121zM1087 -25q-119 0 -203 83t-85 201q0 118 85 202q86 84 204 84t203 -84t85 -202t-85 -201
t-204 -83zM1489 259q0 118 84 202t203 84q120 0 204 -84t84 -202t-85 -201t-203 -83t-203 83q-84 83 -84 201zM395 1010q70 0 118 49t48 120t-48 121t-118 50q-69 0 -117 -50t-48 -122q0 -70 47 -119q48 -49 118 -49zM1255 1440h31q33 0 42 -18t-11 -44l-1026 -1347
q-23 -31 -62 -31h-32q-31 0 -40 17t11 44l1026 1348q23 31 61 31zM394 895q-120 0 -204 83t-84 201q0 117 85 201t204 84t203 -84t84 -202t-84 -200q-84 -83 -204 -83z" />
    <glyph glyph-name="guilsinglleft" unicode="&#x2039;" horiz-adv-x="641" 
d="M481 999q33 0 41 -17t-12 -44l-287 -360l287 -359q20 -27 13 -44t-38 -17h-39q-38 -1 -61 28l-283 357q-31 35 0 69l283 359q23 29 61 28h35z" />
    <glyph glyph-name="guilsinglright" unicode="&#x203a;" horiz-adv-x="641" 
d="M162 158q-33 0 -41 17t12 44l285 359l-285 360q-20 27 -13 44t40 17h37q35 0 61 -28l283 -359q31 -35 0 -69l-283 -357q-27 -29 -61 -28h-35z" />
    <glyph glyph-name="fraction" unicode="&#x2044;" horiz-adv-x="323" 
d="M-162 0h-20q-27 0 -35 16t4 43l641 1342q18 39 59 39h19q27 0 36 -16t-5 -44l-641 -1341q-14 -39 -58 -39z" />
    <glyph glyph-name="zerosuperior" unicode="&#x2070;" horiz-adv-x="798" 
d="M399 952q197 0 197 360t-197 361q-197 -1 -197 -361t197 -360zM400 846q-312 0 -312 466t312 466t312 -466t-312 -466z" />
    <glyph glyph-name="foursuperior" unicode="&#x2074;" horiz-adv-x="761" 
d="M174 1202h295v279l6 127h-4q-31 -55 -65 -101l-232 -301v-4zM518 866q-49 0 -49 52v182h-383q-51 0 -51 39v14q0 25 20 51l391 522q23 31 62 31h22q51 0 52 -49v-506h88q47 0 47 -47v-6q0 -49 -47 -49h-88v-182q0 -51 -52 -52h-12z" />
    <glyph glyph-name="fivesuperior" unicode="&#x2075;" horiz-adv-x="718" 
d="M333 846q-134 0 -245 104q-35 31 2 72l6 4q31 31 68 0q70 -74 160 -74t150 56t61 139q-1 82 -61 139t-134 57t-139 -32q-45 -14 -73 -2t-26 55l41 346q2 47 54 47h348q49 0 49 -47v-6q0 -49 -49 -49h-303l-17 -160l-12 -78h4q51 25 123 25q133 0 222 -86t89 -210
t-92 -212t-226 -88z" />
    <glyph glyph-name="sixsuperior" unicode="&#x2076;" horiz-adv-x="763" 
d="M201 1206q1 -88 59 -171t143 -83t132 56t47 144q0 87 -52 140q-52 54 -132 54q-81 0 -139 -43t-58 -97zM408 1440q128 0 208 -80t80 -215t-82 -217t-218 -82q-135 0 -225 115q-89 115 -89 299t90 343q45 79 125 127t166 48t143 -25q48 -16 23 -72q-19 -39 -65 -23t-89 15
q-111 0 -181 -91t-87 -222h4q31 36 86 58t111 22z" />
    <glyph glyph-name="sevensuperior" unicode="&#x2077;" horiz-adv-x="669" 
d="M150 866q-31 0 -41 16t6 44l323 612l68 117v4q-39 -4 -103 -4h-307q-51 0 -51 49v6q0 47 51 47h494q49 0 49 -37v-8q0 -37 -14 -61l-400 -750q-16 -35 -57 -35h-18z" />
    <glyph glyph-name="eightsuperior" unicode="&#x2078;" horiz-adv-x="780" 
d="M388 948q75 0 133 45q59 45 59 110t-56 103t-123 68t-92 41q-117 -90 -116 -191q0 -80 60 -128t135 -48zM563 1538q0 66 -50 102t-118 35q-67 0 -115 -34t-48 -101t77 -115q46 -27 98 -49t66 -28q90 90 90 190zM696 1111q0 -117 -89 -191t-215 -74t-219 74t-93 200
q0 58 32 114t60 82q29 26 57 44q-111 76 -111 186t83 171t195 61t196 -62t84 -179q0 -116 -117 -232q137 -76 137 -194z" />
    <glyph glyph-name="ninesuperior" unicode="&#x2079;" horiz-adv-x="763" 
d="M367 1278q80 0 138 44t58 95q0 88 -58 172q-57 84 -143 84t-133 -57t-47 -143t52 -141q53 -54 133 -54zM368 1778q134 0 224 -115t90 -298t-90 -344q-45 -79 -124 -127q-140 -85 -310 -24q-48 18 -21 72q16 37 56 29q51 -18 96 -19q111 0 181 90t89 224h-4
q-33 -35 -89 -59t-110 -23q-127 0 -208 81q-80 81 -80 215t83 216t217 82z" />
    <glyph glyph-name="zeroinferior" unicode="&#x2080;" horiz-adv-x="798" 
d="M399 -236q197 0 197 360t-197 361q-197 -1 -197 -361t197 -360zM400 -342q-312 0 -312 466t312 466t312 -466t-312 -466z" />
    <glyph glyph-name="oneinferior" unicode="&#x2081;" horiz-adv-x="591" 
d="M115 -322q-51 0 -52 50v6q0 47 48 47h147v592l2 49h-2q-8 -14 -41 -49l-55 -54q-29 -27 -58 3l-12 12q-31 35 6 69l140 142q27 25 63 24h21q49 0 49 -49v-739h139q49 0 49 -47v-6q0 -49 -49 -50h-395z" />
    <glyph glyph-name="twoinferior" unicode="&#x2082;" horiz-adv-x="712" 
d="M117 -322q-51 0 -51 72t32 138t82 106q77 64 202 149q126 85 126 185q0 66 -47 112t-123 45q-76 0 -145 -65q-39 -33 -76 4t-2 68q98 98 227 98t206 -74t77 -172q0 -172 -152 -272q-63 -43 -127 -82q-155 -95 -160 -209h404q49 0 49 -47v-6q0 -49 -49 -50h-473z" />
    <glyph glyph-name="threeinferior" unicode="&#x2083;" horiz-adv-x="720" 
d="M322 -342q-144 0 -244 100q-39 33 4 76q27 33 68 4q78 -74 168 -74t148 52t58 131q0 78 -59 125t-137 47h-33q-39 0 -51 31q-14 31 12 63l176 205l49 51v4q-37 -6 -75 -6h-265q-49 0 -49 49v6q0 47 49 47h439q51 0 51 -37v-8q0 -29 -25 -55l-219 -256q102 -12 178 -78
q76 -67 76 -187t-88 -205q-87 -85 -231 -85z" />
    <glyph glyph-name="fourinferior" unicode="&#x2084;" horiz-adv-x="761" 
d="M174 14h295v279l6 127h-4q-31 -55 -65 -101l-232 -301v-4zM518 -322q-49 0 -49 52v182h-383q-51 0 -51 39v14q0 25 20 51l391 523q23 31 62 30h22q51 0 52 -49v-506h88q47 0 47 -47v-6q0 -49 -47 -49h-88v-182q0 -51 -52 -52h-12z" />
    <glyph glyph-name="fiveinferior" unicode="&#x2085;" horiz-adv-x="718" 
d="M333 -342q-134 0 -245 104q-35 31 2 72l6 4q31 31 68 0q70 -74 160 -74t150 56t61 139q-1 82 -61 139q-60 58 -134 58t-139 -33q-45 -14 -73 -2t-26 55l41 346q2 47 54 47h348q49 0 49 -47v-6q0 -49 -49 -49h-303l-17 -160l-12 -78h4q51 25 123 25q133 0 222 -86t89 -210
t-92 -212t-226 -88z" />
    <glyph glyph-name="sixinferior" unicode="&#x2086;" horiz-adv-x="763" 
d="M201 18q1 -88 59 -171t143 -83t132 56t47 144q0 87 -52 140q-52 54 -132 54q-81 0 -139 -43t-58 -97zM408 252q128 0 208 -80t80 -215t-82 -217t-218 -82q-135 0 -225 115q-89 115 -89 299t90 343q45 79 125 127t166 48t143 -25q50 -17 27 -64q-23 -46 -69 -31t-89 15
q-111 0 -181 -91t-87 -222h4q31 36 86 58t111 22z" />
    <glyph glyph-name="seveninferior" unicode="&#x2087;" horiz-adv-x="669" 
d="M150 -322q-31 0 -41 16t6 44l323 612l68 117v4q-39 -4 -103 -4h-307q-51 0 -51 49v6q0 47 51 47h494q49 0 49 -37v-8q0 -37 -14 -61l-400 -750q-16 -35 -57 -35h-18z" />
    <glyph glyph-name="eightinferior" unicode="&#x2088;" horiz-adv-x="780" 
d="M388 -238q75 0 133 45q59 45 59 110t-54 102t-123 68q-69 30 -94 42q-117 -90 -116 -190q0 -81 60 -129t135 -48zM563 352q0 66 -50 102t-118 36q-67 0 -115 -34t-48 -102t77 -114q52 -30 101 -51l63 -27q90 90 90 190zM696 -75q0 -117 -89 -191t-215 -74t-219 74
t-93 200q0 58 32 114t60 82q29 26 57 44q-111 76 -111 186t83 171t195 61t196 -62t84 -179q0 -116 -117 -232q137 -76 137 -194z" />
    <glyph glyph-name="nineinferior" unicode="&#x2089;" horiz-adv-x="763" 
d="M367 90q80 0 138 44t58 95q0 88 -58 172q-57 84 -143 84t-133 -57t-47 -143t52 -141q53 -54 133 -54zM368 590q134 0 224 -115t90 -298t-90 -344q-45 -79 -124 -127q-80 -48 -160 -48t-150 25q-47 18 -21 71q16 37 56 29q51 -18 96 -19q111 0 181 90t89 224h-4
q-33 -35 -89 -59t-110 -23q-127 0 -208 81q-80 81 -80 215t83 216t217 82z" />
    <glyph glyph-name="Euro" unicode="&#x20ac;" horiz-adv-x="1218" 
d="M135 545q-49 0 -49 52t49 52h64q-12 76 2 166h-66q-49 0 -49 52t49 53h84q59 242 247 394t439 150q45 0 144 -12q51 -10 38 -61l-10 -35q-12 -45 -55 -39q-57 12 -119 12q-195 1 -337 -111t-195 -298h569q57 0 45 -56q-8 -49 -57 -49h-580q-14 -68 -2 -166h545
q57 0 46 -52t-58 -52h-510q47 -195 193 -315t345 -119q59 0 135 14q51 10 60 -35l8 -37q14 -47 -37 -59q-82 -18 -168 -19q-258 0 -447 159t-243 411h-80z" />
    <glyph glyph-name="trademark" unicode="&#x2122;" horiz-adv-x="1951" 
d="M455 543q-51 0 -52 49v741h-268q-51 0 -51 49v9q0 49 51 49h656q51 0 51 -49v-9q0 -49 -51 -49h-271v-741q0 -49 -51 -49h-14zM1036 1440h15q41 0 59 -39l219 -475l29 -84h4q10 45 29 84l219 475q14 39 59 39h14q47 0 52 -47l65 -797q0 -53 -49 -53h-14q-47 0 -51 47
l-48 561l2 59h-4l-213 -460q-14 -39 -57 -39h-12q-43 0 -60 39l-211 460h-4l2 -59l-49 -561q-4 -47 -51 -47h-12q-53 0 -49 53l65 797q4 47 51 47z" />
    <glyph glyph-name="minus" unicode="&#x2212;" horiz-adv-x="1241" 
d="M154 522q-51 0 -52 49v19q0 51 52 51h933q51 0 52 -51v-19q0 -49 -52 -49h-933z" />
    <glyph glyph-name="infinity" unicode="&#x221e;" horiz-adv-x="960" 
d="M482 360q-146 0 -250 104t-105 252q0 146 103 248q102 102 250 103q148 0 250 -102q102 -101 104 -249q0 -148 -103 -252t-249 -104z" />
    <glyph glyph-name="approxequal" unicode="&#x2248;" horiz-adv-x="1241" 
d="M836 389q80 0 180 80q39 31 69 -6q43 -48 0 -80q-127 -111 -262 -111q-102 0 -220 72q-119 72 -201 72t-177 -80q-43 -34 -75 13q-32 46 4 75q129 109 264 108q102 0 220 -72t198 -71zM418 889q102 0 220 -72t198 -72t180 80q39 31 69 -6q43 -48 0 -82
q-129 -109 -262 -108q-102 -1 -220 71q-119 72 -201 72t-177 -80q-45 -35 -76 13q-31 47 5 73q127 111 264 111z" />
    <glyph glyph-name="notequal" unicode="&#x2260;" horiz-adv-x="1241" 
d="M193 344q-49 0 -50 49v19q0 51 50 51h276l174 237h-450q-49 0 -50 50v18q0 51 50 51h534l147 197q31 43 72 12t19 -63l-109 -146h191q51 0 51 -51v-18q0 -49 -51 -50h-273l-176 -237h449q51 0 51 -51v-19q0 -49 -51 -49h-533l-141 -192q-31 -44 -72 -11q-43 29 -14 70
l98 133h-192z" />
    <glyph glyph-name="lessequal" unicode="&#x2264;" horiz-adv-x="1241" 
d="M180 -213h824q51 0 51 -51v-19q0 -49 -51 -49h-824q-49 0 -49 49v19q0 51 49 51zM129 571v21q0 43 39 57l827 371q27 12 43 2t17 -39v-33q0 -43 -39 -57l-715 -309v-4l715 -310q39 -14 39 -57v-33q-1 -29 -17 -39t-43 0l-827 371q-39 18 -39 59z" />
    <glyph glyph-name="greaterequal" unicode="&#x2265;" horiz-adv-x="1241" 
d="M236 -213h823q51 0 51 -51v-19q0 -49 -51 -49h-823q-51 0 -52 49v19q1 51 52 51zM186 180v33q0 43 39 57l715 310v4l-715 309q-39 14 -39 57v33q0 29 16 39t44 -2l827 -371q39 -14 39 -57v-21q0 -41 -39 -59l-827 -369q-28 -12 -44 -2t-16 39z" />
    <glyph glyph-name="commaaccent" unicode="&#xf6c3;" horiz-adv-x="686" 
d="M324 -129h30q59 0 60 -104q0 -63 -25 -125t-65 -64h-13q-45 0 -45 33q0 4 10 42t11 87l-8 96q0 35 45 35z" />
    <glyph glyph-name="apple" unicode="&#xf8ff;" horiz-adv-x="2314" 
d="M907 186h123v445h447v108h-447v367h361q33 0 44 -12t11 -43v-78h115v131q0 59 -26 86t-89 27h-666v-111h127v-920zM496 131v248l-203 123v461l203 118v252l440 234l225 -121l219 121l439 -234v-252l204 -118v-461l-204 -123v-248l-439 -233l-219 118l-225 -118zM426 61
l487 -258l248 136l242 -136l487 258v285l234 131v510l-234 135v279l-487 258l-242 -131l-248 131l-487 -258v-279l-233 -135v-510l233 -131v-285zM344 -10v311l-258 148v569l258 145v310l543 290l274 -145l271 145l542 -290v-310l254 -145v-569l-254 -148v-311l-542 -289
l-271 145l-274 -145z" />
    <glyph glyph-name="zero.tnum" 
d="M580 109q350 0 350 611t-350 611t-350 -611t350 -611zM580 -25q-498 0 -498 746q0 219 44 379t159 262t295 102t294 -102t159 -262q44 -160 44 -379q1 -746 -497 -746z" />
    <glyph glyph-name="one.tnum" 
d="M213 51v25q0 51 51 51h273v1057l2 80h-4q-16 -31 -70 -84l-121 -119q-33 -37 -70 0l-18 20q-39 33 -2 70l264 262q27 27 62 27h47q49 0 49 -51v-1262h266q51 0 51 -51v-25q0 -51 -51 -51h-678q-51 0 -51 51z" />
    <glyph glyph-name="two.tnum" 
d="M119 51v41q0 102 41 192t116 164q75 75 222 176t212 155t105 125q41 71 41 149q0 121 -82 199t-217 77q-178 0 -293 -155q-35 -41 -71 -13l-23 19q-39 29 -12 67q55 80 156 149t251 68q201 0 321 -114t120 -289q0 -113 -54 -210t-136 -162q-81 -65 -176 -133t-176 -125
q-81 -56 -136 -136t-56 -168h705q51 0 51 -51v-25q0 -51 -51 -51h-803q-55 0 -55 51z" />
    <glyph glyph-name="three.tnum" 
d="M541 111q133 0 231 88t98 228t-105 221t-257 81h-57q-41 0 -56 37q-24 40 6 78l334 391l76 80v4q-41 -6 -117 -6h-489q-51 0 -51 51v25q0 51 51 51h739q51 0 51 -47v-11q0 -39 -22 -63l-408 -469q127 -9 212 -53q85 -43 132 -89q107 -104 107 -286t-135 -314t-350 -132
t-410 163q-35 33 -4 72l24 31q29 35 70 4q154 -135 330 -135z" />
    <glyph glyph-name="four.tnum" 
d="M201 522h549v604l8 138h-4q-35 -59 -72 -111l-481 -627v-4zM80 399q-49 0 -49 50v8q0 37 18 61l668 891q25 31 61 31h64q49 0 49 -51v-867h156q49 0 49 -49v-24q0 -49 -45 -50h-160v-348q0 -51 -49 -51h-41q-51 0 -51 51v348h-670z" />
    <glyph glyph-name="five.tnum" 
d="M520 111q162 0 265 96q103 97 103 243t-104 242t-260 96q-106 0 -229 -61q-31 -17 -82 -2q-41 16 -37 59l68 609q6 47 53 47h598q51 0 51 -51v-25q0 -51 -51 -51h-522l-41 -369l-15 -82h5q90 55 219 56q215 0 355 -136t140 -334t-144 -335t-364 -137t-383 167
q-35 35 0 70l25 29q35 35 70 0q118 -131 280 -131z" />
    <glyph glyph-name="six.tnum" 
d="M256 545q0 -152 105 -294t254 -142t233 96t84 251q0 154 -90 246t-234 92t-248 -77q-104 -78 -104 -172zM102 649q0 240 96 445q50 106 121 188q72 82 180 132q109 50 233 50t220 -39q47 -18 29 -65l-14 -33q-18 -41 -66 -29q-80 33 -164 33q-211 0 -335 -172t-146 -409
h4q52 78 152 124t219 48q195 0 319 -128t125 -340q0 -212 -129 -345t-323 -134q-231 1 -376 191t-145 483z" />
    <glyph glyph-name="seven.tnum" 
d="M797 1313h-623q-51 0 -51 51v25q0 51 51 51h834q51 0 51 -47v-19q0 -33 -15 -63l-634 -1274q-18 -37 -60 -37h-41q-29 0 -39 16t2 43l553 1121l78 133v4q-35 -4 -106 -4z" />
    <glyph glyph-name="eight.tnum" 
d="M238 416q0 -136 102 -224t236 -88t236 81q101 81 101 200q0 57 -22 100q-37 69 -174 139q-43 22 -135 60t-138 59q-206 -145 -206 -327zM885 1079q0 119 -82 188t-217 69t-214 -68t-79 -168q0 -128 143 -209q105 -62 295 -135q154 154 154 323zM150 1089q0 163 113 269
q114 106 318 106q205 0 325 -102t120 -268q0 -94 -45 -192t-76 -137q-31 -38 -57 -65q211 -119 211 -311q0 -170 -136 -292t-340 -122q-203 1 -347 121t-144 301t109 295q80 83 131 115q-182 119 -182 282z" />
    <glyph glyph-name="nine.tnum" 
d="M550 645q146 0 249 78q102 78 102 172q0 152 -105 294q-106 142 -254 142t-232 -96t-83 -251q0 -155 89 -247q88 -92 234 -92zM524 518q-194 0 -318 130t-124 341t129 343t324 132q231 0 375 -190t144 -483t-148 -542q-72 -122 -198 -198t-264 -76t-239 39q-47 19 -27 64
l15 37q14 41 63 26q84 -33 164 -32q145 0 254 89q201 164 227 492h-4q-53 -78 -155 -125t-218 -47z" />
    <glyph glyph-name="hyphen.case" horiz-adv-x="868" 
d="M193 651q-49 0 -50 49v27q0 51 50 51h481q49 0 49 -51v-27q0 -49 -49 -49h-481z" />
    <glyph glyph-name="parenleft.case" horiz-adv-x="542" 
d="M115 752q0 410 211 770q18 35 59 34h23q28 0 38 -16t-4 -43q-199 -362 -198 -745q0 -438 200 -826q12 -27 3 -43t-35 -16h-25q-43 0 -59 31q-213 389 -213 854z" />
    <glyph glyph-name="parenright.case" horiz-adv-x="542" 
d="M297 752q0 383 -199 745q-14 27 -5 43t36 16h27q41 0 59 -34q211 -360 211 -770q0 -465 -211 -850q-20 -35 -61 -35h-23q-29 0 -38 17t3 44q201 383 201 824z" />
    <glyph glyph-name="bracketleft.case" horiz-adv-x="546" 
d="M178 -82v1587q0 51 49 51h179q49 0 49 -51v-12q0 -51 -49 -51h-99v-1460h99q49 0 49 -52v-12q0 -51 -49 -51h-179q-49 0 -49 51z" />
    <glyph glyph-name="bracketright.case" horiz-adv-x="546" 
d="M92 -70q0 51 51 52h97v1460h-97q-51 0 -51 51v12q0 51 51 51h176q49 0 50 -51v-1587q0 -51 -50 -51h-176q-51 0 -51 51v12z" />
    <glyph glyph-name="braceleft.case" horiz-adv-x="630" 
d="M236 231v195q0 166 -134 221q-41 25 -41 55v41q0 31 41 56q133 49 134 223v168q0 116 32 194t79 112q85 60 159 60h16q49 0 49 -49v-18q0 -51 -49 -51t-86 -31q-71 -60 -71 -225v-197q0 -114 -54 -174t-94 -78l-16 -8v-4q21 -7 53 -29q108 -73 111 -231v-223
q0 -167 63 -219q45 -37 94 -37t49 -50v-18q0 -51 -49 -51h-16q-74 0 -159 60q-47 33 -79 113t-32 195z" />
    <glyph glyph-name="braceright.case" horiz-adv-x="630" 
d="M57 -68q0 50 49 50t86 30q72 58 72 226v223q0 119 56 180t108 80v4q-22 7 -54 32q-107 82 -110 228v197q0 166 -63 218q-46 38 -94 38q-49 0 -50 51v18q0 49 52 49h14q63 0 114 -30q53 -30 83 -66q30 -38 52 -108t21 -162v-168q0 -174 135 -223q39 -23 39 -56v-41
q0 -33 -41 -55q-133 -55 -133 -221v-195q0 -115 -31 -195q-32 -80 -80 -113q-86 -60 -159 -60h-14q-51 0 -52 51v18z" />
    <glyph glyph-name="at.case" horiz-adv-x="1519" 
d="M643 717q0 -117 81 -199t198 -82h254v563h-250q-121 -1 -202 -83t-81 -199zM84 723q0 307 213 526t516 219q258 0 380 -110t122 -277v-645h94q49 0 49 -51v-12q0 -51 -49 -51h-500q-176 0 -293 116t-116 277q0 161 116 277t293 116h267q-4 104 -94 173t-259 69
q-250 0 -423 -186t-173 -442q0 -255 158 -434t399 -196q49 -6 50 -51v-23q0 -53 -52 -49q-298 19 -498 233t-200 521z" />
    <glyph glyph-name="guillemotleft.case" horiz-adv-x="993" 
d="M463 1122q33 0 41 -17t-12 -44l-285 -361l285 -358q20 -27 13 -44t-38 -17h-39q-34 -1 -61 28l-283 357q-31 35 0 69l283 359q27 29 61 28h35zM831 1122q33 0 41 -17t-12 -44l-285 -361l285 -358q20 -27 13 -44t-37 -17h-39q-39 0 -62 28l-282 357q-31 35 0 69l282 359
q23 29 62 28h34z" />
    <glyph glyph-name="guillemotright.case" horiz-adv-x="995" 
d="M164 281q-33 0 -42 17t11 44l287 358l-287 361q-20 27 -12 44t39 17h37q39 0 61 -28l285 -359q29 -35 0 -69l-285 -357q-23 -29 -61 -28h-33zM528 1122h37q39 0 62 -28l282 -359q31 -35 0 -69l-282 -357q-23 -29 -62 -28h-35q-33 0 -41 17q-7 17 13 44l286 358l-286 361
q-20 27 -14 44q7 17 40 17z" />
    <glyph glyph-name="guilsinglleft.case" horiz-adv-x="624" 
d="M463 1122q33 0 41 -17t-12 -44l-285 -361l285 -358q20 -27 13 -44t-38 -17h-39q-34 -1 -61 28l-283 357q-31 35 0 69l283 359q27 29 61 28h35z" />
    <glyph glyph-name="guilsinglright.case" horiz-adv-x="626" 
d="M164 281q-33 0 -42 17t11 44l287 358l-287 361q-20 27 -12 44t39 17h37q39 0 61 -28l285 -359q29 -35 0 -69l-285 -357q-23 -29 -61 -28h-33z" />
    <glyph glyph-name="endash.case" horiz-adv-x="1308" 
d="M193 645q-51 0 -52 49v19q0 51 52 51h923q49 0 49 -51v-19q0 -49 -49 -49h-923z" />
    <glyph glyph-name="emdash.case" horiz-adv-x="1718" 
d="M193 645q-51 0 -52 49v19q0 51 52 51h1333q49 0 49 -51v-19q0 -49 -49 -49h-1333z" />
    <glyph glyph-name="periodcentered.case" horiz-adv-x="444" 
d="M193 627q-49 0 -50 51v63q0 49 50 50h57q51 0 51 -50v-63q0 -51 -51 -51h-57z" />
    <glyph glyph-name="questiondown.case" horiz-adv-x="841" 
d="M582 1386v-59q0 -51 -50 -51h-61q-49 0 -49 51v59q0 51 49 52h61q50 -1 50 -52zM520 1061q51 0 51 -51v-47q-1 -86 -37 -158t-88 -121t-106 -96q-127 -113 -127 -248q0 -100 76 -168q77 -68 189 -68t210 60q47 25 70 -12l16 -25q33 -43 -10 -70q-129 -86 -297 -86
q-168 1 -285 103q-116 102 -116 268t127 285q53 51 106 98q130 115 133 244l2 49q4 43 47 43h39z" />
    <glyph glyph-name="exclamdown.case" horiz-adv-x="507" 
d="M332 1386v-59q0 -51 -49 -51h-62q-49 0 -49 51v59q0 51 49 52h62q49 -1 49 -52zM268 1061q51 0 51 -49l7 -963q0 -51 -52 -51h-43q-49 0 -49 51l6 963q0 49 50 49h30z" />
    <glyph glyph-name="bullet.case" horiz-adv-x="806" 
d="M406 426q-121 0 -207 86t-86 207t86 207t207 86q122 0 206 -86t84 -207t-84 -207t-206 -86z" />
    <glyph glyph-name="zero.p_osf" horiz-adv-x="1241" 
d="M620 1012q-162 0 -249 -136q-88 -136 -88 -320q0 -185 88 -320q88 -136 250 -136q163 0 251 136t88 320t-88 320q-90 136 -252 136zM139 554q0 237 126 410q125 173 355 173t356 -173t126 -411t-125 -408t-356 -170t-357 171q-125 171 -125 408z" />
    <glyph glyph-name="one.p_osf" horiz-adv-x="925" 
d="M133 51v23q0 49 49 49h269v737l2 109h-4q-31 -27 -78 -56l-174 -104q-39 -25 -68 16l-10 17q-29 41 16 67l295 185q31 18 64 18h45q49 0 49 -51v-938h235q49 0 49 -49v-23q0 -51 -49 -51h-641q-49 0 -49 51z" />
    <glyph glyph-name="two.p_osf" horiz-adv-x="1101" 
d="M133 51v10q0 35 33 60q332 223 479 371t147 275q0 126 -77 184q-78 59 -211 59t-271 -125q-39 -29 -71 4l-15 20q-33 41 3 70q170 158 372 158q202 1 307 -101q106 -102 107 -241q0 -174 -137 -327t-443 -347v-4q39 6 115 6h469q49 0 49 -49v-23q0 -51 -49 -51h-756
q-51 0 -51 51z" />
    <glyph glyph-name="three.p_osf" horiz-adv-x="1046" 
d="M463 -137q133 0 230 81t97 215t-106 208t-254 73h-59q-43 0 -59 42t7 75l322 358l76 74v4q-41 -4 -117 -4h-424q-49 0 -49 49v23q0 51 49 51h686q49 0 49 -43v-8q0 -37 -22 -62l-408 -442q157 -8 292 -87q73 -42 117 -122t44 -186q0 -186 -134 -305t-347 -119t-377 151
q-37 31 -4 72l18 21q33 35 72 2q133 -121 301 -121z" />
    <glyph glyph-name="four.p_osf" horiz-adv-x="1181" 
d="M748 199v604l8 137h-4q-35 -70 -72 -121l-455 -620h523zM57 123v16q0 29 21 56l635 886q20 31 59 31h66q49 0 49 -51v-862h170q51 0 51 -49v-23q0 -51 -45 -51h-176v-262q0 -51 -49 -52h-39q-51 0 -51 52v262h-639q-52 0 -52 47z" />
    <glyph glyph-name="five.p_osf" horiz-adv-x="1064" 
d="M460 -119q150 0 257 84q106 85 106 229t-104 227q-103 83 -233 83t-244 -58q-43 -15 -78 3q-41 12 -37 57l68 559q6 47 53 47h573q51 0 51 -51v-23q0 -49 -51 -49h-502l-40 -336l-13 -78h4q94 49 224 50q200 0 336 -114q136 -113 136 -313t-140 -321q-142 -121 -362 -121
t-366 152q-37 34 -2 69l21 21q31 33 69 0q124 -117 274 -117z" />
    <glyph glyph-name="six.p_osf" horiz-adv-x="1200" 
d="M276 504q0 -140 104 -272t252 -132q150 0 234 91t84 233t-89 229q-89 86 -234 86q-145 1 -248 -73t-103 -162zM651 860q193 0 317 -120t124 -318t-128 -323q-128 -124 -323 -124q-231 1 -373 175t-143 449q0 275 146 513q73 117 198 190q125 72 267 72t233 -37
q49 -16 26 -65l-12 -27q-18 -41 -63 -24q-98 29 -186 29t-179 -49q-157 -84 -239 -308q-34 -96 -44 -203h4q56 80 156 125t219 45z" />
    <glyph glyph-name="seven.p_osf" horiz-adv-x="1044" 
d="M723 989h-592q-51 0 -51 49v23q0 51 51 51h807q51 0 51 -45v-18q0 -27 -16 -60l-604 -1190q-18 -37 -60 -37h-39q-31 0 -41 16t2 44l527 1044l71 123v4q-41 -4 -106 -4z" />
    <glyph glyph-name="eight.p_osf" horiz-adv-x="1200" 
d="M266 393q0 -131 100 -212t233 -81q132 0 230 76q99 76 99 184t-95 169t-204 104t-150 61q-213 -127 -213 -301zM899 1018q0 106 -82 168t-211 63q-129 0 -206 -62t-76 -157q0 -117 137 -192q51 -29 101 -49t179 -74q69 55 113 143t45 160zM125 396q0 196 242 360
q-182 104 -183 276q0 140 112 242t308 102t316 -97q118 -97 118 -267t-182 -353q213 -113 213 -283t-133 -286q-133 -115 -334 -115t-339 113q-138 112 -138 308z" />
    <glyph glyph-name="nine.p_osf" horiz-adv-x="1189" 
d="M240 688q0 -142 88 -229q88 -86 234 -86q144 0 248 73q103 74 103 162q0 140 -104 272q-103 132 -253 132t-233 -91t-83 -233zM434 -137q213 0 337 166t144 393h-4q-53 -80 -154 -125t-220 -45q-193 0 -317 120t-124 318t128 323q128 124 323 124q231 0 373 -174
t143 -451q0 -277 -147 -512q-74 -118 -198 -190t-266 -72t-233 37q-51 16 -24 65l10 27q18 41 41 35l24 -8q89 -31 164 -31z" />
    <glyph glyph-name="zero.t_osf" 
d="M580 1012q-162 0 -250 -136t-88 -320q0 -185 88 -320q88 -136 250 -136t250 136t90 320q0 184 -90 320q-88 136 -250 136zM98 554q0 237 126 410t356 173t355 -173q126 -173 126 -411t-125 -408t-356 -170t-357 171q-125 171 -125 408z" />
    <glyph glyph-name="one.t_osf" 
d="M244 51v23q0 49 49 49h268v737l2 109h-4q-31 -27 -78 -56l-174 -104q-39 -25 -67 16l-11 17q-29 41 17 67l295 185q31 18 63 18h45q49 0 49 -51v-938h236q49 0 49 -49v-23q0 -51 -49 -51h-641q-49 0 -49 51z" />
    <glyph glyph-name="two.t_osf" 
d="M156 51v10q0 35 32 60q332 223 480 371t147 275q0 126 -78 184q-79 59 -211 59t-270 -125q-39 -29 -72 4l-14 20q-33 41 2 70q170 158 372 158q202 1 308 -101t106 -241q0 -174 -137 -327t-442 -347v-4q39 6 115 6h469q49 0 49 -49v-23q0 -51 -49 -51h-756q-51 0 -51 51z
" />
    <glyph glyph-name="three.t_osf" 
d="M514 -137q133 0 230 81q98 81 98 215t-106 208t-255 73h-59q-44 0 -60 42t9 75l321 358l76 74v4q-41 -4 -117 -4h-424q-49 0 -49 49v23q0 51 49 51h686q49 0 50 -43v-8q0 -37 -23 -62l-408 -442q157 -8 292 -87q73 -42 117 -122t44 -186q0 -186 -134 -305t-347 -119
t-377 151q-37 31 -4 72l18 21q33 35 72 2q133 -121 301 -121z" />
    <glyph glyph-name="four.t_osf" 
d="M735 199v604l8 137h-4q-35 -70 -71 -121l-455 -620h522zM45 123v16q0 29 21 56l634 886q20 31 60 31h65q49 0 49 -51v-862h170q51 0 52 -49v-23q0 -51 -45 -51h-177v-262q0 -51 -49 -52h-39q-51 0 -51 52v262h-639q-51 0 -51 47z" />
    <glyph glyph-name="five.t_osf" 
d="M504 -119q150 0 258 84q106 85 106 229t-104 227t-234 83t-243 -58q-43 -15 -78 3q-41 12 -37 57l68 559q6 47 53 47h573q51 0 52 -51v-23q0 -49 -52 -49h-501l-41 -336l-13 -78h4q94 49 224 50q199 0 335 -114q136 -113 138 -313q0 -200 -142 -321t-361 -121
q-220 0 -366 152q-37 34 -2 69l21 21q31 33 69 0q123 -117 273 -117z" />
    <glyph glyph-name="six.t_osf" 
d="M256 504q0 -140 103 -272t253 -132t234 91t84 233t-89 229q-89 86 -235 86t-248 -73q-102 -74 -102 -162zM631 860q193 0 317 -120t123 -318q0 -198 -128 -323q-128 -124 -322 -124q-231 1 -374 175t-143 450t147 512q73 117 198 190q125 72 266 72t233 -37
q49 -16 27 -65l-12 -27q-18 -41 -64 -24q-99 29 -187 29t-178 -49q-90 -48 -146 -130q-115 -164 -136 -381h4q56 80 156 125t219 45z" />
    <glyph glyph-name="seven.t_osf" 
d="M776 989h-592q-51 0 -51 49v23q0 51 51 51h807q51 0 51 -45v-18q0 -27 -16 -60l-604 -1190q-18 -37 -60 -37h-38q-31 0 -41 16t2 44l526 1044l72 123v4q-41 -4 -107 -4z" />
    <glyph glyph-name="eight.t_osf" 
d="M246 393q0 -131 100 -212t232 -81t231 76q98 76 98 184t-95 169t-203 104q-109 43 -150 61q-213 -127 -213 -301zM879 1018q0 106 -82 168t-211 63q-129 0 -206 -62t-77 -157q0 -115 137 -192q51 -29 152 -70q100 -41 129 -53q67 52 112 142q46 89 46 161zM1049 376
q1 -170 -133 -286q-134 -115 -334 -115t-340 113q-138 112 -138 308t242 360q-182 104 -182 276q0 141 111 243q112 101 309 101q198 0 316 -97t118 -267t-182 -353q213 -113 213 -283z" />
    <glyph glyph-name="nine.t_osf" 
d="M544 373q144 0 248 73q103 74 103 162q0 140 -104 272t-254 132t-233 -91t-83 -233t89 -229q90 -86 234 -86zM416 -137q213 0 337 166t144 393h-4q-53 -80 -155 -125t-220 -45q-192 0 -316 120t-124 318t128 323q128 124 322 124q232 0 374 -174q142 -173 142 -451
t-146 -512q-73 -118 -198 -190t-266 -72t-233 37q-51 16 -25 65l10 27q18 41 41 35l23 -8q25 -8 59 -20q33 -12 107 -11z" />
    <glyph glyph-name="dollar.osf" horiz-adv-x="1013" 
d="M766 292q0 83 -66 135t-158 87t-186 75q-92 41 -158 113t-65 177q0 139 94 222t242 97v127q0 49 49 49h17q49 0 49 -45v-129q150 -14 262 -94q35 -27 12 -70l-16 -28q-27 -39 -70 -11q-106 76 -229 76t-194 -47t-71 -132t66 -137t158 -86t185 -74t159 -114
q66 -73 66 -193t-97 -210q-96 -90 -252 -100v-142q0 -49 -47 -49h-18q-49 0 -49 45v146q-191 20 -336 159q-37 33 -4 72l22 27q33 33 70 2q141 -135 315 -136q110 0 180 52t70 136z" />
    <glyph glyph-name="cent.osf" horiz-adv-x="1116" 
d="M537 -2v119q-195 25 -318 159t-123 334q0 199 124 334t317 160v125q0 51 51 51h16q49 0 49 -43v-129q180 -12 314 -127q41 -33 10 -70l-19 -24q-29 -35 -67 -8q-113 102 -273 102t-270 -103q-110 -104 -110 -266t110 -266t271 -104q160 0 272 102q41 31 67 -10l19 -25
q25 -39 -10 -67q-135 -119 -314 -129v-115q0 -51 -49 -51h-16q-51 0 -51 51z" />
    <glyph glyph-name="sterling.osf" horiz-adv-x="1191" 
d="M121 51v23q0 49 47 49h82v379h-49q-45 0 -45 47v12q0 47 45 47h49v217q0 160 123 269q123 108 294 108t310 -80q49 -27 14 -69l-18 -25q-25 -37 -70 -14q-109 59 -231 59t-202 -74q-79 -74 -79 -182v-209h422q49 0 49 -47v-12q0 -47 -49 -47h-422v-379h643q51 0 51 -49
v-23q0 -51 -51 -51h-864q-49 0 -49 51z" />
    <glyph glyph-name="yen.osf" horiz-adv-x="1189" 
d="M233 305q-51 0 -51 47v13q0 45 51 45h291v55l-65 108h-226q-51 0 -51 48v12q0 45 51 45h164l-270 444q-16 25 -7 42t40 18h51q43 0 59 -35l234 -393l88 -170h4q45 94 88 170l236 393q18 35 57 35h51q31 0 41 -18t-6 -42l-268 -444h161q49 0 50 -45v-12q0 -47 -50 -48
h-225l-65 -108v-55h290q49 0 50 -45v-13q0 -47 -50 -47h-290v-254q0 -51 -50 -51h-41q-51 0 -51 51v254h-291z" />
    <glyph glyph-name="florin.osf" horiz-adv-x="718" 
d="M-156 -180q0 52 52 46q26 -3 71 -3q85 0 157 43q91 54 105 221l45 524h-133q-51 0 -51 51v17q0 49 51 49h144l18 225q10 119 55 202t110 119q112 62 224 62q45 0 123 -10q47 -4 47 -53v-23q0 -25 -12 -37t-47 -7t-91 5t-88 -9q-34 -9 -75 -34q-91 -56 -107 -221l-20 -219
h207q51 0 51 -49v-17q0 -51 -51 -51h-217l-45 -530q-25 -308 -280 -370q-52 -13 -106 -13t-90 6q-47 4 -47 53v23z" />
    <glyph glyph-name="Euro.osf" horiz-adv-x="1202" 
d="M145 416q-49 0 -49 43v14q0 43 49 43h84q-10 74 -2 139h-82q-49 0 -49 43v15q0 43 49 43h99q49 194 208 320t416 126q66 0 142 -14q49 -6 39 -60l-7 -26q-14 -43 -55 -37q-61 12 -121 12q-188 0 -308 -90t-165 -231h512q55 0 45 -49l-2 -11q-8 -41 -53 -41h-526
q-12 -70 2 -139h489q57 0 47 -47l-2 -12q-12 -41 -55 -41h-451q45 -138 166 -226t303 -88q41 0 133 13q49 12 60 -35l6 -27q10 -51 -37 -59q-63 -18 -162 -19q-248 0 -408 123t-212 318h-103z" />
    <glyph glyph-name="zero.numerator" horiz-adv-x="798" 
d="M399 635q197 0 197 360t-197 361q-197 0 -197 -360t197 -361zM400 528q-312 0 -312 466t312 466t312 -466t-312 -466z" />
    <glyph glyph-name="one.numerator" horiz-adv-x="591" 
d="M115 549q-51 0 -52 49v6q0 47 48 47h147v592l2 49h-2q-8 -14 -41 -49l-55 -53q-29 -27 -58 2l-12 12q-31 35 6 70l140 141q27 25 63 25h21q49 0 49 -49v-740h139q49 0 49 -47v-6q0 -49 -49 -49h-395z" />
    <glyph glyph-name="two.numerator" horiz-adv-x="712" 
d="M117 549q-51 -1 -51 71t32 138q33 66 82 106q79 65 203 150q125 84 125 184q0 66 -47 112t-123 46t-145 -66q-39 -33 -76 4t-2 68q98 98 227 98t206 -74t77 -172q0 -170 -152 -272q-63 -43 -127 -82q-155 -95 -160 -209h404q49 0 49 -47v-6q0 -49 -49 -49h-473z" />
    <glyph glyph-name="three.numerator" horiz-adv-x="720" 
d="M322 528q-144 0 -244 101q-37 31 -4 67l8 9q27 33 68 4q78 -74 168 -74t148 52t58 130t-59 125t-137 47h-33q-39 0 -51 31q-14 31 12 63l176 205l49 51v4q-37 -6 -75 -6h-265q-49 0 -49 49v7q0 47 49 47h439q51 0 51 -37v-8q0 -27 -25 -56l-219 -256q102 -11 178 -77
t76 -187t-88 -206q-87 -85 -231 -85z" />
    <glyph glyph-name="four.numerator" horiz-adv-x="763" 
d="M174 885h295v278l6 127h-4q-31 -55 -65 -100l-232 -301v-4zM518 549q-49 0 -49 51v182h-383q-51 0 -51 39v15q0 25 20 51l391 522q23 31 62 31h22q51 0 52 -49v-506h88q47 0 47 -47v-7q0 -49 -47 -49h-88v-182q0 -51 -52 -51h-12z" />
    <glyph glyph-name="five.numerator" horiz-adv-x="718" 
d="M333 528q-134 0 -245 105q-35 31 2 72l6 4q31 31 68 0q70 -74 160 -74t150 56t61 138q-1 81 -61 139t-134 58t-139 -33q-45 -14 -73 -2t-26 56l41 346q2 47 54 47h348q49 0 49 -47v-7q0 -49 -49 -49h-303l-17 -159l-12 -78h4q51 25 123 24q133 0 222 -86t89 -210
t-92 -212t-226 -88z" />
    <glyph glyph-name="six.numerator" horiz-adv-x="763" 
d="M201 889q1 -88 59 -171t143 -83t132 56q47 55 47 143t-52 141t-132 53q-81 0 -139 -43t-58 -96zM696 828q0 -134 -82 -218q-82 -82 -218 -82q-135 0 -225 115q-89 115 -89 299t90 343q45 79 125 127t166 48t143 -24q50 -17 23 -72q-19 -39 -65 -24t-89 16
q-111 0 -181 -91t-87 -223h4q31 35 86 58t111 22q128 0 208 -80t80 -214z" />
    <glyph glyph-name="seven.numerator" horiz-adv-x="669" 
d="M150 549q-31 0 -41 16t6 43l323 613l68 116v4q-39 -4 -103 -4h-307q-51 0 -51 49v7q0 47 51 47h494q49 0 49 -37v-8q0 -37 -14 -62l-400 -749q-16 -35 -57 -35h-18z" />
    <glyph glyph-name="eight.numerator" horiz-adv-x="780" 
d="M388 629q75 0 133 45q59 45 59 110t-56 103q-56 37 -123 67l-92 41q-117 -90 -116 -190q0 -80 60 -128t135 -48zM563 1219q0 65 -50 101t-118 36q-67 0 -115 -34t-48 -101t65 -107q66 -40 114 -60t62 -26q90 90 90 191zM696 791q0 -117 -89 -191t-215 -74t-219 74
t-93 201q0 59 32 114t60 81q29 26 57 44q-111 76 -111 187t83 171t195 60t196 -62t84 -178t-117 -233q137 -76 137 -194z" />
    <glyph glyph-name="nine.numerator" horiz-adv-x="763" 
d="M182 1155q0 -86 52 -140t133 -54q80 0 138 44t58 95q0 88 -58 172q-57 84 -143 84t-133 -58t-47 -143zM289 635q111 0 181 90t89 223h-4q-33 -34 -89 -58t-110 -24q-127 0 -208 81q-80 81 -80 215t83 216t217 82t225 -114q89 -115 89 -298t-90 -345q-45 -79 -124 -127
q-140 -84 -310 -23q-47 18 -25 63l4 9q16 37 56 28q51 -18 96 -18z" />
    <glyph glyph-name="zero.denominator" horiz-adv-x="798" 
d="M399 86q197 0 197 360t-197 361q-197 -1 -197 -361t197 -360zM400 -20q-312 0 -312 466t312 465q312 1 312 -465t-312 -466z" />
    <glyph glyph-name="one.denominator" horiz-adv-x="591" 
d="M115 0q-51 0 -52 49v6q0 47 48 47h147v592l2 49h-2q-8 -14 -41 -49l-55 -53q-29 -27 -58 2l-12 12q-31 35 6 70l140 141q27 25 63 25h21q49 0 49 -49v-740h139q49 0 49 -47v-6q0 -49 -49 -49h-395z" />
    <glyph glyph-name="two.denominator" horiz-adv-x="712" 
d="M117 0q-51 0 -51 72t32 137q33 67 82 107q79 65 203 149q125 84 125 184q0 66 -47 112t-123 46t-145 -66q-39 -33 -76 4t-2 68q98 98 227 98q129 1 206 -73t77 -172q0 -170 -152 -273q-63 -43 -127 -82q-155 -95 -160 -209h404q49 0 49 -47v-6q0 -49 -49 -49h-473z" />
    <glyph glyph-name="three.denominator" horiz-adv-x="722" 
d="M641 270q0 -122 -88 -206q-87 -84 -231 -84t-244 100q-37 31 -4 67l8 9q27 33 68 4q78 -74 168 -74t148 52t58 130t-59 125t-137 47h-33q-39 0 -51 31q-14 31 12 64l176 204l49 52v4q-37 -6 -75 -7h-265q-49 0 -49 50v6q0 47 49 47h439q51 0 51 -37v-8q0 -27 -25 -55
l-219 -256q102 -12 178 -78t76 -187z" />
    <glyph glyph-name="four.denominator" horiz-adv-x="761" 
d="M174 336h295v278l6 127h-4q-31 -55 -65 -100l-232 -301v-4zM518 0q-49 0 -49 51v182h-383q-51 0 -51 39v15q0 25 20 51l391 522q23 31 62 31h22q51 0 52 -49v-506h88q47 0 47 -47v-6q0 -49 -47 -50h-88v-182q0 -51 -52 -51h-12z" />
    <glyph glyph-name="five.denominator" horiz-adv-x="718" 
d="M333 -20q-134 0 -245 104q-35 31 2 72l6 4q31 31 68 0q70 -74 160 -74t150 56t60 138t-60 140q-60 57 -134 57t-139 -33q-45 -14 -73 -2t-26 56l41 346q2 47 54 47h348q49 0 49 -47v-6q0 -49 -49 -50h-303l-17 -159l-12 -78h4q51 25 123 24q133 0 222 -86q89 -85 89 -209
t-92 -212t-226 -88z" />
    <glyph glyph-name="six.denominator" horiz-adv-x="763" 
d="M201 340q1 -88 59 -171t143 -83t132 56t47 144t-52 140q-52 53 -132 53q-81 0 -139 -43t-58 -96zM696 279q0 -135 -82 -217t-218 -82q-135 0 -225 114q-89 116 -89 300t90 342q45 79 125 127t166 48t143 -24q50 -17 23 -72q-19 -39 -65 -24t-89 16q-111 0 -181 -91
t-87 -222h4q31 36 86 58t111 21q128 1 208 -79t80 -215z" />
    <glyph glyph-name="seven.denominator" horiz-adv-x="669" 
d="M150 0q-31 0 -41 16t6 43l323 613l68 116v5q-39 -4 -103 -5h-307q-51 0 -51 50v6q0 47 51 47h494q49 0 49 -37v-8q0 -37 -14 -62l-400 -749q-16 -35 -57 -35h-18z" />
    <glyph glyph-name="eight.denominator" horiz-adv-x="780" 
d="M388 82q75 0 133 45q59 45 59 110t-56 103t-123 68q-67 29 -92 41q-117 -90 -116 -191q0 -80 60 -128t135 -48zM563 672q0 66 -50 102t-118 35q-67 0 -115 -34t-48 -101t65 -107q66 -40 114 -60t62 -26q90 90 90 191zM696 244q0 -118 -89 -190q-89 -74 -215 -74t-219 74
t-93 200q0 58 32 114t60 82q29 26 57 44q-111 76 -111 186t83 171q83 60 195 60t196 -62t84 -178t-117 -233q137 -76 137 -194z" />
    <glyph glyph-name="nine.denominator" horiz-adv-x="763" 
d="M182 606q0 -86 52 -140t133 -54q80 0 138 44t58 95q0 88 -58 172q-57 84 -143 84t-133 -57q-47 -58 -47 -144zM289 86q111 0 181 90t89 223h-4q-33 -35 -89 -59t-110 -23q-127 0 -208 81q-80 81 -80 215t83 216t217 82t225 -114q89 -115 89 -298t-90 -344
q-45 -79 -124 -127q-140 -85 -310 -24q-48 18 -21 72q16 37 56 28q51 -18 96 -18z" />
    </font>
</defs>
</svg>
