<?xml version="1.0" standalone="no"?>
<!DOCTYPE svg PUBLIC "-//W3C//DTD SVG 1.1//EN" "http://www.w3.org/Graphics/SVG/1.1/DTD/svg11.dtd" >
<svg xmlns="http://www.w3.org/2000/svg">
<metadata>
Created by FontPrep 20130207 at Tue Jun 25 22:57:42 2013
 By Adem ilter
Copyright (c) 2011 by Jos Buivenga. All rights reserved.
</metadata>
<defs>
<font id="7db10f7f46c342744fb8d58564b213de" >
  <font-face 
    font-family="MuseoSansRounded-700"
    font-weight="600"
    font-stretch="normal"
    units-per-em="2048"
    panose-1="2 0 0 0 0 0 0 0 0 0"
    ascent="1536"
    descent="-512"
    x-height="1044"
    cap-height="1454"
    bbox="-221.5 -449 2312 1847"
    underline-thickness="102"
    underline-position="-102"
    unicode-range="U+0020-FB04"
  />
<missing-glyph horiz-adv-x="1169" 
d="M236 102h696l-348 523zM174 195l348 522l-348 522v-1044zM645 717l348 -522v1044zM584 809l348 522h-696zM72 86v1262q0 86 86 86h854q84 0 84 -86v-1262q0 -86 -84 -86h-854q-86 0 -86 86z" />
    <glyph glyph-name="f_f" unicode="ff" horiz-adv-x="1384" 
d="M184 86v752h-49q-86 0 -86 86v34q0 86 86 86h49v35q0 94 32 167t78 112q123 104 292 104h28q86 0 86 -86v-53q0 -78 -88 -84q-64 -4 -101 -24q-65 -37 -67 -146v-25h433v35q0 94 31 167q32 73 78 112q123 104 292 104h29q86 0 86 -86v-53q0 -78 -88 -84q-66 -4 -101 -25
q-67 -39 -67 -145v-25h139q86 0 86 -86v-34q0 -86 -74 -86h-151v-752q0 -86 -84 -86h-90q-86 0 -86 86v752h-433v-752q0 -86 -86 -86h-88q-86 0 -86 86z" />
    <glyph glyph-name="fi" unicode="fi" horiz-adv-x="1208" 
d="M905 1223q-84 0 -84 84v61q0 86 84 86h90q86 0 86 -86v-61q0 -84 -86 -84h-90zM184 86v752h-51q-84 0 -84 86v34q0 86 84 86h51v35q0 94 32 167t78 112q123 104 290 104h30q84 0 84 -86v-53q0 -78 -88 -84q-62 -4 -99 -25q-65 -37 -67 -145v-25h551q86 0 86 -86v-872
q0 -86 -86 -86h-90q-84 0 -84 86v752h-377v-752q0 -86 -86 -86h-90q-84 0 -84 86z" />
    <glyph glyph-name="fl" unicode="fl" horiz-adv-x="1265" 
d="M184 86v737h-51q-84 0 -84 86v35q0 86 84 86h51v49q0 94 32 167t78 112q123 104 290 104h30q84 0 84 -86v-53q0 -78 -88 -84q-62 -4 -99 -25q-65 -37 -67 -145v-39h140q84 0 84 -86v-35q0 -86 -84 -86h-140v-737q0 -86 -86 -86h-90q-84 0 -84 86zM819 326v1042
q0 86 84 86h90q84 0 84 -86v-1022q0 -117 82 -125q63 -6 64 -74v-69q0 -88 -86 -88q-225 0 -289 157q-29 73 -29 179z" />
    <glyph glyph-name="f_f_i" unicode="ffi" horiz-adv-x="1902" 
d="M1513 1307v61q0 86 86 86h89q86 0 86 -86v-61q0 -84 -86 -84h-89q-86 0 -86 84zM133 838q-84 0 -84 86v34q0 86 84 86h45l6 35q0 94 32 167t78 112q123 104 290 104h30q84 0 84 -86v-53q0 -78 -88 -84q-62 -4 -99 -25q-65 -37 -67 -145v-25h433v35q0 94 31 167
q32 73 78 112q123 104 292 104h29q84 0 84 -86v-53q0 -78 -88 -84q-64 -4 -100 -25q-66 -37 -66 -145v-25h551q86 0 86 -86v-872q0 -86 -86 -86h-89q-86 0 -86 86v752h-376v-752q0 -86 -86 -86h-88q-86 0 -86 86v752h-433v-752q0 -86 -86 -86h-90q-84 0 -84 86l-6 752h-45z
" />
    <glyph glyph-name="f_f_l" unicode="ffl" horiz-adv-x="1957" 
d="M1513 326v1042q0 86 84 86h91q84 0 84 -86v-1022q0 -117 81 -125q63 -6 64 -74v-69q0 -88 -88 -88q-223 0 -287 157q-29 73 -29 179zM135 838q-86 0 -86 86v34q0 86 86 86h43l6 35q0 94 32 167t78 112q123 104 292 104h28q86 0 86 -86v-53q0 -78 -88 -84q-64 -4 -101 -24
q-65 -37 -67 -146v-25h433v35q0 94 31 167q32 73 78 112q123 104 292 104h29q86 0 86 -86v-53q0 -78 -88 -84q-66 -4 -101 -25q-67 -39 -67 -145v-25h139q86 0 86 -86v-34q0 -86 -74 -86h-151v-752q0 -86 -84 -86h-90q-86 0 -86 86v752h-433v-752q0 -86 -86 -86h-88
q-86 0 -86 86l-6 752h-43z" />
    <glyph glyph-name="f_j" unicode="fj" horiz-adv-x="1214" 
d="M909 1223q-86 0 -86 84v61q0 86 86 86h90q84 0 84 -86v-61q0 -84 -84 -84h-90zM184 86v752h-49q-86 0 -86 86v34q0 86 86 86h49v35q0 94 32 167t78 112q123 104 292 104h28q86 0 86 -86v-53q0 -78 -88 -84q-64 -4 -101 -24q-65 -37 -67 -146v-25h555q84 0 84 -86v-985
q-1 -96 -33 -171q-32 -76 -77 -116t-122 -75t-167 -35h-29q-86 0 -86 86v53q0 76 86 84q170 14 170 191v848h-381v-752q0 -86 -86 -86h-88q-86 0 -86 86z" />
    <glyph glyph-name=".notdef" horiz-adv-x="1169" 
d="M236 102h696l-348 523zM174 195l348 522l-348 522v-1044zM645 717l348 -522v1044zM584 809l348 522h-696zM72 86v1262q0 86 86 86h854q84 0 84 -86v-1262q0 -86 -84 -86h-854q-86 0 -86 86z" />
    <glyph glyph-name=".null" horiz-adv-x="0" 
 />
    <glyph glyph-name="nonmarkingreturn" horiz-adv-x="681" 
 />
    <glyph glyph-name="space" unicode=" " horiz-adv-x="512" 
 />
    <glyph glyph-name="exclam" unicode="!" horiz-adv-x="552" 
d="M152 86v72q0 86 84 86h81q86 0 86 -86v-72q0 -86 -86 -86h-81q-84 0 -84 86zM246 420q-82 0 -86 84l-17 862q0 88 84 88h97q88 0 84 -88l-17 -862q0 -84 -86 -84h-59z" />
    <glyph glyph-name="quotedbl" unicode="&#x22;" horiz-adv-x="724" 
d="M186 1024q-84 0 -84 84v287q0 86 84 86h23q86 0 86 -86v-287q0 -84 -86 -84h-23zM516 1024q-86 0 -86 84v287q0 86 86 86h23q84 0 84 -86v-287q0 -84 -84 -84h-23z" />
    <glyph glyph-name="numbersign" unicode="#" horiz-adv-x="1425" 
d="M547 569h278l52 287h-281zM156 383q-94 0 -78 90l4 21q8 76 90 75h166l51 287h-149q-43 0 -64 25q-20 25 -14 65l4 21q12 78 90 77h164l57 332q16 78 94 78h35q45 0 66 -24q20 -25 12 -68l-55 -318h278l60 332q12 78 92 78h37q90 0 78 -92l-58 -318h154q45 0 65 -24
t13 -68l-2 -18q-12 -78 -93 -78h-168l-51 -287h152q96 0 74 -110q-12 -76 -93 -76h-163l-54 -305q-12 -78 -92 -78h-37q-45 0 -65 25t-13 67l52 291h-281l-51 -305q-16 -78 -94 -78h-37q-90 0 -78 92l51 291h-149z" />
    <glyph glyph-name="dollar" unicode="$" horiz-adv-x="1124" 
d="M784 387q0 76 -71 128q-72 52 -173 94q-100 42 -202 93q-102 52 -174 142t-72 230t106 254q106 112 279 140v109q0 84 82 84h14q80 0 80 -72v-116q168 -12 297 -103q66 -39 25 -115l-35 -69q-39 -70 -117 -27q-123 76 -231 76t-172 -49q-64 -48 -64 -114t52 -112t128 -76
t166 -73t167 -89t128 -129t52 -192q-1 -163 -107 -279t-289 -140v-103q0 -86 -80 -86h-14q-82 0 -82 72v117q-194 20 -348 139q-66 47 -14 119l45 63q47 66 119 19q145 -102 292 -103q90 0 152 46q61 46 61 122z" />
    <glyph glyph-name="percent" unicode="%" horiz-adv-x="1622" 
d="M1073 298q0 -56 39 -95t96 -39t98 39q40 39 40 95t-40 96t-98 40t-96 -40q-39 -40 -39 -96zM874 297q0 133 98 228t235 95q139 0 237 -94q98 -96 98 -229t-97 -227t-237 -94t-236 94q-98 94 -98 227zM414 1020q57 0 97 39t40 95t-40 96t-97 40q-56 0 -96 -40t-40 -96
t40 -95q39 -39 96 -39zM1313 1454h41q55 0 70 -31t-19 -73l-995 -1299q-39 -51 -105 -51h-43q-54 0 -68 30t19 74l995 1299q39 51 105 51zM414 831q-138 1 -236 95t-98 228t97 229t235 95t237 -94q99 -96 99 -230t-98 -228t-236 -95z" />
    <glyph glyph-name="ampersand" unicode="&#x26;" horiz-adv-x="1335" 
d="M616 641q-126 -1 -196 -55t-70 -151t69 -157t187 -60t188 67q69 68 68 198v158h-246zM80 412q0 121 67 222q68 101 181 140v4q-19 5 -58 36q-39 32 -63 64q-62 79 -64 218q0 184 129 283t330 100h86q86 0 86 -86v-52q0 -84 -86 -84h-67q-95 0 -153 -56t-58 -136t51 -137
t170 -58h231v105q0 84 86 84h88q86 0 86 -70v-119h103q86 0 86 -86v-57q0 -86 -86 -86h-103v-172q0 -225 -139 -359t-377 -134t-383 123q-143 125 -143 313z" />
    <glyph glyph-name="quotesingle" unicode="'" horiz-adv-x="397" 
d="M186 1053q-86 0 -86 86v256q0 86 86 86h27q84 0 84 -86v-256q0 -86 -84 -86h-27z" />
    <glyph glyph-name="parenleft" unicode="(" horiz-adv-x="583" 
d="M88 702q0 401 207 758q33 57 102 58h39q50 0 66 -28t-6 -73q-176 -353 -176 -741t182 -770q20 -45 4 -73t-66 -28h-43q-67 1 -96 52q-213 383 -213 845z" />
    <glyph glyph-name="parenright" unicode=")" horiz-adv-x="583" 
d="M262 683q0 388 -176 734q-22 45 -8 73t63 28h43q70 0 103 -58q209 -360 209 -758q0 -457 -211 -839q-31 -57 -101 -58h-41q-49 0 -65 30t4 75q180 385 180 773z" />
    <glyph glyph-name="asterisk" unicode="*" horiz-adv-x="960" 
d="M508 1454q90 0 80 -88l-10 -180l165 65q86 33 111 -49l16 -51q27 -84 -57 -102l-176 -48v-4l113 -135q59 -66 -13 -121l-43 -30q-72 -55 -116 22l-97 150h-4l-94 -148q-47 -77 -119 -24l-43 30q-72 53 -14 117l112 139v4l-169 46q-86 18 -62 102l16 51q29 86 107 51
l168 -65l-10 178q-4 43 17 67q22 24 65 23h57z" />
    <glyph glyph-name="plus" unicode="+" horiz-adv-x="1267" 
d="M172 483q-86 0 -86 86v31q0 86 86 86h356v399q0 86 86 86h41q84 0 84 -86v-399h359q84 0 84 -86v-31q0 -86 -84 -86h-359v-397q0 -86 -84 -86h-41q-86 0 -86 86v397h-356z" />
    <glyph glyph-name="comma" unicode="," horiz-adv-x="499" 
d="M317 264q47 0 66 -27q18 -28 0 -73l-141 -342q-27 -66 -99 -66h-26q-47 0 -67 26q-19 26 -7 71l100 340q20 72 97 71h77z" />
    <glyph glyph-name="hyphen" unicode="-" horiz-adv-x="854" 
d="M205 471q-86 0 -86 86v57q0 84 86 84h444q86 0 86 -84v-57q0 -86 -86 -86h-444z" />
    <glyph glyph-name="period" unicode="." horiz-adv-x="487" 
d="M113 86v92q0 84 86 84h90q86 0 86 -84v-92q0 -86 -86 -86h-90q-86 0 -86 86z" />
    <glyph glyph-name="slash" unicode="/" horiz-adv-x="831" 
d="M641 1528h45q46 0 66 -26t6 -70l-469 -1448q-20 -70 -96 -70h-48q-47 0 -66 26t-5 70l469 1448q25 70 98 70z" />
    <glyph glyph-name="zero" unicode="0" horiz-adv-x="1277" 
d="M639 217q256 0 256 509t-256 509t-256 -509t256 -509zM639 -25q-143 -1 -249 57t-164 164q-115 210 -113 533q0 750 526 750q288 0 409 -212t120 -538q-1 -327 -115 -532q-59 -106 -165 -164t-249 -58z" />
    <glyph glyph-name="one" unicode="1" horiz-adv-x="1007" 
d="M88 86v57q0 84 84 84h231v807l3 99h-5q-18 -39 -55 -74l-63 -62q-63 -57 -119 4l-39 41q-59 59 2 121l258 248q49 43 107 43h86q84 0 84 -86v-1141h229q86 0 86 -84v-57q0 -86 -86 -86h-719q-84 0 -84 86z" />
    <glyph glyph-name="two" unicode="2" horiz-adv-x="1161" 
d="M88 86v43q0 205 135 357q91 102 278 231q73 49 132 96q135 108 135 206q0 99 -63 155t-158 55q-127 0 -215 -109q-66 -66 -121 -18l-55 43q-68 51 -23 115q166 219 436 219q199 0 336 -116t137 -314q0 -93 -36 -177t-112 -163q-77 -79 -198 -157q-121 -79 -180 -123
q-133 -99 -137 -202h600q86 0 86 -84v-57q0 -86 -86 -86h-799q-40 0 -66 22t-26 64z" />
    <glyph glyph-name="three" unicode="3" horiz-adv-x="1146" 
d="M506 225q122 -1 196 61t74 164t-88 160q-88 57 -223 58h-31q-66 0 -94 59l-8 16q-29 57 18 111l223 264q55 68 105 111v4q-45 -6 -129 -6h-350q-84 0 -84 84v57q0 86 84 86h716q86 0 86 -84v-22q0 -63 -38 -105l-318 -366q166 -23 282 -135q115 -112 115 -299t-139 -327
t-371 -140t-421 141q-66 49 -17 119l41 63q43 66 117 18q133 -92 254 -92z" />
    <glyph glyph-name="four" unicode="4" horiz-adv-x="1243" 
d="M319 594h402v450l10 152h-4q-33 -78 -72 -133l-336 -465v-4zM125 375q-84 0 -84 84v20q0 59 31 105l561 815q35 55 102 55h160q86 0 86 -86v-774h102q86 0 86 -84v-51q0 -84 -69 -84h-119v-289q0 -86 -86 -86h-90q-84 0 -84 86v289h-596z" />
    <glyph glyph-name="five" unicode="5" horiz-adv-x="1146" 
d="M508 225q119 0 200 69q80 68 80 180t-82 182t-208 69q-78 0 -168 -37q-66 -23 -115 -4l-18 6q-70 27 -64 103l53 579q6 82 88 82h598q86 0 86 -86v-57q0 -84 -86 -84h-450l-23 -240l-10 -67h4q68 33 156 32q233 0 373 -137t139 -346q0 -209 -150 -351t-378 -142t-404 145
q-63 47 -12 117l41 61q43 68 116 16q115 -90 234 -90z" />
    <glyph glyph-name="six" unicode="6" horiz-adv-x="1226" 
d="M375 561q0 -119 85 -231q84 -112 192 -113q108 0 168 70q60 69 60 181t-71 188q-73 76 -189 75q-116 0 -180 -47t-65 -123zM100 657q0 311 166 560q80 119 211 191t275 71q144 0 237 -33q80 -25 51 -109l-24 -67q-23 -72 -101 -56q-70 20 -131 21q-164 0 -262 -115
t-129 -286h4q39 50 116 82t177 32q203 0 327 -135t124 -339t-134 -351q-133 -147 -357 -147t-387 184q-163 186 -163 497z" />
    <glyph glyph-name="seven" unicode="7" horiz-adv-x="1079" 
d="M672 1227h-537q-84 0 -84 84v57q0 86 84 86h830q86 0 86 -84v-45q0 -57 -25 -104l-582 -1160q-33 -61 -102 -61h-92q-49 0 -67 28t5 72l496 994q41 84 72 118l10 15v4q-23 -4 -94 -4z" />
    <glyph glyph-name="eight" unicode="8" horiz-adv-x="1239" 
d="M362 440q0 -104 75 -170t179 -66t177 59q72 58 71 147q0 62 -37 99q-47 52 -161 104q-25 11 -80 36t-86 37q-36 -33 -56 -52t-51 -77t-31 -117zM782 1198q-60 51 -159 51q-101 0 -155 -48t-54 -109t18 -87t28 -40q10 -15 36 -31q25 -16 39 -26t49 -25q35 -17 49 -23
l56 -24t56 -23l13 16q19 30 33 52t25 50q26 64 26 140t-60 127zM156 1078q0 168 120 284q122 117 338 117t350 -108t134 -286q0 -84 -37 -170q-37 -85 -68 -125t-59 -69q201 -119 201 -304q1 -185 -141 -313t-374 -129t-378 127q-144 128 -144 295t97 276q71 80 127 120
q-166 117 -166 285z" />
    <glyph glyph-name="nine" unicode="9" horiz-adv-x="1226" 
d="M606 721q116 0 182 48q64 48 64 124q0 119 -85 231t-193 111q-108 0 -166 -69q-60 -70 -60 -182t71 -188t187 -75zM442 217q164 0 263 115q98 115 129 289h-5q-39 -51 -121 -84t-176 -33q-194 0 -320 139t-126 343t133 348t357 144t388 -184q163 -186 162 -497
q0 -205 -70 -387t-228 -308q-157 -126 -371 -127q-125 0 -219 33q-81 25 -52 107l25 69q12 42 36 52t64 4q82 -23 131 -23z" />
    <glyph glyph-name="colon" unicode=":" horiz-adv-x="501" 
d="M123 86v88q0 86 84 86h88q86 0 86 -86v-88q0 -86 -86 -86h-88q-84 0 -84 86zM207 784q-84 0 -84 84v90q0 86 84 86h88q86 0 86 -86v-90q0 -84 -86 -84h-88z" />
    <glyph glyph-name="semicolon" unicode=";" horiz-adv-x="565" 
d="M256 264h78q49 0 67 -26t0 -72l-125 -342q-23 -68 -98 -68h-28q-44 0 -64 26t-10 68l86 340q18 74 94 74zM266 780q-84 0 -84 86v92q0 86 84 86h84q86 0 86 -86v-92q0 -86 -86 -86h-84z" />
    <glyph glyph-name="less" unicode="&#x3c;" horiz-adv-x="1267" 
d="M115 573v25q0 72 63 100l821 365q45 20 73 2t28 -66v-47q0 -72 -68 -98l-643 -266v-4l643 -267q68 -27 68 -98v-47q0 -48 -28 -66t-73 0l-821 367q-63 27 -63 100z" />
    <glyph glyph-name="equal" unicode="=" horiz-adv-x="1267" 
d="M219 274q-84 0 -84 84v31q0 86 84 86h830q86 0 86 -86v-31q0 -84 -86 -84h-830zM219 694q-84 0 -84 86v31q0 84 84 84h830q86 0 86 -84v-31q0 -86 -86 -86h-830z" />
    <glyph glyph-name="greater" unicode="&#x3e;" horiz-adv-x="1267" 
d="M170 172v47q0 72 66 98l643 267v4l-643 266q-66 27 -66 98v47q0 47 27 65t71 -1l822 -365q66 -31 65 -100v-25q0 -74 -65 -100l-822 -364q-46 -20 -72 -2t-26 65z" />
    <glyph glyph-name="question" unicode="?" horiz-adv-x="960" 
d="M264 86v72q0 86 86 86h82q84 0 84 -86v-72q0 -86 -84 -86h-82q-86 0 -86 86zM350 420q-86 0 -86 84v33q0 130 119 242q49 46 99 89q120 103 120 205q0 72 -57 121t-135 49t-158 -42q-82 -42 -123 22l-35 51q-51 72 15 115q141 94 320 94q179 1 312 -105t133 -278
t-117 -288q-49 -50 -101 -94q-127 -109 -138 -204l-4 -35q-14 -59 -82 -59h-82z" />
    <glyph glyph-name="at" unicode="@" horiz-adv-x="1658" 
d="M1032 698q-90 0 -146 -58t-57 -143t55 -143t144 -57h156v401h-152zM94 502q0 309 223 531t533 222t444 -125q135 -125 136 -321v-512h63q84 0 84 -84v-16q0 -86 -84 -86h-481q-199 1 -320 113t-121 267t120 265t321 110h172q-2 80 -89 130t-221 51q-218 0 -370 -166
t-152 -383t129 -371t344 -180q82 -12 82 -88v-33q-1 -43 -23 -65t-65 -17q-325 27 -525 238t-200 520z" />
    <glyph glyph-name="A" unicode="A" horiz-adv-x="1298" 
d="M459 588h379l-129 389l-58 225h-4q-33 -143 -57 -225zM584 1454h131q76 0 96 -70l455 -1286q16 -46 -3 -72t-67 -26h-94q-76 0 -96 70l-103 303h-510l-100 -301q-20 -72 -96 -72h-95q-47 0 -66 26t-3 72l454 1286q25 70 97 70z" />
    <glyph glyph-name="B" unicode="B" horiz-adv-x="1277" 
d="M430 227h283q98 1 154 59q57 58 57 151t-56 151t-155 59h-283v-420zM430 860h258q84 0 131 52t47 134t-47 132q-47 49 -137 49h-252v-367zM168 86v1282q0 86 84 86h434q201 0 326 -99t125 -276q0 -102 -47 -184t-129 -127v-4q113 -33 173 -129t60 -213q0 -206 -142 -314
t-360 -108h-440q-84 0 -84 86z" />
    <glyph glyph-name="C" unicode="C" horiz-adv-x="1441" 
d="M82 728q0 324 211 538t538 213q270 0 476 -146q61 -47 16 -119l-37 -59q-41 -68 -117 -20q-158 102 -327 102q-228 0 -358 -144q-130 -143 -130 -357t132 -366t358 -153q182 0 356 127q72 53 119 -14l41 -56q49 -66 -12 -118q-225 -180 -514 -181q-338 0 -545 215
q-207 214 -207 538z" />
    <glyph glyph-name="D" unicode="D" horiz-adv-x="1490" 
d="M430 227h219q225 0 355 130q129 130 129 370q-1 240 -131 370t-353 130h-219v-1000zM168 86v1282q0 86 84 86h412q340 0 540 -192t201 -533q0 -341 -201 -535t-540 -194h-412q-84 0 -84 86z" />
    <glyph glyph-name="E" unicode="E" horiz-adv-x="1140" 
d="M168 86v1282q0 86 84 86h700q86 0 86 -86v-57q0 -84 -86 -84h-522v-381h406q86 0 86 -84v-57q0 -86 -86 -87h-406v-391h555q86 0 86 -84v-57q0 -86 -86 -86h-733q-84 0 -84 86z" />
    <glyph glyph-name="F" unicode="F" horiz-adv-x="1048" 
d="M168 86v1282q0 86 84 86h666q86 0 86 -86v-57q0 -84 -86 -84h-488v-412h397q86 0 86 -84v-57q0 -86 -86 -86h-397v-502q0 -86 -84 -86h-94q-84 0 -84 86z" />
    <glyph glyph-name="G" unicode="G" horiz-adv-x="1544" 
d="M82 721q0 326 213 542t539 216q158 0 282 -43t193 -90q63 -49 18 -119l-37 -58q-43 -66 -119 -22q-156 90 -323 90q-230 0 -362 -144q-132 -145 -132 -365t140 -366t346 -145q139 0 229 52q89 52 125 91l14 17v162h-139q-86 0 -86 86v55q0 86 86 86h291q84 0 84 -86v-594
q0 -86 -84 -86h-51q-84 0 -84 70v34l2 35h-4q-161 -161 -426 -164q-297 0 -506 210t-209 536z" />
    <glyph glyph-name="H" unicode="H" horiz-adv-x="1525" 
d="M168 86v1282q0 86 84 86h94q84 0 84 -86v-530h666v530q0 86 86 86h92q84 0 84 -86v-1282q0 -86 -84 -86h-92q-86 0 -86 86v524h-666v-524q0 -86 -84 -86h-94q-84 0 -84 86z" />
    <glyph glyph-name="I" unicode="I" horiz-adv-x="598" 
d="M168 86v1282q0 86 84 86h94q84 0 84 -86v-1282q0 -86 -84 -86h-94q-84 0 -84 86z" />
    <glyph glyph-name="J" unicode="J" horiz-adv-x="1095" 
d="M39 430q0 84 84 84h96q41 0 59 -18t23 -64q6 -96 53 -156q48 -60 134 -59q86 0 139 53t53 164v793h-289q-86 0 -86 84v57q0 86 86 86h467q86 0 86 -86v-938q0 -223 -134 -339t-318 -116t-319 118q-134 118 -134 337z" />
    <glyph glyph-name="K" unicode="K" horiz-adv-x="1286" 
d="M168 86v1282q0 86 84 86h94q84 0 84 -86v-506h191l307 533q33 59 100 59h100q52 0 68 -30t-8 -72l-352 -590v-4l378 -656q27 -46 10 -74t-69 -28h-113q-68 0 -100 59l-321 576h-191v-549q0 -86 -84 -86h-94q-84 0 -84 86z" />
    <glyph glyph-name="L" unicode="L" horiz-adv-x="1067" 
d="M168 86v1282q0 86 84 86h94q84 0 84 -86v-1141h543q86 0 86 -84v-57q0 -86 -86 -86h-721q-84 0 -84 86z" />
    <glyph glyph-name="M" unicode="M" horiz-adv-x="1746" 
d="M313 1454h129q72 0 97 -70l260 -649l73 -213h5q39 127 71 213l260 649q25 70 99 70h127q82 0 88 -82l104 -1284q6 -88 -82 -88h-92q-82 0 -88 82l-55 731l-2 225h-4q-45 -141 -78 -225l-211 -496q-25 -68 -96 -67h-87q-74 0 -98 67l-209 496l-80 227h-4q4 -131 -2 -227
l-55 -731q-6 -82 -88 -82h-92q-88 0 -82 88l104 1284q10 82 88 82z" />
    <glyph glyph-name="N" unicode="N" horiz-adv-x="1521" 
d="M168 86v1282q0 86 84 86h110q72 0 103 -57l516 -783q44 -68 102 -188l19 -37h4q-14 139 -14 225v754q0 86 86 86h92q86 0 86 -86v-1282q0 -86 -86 -86h-111q-70 0 -100 57l-518 781q-48 75 -103 188l-18 37h-4q14 -139 14 -225v-752q0 -86 -84 -86h-94q-84 0 -84 86z" />
    <glyph glyph-name="O" unicode="O" horiz-adv-x="1667" 
d="M354 732q0 -218 136 -366t344 -148t343 148q136 148 136 366t-136 362t-343 143q-207 0 -344 -143q-136 -144 -136 -362zM834 1479q328 0 540 -213t211 -533q0 -321 -212 -539q-211 -218 -539 -218t-540 218t-212 538t212 534t540 213z" />
    <glyph glyph-name="P" unicode="P" horiz-adv-x="1236" 
d="M430 731h248q116 0 180 68q64 67 64 181t-64 180t-176 67h-252v-496zM168 86v1282q0 86 84 86h475q205 0 334 -131t129 -342t-129 -345t-334 -134h-297v-416q0 -86 -84 -86h-94q-84 0 -84 86z" />
    <glyph glyph-name="Q" unicode="Q" horiz-adv-x="1667" 
d="M834 1237q-204 1 -342 -143t-138 -362t138 -366t342 -149q147 0 253 78l-100 96q-63 55 -6 119l37 39q57 66 112 10l103 -104q80 125 80 280q0 215 -137 359t-342 143zM82 732q0 318 213 532t540 215q327 0 539 -213t211 -531q0 -254 -160 -461l99 -92q66 -55 8 -121
l-37 -38q-59 -61 -113 -9l-104 105q-190 -143 -444 -144q-326 0 -539 219q-213 220 -213 538z" />
    <glyph glyph-name="R" unicode="R" horiz-adv-x="1282" 
d="M430 772h238q106 0 168 62t61 170q0 152 -115 198q-53 25 -157 25h-195v-455zM168 86v1282q0 86 84 86h393q186 0 288 -43q101 -43 167 -146t66 -241t-66 -248q-66 -111 -176 -155v-5q18 -23 47 -75l239 -439q27 -46 10 -74t-69 -28h-111q-68 0 -100 59l-256 484h-254
v-457q0 -86 -84 -86h-94q-84 0 -84 86z" />
    <glyph glyph-name="S" unicode="S" horiz-adv-x="1124" 
d="M780 386q0 75 -69 130q-70 55 -169 96q-100 41 -200 90q-100 50 -170 140t-70 215q0 188 140 305t350 117q117 0 217 -35t162 -79t22 -114l-37 -67q-37 -72 -116 -29q-136 80 -244 80t-168 -45t-61 -119t69 -127t169 -93t199 -88t171 -138q70 -90 69 -219
q0 -184 -130 -308t-351 -123q-137 1 -255 47t-191 101q-61 53 -13 119l46 65q43 59 118 19q154 -106 295 -107q100 0 159 46q58 46 58 121z" />
    <glyph glyph-name="T" unicode="T" horiz-adv-x="1239" 
d="M489 86v1141h-391q-86 0 -86 84v57q0 86 86 86h1045q84 0 84 -86v-57q0 -84 -84 -84h-391v-1141q0 -86 -86 -86h-93q-84 0 -84 86z" />
    <glyph glyph-name="U" unicode="U" horiz-adv-x="1472" 
d="M152 522v846q0 86 84 86h92q86 0 86 -86v-844q0 -145 87 -226t234 -81t236 81q88 81 88 226v844q0 86 84 86h94q84 0 84 -86v-846q0 -244 -161 -396t-424 -151q-264 1 -424 151t-160 396z" />
    <glyph glyph-name="V" unicode="V" horiz-adv-x="1306" 
d="M94 1454h109q76 0 96 -72l297 -876l55 -213h4q27 129 56 213l301 876q18 72 94 72h104q46 0 66 -27t4 -71l-465 -1288q-23 -68 -96 -68h-131q-73 0 -96 68l-467 1288q-16 46 3 72t66 26z" />
    <glyph glyph-name="W" unicode="W" horiz-adv-x="1966" 
d="M145 1454h103q74 0 92 -76l211 -929l22 -154h5q8 70 30 154l242 931q23 74 96 74h70q78 0 92 -74l240 -931l30 -154h4q6 72 25 154l223 929q14 76 94 76h97q45 0 65 -26t10 -68l-333 -1288q-20 -72 -97 -72h-145q-76 0 -94 74l-207 786l-39 191h-6q-14 -96 -37 -191
l-209 -786q-18 -74 -94 -74h-148q-76 0 -94 74l-321 1286q-10 42 9 68t64 26z" />
    <glyph glyph-name="X" unicode="X" horiz-adv-x="1245" 
d="M147 1454h115q68 0 100 -59l168 -297l91 -178h4q43 92 90 178l170 297q33 59 100 59h115q51 0 67 -30t-10 -72l-375 -615l389 -635q27 -46 12 -74t-69 -28h-106q-68 0 -101 59l-194 332l-90 172h-5q-41 -88 -88 -172l-192 -332q-33 -59 -100 -59h-105q-53 0 -69 28t10 74
l389 635l-373 615q-26 42 -10 72t67 30z" />
    <glyph glyph-name="Y" unicode="Y" horiz-adv-x="1187" 
d="M463 86v522l-426 744q-27 42 -9 72t66 30h115q68 0 98 -63l197 -365l88 -195h4q43 104 88 195l197 365q31 63 98 63h115q51 0 67 -30t-8 -72l-428 -744v-522q0 -86 -84 -86h-92q-86 0 -86 86z" />
    <glyph glyph-name="Z" unicode="Z" horiz-adv-x="1230" 
d="M63 86v25q0 59 35 108l611 877q50 74 92 116l14 15v4q-41 -4 -108 -4h-525q-86 0 -86 84v57q0 86 86 86h881q84 0 84 -84v-24q0 -61 -33 -109l-612 -879q-50 -74 -92 -116l-15 -15v-4q41 4 109 4h567q86 0 86 -84v-57q0 -86 -86 -86h-921q-87 0 -87 86z" />
    <glyph glyph-name="bracketleft" unicode="[" horiz-adv-x="620" 
d="M147 -109v1543q0 84 86 84h234q86 0 86 -84v-19q0 -86 -80 -86h-102v-1335h96q86 0 86 -86v-17q0 -86 -86 -86h-234q-86 0 -86 86z" />
    <glyph glyph-name="backslash" unicode="\" horiz-adv-x="831" 
d="M145 1528h45q74 0 99 -70l467 -1448q14 -44 -4 -70t-66 -26h-47q-73 0 -98 70l-467 1448q-14 44 5 70t66 26z" />
    <glyph glyph-name="bracketright" unicode="]" horiz-adv-x="620" 
d="M70 -92q0 86 84 86h98v1335h-98q-84 0 -84 86v19q0 84 84 84h235q84 0 84 -84v-1543q0 -86 -84 -86h-235q-84 0 -84 86v17z" />
    <glyph glyph-name="asciicircum" unicode="^" horiz-adv-x="1267" 
d="M242 502q-49 0 -68 27q-18 28 0 71l342 789q27 66 98 65h23q74 0 100 -65l340 -789q18 -43 1 -71t-66 -27h-45q-72 0 -99 67l-241 611l-244 -611q-23 -68 -98 -67h-43z" />
    <glyph glyph-name="underscore" unicode="_" horiz-adv-x="1155" 
d="M2 -86q0 86 86 86h979q84 0 84 -86v-31q0 -84 -84 -84h-979q-86 0 -86 84v31z" />
    <glyph glyph-name="grave" unicode="`" horiz-adv-x="1009" 
d="M571 1550q-61 0 -104 52l-92 124q-35 41 -23 72t66 31h76q66 0 100 -60l72 -124q22 -35 12 -65t-53 -30h-54z" />
    <glyph glyph-name="a" unicode="a" horiz-adv-x="1075" 
d="M307 311q0 -55 42 -96t116 -41q104 0 172 86t68 189v38h-43q-355 0 -355 -176zM395 -25q-145 -1 -245 87t-101 212q1 124 61 198q98 121 353 159q94 14 196 14h43v25q0 184 -194 184q-106 0 -217 -59q-80 -35 -115 34l-20 39q-39 76 32 115q168 86 356 86t304 -110
q115 -110 115 -306v-567q0 -86 -86 -86h-70q-84 0 -84 86v41l4 45h-4q-12 -25 -45 -64q-64 -76 -161 -111q-58 -22 -122 -22z" />
    <glyph glyph-name="b" unicode="b" horiz-adv-x="1234" 
d="M636 195q116 0 192 87t75 235q0 149 -72 239q-73 90 -185 90t-188 -83t-77 -229q0 -146 69 -243q70 -96 186 -96zM129 86v1282q0 86 86 86h88q86 0 86 -86v-379l-6 -88h4q4 5 11 17t36 42q108 110 273 109q207 1 333 -151t127 -396q0 -244 -135 -396t-342 -151
q-165 0 -274 114q-25 26 -35 44l-10 19h-4q4 -16 4 -46v-32q0 -74 -86 -74h-70q-86 0 -86 86z" />
    <glyph glyph-name="c" unicode="c" horiz-adv-x="1085" 
d="M63 520q0 231 157 390t411 159q193 0 342 -104q63 -43 16 -117l-26 -41q-39 -59 -115 -23q-94 64 -219 64t-213 -93t-88 -231t90 -232q90 -95 223 -95t246 79q78 43 117 -26l20 -39q39 -72 -23 -115q-164 -121 -370 -121q-254 0 -411 157t-157 388z" />
    <glyph glyph-name="d" unicode="d" horiz-adv-x="1234" 
d="M330 524q0 -148 72 -239q72 -90 185 -90t189 83t76 230q0 146 -68 242t-186 96t-192 -87q-76 -87 -76 -235zM68 523q0 245 132 396t341 150q163 0 263 -96q13 -13 42 -53h4q-4 27 -4 59v389q0 86 84 86h90q84 0 84 -86v-1282q0 -86 -84 -86h-76q-84 0 -84 78v41l4 37h-4
q-12 -24 -43 -60q-104 -119 -285 -121q-212 -1 -338 151t-126 397z" />
    <glyph glyph-name="e" unicode="e" horiz-adv-x="1118" 
d="M586 872q-94 0 -162 -62t-86 -169h463q-1 107 -61 169t-154 62zM66 528q0 236 147 388t373 153q226 0 350 -138q123 -138 123 -360q0 -35 -27 -61t-63 -27h-637q12 -135 100 -211t209 -76t229 68q78 37 115 -28l25 -41q39 -74 -29 -115q-164 -104 -354 -105
q-252 0 -407 159q-154 158 -154 394z" />
    <glyph glyph-name="f" unicode="f" horiz-adv-x="692" 
d="M184 86v737h-51q-84 0 -84 86v35q0 86 84 86h51v49q0 94 32 167t78 112q123 104 290 104h30q84 0 84 -86v-53q0 -78 -88 -84q-62 -4 -99 -25q-65 -37 -67 -145v-39h140q84 0 84 -86v-35q0 -86 -84 -86h-140v-737q0 -86 -86 -86h-90q-84 0 -84 86z" />
    <glyph glyph-name="g" unicode="g" horiz-adv-x="1218" 
d="M584 240q114 0 183 72t69 233q0 303 -254 303q-119 0 -185 -78q-65 -78 -65 -216t70 -226q68 -88 182 -88zM547 -209q119 -1 201 61t81 193v78l5 53h-5q-91 -156 -299 -156t-334 152t-126 378t123 372t348 147q138 0 210 -52t91 -91l8 -17h4q-2 10 -2 27v39q0 31 21 50
q22 19 63 19h70q84 0 84 -86v-895q0 -249 -161 -371t-359 -122t-326 55q-78 33 -45 111l16 47q33 72 109 47q104 -39 223 -39z" />
    <glyph glyph-name="h" unicode="h" horiz-adv-x="1226" 
d="M129 86v1282q0 86 86 86h88q86 0 86 -86v-422l-6 -88h4q43 84 140 148t223 63q365 0 364 -397v-586q0 -86 -86 -86h-88q-86 0 -86 86v532q0 104 -36 158t-128 55q-135 0 -218 -97t-83 -249v-399q0 -86 -86 -86h-88q-86 0 -86 86z" />
    <glyph glyph-name="i" unicode="i" horiz-adv-x="516" 
d="M129 86v872q0 86 84 86h90q84 0 84 -86v-872q0 -86 -84 -86h-90q-84 0 -84 86zM213 1223q-84 0 -84 84v61q0 86 84 86h90q86 0 86 -86v-61q0 -84 -86 -84h-90z" />
    <glyph glyph-name="j" unicode="j" horiz-adv-x="518" 
d="M129 -10v968q0 86 86 86h88q86 0 86 -86v-985q0 -96 -33 -171q-34 -76 -78 -116t-121 -75t-167 -35h-31q-84 0 -84 86v53q0 45 23 61q22 16 58 22q127 18 158 97q15 38 15 95zM215 1223q-86 0 -86 84v61q0 86 86 86h90q84 0 84 -86v-61q0 -84 -84 -84h-90z" />
    <glyph glyph-name="k" unicode="k" horiz-adv-x="1091" 
d="M129 86v1282q0 86 86 86h88q86 0 86 -86v-692h129l217 311q35 57 103 57h98q51 0 66 -30t-13 -72l-260 -364v-5l307 -471q27 -46 11 -74t-68 -28h-111q-68 0 -100 59l-244 398h-135v-371q0 -86 -86 -86h-88q-86 0 -86 86z" />
    <glyph glyph-name="l" unicode="l" horiz-adv-x="571" 
d="M127 326v1042q0 86 84 86h90q84 0 84 -86v-1022q0 -117 82 -125q63 -6 63 -74v-69q0 -88 -86 -88q-224 0 -288 157q-29 73 -29 179z" />
    <glyph glyph-name="m" unicode="m" horiz-adv-x="1839" 
d="M129 86v872q0 86 84 86h80q84 0 84 -86v-63l-4 -47h4q43 88 136 154t206 67q240 0 305 -215h4q45 88 142 152t214 63q342 0 342 -397v-586q0 -86 -86 -86h-88q-86 0 -86 86v537q0 102 -29 155q-30 53 -114 53q-125 1 -196 -107t-70 -255v-383q0 -86 -84 -86h-90
q-86 0 -86 86v537q0 100 -28 154t-112 54q-129 -1 -199 -109t-71 -253v-383q0 -86 -84 -86h-90q-84 0 -84 86z" />
    <glyph glyph-name="n" unicode="n" horiz-adv-x="1226" 
d="M129 86v872q0 86 84 86h80q84 0 84 -86v-63l-4 -47h4q43 86 136 154t235 67q365 0 364 -397v-586q0 -86 -86 -86h-88q-86 0 -86 86v532q0 104 -36 158t-128 55q-135 0 -218 -98t-83 -244v-403q0 -86 -84 -86h-90q-84 0 -84 86z" />
    <glyph glyph-name="o" unicode="o" horiz-adv-x="1273" 
d="M637 848q-129 0 -219 -92t-90 -235q0 -142 89 -233t220 -91t221 91t90 233q0 143 -91 235t-220 92zM63 522q0 238 166 392t408 155q242 0 409 -156q166 -157 166 -393t-166 -390t-409 -155q-242 1 -408 155t-166 392z" />
    <glyph glyph-name="p" unicode="p" horiz-adv-x="1234" 
d="M638 195q116 0 190 87t75 235q0 149 -72 239q-73 90 -185 90t-188 -83t-77 -231q0 -148 70 -242q71 -95 187 -95zM129 -324v1282q0 86 86 86h66q84 0 84 -71v-47l-3 -41h5q31 61 115 123q85 61 220 61q211 1 338 -151t127 -397t-135 -395t-344 -151q-153 0 -257 104
q-24 24 -44 56h-4q6 -37 6 -90v-369q0 -86 -86 -86h-88q-86 0 -86 86z" />
    <glyph glyph-name="q" unicode="q" horiz-adv-x="1234" 
d="M330 524q0 -148 72 -239q72 -90 185 -90t189 83t76 230q0 146 -68 242t-186 96t-192 -87q-76 -87 -76 -235zM866 938v37q0 31 23 50t63 19h68q84 0 84 -86v-1282q0 -86 -84 -86h-90q-84 0 -84 86v379l4 90h-4q-4 -6 -10 -18t-33 -41q-101 -108 -291 -110
q-192 -2 -318 150t-126 397t133 396t345 151t320 -173h4q-4 16 -4 41z" />
    <glyph glyph-name="r" unicode="r" horiz-adv-x="768" 
d="M129 86v872q0 86 84 86h80q86 0 86 -86v-98l-6 -72h4q35 104 118 184t185 81q78 0 78 -86v-80q0 -86 -88 -86q-135 0 -209 -112t-74 -267v-336q0 -86 -84 -86h-90q-84 0 -84 86z" />
    <glyph glyph-name="s" unicode="s" horiz-adv-x="915" 
d="M442 184q162 0 162 107q0 78 -182 135q-76 24 -153 58t-130 103t-53 169q0 147 114 230t276 83t300 -76q68 -35 31 -114l-21 -37q-35 -68 -114 -33q-113 51 -199 51q-141 0 -141 -102q0 -47 53 -79q53 -33 129 -57t153 -57t130 -101t53 -167q0 -139 -110 -230t-294 -91
t-342 106q-72 41 -20 117l25 37q43 59 116 20q133 -72 217 -72z" />
    <glyph glyph-name="t" unicode="t" horiz-adv-x="745" 
d="M186 373v450h-55q-84 0 -84 86v35q0 86 86 86h60v213q0 86 86 86h81q86 0 86 -86v-213h152q86 0 86 -86v-35q0 -86 -84 -86h-154v-405q0 -176 168 -195q46 -4 66 -22t20 -62v-63q0 -86 -106 -86q-162 0 -285 94t-123 289z" />
    <glyph glyph-name="u" unicode="u" horiz-adv-x="1216" 
d="M115 373v585q0 86 86 86h88q86 0 86 -86v-532q0 -104 36 -158t126 -55q135 0 214 102t78 250v393q0 86 86 86h89q86 0 86 -86v-872q0 -86 -86 -86h-80q-84 0 -84 86v61l4 48h-4q-42 -88 -140 -154t-223 -66q-362 1 -362 398z" />
    <glyph glyph-name="v" unicode="v" horiz-adv-x="1064" 
d="M201 1044q76 0 96 -71l195 -576l38 -157h5q16 96 36 157l195 576q20 72 96 71h96q47 0 67 -26q19 -27 3 -72l-315 -876q-23 -70 -97 -70h-163q-77 0 -97 70l-319 876q-16 45 2 72t65 26h97z" />
    <glyph glyph-name="w" unicode="w" horiz-adv-x="1658" 
d="M215 1044q78 0 92 -75l168 -611l21 -110h4q8 55 22 110l176 611q14 74 95 73h77q76 0 95 -73l174 -611l22 -110h4q8 55 23 110l166 611q18 76 94 75h94q45 0 65 -26q19 -27 7 -70l-268 -876q-20 -72 -97 -72h-137q-78 0 -96 74l-158 522l-24 113h-5q-10 -57 -26 -113
l-158 -522q-18 -74 -94 -74h-141q-75 0 -95 72l-270 876q-12 43 7 70t65 26h98z" />
    <glyph glyph-name="x" unicode="x" horiz-adv-x="1019" 
d="M244 1044q68 0 100 -61l131 -223l33 -66h4q20 39 33 66l131 223q33 61 100 61h105q53 0 68 -30t-13 -72l-268 -414l278 -426q30 -42 12 -72t-69 -30h-98q-68 0 -101 59l-149 244l-29 55h-4q-14 -33 -29 -55l-147 -244q-35 -59 -101 -59h-100q-53 0 -69 30t14 72l278 426
l-270 414q-30 43 -14 73t69 29h105z" />
    <glyph glyph-name="y" unicode="y" horiz-adv-x="1052" 
d="M225 -215q43 0 87 40t69 99l39 92l-397 928q-20 45 -3 73q18 28 68 27h111q72 0 96 -69l197 -533l38 -141h5q18 82 34 137l185 535q20 72 96 71h102q47 0 67 -26q19 -27 3 -72l-430 -1102q-50 -138 -152 -206t-225 -68q-66 0 -145 31q-37 14 -47 45t8 65l18 45
q29 61 92 47q41 -18 84 -18z" />
    <glyph glyph-name="z" unicode="z" horiz-adv-x="1044" 
d="M57 70v20q0 51 37 96l432 541l88 96v4q-29 -4 -96 -4h-354q-86 0 -86 86v49q0 86 86 86h717q86 0 86 -69v-21q0 -51 -37 -96l-432 -543q-41 -55 -90 -96v-4q31 6 98 6h389q86 0 86 -86v-49q0 -86 -86 -86h-752q-86 0 -86 70z" />
    <glyph glyph-name="braceleft" unicode="{" horiz-adv-x="702" 
d="M223 145v199q0 135 -104 193q-37 19 -53 39t-17 55v80q0 49 31 70q12 9 37 26q106 47 106 194v175q0 104 35 178t90 108q99 60 189 62h26q86 0 86 -86v-31q0 -84 -86 -84q-119 0 -119 -174v-215q0 -117 -59 -181q-40 -45 -90 -73l-19 -6v-4q107 -36 150 -151
q18 -48 18 -107v-240q0 -172 119 -172q86 0 86 -86v-31q0 -86 -86 -86h-26q-85 0 -189 63q-55 34 -90 108t-35 177z" />
    <glyph glyph-name="bar" unicode="|" horiz-adv-x="514" 
d="M145 -246v1790q0 86 86 86h52q86 0 86 -86v-1790q0 -84 -86 -84h-52q-86 0 -86 84z" />
    <glyph glyph-name="braceright" unicode="}" horiz-adv-x="704" 
d="M53 -86q0 86 86 86q119 0 119 172v240q0 118 54 177t114 81v4q-21 7 -54 30q-114 78 -114 230v215q0 174 -119 174q-86 0 -86 84v31q0 86 86 86h27q86 0 188 -63q55 -33 90 -107t35 -178v-175q0 -147 107 -194q25 -15 37 -25q30 -24 30 -71v-80q0 -35 -16 -54t-53 -40
q-104 -57 -105 -193v-199q0 -102 -35 -177q-35 -74 -90 -108q-99 -60 -188 -63h-27q-86 0 -86 86v31z" />
    <glyph glyph-name="asciitilde" unicode="~" horiz-adv-x="1214" 
d="M184 408q-44 0 -66 28t-14 78q43 266 306 266q70 0 127 -28t89 -65q83 -93 162 -93q80 0 113 100q15 42 35 60t55 18h41q43 0 66 -24t16 -66q-37 -283 -307 -283q-70 0 -126 29t-89 64q-87 92 -166 92q-80 0 -109 -101q-18 -41 -37 -58t-55 -17h-41z" />
    <glyph glyph-name="uni00A0" unicode="&#xa0;" horiz-adv-x="512" 
 />
    <glyph glyph-name="exclamdown" unicode="&#xa1;" horiz-adv-x="536" 
d="M391 956v-71q0 -86 -84 -86h-82q-86 0 -86 86v71q0 86 86 86h82q84 0 84 -86zM297 623q82 0 86 -84l16 -863q0 -88 -84 -88h-96q-88 0 -84 88l17 863q0 84 86 84h59z" />
    <glyph glyph-name="cent" unicode="&#xa2;" horiz-adv-x="1153" 
d="M518 59v93q-192 34 -312 194t-120 381t120 383t312 195v86q0 86 82 86h14q82 0 82 -68v-104q111 -19 208 -91q96 -72 140 -154t-40 -118l-78 -31q-24 -14 -48 -8q-24 5 -35 15t-30 32q-76 115 -196 115q-121 0 -195 -94t-74 -246t72 -244t194 -92t199 115q51 63 113 41
l78 -31q82 -35 45 -113q-47 -91 -145 -165t-208 -84v-93q0 -84 -82 -84h-14q-82 0 -82 84z" />
    <glyph glyph-name="sterling" unicode="&#xa3;" horiz-adv-x="1210" 
d="M106 86v57q0 84 84 84h43v410h-34q-78 0 -78 82v12q0 84 78 84h34v248q-1 182 131 299t334 117q158 0 299 -95q68 -47 11 -118l-39 -52q-47 -57 -121 -16t-154 41t-136 -52t-56 -132v-240h276q84 0 84 -84v-12q0 -82 -84 -82h-276v-410h551q86 0 86 -84v-57
q0 -86 -86 -86h-863q-84 0 -84 86z" />
    <glyph glyph-name="yen" unicode="&#xa5;" horiz-adv-x="1228" 
d="M231 381q-84 0 -84 74v12q0 72 84 72h250v67l-53 99h-197q-84 0 -84 71v12q0 72 74 72h127l-264 494q-24 44 -6 72t67 28h119q72 0 96 -68l166 -321l88 -234h4q41 121 89 234l163 321q25 68 97 68h116q51 0 69 -29t-5 -71l-266 -494h116q84 0 84 -72v-12q0 -72 -84 -71
h-196l-51 -99v-67h247q84 0 84 -72v-12q0 -74 -84 -74h-247v-295q0 -86 -86 -86h-99q-84 0 -84 86v295h-250z" />
    <glyph glyph-name="section" unicode="&#xa7;" horiz-adv-x="958" 
d="M428 84q88 0 146 52t59 155q0 59 -19 117l-110 567q-12 43 7 69t64 25h31q76 0 94 -74l129 -630q14 -72 15 -117q0 -166 -112 -270t-288 -105q-176 0 -297 78q-69 43 -22 117l20 34q41 62 118 22t165 -40zM119 1104q0 166 111 270q112 104 286 104t299 -77
q70 -41 19 -117l-23 -31q-41 -59 -116 -23t-161 36t-146 -47q-58 -47 -58 -146q0 -47 14 -102l119 -594q10 -43 -9 -69t-65 -25h-31q-76 -1 -94 73l-131 631q-14 55 -14 117z" />
    <glyph glyph-name="dieresis" unicode="&#xa8;" horiz-adv-x="1009" 
d="M303 1591q-86 0 -86 86v68q0 84 86 84h29q86 0 86 -84v-68q0 -86 -86 -86h-29zM678 1591q-84 0 -84 86v68q0 84 84 84h31q84 0 84 -84v-68q0 -86 -84 -86h-31z" />
    <glyph glyph-name="copyright" unicode="&#xa9;" horiz-adv-x="1654" 
d="M451 723q0 166 109 283q110 117 280 116q96 0 172 -43t112 -96t-8 -90l-31 -27q-25 -18 -53 -12t-47 31q-61 67 -147 67t-143 -65q-56 -66 -56 -165t54 -164q53 -64 149 -64t153 73q45 49 90 13l29 -25q49 -41 8 -94q-110 -137 -282 -137t-281 116q-108 117 -108 283z
M274 727q0 -246 159 -416t392 -170t395 170q161 170 160 416q0 246 -160 415t-394 169t-393 -169t-159 -415zM92 727q0 311 214 530t519 219t521 -218q216 -220 217 -531q0 -311 -216 -531q-215 -220 -521 -220t-520 220t-214 531z" />
    <glyph glyph-name="ordfeminine" unicode="&#xaa;" horiz-adv-x="815" 
d="M199 545q-86 0 -86 65v11q0 63 86 63h415q86 0 86 -63v-11q0 -66 -86 -65h-415zM295 997q1 -31 23 -50t68 -19t83 45t37 102v15h-23q-188 0 -188 -93zM526 905q-60 -121 -203 -121q-81 0 -147 54t-65 149q0 223 381 223h16v15q0 106 -117 106q-57 0 -106 -24
q-70 -27 -95 24l-6 15q-29 59 47 90q88 39 204 39t187 -71t70 -196v-325q0 -86 -78 -86h-6q-78 0 -78 80v28h-4z" />
    <glyph glyph-name="guillemotleft" unicode="&#xab;" horiz-adv-x="1134" 
d="M453 999h51q53 -1 67 -31t-18 -73l-252 -317l252 -316q35 -43 23 -74t-64 -30h-59q-62 0 -105 49l-248 311q-49 59 0 119l248 313q43 49 105 49zM913 999h50q55 -1 69 -31t-20 -73l-252 -317l252 -316q36 -43 24 -74t-63 -30h-60q-61 0 -104 49l-248 311q-49 59 0 119
l248 313q43 49 104 49z" />
    <glyph glyph-name="logicalnot" unicode="&#xac;" horiz-adv-x="1251" 
d="M195 694q-84 0 -84 86v31q0 84 84 84h829q86 0 86 -84v-432q0 -86 -86 -86h-39q-84 0 -84 86v315h-706z" />
    <glyph glyph-name="uni00AD" unicode="&#xad;" horiz-adv-x="854" 
d="M205 471q-86 0 -86 86v57q0 84 86 84h444q86 0 86 -84v-57q0 -86 -86 -86h-444z" />
    <glyph glyph-name="registered" unicode="&#xae;" horiz-adv-x="1654" 
d="M741 756h97q51 0 80 30t28 82q0 111 -104 111h-101v-223zM567 442v578q0 86 86 86h226q113 0 179 -65t66 -159t-42 -145t-89 -63v-4q8 -8 27 -43l88 -170q22 -45 10 -73t-53 -28h-27q-72 0 -98 64l-98 213h-101v-191q0 -86 -79 -86h-15q-80 0 -80 86zM274 727
q0 -246 159 -416t393 -170t394 170q161 170 160 416q0 246 -160 415t-394 169t-393 -169t-159 -415zM92 727q0 311 214 530t520 219t522 -218q216 -220 215 -531q0 -311 -215 -531q-216 -220 -522 -220t-520 220t-214 531z" />
    <glyph glyph-name="macron" unicode="&#xaf;" horiz-adv-x="1009" 
d="M322 1604q-84 0 -84 82v14q0 82 84 82h366q86 0 86 -82v-14q0 -82 -86 -82h-366z" />
    <glyph glyph-name="degree" unicode="&#xb0;" horiz-adv-x="802" 
d="M401 1022q57 0 98 39q40 39 40 95t-40 96q-39 40 -97 40t-97 -40t-39 -96t39 -95t96 -39zM401 836q-139 0 -236 93t-97 227t97 229t235 95t236 -94q98 -96 99 -230t-97 -227t-237 -93z" />
    <glyph glyph-name="plusminus" unicode="&#xb1;" horiz-adv-x="1267" 
d="M199 -174h870q86 0 86 -86v-31q0 -84 -86 -84h-870q-84 0 -84 84v31q0 86 84 86zM172 483q-86 0 -86 86v31q0 86 86 86h356v399q0 86 86 86h41q84 0 84 -86v-399h359q84 0 84 -86v-31q0 -86 -84 -86h-359v-397q0 -86 -84 -86h-41q-86 0 -86 86v397h-356z" />
    <glyph glyph-name="twosuperior" unicode="&#xb2;" horiz-adv-x="751" 
d="M139 866q-86 0 -86 91t44 168q45 77 107 122t124 83t105 80q44 42 44 89t-36 77t-89 30t-104 -39q-70 -47 -117 -4q-81 65 -14 125q109 98 242 98t224 -75t91 -204q0 -83 -40 -147t-98 -104t-116 -72t-104 -70q-44 -37 -48 -78h334q86 0 86 -80v-10q0 -80 -86 -80h-463z
" />
    <glyph glyph-name="threesuperior" unicode="&#xb3;" horiz-adv-x="741" 
d="M342 846q-148 0 -256 84q-66 45 -6 123q39 55 110 18q63 -47 132 -47t111 37t42 91t-45 86t-104 32h-23q-59 0 -80 47q-20 49 27 98l115 131l49 49v4q-41 -6 -72 -6h-180q-84 0 -84 82v11q0 80 84 79h403q86 0 86 -61v-12q0 -49 -41 -97l-161 -184q100 -18 161 -86
q62 -67 62 -183t-91 -206t-239 -90z" />
    <glyph glyph-name="acute" unicode="&#xb4;" horiz-adv-x="1009" 
d="M395 1550q-45 0 -59 28t8 69l72 122q35 59 100 60h74q55 0 67 -31t-22 -72l-92 -124q-43 -51 -105 -52h-43z" />
    <glyph glyph-name="mu" unicode="&#xb5;" horiz-adv-x="1304" 
d="M518 -25q-85 0 -145 43h-4q14 -100 14 -170v-172q0 -86 -84 -86h-55q-86 0 -86 86v1282q0 86 86 86h88q86 0 86 -86v-532q0 -104 36 -158t126 -55q135 0 214 102t78 250v393q0 86 86 86h89q86 0 86 -86v-872q0 -86 -86 -86h-80q-84 0 -84 86v59l2 48h-4
q-39 -76 -133 -147t-230 -71z" />
    <glyph glyph-name="paragraph" unicode="&#xb6;" horiz-adv-x="1269" 
d="M868 -16v1044q0 86 86 86h19q86 0 86 -86v-1044q0 -86 -86 -86h-19q-86 0 -86 86zM553 -16v510q-199 0 -341 140t-142 341t141 340t340 139h541q84 0 84 -86v-57q0 -84 -84 -84h-351v-1243q0 -86 -84 -86h-20q-84 0 -84 86z" />
    <glyph glyph-name="periodcentered" unicode="&#xb7;" horiz-adv-x="493" 
d="M205 467q-84 0 -84 84v94q0 84 84 84h84q86 0 86 -84v-94q0 -84 -86 -84h-84z" />
    <glyph glyph-name="cedilla" unicode="&#xb8;" horiz-adv-x="1009" 
d="M528 -90q150 -18 150 -168q0 -82 -64 -125t-168 -43q-106 0 -106 70q0 33 12 52t31 19l51 -6q76 0 76 60q0 49 -92 59q-47 4 -31 63l41 150h129z" />
    <glyph glyph-name="onesuperior" unicode="&#xb9;" horiz-adv-x="649" 
d="M143 866q-84 0 -84 80v10q0 80 72 80h115v424l6 58h-4q-6 -12 -29 -33l-33 -31q-35 -31 -73 6l-23 23q-55 57 10 116l125 123q49 43 105 43h26q84 0 84 -86v-643h103q84 0 84 -80v-10q0 -80 -84 -80h-400z" />
    <glyph glyph-name="ordmasculine" unicode="&#xba;" horiz-adv-x="915" 
d="M213 545q-84 0 -84 65v11q0 63 84 63h492q84 0 83 -63v-11q0 -66 -83 -65h-492zM285 1132q0 -78 50 -130t123 -52t123 51t50 131t-50 130q-50 51 -123 51t-123 -51t-50 -130zM458 786q-151 0 -255 98q-105 98 -105 248q0 148 104 245t256 97q151 0 255 -96
q104 -98 104 -246t-104 -248q-104 -98 -255 -98z" />
    <glyph glyph-name="guillemotright" unicode="&#xbb;" horiz-adv-x="1134" 
d="M170 158q-53 0 -68 30q-14 31 19 74l252 316l-252 317q-35 43 -23 74t64 30h59q61 0 105 -49l247 -313q49 -59 0 -119l-247 -311q-43 -49 -105 -49h-51zM682 999q61 0 104 -49l246 -313q49 -59 0 -119l-246 -311q-43 -49 -104 -49h-51q-55 0 -70 30q-14 31 21 74l252 316
l-252 317q-35 43 -23 74t64 30h59z" />
    <glyph glyph-name="onequarter" unicode="&#xbc;" horiz-adv-x="1976" 
d="M178 557q-84 0 -84 80v10q0 80 72 80h115v424l6 57h-4q-6 -12 -29 -32l-33 -31q-35 -31 -74 6l-22 23q-55 57 10 116l125 123q49 43 105 43h26q84 0 84 -86v-643h103q84 0 84 -80v-10q0 -80 -84 -80h-400zM645 0h-29q-41 0 -53 28t8 72l613 1291q31 63 98 63h29
q41 0 53 -28t-8 -72l-613 -1291q-31 -63 -98 -63zM1372 371h219v225l8 113h-4q-25 -55 -53 -97l-170 -237v-4zM1677 0q-86 0 -86 86v117h-331q-84 0 -84 65v23q0 43 30 90l320 463q39 55 102 55h70q86 0 86 -86v-442h53q72 0 72 -78v-10q0 -80 -72 -80h-53v-117
q0 -86 -86 -86h-21z" />
    <glyph glyph-name="onehalf" unicode="&#xbd;" horiz-adv-x="1943" 
d="M170 557q-84 0 -84 80v10q0 80 72 80h114v424l7 57h-5q-6 -12 -28 -32l-33 -31q-35 -31 -74 6l-22 23q-55 57 10 116l125 123q49 43 104 43h27q84 0 84 -86v-643h102q84 0 84 -80v-10q0 -80 -84 -80h-399zM643 0h-29q-41 0 -53 28t8 72l613 1291q31 63 98 63h29
q41 0 53 -28t-8 -72l-613 -1291q-31 -63 -98 -63zM1315 0q-86 0 -86 91t44 168t106 122q61 45 123 83t107 80q44 42 44 89t-36 77t-89 30t-105 -40q-70 -47 -116 -4q-81 66 -15 125q109 99 242 99t224 -75t91 -204q0 -83 -40 -147t-98 -104q-59 -40 -117 -73t-102 -69
t-48 -78h334q86 0 86 -80v-10q0 -80 -86 -80h-463z" />
    <glyph glyph-name="threequarters" unicode="&#xbe;" horiz-adv-x="2000" 
d="M668 0h-29q-41 0 -53 28t8 72l612 1291q31 63 99 63h28q41 0 53 -28t-8 -72l-612 -1291q-31 -63 -98 -63zM374 537q-148 0 -255 84q-61 41 -17 110l11 12q39 55 110 19q63 -47 131 -47t112 37q42 37 42 91t-45 86t-105 32h-22q-59 0 -80 47q-20 49 27 98l114 131l49 49v4
q-41 -6 -71 -6h-180q-84 0 -84 82v10q0 80 84 80h403q86 0 86 -61v-13q0 -49 -41 -96l-162 -184q99 -18 161 -86t62 -184t-90 -205q-92 -90 -240 -90zM1395 371h219v225l8 113h-4q-25 -55 -53 -97l-170 -237v-4zM1700 0q-86 0 -86 86v117h-332q-84 0 -84 65v23q0 43 31 90
l319 463q41 55 103 55h69q86 0 86 -86v-442h54q72 0 71 -78v-10q0 -80 -71 -80h-54v-117q0 -86 -86 -86h-20z" />
    <glyph glyph-name="questiondown" unicode="&#xbf;" horiz-adv-x="956" 
d="M705 956v-71q0 -86 -87 -86h-81q-84 0 -84 86v71q0 86 84 86h81q87 0 87 -86zM618 623q86 0 87 -84v-33q0 -129 -119 -243q-50 -46 -100 -89q-121 -103 -119 -205q0 -72 57 -121t134 -49t159 42t123 -21l34 -51q51 -72 -14 -115q-141 -94 -320 -94t-313 105
q-133 105 -133 277t118 288q50 50 101 94q126 110 138 204l4 35q14 59 82 60h81z" />
    <glyph glyph-name="Agrave" unicode="&#xc0;" horiz-adv-x="1298" 
d="M614 1550q-61 0 -104 52l-92 124q-35 41 -23 72t66 31h76q66 0 100 -60l72 -124q23 -35 13 -65t-54 -30h-54zM459 588h379l-129 389l-58 225h-4q-33 -143 -57 -225zM584 1454h131q76 0 96 -70l455 -1286q16 -46 -3 -72t-67 -26h-94q-76 0 -96 70l-103 303h-510l-100 -301
q-20 -72 -96 -72h-95q-47 0 -66 26t-3 72l454 1286q25 70 97 70z" />
    <glyph glyph-name="Aacute" unicode="&#xc1;" horiz-adv-x="1298" 
d="M639 1550q-45 0 -59 28t8 69l71 122q35 59 101 60h74q55 0 67 -31t-22 -72l-93 -124q-43 -51 -104 -52h-43zM459 588h379l-129 389l-58 225h-4q-33 -143 -57 -225zM584 1454h131q76 0 96 -70l455 -1286q16 -46 -3 -72t-67 -26h-94q-76 0 -96 70l-103 303h-510l-100 -301
q-20 -72 -96 -72h-95q-47 0 -66 26t-3 72l454 1286q25 70 97 70z" />
    <glyph glyph-name="Acircumflex" unicode="&#xc2;" horiz-adv-x="1298" 
d="M436 1550q-45 0 -55 30t18 75l82 119q37 55 105 55h127q68 0 104 -55l82 -119q29 -45 19 -75t-56 -30h-53q-35 0 -52 14t-38 46l-68 106h-4l-69 -106q-33 -59 -89 -60h-53zM459 588h379l-129 389l-58 225h-4q-33 -143 -57 -225zM584 1454h131q76 0 96 -70l455 -1286
q16 -46 -3 -72t-67 -26h-94q-76 0 -96 70l-103 303h-510l-100 -301q-20 -72 -96 -72h-95q-47 0 -66 26t-3 72l454 1286q25 70 97 70z" />
    <glyph glyph-name="Atilde" unicode="&#xc3;" horiz-adv-x="1298" 
d="M358 1552q-74 0 -74 81t59 141t137 59q78 0 130 -34q52 -35 89 -67q38 -32 73 -32q66 0 72 80q4 47 74 47h20q76 0 76 -70q0 -94 -58 -152q-58 -59 -137 -59q-80 0 -131 34t-89 67t-73 32q-70 0 -77 -82q-6 -45 -70 -45h-21zM459 588h379l-129 389l-58 225h-4
q-33 -143 -57 -225zM584 1454h131q76 0 96 -70l455 -1286q16 -46 -3 -72t-67 -26h-94q-76 0 -96 70l-103 303h-510l-100 -301q-20 -72 -96 -72h-95q-47 0 -66 26t-3 72l454 1286q25 70 97 70z" />
    <glyph glyph-name="Adieresis" unicode="&#xc4;" horiz-adv-x="1298" 
d="M446 1591q-86 0 -86 86v68q0 84 86 84h29q86 0 86 -84v-68q0 -86 -86 -86h-29zM821 1591q-84 0 -84 86v68q0 84 84 84h31q84 0 84 -84v-68q0 -86 -84 -86h-31zM459 588h379l-129 389l-58 225h-4q-33 -143 -57 -225zM584 1454h131q76 0 96 -70l455 -1286q16 -46 -3 -72
t-67 -26h-94q-76 0 -96 70l-103 303h-510l-100 -301q-20 -72 -96 -72h-95q-47 0 -66 26t-3 72l454 1286q25 70 97 70z" />
    <glyph glyph-name="Aring" unicode="&#xc5;" horiz-adv-x="1298" 
d="M580 1687q0 -31 18 -51t50 -20t51 19t19 51t-18 52q-20 19 -51 19t-50 -19t-19 -51zM648 1526q-79 0 -136 43t-57 118t57 117t136 43q79 0 136 -43q58 -44 58 -118t-58 -117t-136 -43zM459 588h379l-129 389l-58 225h-4q-33 -143 -57 -225zM584 1454h131q76 0 96 -70
l455 -1286q16 -46 -3 -72t-67 -26h-94q-76 0 -96 70l-103 303h-510l-100 -301q-20 -72 -96 -72h-95q-47 0 -66 26t-3 72l454 1286q25 70 97 70z" />
    <glyph glyph-name="AE" unicode="&#xc6;" horiz-adv-x="1816" 
d="M844 838v389h-107l-155 -389h262zM1630 1454q84 0 84 -86v-57q0 -84 -84 -84h-522v-381h405q84 0 84 -84v-57q0 -86 -84 -87h-405v-391h553q84 0 84 -84v-57q0 -86 -84 -86h-731q-86 0 -86 86v537h-346l-219 -557q-27 -66 -97 -66h-98q-48 0 -66 28t2 70l535 1291
q25 66 98 65h977z" />
    <glyph glyph-name="Ccedilla" unicode="&#xc7;" horiz-adv-x="1445" 
d="M858 -90q150 -18 150 -168q0 -82 -64 -125t-169 -43q-106 0 -105 70q0 33 12 52t31 19l51 -6q76 0 76 60q0 49 -92 59q-47 4 -31 63l24 89q-299 30 -478 240t-179 521t211 525t539 213q270 0 475 -146q61 -47 16 -119l-37 -59q-41 -68 -117 -20q-160 102 -327 102
q-228 0 -358 -144q-130 -143 -130 -357t132 -366t358 -153q182 0 356 127q72 53 119 -14l41 -56q49 -66 -12 -118q-205 -166 -478 -179z" />
    <glyph glyph-name="Egrave" unicode="&#xc8;" horiz-adv-x="1140" 
d="M588 1550q-61 0 -105 52l-92 124q-35 41 -23 72t66 31h76q66 0 100 -60l72 -124q22 -35 12 -65t-53 -30h-53zM168 86v1282q0 86 84 86h700q86 0 86 -86v-57q0 -84 -86 -84h-522v-381h406q86 0 86 -84v-57q0 -86 -86 -87h-406v-391h555q86 0 86 -84v-57q0 -86 -86 -86
h-733q-84 0 -84 86z" />
    <glyph glyph-name="Eacute" unicode="&#xc9;" horiz-adv-x="1140" 
d="M168 86v1282q0 86 84 86h700q86 0 86 -86v-57q0 -84 -86 -84h-522v-381h406q86 0 86 -84v-57q0 -86 -86 -87h-406v-391h555q86 0 86 -84v-57q0 -86 -86 -86h-733q-84 0 -84 86zM610 1550q-45 0 -59 28t8 69l72 122q35 59 100 60h74q55 0 67 -31t-22 -72l-92 -124
q-43 -51 -105 -52h-43z" />
    <glyph glyph-name="Ecircumflex" unicode="&#xca;" horiz-adv-x="1140" 
d="M168 86v1282q0 86 84 86h700q86 0 86 -86v-57q0 -84 -86 -84h-522v-381h406q86 0 86 -84v-57q0 -86 -86 -87h-406v-391h555q86 0 86 -84v-57q0 -86 -86 -86h-733q-84 0 -84 86zM408 1550q-45 0 -56 30q-10 30 19 75l82 119q37 55 104 55h127q68 0 104 -55l82 -119
q29 -45 19 -75t-55 -30h-54q-35 0 -52 14t-38 46l-67 106h-5l-69 -106q-33 -59 -88 -60h-53z" />
    <glyph glyph-name="Edieresis" unicode="&#xcb;" horiz-adv-x="1140" 
d="M168 86v1282q0 86 84 86h700q86 0 86 -86v-57q0 -84 -86 -84h-522v-381h406q86 0 86 -84v-57q0 -86 -86 -87h-406v-391h555q86 0 86 -84v-57q0 -86 -86 -86h-733q-84 0 -84 86zM420 1591q-86 0 -86 86v68q0 84 86 84h29q86 0 86 -84v-68q0 -86 -86 -86h-29zM795 1591
q-84 0 -84 86v68q0 84 84 84h30q84 0 84 -84v-68q0 -86 -84 -86h-30z" />
    <glyph glyph-name="Igrave" unicode="&#xcc;" horiz-adv-x="598" 
d="M268 1550q-61 0 -104 52l-92 124q-35 41 -23 72t66 31h75q66 0 101 -60l71 -124q23 -35 13 -65t-53 -30h-54zM168 86v1282q0 86 84 86h94q84 0 84 -86v-1282q0 -86 -84 -86h-94q-84 0 -84 86z" />
    <glyph glyph-name="Iacute" unicode="&#xcd;" horiz-adv-x="598" 
d="M291 1550q-45 0 -60 28q-14 28 9 69l71 122q35 59 101 60h73q55 0 67 -31t-22 -72l-92 -124q-43 -51 -104 -52h-43zM168 86v1282q0 86 84 86h94q84 0 84 -86v-1282q0 -86 -84 -86h-94q-84 0 -84 86z" />
    <glyph glyph-name="Icircumflex" unicode="&#xce;" horiz-adv-x="598" 
d="M88 1550q-45 0 -55 30t18 75l82 119q37 55 105 55h127q68 0 104 -55l82 -119q29 -45 19 -75t-56 -30h-53q-35 0 -52 14t-38 46l-68 106h-4l-70 -106q-33 -59 -88 -60h-53zM168 86v1282q0 86 84 86h94q84 0 84 -86v-1282q0 -86 -84 -86h-94q-84 0 -84 86z" />
    <glyph glyph-name="Idieresis" unicode="&#xcf;" horiz-adv-x="598" 
d="M100 1591q-86 0 -86 86v68q0 84 86 84h29q86 0 86 -84v-68q0 -86 -86 -86h-29zM475 1591q-84 0 -84 86v68q0 84 84 84h31q84 0 84 -84v-68q0 -86 -84 -86h-31zM168 86v1282q0 86 84 86h94q84 0 84 -86v-1282q0 -86 -84 -86h-94q-84 0 -84 86z" />
    <glyph glyph-name="Eth" unicode="&#xd0;" horiz-adv-x="1492" 
d="M432 227h219q225 0 355 130q129 130 129 370t-130 370t-354 130h-219v-396h186q84 0 84 -86v-43q0 -86 -79 -86h-191v-389zM170 86v530h-33q-86 0 -86 86v43q0 86 51 86h68v537q0 86 86 86h410q340 0 540 -192t201 -533q0 -341 -201 -535t-540 -194h-410q-86 0 -86 86z
" />
    <glyph glyph-name="Ntilde" unicode="&#xd1;" horiz-adv-x="1521" 
d="M471 1552q-74 0 -74 81q1 81 59 141t136 59q78 0 130 -34q52 -35 90 -67t73 -32q66 0 71 80q4 47 74 47h21q76 0 75 -70q0 -94 -57 -152q-57 -59 -137 -59t-131 34t-89 67t-73 32q-70 0 -78 -82q-6 -45 -69 -45h-21zM168 86v1282q0 86 84 86h110q72 0 103 -57l516 -783
q44 -68 102 -188l19 -37h4q-14 139 -14 225v754q0 86 86 86h92q86 0 86 -86v-1282q0 -86 -86 -86h-111q-70 0 -100 57l-518 781q-48 75 -103 188l-18 37h-4q14 -139 14 -225v-752q0 -86 -84 -86h-94q-84 0 -84 86z" />
    <glyph glyph-name="Ograve" unicode="&#xd2;" horiz-adv-x="1667" 
d="M799 1550q-61 0 -105 52l-92 124q-34 41 -22 72t65 31h76q66 0 100 -60l72 -124q23 -35 13 -65t-54 -30h-53zM354 732q0 -218 136 -366t344 -148t343 148q136 148 136 366t-136 362t-343 143q-207 0 -344 -143q-136 -144 -136 -362zM834 1479q328 0 540 -213t211 -533
q0 -321 -212 -539q-211 -218 -539 -218t-540 218t-212 538t212 534t540 213z" />
    <glyph glyph-name="Oacute" unicode="&#xd3;" horiz-adv-x="1667" 
d="M354 732q0 -218 136 -366t344 -148t343 148q136 148 136 366t-136 362t-343 143q-207 0 -344 -143q-136 -144 -136 -362zM834 1479q328 0 540 -213t211 -533q0 -321 -212 -539q-211 -218 -539 -218t-540 218t-212 538t212 534t540 213zM823 1550q-45 0 -59 28t8 69
l72 122q35 59 100 60h74q55 0 67 -31t-22 -72l-92 -124q-43 -51 -105 -52h-43z" />
    <glyph glyph-name="Ocircumflex" unicode="&#xd4;" horiz-adv-x="1667" 
d="M354 732q0 -218 136 -366t344 -148t343 148q136 148 136 366t-136 362t-343 143q-207 0 -344 -143q-136 -144 -136 -362zM834 1479q328 0 540 -213t211 -533q0 -321 -212 -539q-211 -218 -539 -218t-540 218t-212 538t212 534t540 213zM621 1550q-45 0 -56 30
q-10 30 19 75l82 119q37 55 104 55h127q68 0 104 -55l82 -119q29 -45 19 -75t-55 -30h-54q-35 0 -52 14t-38 46l-67 106h-5l-69 -106q-33 -59 -88 -60h-53z" />
    <glyph glyph-name="Otilde" unicode="&#xd5;" horiz-adv-x="1667" 
d="M543 1552q-74 0 -74 81t58 141q59 60 137 59q78 0 130 -34q52 -35 90 -67t72 -32q66 0 72 80q4 47 74 47h20q76 0 76 -70q0 -94 -57 -152q-57 -59 -137 -59t-132 34q-51 34 -89 67t-72 32q-70 0 -78 -82q-6 -45 -70 -45h-20zM354 732q0 -218 136 -366t344 -148t343 148
q136 148 136 366t-136 362t-343 143q-207 0 -344 -143q-136 -144 -136 -362zM834 1479q328 0 540 -213t211 -533q0 -321 -212 -539q-211 -218 -539 -218t-540 218t-212 538t212 534t540 213z" />
    <glyph glyph-name="Odieresis" unicode="&#xd6;" horiz-adv-x="1667" 
d="M354 732q0 -218 136 -366t344 -148t343 148q136 148 136 366t-136 362t-343 143q-207 0 -344 -143q-136 -144 -136 -362zM834 1479q328 0 540 -213t211 -533q0 -321 -212 -539q-211 -218 -539 -218t-540 218t-212 538t212 534t540 213zM631 1591q-86 0 -86 86v68
q0 84 86 84h28q86 0 86 -84v-68q0 -86 -86 -86h-28zM1006 1591q-84 0 -84 86v68q0 84 84 84h30q84 0 84 -84v-68q0 -86 -84 -86h-30z" />
    <glyph glyph-name="multiply" unicode="&#xd7;" horiz-adv-x="1267" 
d="M152 84q-57 57 -2 121l346 381l-346 381q-55 63 2 120l20 23q63 61 121 -2l340 -375l340 375q57 63 121 2l22 -23q57 -57 2 -120l-348 -381l348 -381q55 -63 -2 -121l-22 -23q-63 -63 -121 2l-340 373l-340 -373q-57 -66 -121 -2z" />
    <glyph glyph-name="Oslash" unicode="&#xd8;" horiz-adv-x="1665" 
d="M834 217q201 1 340 149t139 366t-142 360l-581 -805q111 -70 244 -70zM834 1237q-201 0 -340 -143q-140 -144 -140 -356t129 -357l574 797q-106 59 -223 59zM82 718q0 330 216 546t536 215q201 0 372 -95l39 58q51 66 111 26q55 -43 22 -86l-53 -77q123 -105 192 -251
t68 -319q0 -323 -216 -541t-535 -219q-215 0 -392 107l-45 -68q-51 -68 -111 -26t-18 94l60 84q-246 222 -246 552z" />
    <glyph glyph-name="Ugrave" unicode="&#xd9;" horiz-adv-x="1472" 
d="M700 1550q-61 0 -104 52l-92 124q-35 41 -23 72t66 31h76q66 0 100 -60l72 -124q23 -35 13 -65t-54 -30h-54zM152 522v846q0 86 84 86h92q86 0 86 -86v-844q0 -145 87 -226t234 -81t236 81q88 81 88 226v844q0 86 84 86h94q84 0 84 -86v-846q0 -244 -161 -396t-424 -151
q-264 1 -424 151t-160 396z" />
    <glyph glyph-name="Uacute" unicode="&#xda;" horiz-adv-x="1472" 
d="M152 522v846q0 86 84 86h92q86 0 86 -86v-844q0 -145 87 -226t234 -81t236 81q88 81 88 226v844q0 86 84 86h94q84 0 84 -86v-846q0 -244 -161 -396t-424 -151q-264 1 -424 151t-160 396zM725 1550q-45 0 -59 28t8 69l71 122q35 59 101 60h74q55 0 67 -31t-22 -72
l-93 -124q-43 -51 -104 -52h-43z" />
    <glyph glyph-name="Ucircumflex" unicode="&#xdb;" horiz-adv-x="1472" 
d="M152 522v846q0 86 84 86h92q86 0 86 -86v-844q0 -145 87 -226t234 -81t236 81q88 81 88 226v844q0 86 84 86h94q84 0 84 -86v-846q0 -244 -161 -396t-424 -151q-264 1 -424 151t-160 396zM522 1550q-45 0 -55 30t18 75l82 119q37 55 105 55h127q68 0 104 -55l82 -119
q29 -45 19 -75t-56 -30h-53q-35 0 -52 14t-38 46l-68 106h-4l-69 -106q-33 -59 -89 -60h-53z" />
    <glyph glyph-name="Udieresis" unicode="&#xdc;" horiz-adv-x="1472" 
d="M152 522v846q0 86 84 86h92q86 0 86 -86v-844q0 -145 87 -226t234 -81t236 81q88 81 88 226v844q0 86 84 86h94q84 0 84 -86v-846q0 -244 -161 -396t-424 -151q-264 1 -424 151t-160 396zM535 1591q-86 0 -86 86v68q0 84 86 84h28q86 0 86 -84v-68q0 -86 -86 -86h-28z
M909 1591q-84 0 -84 86v68q0 84 84 84h31q84 0 84 -84v-68q0 -86 -84 -86h-31z" />
    <glyph glyph-name="Yacute" unicode="&#xdd;" horiz-adv-x="1187" 
d="M584 1550q-45 0 -60 28q-14 28 8 69l72 122q35 59 101 60h73q56 0 68 -31t-23 -72l-92 -124q-43 -51 -104 -52h-43zM463 86v522l-426 744q-27 42 -9 72t66 30h115q68 0 98 -63l197 -365l88 -195h4q43 104 88 195l197 365q31 63 98 63h115q51 0 67 -30t-8 -72l-428 -744
v-522q0 -86 -84 -86h-92q-86 0 -86 86z" />
    <glyph glyph-name="Thorn" unicode="&#xde;" horiz-adv-x="1241" 
d="M430 496h248q116 0 180 68t64 182t-64 180t-176 65h-252v-495zM168 86v1282q0 86 84 86h94q84 0 84 -84v-151h297q205 1 334 -131t129 -343t-129 -344t-336 -133h-295v-182q0 -86 -84 -86h-94q-84 0 -84 86z" />
    <glyph glyph-name="germandbls" unicode="&#xdf;" horiz-adv-x="1222" 
d="M129 86v997q0 183 141 289q140 106 326 106t308 -100q122 -102 122 -256q0 -80 -46 -144t-91 -117q-45 -52 -45 -95t51 -88t113 -86t114 -115q51 -74 52 -162q0 -157 -106 -243t-263 -86q-104 0 -207 30q-70 14 -70 95v51q0 92 78 71q80 -27 152 -27q154 1 153 124
q0 78 -165 180q-62 38 -113 104t-51 130q0 112 91 203t91 159t-45 110t-128 42t-142 -49q-59 -48 -60 -144v-979q0 -86 -86 -86h-88q-86 0 -86 86z" />
    <glyph glyph-name="agrave" unicode="&#xe0;" horiz-adv-x="1075" 
d="M506 1176q-61 0 -105 51l-92 125q-35 42 -23 72t66 30h76q66 0 100 -59l72 -125q22 -35 12 -65t-53 -29h-53zM307 311q0 -55 42 -96t116 -41q104 0 172 86t68 189v38h-43q-355 0 -355 -176zM395 -25q-145 -1 -245 87t-101 212q1 124 61 198q98 121 353 159q94 14 196 14
h43v25q0 184 -194 184q-106 0 -217 -59q-80 -35 -115 34l-20 39q-39 76 32 115q168 86 356 86t304 -110q115 -110 115 -306v-567q0 -86 -86 -86h-70q-84 0 -84 86v41l4 45h-4q-12 -25 -45 -64q-64 -76 -161 -111q-58 -22 -122 -22z" />
    <glyph glyph-name="aacute" unicode="&#xe1;" horiz-adv-x="1075" 
d="M524 1176q-45 0 -59 28t8 68l72 123q35 59 100 59h74q55 0 67 -31t-22 -71l-92 -125q-43 -51 -105 -51h-43zM307 311q0 -55 42 -96t116 -41q104 0 172 86t68 189v38h-43q-355 0 -355 -176zM395 -25q-145 -1 -245 87t-101 212q1 124 61 198q98 121 353 159q94 14 196 14
h43v25q0 184 -194 184q-106 0 -217 -59q-80 -35 -115 34l-20 39q-39 76 32 115q168 86 356 86t304 -110q115 -110 115 -306v-567q0 -86 -86 -86h-70q-84 0 -84 86v41l4 45h-4q-12 -25 -45 -64q-64 -76 -161 -111q-58 -22 -122 -22z" />
    <glyph glyph-name="acircumflex" unicode="&#xe2;" horiz-adv-x="1075" 
d="M324 1176q-45 0 -56 29q-10 30 19 75l82 119q37 55 104 55h127q68 0 105 -55l81 -119q29 -45 19 -75t-55 -29h-54q-35 0 -52 13t-38 46l-67 106h-4l-70 -106q-33 -59 -88 -59h-53zM307 311q0 -55 42 -96t116 -41q104 0 172 86t68 189v38h-43q-355 0 -355 -176zM395 -25
q-145 -1 -245 87t-101 212q1 124 61 198q98 121 353 159q94 14 196 14h43v25q0 184 -194 184q-106 0 -217 -59q-80 -35 -115 34l-20 39q-39 76 32 115q168 86 356 86t304 -110q115 -110 115 -306v-567q0 -86 -86 -86h-70q-84 0 -84 86v41l4 45h-4q-12 -25 -45 -64
q-64 -76 -161 -111q-58 -22 -122 -22z" />
    <glyph glyph-name="atilde" unicode="&#xe3;" horiz-adv-x="1075" 
d="M246 1178q-74 0 -74 80t58 140t149 60q51 0 96 -20t70 -46q63 -65 114 -67q66 0 72 80q4 47 74 47h20q76 0 76 -70q0 -94 -57 -152q-58 -58 -138 -58t-131 32q-51 33 -89 67t-72 34q-70 0 -78 -82q-6 -45 -70 -45h-20zM307 311q0 -55 42 -96t116 -41q104 0 172 86t68 189
v38h-43q-355 0 -355 -176zM395 -25q-145 -1 -245 87t-101 212q1 124 61 198q98 121 353 159q94 14 196 14h43v25q0 184 -194 184q-106 0 -217 -59q-80 -35 -115 34l-20 39q-39 76 32 115q168 86 356 86t304 -110q115 -110 115 -306v-567q0 -86 -86 -86h-70q-84 0 -84 86v41
l4 45h-4q-12 -25 -45 -64q-64 -76 -161 -111q-58 -22 -122 -22z" />
    <glyph glyph-name="adieresis" unicode="&#xe4;" horiz-adv-x="1075" 
d="M334 1217q-86 0 -86 86v67q0 84 86 84h28q86 0 87 -84v-67q0 -86 -87 -86h-28zM709 1217q-84 0 -84 86v67q0 84 84 84h30q84 0 84 -84v-67q0 -86 -84 -86h-30zM307 311q0 -55 42 -96t116 -41q104 0 172 86t68 189v38h-43q-355 0 -355 -176zM395 -25q-145 -1 -245 87
t-101 212q1 124 61 198q98 121 353 159q94 14 196 14h43v25q0 184 -194 184q-106 0 -217 -59q-80 -35 -115 34l-20 39q-39 76 32 115q168 86 356 86t304 -110q115 -110 115 -306v-567q0 -86 -86 -86h-70q-84 0 -84 86v41l4 45h-4q-12 -25 -45 -64q-64 -76 -161 -111
q-58 -22 -122 -22z" />
    <glyph glyph-name="aring" unicode="&#xe5;" horiz-adv-x="1075" 
d="M537 1382q-31 0 -51 -19t-19 -51t19 -52t50 -19q32 -1 51 19t19 52t-19 51t-50 19zM536 1151q-79 0 -137 43q-57 43 -57 118t57 118t137 43t136 -43q57 -43 57 -118t-57 -118t-136 -43zM307 311q0 -55 42 -96t116 -41q104 0 172 86t68 189v38h-43q-355 0 -355 -176z
M395 -25q-145 -1 -245 87t-101 212q1 124 61 198q98 121 353 159q94 14 196 14h43v25q0 184 -194 184q-106 0 -217 -59q-80 -35 -115 34l-20 39q-39 76 32 115q168 86 356 86t304 -110q115 -110 115 -306v-567q0 -86 -86 -86h-70q-84 0 -84 86v41l4 45h-4q-12 -25 -45 -64
q-64 -76 -161 -111q-58 -22 -122 -22z" />
    <glyph glyph-name="ae" unicode="&#xe6;" horiz-adv-x="1734" 
d="M637 485q-322 0 -322 -175q0 -54 41 -93t130 -39t156 86t67 191v30h-72zM1204 866q-92 0 -156 -58t-85 -163h450q-2 101 -60 161q-57 60 -149 60zM53 301q0 344 619 344h33v25q0 184 -201 184q-100 0 -211 -59q-80 -35 -117 34l-18 37q-41 78 30 115q156 88 334 88
q244 0 340 -154h4q125 154 344 154t342 -138t123 -358q-1 -33 -27 -61t-63 -27h-631q12 -139 98 -214t206 -75q121 0 229 68q80 39 117 -31l20 -38q41 -74 -27 -115q-164 -104 -354 -105q-299 0 -438 230h-4q-23 -58 -87 -115q-126 -113 -291 -113t-267 87t-103 237z" />
    <glyph glyph-name="ccedilla" unicode="&#xe7;" horiz-adv-x="1091" 
d="M649 -90q150 -18 150 -168q1 -82 -63 -125t-170 -43t-105 70q0 33 12 52t31 19l51 -6q76 0 76 60q0 49 -92 59q-47 4 -31 63l24 93q-214 32 -340 182t-126 368t156 376q157 159 411 159q193 0 342 -104q63 -43 16 -117l-26 -41q-39 -59 -115 -23q-96 64 -220 64t-212 -93
t-88 -231t90 -232q90 -95 223 -95t246 79q78 43 117 -26l20 -39q39 -72 -22 -115q-143 -109 -340 -119z" />
    <glyph glyph-name="egrave" unicode="&#xe8;" horiz-adv-x="1118" 
d="M561 1176q-61 0 -104 51l-92 125q-35 42 -23 72t66 30h75q66 0 101 -59l71 -125q23 -35 13 -65t-54 -29h-53zM586 872q-94 0 -162 -62t-86 -169h463q-1 107 -61 169t-154 62zM66 528q0 236 147 388t373 153q226 0 350 -138q123 -138 123 -360q0 -35 -27 -61t-63 -27h-637
q12 -135 100 -211t209 -76t229 68q78 37 115 -28l25 -41q39 -74 -29 -115q-164 -104 -354 -105q-252 0 -407 159q-154 158 -154 394z" />
    <glyph glyph-name="eacute" unicode="&#xe9;" horiz-adv-x="1118" 
d="M586 872q-94 0 -162 -62t-86 -169h463q-1 107 -61 169t-154 62zM66 528q0 236 147 388t373 153q226 0 350 -138q123 -138 123 -360q0 -35 -27 -61t-63 -27h-637q12 -135 100 -211t209 -76t229 68q78 37 115 -28l25 -41q39 -74 -29 -115q-164 -104 -354 -105
q-252 0 -407 159q-154 158 -154 394zM580 1176q-45 0 -60 28q-14 29 8 68l72 123q35 59 100 59h74q56 0 68 -31t-23 -71l-92 -125q-43 -51 -104 -51h-43z" />
    <glyph glyph-name="ecircumflex" unicode="&#xea;" horiz-adv-x="1118" 
d="M586 872q-94 0 -162 -62t-86 -169h463q-1 107 -61 169t-154 62zM66 528q0 236 147 388t373 153q226 0 350 -138q123 -138 123 -360q0 -35 -27 -61t-63 -27h-637q12 -135 100 -211t209 -76t229 68q78 37 115 -28l25 -41q39 -74 -29 -115q-164 -104 -354 -105
q-252 0 -407 159q-154 158 -154 394zM377 1176q-45 0 -55 30t18 74l82 119q37 55 104 55h127q68 0 105 -55l82 -119q28 -45 18 -75t-55 -29h-53q-35 0 -53 13q-17 13 -38 46l-67 106h-4l-70 -106q-33 -59 -88 -59h-53z" />
    <glyph glyph-name="edieresis" unicode="&#xeb;" horiz-adv-x="1118" 
d="M586 872q-94 0 -162 -62t-86 -169h463q-1 107 -61 169t-154 62zM66 528q0 236 147 388t373 153q226 0 350 -138q123 -138 123 -360q0 -35 -27 -61t-63 -27h-637q12 -135 100 -211t209 -76t229 68q78 37 115 -28l25 -41q39 -74 -29 -115q-164 -104 -354 -105
q-252 0 -407 159q-154 158 -154 394zM389 1217q-86 0 -86 86v67q0 84 86 84h29q86 0 86 -84v-67q0 -86 -86 -86h-29zM764 1217q-84 0 -84 86v67q0 84 84 84h31q84 0 84 -84v-67q0 -86 -84 -86h-31z" />
    <glyph glyph-name="igrave" unicode="&#xec;" horiz-adv-x="516" 
d="M225 1176q-61 0 -104 51l-92 125q-35 42 -23 72t66 30h75q66 0 101 -59l71 -125q23 -35 13 -65t-53 -29h-54zM129 86v872q0 86 84 86h90q84 0 84 -86v-872q0 -86 -84 -86h-90q-84 0 -84 86z" />
    <glyph glyph-name="iacute" unicode="&#xed;" horiz-adv-x="516" 
d="M129 86v872q0 86 84 86h90q84 0 84 -86v-872q0 -86 -84 -86h-90q-84 0 -84 86zM250 1176q-45 0 -60 28q-14 29 9 68l71 123q35 59 101 59h73q56 0 68 -31t-23 -71l-92 -125q-43 -51 -104 -51h-43z" />
    <glyph glyph-name="icircumflex" unicode="&#xee;" horiz-adv-x="516" 
d="M129 86v872q0 86 84 86h90q84 0 84 -86v-872q0 -86 -84 -86h-90q-84 0 -84 86zM47 1176q-45 0 -55 30t18 74l82 119q37 55 105 55h127q68 0 104 -55l82 -119q28 -45 18 -75t-55 -29h-53q-35 0 -52 13t-38 46l-68 106h-4l-70 -106q-33 -59 -88 -59h-53z" />
    <glyph glyph-name="idieresis" unicode="&#xef;" horiz-adv-x="516" 
d="M129 86v872q0 86 84 86h90q84 0 84 -86v-872q0 -86 -84 -86h-90q-84 0 -84 86zM57 1217q-86 0 -86 86v67q0 84 86 84h29q86 0 86 -84v-67q0 -86 -86 -86h-29zM432 1217q-84 0 -84 86v67q0 84 84 84h31q84 0 84 -84v-67q0 -86 -84 -86h-31z" />
    <glyph glyph-name="eth" unicode="&#xf0;" horiz-adv-x="1185" 
d="M838 506q0 116 -66 180t-184 64t-188 -80t-70 -194t63 -198t187 -83q124 0 191 98q67 97 67 213zM68 478q0 200 130 337t351 137q63 0 119 -17t77 -36l23 -18h4q-57 135 -203 229l-282 -123q-43 -18 -63 -13q-19 5 -34 38l-10 24q-25 55 49 86l177 78q-66 35 -152 57
q-82 29 -55 109l14 45q29 80 106 57q209 -55 365 -151l207 90q43 14 61 9t31 -32l14 -30q25 -49 -47 -80l-131 -60q281 -246 281 -645q0 -292 -177 -466q-132 -128 -359 -128q-226 -1 -361 151t-135 352z" />
    <glyph glyph-name="ntilde" unicode="&#xf1;" horiz-adv-x="1226" 
d="M342 1178q-74 0 -74 80t58 140t149 60q51 0 96 -20t70 -46q63 -65 115 -67q66 0 71 80q4 47 74 47h21q76 0 75 -70q0 -94 -57 -152t-137 -58t-131 32q-51 33 -89 67t-73 34q-70 0 -78 -82q-6 -45 -70 -45h-20zM129 86v872q0 86 84 86h80q84 0 84 -86v-63l-4 -47h4
q43 86 136 154t235 67q365 0 364 -397v-586q0 -86 -86 -86h-88q-86 0 -86 86v532q0 104 -36 158t-128 55q-135 0 -218 -98t-83 -244v-403q0 -86 -84 -86h-90q-84 0 -84 86z" />
    <glyph glyph-name="ograve" unicode="&#xf2;" horiz-adv-x="1273" 
d="M602 1176q-61 0 -104 51l-92 125q-35 42 -23 72t66 30h75q66 0 101 -59l71 -125q23 -35 13 -65t-54 -29h-53zM637 848q-129 0 -219 -92t-90 -235q0 -142 89 -233t220 -91t221 91t90 233q0 143 -91 235t-220 92zM63 522q0 238 166 392t408 155q242 0 409 -156
q166 -157 166 -393t-166 -390t-409 -155q-242 1 -408 155t-166 392z" />
    <glyph glyph-name="oacute" unicode="&#xf3;" horiz-adv-x="1273" 
d="M637 848q-129 0 -219 -92t-90 -235q0 -142 89 -233t220 -91t221 91t90 233q0 143 -91 235t-220 92zM63 522q0 238 166 392t408 155q242 0 409 -156q166 -157 166 -393t-166 -390t-409 -155q-242 1 -408 155t-166 392zM627 1176q-45 0 -60 28q-14 29 8 68l72 123
q35 59 101 59h73q55 0 67 -31t-22 -71l-92 -125q-43 -51 -104 -51h-43z" />
    <glyph glyph-name="ocircumflex" unicode="&#xf4;" horiz-adv-x="1273" 
d="M637 848q-129 0 -219 -92t-90 -235q0 -142 89 -233t220 -91t221 91t90 233q0 143 -91 235t-220 92zM63 522q0 238 166 392t408 155q242 0 409 -156q166 -157 166 -393t-166 -390t-409 -155q-242 1 -408 155t-166 392zM424 1176q-45 0 -55 30t18 74l82 119q37 55 104 55
h127q68 0 105 -55l82 -119q29 -45 19 -75t-56 -29h-53q-35 0 -53 13q-17 13 -37 46l-68 106h-4l-70 -106q-33 -59 -88 -59h-53z" />
    <glyph glyph-name="otilde" unicode="&#xf5;" horiz-adv-x="1273" 
d="M346 1178q-74 0 -74 80t58 140t149 60q51 0 96 -20t70 -46q63 -65 115 -67q66 0 71 80q4 47 74 47h21q76 0 75 -70q0 -94 -57 -152t-137 -58t-131 32q-51 33 -89 67t-73 34q-70 0 -78 -82q-6 -45 -69 -45h-21zM637 848q-129 0 -219 -92t-90 -235q0 -142 89 -233t220 -91
t221 91t90 233q0 143 -91 235t-220 92zM63 522q0 238 166 392t408 155q242 0 409 -156q166 -157 166 -393t-166 -390t-409 -155q-242 1 -408 155t-166 392z" />
    <glyph glyph-name="odieresis" unicode="&#xf6;" horiz-adv-x="1273" 
d="M637 848q-129 0 -219 -92t-90 -235q0 -142 89 -233t220 -91t221 91t90 233q0 143 -91 235t-220 92zM63 522q0 238 166 392t408 155q242 0 409 -156q166 -157 166 -393t-166 -390t-409 -155q-242 1 -408 155t-166 392zM434 1217q-86 0 -86 86v67q0 84 86 84h29
q86 0 86 -84v-67q0 -86 -86 -86h-29zM809 1217q-84 0 -84 86v67q0 84 84 84h31q84 0 84 -84v-67q0 -86 -84 -86h-31z" />
    <glyph glyph-name="divide" unicode="&#xf7;" horiz-adv-x="1267" 
d="M516 139v51q0 86 86 86h64q86 0 86 -86v-51q0 -84 -86 -84h-64q-86 0 -86 84zM186 483q-86 0 -86 86v31q0 86 86 86h897q84 0 84 -86v-31q0 -86 -84 -86h-897zM602 895q-86 0 -86 84v51q0 86 86 86h64q86 0 86 -86v-51q0 -84 -86 -84h-64z" />
    <glyph glyph-name="oslash" unicode="&#xf8;" horiz-adv-x="1275" 
d="M950 510q0 131 -71 215l-361 -504q55 -25 121 -24q131 0 221 91t90 222zM639 848q-129 0 -219 -92t-90 -230t78 -221l366 510q-66 33 -135 33zM639 1069q145 0 272 -63l33 47q49 68 107 30q57 -41 22 -86l-47 -65q188 -162 188 -405t-166 -397t-409 -155q-143 0 -258 56
l-35 -49q-48 -68 -106 -28t-23 85l45 63q-196 154 -196 406t166 406t407 155z" />
    <glyph glyph-name="ugrave" unicode="&#xf9;" horiz-adv-x="1216" 
d="M571 1176q-61 0 -104 51l-92 125q-35 42 -23 72t66 30h76q66 0 100 -59l72 -125q22 -35 12 -65t-53 -29h-54zM115 373v585q0 86 86 86h88q86 0 86 -86v-532q0 -104 36 -158t126 -55q135 0 214 102t78 250v393q0 86 86 86h89q86 0 86 -86v-872q0 -86 -86 -86h-80
q-84 0 -84 86v61l4 48h-4q-42 -88 -140 -154t-223 -66q-362 1 -362 398z" />
    <glyph glyph-name="uacute" unicode="&#xfa;" horiz-adv-x="1216" 
d="M115 373v585q0 86 86 86h88q86 0 86 -86v-532q0 -104 36 -158t126 -55q135 0 214 102t78 250v393q0 86 86 86h89q86 0 86 -86v-872q0 -86 -86 -86h-80q-84 0 -84 86v61l4 48h-4q-42 -88 -140 -154t-223 -66q-362 1 -362 398zM592 1176q-45 0 -60 28q-14 29 9 68l71 123
q35 59 101 59h73q56 0 68 -31t-23 -71l-92 -125q-43 -51 -104 -51h-43z" />
    <glyph glyph-name="ucircumflex" unicode="&#xfb;" horiz-adv-x="1216" 
d="M115 373v585q0 86 86 86h88q86 0 86 -86v-532q0 -104 36 -158t126 -55q135 0 214 102t78 250v393q0 86 86 86h89q86 0 86 -86v-872q0 -86 -86 -86h-80q-84 0 -84 86v61l4 48h-4q-42 -88 -140 -154t-223 -66q-362 1 -362 398zM389 1176q-45 0 -55 30t18 74l82 119
q37 55 105 55h127q68 0 104 -55l82 -119q28 -45 18 -75t-55 -29h-53q-35 0 -52 13t-38 46l-68 106h-4l-70 -106q-33 -59 -88 -59h-53z" />
    <glyph glyph-name="udieresis" unicode="&#xfc;" horiz-adv-x="1216" 
d="M115 373v585q0 86 86 86h88q86 0 86 -86v-532q0 -104 36 -158t126 -55q135 0 214 102t78 250v393q0 86 86 86h89q86 0 86 -86v-872q0 -86 -86 -86h-80q-84 0 -84 86v61l4 48h-4q-42 -88 -140 -154t-223 -66q-362 1 -362 398zM399 1217q-86 0 -86 86v67q0 84 86 84h29
q86 0 86 -84v-67q0 -86 -86 -86h-29zM774 1217q-84 0 -84 86v67q0 84 84 84h31q84 0 84 -84v-67q0 -86 -84 -86h-31z" />
    <glyph glyph-name="yacute" unicode="&#xfd;" horiz-adv-x="1052" 
d="M520 1174q-45 0 -59 28t8 68l72 123q35 59 100 59h74q55 0 67 -31t-22 -71l-92 -125q-43 -51 -105 -51h-43zM225 -215q43 0 87 40t69 99l39 92l-397 928q-20 45 -3 73q18 28 68 27h111q72 0 96 -69l197 -533l38 -141h5q18 82 34 137l185 535q20 72 96 71h102q47 0 67 -26
q19 -27 3 -72l-430 -1102q-50 -138 -152 -206t-225 -68q-66 0 -145 31q-37 14 -47 45t8 65l18 45q29 61 92 47q41 -18 84 -18z" />
    <glyph glyph-name="thorn" unicode="&#xfe;" horiz-adv-x="1234" 
d="M648 848q-116 0 -190 -80t-75 -240q0 -160 72 -246q73 -86 189 -87q116 0 189 92t72 235q0 143 -70 235q-71 91 -187 91zM131 -324v1692q0 86 86 86h88q86 0 86 -86v-360l-4 -86h4q37 40 60 62t95 54t152 31q211 0 340 -155q129 -154 129 -392t-132 -392t-341 -155
q-155 0 -260 92q-23 21 -43 50h-4q4 -37 4 -90v-351q0 -86 -86 -86h-88q-86 0 -86 86z" />
    <glyph glyph-name="ydieresis" unicode="&#xff;" horiz-adv-x="1052" 
d="M330 1214q-86 0 -86 86v68q0 84 86 84h28q86 0 86 -84v-68q0 -86 -86 -86h-28zM705 1214q-84 0 -84 86v68q0 84 84 84h30q84 0 84 -84v-68q0 -86 -84 -86h-30zM225 -215q43 0 87 40t69 99l39 92l-397 928q-20 45 -3 73q18 28 68 27h111q72 0 96 -69l197 -533l38 -141h5
q18 82 34 137l185 535q20 72 96 71h102q47 0 67 -26q19 -27 3 -72l-430 -1102q-50 -138 -152 -206t-225 -68q-66 0 -145 31q-37 14 -47 45t8 65l18 45q29 61 92 47q41 -18 84 -18z" />
    <glyph glyph-name="Amacron" unicode="&#x100;" horiz-adv-x="1298" 
d="M465 1604q-84 0 -84 82v14q0 82 84 82h366q86 0 87 -82v-14q0 -82 -87 -82h-366zM459 588h379l-129 389l-58 225h-4q-33 -143 -57 -225zM584 1454h131q76 0 96 -70l455 -1286q16 -46 -3 -72t-67 -26h-94q-76 0 -96 70l-103 303h-510l-100 -301q-20 -72 -96 -72h-95
q-47 0 -66 26t-3 72l454 1286q25 70 97 70z" />
    <glyph glyph-name="amacron" unicode="&#x101;" horiz-adv-x="1075" 
d="M352 1229q-84 0 -84 82v14q0 82 84 82h367q86 0 86 -82v-14q0 -82 -86 -82h-367zM307 311q0 -55 42 -96t116 -41q104 0 172 86t68 189v38h-43q-355 0 -355 -176zM395 -25q-145 -1 -245 87t-101 212q1 124 61 198q98 121 353 159q94 14 196 14h43v25q0 184 -194 184
q-106 0 -217 -59q-80 -35 -115 34l-20 39q-39 76 32 115q168 86 356 86t304 -110q115 -110 115 -306v-567q0 -86 -86 -86h-70q-84 0 -84 86v41l4 45h-4q-12 -25 -45 -64q-64 -76 -161 -111q-58 -22 -122 -22z" />
    <glyph glyph-name="Abreve" unicode="&#x102;" horiz-adv-x="1298" 
d="M650 1542q-116 0 -209 67t-93 169q0 51 72 51h39q61 0 73 -57q18 -88 116 -88t116 88q18 57 74 57h39q74 0 73 -51q0 -102 -92 -169t-208 -67zM459 588h379l-129 389l-58 225h-4q-33 -143 -57 -225zM584 1454h131q76 0 96 -70l455 -1286q16 -46 -3 -72t-67 -26h-94
q-76 0 -96 70l-103 303h-510l-100 -301q-20 -72 -96 -72h-95q-47 0 -66 26t-3 72l454 1286q25 70 97 70z" />
    <glyph glyph-name="abreve" unicode="&#x103;" horiz-adv-x="1075" 
d="M838 1403q0 -102 -92 -169t-208 -67t-209 67t-93 169q0 51 71 51h39q61 0 74 -57q18 -88 116 -88t115 88q18 57 74 57h39q74 0 74 -51zM307 311q0 -55 42 -96t116 -41q104 0 172 86t68 189v38h-43q-355 0 -355 -176zM395 -25q-145 -1 -245 87t-101 212q1 124 61 198
q98 121 353 159q94 14 196 14h43v25q0 184 -194 184q-106 0 -217 -59q-80 -35 -115 34l-20 39q-39 76 32 115q168 86 356 86t304 -110q115 -110 115 -306v-567q0 -86 -86 -86h-70q-84 0 -84 86v41l4 45h-4q-12 -25 -45 -64q-64 -76 -161 -111q-58 -22 -122 -22z" />
    <glyph glyph-name="Aogonek" unicode="&#x104;" horiz-adv-x="1298" 
d="M459 588h379l-129 389l-58 225h-4q-33 -143 -57 -225zM584 1454h131q72 0 96 -70l455 -1286q31 -86 -11 -125q-4 -4 -22 -19q-17 -16 -25 -22q-56 -49 -57 -94q0 -45 70 -74q41 -16 30 -79l-6 -43q-3 -31 -25 -46t-53 -12q-85 12 -153 60t-68 135q0 111 135 229
q-61 4 -80 72l-98 293h-510l-100 -301q-20 -72 -96 -72h-95q-47 0 -66 26t-3 72l454 1286q25 70 97 70z" />
    <glyph glyph-name="aogonek" unicode="&#x105;" horiz-adv-x="1079" 
d="M307 311q0 -55 42 -96t116 -41q104 0 172 86t68 189v38h-43q-355 0 -355 -176zM395 -25q-145 -1 -245 87t-101 212q1 124 61 198q98 121 353 159q94 14 196 14h43v25q0 184 -194 184q-106 0 -217 -59q-80 -35 -115 34l-20 39q-39 76 32 115q168 86 356 86t304 -110
q115 -110 115 -306v-567q0 -49 -70 -121t-70 -122t70 -79q41 -16 31 -79l-6 -43q-10 -66 -86 -56t-145 58t-69 135q0 123 132 239q-27 18 -27 68v41l4 45h-4q-12 -25 -45 -64q-64 -76 -161 -111q-58 -22 -122 -22z" />
    <glyph glyph-name="Cacute" unicode="&#x106;" horiz-adv-x="1441" 
d="M82 728q0 324 211 538t538 213q270 0 476 -146q61 -47 16 -119l-37 -59q-41 -68 -117 -20q-158 102 -327 102q-228 0 -358 -144q-130 -143 -130 -357t132 -366t358 -153q182 0 356 127q72 53 119 -14l41 -56q49 -66 -12 -118q-225 -180 -514 -181q-338 0 -545 215
q-207 214 -207 538zM803 1550q-45 0 -60 28q-14 28 9 69l71 122q35 59 101 60h73q55 0 67 -31t-22 -72l-92 -124q-43 -51 -104 -52h-43z" />
    <glyph glyph-name="cacute" unicode="&#x107;" horiz-adv-x="1085" 
d="M63 520q0 231 157 390t411 159q193 0 342 -104q63 -43 16 -117l-26 -41q-39 -59 -115 -23q-94 64 -219 64t-213 -93t-88 -231t90 -232q90 -95 223 -95t246 79q78 43 117 -26l20 -39q39 -72 -23 -115q-164 -121 -370 -121q-254 0 -411 157t-157 388zM580 1176
q-45 0 -60 28q-14 29 8 68l72 123q35 59 100 59h74q56 0 68 -31t-23 -71l-92 -125q-43 -51 -104 -51h-43z" />
    <glyph glyph-name="Ccircumflex" unicode="&#x108;" horiz-adv-x="1441" 
d="M82 728q0 324 211 538t538 213q270 0 476 -146q61 -47 16 -119l-37 -59q-41 -68 -117 -20q-158 102 -327 102q-228 0 -358 -144q-130 -143 -130 -357t132 -366t358 -153q182 0 356 127q72 53 119 -14l41 -56q49 -66 -12 -118q-225 -180 -514 -181q-338 0 -545 215
q-207 214 -207 538zM600 1550q-45 0 -55 30t18 75l82 119q37 55 105 55h127q68 0 104 -55l82 -119q29 -45 19 -75t-56 -30h-53q-35 0 -52 14t-38 46l-68 106h-4l-70 -106q-33 -59 -88 -60h-53z" />
    <glyph glyph-name="ccircumflex" unicode="&#x109;" horiz-adv-x="1085" 
d="M63 520q0 231 157 390t411 159q193 0 342 -104q63 -43 16 -117l-26 -41q-39 -59 -115 -23q-94 64 -219 64t-213 -93t-88 -231t90 -232q90 -95 223 -95t246 79q78 43 117 -26l20 -39q39 -72 -23 -115q-164 -121 -370 -121q-254 0 -411 157t-157 388zM377 1176
q-45 0 -55 30t18 74l82 119q37 55 104 55h127q68 0 105 -55l82 -119q28 -45 18 -75t-55 -29h-53q-35 0 -53 13q-17 13 -38 46l-67 106h-4l-70 -106q-33 -59 -88 -59h-53z" />
    <glyph glyph-name="Cdotaccent" unicode="&#x10a;" horiz-adv-x="1441" 
d="M786 1602q-84 0 -84 86v57q0 84 84 84h54q84 0 84 -84v-57q0 -86 -84 -86h-54zM82 728q0 324 211 538t538 213q270 0 476 -146q61 -47 16 -119l-37 -59q-41 -68 -117 -20q-158 102 -327 102q-228 0 -358 -144q-130 -143 -130 -357t132 -366t358 -153q182 0 356 127
q72 53 119 -14l41 -56q49 -66 -12 -118q-225 -180 -514 -181q-338 0 -545 215q-207 214 -207 538z" />
    <glyph glyph-name="cdotaccent" unicode="&#x10b;" horiz-adv-x="1085" 
d="M565 1227q-84 0 -84 86v57q0 84 84 84h53q84 0 84 -84v-57q0 -86 -84 -86h-53zM63 520q0 231 157 390t411 159q193 0 342 -104q63 -43 16 -117l-26 -41q-39 -59 -115 -23q-94 64 -219 64t-213 -93t-88 -231t90 -232q90 -95 223 -95t246 79q78 43 117 -26l20 -39
q39 -72 -23 -115q-164 -121 -370 -121q-254 0 -411 157t-157 388z" />
    <glyph glyph-name="Ccaron" unicode="&#x10c;" horiz-adv-x="1441" 
d="M82 728q0 324 211 538t538 213q270 0 476 -146q61 -47 16 -119l-37 -59q-41 -68 -117 -20q-158 102 -327 102q-228 0 -358 -144q-130 -143 -130 -357t132 -366t358 -153q182 0 356 127q72 53 119 -14l41 -56q49 -66 -12 -118q-225 -180 -514 -181q-338 0 -545 215
q-207 214 -207 538zM750 1550q-68 0 -105 56l-82 120q-29 43 -19 73t56 30h53q57 0 88 -57l70 -109h4l68 109q19 33 37 45t53 12h53q45 0 55 -30t-18 -73l-82 -120q-37 -55 -104 -56h-127z" />
    <glyph glyph-name="ccaron" unicode="&#x10d;" horiz-adv-x="1085" 
d="M63 520q0 231 157 390t411 159q193 0 342 -104q63 -43 16 -117l-26 -41q-39 -59 -115 -23q-94 64 -219 64t-213 -93t-88 -231t90 -232q90 -95 223 -95t246 79q78 43 117 -26l20 -39q39 -72 -23 -115q-164 -121 -370 -121q-254 0 -411 157t-157 388zM526 1176
q-68 0 -104 55l-82 121q-28 42 -18 72t55 30h53q57 0 88 -57l70 -109h4l67 109q19 33 37 45t54 12h53q45 0 55 -30t-18 -72l-82 -121q-37 -55 -105 -55h-127z" />
    <glyph glyph-name="Dcaron" unicode="&#x10e;" horiz-adv-x="1490" 
d="M430 227h219q225 0 355 130q129 130 129 370q-1 240 -131 370t-353 130h-219v-1000zM168 86v1282q0 86 84 86h412q340 0 540 -192t201 -533q0 -341 -201 -535t-540 -194h-412q-84 0 -84 86zM627 1550q-68 0 -105 56l-82 120q-28 43 -18 73t55 30h53q57 0 88 -57l70 -109
h4l68 109q20 33 38 45t52 12h53q45 0 55 -30t-18 -73l-82 -120q-37 -55 -104 -56h-127z" />
    <glyph glyph-name="dcaron" unicode="&#x10f;" horiz-adv-x="1234" 
d="M330 524q0 -148 72 -239q72 -90 185 -90t189 83t76 230q0 146 -68 242t-186 96t-192 -87q-76 -87 -76 -235zM68 523q0 245 132 396t341 150q163 0 263 -96q13 -13 42 -53h4q-4 27 -4 59v389q0 86 84 86h90q84 0 84 -86v-1282q0 -86 -84 -86h-76q-84 0 -84 78v41l4 37h-4
q-12 -24 -43 -60q-104 -119 -285 -121q-212 -1 -338 151t-126 397zM1298 1452h41q98 0 99 -125q0 -84 -39 -147t-90 -64h-23q-76 0 -76 47q0 15 12 55t11 80l-10 101q0 53 75 53z" />
    <glyph glyph-name="Dcroat" unicode="&#x110;" horiz-adv-x="1492" 
d="M432 227h219q225 0 355 130q129 130 129 370t-130 370t-354 130h-219v-396h186q84 0 84 -86v-43q0 -86 -79 -86h-191v-389zM170 86v530h-33q-86 0 -86 86v43q0 86 51 86h68v537q0 86 86 86h410q340 0 540 -192t201 -533q0 -341 -201 -535t-540 -194h-410q-86 0 -86 86z
" />
    <glyph glyph-name="dcroat" unicode="&#x111;" horiz-adv-x="1234" 
d="M330 524q0 -148 72 -239q72 -90 185 -90t189 83t76 230q0 146 -68 242t-186 96t-192 -87q-76 -87 -76 -235zM68 523q0 245 132 396t341 150q159 0 262 -94q24 -20 41 -51h4q-2 25 -2 59v162h-178q-86 0 -86 72v12q0 72 86 71h178v68q0 86 84 86h90q84 0 84 -86v-68h63
q84 0 84 -71v-12q0 -72 -55 -72h-92v-1059q0 -86 -84 -86h-76q-84 0 -84 78v39l2 37h-4q-12 -25 -43 -59q-106 -118 -283 -120q-212 -1 -338 151t-126 397z" />
    <glyph glyph-name="Emacron" unicode="&#x112;" horiz-adv-x="1140" 
d="M438 1604q-84 0 -84 82v14q0 82 84 82h367q86 0 86 -82v-14q0 -82 -86 -82h-367zM168 86v1282q0 86 84 86h700q86 0 86 -86v-57q0 -84 -86 -84h-522v-381h406q86 0 86 -84v-57q0 -86 -86 -87h-406v-391h555q86 0 86 -84v-57q0 -86 -86 -86h-733q-84 0 -84 86z" />
    <glyph glyph-name="emacron" unicode="&#x113;" horiz-adv-x="1118" 
d="M408 1229q-84 0 -84 82v14q0 82 84 82h366q86 0 86 -82v-14q0 -82 -86 -82h-366zM586 872q-94 0 -162 -62t-86 -169h463q-1 107 -61 169t-154 62zM66 528q0 236 147 388t373 153q226 0 350 -138q123 -138 123 -360q0 -35 -27 -61t-63 -27h-637q12 -135 100 -211t209 -76
t229 68q78 37 115 -28l25 -41q39 -74 -29 -115q-164 -104 -354 -105q-252 0 -407 159q-154 158 -154 394z" />
    <glyph glyph-name="Ebreve" unicode="&#x114;" horiz-adv-x="1140" 
d="M924 1778q0 -102 -92 -169t-208 -67t-209 67t-93 169q0 51 71 51h39q61 0 74 -57q18 -88 116 -88t115 88q18 57 74 57h39q74 0 74 -51zM168 86v1282q0 86 84 86h700q86 0 86 -86v-57q0 -84 -86 -84h-522v-381h406q86 0 86 -84v-57q0 -86 -86 -87h-406v-391h555
q86 0 86 -84v-57q0 -86 -86 -86h-733q-84 0 -84 86z" />
    <glyph glyph-name="ebreve" unicode="&#x115;" horiz-adv-x="1118" 
d="M593 1167q-116 0 -209 67t-93 169q0 51 71 51h39q61 0 74 -57q17 -88 115 -88t117 88q18 57 73 57h39q74 0 74 -51q0 -102 -92 -169t-208 -67zM586 872q-94 0 -162 -62t-86 -169h463q-1 107 -61 169t-154 62zM66 528q0 236 147 388t373 153q226 0 350 -138
q123 -138 123 -360q0 -35 -27 -61t-63 -27h-637q12 -135 100 -211t209 -76t229 68q78 37 115 -28l25 -41q39 -74 -29 -115q-164 -104 -354 -105q-252 0 -407 159q-154 158 -154 394z" />
    <glyph glyph-name="Edotaccent" unicode="&#x116;" horiz-adv-x="1140" 
d="M596 1602q-84 0 -84 86v57q0 84 84 84h53q84 0 84 -84v-57q0 -86 -84 -86h-53zM168 86v1282q0 86 84 86h700q86 0 86 -86v-57q0 -84 -86 -84h-522v-381h406q86 0 86 -84v-57q0 -86 -86 -87h-406v-391h555q86 0 86 -84v-57q0 -86 -86 -86h-733q-84 0 -84 86z" />
    <glyph glyph-name="edotaccent" unicode="&#x117;" horiz-adv-x="1118" 
d="M565 1227q-84 0 -84 86v57q0 84 84 84h53q84 0 84 -84v-57q0 -86 -84 -86h-53zM586 872q-94 0 -162 -62t-86 -169h463q-1 107 -61 169t-154 62zM66 528q0 236 147 388t373 153q226 0 350 -138q123 -138 123 -360q0 -35 -27 -61t-63 -27h-637q12 -135 100 -211t209 -76
t229 68q78 37 115 -28l25 -41q39 -74 -29 -115q-164 -104 -354 -105q-252 0 -407 159q-154 158 -154 394z" />
    <glyph glyph-name="Eogonek" unicode="&#x118;" horiz-adv-x="1140" 
d="M168 86v1282q0 86 84 86h700q86 0 86 -86v-57q0 -84 -86 -84h-522v-381h406q86 0 86 -84v-57q0 -86 -86 -87h-406v-391h555q86 0 86 -84v-59q0 -45 -73 -117q-145 -143 -3 -203q43 -16 33 -79l-6 -43q-10 -66 -86 -56t-146 58t-69 146q0 98 117 210h-586q-84 0 -84 86z
" />
    <glyph glyph-name="eogonek" unicode="&#x119;" horiz-adv-x="1122" 
d="M585 868q-93 0 -161 -62t-86 -165h459q-3 103 -61 165t-151 62zM66 528q0 236 147 388t373 153q226 0 350 -141q123 -141 123 -363q-2 -33 -27 -57t-63 -25h-637q12 -135 100 -211t209 -76t229 68q80 39 117 -31l21 -38q33 -63 -23 -119q-10 -10 -55 -48
q-146 -123 -146 -192q0 -43 70 -72q43 -18 33 -79l-6 -43q-8 -61 -80 -58q-78 8 -151 58t-72 129q0 109 116 213q-49 -8 -67 -9q-252 0 -407 159q-154 158 -154 394z" />
    <glyph glyph-name="Ecaron" unicode="&#x11a;" horiz-adv-x="1140" 
d="M168 86v1282q0 86 84 86h700q86 0 86 -86v-57q0 -84 -86 -84h-522v-381h406q86 0 86 -84v-57q0 -86 -86 -87h-406v-391h555q86 0 86 -84v-57q0 -86 -86 -86h-733q-84 0 -84 86zM557 1550q-68 0 -104 56l-82 120q-29 43 -19 73t56 30h53q57 0 88 -57l69 -109h5l67 109
q20 33 38 45t52 12h54q45 0 55 -30t-19 -73l-82 -120q-37 -55 -104 -56h-127z" />
    <glyph glyph-name="ecaron" unicode="&#x11b;" horiz-adv-x="1118" 
d="M586 872q-94 0 -162 -62t-86 -169h463q-1 107 -61 169t-154 62zM66 528q0 236 147 388t373 153q226 0 350 -138q123 -138 123 -360q0 -35 -27 -61t-63 -27h-637q12 -135 100 -211t209 -76t229 68q78 37 115 -28l25 -41q39 -74 -29 -115q-164 -104 -354 -105
q-252 0 -407 159q-154 158 -154 394zM526 1176q-68 0 -104 55l-82 121q-28 42 -18 72t55 30h53q57 0 88 -57l70 -109h4l67 109q19 33 37 45t54 12h53q45 0 55 -30t-18 -72l-82 -121q-37 -55 -105 -55h-127z" />
    <glyph glyph-name="Gcircumflex" unicode="&#x11c;" horiz-adv-x="1544" 
d="M82 721q0 326 213 542t539 216q158 0 282 -43t193 -90q63 -49 18 -119l-37 -58q-43 -66 -119 -22q-156 90 -323 90q-230 0 -362 -144q-132 -145 -132 -365t140 -366t346 -145q139 0 229 52q89 52 125 91l14 17v162h-139q-86 0 -86 86v55q0 86 86 86h291q84 0 84 -86v-594
q0 -86 -84 -86h-51q-84 0 -84 70v34l2 35h-4q-161 -161 -426 -164q-297 0 -506 210t-209 536zM598 1550q-45 0 -55 30t18 75l82 119q37 55 105 55h126q68 0 105 -55l82 -119q29 -45 19 -75t-56 -30h-53q-35 0 -52 14t-38 46l-68 106h-4l-70 -106q-33 -59 -88 -60h-53z" />
    <glyph glyph-name="gcircumflex" unicode="&#x11d;" horiz-adv-x="1218" 
d="M584 240q114 0 183 72t69 233q0 303 -254 303q-119 0 -185 -78q-65 -78 -65 -216t70 -226q68 -88 182 -88zM547 -209q119 -1 201 61t81 193v78l5 53h-5q-91 -156 -299 -156t-334 152t-126 378t123 372t348 147q138 0 210 -52t91 -91l8 -17h4q-2 10 -2 27v39q0 31 21 50
q22 19 63 19h70q84 0 84 -86v-895q0 -249 -161 -371t-359 -122t-326 55q-78 33 -45 111l16 47q33 72 109 47q104 -39 223 -39zM379 1176q-45 0 -55 30t18 74l82 119q37 55 104 55h127q68 0 105 -55l82 -119q28 -45 18 -75t-55 -29h-53q-35 0 -53 13q-17 13 -37 46l-68 106
h-4l-70 -106q-33 -59 -88 -59h-53z" />
    <glyph glyph-name="Gbreve" unicode="&#x11e;" horiz-adv-x="1544" 
d="M812 1542q-116 0 -209 67t-93 169q0 51 72 51h39q61 0 73 -57q18 -88 116 -88t116 88q18 57 73 57h39q74 0 74 -51q0 -102 -92 -169t-208 -67zM82 721q0 326 213 542t539 216q158 0 282 -43t193 -90q63 -49 18 -119l-37 -58q-43 -66 -119 -22q-156 90 -323 90
q-230 0 -362 -144q-132 -145 -132 -365t140 -366t346 -145q139 0 229 52q89 52 125 91l14 17v162h-139q-86 0 -86 86v55q0 86 86 86h291q84 0 84 -86v-594q0 -86 -84 -86h-51q-84 0 -84 70v34l2 35h-4q-161 -161 -426 -164q-297 0 -506 210t-209 536z" />
    <glyph glyph-name="gbreve" unicode="&#x11f;" horiz-adv-x="1218" 
d="M595 1167q-116 0 -209 67t-93 169q0 51 72 51h38q61 0 74 -57q17 -88 115 -88t117 88q18 57 73 57h39q74 0 74 -51q0 -102 -92 -169t-208 -67zM584 240q114 0 183 72t69 233q0 303 -254 303q-119 0 -185 -78q-65 -78 -65 -216t70 -226q68 -88 182 -88zM547 -209
q119 -1 201 61t81 193v78l5 53h-5q-91 -156 -299 -156t-334 152t-126 378t123 372t348 147q138 0 210 -52t91 -91l8 -17h4q-2 10 -2 27v39q0 31 21 50q22 19 63 19h70q84 0 84 -86v-895q0 -249 -161 -371t-359 -122t-326 55q-78 33 -45 111l16 47q33 72 109 47
q104 -39 223 -39z" />
    <glyph glyph-name="Gdotaccent" unicode="&#x120;" horiz-adv-x="1544" 
d="M784 1602q-84 0 -84 86v57q0 84 84 84h54q84 0 84 -84v-57q0 -86 -84 -86h-54zM82 721q0 326 213 542t539 216q158 0 282 -43t193 -90q63 -49 18 -119l-37 -58q-43 -66 -119 -22q-156 90 -323 90q-230 0 -362 -144q-132 -145 -132 -365t140 -366t346 -145q139 0 229 52
q89 52 125 91l14 17v162h-139q-86 0 -86 86v55q0 86 86 86h291q84 0 84 -86v-594q0 -86 -84 -86h-51q-84 0 -84 70v34l2 35h-4q-161 -161 -426 -164q-297 0 -506 210t-209 536z" />
    <glyph glyph-name="gdotaccent" unicode="&#x121;" horiz-adv-x="1218" 
d="M567 1227q-84 0 -84 86v57q0 84 84 84h54q84 0 84 -84v-57q0 -86 -84 -86h-54zM584 240q114 0 183 72t69 233q0 303 -254 303q-119 0 -185 -78q-65 -78 -65 -216t70 -226q68 -88 182 -88zM547 -209q119 -1 201 61t81 193v78l5 53h-5q-91 -156 -299 -156t-334 152
t-126 378t123 372t348 147q138 0 210 -52t91 -91l8 -17h4q-2 10 -2 27v39q0 31 21 50q22 19 63 19h70q84 0 84 -86v-895q0 -249 -161 -371t-359 -122t-326 55q-78 33 -45 111l16 47q33 72 109 47q104 -39 223 -39z" />
    <glyph glyph-name="Gcommaaccent" unicode="&#x122;" horiz-adv-x="1544" 
d="M82 721q0 326 213 542t539 216q158 0 282 -43t193 -90q63 -49 18 -119l-37 -58q-43 -66 -119 -22q-156 90 -323 90q-230 0 -362 -144q-132 -145 -132 -365t140 -366t346 -145q139 0 229 52q89 52 125 91l14 17v162h-139q-86 0 -86 86v55q0 86 86 86h291q84 0 84 -86v-594
q0 -86 -84 -86h-51q-84 0 -84 70v34l2 35h-4q-161 -161 -426 -164q-297 0 -506 210t-209 536zM770 -113h41q98 0 98 -125q0 -84 -39 -147t-90 -64h-22q-76 0 -76 48q0 14 11 54t12 81l-11 100q0 53 76 53z" />
    <glyph glyph-name="gcommaaccent" unicode="&#x123;" horiz-adv-x="1218" 
d="M584 240q114 0 183 72t69 233q0 303 -254 303q-119 0 -185 -78q-65 -78 -65 -216t70 -226q68 -88 182 -88zM547 -209q119 -1 201 61t81 193v78l5 53h-5q-91 -156 -299 -156t-334 152t-126 378t123 372t348 147q138 0 210 -52t91 -91l8 -17h4q-2 10 -2 27v39q0 31 21 50
q22 19 63 19h70q84 0 84 -86v-895q0 -249 -161 -371t-359 -122t-326 55q-78 33 -45 111l16 47q33 72 109 47q104 -39 223 -39zM621 1161h-41q-98 0 -99 125q0 84 39 148t90 63h23q76 0 76 -47q1 -14 -11 -54t-12 -81l10 -101q0 -53 -75 -53z" />
    <glyph glyph-name="Hcircumflex" unicode="&#x124;" horiz-adv-x="1525" 
d="M168 86v1282q0 86 84 86h94q84 0 84 -86v-530h666v530q0 86 86 86h92q84 0 84 -86v-1282q0 -86 -84 -86h-92q-86 0 -86 86v524h-666v-524q0 -86 -84 -86h-94q-84 0 -84 86zM549 1550q-45 0 -55 30t18 75l82 119q37 55 104 55h127q68 0 105 -55l82 -119q28 -45 18 -75
t-55 -30h-53q-34 0 -52 14t-39 46l-67 106h-4l-70 -106q-33 -59 -88 -60h-53z" />
    <glyph glyph-name="hcircumflex" unicode="&#x125;" horiz-adv-x="1226" 
d="M129 86v1282q0 86 86 86h88q86 0 86 -86v-422l-6 -88h4q43 84 140 148t223 63q365 0 364 -397v-586q0 -86 -86 -86h-88q-86 0 -86 86v532q0 104 -36 158t-128 55q-135 0 -218 -97t-83 -249v-399q0 -86 -86 -86h-88q-86 0 -86 86zM49 1550q-45 0 -55 30t18 75l82 119
q37 55 105 55h127q68 0 104 -55l82 -119q28 -45 18 -75t-55 -30h-53q-35 0 -52 14t-38 46l-68 106h-4l-70 -106q-33 -59 -88 -60h-53z" />
    <glyph glyph-name="Hbar" unicode="&#x126;" horiz-adv-x="1521" 
d="M440 838h643v217h-643v-217zM172 86v969h-49q-84 0 -84 80v12q0 78 84 78h49v143q0 86 86 86h98q84 0 84 -72v-157h643v143q0 86 84 86h99q86 0 86 -72v-157h47q86 0 86 -78v-12q0 -80 -86 -80h-47v-969q0 -86 -86 -86h-99q-84 0 -84 86v524h-643v-524q0 -86 -84 -86h-98
q-86 0 -86 86z" />
    <glyph glyph-name="hbar" unicode="&#x127;" horiz-adv-x="1226" 
d="M129 86v1059h-49q-86 0 -86 72v12q0 72 86 71h49v68q0 86 86 86h88q86 0 86 -57v-97h189q86 0 86 -71v-12q0 -72 -86 -72h-189v-195l-4 -88h4q43 84 139 146t222 61q365 0 364 -397v-586q0 -86 -86 -86h-88q-86 0 -86 86v532q0 104 -36 158t-128 55q-137 0 -219 -99
t-82 -243v-403q0 -86 -86 -86h-88q-86 0 -86 86z" />
    <glyph glyph-name="Itilde" unicode="&#x128;" horiz-adv-x="598" 
d="M12 1552q-74 0 -74 81t59 141q58 60 136 59q78 0 130 -34q52 -35 90 -67t73 -32q66 0 72 80q4 47 73 47h21q76 0 76 -70q0 -94 -58 -152q-58 -59 -137 -59q-80 0 -131 34t-89 67t-73 32q-70 0 -78 -82q-6 -45 -69 -45h-21zM168 86v1282q0 86 84 86h94q84 0 84 -86v-1282
q0 -86 -84 -86h-94q-84 0 -84 86z" />
    <glyph glyph-name="itilde" unicode="&#x129;" horiz-adv-x="516" 
d="M-31 1178q-73 0 -73 80t58 140t148 60q50 0 96 -20t70 -46q61 -65 115 -67q66 0 72 80q4 47 73 47h21q76 0 76 -70q1 -94 -57 -152t-138 -58t-131 32q-51 33 -89 67t-73 34q-70 0 -78 -82q-6 -45 -69 -45h-21zM129 86v872q0 86 84 86h90q84 0 84 -86v-872q0 -86 -84 -86
h-90q-84 0 -84 86z" />
    <glyph glyph-name="Imacron" unicode="&#x12a;" horiz-adv-x="598" 
d="M119 1604q-84 0 -84 82v14q0 82 84 82h366q86 0 86 -82v-14q0 -82 -86 -82h-366zM168 86v1282q0 86 84 86h94q84 0 84 -86v-1282q0 -86 -84 -86h-94q-84 0 -84 86z" />
    <glyph glyph-name="imacron" unicode="&#x12b;" horiz-adv-x="516" 
d="M76 1229q-84 0 -84 82v14q0 82 84 82h366q86 0 86 -82v-14q0 -82 -86 -82h-366zM129 86v872q0 86 84 86h90q84 0 84 -86v-872q0 -86 -84 -86h-90q-84 0 -84 86z" />
    <glyph glyph-name="Ibreve" unicode="&#x12c;" horiz-adv-x="598" 
d="M302 1542q-116 0 -209 67t-93 169q0 51 72 51h39q61 0 73 -57q18 -88 116 -88t116 88q18 57 73 57h39q74 0 74 -51q0 -102 -92 -169t-208 -67zM168 86v1282q0 86 84 86h94q84 0 84 -86v-1282q0 -86 -84 -86h-94q-84 0 -84 86z" />
    <glyph glyph-name="ibreve" unicode="&#x12d;" horiz-adv-x="516" 
d="M261 1167q-116 0 -209 67t-93 169q0 51 72 51h39q61 0 73 -57q17 -88 115 -88t117 88q18 57 74 57h38q74 0 74 -51q0 -102 -92 -169t-208 -67zM129 86v872q0 86 84 86h90q84 0 84 -86v-872q0 -86 -84 -86h-90q-84 0 -84 86z" />
    <glyph glyph-name="Iogonek" unicode="&#x12e;" horiz-adv-x="598" 
d="M168 86v1282q0 86 84 86h94q84 0 84 -86v-1282q0 -43 -71 -117q-140 -146 -1 -205q43 -16 33 -79l-6 -43q-10 -66 -86 -56q-75 10 -145 58t-70 135q0 113 131 229q-47 15 -47 78z" />
    <glyph glyph-name="iogonek" unicode="&#x12f;" horiz-adv-x="516" 
d="M129 86v872q0 86 86 86h88q86 0 86 -86v-872q0 -43 -71 -117q-140 -146 -1 -205q43 -18 33 -79l-6 -43q-10 -66 -87 -56t-145 58t-69 135q0 113 131 229q-45 15 -45 78zM213 1223q-84 0 -84 84v61q0 86 84 86h90q86 0 86 -86v-61q0 -84 -86 -84h-90z" />
    <glyph glyph-name="Idotaccent" unicode="&#x130;" horiz-adv-x="598" 
d="M274 1602q-84 0 -84 86v57q0 84 84 84h54q84 0 84 -84v-57q0 -86 -84 -86h-54zM168 86v1282q0 86 84 86h94q84 0 84 -86v-1282q0 -86 -84 -86h-94q-84 0 -84 86z" />
    <glyph glyph-name="dotlessi" unicode="&#x131;" horiz-adv-x="516" 
d="M129 86v872q0 86 84 86h90q84 0 84 -86v-872q0 -86 -84 -86h-90q-84 0 -84 86z" />
    <glyph glyph-name="IJ" unicode="&#x132;" horiz-adv-x="1284" 
d="M168 86v1282q0 86 84 86h94q84 0 84 -86v-1282q0 -86 -84 -86h-94q-84 0 -84 86zM600 78v76q0 66 76 90q188 41 188 272v852q0 86 86 86h97q86 0 86 -86v-868q0 -136 -44 -240q-74 -174 -259 -238q-73 -26 -144 -26q-86 0 -86 82z" />
    <glyph glyph-name="ij" unicode="&#x133;" horiz-adv-x="1071" 
d="M682 -10v968q0 86 86 86h88q86 0 86 -86v-985q0 -96 -33 -171q-33 -76 -78 -116t-121 -75t-167 -35h-31q-84 0 -84 86v53q0 45 23 61t59 22q127 18 157 97q15 38 15 95zM768 1223q-86 0 -86 84v61q0 86 86 86h90q84 0 84 -86v-61q0 -84 -84 -84h-90zM129 86v872
q0 86 84 86h90q84 0 84 -86v-872q0 -86 -84 -86h-90q-84 0 -84 86zM213 1223q-84 0 -84 84v61q0 86 84 86h90q86 0 86 -86v-61q0 -84 -86 -84h-90z" />
    <glyph glyph-name="Jcircumflex" unicode="&#x134;" horiz-adv-x="1097" 
d="M39 430q0 84 84 84h96q41 0 59 -18t23 -64q6 -96 53 -156q48 -60 134 -59q86 0 139 53t53 164v793h-289q-86 0 -86 84v57q0 86 86 86h467q86 0 86 -86v-938q0 -223 -134 -339t-318 -116t-319 118q-134 118 -134 337zM406 1550q-45 0 -56 30q-10 30 19 75l82 119
q37 55 104 55h127q68 0 104 -55l82 -119q29 -45 19 -75t-56 -30h-53q-35 0 -52 14t-38 46l-67 106h-5l-69 -106q-33 -59 -88 -60h-53z" />
    <glyph glyph-name="jcircumflex" unicode="&#x135;" horiz-adv-x="518" 
d="M129 -10v968q0 86 86 86h88q86 0 86 -86v-985q0 -96 -33 -171q-34 -76 -78 -116t-121 -75t-167 -35h-31q-84 0 -84 86v53q0 74 84 84q170 15 170 191zM45 1174q-45 0 -55 30t18 74l82 121q37 55 103 55h129q66 0 102 -55l84 -121q28 -45 18 -75t-55 -29h-55q-33 0 -50 13
t-38 46l-68 108h-4l-70 -108q-33 -59 -88 -59h-53z" />
    <glyph glyph-name="Kcommaaccent" unicode="&#x136;" horiz-adv-x="1286" 
d="M168 86v1282q0 86 84 86h94q84 0 84 -86v-506h191l307 533q33 59 100 59h100q52 0 68 -30t-8 -72l-352 -590v-4l378 -656q27 -46 10 -74t-69 -28h-113q-68 0 -100 59l-321 576h-191v-549q0 -86 -84 -86h-94q-84 0 -84 86zM635 -113h41q98 0 98 -125q0 -84 -39 -147
t-90 -64h-22q-76 0 -76 48q0 14 11 54t11 81l-10 100q0 53 76 53z" />
    <glyph glyph-name="kcommaaccent" unicode="&#x137;" horiz-adv-x="1093" 
d="M129 86v1282q0 86 86 86h88q86 0 86 -86v-692h129l217 311q35 57 103 57h98q51 0 66 -30t-13 -72l-260 -364v-5l307 -471q27 -46 11 -74t-68 -28h-111q-68 0 -100 59l-244 398h-135v-371q0 -86 -86 -86h-88q-86 0 -86 86zM547 -113h41q98 0 98 -125q0 -84 -39 -147
t-90 -64h-22q-76 0 -76 48q0 14 11 54t11 81l-10 100q0 53 76 53z" />
    <glyph glyph-name="kgreenlandic" unicode="&#x138;" horiz-adv-x="1087" 
d="M129 86v872q0 86 84 86h90q84 0 84 -86v-307h127l229 336q37 57 105 57h98q51 0 68 -30q16 -31 -13 -72l-274 -387v-4l291 -449q28 -46 12 -74t-67 -28h-117q-66 0 -101 59l-223 373h-135v-346q0 -86 -84 -86h-90q-84 0 -84 86z" />
    <glyph glyph-name="Lacute" unicode="&#x139;" horiz-adv-x="1067" 
d="M168 86v1282q0 86 84 86h94q84 0 84 -86v-1141h543q86 0 86 -84v-57q0 -86 -86 -86h-721q-84 0 -84 86zM291 1550q-45 0 -60 28q-14 28 9 69l71 122q35 59 101 60h73q55 0 67 -31t-22 -72l-92 -124q-43 -51 -104 -52h-43z" />
    <glyph glyph-name="lacute" unicode="&#x13a;" horiz-adv-x="571" 
d="M127 326v1042q0 86 84 86h90q84 0 84 -86v-1022q0 -117 82 -125q63 -6 63 -74v-69q0 -88 -86 -88q-224 0 -288 157q-29 73 -29 179zM250 1550q-45 0 -60 28q-14 28 9 69l71 122q35 59 101 60h73q56 0 68 -31t-23 -72l-92 -124q-43 -51 -104 -52h-43z" />
    <glyph glyph-name="Lcommaaccent" unicode="&#x13b;" horiz-adv-x="1067" 
d="M168 86v1282q0 86 84 86h94q84 0 84 -86v-1141h543q86 0 86 -84v-57q0 -86 -86 -86h-721q-84 0 -84 86zM598 -113h41q98 0 98 -125q0 -84 -39 -147t-90 -64h-22q-76 0 -76 48q0 14 11 54t11 81l-10 100q0 53 76 53z" />
    <glyph glyph-name="lcommaaccent" unicode="&#x13c;" horiz-adv-x="571" 
d="M127 326v1042q0 86 84 86h90q84 0 84 -86v-1022q0 -117 82 -125q63 -6 63 -74v-69q0 -88 -86 -88q-224 0 -288 157q-29 73 -29 179zM307 -113h41q98 0 98 -125q0 -84 -38 -147t-91 -64h-22q-76 0 -76 48q0 14 11 54t12 81l-11 100q0 53 76 53z" />
    <glyph glyph-name="Lcaron" unicode="&#x13d;" horiz-adv-x="1069" 
d="M168 86v1282q0 86 84 86h94q84 0 84 -86v-1141h543q86 0 86 -84v-57q0 -86 -86 -86h-721q-84 0 -84 86zM678 1452h41q98 0 98 -125q0 -84 -39 -147t-90 -64h-22q-76 0 -76 47q0 15 11 55t11 80l-10 101q0 53 76 53z" />
    <glyph glyph-name="lcaron" unicode="&#x13e;" horiz-adv-x="571" 
d="M127 326v1042q0 86 84 86h90q84 0 84 -86v-1022q0 -117 82 -125q63 -6 63 -74v-69q0 -88 -86 -88q-224 0 -288 157q-29 73 -29 179zM582 1452h41q98 0 98 -125q0 -84 -39 -147t-90 -64h-23q-76 0 -75 47q0 15 11 55t11 80l-10 101q0 53 76 53z" />
    <glyph glyph-name="Ldot" unicode="&#x13f;" horiz-adv-x="1071" 
d="M733 657q-84 0 -84 84v95q0 84 84 84h84q86 0 86 -84v-95q0 -84 -86 -84h-84zM168 86v1282q0 86 84 86h94q84 0 84 -86v-1141h543q86 0 86 -84v-57q0 -86 -86 -86h-721q-84 0 -84 86z" />
    <glyph glyph-name="ldot" unicode="&#x140;" horiz-adv-x="772" 
d="M598 657q-84 0 -84 84v95q0 84 84 84h84q86 0 86 -84v-95q0 -84 -86 -84h-84zM127 326v1042q0 86 84 86h90q84 0 84 -86v-1022q0 -117 82 -125q63 -6 63 -74v-69q0 -88 -86 -88q-224 0 -288 157q-29 73 -29 179z" />
    <glyph glyph-name="Lslash" unicode="&#x141;" horiz-adv-x="1071" 
d="M170 86v453l-41 -23q-31 -14 -53 5t-23 69v67q0 70 43 95l74 41v575q0 86 86 86h92q84 0 84 -86v-424l117 66q43 28 72 10t28 -70v-67q0 -70 -57 -103l-160 -90v-463h545q84 0 84 -84v-57q0 -86 -84 -86h-721q-86 0 -86 86z" />
    <glyph glyph-name="lslash" unicode="&#x142;" horiz-adv-x="593" 
d="M145 326v247l-53 -28q-34 -18 -56 2t-22 69v68q0 72 43 94l88 49v541q0 86 86 86h88q86 0 87 -86v-391l55 33q45 26 74 10t28 -68v-69q0 -66 -53 -101l-104 -59v-379q0 -115 79 -123q63 -6 64 -74v-69q0 -88 -86 -88q-225 0 -289 157q-29 73 -29 179z" />
    <glyph glyph-name="Nacute" unicode="&#x143;" horiz-adv-x="1521" 
d="M168 86v1282q0 86 84 86h110q72 0 103 -57l516 -783q44 -68 102 -188l19 -37h4q-14 139 -14 225v754q0 86 86 86h92q86 0 86 -86v-1282q0 -86 -86 -86h-111q-70 0 -100 57l-518 781q-48 75 -103 188l-18 37h-4q14 -139 14 -225v-752q0 -86 -84 -86h-94q-84 0 -84 86z
M750 1550q-45 0 -60 28q-14 28 8 69l72 122q35 59 100 60h74q56 0 68 -31t-23 -72l-92 -124q-43 -51 -104 -52h-43z" />
    <glyph glyph-name="nacute" unicode="&#x144;" horiz-adv-x="1226" 
d="M129 86v872q0 86 84 86h80q84 0 84 -86v-63l-4 -47h4q43 86 136 154t235 67q365 0 364 -397v-586q0 -86 -86 -86h-88q-86 0 -86 86v532q0 104 -36 158t-128 55q-135 0 -218 -98t-83 -244v-403q0 -86 -84 -86h-90q-84 0 -84 86zM623 1176q-45 0 -60 28q-14 29 8 68l72 123
q35 59 100 59h74q55 0 67 -31t-22 -71l-92 -125q-43 -51 -104 -51h-43z" />
    <glyph glyph-name="Ncommaaccent" unicode="&#x145;" horiz-adv-x="1521" 
d="M168 86v1282q0 86 84 86h110q72 0 103 -57l516 -783q44 -68 102 -188l19 -37h4q-14 139 -14 225v754q0 86 86 86h92q86 0 86 -86v-1282q0 -86 -86 -86h-111q-70 0 -100 57l-518 781q-48 75 -103 188l-18 37h-4q14 -139 14 -225v-752q0 -86 -84 -86h-94q-84 0 -84 86z
M733 -113h41q98 0 98 -125q0 -84 -38 -147t-91 -64h-22q-76 0 -76 48q0 14 11 54t12 81l-11 100q0 53 76 53z" />
    <glyph glyph-name="ncommaaccent" unicode="&#x146;" horiz-adv-x="1226" 
d="M129 86v872q0 86 84 86h80q84 0 84 -86v-63l-4 -47h4q43 86 136 154t235 67q365 0 364 -397v-586q0 -86 -86 -86h-88q-86 0 -86 86v532q0 104 -36 158t-128 55q-135 0 -218 -98t-83 -244v-403q0 -86 -84 -86h-90q-84 0 -84 86zM588 -113h41q98 0 98 -125q0 -84 -39 -147
t-90 -64h-23q-76 0 -75 48q0 14 11 54t11 81l-10 100q0 53 76 53z" />
    <glyph glyph-name="Ncaron" unicode="&#x147;" horiz-adv-x="1521" 
d="M168 86v1282q0 86 84 86h110q72 0 103 -57l516 -783q44 -68 102 -188l19 -37h4q-14 139 -14 225v754q0 86 86 86h92q86 0 86 -86v-1282q0 -86 -86 -86h-111q-70 0 -100 57l-518 781q-48 75 -103 188l-18 37h-4q14 -139 14 -225v-752q0 -86 -84 -86h-94q-84 0 -84 86z
M696 1550q-68 0 -104 56l-82 120q-28 43 -18 73t55 30h53q57 0 88 -57l70 -109h4l67 109q19 33 37 45t54 12h53q45 0 55 -30t-18 -73l-82 -120q-37 -55 -105 -56h-127z" />
    <glyph glyph-name="ncaron" unicode="&#x148;" horiz-adv-x="1226" 
d="M129 86v872q0 86 84 86h80q84 0 84 -86v-63l-4 -47h4q43 86 136 154t235 67q365 0 364 -397v-586q0 -86 -86 -86h-88q-86 0 -86 86v532q0 104 -36 158t-128 55q-135 0 -218 -98t-83 -244v-403q0 -86 -84 -86h-90q-84 0 -84 86zM569 1176q-68 0 -104 55l-82 121
q-29 42 -19 72t56 30h53q57 0 88 -57l70 -109h4l67 109q20 33 38 45t53 12h53q45 0 55 -30t-18 -72l-82 -121q-37 -55 -105 -55h-127z" />
    <glyph glyph-name="napostrophe" unicode="&#x149;" horiz-adv-x="1226" 
d="M129 86v872q0 86 84 86h80q84 0 84 -86v-63l-4 -47h4q43 86 136 154t235 67q365 0 364 -397v-586q0 -86 -86 -86h-88q-86 0 -86 86v532q0 104 -36 158t-128 55q-135 0 -218 -98t-83 -244v-403q0 -86 -84 -86h-90q-84 0 -84 86zM49 1452h41q98 0 98 -125q0 -84 -38 -147
t-91 -64h-22q-76 0 -76 47q0 15 11 55t12 80l-11 101q0 53 76 53z" />
    <glyph glyph-name="Eng" unicode="&#x14a;" horiz-adv-x="1523" 
d="M168 86v1282q0 86 84 86h110q72 0 103 -57l516 -783q44 -68 102 -188l19 -37h4q-14 139 -14 225v754q0 86 86 86h92q86 0 86 -86v-1382q0 -299 -290 -387q-67 -20 -136 -23q-92 0 -92 86v55q0 76 86 86q176 14 176 199l-559 836q-48 75 -103 188l-18 37h-4
q14 -139 14 -225v-752q0 -86 -84 -86h-94q-84 0 -84 86z" />
    <glyph glyph-name="eng" unicode="&#x14b;" horiz-adv-x="1232" 
d="M129 86v872q0 86 84 86h80q84 0 84 -86v-63l-4 -47h4q43 86 136 154t235 67q365 0 364 -397v-699q0 -96 -33 -171q-33 -76 -78 -116t-121 -75t-167 -35h-31q-84 0 -84 86v53q0 74 84 84q170 14 170 191v628q0 104 -36 158t-128 55q-135 0 -218 -98t-83 -244v-403
q0 -86 -84 -86h-90q-84 0 -84 86z" />
    <glyph glyph-name="Omacron" unicode="&#x14c;" horiz-adv-x="1667" 
d="M354 732q0 -218 136 -366t344 -148t343 148q136 148 136 366t-136 362t-343 143q-207 0 -344 -143q-136 -144 -136 -362zM834 1479q328 0 540 -213t211 -533q0 -321 -212 -539q-211 -218 -539 -218t-540 218t-212 538t212 534t540 213zM649 1604q-84 0 -84 82v14
q0 82 84 82h367q86 0 86 -82v-14q0 -82 -86 -82h-367z" />
    <glyph glyph-name="omacron" unicode="&#x14d;" horiz-adv-x="1273" 
d="M637 848q-129 0 -219 -92t-90 -235q0 -142 89 -233t220 -91t221 91t90 233q0 143 -91 235t-220 92zM63 522q0 238 166 392t408 155q242 0 409 -156q166 -157 166 -393t-166 -390t-409 -155q-242 1 -408 155t-166 392zM453 1229q-84 0 -84 82v14q0 82 84 82h366
q86 0 86 -82v-14q0 -82 -86 -82h-366z" />
    <glyph glyph-name="Obreve" unicode="&#x14e;" horiz-adv-x="1667" 
d="M1135 1778q0 -102 -92 -169t-208 -67t-209 67t-94 169q0 51 72 51h39q61 0 74 -57q17 -88 115 -88t116 88q18 57 74 57h39q74 0 74 -51zM354 732q0 -218 136 -366t344 -148t343 148q136 148 136 366t-136 362t-343 143q-207 0 -344 -143q-136 -144 -136 -362zM834 1479
q328 0 540 -213t211 -533q0 -321 -212 -539q-211 -218 -539 -218t-540 218t-212 538t212 534t540 213z" />
    <glyph glyph-name="obreve" unicode="&#x14f;" horiz-adv-x="1273" 
d="M638 1167q-116 0 -209 67t-93 169q0 51 72 51h38q61 0 74 -57q18 -88 116 -88t116 88q18 57 73 57h39q74 0 74 -51q0 -102 -92 -169t-208 -67zM637 848q-129 0 -219 -92t-90 -235q0 -142 89 -233t220 -91t221 91t90 233q0 143 -91 235t-220 92zM63 522q0 238 166 392
t408 155q242 0 409 -156q166 -157 166 -393t-166 -390t-409 -155q-242 1 -408 155t-166 392z" />
    <glyph glyph-name="Ohungarumlaut" unicode="&#x150;" horiz-adv-x="1667" 
d="M354 732q0 -218 136 -366t344 -148t343 148q136 148 136 366t-136 362t-343 143q-207 0 -344 -143q-136 -144 -136 -362zM834 1479q328 0 540 -213t211 -533q0 -321 -212 -539q-211 -218 -539 -218t-540 218t-212 538t212 534t540 213zM631 1550q-49 0 -65 29
q-15 29 7 72l64 116q29 61 100 62h43q50 0 64 -28t-10 -72l-64 -117q-35 -61 -100 -62h-39zM989 1550q-49 0 -63 29t10 74l68 116q35 59 100 60h63q53 0 65 -31t-20 -72l-92 -124q-43 -51 -104 -52h-27z" />
    <glyph glyph-name="ohungarumlaut" unicode="&#x151;" horiz-adv-x="1273" 
d="M637 848q-129 0 -219 -92t-90 -235q0 -142 89 -233t220 -91t221 91t90 233q0 143 -91 235t-220 92zM63 522q0 238 166 392t408 155q242 0 409 -156q166 -157 166 -393t-166 -390t-409 -155q-242 1 -408 155t-166 392zM434 1176q-49 0 -64 28t7 72l63 117q29 61 101 61h43
q49 0 63 -28t-10 -72l-64 -117q-35 -61 -100 -61h-39zM793 1176q-49 0 -64 28q-14 29 10 74l68 117q35 59 100 59h64q53 0 65 -31t-20 -71l-92 -125q-43 -51 -105 -51h-26z" />
    <glyph glyph-name="OE" unicode="&#x152;" horiz-adv-x="1961" 
d="M842 1245q-211 0 -352 -149q-140 -150 -140 -368t140 -369t352 -150q81 0 145 16v1004q-61 16 -145 16zM78 729q0 313 220 527t544 214q61 0 142 -8t116 -8h672q86 0 86 -86v-57q0 -84 -86 -84h-523v-381h406q86 0 86 -84v-57q0 -86 -86 -87h-406v-391h557q84 0 84 -84
v-57q0 -86 -84 -86h-706q-35 0 -116 -9t-142 -9q-322 0 -543 217t-221 530z" />
    <glyph glyph-name="oe" unicode="&#x153;" horiz-adv-x="2000" 
d="M326 520q0 -145 90 -234t220 -89t220 90t90 235q0 146 -90 236t-220 90t-220 -92t-90 -236zM1468 868q-93 0 -161 -62t-86 -165h456q-2 103 -59 165t-150 62zM63 520q0 242 164 396t402 153q279 0 432 -215h4q135 215 412 215q217 0 340 -138t122 -360q1 -35 -25 -61
t-65 -27h-635q14 -135 102 -211t207 -76q118 0 230 68q76 39 115 -28l22 -41q39 -76 -28 -115q-160 -104 -355 -105q-293 0 -436 222h-4q-156 -221 -438 -222q-240 -1 -403 151t-163 394z" />
    <glyph glyph-name="Racute" unicode="&#x154;" horiz-adv-x="1282" 
d="M430 772h238q106 0 168 62t61 170q0 152 -115 198q-53 25 -157 25h-195v-455zM168 86v1282q0 86 84 86h393q186 0 288 -43q101 -43 167 -146t66 -241t-66 -248q-66 -111 -176 -155v-5q18 -23 47 -75l239 -439q27 -46 10 -74t-69 -28h-111q-68 0 -100 59l-256 484h-254
v-457q0 -86 -84 -86h-94q-84 0 -84 86zM614 1550q-45 0 -59 28t8 69l72 122q35 59 100 60h74q55 0 67 -31t-22 -72l-92 -124q-43 -51 -105 -52h-43z" />
    <glyph glyph-name="racute" unicode="&#x155;" horiz-adv-x="768" 
d="M129 86v872q0 86 84 86h80q86 0 86 -86v-98l-6 -72h4q35 104 118 184t185 81q78 0 78 -86v-80q0 -86 -88 -86q-135 0 -209 -112t-74 -267v-336q0 -86 -84 -86h-90q-84 0 -84 86zM457 1174q-45 0 -60 27q-14 28 9 69l71 123q35 59 101 59h73q55 0 67 -31t-22 -71l-92 -125
q-43 -51 -104 -51h-43z" />
    <glyph glyph-name="Rcommaaccent" unicode="&#x156;" horiz-adv-x="1282" 
d="M430 772h238q106 0 168 62t61 170q0 152 -115 198q-53 25 -157 25h-195v-455zM168 86v1282q0 86 84 86h393q186 0 288 -43q101 -43 167 -146t66 -241t-66 -248q-66 -111 -176 -155v-5q18 -23 47 -75l239 -439q27 -46 10 -74t-69 -28h-111q-68 0 -100 59l-256 484h-254
v-457q0 -86 -84 -86h-94q-84 0 -84 86zM641 -113h41q98 0 98 -125q0 -84 -39 -147t-90 -64h-22q-76 0 -76 48q0 14 11 54t11 81l-10 100q0 53 76 53z" />
    <glyph glyph-name="rcommaaccent" unicode="&#x157;" horiz-adv-x="768" 
d="M129 86v872q0 86 84 86h80q86 0 86 -86v-98l-6 -72h4q35 104 118 184t185 81q78 0 78 -86v-80q0 -86 -88 -86q-135 0 -209 -112t-74 -267v-336q0 -86 -84 -86h-90q-84 0 -84 86zM236 -113h40q98 0 99 -125q0 -84 -39 -147t-90 -64h-23q-76 0 -76 48q0 14 12 54
q11 40 11 81l-10 100q0 53 76 53z" />
    <glyph glyph-name="Rcaron" unicode="&#x158;" horiz-adv-x="1282" 
d="M430 772h238q106 0 168 62t61 170q0 152 -115 198q-53 25 -157 25h-195v-455zM168 86v1282q0 86 84 86h393q186 0 288 -43q101 -43 167 -146t66 -241t-66 -248q-66 -111 -176 -155v-5q18 -23 47 -75l239 -439q27 -46 10 -74t-69 -28h-111q-68 0 -100 59l-256 484h-254
v-457q0 -86 -84 -86h-94q-84 0 -84 86zM561 1550q-68 0 -104 56l-82 120q-29 43 -19 73t56 30h53q57 0 88 -57l70 -109h4l67 109q20 33 38 45t52 12h54q45 0 55 -30t-19 -73l-81 -120q-37 -55 -105 -56h-127z" />
    <glyph glyph-name="rcaron" unicode="&#x159;" horiz-adv-x="768" 
d="M129 86v872q0 86 84 86h80q86 0 86 -86v-98l-6 -72h4q35 104 118 184t185 81q78 0 78 -86v-80q0 -86 -88 -86q-135 0 -209 -112t-74 -267v-336q0 -86 -84 -86h-90q-84 0 -84 86zM406 1174q-68 0 -105 55l-82 121q-29 42 -19 72t56 30h53q57 0 88 -57l70 -109h4l68 109
q19 33 37 45t53 12h53q45 0 55 -30t-18 -72l-82 -121q-37 -55 -105 -55h-126z" />
    <glyph glyph-name="Sacute" unicode="&#x15a;" horiz-adv-x="1124" 
d="M780 386q0 75 -69 130q-70 55 -169 96q-100 41 -200 90q-100 50 -170 140t-70 215q0 188 140 305t350 117q117 0 217 -35t162 -79t22 -114l-37 -67q-37 -72 -116 -29q-136 80 -244 80t-168 -45t-61 -119t69 -127t169 -93t199 -88t171 -138q70 -90 69 -219
q0 -184 -130 -308t-351 -123q-137 1 -255 47t-191 101q-61 53 -13 119l46 65q43 59 118 19q154 -106 295 -107q100 0 159 46q58 46 58 121zM553 1550q-45 0 -59 28t8 69l71 122q35 59 101 60h74q55 0 67 -31t-22 -72l-93 -124q-43 -51 -104 -52h-43z" />
    <glyph glyph-name="sacute" unicode="&#x15b;" horiz-adv-x="915" 
d="M442 184q162 0 162 107q0 78 -182 135q-76 24 -153 58t-130 103t-53 169q0 147 114 230t276 83t300 -76q68 -35 31 -114l-21 -37q-35 -68 -114 -33q-113 51 -199 51q-141 0 -141 -102q0 -47 53 -79q53 -33 129 -57t153 -57t130 -101t53 -167q0 -139 -110 -230t-294 -91
t-342 106q-72 41 -20 117l25 37q43 59 116 20q133 -72 217 -72zM440 1176q-45 0 -59 28t8 68l72 123q35 59 100 59h74q55 0 67 -31t-22 -71l-92 -125q-43 -51 -105 -51h-43z" />
    <glyph glyph-name="Scircumflex" unicode="&#x15c;" horiz-adv-x="1124" 
d="M780 386q0 75 -69 130q-70 55 -169 96q-100 41 -200 90q-100 50 -170 140t-70 215q0 188 140 305t350 117q117 0 217 -35t162 -79t22 -114l-37 -67q-37 -72 -116 -29q-136 80 -244 80t-168 -45t-61 -119t69 -127t169 -93t199 -88t171 -138q70 -90 69 -219
q0 -184 -130 -308t-351 -123q-137 1 -255 47t-191 101q-61 53 -13 119l46 65q43 59 118 19q154 -106 295 -107q100 0 159 46q58 46 58 121zM350 1550q-45 0 -55 30t18 75l82 119q37 55 105 55h127q68 0 104 -55l82 -119q29 -45 19 -75t-56 -30h-53q-35 0 -52 14t-38 46
l-68 106h-4l-69 -106q-33 -59 -89 -60h-53z" />
    <glyph glyph-name="scircumflex" unicode="&#x15d;" horiz-adv-x="915" 
d="M442 184q162 0 162 107q0 78 -182 135q-76 24 -153 58t-130 103t-53 169q0 147 114 230t276 83t300 -76q68 -35 31 -114l-21 -37q-35 -68 -114 -33q-113 51 -199 51q-141 0 -141 -102q0 -47 53 -79q53 -33 129 -57t153 -57t130 -101t53 -167q0 -139 -110 -230t-294 -91
t-342 106q-72 41 -20 117l25 37q43 59 116 20q133 -72 217 -72zM242 1176q-45 0 -56 29q-10 30 19 75l82 119q37 55 104 55h127q68 0 105 -55l82 -119q29 -45 19 -75t-56 -29h-54q-35 0 -52 13t-38 46l-67 106h-4l-70 -106q-33 -59 -88 -59h-53z" />
    <glyph glyph-name="Scedilla" unicode="&#x15e;" horiz-adv-x="1126" 
d="M612 -90q150 -18 150 -168q0 -82 -64 -125t-168 -43q-106 0 -106 70q0 33 12 52t31 19l51 -6q76 0 76 60q0 49 -92 59q-47 4 -31 63l23 89q-219 20 -377 143q-61 53 -13 119l46 65q43 59 118 19q154 -106 295 -107q100 0 159 46q58 46 58 121t-69 130q-70 55 -169 96
q-100 41 -200 90q-100 50 -170 140t-70 215q0 188 140 305t350 117q117 0 217 -35t162 -79t22 -114l-37 -67q-37 -72 -116 -29q-136 80 -244 80t-168 -45t-61 -119t69 -127t169 -93t199 -88t171 -138q70 -90 69 -219q0 -170 -112 -289t-305 -137z" />
    <glyph glyph-name="scedilla" unicode="&#x15f;" horiz-adv-x="919" 
d="M492 -90q149 -18 149 -168q0 -82 -63 -125t-169 -43t-106 70q0 33 12 52t31 19l51 -6q76 0 76 60q0 49 -92 59q-47 4 -31 63l25 91q-150 16 -271 100q-72 41 -20 117l25 37q43 59 116 20q133 -72 217 -72q162 0 162 107q0 78 -182 135q-76 24 -153 58t-130 103t-53 169
q0 147 114 230t276 83t300 -76q68 -35 31 -114l-21 -37q-35 -68 -114 -33q-113 51 -199 51q-141 0 -141 -102q0 -47 53 -79q53 -33 129 -57t153 -57t130 -101t53 -182t-93 -202t-251 -103z" />
    <glyph glyph-name="Scaron" unicode="&#x160;" horiz-adv-x="1124" 
d="M780 386q0 75 -69 130q-70 55 -169 96q-100 41 -200 90q-100 50 -170 140t-70 215q0 188 140 305t350 117q117 0 217 -35t162 -79t22 -114l-37 -67q-37 -72 -116 -29q-136 80 -244 80t-168 -45t-61 -119t69 -127t169 -93t199 -88t171 -138q70 -90 69 -219
q0 -184 -130 -308t-351 -123q-137 1 -255 47t-191 101q-61 53 -13 119l46 65q43 59 118 19q154 -106 295 -107q100 0 159 46q58 46 58 121zM500 1550q-68 0 -105 56l-82 120q-29 43 -19 73t56 30h53q57 0 89 -57l69 -109h4l68 109q19 33 37 45t53 12h53q45 0 55 -30t-18 -73
l-82 -120q-37 -55 -104 -56h-127z" />
    <glyph glyph-name="scaron" unicode="&#x161;" horiz-adv-x="915" 
d="M442 184q162 0 162 107q0 78 -182 135q-76 24 -153 58t-130 103t-53 169q0 147 114 230t276 83t300 -76q68 -35 31 -114l-21 -37q-35 -68 -114 -33q-113 51 -199 51q-141 0 -141 -102q0 -47 53 -79q53 -33 129 -57t153 -57t130 -101t53 -167q0 -139 -110 -230t-294 -91
t-342 106q-72 41 -20 117l25 37q43 59 116 20q133 -72 217 -72zM391 1176q-68 0 -104 55l-82 121q-29 42 -19 72t56 30h53q57 0 88 -57l70 -109h4l67 109q20 33 38 45t52 12h54q45 0 55 -30t-18 -72l-82 -121q-37 -55 -105 -55h-127z" />
    <glyph glyph-name="Tcommaaccent" unicode="&#x162;" horiz-adv-x="1239" 
d="M659 -90q150 -18 150 -168q1 -82 -63 -125t-170 -43t-105 70q0 33 12 52t31 19l51 -6q76 0 76 60q0 49 -92 59q-47 4 -31 63l31 111q-59 12 -60 84v1141h-391q-86 0 -86 84v57q0 86 86 86h1045q84 0 84 -86v-57q0 -84 -84 -84h-391v-1141q0 -80 -74 -86z" />
    <glyph glyph-name="tcommaaccent" unicode="&#x163;" horiz-adv-x="749" 
d="M477 -90q150 -18 150 -168q1 -82 -63 -125t-170 -43t-105 70q0 33 12 52t31 19l51 -6q76 0 76 60q0 49 -92 59q-47 4 -31 63l41 150q-188 98 -189 332v450h-55q-84 0 -84 86v35q0 86 86 86h60v213q0 86 86 86h81q86 0 87 -86v-213h151q86 0 86 -86v-35q0 -86 -84 -86
h-153v-405q0 -176 167 -195q46 -4 66 -22t20 -62v-63q0 -86 -106 -86q-43 0 -100 10z" />
    <glyph glyph-name="Tcaron" unicode="&#x164;" horiz-adv-x="1239" 
d="M489 86v1141h-391q-86 0 -86 84v57q0 86 86 86h1045q84 0 84 -86v-57q0 -84 -84 -84h-391v-1141q0 -86 -86 -86h-93q-84 0 -84 86zM555 1550q-68 0 -104 56l-82 120q-29 43 -19 73t56 30h53q57 0 88 -57l69 -109h5l67 109q20 33 38 45t52 12h53q45 0 55 -30t-18 -73
l-82 -120q-37 -55 -104 -56h-127z" />
    <glyph glyph-name="tcaron" unicode="&#x165;" horiz-adv-x="745" 
d="M186 373v450h-55q-84 0 -84 86v35q0 86 86 86h60v213q0 86 86 86h81q86 0 86 -86v-213h152q86 0 86 -86v-35q0 -86 -84 -86h-154v-405q0 -176 168 -195q46 -4 66 -22t20 -62v-63q0 -86 -106 -86q-162 0 -285 94t-123 289zM639 1448h41q98 0 98 -125q0 -84 -39 -147
t-90 -64h-22q-76 0 -76 47q0 14 11 54t11 81l-10 101q0 53 76 53z" />
    <glyph glyph-name="Tbar" unicode="&#x166;" horiz-adv-x="1243" 
d="M489 86v518h-223q-86 0 -86 86v27q0 84 86 84h223v426h-391q-86 0 -86 84v57q0 86 86 86h1045q86 0 86 -86v-57q0 -84 -86 -84h-391v-426h233q86 0 86 -84v-27q0 -86 -86 -86h-233v-518q0 -86 -84 -86h-95q-84 0 -84 86z" />
    <glyph glyph-name="tbar" unicode="&#x167;" horiz-adv-x="749" 
d="M188 373v125h-55q-84 0 -84 84v24q0 86 84 86h55v146h-55q-84 0 -84 84v22q0 86 84 86h62v213q0 86 84 86h83q84 0 84 -86v-213h154q84 0 84 -86v-22q0 -84 -82 -84h-156v-146h154q84 0 84 -86v-24q0 -84 -82 -84h-156v-92q0 -106 52 -140q52 -33 109 -40q55 -7 75 -25
t20 -62v-63q0 -86 -106 -86q-162 0 -285 94t-123 289z" />
    <glyph glyph-name="Utilde" unicode="&#x168;" horiz-adv-x="1472" 
d="M446 1552q-74 0 -74 81t59 141t137 59q78 0 130 -34q52 -35 89 -67q38 -32 73 -32q66 0 72 80q4 47 74 47h20q76 0 76 -70q0 -94 -58 -152q-58 -59 -137 -59q-80 0 -131 34t-89 67t-73 32q-70 0 -77 -82q-6 -45 -70 -45h-21zM152 522v846q0 86 84 86h92q86 0 86 -86v-844
q0 -145 87 -226t234 -81t236 81q88 81 88 226v844q0 86 84 86h94q84 0 84 -86v-846q0 -244 -161 -396t-424 -151q-264 1 -424 151t-160 396z" />
    <glyph glyph-name="utilde" unicode="&#x169;" horiz-adv-x="1216" 
d="M311 1178q-73 0 -73 80t58 140t148 60q50 0 96 -20t70 -46q61 -65 115 -67q66 0 72 80q4 47 73 47h21q76 0 76 -70q1 -94 -57 -152t-138 -58t-131 32q-51 33 -89 67t-73 34q-70 0 -78 -82q-6 -45 -69 -45h-21zM115 373v585q0 86 86 86h88q86 0 86 -86v-532
q0 -104 36 -158t126 -55q135 0 214 102t78 250v393q0 86 86 86h89q86 0 86 -86v-872q0 -86 -86 -86h-80q-84 0 -84 86v61l4 48h-4q-42 -88 -140 -154t-223 -66q-362 1 -362 398z" />
    <glyph glyph-name="Umacron" unicode="&#x16a;" horiz-adv-x="1472" 
d="M553 1604q-84 0 -84 82v14q0 82 84 82h367q86 0 86 -82v-14q0 -82 -86 -82h-367zM152 522v846q0 86 84 86h92q86 0 86 -86v-844q0 -145 87 -226t234 -81t236 81q88 81 88 226v844q0 86 84 86h94q84 0 84 -86v-846q0 -244 -161 -396t-424 -151q-264 1 -424 151t-160 396z
" />
    <glyph glyph-name="umacron" unicode="&#x16b;" horiz-adv-x="1216" 
d="M418 1229q-84 0 -84 82v14q0 82 84 82h366q86 0 86 -82v-14q0 -82 -86 -82h-366zM115 373v585q0 86 86 86h88q86 0 86 -86v-532q0 -104 36 -158t126 -55q135 0 214 102t78 250v393q0 86 86 86h89q86 0 86 -86v-872q0 -86 -86 -86h-80q-84 0 -84 86v61l4 48h-4
q-42 -88 -140 -154t-223 -66q-362 1 -362 398z" />
    <glyph glyph-name="Ubreve" unicode="&#x16c;" horiz-adv-x="1472" 
d="M736 1542q-116 0 -209 67t-93 169q0 51 72 51h39q61 0 73 -57q18 -88 116 -88t116 88q18 57 74 57h39q74 0 73 -51q0 -102 -92 -169t-208 -67zM152 522v846q0 86 84 86h92q86 0 86 -86v-844q0 -145 87 -226t234 -81t236 81q88 81 88 226v844q0 86 84 86h94q84 0 84 -86
v-846q0 -244 -161 -396t-424 -151q-264 1 -424 151t-160 396z" />
    <glyph glyph-name="ubreve" unicode="&#x16d;" horiz-adv-x="1216" 
d="M603 1167q-116 0 -209 67t-93 169q0 51 72 51h39q61 0 73 -57q17 -88 115 -88t117 88q18 57 74 57h38q74 0 74 -51q0 -102 -92 -169t-208 -67zM115 373v585q0 86 86 86h88q86 0 86 -86v-532q0 -104 36 -158t126 -55q135 0 214 102t78 250v393q0 86 86 86h89q86 0 86 -86
v-872q0 -86 -86 -86h-80q-84 0 -84 86v61l4 48h-4q-42 -88 -140 -154t-223 -66q-362 1 -362 398z" />
    <glyph glyph-name="Uring" unicode="&#x16e;" horiz-adv-x="1472" 
d="M152 522v846q0 86 84 86h92q86 0 86 -86v-844q0 -145 87 -226t234 -81t236 81q88 81 88 226v844q0 86 84 86h94q84 0 84 -86v-846q0 -244 -161 -396t-424 -151q-264 1 -424 151t-160 396zM666 1687q0 -31 18 -51t50 -20t51 19t19 51t-18 52q-20 19 -51 19t-50 -19
t-19 -51zM734 1526q-79 0 -136 43t-57 118t57 117t136 43q79 0 136 -43q58 -44 58 -118t-58 -117t-136 -43z" />
    <glyph glyph-name="uring" unicode="&#x16f;" horiz-adv-x="1216" 
d="M115 373v585q0 86 86 86h88q86 0 86 -86v-532q0 -104 36 -158t126 -55q135 0 214 102t78 250v393q0 86 86 86h89q86 0 86 -86v-872q0 -86 -86 -86h-80q-84 0 -84 86v61l4 48h-4q-42 -88 -140 -154t-223 -66q-362 1 -362 398zM601 1241q32 -1 51 19q20 20 20 52t-20 51
t-50 19q-31 0 -50 -19q-20 -19 -20 -51t18 -52t51 -19zM601 1151q-79 0 -136 43t-57 118t57 118t136 43t136 -43t57 -118t-56 -118q-58 -43 -137 -43z" />
    <glyph glyph-name="Uhungarumlaut" unicode="&#x170;" horiz-adv-x="1472" 
d="M532 1550q-49 0 -64 29t7 72l64 116q29 61 100 62h43q49 0 63 -28t-10 -72l-63 -117q-35 -61 -101 -62h-39zM891 1550q-49 0 -64 29q-14 29 11 74l67 116q35 59 101 60h63q53 0 65 -31t-20 -72l-92 -124q-43 -51 -104 -52h-27zM152 522v846q0 86 84 86h92q86 0 86 -86
v-844q0 -145 87 -226t234 -81t236 81q88 81 88 226v844q0 86 84 86h94q84 0 84 -86v-846q0 -244 -161 -396t-424 -151q-264 1 -424 151t-160 396z" />
    <glyph glyph-name="uhungarumlaut" unicode="&#x171;" horiz-adv-x="1216" 
d="M399 1176q-49 0 -64 28t7 72l64 117q29 61 100 61h43q49 0 63 -28t-10 -72l-63 -117q-35 -61 -101 -61h-39zM758 1176q-49 0 -64 28q-14 29 11 74l67 117q35 59 100 59h64q53 0 65 -31t-20 -71l-92 -125q-43 -51 -105 -51h-26zM115 373v585q0 86 86 86h88q86 0 86 -86
v-532q0 -104 36 -158t126 -55q135 0 214 102t78 250v393q0 86 86 86h89q86 0 86 -86v-872q0 -86 -86 -86h-80q-84 0 -84 86v61l4 48h-4q-42 -88 -140 -154t-223 -66q-362 1 -362 398z" />
    <glyph glyph-name="Uogonek" unicode="&#x172;" horiz-adv-x="1472" 
d="M152 522v846q0 86 84 86h92q86 0 86 -86v-844q0 -145 87 -226t234 -81t236 81q88 81 88 226v844q0 86 84 86h94q84 0 84 -86v-846q0 -170 -67 -272t-187 -191q-217 -145 -217 -223q0 -43 72 -72q41 -16 30 -79l-6 -43q-10 -66 -86 -56t-146 58t-69 141q0 92 107 190
q-266 -5 -433 147t-167 400z" />
    <glyph glyph-name="uogonek" unicode="&#x173;" horiz-adv-x="1216" 
d="M115 373v585q0 86 86 86h88q86 0 86 -86v-532q0 -104 36 -158t126 -55q135 0 214 102t78 250v393q0 86 86 86h89q86 0 86 -86v-872q0 -49 -71 -121t-71 -122t72 -79q41 -16 31 -79l-7 -43q-10 -66 -86 -56t-145 58q-70 48 -70 135q0 119 131 235q-35 20 -34 72v61l4 48
h-4q-42 -88 -140 -154t-223 -66q-362 1 -362 398z" />
    <glyph glyph-name="Wcircumflex" unicode="&#x174;" horiz-adv-x="1966" 
d="M145 1454h103q74 0 92 -76l211 -929l22 -154h5q8 70 30 154l242 931q23 74 96 74h70q78 0 92 -74l240 -931l30 -154h4q6 72 25 154l223 929q14 76 94 76h97q45 0 65 -26t10 -68l-333 -1288q-20 -72 -97 -72h-145q-76 0 -94 74l-207 786l-39 191h-6q-14 -96 -37 -191
l-209 -786q-18 -74 -94 -74h-148q-76 0 -94 74l-321 1286q-10 42 9 68t64 26zM772 1550q-45 0 -55 30t18 75l82 119q37 55 105 55h127q68 0 104 -55l82 -119q29 -45 19 -75t-56 -30h-53q-35 0 -52 14t-38 46l-68 106h-4l-70 -106q-33 -59 -88 -60h-53z" />
    <glyph glyph-name="wcircumflex" unicode="&#x175;" horiz-adv-x="1658" 
d="M215 1044q78 0 92 -75l168 -611l21 -110h4q8 55 22 110l176 611q14 74 95 73h77q76 0 95 -73l174 -611l22 -110h4q8 55 23 110l166 611q18 76 94 75h94q45 0 65 -26q19 -27 7 -70l-268 -876q-20 -72 -97 -72h-137q-78 0 -96 74l-158 522l-24 113h-5q-10 -57 -26 -113
l-158 -522q-18 -74 -94 -74h-141q-75 0 -95 72l-270 876q-12 43 7 70t65 26h98zM616 1176q-45 0 -55 30t19 74l82 119q37 55 104 55h127q68 0 104 -55l82 -119q29 -45 19 -75t-56 -29h-53q-35 0 -52 13t-38 46l-68 106h-4l-69 -106q-33 -59 -88 -59h-54z" />
    <glyph glyph-name="Ycircumflex" unicode="&#x176;" horiz-adv-x="1187" 
d="M381 1550q-45 0 -55 30t18 75l82 119q37 55 104 55h127q68 0 105 -55l82 -119q28 -45 18 -75t-55 -30h-53q-34 0 -52 14t-38 46l-68 106h-4l-70 -106q-33 -59 -88 -60h-53zM463 86v522l-426 744q-27 42 -9 72t66 30h115q68 0 98 -63l197 -365l88 -195h4q43 104 88 195
l197 365q31 63 98 63h115q51 0 67 -30t-8 -72l-428 -744v-522q0 -86 -84 -86h-92q-86 0 -86 86z" />
    <glyph glyph-name="ycircumflex" unicode="&#x177;" horiz-adv-x="1052" 
d="M319 1174q-45 0 -55 30t19 74l82 119q37 55 104 55h127q68 0 104 -55l82 -119q29 -45 19 -75t-56 -29h-53q-35 0 -52 13t-38 46l-67 106h-5l-69 -106q-33 -59 -88 -59h-54zM225 -215q43 0 87 40t69 99l39 92l-397 928q-20 45 -3 73q18 28 68 27h111q72 0 96 -69l197 -533
l38 -141h5q18 82 34 137l185 535q20 72 96 71h102q47 0 67 -26q19 -27 3 -72l-430 -1102q-50 -138 -152 -206t-225 -68q-66 0 -145 31q-37 14 -47 45t8 65l18 45q29 61 92 47q41 -18 84 -18z" />
    <glyph glyph-name="Ydieresis" unicode="&#x178;" horiz-adv-x="1187" 
d="M389 1591q-86 0 -86 86v68q0 84 86 84h29q86 0 86 -84v-68q0 -86 -86 -86h-29zM764 1591q-84 0 -84 86v68q0 84 84 84h31q84 0 84 -84v-68q0 -86 -84 -86h-31zM463 86v522l-426 744q-27 42 -9 72t66 30h115q68 0 98 -63l197 -365l88 -195h4q43 104 88 195l197 365
q31 63 98 63h115q51 0 67 -30t-8 -72l-428 -744v-522q0 -86 -84 -86h-92q-86 0 -86 86z" />
    <glyph glyph-name="Zacute" unicode="&#x179;" horiz-adv-x="1230" 
d="M63 86v25q0 59 35 108l611 877q50 74 92 116l14 15v4q-41 -4 -108 -4h-525q-86 0 -86 84v57q0 86 86 86h881q84 0 84 -84v-24q0 -61 -33 -109l-612 -879q-50 -74 -92 -116l-15 -15v-4q41 4 109 4h567q86 0 86 -84v-57q0 -86 -86 -86h-921q-87 0 -87 86zM627 1550
q-45 0 -60 28q-14 28 8 69l72 122q35 59 101 60h73q55 0 67 -31t-22 -72l-92 -124q-43 -51 -104 -52h-43z" />
    <glyph glyph-name="zacute" unicode="&#x17a;" horiz-adv-x="1044" 
d="M57 70v20q0 51 37 96l432 541l88 96v4q-29 -4 -96 -4h-354q-86 0 -86 86v49q0 86 86 86h717q86 0 86 -69v-21q0 -51 -37 -96l-432 -543q-41 -55 -90 -96v-4q31 6 98 6h389q86 0 86 -86v-49q0 -86 -86 -86h-752q-86 0 -86 70zM502 1176q-45 0 -60 28q-14 29 9 68l71 123
q35 59 101 59h73q56 0 68 -31t-23 -71l-92 -125q-43 -51 -104 -51h-43z" />
    <glyph glyph-name="Zdotaccent" unicode="&#x17b;" horiz-adv-x="1230" 
d="M610 1602q-84 0 -84 86v57q0 84 84 84h54q84 0 84 -84v-57q0 -86 -84 -86h-54zM63 86v25q0 59 35 108l611 877q50 74 92 116l14 15v4q-41 -4 -108 -4h-525q-86 0 -86 84v57q0 86 86 86h881q84 0 84 -84v-24q0 -61 -33 -109l-612 -879q-50 -74 -92 -116l-15 -15v-4
q41 4 109 4h567q86 0 86 -84v-57q0 -86 -86 -86h-921q-87 0 -87 86z" />
    <glyph glyph-name="zdotaccent" unicode="&#x17c;" horiz-adv-x="1044" 
d="M487 1227q-84 0 -84 86v57q0 84 84 84h54q84 0 84 -84v-57q0 -86 -84 -86h-54zM57 70v20q0 51 37 96l432 541l88 96v4q-29 -4 -96 -4h-354q-86 0 -86 86v49q0 86 86 86h717q86 0 86 -69v-21q0 -51 -37 -96l-432 -543q-41 -55 -90 -96v-4q31 6 98 6h389q86 0 86 -86v-49
q0 -86 -86 -86h-752q-86 0 -86 70z" />
    <glyph glyph-name="Zcaron" unicode="&#x17d;" horiz-adv-x="1230" 
d="M63 86v25q0 59 35 108l611 877q50 74 92 116l14 15v4q-41 -4 -108 -4h-525q-86 0 -86 84v57q0 86 86 86h881q84 0 84 -84v-24q0 -61 -33 -109l-612 -879q-50 -74 -92 -116l-15 -15v-4q41 4 109 4h567q86 0 86 -84v-57q0 -86 -86 -86h-921q-87 0 -87 86zM573 1550
q-68 0 -104 56l-82 120q-29 43 -19 73t56 30h53q57 0 88 -57l70 -109h4l68 109q20 33 37 45t53 12h53q45 0 55 -30t-18 -73l-82 -120q-37 -55 -105 -56h-127z" />
    <glyph glyph-name="zcaron" unicode="&#x17e;" horiz-adv-x="1044" 
d="M57 70v20q0 51 37 96l432 541l88 96v4q-29 -4 -96 -4h-354q-86 0 -86 86v49q0 86 86 86h717q86 0 86 -69v-21q0 -51 -37 -96l-432 -543q-41 -55 -90 -96v-4q31 6 98 6h389q86 0 86 -86v-49q0 -86 -86 -86h-752q-86 0 -86 70zM449 1176q-68 0 -105 55l-82 121
q-28 42 -18 72t55 30h53q57 0 88 -57l70 -109h4l68 109q20 33 38 45t52 12h53q45 0 55 -30t-18 -72l-82 -121q-37 -55 -105 -55h-126z" />
    <glyph glyph-name="longs" unicode="&#x17f;" horiz-adv-x="573" 
d="M184 86v737h-51q-84 0 -84 86v35q0 86 84 86h51v49q0 94 32 167t78 112q123 104 290 104h30q84 0 84 -86v-53q0 -78 -88 -84q-62 -4 -99 -25q-65 -37 -67 -145v-983q0 -86 -86 -86h-90q-84 0 -84 86z" />
    <glyph glyph-name="florin" unicode="&#x192;" horiz-adv-x="825" 
d="M238 684q-86 0 -86 86v35q0 86 86 86h84l18 199q10 98 47 172t86 114q124 100 328 103q10 0 96 -6q80 -10 80 -91v-51q0 -90 -64 -84q-61 8 -96 8q-201 0 -219 -190l-16 -174h137q84 0 84 -86v-35q0 -86 -82 -86h-158l-47 -537q-10 -121 -61 -203q-111 -179 -396 -184
q-33 0 -73 4q-80 6 -80 91v51q0 44 20 64t58 16l59 -2q199 0 217 188l43 512h-65z" />
    <glyph glyph-name="Scommaaccent" unicode="&#x218;" horiz-adv-x="1124" 
d="M780 386q0 75 -69 130q-70 55 -169 96q-100 41 -200 90q-100 50 -170 140t-70 215q0 188 140 305t350 117q117 0 217 -35t162 -79t22 -114l-37 -67q-37 -72 -116 -29q-136 80 -244 80t-168 -45t-61 -119t69 -127t169 -93t199 -88t171 -138q70 -90 69 -219
q0 -184 -130 -308t-351 -123q-137 1 -255 47t-191 101q-61 53 -13 119l46 65q43 59 118 19q154 -106 295 -107q100 0 159 46q58 46 58 121zM522 -113h41q98 0 99 -125q0 -84 -39 -147t-91 -64h-22q-76 0 -76 48q0 14 11 54t12 81l-11 100q0 53 76 53z" />
    <glyph glyph-name="scommaaccent" unicode="&#x219;" horiz-adv-x="915" 
d="M442 184q162 0 162 107q0 78 -182 135q-76 24 -153 58t-130 103t-53 169q0 147 114 230t276 83t300 -76q68 -35 31 -114l-21 -37q-35 -68 -114 -33q-113 51 -199 51q-141 0 -141 -102q0 -47 53 -79q53 -33 129 -57t153 -57t130 -101t53 -167q0 -139 -110 -230t-294 -91
t-342 106q-72 41 -20 117l25 37q43 59 116 20q133 -72 217 -72zM418 -113h41q98 0 98 -125q0 -84 -39 -147t-90 -64h-22q-76 0 -76 48q0 14 11 54t11 81l-10 100q0 53 76 53z" />
    <glyph glyph-name="uni021A" unicode="&#x21a;" horiz-adv-x="1241" 
d="M489 86v1141h-391q-86 0 -86 84v57q0 86 86 86h1045q84 0 84 -86v-57q0 -84 -84 -84h-391v-1141q0 -86 -86 -86h-93q-84 0 -84 86zM592 -113h41q98 0 98 -125q0 -84 -39 -147t-90 -64h-22q-76 0 -76 48q0 14 11 54t11 81l-10 100q0 53 76 53z" />
    <glyph glyph-name="uni021B" unicode="&#x21b;" horiz-adv-x="745" 
d="M186 373v450h-55q-84 0 -84 86v35q0 86 86 86h60v213q0 86 86 86h81q86 0 86 -86v-213h152q86 0 86 -86v-35q0 -86 -84 -86h-154v-405q0 -176 168 -195q46 -4 66 -22t20 -62v-63q0 -86 -106 -86q-162 0 -285 94t-123 289zM379 -113h41q98 0 98 -125q0 -84 -39 -147
t-90 -64h-22q-76 0 -76 48q0 14 11 54t11 81l-10 100q0 53 76 53z" />
    <glyph glyph-name="circumflex" unicode="&#x2c6;" horiz-adv-x="1011" 
d="M293 1550q-45 0 -55 30t18 75l82 119q37 55 104 55h127q68 0 105 -55l82 -119q28 -45 18 -75t-55 -30h-53q-34 0 -52 14t-39 46l-67 106h-4l-70 -106q-33 -59 -88 -60h-53z" />
    <glyph glyph-name="caron" unicode="&#x2c7;" horiz-adv-x="1011" 
d="M442 1550q-68 0 -104 56l-82 120q-28 43 -18 73t55 30h53q57 0 88 -57l70 -109h4l67 109q19 33 37 45t54 12h53q45 0 55 -30t-18 -73l-82 -120q-37 -55 -105 -56h-127z" />
    <glyph glyph-name="breve" unicode="&#x2d8;" horiz-adv-x="1009" 
d="M507 1542q-116 0 -209 67t-93 169q0 51 71 51h39q61 0 74 -57q17 -88 115 -88t117 88q18 57 73 57h39q74 0 74 -51q0 -102 -92 -169t-208 -67z" />
    <glyph glyph-name="dotaccent" unicode="&#x2d9;" horiz-adv-x="1011" 
d="M479 1602q-84 0 -84 86v57q0 84 84 84h53q84 0 84 -84v-57q0 -86 -84 -86h-53z" />
    <glyph glyph-name="ring" unicode="&#x2da;" horiz-adv-x="1011" 
d="M505 1616q32 0 51 19t19 51t-19 52q-19 19 -50 19t-50 -19q-20 -19 -20 -51q0 -31 18 -51t51 -20zM505 1526q-79 0 -136 43t-57 118t56 117q58 42 137 43q79 0 136 -43q57 -44 57 -118t-57 -117t-136 -43z" />
    <glyph glyph-name="ogonek" unicode="&#x2db;" horiz-adv-x="1011" 
d="M322 -221q0 127 165 246q49 37 113 22q92 -20 5 -93q-79 -70 -79 -117q0 -43 70 -73q43 -16 33 -79l-6 -43q-10 -66 -86 -56q-75 10 -145 58t-70 135z" />
    <glyph glyph-name="tilde" unicode="&#x2dc;" horiz-adv-x="1009" 
d="M215 1552q-74 0 -74 81q1 81 59 141t136 59q78 0 130 -34q52 -35 90 -67t73 -32q66 0 71 80q4 47 74 47h21q76 0 75 -70q0 -94 -57 -152q-57 -59 -137 -59t-131 34t-89 67t-73 32q-70 0 -78 -82q-6 -45 -69 -45h-21z" />
    <glyph glyph-name="hungarumlaut" unicode="&#x2dd;" horiz-adv-x="1009" 
d="M229 1550q-49 0 -64 29t7 72l64 116q29 61 100 62h43q49 0 63 -28t-10 -72l-63 -117q-35 -61 -101 -62h-39zM588 1550q-49 0 -64 29q-14 29 11 74l67 116q35 59 100 60h64q53 0 65 -31t-20 -72l-92 -124q-43 -51 -105 -52h-26z" />
    <glyph glyph-name="uni1E9E" unicode="&#x1e9e;" horiz-adv-x="1392" 
d="M152 86v930q0 194 124 316t322 122h563q86 0 86 -84v-41q0 -57 -30 -104l-218 -324l-47 -63v-4l39 -3q141 -18 229 -137t87 -264q0 -180 -130 -305t-315 -125h-196q-84 0 -84 86v57q0 84 82 84h178q88 -1 141 59t53 144t-52 141t-140 58h-88q-84 0 -84 86v49q0 45 26 96
l156 240q55 90 92 127v4q-23 -4 -90 -4h-252q-80 1 -132 -59t-52 -148v-934q0 -86 -84 -86h-98q-86 0 -86 86z" />
    <glyph glyph-name="thinspace" unicode="&#x2009;" horiz-adv-x="40" 
 />
    <glyph glyph-name="endash" unicode="&#x2013;" horiz-adv-x="1374" 
d="M205 483q-84 0 -84 86v31q0 86 84 86h964q84 0 84 -86v-31q0 -86 -84 -86h-964z" />
    <glyph glyph-name="emdash" unicode="&#x2014;" horiz-adv-x="1783" 
d="M205 483q-84 0 -84 86v31q0 86 84 86h1374q84 0 84 -86v-31q0 -86 -84 -86h-1374z" />
    <glyph glyph-name="quoteleft" unicode="&#x2018;" horiz-adv-x="444" 
d="M152 1004q-47 0 -67 25q-19 26 -3 71l102 311q27 68 99 68h20q90 0 70 -93l-70 -307q-14 -76 -92 -75h-59z" />
    <glyph glyph-name="quoteright" unicode="&#x2019;" horiz-adv-x="440" 
d="M156 1004q-90 0 -70 92l70 307q14 76 92 76h57q47 0 67 -26t5 -71l-105 -311q-25 -68 -96 -67h-20z" />
    <glyph glyph-name="quotesinglbase" unicode="&#x201a;" horiz-adv-x="473" 
d="M229 264h60q47 0 66 -26t3 -72l-102 -309q-27 -68 -98 -68h-21q-89 0 -69 92l69 307q14 76 92 76z" />
    <glyph glyph-name="quotedblleft" unicode="&#x201c;" horiz-adv-x="786" 
d="M152 1004q-47 0 -67 25q-19 26 -3 71l102 311q27 68 99 68h22q86 0 70 -93l-70 -307q-18 -76 -92 -75h-61zM494 1004q-47 0 -67 25q-19 26 -3 71l102 311q27 68 99 68h22q88 0 68 -93l-68 -307q-18 -76 -94 -75h-59z" />
    <glyph glyph-name="quotedblright" unicode="&#x201d;" horiz-adv-x="782" 
d="M156 1004q-90 0 -70 92l70 307q14 76 92 76h59q47 0 67 -26t3 -71l-103 -311q-25 -68 -98 -67h-20zM498 1004q-90 0 -70 92l70 307q14 76 92 76h59q47 0 67 -26t3 -71l-103 -311q-25 -68 -98 -67h-20z" />
    <glyph glyph-name="quotedblbase" unicode="&#x201e;" horiz-adv-x="815" 
d="M229 264h60q47 0 66 -26t3 -72l-102 -309q-23 -68 -96 -68h-23q-89 0 -69 92l69 307q14 76 92 76zM571 264h60q47 0 66 -26t3 -72l-102 -309q-23 -68 -96 -68h-23q-89 0 -69 92l69 307q14 76 92 76z" />
    <glyph glyph-name="dagger" unicode="&#x2020;" horiz-adv-x="915" 
d="M332 -16v858h-170q-86 0 -86 86v30q0 86 86 86h170v324q0 86 84 86h80q84 0 84 -86v-324h176q84 0 84 -86v-30q0 -86 -84 -86h-176v-858q0 -86 -84 -86h-80q-84 0 -84 86z" />
    <glyph glyph-name="daggerdbl" unicode="&#x2021;" horiz-adv-x="942" 
d="M344 -16v350h-170q-84 0 -84 84v31q0 86 84 86h170v307h-170q-84 0 -84 86v30q0 86 84 86h170v324q0 86 86 86h78q86 0 86 -86v-324h174q84 0 84 -86v-30q0 -86 -84 -86h-174v-307h174q84 0 84 -86v-31q0 -84 -84 -84h-174v-350q0 -86 -86 -86h-78q-86 0 -86 86z" />
    <glyph glyph-name="bullet" unicode="&#x2022;" horiz-adv-x="872" 
d="M436 254q-141 0 -241 100q-101 100 -101 242t100 242t242 100t242 -100t100 -242t-100 -242q-101 -100 -242 -100z" />
    <glyph glyph-name="ellipsis" unicode="&#x2026;" horiz-adv-x="1644" 
d="M113 86v92q0 84 86 84h82q86 0 86 -84v-92q0 -86 -86 -86h-82q-86 0 -86 86zM696 86v92q0 84 84 84h84q86 0 86 -84v-92q0 -86 -86 -86h-84q-84 0 -84 86zM1280 86v92q0 84 84 84h84q84 0 84 -84v-92q0 -86 -84 -86h-84q-84 0 -84 86z" />
    <glyph glyph-name="perthousand" unicode="&#x2030;" horiz-adv-x="2375" 
d="M1079 298q0 -56 39 -95t96 -39t98 39q40 39 40 95t-40 96t-98 40t-96 -40q-39 -40 -39 -96zM1843 298q0 -56 39 -95t96 -39t98 39q40 39 40 95t-40 96t-98 40t-96 -40q-39 -40 -39 -96zM881 297q0 133 97 228t235 95q139 0 237 -94q98 -96 98 -229t-97 -227t-237 -94
t-236 94q-97 94 -97 227zM1645 297q0 133 97 228t235 95q139 0 237 -94q98 -96 98 -229t-97 -227t-237 -94t-236 94q-97 94 -97 227zM420 1020q57 0 97 39t40 95t-40 96t-97 40t-96 -40t-39 -96t39 -95t96 -39zM1319 1454h41q54 0 70 -31t-19 -73l-995 -1299
q-39 -51 -105 -51h-43q-54 0 -68 30t19 74l995 1299q39 51 105 51zM420 831q-138 1 -236 95t-98 228t97 229t235 95t237 -94q99 -96 99 -230t-98 -228t-236 -95z" />
    <glyph glyph-name="guilsinglleft" unicode="&#x2039;" horiz-adv-x="673" 
d="M453 999h51q53 -1 67 -31t-18 -73l-252 -317l252 -316q35 -43 23 -74t-64 -30h-59q-62 0 -105 49l-248 311q-49 59 0 119l248 313q43 49 105 49z" />
    <glyph glyph-name="guilsinglright" unicode="&#x203a;" horiz-adv-x="673" 
d="M170 158q-53 0 -68 30q-14 31 19 74l252 316l-252 317q-35 43 -23 74t64 30h59q61 0 105 -49l247 -313q49 -59 0 -119l-247 -311q-43 -49 -105 -49h-51z" />
    <glyph glyph-name="fraction" unicode="&#x2044;" horiz-adv-x="366" 
d="M-135 0h-29q-41 0 -53 28t8 72l612 1291q31 63 99 63h28q42 0 54 -28t-9 -72l-612 -1291q-31 -63 -98 -63z" />
    <glyph glyph-name="zerosuperior" unicode="&#x2070;" horiz-adv-x="811" 
d="M406 1024q135 0 135 291t-135 291t-135 -291t135 -291zM406 846q-332 0 -332 470t332 470t332 -470t-332 -470z" />
    <glyph glyph-name="foursuperior" unicode="&#x2074;" horiz-adv-x="804" 
d="M225 1237h219v225l9 113h-4q-25 -55 -54 -96l-170 -238v-4zM530 866q-86 0 -86 86v117h-331q-84 0 -84 66v22q0 43 30 90l320 463q41 55 102 55h70q86 0 86 -86v-442h53q72 0 72 -78v-10q0 -80 -72 -80h-53v-117q0 -86 -86 -86h-21z" />
    <glyph glyph-name="fivesuperior" unicode="&#x2075;" horiz-adv-x="741" 
d="M360 846q-138 0 -262 84q-64 47 -6 125q39 55 111 16q59 -47 125 -47t114 39q47 39 47 100t-47 101t-101 41q-54 0 -101 -19q-167 -32 -156 94l31 303q6 82 90 82h334q86 0 86 -79v-9q0 -80 -86 -80h-258l-11 -104l-8 -51l4 -2q41 16 105 16q139 0 227 -85t88 -211
t-94 -220t-232 -94z" />
    <glyph glyph-name="sixsuperior" unicode="&#x2076;" horiz-adv-x="784" 
d="M396 1309q-130 0 -130 -105q0 -52 43 -116t103 -64t92 38q31 38 31 99t-39 105q-40 44 -100 43zM414 846q-144 0 -245 112t-101 313q0 199 110 357t316 158q57 0 118 -21q78 -27 45 -104q-21 -52 -35 -65t-62 -2t-64 12q-82 0 -136 -56t-71 -143h4q49 43 133 43
q135 0 219 -84t84 -213t-86 -218q-85 -89 -229 -89z" />
    <glyph glyph-name="sevensuperior" unicode="&#x2077;" horiz-adv-x="706" 
d="M170 866q-51 0 -68 29q-16 29 9 74l301 547l49 77v4q-37 -4 -80 -4h-258q-84 0 -84 82v11q0 80 84 79h475q84 0 84 -65v-14q0 -57 -27 -103l-358 -657q-31 -59 -100 -60h-27z" />
    <glyph glyph-name="eightsuperior" unicode="&#x2078;" horiz-adv-x="802" 
d="M398 1012q56 0 98 29q41 30 41 78q1 48 -37 72q-38 25 -52 35t-60 29q-46 20 -58 27q-76 -70 -76 -136t44 -100t100 -34zM528 1522q0 44 -36 70t-85 26q-48 0 -81 -23t-33 -59t14 -60q14 -25 63 -50q48 -25 99 -50q59 66 59 146zM731 1114q1 -124 -97 -196t-233 -72
t-235 75t-100 201t139 232q-99 74 -99 188t88 178q88 66 212 66q123 0 214 -68t91 -171t-107 -234q127 -76 127 -199z" />
    <glyph glyph-name="ninesuperior" unicode="&#x2079;" horiz-adv-x="784" 
d="M386 1321q132 0 132 105q0 53 -44 116q-44 64 -103 64t-90 -38t-31 -98t38 -105q38 -44 98 -44zM289 1026q80 0 133 54t74 143h-4q-57 -43 -134 -43q-135 0 -219 84t-84 214t85 219q86 89 230 89t245 -113t101 -313t-109 -356q-110 -158 -316 -158q-62 0 -119 20
q-79 26 -43 115q17 41 33 53t47 6q43 -14 80 -14z" />
    <glyph glyph-name="zeroinferior" unicode="&#x2080;" horiz-adv-x="811" 
d="M406 -164q135 0 135 291t-135 291t-135 -291t135 -291zM406 -342q-332 0 -332 470t332 470t332 -470t-332 -470z" />
    <glyph glyph-name="oneinferior" unicode="&#x2081;" horiz-adv-x="649" 
d="M143 -322q-84 0 -84 80v11q0 80 72 79h115v424l6 58h-4q-6 -12 -29 -33l-33 -31q-35 -31 -73 6l-23 23q-55 57 10 117l125 123q49 43 105 43h26q84 0 84 -86v-644h103q84 0 84 -79v-11q0 -80 -84 -80h-400z" />
    <glyph glyph-name="twoinferior" unicode="&#x2082;" horiz-adv-x="751" 
d="M139 -322q-86 0 -86 91t44 169q45 78 107 122t124 82t105 80q44 42 44 89t-36 77t-89 30t-104 -39q-70 -47 -117 -4q-81 65 -14 125q109 98 242 98t224 -75t91 -204q0 -83 -40 -147t-98 -104t-116 -72q-58 -33 -104 -70q-44 -37 -48 -78h334q86 0 86 -79v-11
q0 -80 -86 -80h-463z" />
    <glyph glyph-name="threeinferior" unicode="&#x2083;" horiz-adv-x="741" 
d="M342 -342q-148 0 -256 84q-70 47 -6 123q39 55 110 18q63 -47 132 -47t111 37t42 91t-45 86t-104 32h-23q-59 0 -80 47q-20 49 27 98l115 131l49 50v4q-41 -6 -72 -6h-180q-84 0 -84 81v11q0 80 84 80h403q86 0 86 -62v-12q0 -49 -41 -96l-161 -185q100 -18 161 -86
q62 -67 62 -183t-91 -206t-239 -90z" />
    <glyph glyph-name="fourinferior" unicode="&#x2084;" horiz-adv-x="804" 
d="M225 49h219v225l9 113h-4q-25 -55 -54 -96l-170 -238v-4zM530 -322q-86 0 -86 86v117h-331q-84 0 -84 66v22q0 43 30 90l320 463q39 55 102 56h70q86 0 86 -86v-443h53q72 0 72 -78v-10q0 -80 -72 -80h-53v-117q0 -86 -86 -86h-21z" />
    <glyph glyph-name="fiveinferior" unicode="&#x2085;" horiz-adv-x="741" 
d="M360 -342q-138 0 -262 84q-64 47 -6 125q39 55 111 16q59 -47 125 -47t114 39q47 39 47 100t-47 101t-101 41q-54 0 -101 -19q-167 -32 -156 95l31 303q6 82 90 82h334q86 0 86 -80v-9q0 -80 -86 -79h-258l-11 -105l-8 -51l4 -2q41 16 105 16q139 0 227 -85t88 -211
t-94 -220t-232 -94z" />
    <glyph glyph-name="sixinferior" unicode="&#x2086;" horiz-adv-x="784" 
d="M396 121q-130 0 -130 -105q0 -52 43 -116t103 -64t92 38q31 38 31 99t-39 105q-40 44 -100 43zM414 -342q-144 0 -245 113t-101 313t110 356q110 158 316 158q57 0 118 -20q78 -27 45 -105q-21 -52 -35 -64q-14 -13 -62 -3t-64 12q-82 0 -136 -56t-71 -143h4
q49 43 133 43q135 0 219 -84t84 -213t-86 -218q-85 -89 -229 -89z" />
    <glyph glyph-name="seveninferior" unicode="&#x2087;" horiz-adv-x="706" 
d="M170 -322q-51 0 -68 29q-16 29 9 74l301 547l49 78v4q-37 -4 -80 -4h-258q-84 0 -84 81v11q0 80 84 80h475q84 0 84 -66v-14q0 -57 -27 -103l-358 -657q-31 -59 -100 -60h-27z" />
    <glyph glyph-name="eightinferior" unicode="&#x2088;" horiz-adv-x="802" 
d="M398 -174q56 0 98 30q41 30 41 66q1 36 -9 53q-10 19 -38 37t-42 28t-60 30t-58 26q-76 -70 -76 -136t44 -100t100 -34zM528 336q0 45 -36 71q-37 25 -85 25t-81 -22t-33 -59q0 -36 14 -61t63 -50q48 -25 99 -50q59 66 59 146zM731 -72q1 -124 -97 -196t-233 -72t-235 75
t-100 201t139 232q-99 74 -99 188t88 179t212 65q123 0 214 -68t91 -171t-107 -234q127 -76 127 -199z" />
    <glyph glyph-name="nineinferior" unicode="&#x2089;" horiz-adv-x="784" 
d="M386 133q132 0 132 105q0 53 -44 116q-44 64 -103 64t-90 -38t-31 -98t38 -104t98 -45zM358 -8q-135 0 -219 84t-84 214t85 219q86 89 230 89t245 -113t101 -313t-109 -356q-110 -158 -316 -158q-62 0 -119 20q-79 26 -43 115q17 41 33 53t47 7q43 -14 80 -15
q80 0 133 54t74 143h-4q-57 -43 -134 -43z" />
    <glyph glyph-name="Euro" unicode="&#x20ac;" horiz-adv-x="1234" 
d="M154 512q-78 0 -78 78t78 78h36q-10 51 -2 127h-32q-80 1 -80 79t80 78h61q68 234 259 380t442 147q45 1 132 -11t64 -102l-20 -76q-20 -76 -86 -65q-49 8 -97 8q-145 0 -255 -75t-156 -206h426q96 0 80 -80q-8 -43 -30 -60t-65 -17h-448q-10 -61 0 -127h407q96 0 80 -80
q-10 -44 -30 -60t-64 -16h-346q49 -131 160 -209t252 -78q49 0 106 8q86 12 98 -63l17 -78q16 -86 -66 -100q-78 -16 -159 -17q-260 -1 -448 147t-253 390h-63z" />
    <glyph glyph-name="trademark" unicode="&#x2122;" horiz-adv-x="2000" 
d="M469 547q-86 0 -86 84v651h-219q-84 0 -84 80v12q0 80 84 80h631q86 0 86 -80v-12q0 -80 -86 -80h-217v-651q0 -84 -84 -84h-25zM1090 1454h28q72 0 99 -65l159 -363l27 -86h4q14 51 29 86l159 363q27 66 99 65h28q82 0 88 -82l58 -737q4 -88 -82 -88h-27q-80 0 -86 82
l-28 385l2 63h-5l-133 -299q-27 -66 -98 -65h-12q-70 0 -96 65l-134 299h-4l2 -63l-30 -385q-6 -82 -88 -82h-25q-88 0 -82 88l59 737q6 82 89 82z" />
    <glyph glyph-name="minus" unicode="&#x2212;" horiz-adv-x="1267" 
d="M178 483q-84 0 -84 86v31q0 86 84 86h912q86 0 86 -86v-31q0 -86 -86 -86h-912z" />
    <glyph glyph-name="infinity" unicode="&#x221e;" horiz-adv-x="999" 
d="M502 322q-162 0 -278 116t-115 277q1 163 115 277t277 114t277 -115t113 -277q1 -162 -113 -276q-114 -116 -276 -116z" />
    <glyph glyph-name="approxequal" unicode="&#x2248;" horiz-adv-x="1267" 
d="M837 403q71 0 148 56q76 47 117 -17q63 -76 -6 -131q-128 -102 -246 -102t-236 72q-118 71 -188 71t-146 -52t-118 13q-62 80 6 131q130 102 246 102t234 -71q118 -72 189 -72zM837 823q71 0 148 56q76 47 117 -17l10 -14q47 -70 -16 -117q-128 -104 -246 -104
q-118 -1 -236 71t-188 72t-147 -55q-76 -47 -117 16q-59 83 6 133q130 102 246 102t234 -71q118 -72 189 -72z" />
    <glyph glyph-name="notequal" unicode="&#x2260;" horiz-adv-x="1267" 
d="M223 274q-86 0 -86 84v31q0 86 86 86h254l150 219h-404q-86 0 -86 86v31q0 84 86 84h537l110 160q48 71 110 29t30 -91l-70 -98h113q84 0 84 -84v-31q0 -86 -84 -86h-244l-152 -219h396q84 0 84 -86v-31q0 -84 -84 -84h-527l-108 -155q-46 -72 -109 -29q-66 39 -16 111
l53 73h-123z" />
    <glyph glyph-name="lessequal" unicode="&#x2264;" horiz-adv-x="1267" 
d="M205 -174h811q84 0 84 -86v-31q0 -84 -84 -84h-811q-86 0 -86 84v31q0 86 86 86zM115 598q0 70 65 100l821 365q45 20 72 2t27 -66v-47q0 -72 -66 -98l-643 -266v-4l643 -267q66 -27 66 -98v-47q0 -48 -27 -66t-72 0l-821 367q-66 27 -65 100v25z" />
    <glyph glyph-name="greaterequal" unicode="&#x2265;" horiz-adv-x="1267" 
d="M254 -174h811q84 0 84 -86v-31q0 -84 -84 -84h-811q-86 0 -86 84v31q0 86 86 86zM168 172v47q0 70 65 98l646 267v4l-646 266q-66 29 -65 98v47q0 47 28 65t72 -1l819 -365q66 -31 66 -100v-25q0 -74 -66 -100l-819 -364q-44 -20 -72 -2t-28 65z" />
    <glyph glyph-name="commaaccent" unicode="&#xf6c3;" horiz-adv-x="686" 
d="M328 -113h41q98 0 98 -125q0 -84 -39 -147t-90 -64h-23q-76 0 -75 48q0 14 11 54t11 81l-10 100q0 53 76 53z" />
    <glyph glyph-name="apple" unicode="&#xf8ff;" horiz-adv-x="2314" 
d="M887 186h203v392h397v172h-397v309h256q26 0 34 -11t9 -38v-60h182v176q0 55 -24 80t-81 25h-690v-172h111v-873zM496 131v248l-203 123v461l203 118v252l440 234l225 -121l219 121l439 -234v-252l204 -118v-461l-204 -123v-248l-439 -233l-219 118l-225 -118zM426 61
l487 -258l248 136l242 -136l487 258v285l234 131v510l-234 135v279l-487 258l-242 -131l-248 131l-487 -258v-279l-233 -135v-510l233 -131v-285zM344 -10v311l-258 148v569l258 145v310l543 290l274 -145l271 145l542 -290v-310l254 -145v-569l-254 -148v-311l-542 -289
l-271 145l-274 -145z" />
    <glyph glyph-name="zero.tnum" 
d="M598 217q256 0 256 509t-256 509t-256 -509t256 -509zM598 -25q-142 -1 -248 57t-164 164q-115 210 -114 533q0 750 526 750q288 0 409 -212t120 -538q-1 -327 -115 -532q-59 -106 -165 -164t-249 -58z" />
    <glyph glyph-name="one.tnum" 
d="M180 86v57q0 84 84 84h232v807l2 99h-4q-18 -39 -56 -74l-63 -62q-63 -57 -119 4l-39 41q-59 59 2 121l258 248q49 43 107 43h86q84 0 84 -86v-1141h229q86 0 86 -84v-57q0 -86 -86 -86h-719q-84 0 -84 86z" />
    <glyph glyph-name="two.tnum" 
d="M104 86v43q0 205 136 357q89 100 219 190q131 90 190 137q135 108 135 206q0 99 -63 155t-158 55q-127 0 -215 -109q-66 -66 -121 -18l-55 43q-68 51 -22 115q166 219 436 219q199 0 336 -116t137 -314q0 -93 -36 -177t-112 -162t-197 -158q-122 -79 -182 -123
q-134 -99 -137 -202h600q86 0 86 -84v-57q0 -86 -86 -86h-798q-41 0 -67 22t-26 64z" />
    <glyph glyph-name="three.tnum" 
d="M530 225q122 -1 196 61t75 164q0 102 -88 160q-88 57 -224 58h-30q-66 0 -94 59l-9 16q-29 57 19 111l223 264q57 71 104 111v4q-45 -6 -129 -6h-350q-84 0 -84 84v57q0 86 84 86h717q86 0 86 -84v-22q0 -63 -39 -105l-317 -366q166 -23 282 -135t115 -299
q0 -187 -139 -327t-371 -140t-422 141q-66 49 -16 119l41 63q43 66 116 18q132 -92 254 -92z" />
    <glyph glyph-name="four.tnum" 
d="M295 594h401v450l11 152h-5q-33 -78 -71 -133l-336 -465v-4zM100 375q-84 0 -84 84v20q0 59 31 105l561 815q35 55 103 55h159q86 0 86 -86v-774h103q86 0 86 -84v-51q0 -84 -70 -84h-119v-289q0 -86 -86 -86h-90q-84 0 -84 86v289h-596z" />
    <glyph glyph-name="five.tnum" 
d="M533 225q119 0 199 69q80 68 81 180q0 112 -82 182t-209 69q-78 0 -168 -37q-66 -23 -114 -4l-19 6q-70 27 -63 103l53 579q6 82 88 82h598q86 0 86 -86v-57q0 -84 -86 -84h-451l-22 -240l-10 -67h4q68 33 155 32q233 0 373 -137t139 -346q1 -209 -149 -351t-378 -142
t-404 145q-63 47 -13 117l41 61q43 68 117 16q115 -90 234 -90z" />
    <glyph glyph-name="six.tnum" 
d="M360 561q0 -119 85 -231t193 -113q108 0 168 70q60 69 60 181t-72 188t-188 75q-116 0 -181 -47t-65 -123zM86 657q0 311 166 560q80 119 211 191t275 71q144 0 237 -33q80 -25 51 -109l-25 -67q-23 -72 -100 -56q-70 20 -131 21q-164 0 -262 -115t-129 -286h4
q39 50 116 82t177 32q202 0 326 -135t124 -339t-134 -351t-358 -147t-386 184q-162 186 -162 497z" />
    <glyph glyph-name="seven.tnum" 
d="M729 1227h-536q-84 0 -84 84v57q0 86 84 86h829q86 0 86 -84v-45q0 -57 -25 -104l-581 -1160q-33 -61 -103 -61h-92q-49 0 -67 28t6 72l495 994q41 84 72 118l10 15v4q-23 -4 -94 -4z" />
    <glyph glyph-name="eight.tnum" 
d="M342 440q0 -104 75 -170t179 -66t176 59q72 57 72 133t-37 113q-50 55 -162 104q-25 11 -80 36t-86 37q-37 -33 -56 -52t-50 -77t-31 -117zM821 1044q0 103 -59 154q-60 51 -160 51t-154 -48t-55 -110q1 -62 19 -87t28 -39q10 -15 35 -31t39 -26t49 -25q35 -17 49 -23
l56 -24t57 -23q96 128 96 231zM135 1078q0 168 121 284q121 117 337 117t350 -108t134 -286q0 -84 -37 -170q-38 -85 -68 -125t-59 -69q201 -119 201 -304t-141 -313t-373 -129q-232 0 -378 127q-144 128 -144 296t96 275q68 75 127 120q-166 117 -166 285z" />
    <glyph glyph-name="nine.tnum" 
d="M838 893q0 119 -85 231t-193 111q-108 0 -166 -69q-60 -70 -60 -182t70 -188t188 -75q116 0 181 48t65 124zM428 217q164 0 262 115t129 289h-4q-39 -51 -121 -84t-176 -33q-194 0 -320 139t-126 343t133 348t357 144t388 -184q162 -186 162 -497q0 -205 -71 -387
t-227 -309q-157 -126 -372 -126q-125 0 -219 33q-80 25 -51 107l25 69q12 41 35 52q24 10 65 4q82 -23 131 -23z" />
    <glyph glyph-name="hyphen.case" horiz-adv-x="851" 
d="M203 598q-84 0 -84 86v57q0 84 84 84h446q84 0 84 -84v-57q0 -86 -84 -86h-446z" />
    <glyph glyph-name="parenleft.case" horiz-adv-x="583" 
d="M88 764q0 401 207 758q33 57 102 57h39q50 0 66 -28t-6 -72q-176 -353 -176 -741t182 -771q20 -45 4 -73t-66 -27h-43q-67 0 -96 51q-213 383 -213 846z" />
    <glyph glyph-name="parenright.case" horiz-adv-x="583" 
d="M262 744q0 388 -176 735q-22 45 -8 73t63 27h43q70 0 103 -57q209 -360 209 -758q0 -457 -211 -840q-31 -57 -101 -57h-41q-49 -1 -65 29t4 75q180 385 180 773z" />
    <glyph glyph-name="bracketleft.case" horiz-adv-x="620" 
d="M147 -47v1542q0 84 86 84h234q86 0 86 -84v-18q0 -86 -80 -86h-102v-1336h96q86 0 86 -86v-16q0 -86 -86 -86h-234q-86 0 -86 86z" />
    <glyph glyph-name="bracketright.case" horiz-adv-x="620" 
d="M70 -31q0 86 84 86h98v1336h-98q-84 0 -84 86v18q0 84 84 84h235q84 0 84 -84v-1542q0 -86 -84 -86h-235q-84 0 -84 86v16z" />
    <glyph glyph-name="braceleft.case" horiz-adv-x="702" 
d="M223 207v199q0 135 -104 192q-37 20 -53 40t-17 54v80q0 47 31 71q12 9 37 25q106 47 106 195v174q0 266 227 334q46 14 87 14h26q86 0 86 -86v-31q0 -84 -86 -84q-119 0 -119 -174v-215q0 -170 -149 -254l-19 -6v-4q106 -35 150 -150q18 -48 18 -108v-240
q0 -172 119 -172q86 0 86 -86v-30q0 -86 -86 -86h-26q-87 0 -189 62q-55 34 -90 109t-35 177z" />
    <glyph glyph-name="braceright.case" horiz-adv-x="704" 
d="M53 -25q0 86 86 86q119 0 119 172v240q0 121 54 178q54 58 114 80v4q-21 7 -54 30q-114 78 -114 230v215q0 174 -119 174q-86 0 -86 84v31q0 86 86 86h27q88 0 188 -62q55 -34 90 -108t35 -178v-174q0 -147 107 -195q25 -16 37 -25q30 -22 30 -71v-80q0 -35 -16 -54
t-53 -40q-104 -57 -105 -192v-199q0 -102 -35 -177t-90 -109q-100 -62 -188 -62h-27q-86 0 -86 86v30z" />
    <glyph glyph-name="at.case" horiz-adv-x="1576" 
d="M999 928q-90 0 -146 -58t-56 -144q0 -85 55 -142t143 -58h156v402h-152zM874 55q0 -90 -88 -82q-324 27 -524 238t-201 520t223 531t534 223q310 0 444 -125q135 -125 135 -322v-512h63q84 0 84 -84v-16q0 -86 -84 -86h-481q-199 0 -320 113t-121 267t120 266
q120 110 321 110h172q-2 80 -89 130t-220 50q-219 0 -371 -166t-152 -383q-1 -217 129 -371t345 -180q82 -12 81 -88v-33z" />
    <glyph glyph-name="guillemotleft.case" horiz-adv-x="1126" 
d="M444 1122h52q53 0 67 -30t-18 -74l-252 -318l252 -315q33 -43 21 -74t-60 -30h-62q-61 0 -104 49l-248 311q-49 59 0 119l248 313q43 49 104 49zM905 1122h49q55 0 71 -30q15 -31 -19 -74l-252 -318l252 -315q34 -43 22 -74t-63 -30h-60q-61 0 -104 49l-248 311
q-49 59 0 119l248 313q43 49 104 49z" />
    <glyph glyph-name="guillemotright.case" horiz-adv-x="1126" 
d="M170 281q-55 0 -70 30q-14 31 21 74l252 315l-252 318q-35 43 -23 74t64 30h59q61 0 105 -49l245 -313q49 -59 0 -119l-245 -311q-43 -49 -105 -49h-51zM682 1122q63 0 102 -49l248 -313q49 -59 0 -119l-248 -311q-39 -49 -102 -49h-51q-55 0 -70 30q-14 31 21 74
l252 315l-252 318q-35 43 -24 74t63 30h61z" />
    <glyph glyph-name="guilsinglleft.case" horiz-adv-x="665" 
d="M444 1122h52q53 0 67 -30t-18 -74l-252 -318l252 -315q33 -43 21 -74t-60 -30h-62q-61 0 -104 49l-248 311q-49 59 0 119l248 313q43 49 104 49z" />
    <glyph glyph-name="guilsinglright.case" horiz-adv-x="665" 
d="M170 281q-55 0 -70 30q-14 31 21 74l252 315l-252 318q-35 43 -23 74t64 30h59q61 0 105 -49l245 -313q49 -59 0 -119l-245 -311q-43 -49 -105 -49h-51z" />
    <glyph glyph-name="endash.case" horiz-adv-x="1368" 
d="M201 606q-84 0 -84 86v31q0 86 84 86h964q86 0 86 -86v-31q0 -86 -86 -86h-964z" />
    <glyph glyph-name="emdash.case" horiz-adv-x="1777" 
d="M201 606q-84 0 -84 86v31q0 86 84 86h1374q86 0 86 -86v-31q0 -86 -86 -86h-1374z" />
    <glyph glyph-name="periodcentered.case" horiz-adv-x="487" 
d="M203 578q-84 0 -84 86v88q0 86 84 86h80q86 0 86 -86v-88q0 -86 -86 -86h-80z" />
    <glyph glyph-name="questiondown.case" horiz-adv-x="876" 
d="M651 1366v-72q0 -86 -86 -86h-82q-84 0 -84 86v72q0 86 84 86h82q86 0 86 -86zM565 1032q86 0 86 -84v-33q0 -130 -119 -242q-49 -46 -99 -89q-120 -103 -120 -205q-1 -72 57 -121t135 -49t159 42t122 -22l35 -51q51 -72 -14 -115q-141 -94 -321 -94q-180 -1 -312 105
q-133 106 -133 277t118 289q50 50 101 94q127 109 137 204l4 35q14 59 82 59h82z" />
    <glyph glyph-name="exclamdown.case" horiz-adv-x="550" 
d="M399 1366v-72q0 -86 -84 -86h-82q-86 0 -86 86v72q0 86 86 86h82q84 0 84 -86zM305 1032q82 0 86 -84l17 -862q0 -88 -84 -88h-97q-88 0 -84 88l17 862q0 84 86 84h59z" />
    <glyph glyph-name="bullet.case" horiz-adv-x="870" 
d="M436 383q-141 0 -241 100q-101 99 -101 241t100 242t242 101q142 0 242 -100q100 -99 100 -241t-100 -243q-101 -100 -242 -100z" />
    <glyph glyph-name="zero.p_osf" horiz-adv-x="1243" 
d="M379 563q0 -154 60 -260q61 -106 183 -106t182 106t60 259q0 152 -60 260t-182 108t-182 -106t-61 -261zM117 562q0 155 50 284t169 217q118 88 266 88q387 0 495 -374q63 -215 -3 -440q-106 -359 -492 -361q-148 0 -266 86q-119 87 -169 216t-50 284z" />
    <glyph glyph-name="one.p_osf" horiz-adv-x="991" 
d="M113 86v49q0 86 84 86h219v510l2 133h-4q-31 -33 -78 -61l-86 -51q-70 -43 -117 26l-27 39q-47 70 27 117l262 162q45 31 105 30h84q84 0 84 -86v-819h194q84 0 84 -86v-49q0 -86 -84 -86h-665q-84 0 -84 86z" />
    <glyph glyph-name="two.p_osf" horiz-adv-x="1132" 
d="M111 86v23q0 63 57 102q254 168 398 301t145 246q1 84 -57 125t-154 41t-217 -93q-70 -51 -119 11l-31 39q-55 68 8 118q182 152 408 152q180 0 303 -98t123 -264q0 -165 -124 -299t-359 -273v-4q45 8 129 8h321q86 0 86 -86v-49q0 -86 -86 -86h-745q-86 0 -86 86z" />
    <glyph glyph-name="three.p_osf" horiz-adv-x="1077" 
d="M455 -41q123 0 197 57t73 160q0 103 -92 160t-213 57h-43q-70 0 -98 64q-27 66 16 116l199 230q67 77 104 104v4q-45 -8 -129 -8h-283q-84 0 -84 86v51q0 86 84 86h670q86 0 86 -75v-15q0 -59 -41 -106l-319 -350q166 -20 286 -122t119 -282q0 -180 -140 -309
q-141 -129 -367 -129t-396 129q-68 47 -16 119l28 43q41 63 119 18q117 -88 240 -88z" />
    <glyph glyph-name="four.p_osf" horiz-adv-x="1220" 
d="M702 281v444l11 152h-4q-35 -80 -72 -138l-313 -458h378zM47 143v29q0 51 29 96l528 801q31 57 101 57h172q84 0 84 -86v-759h110q84 0 84 -86v-50q0 -86 -68 -86h-126v-211q0 -86 -84 -86h-91q-84 0 -84 86v211h-571q-84 0 -84 84z" />
    <glyph glyph-name="five.p_osf" horiz-adv-x="1095" 
d="M470 -33q118 -1 202 61t84 174t-82 176t-184 64t-191 -34q-64 -19 -131 6q-66 27 -57 98l53 532q6 82 88 82h571q84 0 84 -86v-51q0 -86 -84 -86h-432l-22 -221l-11 -64h4q72 29 158 29q224 0 362 -122q138 -123 138 -323t-148 -328t-369 -128q-222 0 -392 129
q-68 45 -17 117l29 43q41 63 117 16q112 -84 230 -84z" />
    <glyph glyph-name="six.p_osf" horiz-adv-x="1216" 
d="M371 520q0 -111 82 -217t191 -106t167 65q57 66 57 174t-68 178t-184 70t-180 -46t-65 -118zM744 1389q146 0 231 -31q80 -25 49 -109l-16 -49q-27 -68 -114 -50t-118 17q-168 1 -265 -113t-126 -276h4q39 49 121 80t178 31q193 0 317 -128q123 -128 123 -321
q0 -192 -131 -328t-354 -136t-382 169q-159 170 -159 464t160 527q78 114 207 184t275 69z" />
    <glyph glyph-name="seven.p_osf" horiz-adv-x="1073" 
d="M649 905h-508q-84 0 -84 86v49q0 86 84 86h805q86 0 86 -84v-34q0 -53 -26 -105l-551 -1079q-33 -61 -103 -62h-90q-48 0 -66 28t5 73l467 919q36 78 75 125v4q-41 -6 -94 -6z" />
    <glyph glyph-name="eight.p_osf" horiz-adv-x="1220" 
d="M358 416q0 -96 74 -158t176 -63q102 0 172 54t70 142q0 54 -31 82q-58 53 -102 73q-43 22 -70 34t-73 30t-72 31q-144 -106 -144 -225zM616 1167q-96 0 -149 -44t-53 -106q0 -61 44 -107q78 -80 273 -146q0 2 10 13q11 11 17 21t17 28q52 80 52 164q0 83 -58 130
q-57 47 -153 47zM610 -25q-228 0 -368 121q-142 121 -142 300t228 347q-164 109 -164 268t118 267t326 108t339 -102q130 -102 130 -264t-159 -348q194 -106 194 -280t-137 -296q-137 -121 -365 -121z" />
    <glyph glyph-name="nine.p_osf" horiz-adv-x="1216" 
d="M344 688q0 -108 68 -176q68 -70 184 -70t181 45t65 117q0 113 -83 219q-83 107 -191 107t-166 -67t-58 -175zM436 -41q168 0 265 114t126 275h-4q-39 -49 -121 -80t-178 -30q-192 0 -316 128t-124 320t131 329q131 136 354 136t381 -170t158 -462t-159 -528
q-77 -114 -206 -184q-129 -69 -268 -69t-237 29q-80 25 -52 108l19 49q27 70 92 58q69 -23 139 -23z" />
    <glyph glyph-name="zero.t_osf" 
d="M356 563q0 -154 60 -260t183 -106q122 0 182 106q61 106 61 259q0 152 -60 260t-183 108t-183 -106t-60 -261zM94 562q0 243 129 416t377 173q127 0 226 -50q181 -91 248 -324q30 -103 30 -218t-30 -216q-68 -230 -248 -318q-99 -49 -226 -50q-248 0 -377 172t-129 415z
" />
    <glyph glyph-name="one.t_osf" 
d="M211 86v49q0 86 84 86h219v510l2 133h-4q-31 -33 -78 -61l-86 -51q-70 -43 -117 26l-26 39q-47 70 26 117l263 162q45 31 104 30h84q84 0 84 -86v-819h195q84 0 83 -86v-49q0 -86 -83 -86h-666q-84 0 -84 86z" />
    <glyph glyph-name="two.t_osf" 
d="M139 86v23q0 63 58 102q254 168 398 301t144 246q0 84 -57 125q-58 41 -154 41t-217 -93q-70 -51 -118 11l-31 39q-55 68 8 118q182 152 408 152q180 0 303 -98t123 -264q0 -165 -124 -299t-360 -273v-4q45 8 129 8h322q86 0 86 -86v-49q0 -86 -86 -86h-746q-86 0 -86 86
z" />
    <glyph glyph-name="three.t_osf" 
d="M512 -39q123 0 197 57q73 57 73 160t-92 160t-213 57h-43q-70 0 -98 64q-27 66 16 116l199 230q49 57 104 104v4q-45 -8 -129 -8h-282q-84 0 -84 86v51q0 86 84 86h669q86 0 86 -75v-15q0 -59 -41 -106l-319 -350q166 -20 286 -122q119 -102 119 -282t-140 -309
t-366 -129t-397 129q-68 47 -16 119l29 43q41 63 118 18q117 -88 240 -88z" />
    <glyph glyph-name="four.t_osf" 
d="M690 281v444l10 152h-4q-35 -80 -71 -138l-314 -458h379zM35 143v29q0 51 28 96l529 801q31 57 100 57h172q84 0 84 -86v-759h111q84 0 84 -86v-50q0 -86 -68 -86h-127v-211q0 -86 -84 -86h-90q-84 0 -84 86v211h-571q-84 0 -84 84z" />
    <glyph glyph-name="five.t_osf" 
d="M520 -33q118 -1 201 61q84 62 84 174t-82 176q-81 64 -183 64t-192 -34q-64 -19 -131 6q-66 27 -57 98l53 532q6 82 88 82h571q84 0 84 -86v-51q0 -86 -84 -86h-432l-22 -221l-10 -64h4q72 29 157 29q225 0 363 -122q138 -123 137 -323q0 -200 -147 -328
q-148 -128 -370 -128t-392 129q-68 45 -17 117l29 43q41 63 117 16q113 -84 231 -84z" />
    <glyph glyph-name="six.t_osf" 
d="M365 520q-1 -111 81 -217t192 -106t167 65q57 66 57 174t-68 178t-184 70t-180 -46t-65 -118zM736 1389q144 0 233 -31q80 -25 49 -109l-17 -49q-27 -68 -113 -50t-118 17q-168 1 -265 -113t-126 -276h4q39 49 121 80t178 31q192 0 316 -128t124 -321q0 -192 -131 -328
t-354 -136t-382 169q-159 170 -159 464t160 527q78 114 207 184t273 69z" />
    <glyph glyph-name="seven.t_osf" 
d="M707 905h-508q-84 0 -84 86v49q0 86 84 86h805q86 0 86 -84v-34q0 -53 -27 -105l-551 -1079q-33 -61 -102 -62h-91q-49 0 -67 28t6 73l467 919q35 76 76 125v4q-41 -6 -94 -6z" />
    <glyph glyph-name="eight.t_osf" 
d="M348 416q0 -96 74 -158t176 -63q102 0 172 54t70 142q0 52 -31 81q-57 53 -102 74q-45 22 -71 34t-72 30t-72 31q-144 -106 -144 -225zM606 1167q-96 0 -149 -44t-53 -106q0 -61 43 -107q77 -80 274 -146q0 2 10 13q11 11 17 21t17 28q52 80 52 164q0 83 -58 130
q-57 47 -153 47zM90 396q0 179 227 347q-163 109 -163 268t118 267t326 108q209 0 339 -102t130 -264t-160 -348q195 -106 195 -280t-137 -296q-137 -121 -365 -121t-369 121t-141 300z" />
    <glyph glyph-name="nine.t_osf" 
d="M332 688q0 -108 68 -176q68 -70 184 -70t181 45t64 117q0 113 -83 219q-83 107 -191 107q-107 0 -165 -67t-58 -175zM424 -41q168 0 265 114t126 275h-4q-39 -49 -121 -80t-178 -30q-192 0 -316 128t-124 320t131 329q131 136 354 136t381 -170t158 -462t-159 -528
q-77 -114 -206 -184q-129 -69 -269 -69t-237 29q-80 25 -51 108l19 49q27 70 92 58q69 -23 139 -23z" />
    <glyph glyph-name="dollar.osf" horiz-adv-x="1052" 
d="M512 207q84 0 135 34t51 84q0 88 -167 150t-253 115q-174 107 -174 278q0 138 96 226t249 112v99q0 84 81 84h15q80 0 80 -72v-109q141 -14 254 -82q61 -39 28 -114l-26 -58q-35 -74 -127 -22t-193 51q-186 0 -186 -127q0 -47 61 -83q60 -35 148 -67t175 -74t148 -119
t61 -197t-94 -214q-96 -96 -258 -118v-107q0 -84 -79 -84h-15q-82 0 -82 72v117q-172 20 -319 137q-59 47 -17 119l35 53q47 68 117 16q135 -100 256 -100z" />
    <glyph glyph-name="cent.osf" horiz-adv-x="1107" 
d="M502 27v86q-192 37 -306 174t-114 324t115 325t305 176v88q0 84 84 84h12q86 0 86 -61v-101q143 -16 283 -108q68 -49 18 -119l-31 -47q-41 -63 -116 -21q-86 68 -208 68t-206 -81t-84 -200q0 -118 84 -200t204 -82t210 65q74 47 116 -20l31 -47q47 -70 -18 -117
q-139 -98 -283 -109v-77q0 -84 -86 -84h-12q-84 0 -84 84z" />
    <glyph glyph-name="sterling.osf" horiz-adv-x="1216" 
d="M109 86v49q0 86 79 86h41v264h-26q-72 0 -72 80v13q0 80 72 79h26v144q1 178 139 296t343 117q162 0 299 -73q80 -39 30 -115l-30 -51q-41 -63 -115 -33q-90 41 -182 41t-157 -54t-64 -132v-140h329q84 0 84 -79v-13q0 -80 -84 -80h-329v-264h550q86 0 86 -86v-49
q0 -86 -86 -86h-847q-86 0 -86 86z" />
    <glyph glyph-name="yen.osf" horiz-adv-x="1243" 
d="M238 270q-84 0 -84 72v12q0 72 84 72h249v33l-75 129h-174q-84 0 -84 71v13q0 72 84 71h84l-205 347q-27 44 -9 72t68 28h113q70 0 98 -62l141 -262l88 -200h5q45 113 88 200l143 262q29 61 98 62h113q51 0 67 -29t-10 -71l-202 -347h92q86 0 86 -71v-13q0 -72 -86 -71
h-185l-73 -129v-33h258q86 0 86 -72v-12q0 -72 -86 -72h-258v-184q0 -86 -86 -86h-93q-86 0 -86 86v184h-249z" />
    <glyph glyph-name="florin.osf" horiz-adv-x="829" 
d="M238 592q-86 0 -86 86v35q0 86 86 86h86l18 202q8 98 46 171t86 113q120 100 327 104q10 0 96 -7q80 -6 80 -90v-51q0 -88 -64 -82q-45 6 -96 6q-203 0 -219 -188l-18 -178h139q84 0 84 -86v-35q0 -86 -84 -86h-158l-39 -465q-10 -121 -61 -204t-126 -120
q-128 -63 -269 -63q-29 0 -74 4q-80 6 -80 90v51q0 43 20 64q21 20 56 16l61 -2q203 0 219 189l39 440h-69z" />
    <glyph glyph-name="Euro.osf" horiz-adv-x="1181" 
d="M166 393q-84 0 -84 64v18q0 61 84 62h47q-6 41 -2 112h-45q-84 0 -84 64v16q0 63 84 64h70q57 184 219 303t411 118q39 0 117 -10q86 -10 64 -100l-13 -45q-18 -76 -74 -67t-98 9q-129 0 -218 -57t-132 -151h367q93 0 77 -80q-14 -63 -90 -64h-393q-8 -43 2 -112h356
q92 0 80 -70l-2 -10q-14 -63 -88 -64h-293q43 -90 131 -145t211 -55q47 0 97 8q86 12 100 -66l8 -45q16 -88 -65 -100q-61 -14 -144 -15q-242 0 -402 117t-224 301h-74z" />
    <glyph glyph-name="zero.numerator" horiz-adv-x="811" 
d="M406 715q135 0 135 291t-135 290q-135 0 -135 -290t135 -291zM406 537q-332 0 -332 470t332 470t332 -470t-332 -470z" />
    <glyph glyph-name="one.numerator" horiz-adv-x="651" 
d="M143 557q-84 0 -84 80v10q0 80 72 80h115v424l6 57h-4q-6 -12 -29 -32l-33 -31q-35 -31 -73 6l-23 23q-55 57 10 116l125 123q49 43 105 43h26q84 0 84 -86v-643h103q84 0 84 -80v-10q0 -80 -84 -80h-400z" />
    <glyph glyph-name="two.numerator" horiz-adv-x="751" 
d="M139 557q-86 0 -86 91t44 168q45 77 107 122t124 83t105 80q44 42 44 89t-36 77q-36 29 -89 29t-104 -39q-70 -47 -117 -4l-10 9q-68 59 -4 116q109 98 242 98t224 -74q91 -75 91 -204q0 -82 -40 -146t-98 -105q-58 -40 -116 -73t-104 -69q-44 -37 -48 -78h334
q86 0 86 -80v-10q0 -80 -86 -80h-463z" />
    <glyph glyph-name="three.numerator" horiz-adv-x="741" 
d="M342 537q-148 0 -256 84q-69 46 -6 122q39 55 110 19q63 -47 132 -47t111 37t42 91t-45 86t-104 32h-23q-59 0 -80 47q-20 49 27 98l115 131l49 49v4q-41 -6 -72 -6h-180q-84 0 -84 82v10q0 80 84 80h403q86 0 86 -61v-13q0 -49 -41 -96l-161 -184q100 -18 161 -86
q62 -68 62 -184t-91 -205q-91 -90 -239 -90z" />
    <glyph glyph-name="four.numerator" horiz-adv-x="806" 
d="M225 928h219v225l9 113h-4q-25 -55 -54 -97l-170 -237v-4zM530 557q-86 0 -86 86v117h-331q-84 0 -84 65v23q0 43 30 90l320 463q39 55 102 55h70q86 0 86 -86v-442h53q72 0 72 -78v-10q0 -80 -72 -80h-53v-117q0 -86 -86 -86h-21z" />
    <glyph glyph-name="five.numerator" horiz-adv-x="741" 
d="M360 537q-138 0 -262 84q-64 47 -6 124q39 55 111 17q59 -47 125 -47t114 39q47 39 47 100t-47 101t-101 40t-101 -18q-167 -32 -156 94l31 303q6 82 90 82h334q86 0 86 -80v-8q0 -80 -86 -80h-258l-11 -104l-8 -51l4 -3q41 16 105 17q139 0 227 -85t88 -211t-94 -220
t-232 -94z" />
    <glyph glyph-name="six.numerator" horiz-adv-x="780" 
d="M396 999q-130 -1 -130 -105q0 -54 43 -116q43 -63 103 -63t92 38q31 38 31 99t-39 104q-40 43 -100 43zM414 537q-144 1 -245 113t-101 312t109 357q110 158 317 158q57 0 118 -21q78 -27 45 -104q-19 -51 -34 -65q-15 -13 -63 -2t-64 11q-82 0 -136 -55t-71 -143h4
q49 43 133 43q135 0 219 -84t84 -213t-86 -218q-85 -89 -229 -89z" />
    <glyph glyph-name="seven.numerator" horiz-adv-x="708" 
d="M170 557q-51 0 -68 29q-16 29 9 73l301 547l49 78v4q-37 -4 -80 -4h-258q-84 0 -84 82v10q0 80 84 80h475q84 0 84 -65v-15q0 -57 -27 -102l-358 -658q-31 -59 -100 -59h-27z" />
    <glyph glyph-name="eight.numerator" horiz-adv-x="802" 
d="M398 700q56 0 98 30q41 30 41 78q1 48 -37 72q-38 25 -52 34q-14 10 -60 30t-58 27q-76 -71 -76 -137t44 -100t100 -34zM528 1210q0 45 -36 71q-37 26 -85 26t-81 -23q-33 -22 -33 -58t15 -64t63 -50q47 -22 98 -47q59 66 59 145zM401 535q-135 1 -235 75t-100 200
t139 232q-99 74 -99 188t88 180t212 65q123 0 214 -68t91 -171t-107 -235q127 -77 127 -199t-97 -195q-98 -72 -233 -72z" />
    <glyph glyph-name="nine.numerator" horiz-adv-x="780" 
d="M386 1012q132 0 132 104q0 54 -44 117t-103 63t-90 -38t-31 -98t38 -104t98 -44zM289 717q80 0 133 54t74 142h-4q-57 -43 -134 -43q-135 0 -219 84t-84 214t85 220q86 90 230 89q144 0 245 -113q101 -112 101 -312t-109 -358q-110 -158 -316 -157q-62 0 -119 20
q-79 26 -43 115q17 41 33 53t47 6q43 -14 80 -14z" />
    <glyph glyph-name="zero.denominator" horiz-adv-x="811" 
d="M406 158q135 0 135 291t-135 290t-135 -291t135 -290zM406 -20q-332 0 -332 470t332 470t332 -470t-332 -470z" />
    <glyph glyph-name="one.denominator" horiz-adv-x="649" 
d="M143 0q-84 0 -84 80v10q0 80 72 80h115v424l6 57h-4q-6 -12 -29 -33l-33 -30q-35 -31 -73 6l-23 22q-55 57 10 117l125 123q49 43 105 43h26q84 0 84 -86v-643h103q84 0 84 -80v-10q0 -80 -84 -80h-400z" />
    <glyph glyph-name="two.denominator" horiz-adv-x="751" 
d="M139 0q-86 0 -86 91t44 168q45 77 107 122t124 83t105 80q44 42 44 89t-36 77t-89 30t-104 -40q-70 -47 -117 -4l-10 9q-68 59 -4 116q109 99 242 99t224 -75t91 -204q0 -83 -40 -147t-98 -104t-116 -73t-104 -69q-44 -37 -48 -78h334q86 0 86 -80v-10q0 -80 -86 -80
h-463z" />
    <glyph glyph-name="three.denominator" horiz-adv-x="741" 
d="M342 -20q-148 0 -256 83q-70 47 -6 123q39 55 110 19q63 -47 132 -47t111 37t42 91t-45 86t-104 31h-23q-59 0 -80 48q-20 49 27 98l115 131l49 49v4q-41 -6 -72 -6h-180q-84 0 -84 82v10q0 80 84 80h403q86 0 86 -61v-13q0 -49 -41 -96l-161 -184q100 -18 161 -86
q62 -67 62 -183t-91 -206t-239 -90z" />
    <glyph glyph-name="four.denominator" horiz-adv-x="804" 
d="M225 371h219v225l9 113h-4q-25 -55 -54 -97l-170 -237v-4zM530 0q-86 0 -86 86v117h-331q-84 0 -84 65v23q0 43 30 90l320 463q39 55 102 55h70q86 0 86 -86v-442h53q72 0 72 -78v-10q0 -80 -72 -80h-53v-117q0 -86 -86 -86h-21z" />
    <glyph glyph-name="five.denominator" horiz-adv-x="741" 
d="M360 -20q-138 0 -262 83q-64 47 -6 125q39 55 111 17q59 -47 125 -47t114 39q47 39 47 100t-47 101t-101 40t-101 -18q-167 -32 -156 94l31 303q6 82 90 82h334q86 0 86 -80v-8q0 -80 -86 -80h-258l-11 -104l-8 -52l4 -2q41 16 105 17q139 0 227 -85t88 -211t-94 -220
t-232 -94z" />
    <glyph glyph-name="six.denominator" horiz-adv-x="784" 
d="M396 442q-130 0 -130 -104q0 -54 43 -117t103 -63t92 38q31 38 31 99t-39 104q-40 43 -100 43zM414 -20q-144 0 -245 112t-101 312t109 358q110 158 317 158q57 0 118 -21q78 -27 45 -104q-19 -51 -34 -65q-15 -13 -63 -2t-64 11q-82 0 -136 -55t-71 -143h4q49 43 133 43
q135 0 219 -84t84 -213t-86 -218q-85 -89 -229 -89z" />
    <glyph glyph-name="seven.denominator" horiz-adv-x="706" 
d="M170 0q-51 0 -68 29q-16 29 9 73l301 547l49 78v4q-37 -4 -80 -4h-258q-84 0 -84 82v10q0 80 84 80h475q84 0 84 -65v-15q0 -57 -27 -102l-358 -658q-31 -59 -100 -59h-27z" />
    <glyph glyph-name="eight.denominator" horiz-adv-x="802" 
d="M398 145q56 0 98 30q41 30 41 78q1 48 -37 72q-38 25 -52 34t-60 29t-58 28q-76 -70 -76 -136t44 -101q44 -34 100 -34zM528 655q0 45 -36 71q-37 26 -85 26t-81 -23t-33 -59t15 -63q15 -28 63 -50q47 -22 98 -47q59 66 59 145zM401 -20q-135 0 -235 74t-100 201
q0 126 139 232q-99 74 -99 188q0 113 88 179t212 66q123 0 214 -68t91 -171t-107 -235q127 -76 127 -198t-97 -196q-98 -72 -233 -72z" />
    <glyph glyph-name="nine.denominator" horiz-adv-x="784" 
d="M386 455q132 1 132 105q0 54 -44 116q-44 63 -103 63t-90 -38t-31 -98t38 -104t98 -44zM289 160q80 0 133 54t74 142h-4q-57 -43 -134 -43q-135 0 -219 84t-84 214t85 219q86 90 230 90t245 -113t101 -313t-109 -357q-110 -158 -316 -157q-62 0 -119 20q-76 25 -47 104
q18 49 35 62q18 14 49 8q43 -14 80 -14z" />
    </font>
</defs>
</svg>
