<?xml version="1.0" standalone="no"?>
<!DOCTYPE svg PUBLIC "-//W3C//DTD SVG 1.1//EN" "http://www.w3.org/Graphics/SVG/1.1/DTD/svg11.dtd" >
<svg xmlns="http://www.w3.org/2000/svg">
<metadata>
Created by FontPrep 20130207 at Tue Jun 25 22:57:27 2013
 By Adem ilter
Copyright (c) 2011 by Jos Buivenga. All rights reserved.
</metadata>
<defs>
<font id="63e15a47dfc92ee3700fdf2ff2e5f712" >
  <font-face 
    font-family="MuseoSansRounded-100"
    font-weight="250"
    font-stretch="normal"
    units-per-em="2048"
    panose-1="2 0 0 0 0 0 0 0 0 0"
    ascent="1536"
    descent="-512"
    x-height="1024"
    cap-height="1434"
    bbox="-221.154 -434 2228 1790"
    underline-thickness="102"
    underline-position="-102"
    unicode-range="U+0020-FB04"
  />
<missing-glyph horiz-adv-x="1044" 
d="M174 102h696l-348 523zM113 195l348 522l-348 522v-1044zM584 717l348 -522v1044zM522 809l348 522h-696zM10 35v1364q0 35 35 35h954q35 0 35 -35v-1364q0 -35 -35 -35h-954q-35 0 -35 35z" />
    <glyph glyph-name="f_f" unicode="ff" horiz-adv-x="1191" 
d="M201 35v911h-95q-35 0 -34 35v8q0 35 34 35h95v41q0 113 35 193t90 118q98 66 198 68h19q35 0 35 -35v-12q0 -33 -45 -35q-91 -4 -157 -48q-91 -61 -89 -247v-43h510v41q1 113 35 193t90 118q99 66 198 68h19q35 0 35 -35v-12q0 -33 -46 -35q-90 -4 -156 -48
q-91 -61 -89 -247v-43h245q35 0 35 -35v-8q0 -35 -35 -35h-245v-911q0 -35 -35 -35h-17q-35 0 -34 35v911h-510v-911q0 -35 -35 -35h-16q-35 0 -35 35z" />
    <glyph glyph-name="fi" unicode="fi" horiz-adv-x="1026" 
d="M795 1284q-35 0 -35 35v80q0 35 35 35h32q35 0 35 -35v-80q0 -35 -35 -35h-32zM199 35v911h-95q-35 0 -34 35v8q0 35 34 35h95v41q1 113 35 193t90 118q99 66 198 68h19q35 0 34 -35v-12q0 -33 -45 -35q-90 -4 -156 -48q-91 -61 -89 -247v-43h534q35 0 35 -35v-954
q0 -35 -35 -35h-16q-35 0 -35 35v911h-483v-911q0 -35 -35 -35h-17q-34 0 -34 35z" />
    <glyph glyph-name="fl" unicode="fl" horiz-adv-x="1064" 
d="M770 207v1192q0 35 35 35h16q35 0 35 -35v-1163q0 -105 37 -130t76 -30q39 -6 39 -35v-12q0 -37 -37 -37q-64 0 -111 28q-90 52 -90 187zM199 35v905h-95q-35 0 -34 35v8q0 35 34 35h95v47q1 113 35 193t90 118q99 66 198 68h19q35 0 34 -35v-12q0 -33 -45 -35
q-90 -4 -156 -48q-91 -61 -89 -247v-49h245q35 0 35 -35v-8q0 -35 -35 -35h-245v-905q0 -35 -35 -35h-17q-34 0 -34 35z" />
    <glyph glyph-name="f_f_i" unicode="ffi" horiz-adv-x="1622" 
d="M1356 1319v80q0 35 35 35h32q35 0 35 -35v-80q0 -35 -35 -35h-32q-35 0 -35 35zM199 35v911h-95q-35 0 -34 35v8q0 35 34 35h95v41q1 113 35 193t90 118q99 66 198 68h19q35 0 34 -35v-12q0 -33 -45 -35q-90 -4 -156 -48q-91 -61 -89 -247v-43h510v41q1 113 35 193
t90 118q99 66 198 68h19q35 0 34 -35v-12q0 -33 -45 -35q-90 -4 -156 -48q-91 -61 -89 -247v-43h534q35 0 35 -35v-954q0 -35 -35 -35h-16q-35 0 -35 35v911h-483v-911q0 -35 -35 -35h-17q-35 0 -34 35v911h-510v-911q0 -35 -35 -35h-17q-34 0 -34 35z" />
    <glyph glyph-name="f_f_l" unicode="ffl" horiz-adv-x="1662" 
d="M1368 207v1192q0 35 35 35h16q35 0 35 -35v-1163q0 -105 37 -130t76 -30q39 -6 39 -35v-12q0 -37 -37 -37q-64 0 -111 28q-90 52 -90 187zM201 35v911h-95q-35 0 -34 35v8q0 35 34 35h95v41q0 113 35 193t90 118q98 66 198 68h19q35 0 35 -35v-12q0 -33 -45 -35
q-91 -4 -157 -48q-91 -61 -89 -247v-43h510v41q1 113 35 193t90 118q99 66 198 68h19q35 0 35 -35v-12q0 -33 -46 -35q-90 -4 -156 -48q-91 -61 -89 -247v-43h245q35 0 35 -35v-8q0 -35 -35 -35h-245v-911q0 -35 -35 -35h-17q-35 0 -34 35v911h-510v-911q0 -35 -35 -35h-16
q-35 0 -35 35z" />
    <glyph glyph-name="f_j" unicode="fj" horiz-adv-x="1028" 
d="M797 1284q-35 0 -35 35v80q0 35 35 35h32q35 0 35 -35v-80q0 -35 -35 -35h-32zM201 35v911h-95q-35 0 -34 35v8q0 35 34 35h95v41q0 113 35 193t90 118q98 66 198 68h19q35 0 35 -35v-12q0 -33 -45 -35q-91 -4 -157 -48q-91 -61 -89 -247v-43h534q35 0 35 -35v-1030
q0 -117 -36 -199t-93 -118q-100 -62 -197 -62h-16q-35 0 -35 35v8q0 31 41 34t77 13q173 48 173 287v989h-483v-911q0 -35 -35 -35h-16q-35 0 -35 35z" />
    <glyph glyph-name=".notdef" horiz-adv-x="1044" 
d="M174 102h696l-348 523zM113 195l348 522l-348 522v-1044zM584 717l348 -522v1044zM522 809l348 522h-696zM10 35v1364q0 35 35 35h954q35 0 35 -35v-1364q0 -35 -35 -35h-954q-35 0 -35 35z" />
    <glyph glyph-name=".null" horiz-adv-x="0" 
 />
    <glyph glyph-name="nonmarkingreturn" horiz-adv-x="681" 
 />
    <glyph glyph-name="space" unicode=" " horiz-adv-x="512" 
 />
    <glyph glyph-name="exclam" unicode="!" horiz-adv-x="491" 
d="M186 35v55q0 35 35 35h51q35 0 35 -35v-55q0 -35 -35 -35h-51q-35 0 -35 35zM236 358q-35 0 -35 35v1006q0 35 35 35h18q35 0 35 -35v-1006q0 -35 -35 -35h-18z" />
    <glyph glyph-name="quotedbl" unicode="&#x22;" horiz-adv-x="579" 
d="M174 1061q-35 0 -35 35v321q0 35 35 35h19q35 0 34 -35v-321q0 -35 -34 -35h-19zM387 1061q-35 0 -35 35v321q0 35 35 35h19q35 0 34 -35v-321q0 -35 -34 -35h-19z" />
    <glyph glyph-name="numbersign" unicode="#" horiz-adv-x="1460" 
d="M500 489h387l80 453h-387zM125 408q-39 0 -33 36l2 15q6 31 39 30h279l80 453h-273q-39 0 -33 37l2 14q6 31 39 31h279l65 379q6 31 39 31h17q39 0 32 -37l-65 -373h387l66 379q6 31 38 31h17q39 0 33 -37l-66 -373h266q39 0 33 -37l-2 -14q-6 -31 -39 -31h-272l-80 -453
h266q39 0 33 -36l-2 -15q-6 -31 -39 -30h-272l-66 -377q-6 -31 -39 -31h-16q-39 0 -33 37l65 371h-387l-65 -377q-6 -31 -39 -31h-16q-39 0 -33 37l65 371h-272z" />
    <glyph glyph-name="dollar" unicode="$" horiz-adv-x="1046" 
d="M858 344q0 151 -146 245q-65 40 -145 76q-81 37 -159 73t-143 79t-105 113q-41 70 -41 157q0 137 103 243t270 124v160q0 35 34 35h19q35 0 35 -35v-158q182 -6 309 -110q25 -18 6 -48l-10 -18q-20 -29 -49 -6q-133 98 -285 98t-246 -86t-94 -191t76 -176
q77 -71 185 -116t218 -95t184 -140q76 -90 76 -230t-101 -243t-269 -118v-155q0 -35 -35 -35h-19q-35 0 -34 35v155q-221 15 -371 152q-25 25 -2 49l14 17q20 25 49 2q154 -135 357 -136q137 0 228 78t91 205z" />
    <glyph glyph-name="percent" unicode="%" horiz-adv-x="1402" 
d="M846 242q0 -78 51 -131t127 -53t128 52q52 54 52 132t-52 132t-128 54t-127 -54t-51 -132zM758 242q0 112 78 190t188 78t190 -79q78 -79 78 -189t-79 -189q-79 -78 -189 -78t-188 78t-78 189zM377 1006q76 0 128 53t52 131t-52 132t-128 54t-127 -54t-51 -132t51 -131
t127 -53zM1247 1434q23 0 29 -12t-8 -31l-1039 -1371q-18 -20 -43 -20h-26q-23 0 -29 12t8 31l1039 1370q18 20 43 21h26zM377 924q-111 0 -189 78t-77 188q-1 112 77 190t189 78t189 -79t79 -189q-1 -110 -79 -188t-189 -78z" />
    <glyph glyph-name="ampersand" unicode="&#x26;" horiz-adv-x="1290" 
d="M625 733q-207 0 -313 -91q-106 -90 -105 -240q0 -150 102 -245t277 -96q369 0 368 443v229h-329zM115 391q0 133 71 242q72 109 199 143v4q-26 6 -67 34q-42 28 -68 60t-50 94q-22 60 -22 134q0 158 112 257t306 99h109q35 0 34 -35v-12q0 -35 -34 -35h-115
q-137 0 -229 -74q-91 -75 -91 -185t58 -194q34 -48 108 -78t185 -30h333v174q0 35 35 35h19q35 0 34 -35v-174h164q35 0 35 -35v-12q0 -35 -35 -35h-164v-229q0 -264 -122 -396t-331 -132q-210 0 -342 117q-132 118 -132 298z" />
    <glyph glyph-name="quotesingle" unicode="'" horiz-adv-x="358" 
d="M170 1143q-35 0 -35 35v239q0 35 35 35h18q35 0 35 -35v-239q0 -35 -35 -35h-18z" />
    <glyph glyph-name="parenleft" unicode="(" horiz-adv-x="524" 
d="M127 660q0 440 211 800q14 25 41 25h16q21 0 27 -11t-4 -30q-207 -371 -207 -760q0 -451 209 -838q20 -41 -23 -41h-16q-29 1 -41 21q-213 394 -213 834z" />
    <glyph glyph-name="parenright" unicode=")" horiz-adv-x="524" 
d="M311 684q0 389 -207 760q-25 41 21 41h18q27 0 41 -25q211 -360 211 -774q0 -471 -211 -856q-14 -25 -43 -25h-14q-19 1 -27 13t2 30q209 385 209 836z" />
    <glyph glyph-name="asterisk" unicode="*" horiz-adv-x="983" 
d="M475 1434h27q37 0 33 -35l-9 -301l287 98q33 10 43 -22l6 -19q12 -33 -22 -43l-287 -86v-4l180 -238q20 -31 -8 -49l-14 -10q-29 -23 -49 6l-170 246h-5l-170 -244q-22 -28 -49 -8l-16 10q-29 20 -6 49l180 238v4l-287 86q-33 10 -22 43l6 19q10 35 43 22l285 -98l-9 301
q-4 35 33 35z" />
    <glyph glyph-name="plus" unicode="+" horiz-adv-x="1228" 
d="M121 539q-35 0 -35 34v13q0 35 35 35h450v503q0 35 35 35h19q35 0 34 -35v-503h449q35 0 35 -35v-13q0 -35 -35 -34h-449v-504q0 -35 -34 -35h-19q-35 0 -35 35v504h-450z" />
    <glyph glyph-name="comma" unicode="," horiz-adv-x="456" 
d="M223 125h39q20 0 28 -11t-1 -30l-137 -332q-12 -27 -41 -26h-15q-42 -1 -28 38l114 332q8 29 41 29z" />
    <glyph glyph-name="hyphen" unicode="-" horiz-adv-x="872" 
d="M188 539q-35 0 -34 34v13q0 35 34 35h496q35 0 35 -35v-13q0 -35 -35 -34h-496z" />
    <glyph glyph-name="period" unicode="." horiz-adv-x="432" 
d="M154 35v59q0 35 34 35h56q35 0 35 -35v-59q0 -35 -35 -35h-56q-34 0 -34 35z" />
    <glyph glyph-name="slash" unicode="/" horiz-adv-x="770" 
d="M631 1516h18q19 0 27 -12t2 -27l-496 -1534q-12 -29 -41 -29h-18q-18 0 -27 11q-8 12 -2 28l496 1534q12 29 41 29z" />
    <glyph glyph-name="zero" unicode="0" horiz-adv-x="1265" 
d="M633 61q111 -1 189 49q202 127 202 607q0 655 -391 655t-391 -655q0 -480 201 -606q79 -50 190 -50zM633 -25q-483 -1 -483 741t483 742t483 -742t-483 -741z" />
    <glyph glyph-name="one" unicode="1" horiz-adv-x="874" 
d="M98 35v12q0 35 35 35h291v1167l2 72h-4q-14 -27 -76 -88l-145 -146q-25 -25 -49 0l-11 11q-27 25 -2 49l267 268q18 18 43 19h28q35 0 35 -35v-1317h283q35 0 34 -35v-12q0 -35 -34 -35h-662q-35 0 -35 35z" />
    <glyph glyph-name="two" unicode="2" horiz-adv-x="1114" 
d="M115 35v41q0 194 151 338q94 87 244 190q150 102 218 160q152 131 151 301q1 133 -91 220t-225 87t-217 -56t-129 -120q-23 -29 -49 -8l-8 6q-29 18 -10 47q150 217 397 217q201 0 313 -115t111 -278q-1 -115 -57 -213t-141 -164t-183 -136t-183 -132t-141 -150t-57 -188
h749q35 0 35 -35v-12q0 -35 -35 -35h-804q-39 0 -39 35z" />
    <glyph glyph-name="three" unicode="3" horiz-adv-x="1122" 
d="M535 61q143 -1 251 99t107 257q0 157 -114 248t-269 91h-70q-31 0 -39 26q-15 33 5 56l382 448l64 66v4q-39 -4 -111 -4h-553q-35 0 -34 34v13q0 35 34 35h752q35 0 35 -31v-6q0 -27 -17 -43l-446 -516q156 0 300 -84q77 -45 125 -133t48 -207q0 -182 -134 -310
t-321 -129q-233 1 -421 175q-25 25 0 49l16 16q23 23 49 0q160 -154 361 -154z" />
    <glyph glyph-name="four" unicode="4" horiz-adv-x="1185" 
d="M184 492h615v671l6 129h-4q-35 -51 -72 -98l-545 -698v-4zM96 410q-35 0 -35 34v2q0 27 15 43l712 924q18 20 43 21h21q35 0 35 -35v-907h178q35 0 35 -35v-13q0 -35 -35 -34h-178v-375q0 -35 -35 -35h-18q-35 0 -35 35v375h-703z" />
    <glyph glyph-name="five" unicode="5" horiz-adv-x="1107" 
d="M281 1434h598q35 0 34 -35v-13q0 -35 -34 -34h-553l-52 -428l-14 -88h4q100 66 246 65q205 0 347 -135t142 -329q0 -193 -143 -327t-346 -135q-238 1 -383 179q-23 29 6 49l17 12q27 23 49 -6q113 -147 296 -147t298 107q115 109 115 269t-115 269t-267 109t-272 -73
q-23 -14 -55 -3q-33 11 -29 42l74 619q2 33 37 33z" />
    <glyph glyph-name="six" unicode="6" horiz-adv-x="1185" 
d="M233 539q0 -166 115 -322t281 -156t260 109t94 281t-97 272t-256 100t-278 -91t-119 -193zM732 1458q140 0 235 -43q33 -12 16 -45l-10 -18q-14 -29 -47 -17q-78 37 -181 37q-159 0 -277 -101q-219 -187 -243 -558h4q59 90 169 143t237 53q193 0 317 -125
q124 -126 123 -340q0 -214 -127 -342t-313 -127q-231 1 -367 193t-135 477q0 285 141 537q70 124 194 200t264 76z" />
    <glyph glyph-name="seven" unicode="7" horiz-adv-x="1007" 
d="M760 1352h-662q-35 0 -35 34v13q0 35 35 35h838q35 0 35 -31v-8q0 -25 -10 -43l-658 -1327q-12 -25 -41 -25h-18q-45 0 -25 41l578 1178l75 133v4q-41 -4 -112 -4z" />
    <glyph glyph-name="eight" unicode="8" horiz-adv-x="1204" 
d="M223 406q0 -152 115 -249t261 -97t261 90q115 92 115 221t-102 199t-231 123q-130 53 -181 77q-238 -147 -238 -364zM944 1092q0 130 -93 206t-243 76t-238 -77t-89 -189q0 -140 160 -231q55 -33 97 -51t116 -48q74 -31 112 -47q69 54 124 166q54 111 54 195zM131 401
q0 90 32 169t98 145t118 98q-190 115 -191 293q0 148 112 250t310 102t312 -100q115 -100 114 -262q0 -98 -57 -220t-129 -184q217 -119 217 -299t-134 -299q-133 -119 -325 -119q-192 1 -334 117t-143 309z" />
    <glyph glyph-name="nine" unicode="9" horiz-adv-x="1185" 
d="M203 983q0 -173 97 -273t256 -100t278 91t118 194q0 166 -114 322q-115 155 -281 155t-260 -108t-94 -281zM440 61q158 -1 277 101q220 187 244 559h-5q-59 -90 -169 -143t-236 -54q-193 0 -317 125t-124 340t128 342q127 127 313 127q231 0 367 -192q135 -193 135 -479
t-142 -535q-69 -123 -193 -200t-264 -77t-235 43q-32 12 -16 43l10 23q12 29 47 14q84 -37 180 -37z" />
    <glyph glyph-name="colon" unicode=":" horiz-adv-x="425" 
d="M156 35v51q0 35 34 35h48q35 0 34 -35v-51q0 -35 -34 -35h-48q-34 0 -34 35zM190 903q-35 0 -34 35v51q0 35 34 35h48q35 0 34 -35v-51q0 -35 -34 -35h-48z" />
    <glyph glyph-name="semicolon" unicode=";" horiz-adv-x="548" 
d="M279 125h38q41 0 27 -41l-119 -332q-8 -27 -41 -26h-14q-39 -1 -29 38l97 332q8 29 41 29zM268 895q-35 0 -35 35v59q0 35 35 35h56q35 0 34 -35v-59q0 -35 -34 -35h-56z" />
    <glyph glyph-name="less" unicode="&#x3c;" horiz-adv-x="1228" 
d="M131 571v17q0 29 27 41l831 372q41 16 41 -26v-25q0 -29 -26 -41l-746 -327v-4l746 -328q27 -12 26 -41v-25q0 -43 -41 -26l-831 372q-27 12 -27 41z" />
    <glyph glyph-name="equal" unicode="=" horiz-adv-x="1228" 
d="M182 375q-35 0 -35 35v12q0 35 35 35h865q35 0 34 -35v-12q0 -35 -34 -35h-865zM182 702q-35 0 -35 35v13q0 35 35 34h865q35 0 34 -34v-13q0 -35 -34 -35h-865z" />
    <glyph glyph-name="greater" unicode="&#x3e;" horiz-adv-x="1228" 
d="M199 184v25q0 29 26 41l746 328v4l-746 327q-27 12 -26 41v25q0 43 41 26l831 -372q27 -12 27 -41v-17q0 -29 -27 -41l-831 -372q-41 -17 -41 26z" />
    <glyph glyph-name="question" unicode="?" horiz-adv-x="886" 
d="M299 35v55q0 35 35 35h51q35 0 35 -35v-55q0 -35 -35 -35h-51q-35 0 -35 35zM350 358q-35 0 -35 35v56q0 169 130 292q53 51 107 101q130 122 130 266q0 112 -84 188t-211 76t-235 -67q-29 -16 -48 10l-8 12q-23 31 8 49q129 82 290 82t271 -100q109 -100 109 -262
t-130 -285q-54 -51 -109 -100q-132 -118 -132 -262v-56q0 -35 -34 -35h-19z" />
    <glyph glyph-name="at" unicode="@" horiz-adv-x="1562" 
d="M608 494q0 -132 91 -224t223 -92h297v635h-293q-134 0 -226 -94t-92 -225zM127 502q0 305 209 524t500 219q246 0 360 -104t115 -258v-705h108q35 0 35 -35v-12q0 -35 -35 -35h-508q-163 0 -279 117t-116 282t116 283t279 117h308q-7 117 -95 193t-276 75
q-264 0 -447 -193q-182 -194 -182 -467t170 -463t424 -204q35 0 35 -35v-16q0 -35 -35 -35q-289 16 -487 232t-199 520z" />
    <glyph glyph-name="A" unicode="A" horiz-adv-x="1224" 
d="M338 578h547l-217 581l-54 172h-4q-31 -111 -53 -172zM594 1434h37q31 0 39 -29l512 -1364q14 -41 -29 -41h-23q-31 0 -38 27l-177 469h-608l-174 -467q-8 -29 -39 -29h-22q-43 0 -29 41l512 1364q8 29 39 29z" />
    <glyph glyph-name="B" unicode="B" horiz-adv-x="1239" 
d="M303 82h406q145 0 230 84t85 228t-89 232t-228 87h-404v-631zM303 795h391q121 1 197 77t76 203t-75 202t-200 75h-389v-557zM215 35v1364q0 35 35 35h446q160 0 261 -98t102 -261q0 -223 -187 -313v-4q109 -31 177 -129t67 -234q0 -179 -112 -287t-287 -108h-467
q-35 0 -35 35z" />
    <glyph glyph-name="C" unicode="C" horiz-adv-x="1460" 
d="M827 -25q-310 -1 -511 217t-201 533t200 524q201 209 504 209t494 -158q26 -23 -6 -61q-23 -25 -50 -4q-193 139 -447 139t-429 -183q-174 -183 -174 -466t175 -474q176 -191 442 -191t470 169q25 23 49 -2l9 -10q23 -25 -2 -49q-213 -193 -523 -193z" />
    <glyph glyph-name="D" unicode="D" horiz-adv-x="1499" 
d="M303 82h348q291 0 464 166t173 468t-173 469t-464 167h-348v-1270zM215 35v1364q0 35 35 35h416q324 0 520 -190t194 -528q0 -337 -194 -527q-195 -189 -520 -189h-416q-35 0 -35 35z" />
    <glyph glyph-name="E" unicode="E" horiz-adv-x="1128" 
d="M215 35v1364q0 35 35 35h715q35 0 34 -35v-13q0 -35 -34 -34h-662v-588h537q35 0 34 -35v-12q0 -35 -34 -35h-537v-600h701q35 0 34 -35v-12q0 -35 -34 -35h-754q-35 0 -35 35z" />
    <glyph glyph-name="F" unicode="F" horiz-adv-x="1005" 
d="M215 35v1364q0 35 35 35h653q35 0 35 -35v-13q0 -35 -35 -34h-600v-598h514q35 0 35 -35v-12q0 -35 -35 -35h-514v-637q0 -35 -35 -35h-18q-35 0 -35 35z" />
    <glyph glyph-name="G" unicode="G" horiz-adv-x="1525" 
d="M115 716q0 312 206 527t494 215t488 -139q29 -23 4 -49l-11 -13q-18 -29 -49 -8q-180 125 -433 125t-430 -188t-177 -469t173 -469t437 -189q212 0 407 152q44 35 64 59l21 25v276h-222q-35 0 -34 35v12q0 35 34 35h275q35 0 35 -35v-583q0 -35 -35 -35h-19q-35 0 -34 35
v90l2 61h-4q-15 -20 -71 -65t-110 -73t-137 -50q-84 -22 -172 -23q-299 0 -501 214q-201 215 -201 527z" />
    <glyph glyph-name="H" unicode="H" horiz-adv-x="1515" 
d="M215 35v1364q0 35 35 35h18q35 0 35 -35v-639h909v639q0 35 35 35h19q35 0 34 -35v-1364q0 -35 -34 -35h-19q-35 0 -35 35v643h-909v-643q0 -35 -35 -35h-18q-35 0 -35 35z" />
    <glyph glyph-name="I" unicode="I" horiz-adv-x="518" 
d="M215 35v1364q0 35 35 35h18q35 0 35 -35v-1364q0 -35 -35 -35h-18q-35 0 -35 35z" />
    <glyph glyph-name="J" unicode="J" horiz-adv-x="1021" 
d="M59 403q0 33 35 33h21q31 0 32 -43q14 -334 293 -334q125 0 211 79t86 251v963h-307q-35 0 -35 34v13q0 35 35 35h361q35 0 34 -35v-1008q1 -213 -111 -314t-272 -101t-272 102q-112 104 -111 325z" />
    <glyph glyph-name="K" unicode="K" horiz-adv-x="1153" 
d="M215 35v1364q0 35 35 35h18q35 0 35 -35v-604h266l396 616q14 23 41 23h28q20 0 28 -12t-3 -31l-414 -633v-4l442 -713q12 -16 7 -29q-6 -12 -29 -12h-31q-27 0 -41 23l-424 690h-266v-678q0 -35 -35 -35h-18q-35 0 -35 35z" />
    <glyph glyph-name="L" unicode="L" horiz-adv-x="1001" 
d="M215 35v1364q0 35 35 35h18q35 0 35 -35v-1317h649q35 0 35 -35v-12q0 -35 -35 -35h-702q-35 0 -35 35z" />
    <glyph glyph-name="M" unicode="M" horiz-adv-x="1699" 
d="M307 1434h25q29 0 41 -27l405 -875l70 -161h4q37 92 70 161l405 875q12 27 41 27h25q31 0 34 -33l111 -1364q0 -37 -35 -37h-18q-31 0 -35 33l-86 1061l-6 190h-4q-41 -121 -74 -190l-373 -791q-12 -27 -41 -27h-32q-29 0 -41 27l-371 791l-76 194h-4q0 -125 -6 -194
l-86 -1061q-4 -33 -35 -33h-18q-35 0 -35 37l110 1364q4 33 35 33z" />
    <glyph glyph-name="N" unicode="N" horiz-adv-x="1527" 
d="M215 35v1364q0 35 35 35h20q27 0 43 -23l801 -1102l117 -180h4q-10 109 -10 180v1090q0 35 35 35h18q35 0 35 -35v-1364q0 -35 -35 -35h-21q-27 0 -43 23l-800 1101l-117 181h-4q10 -109 10 -181v-1089q0 -35 -35 -35h-18q-35 0 -35 35z" />
    <glyph glyph-name="O" unicode="O" horiz-adv-x="1675" 
d="M205 724q0 -280 181 -472q182 -192 452 -193q270 0 451 193t181 472q0 278 -181 464t-451 186t-452 -185q-181 -185 -181 -465zM113 723q0 313 209 524t516 211t516 -211t209 -524t-209 -530t-516 -217t-516 216q-209 218 -209 531z" />
    <glyph glyph-name="P" unicode="P" horiz-adv-x="1191" 
d="M303 676h379q160 0 254 90t94 250t-94 248t-254 88h-379v-676zM215 35v1364q0 35 35 35h436q190 0 313 -114t123 -306t-123 -306t-313 -114h-383v-559q0 -35 -35 -35h-18q-35 0 -35 35z" />
    <glyph glyph-name="Q" unicode="Q" horiz-adv-x="1677" 
d="M207 722q0 -278 181 -470q182 -192 440 -193q258 0 434 160l-160 166q-28 28 8 55q25 25 49 0l158 -164q156 188 156 458q-1 270 -183 455t-451 185t-451 -186q-181 -188 -181 -466zM115 724q0 312 208 523t517 211t517 -211t208 -519t-189 -513l160 -166q28 -28 -8 -55
q-25 -25 -49 0l-158 164q-201 -182 -497 -182t-502 218q-207 218 -207 530z" />
    <glyph glyph-name="R" unicode="R" horiz-adv-x="1230" 
d="M303 717h389q139 0 223 91t84 239q0 93 -45 167q-46 74 -116 106t-207 32h-328v-635zM215 35v1364q0 35 35 35h385q172 0 261 -44t142 -134q54 -90 54 -226q0 -135 -80 -243t-207 -136v-4q14 -16 33 -51l299 -555q20 -41 -25 -41h-29q-29 0 -41 25l-327 610h-412v-600
q0 -35 -35 -35h-18q-35 0 -35 35z" />
    <glyph glyph-name="S" unicode="S" horiz-adv-x="1056" 
d="M860 336q0 120 -76 196t-184 122t-214 94q-108 48 -184 134q-76 85 -75 208q0 166 124 267q125 101 317 101t329 -112q27 -20 8 -48l-12 -18q-20 -29 -49 -6q-132 98 -280 98t-246 -76t-99 -190q0 -114 76 -187q75 -73 183 -117t216 -93t183 -137q76 -88 75 -218
q0 -166 -114 -272t-324 -106q-211 0 -391 153q-25 25 -2 49l14 17q23 27 49 2q154 -135 351 -136q143 0 234 78t91 197z" />
    <glyph glyph-name="T" unicode="T" horiz-adv-x="1181" 
d="M547 35v1317h-500q-35 0 -35 34v13q0 35 35 35h1088q35 0 34 -35v-13q0 -35 -34 -34h-500v-1317q0 -35 -35 -35h-18q-35 0 -35 35z" />
    <glyph glyph-name="U" unicode="U" horiz-adv-x="1460" 
d="M195 492v907q0 35 34 35h19q35 0 35 -35v-903q1 -201 121 -319t325 -118t327 118t122 323v899q0 35 34 35h19q35 0 35 -35v-907q0 -236 -148 -376t-388 -140q-239 0 -387 141q-148 142 -148 375z" />
    <glyph glyph-name="V" unicode="V" horiz-adv-x="1222" 
d="M70 1434h22q31 0 39 -29l422 -1131l55 -172h4q31 104 56 172l424 1131q8 29 38 29h23q43 0 29 -41l-512 -1364q-8 -29 -39 -29h-39q-31 0 -39 29l-512 1364q-14 41 29 41z" />
    <glyph glyph-name="W" unicode="W" horiz-adv-x="1878" 
d="M127 1434h20q31 0 39 -31l295 -1137l35 -153h4q18 82 39 153l320 1139q10 29 39 29h36q29 0 39 -29l320 -1139l39 -153h4q16 84 35 153l305 1137q8 31 39 31h20q41 0 31 -39l-369 -1366q-10 -29 -39 -29h-49q-29 0 -39 29l-295 1052l-55 228h-8q-29 -135 -55 -228
l-295 -1052q-10 -29 -39 -29h-49q-31 0 -39 31l-359 1364q-10 39 31 39z" />
    <glyph glyph-name="X" unicode="X" horiz-adv-x="1122" 
d="M168 1434q25 0 41 -23l354 -594h4q45 90 88 160l263 434q14 23 40 23h31q23 0 29 -12t-6 -29l-389 -635l438 -717q12 -17 6 -29t-29 -12h-28q-27 0 -41 23l-410 675h-4q-43 -84 -86 -155l-313 -520q-14 -23 -41 -23h-29q-20 0 -28 12q-7 13 3 29l439 717l-387 635
q-10 16 -3 28t27 13h31z" />
    <glyph glyph-name="Y" unicode="Y" horiz-adv-x="1110" 
d="M512 35v588l-463 770q-10 16 -3 28t28 13h24q25 0 41 -23l326 -543l88 -161h4q45 92 88 161l326 543q16 23 41 23h24q20 0 28 -12t-3 -29l-461 -770v-588q0 -35 -35 -35h-18q-35 0 -35 35z" />
    <glyph glyph-name="Z" unicode="Z" horiz-adv-x="1155" 
d="M70 35v10q0 25 14 45l774 1131l98 131v4q-33 -4 -104 -4h-705q-35 0 -34 34v13q0 35 34 35h881q35 0 35 -35v-10q0 -25 -14 -46l-775 -1130l-98 -131v-4q33 4 105 4h753q35 0 35 -35v-12q0 -35 -35 -35h-930q-34 0 -34 35z" />
    <glyph glyph-name="bracketleft" unicode="[" horiz-adv-x="514" 
d="M190 -160v1610q0 35 35 35h152q35 0 35 -35v-12q0 -35 -35 -35h-98v-1516h98q35 0 35 -34v-13q0 -35 -35 -35h-152q-35 0 -35 35z" />
    <glyph glyph-name="backslash" unicode="\" horiz-adv-x="770" 
d="M139 1516q29 0 41 -29l496 -1534q6 -15 -2 -27t-27 -12h-18q-29 0 -41 29l-496 1534q-6 16 2 27t27 12h18z" />
    <glyph glyph-name="bracketright" unicode="]" horiz-adv-x="514" 
d="M102 -147q0 35 35 34h99v1516h-99q-35 0 -35 35v12q0 35 35 35h152q35 0 35 -35v-1610q0 -35 -35 -35h-152q-35 0 -35 35v13z" />
    <glyph glyph-name="asciicircum" unicode="^" horiz-adv-x="1228" 
d="M203 516q-43 0 -27 41l373 850q12 27 41 27h8q29 0 41 -27l373 -850q16 -41 -27 -41h-20q-29 0 -41 27l-330 768l-330 -768q-12 -27 -41 -27h-20z" />
    <glyph glyph-name="underscore" unicode="_" horiz-adv-x="1077" 
d="M31 -35q0 35 35 35h946q35 0 35 -35v-12q0 -35 -35 -35h-946q-35 0 -35 35v12z" />
    <glyph glyph-name="grave" unicode="`" horiz-adv-x="1042" 
d="M584 1536q-27 0 -43 23l-115 161q-12 18 -6 30t26 13h37q27 0 41 -22l99 -164q10 -17 5 -29t-26 -12h-18z" />
    <glyph glyph-name="a" unicode="a" horiz-adv-x="1026" 
d="M170 266q0 -76 70 -143q70 -68 192 -68q158 0 254 134t96 300v56h-65q-250 0 -341 -34q-48 -17 -101 -45q-105 -57 -105 -200zM80 272q0 204 193 285q156 68 442 68h67v34q0 305 -280 306q-141 0 -264 -78q-32 -20 -58 20q-23 29 6 49q134 92 316 92t274 -98t92 -288
v-627q0 -35 -34 -35h-17q-35 0 -35 35v100l9 92h-5q2 0 -20 -46t-78 -100q-112 -106 -255 -106q-144 0 -249 77q-104 77 -104 220z" />
    <glyph glyph-name="b" unicode="b" horiz-adv-x="1169" 
d="M622 965q-158 0 -262 -114q-104 -113 -104 -319t93 -339t256 -133t267 121q104 122 104 329t-98 331q-99 124 -256 124zM172 35v1364q0 35 35 35h16q35 0 35 -35v-498l-8 -84h4q33 83 118 152q38 31 106 55t147 25q203 1 323 -147t119 -390q0 -242 -128 -389t-331 -148
q-72 0 -135 24t-124 78t-83 107l-12 23h-4q8 -37 8 -90v-82q0 -35 -35 -35h-16q-35 0 -35 35z" />
    <glyph glyph-name="c" unicode="c" horiz-adv-x="1091" 
d="M98 510q0 238 155 388t366 151q211 0 352 -123q25 -20 2 -49l-10 -15q-20 -27 -50 -4q-123 106 -297 106t-300 -125q-128 -126 -128 -328t127 -327t311 -125t316 119q25 25 47 -4l10 -14q18 -25 -8 -47q-151 -137 -369 -137t-371 148t-153 386z" />
    <glyph glyph-name="d" unicode="d" horiz-adv-x="1169" 
d="M193 514q0 -207 99 -331t256 -124t261 114q104 113 104 319t-93 339t-256 133t-267 -121q-104 -122 -104 -329zM102 512q0 242 128 389t331 148q72 0 135 -24t102 -57q78 -70 107 -128l10 -23h5q-8 37 -9 84v498q0 35 35 35h17q35 0 34 -35v-1364q0 -35 -34 -35h-17
q-35 0 -35 35v94l9 78h-5q-32 -81 -117 -152q-38 -31 -106 -55t-147 -25q-203 -1 -323 147t-120 390z" />
    <glyph glyph-name="e" unicode="e" horiz-adv-x="1112" 
d="M590 969q-144 1 -255 -95t-138 -268h729q-8 178 -100 270t-236 93zM615 -25q-209 1 -362 149t-153 392t146 388t347 144q203 0 313 -132t110 -355q0 -35 -37 -35h-789q0 -215 126 -341t304 -126t298 105q29 23 47 -6l12 -17q18 -25 -8 -45q-145 -121 -354 -121z" />
    <glyph glyph-name="f" unicode="f" horiz-adv-x="595" 
d="M199 35v905h-95q-35 0 -34 35v8q0 35 34 35h95v47q1 113 35 193t90 118q99 66 198 68h19q35 0 34 -35v-12q0 -33 -45 -35q-90 -4 -156 -48q-91 -61 -89 -247v-49h245q35 0 35 -35v-8q0 -35 -35 -35h-245v-905q0 -35 -35 -35h-17q-34 0 -34 35z" />
    <glyph glyph-name="g" unicode="g" horiz-adv-x="1157" 
d="M556 84q159 0 252 105t93 337t-96 334q-96 104 -260 104t-257 -112t-93 -320t101 -328t260 -120zM540 -346q146 0 253 88q106 88 106 264v119l8 84h-4q-102 -209 -344 -209q-203 0 -329 145t-126 385t121 380q121 138 328 139q158 0 237 -66q80 -66 103 -115l8 -20h4
q-6 14 -6 39v102q0 35 35 35h16q35 0 35 -35v-983q0 -221 -134 -329t-333 -107q-152 0 -291 63q-33 14 -16 48l10 18q14 27 45 12q128 -57 274 -57z" />
    <glyph glyph-name="h" unicode="h" horiz-adv-x="1183" 
d="M172 35v1364q0 35 35 35h16q35 0 35 -35v-555l-8 -84h4q35 98 149 193q115 95 294 95t254 -100q75 -102 75 -299v-614q0 -35 -35 -35h-16q-35 0 -35 35v583q0 205 -61 275t-191 72q-178 0 -304 -131t-126 -330v-469q0 -35 -35 -35h-16q-35 0 -35 35z" />
    <glyph glyph-name="i" unicode="i" horiz-adv-x="430" 
d="M172 35v954q0 35 35 35h16q35 0 35 -35v-954q0 -35 -35 -35h-16q-35 0 -35 35zM199 1284q-35 0 -35 35v80q0 35 35 35h32q35 0 35 -35v-80q0 -35 -35 -35h-32z" />
    <glyph glyph-name="j" unicode="j" horiz-adv-x="430" 
d="M172 -43v1032q0 35 35 35h16q35 0 35 -35v-1030q0 -117 -36 -199t-93 -118q-100 -62 -197 -62h-16q-35 0 -35 35v8q0 31 41 34t77 13q173 48 173 287zM199 1284q-35 0 -35 35v80q0 35 35 35h32q35 0 35 -35v-80q0 -35 -35 -35h-32z" />
    <glyph glyph-name="k" unicode="k" horiz-adv-x="952" 
d="M172 35v1364q0 35 35 35h16q35 0 35 -35v-778h182l316 383q18 20 43 20h30q23 0 28 -13t-9 -30l-334 -397v-4l377 -537q12 -19 6 -31t-29 -12h-30q-27 0 -41 23l-357 518h-182v-506q0 -35 -35 -35h-16q-35 0 -35 35z" />
    <glyph glyph-name="l" unicode="l" horiz-adv-x="468" 
d="M174 207v1192q0 35 35 35h16q35 0 35 -35v-1163q0 -105 37 -130t76 -30q39 -6 39 -35v-12q0 -37 -37 -37q-64 0 -111 28q-90 52 -90 187z" />
    <glyph glyph-name="m" unicode="m" horiz-adv-x="1863" 
d="M172 35v954q0 35 35 35h16q35 0 35 -35v-145l-8 -84h4q39 115 157 202t253 87q275 0 307 -279h4q45 113 153 196q109 83 236 83q188 1 265 -101t77 -299v-614q0 -35 -35 -35h-16q-35 0 -35 35v583q0 168 -53 260t-208 91q-155 1 -265 -141t-111 -318v-475q0 -35 -35 -35
h-16q-35 0 -35 35v583q0 200 -61 274q-61 75 -189 77q-161 1 -275 -141t-114 -318v-475q0 -35 -35 -35h-16q-35 0 -35 35z" />
    <glyph glyph-name="n" unicode="n" horiz-adv-x="1183" 
d="M172 35v954q0 35 35 35h16q35 0 35 -35v-145l-8 -84h4q35 98 149 193q115 95 294 95t254 -100q75 -102 75 -299v-614q0 -35 -35 -35h-16q-35 0 -35 35v583q0 205 -61 275t-191 72q-178 0 -304 -130t-126 -325v-475q0 -35 -35 -35h-16q-35 0 -35 35z" />
    <glyph glyph-name="o" unicode="o" horiz-adv-x="1253" 
d="M186 514q0 -192 128 -323q128 -132 312 -132t313 132q128 131 128 323t-128 322t-312 129q-184 0 -313 -129q-128 -130 -128 -322zM96 516q0 225 155 379t376 154t375 -154t155 -379q0 -225 -155 -383q-156 -158 -376 -158t-375 158t-155 383z" />
    <glyph glyph-name="p" unicode="p" horiz-adv-x="1169" 
d="M622 965q-158 0 -262 -114q-104 -115 -104 -319t96 -338t256 -134t264 121q104 122 104 329t-98 331q-99 124 -256 124zM172 -375v1364q0 35 35 35h16q35 0 35 -35v-88l-6 -82h4q33 82 116 150q38 31 106 55t147 25q203 1 323 -147t119 -390q0 -242 -127 -389t-328 -148
q-74 0 -138 24t-125 76q-60 52 -83 109l-12 23h-4q8 -37 8 -90v-492q0 -35 -35 -35h-16q-35 0 -35 35z" />
    <glyph glyph-name="q" unicode="q" horiz-adv-x="1169" 
d="M193 514q0 -207 99 -331t256 -124t261 114q104 113 104 319t-93 339t-256 133t-267 -121q-104 -122 -104 -329zM102 512q0 242 128 389t331 148q184 0 302 -149q28 -34 38 -56l12 -25h5q-6 35 -7 82v88q0 35 35 35h17q35 0 34 -35v-1364q0 -35 -34 -35h-17q-35 0 -35 35
v492l9 90h-5q-32 -81 -117 -152q-38 -31 -106 -55t-147 -25q-203 -1 -323 147t-120 390z" />
    <glyph glyph-name="r" unicode="r" horiz-adv-x="657" 
d="M172 35v954q0 35 35 35h16q35 0 35 -35v-160l-8 -84h4q41 125 131 205t213 80q43 0 43 -35v-18q0 -35 -45 -35q-108 0 -188 -79q-150 -149 -150 -421v-407q0 -35 -35 -35h-16q-35 0 -35 35z" />
    <glyph glyph-name="s" unicode="s" horiz-adv-x="868" 
d="M686 243q0 81 -58 130t-140 80t-166 65q-82 34 -141 98q-58 63 -58 156q0 131 94 204t250 73t262 -88q27 -20 8 -48l-12 -16q-20 -27 -49 -4q-92 72 -210 72t-186 -46q-68 -47 -67 -131q0 -84 58 -133q57 -49 141 -81t166 -66t140 -98t58 -172t-93 -186q-93 -77 -234 -77
q-216 0 -347 125q-25 20 -4 47l13 15q20 25 49 2q121 -104 291 -105q99 -1 167 51t68 133z" />
    <glyph glyph-name="t" unicode="t" horiz-adv-x="616" 
d="M205 371v569h-101q-35 0 -34 35v8q0 35 34 35h101v256q0 35 35 35h16q35 0 35 -35v-256h233q35 0 35 -35v-8q0 -35 -35 -35h-233v-563q0 -293 250 -305q41 -2 41 -35v-10q0 -35 -35 -35q-174 0 -258 100t-84 279z" />
    <glyph glyph-name="u" unicode="u" horiz-adv-x="1173" 
d="M158 375v614q0 35 35 35h16q35 0 35 -35v-583q0 -205 61 -275t191 -72q184 1 302 139t117 326v465q0 35 35 35h17q35 0 34 -35v-954q0 -35 -34 -35h-17q-35 0 -35 35v145l9 84h-4q-35 -98 -148 -193q-114 -95 -286 -95t-250 98t-78 301z" />
    <glyph glyph-name="v" unicode="v" horiz-adv-x="940" 
d="M70 1024h20q31 0 39 -27l305 -776l35 -110h4q16 61 35 110l305 776q8 27 39 27h18q43 0 27 -41l-375 -956q-8 -27 -39 -27h-24q-31 0 -39 27l-377 956q-16 41 27 41z" />
    <glyph glyph-name="w" unicode="w" horiz-adv-x="1615" 
d="M78 1024h18q33 0 41 -29l269 -774l34 -110h4q18 61 35 110l271 770q8 29 41 29h34q33 0 41 -29l271 -770l34 -110h5q16 59 34 110l269 774q8 29 41 29h18q43 0 29 -39l-336 -956q-8 -29 -41 -29h-31q-33 0 -41 29l-274 766l-35 110h-4q-16 -61 -35 -110l-272 -766
q-8 -29 -41 -29h-31q-33 0 -41 29l-336 956q-14 39 29 39z" />
    <glyph glyph-name="x" unicode="x" horiz-adv-x="929" 
d="M127 1024h27q27 0 41 -23l233 -350l35 -57h4q18 31 35 57l233 350q14 23 41 23h27q23 0 29 -12t-7 -31l-301 -440l340 -498q12 -19 6 -31t-28 -12h-29q-27 0 -41 23l-268 401l-37 59h-4q-16 -29 -37 -59l-268 -401q-14 -23 -41 -23h-29q-23 0 -29 12q-5 13 7 31l340 498
l-302 440q-12 19 -6 31t29 12z" />
    <glyph glyph-name="y" unicode="y" horiz-adv-x="985" 
d="M174 -348q125 0 203 184l72 170l-408 977q-16 41 27 41h20q27 0 39 -27l328 -790l37 -96h4q14 47 34 96l328 790q12 27 39 27h21q43 0 26 -41l-508 -1216q-84 -197 -262 -197q-72 0 -139 39q-31 16 -15 45l9 14q16 29 47 15q61 -31 98 -31z" />
    <glyph glyph-name="z" unicode="z" horiz-adv-x="989" 
d="M74 35v10q0 27 14 43l606 762l80 94v4q-37 -4 -104 -4h-535q-35 0 -35 35v10q0 35 35 35h721q35 0 35 -35v-10q0 -27 -14 -43l-609 -762l-82 -94v-4q39 4 107 4h586q35 0 34 -35v-10q0 -35 -34 -35h-770q-35 0 -35 35z" />
    <glyph glyph-name="braceleft" unicode="{" horiz-adv-x="595" 
d="M242 180v193q0 182 -146 235q-29 12 -28 39v21q0 27 28 39q145 53 146 235v164q0 119 29 201q30 83 76 117q76 57 147 59h10q35 0 35 -35v-12q0 -35 -43 -35t-85 -35q-81 -69 -81 -258v-188q0 -112 -54 -175t-92 -77l-16 -9v-4q20 -7 52 -29q107 -76 110 -231v-217
q0 -192 72 -250q48 -41 93 -42q44 -1 44 -36v-12q0 -35 -35 -35h-10q-68 0 -147 60q-45 35 -75 117t-30 200z" />
    <glyph glyph-name="bar" unicode="|" horiz-adv-x="464" 
d="M188 -283v1856q0 35 35 35h19q35 0 34 -35v-1856q0 -35 -34 -34h-19q-35 -1 -35 34z" />
    <glyph glyph-name="braceright" unicode="}" horiz-adv-x="598" 
d="M59 -150q0 35 42 35t95 43q72 61 72 250v217q0 149 105 228q16 11 57 32v4q-19 6 -52 31q-32 26 -54 52q-55 67 -56 178v188q0 192 -72 250q-51 43 -94 43t-43 35v12q0 35 35 35h10q68 0 147 -60q46 -35 76 -117t29 -200v-164q0 -182 146 -235q29 -12 28 -39v-21
q0 -27 -28 -39q-145 -53 -146 -235v-193q0 -118 -30 -200t-75 -117q-76 -58 -147 -60h-10q-35 0 -35 35v12z" />
    <glyph glyph-name="asciitilde" unicode="~" horiz-adv-x="1189" 
d="M184 436q-37 0 -32 53q12 125 74 183t142 59t130 -23t83 -57q31 -33 61 -65q74 -81 159 -81q84 1 119 56t38 127q4 35 37 35h13q37 0 32 -37q-8 -134 -70 -196t-170 -62t-189 80q-31 34 -61 66q-74 81 -159 80q-84 -1 -119 -56t-39 -127q-4 -35 -36 -35h-13z" />
    <glyph glyph-name="uni00A0" unicode="&#xa0;" horiz-adv-x="512" 
 />
    <glyph glyph-name="exclamdown" unicode="&#xa1;" horiz-adv-x="485" 
d="M301 989v-55q0 -35 -35 -35h-51q-35 0 -35 35v55q0 35 35 35h51q35 0 35 -35zM252 666q35 0 35 -35v-1006q0 -35 -35 -35h-19q-35 0 -34 35v1006q0 35 34 35h19z" />
    <glyph glyph-name="cent" unicode="&#xa2;" horiz-adv-x="1128" 
d="M547 8v137q-209 17 -319 177t-110 396t110 394t319 176v135q0 35 35 35h18q35 0 35 -35v-135q233 -20 362 -258q16 -31 -18 -47l-18 -6q-29 -12 -46 16q-113 209 -313 209t-296 -135q-95 -135 -95 -350t95 -350t296 -135t313 208q16 29 46 17l18 -8q35 -12 18 -46
q-127 -238 -362 -258v-137q0 -35 -35 -35h-18q-35 0 -35 35z" />
    <glyph glyph-name="sterling" unicode="&#xa3;" horiz-adv-x="1134" 
d="M113 35v12q0 35 34 35h99v600h-58q-35 0 -34 35v12q0 35 34 35h58v332q0 154 114 258q116 104 276 104t286 -82q31 -23 4 -49l-13 -16q-20 -23 -49 -4q-104 65 -234 65t-213 -82t-83 -203v-323h371q35 0 34 -35v-12q0 -35 -34 -35h-371v-600h684q35 0 35 -35v-12
q0 -35 -35 -35h-871q-34 0 -34 35z" />
    <glyph glyph-name="yen" unicode="&#xa5;" horiz-adv-x="1167" 
d="M242 455q-35 0 -35 34v13q0 35 35 35h299v86l-60 98h-239q-35 0 -35 35v12q0 35 35 35h190l-354 590q-10 16 -3 28t27 13h25q25 0 41 -23l326 -543l88 -161h4q45 92 88 161l325 543q16 23 41 23h25q19 0 27 -12t-2 -29l-355 -590h187q35 0 34 -35v-12q0 -35 -34 -35h-236
l-57 -98v-86h293q35 0 34 -35v-13q0 -35 -34 -34h-293v-420q0 -35 -35 -35h-19q-35 0 -34 35v420h-299z" />
    <glyph glyph-name="section" unicode="&#xa7;" horiz-adv-x="792" 
d="M326 -43q98 0 164 63t65 168q0 29 -2 43l-129 936q-4 37 33 37h16q35 0 37 -33l133 -938q4 -37 4 -51q0 -133 -92 -221t-231 -88q-84 0 -160 47q-33 20 -6 49l8 11q18 25 47 8q57 -31 113 -31zM154 1149q0 133 91 221t232 88q84 0 160 -47q33 -19 -2 -61q-18 -23 -47 -7
q-57 31 -113 31q-98 0 -165 -63t-66 -168q0 -14 4 -43l129 -936q4 -37 -33 -37h-16q-35 0 -37 33l-133 938q-4 33 -4 51z" />
    <glyph glyph-name="dieresis" unicode="&#xa8;" horiz-adv-x="1042" 
d="M369 1614q-35 0 -35 35v80q0 35 35 34h24q35 0 35 -34v-80q0 -35 -35 -35h-24zM649 1614q-35 0 -35 35v80q0 35 35 34h25q35 0 35 -34v-80q0 -35 -35 -35h-25z" />
    <glyph glyph-name="copyright" unicode="&#xa9;" horiz-adv-x="1699" 
d="M430 715q0 174 117 303t309 129t328 -154q23 -27 -4 -49l-17 -14q-25 -20 -49 6q-104 123 -256 123q-152 1 -244 -101t-92 -241t92 -241t246 -101q154 0 254 123q25 29 49 4l15 -13q29 -23 6 -49q-135 -154 -328 -154q-194 0 -310 128q-116 127 -116 301zM217 716
q0 -278 181 -466q182 -188 450 -188t451 188t183 466t-182 466q-184 190 -452 190t-450 -189q-181 -189 -181 -467zM1575 716q0 -310 -212 -526t-515 -215q-303 -1 -513 215t-210 526t211 526t513 216t514 -216t212 -526z" />
    <glyph glyph-name="ordfeminine" unicode="&#xaa;" horiz-adv-x="827" 
d="M188 539q-35 0 -34 34v7q0 35 34 34h449q35 0 35 -34v-7q0 -35 -35 -34h-449zM244 981q0 -51 38 -87t116 -36q79 0 133 77t55 171v20h-27q-315 0 -315 -145zM370 782q-76 0 -143 49q-68 49 -67 142q0 227 397 227h29v8q0 170 -156 170q-70 0 -147 -41q-33 -16 -55 14
t10 50q96 53 194 53q233 0 234 -246v-379q0 -35 -35 -34h-10q-35 0 -35 34v70h-4q-6 -11 -20 -31t-66 -53q-50 -33 -126 -33z" />
    <glyph glyph-name="guillemotleft" unicode="&#xab;" horiz-adv-x="954" 
d="M444 999h27q23 0 29 -12t-8 -31l-302 -378l302 -377q14 -19 9 -31t-28 -12h-29q-25 0 -43 20l-299 375q-20 25 0 49l299 377q18 20 43 20zM772 999h27q23 0 29 -12t-9 -31l-301 -378l301 -377q14 -19 9 -31t-27 -12h-29q-25 0 -43 20l-299 375q-20 25 0 49l299 377
q18 20 43 20z" />
    <glyph glyph-name="logicalnot" unicode="&#xac;" horiz-adv-x="1286" 
d="M215 702q-35 0 -35 35v13q0 35 35 34h864q35 0 35 -34v-379q0 -35 -35 -35h-16q-35 0 -35 35v331h-813z" />
    <glyph glyph-name="uni00AD" unicode="&#xad;" horiz-adv-x="872" 
d="M188 539q-35 0 -34 34v13q0 35 34 35h496q35 0 35 -35v-13q0 -35 -35 -34h-496z" />
    <glyph glyph-name="registered" unicode="&#xae;" horiz-adv-x="1699" 
d="M698 727h172q72 0 114 43t42 118t-42 116t-114 40h-172v-317zM608 342v750q0 35 35 34h238q104 0 171 -66q66 -66 66 -161q0 -97 -45 -155t-112 -74v-4q8 -10 26 -45l141 -273q20 -41 -26 -41h-25q-29 0 -41 25l-162 317h-176v-307q0 -35 -34 -35h-21q-35 0 -35 35z
M217 716q0 -278 181 -466q182 -188 450 -188t451 188t183 466t-182 466q-184 190 -452 190t-450 -189q-181 -189 -181 -467zM1575 716q0 -310 -212 -526t-515 -215q-303 -1 -513 215t-210 526t211 526t513 216t514 -216t212 -526z" />
    <glyph glyph-name="macron" unicode="&#xaf;" horiz-adv-x="1042" 
d="M311 1610q-35 0 -35 35v12q0 35 35 35h420q35 0 35 -35v-12q0 -35 -35 -35h-420z" />
    <glyph glyph-name="degree" unicode="&#xb0;" horiz-adv-x="743" 
d="M371 1001q76 -1 128 53t52 132t-52 132t-128 54t-127 -54t-51 -132t51 -132t127 -53zM371 920q-111 0 -189 78t-78 188q0 112 78 190t189 78t189 -79t79 -189q-1 -110 -79 -188t-189 -78z" />
    <glyph glyph-name="plusminus" unicode="&#xb1;" horiz-adv-x="1228" 
d="M162 -231h905q35 0 35 -35v-13q0 -35 -35 -34h-905q-35 0 -35 34v13q0 35 35 35zM121 539q-35 0 -35 34v13q0 35 35 35h450v503q0 35 35 35h19q35 0 34 -35v-503h449q35 0 35 -35v-13q0 -35 -35 -34h-449v-504q0 -35 -34 -35h-19q-35 0 -35 35v504h-450z" />
    <glyph glyph-name="twosuperior" unicode="&#xb2;" horiz-adv-x="696" 
d="M106 866q-37 0 -36 49q0 94 47 169t112 122q67 47 133 90q160 104 160 228q0 74 -52 126t-139 52t-163 -76q-24 -24 -51 2q-25 27 -2 49q92 99 220 99q127 0 197 -73t70 -168q0 -168 -158 -273q-66 -45 -132 -87q-158 -100 -162 -235h434q35 0 34 -35v-4q0 -35 -34 -35
h-478z" />
    <glyph glyph-name="threesuperior" unicode="&#xb3;" horiz-adv-x="714" 
d="M334 846q-164 0 -260 106q-25 25 2 49q29 34 55 5q82 -86 205 -86q80 0 146 60t65 147q0 87 -67 141t-152 55h-37q-29 0 -39 25q-12 23 6 47l203 237l51 51v5q-37 -6 -78 -7h-301q-35 0 -35 35v4q0 35 35 35h453q35 0 35 -26v-9q0 -16 -17 -37l-246 -288q104 -7 186 -71
t83 -190q0 -126 -87 -206q-87 -82 -206 -82z" />
    <glyph glyph-name="acute" unicode="&#xb4;" horiz-adv-x="1042" 
d="M444 1536q-20 0 -27 12t3 29l98 164q14 23 41 22h37q20 0 26 -12t-6 -31l-114 -161q-16 -23 -43 -23h-15z" />
    <glyph glyph-name="mu" unicode="&#xb5;" horiz-adv-x="1263" 
d="M201 -375v1364q0 35 35 35h16q35 0 35 -35v-583q0 -256 115 -319q52 -28 135 -28q188 1 305 139t116 326v465q0 35 35 35h17q35 0 34 -35v-954q0 -35 -34 -35h-17q-35 0 -35 35v135l5 84h-5q-12 -35 -52 -90t-84 -92t-121 -67t-149 -30t-132 15t-93 41q-34 26 -40 39
l-8 10h-5q12 -104 13 -148v-307q0 -35 -35 -35h-16q-35 0 -35 35z" />
    <glyph glyph-name="paragraph" unicode="&#xb6;" horiz-adv-x="1103" 
d="M786 -68v1256q0 35 35 35h17q35 0 34 -35v-1256q0 -35 -34 -34h-17q-35 -1 -35 34zM573 -68v562q-201 0 -346 137t-145 334t144 333t345 136h396q35 0 34 -35v-13q0 -35 -34 -34h-308v-1420q0 -35 -34 -34h-17q-35 -1 -35 34z" />
    <glyph glyph-name="periodcentered" unicode="&#xb7;" horiz-adv-x="432" 
d="M188 522q-35 0 -34 35v59q0 35 34 35h56q35 0 35 -35v-59q0 -35 -35 -35h-56z" />
    <glyph glyph-name="cedilla" unicode="&#xb8;" horiz-adv-x="1042" 
d="M578 -266q0 68 -105 78q-16 2 -28 14q-11 13 -7 33l37 174h72l-29 -156q62 -10 102 -47q40 -36 40 -104t-54 -106q-53 -38 -138 -38t-85 41t31 41l53 -6q111 0 111 76z" />
    <glyph glyph-name="onesuperior" unicode="&#xb9;" horiz-adv-x="565" 
d="M100 866q-35 0 -34 35v4q0 35 34 35h162v666l2 45h-2q-8 -16 -47 -56l-65 -63q-25 -25 -52 3t-2 52l148 150q18 18 43 18h18q35 0 35 -35v-780h156q35 0 34 -35v-4q0 -35 -34 -35h-396z" />
    <glyph glyph-name="ordmasculine" unicode="&#xba;" horiz-adv-x="950" 
d="M211 539q-35 0 -35 34v7q0 35 35 34h532q35 0 35 -34v-7q0 -35 -35 -34h-532zM473 860q106 0 180 76t74 188t-74 184t-180 72t-180 -72t-74 -185q0 -111 74 -187t180 -76zM473 784q-139 0 -236 98t-97 240t96 238q98 96 237 96t237 -96t97 -238q1 -142 -97 -240t-237 -98
z" />
    <glyph glyph-name="guillemotright" unicode="&#xbb;" horiz-adv-x="954" 
d="M158 158q-23 0 -29 12t8 31l301 377l-301 378q-14 18 -8 30t29 13h26q25 0 43 -20l299 -377q23 -25 0 -49l-299 -375q-18 -20 -43 -20h-26zM485 999h27q25 0 43 -20l299 -377q23 -25 0 -49l-299 -375q-18 -20 -43 -20h-27q-23 0 -29 12t9 31l301 377l-301 378
q-14 18 -8 30t28 13z" />
    <glyph glyph-name="onequarter" unicode="&#xbc;" horiz-adv-x="1837" 
d="M561 0h-16q-45 0 -25 41l656 1366q12 27 41 27h14q45 0 24 -41l-653 -1366q-12 -27 -41 -27zM150 545q-35 0 -35 35v4q0 35 35 34h161v666l2 45h-2q-8 -16 -47 -55l-65 -64q-25 -25 -53 3t-1 53l148 149q18 18 43 19h18q35 0 35 -35v-781h156q35 0 35 -34v-4
q0 -35 -35 -35h-395zM1217 322h327v301l6 133h-4q-35 -55 -71 -103l-258 -327v-4zM1579 0q-35 0 -35 35v213h-405q-35 0 -35 26v11q0 18 14 34l424 549q18 20 43 21h2q35 0 35 -35v-532h104q35 0 35 -35v-4q0 -35 -35 -35h-104v-213q0 -35 -35 -35h-8z" />
    <glyph glyph-name="onehalf" unicode="&#xbd;" horiz-adv-x="1810" 
d="M1196 0q-37 0 -37 49q0 94 47 169t113 122q67 47 133 90q160 104 160 227q0 74 -52 126q-52 53 -140 53t-163 -76q-24 -24 -51 2q-25 27 -2 49q92 98 220 98q128 -1 198 -73t70 -168t-46 -162t-112 -111t-132 -87q-159 -100 -163 -234h434q35 0 35 -35v-4q0 -35 -35 -35
h-477zM147 545q-35 0 -34 35v4q0 35 34 34h162v666l2 45h-2q-8 -16 -47 -55l-65 -64q-27 -27 -53 3q-26 29 -1 53l148 149q18 18 43 19h18q35 0 35 -35v-781h156q35 0 35 -34v-4q0 -35 -35 -35h-396zM559 0h-16q-45 0 -25 41l656 1366q12 27 40 27h15q45 0 24 -41
l-653 -1366q-12 -27 -41 -27z" />
    <glyph glyph-name="threequarters" unicode="&#xbe;" horiz-adv-x="1882" 
d="M1262 322h327v301l6 133h-4q-35 -55 -71 -103l-258 -327v-4zM1624 0q-35 0 -35 35v213h-405q-35 0 -35 26v11q0 18 14 34l424 549q18 20 43 21h2q35 0 35 -35v-532h105q35 0 34 -35v-4q0 -35 -34 -35h-105v-213q0 -35 -35 -35h-8zM606 0h-16q-45 0 -25 41l656 1366
q12 27 41 27h14q45 0 24 -41l-653 -1366q-12 -27 -41 -27zM371 524q-164 0 -260 107q-25 25 4 52t53 1q82 -86 205 -86q79 0 145 60t66 148t-67 141q-67 54 -152 54h-37q-29 0 -39 25q-12 23 6 47l203 238l51 51v4q-37 -6 -78 -6h-301q-35 0 -35 35v4q0 35 35 35h453
q35 0 34 -27v-8q0 -16 -16 -37l-246 -289q105 -7 187 -71t82 -189t-87 -207t-206 -82z" />
    <glyph glyph-name="questiondown" unicode="&#xbf;" horiz-adv-x="915" 
d="M643 989v-55q0 -35 -35 -35h-51q-35 0 -35 35v55q0 35 35 35h51q35 0 35 -35zM592 666q35 0 35 -35v-56q0 -169 -130 -292q-53 -51 -107 -101q-130 -122 -130 -266q0 -112 84 -188t211 -76t236 67q29 16 47 -10l8 -12q23 -31 -8 -49q-129 -82 -290 -82q-160 0 -270 100
t-110 262t130 285q54 51 110 100q131 117 131 262v56q0 35 34 35h19z" />
    <glyph glyph-name="Agrave" unicode="&#xc0;" horiz-adv-x="1224" 
d="M594 1536q-27 0 -43 23l-115 161q-12 18 -6 30t27 13h37q27 0 41 -22l98 -164q10 -17 5 -29t-26 -12h-18zM338 578h547l-217 581l-54 172h-4q-31 -111 -53 -172zM594 1434h37q31 0 39 -29l512 -1364q14 -41 -29 -41h-23q-31 0 -38 27l-177 469h-608l-174 -467
q-8 -29 -39 -29h-22q-43 0 -29 41l512 1364q8 29 39 29z" />
    <glyph glyph-name="Aacute" unicode="&#xc1;" horiz-adv-x="1224" 
d="M614 1536q-20 0 -27 12t3 29l98 164q14 23 41 22h37q20 0 26 -12t-6 -31l-114 -161q-16 -23 -43 -23h-15zM338 578h547l-217 581l-54 172h-4q-31 -111 -53 -172zM594 1434h37q31 0 39 -29l512 -1364q14 -41 -29 -41h-23q-31 0 -38 27l-177 469h-608l-174 -467
q-8 -29 -39 -29h-22q-43 0 -29 41l512 1364q8 29 39 29z" />
    <glyph glyph-name="Acircumflex" unicode="&#xc2;" horiz-adv-x="1224" 
d="M446 1536q-20 0 -26 12t6 31l117 162q16 23 43 22h53q27 0 43 -22l117 -162q12 -19 7 -31t-26 -12h-24q-27 0 -41 23l-101 141h-4l-100 -141q-14 -23 -41 -23h-23zM338 578h547l-217 581l-54 172h-4q-31 -111 -53 -172zM594 1434h37q31 0 39 -29l512 -1364
q14 -41 -29 -41h-23q-31 0 -38 27l-177 469h-608l-174 -467q-8 -29 -39 -29h-22q-43 0 -29 41l512 1364q8 29 39 29z" />
    <glyph glyph-name="Atilde" unicode="&#xc3;" horiz-adv-x="1224" 
d="M350 1542q-31 0 -31 45q1 80 47 128t107 48q100 0 159 -76t107 -76q47 1 68 35q20 34 20 72t37 39h13q31 0 30 -37q0 -86 -45 -135q-46 -49 -108 -49q-102 0 -159 76t-106 76q-87 0 -90 -113q0 -33 -37 -33h-12zM338 578h547l-217 581l-54 172h-4q-31 -111 -53 -172z
M594 1434h37q31 0 39 -29l512 -1364q14 -41 -29 -41h-23q-31 0 -38 27l-177 469h-608l-174 -467q-8 -29 -39 -29h-22q-43 0 -29 41l512 1364q8 29 39 29z" />
    <glyph glyph-name="Adieresis" unicode="&#xc4;" horiz-adv-x="1224" 
d="M461 1614q-35 0 -35 35v80q0 35 35 34h24q35 0 35 -34v-80q0 -35 -35 -35h-24zM741 1614q-35 0 -34 35v80q0 35 34 34h25q35 0 35 -34v-80q0 -35 -35 -35h-25zM338 578h547l-217 581l-54 172h-4q-31 -111 -53 -172zM594 1434h37q31 0 39 -29l512 -1364q14 -41 -29 -41
h-23q-31 0 -38 27l-177 469h-608l-174 -467q-8 -29 -39 -29h-22q-43 0 -29 41l512 1364q8 29 39 29z" />
    <glyph glyph-name="Aring" unicode="&#xc5;" horiz-adv-x="1224" 
d="M612 1587q29 1 47 19q19 18 19 48t-18 48t-48 18q-29 0 -47 -18t-18 -48t18 -48t47 -19zM612 1516q-59 0 -98 38t-39 98t39 99t98 39q58 0 98 -39t40 -98t-39 -99q-40 -38 -99 -38zM338 578h547l-217 581l-54 172h-4q-31 -111 -53 -172zM594 1434h37q31 0 39 -29
l512 -1364q14 -41 -29 -41h-23q-31 0 -38 27l-177 469h-608l-174 -467q-8 -29 -39 -29h-22q-43 0 -29 41l512 1364q8 29 39 29z" />
    <glyph glyph-name="AE" unicode="&#xc6;" horiz-adv-x="1656" 
d="M743 764v588h-73l-242 -588h315zM637 1434h856q35 0 35 -35v-13q0 -35 -35 -34h-662v-588h537q35 0 35 -35v-12q0 -35 -35 -35h-537v-600h701q35 0 35 -35v-12q0 -35 -35 -35h-754q-35 0 -35 35v647h-350l-268 -655q-8 -27 -39 -27h-23q-42 0 -26 41l561 1366q8 27 39 27
z" />
    <glyph glyph-name="Ccedilla" unicode="&#xc7;" horiz-adv-x="1464" 
d="M891 -266q0 68 -105 78q-16 2 -27 14t-7 33l24 118q-293 19 -476 233t-183 522t200 517q201 209 504 209t494 -158q26 -23 -6 -61q-23 -25 -49 -4q-193 139 -448 139t-429 -183t-174 -466t175 -474q176 -191 442 -191t470 169q28 26 58 -12q23 -25 -2 -49
q-207 -186 -502 -193l-19 -98q63 -10 103 -47q40 -36 39 -104q0 -68 -53 -106q-52 -38 -138 -38t-86 41t31 41l53 -6q111 0 111 76z" />
    <glyph glyph-name="Egrave" unicode="&#xc8;" horiz-adv-x="1128" 
d="M614 1536q-27 0 -43 23l-114 161q-12 18 -6 30t26 13h37q27 0 41 -22l98 -164q10 -17 5 -29t-25 -12h-19zM215 35v1364q0 35 35 35h715q35 0 34 -35v-13q0 -35 -34 -34h-662v-588h537q35 0 34 -35v-12q0 -35 -34 -35h-537v-600h701q35 0 34 -35v-12q0 -35 -34 -35h-754
q-35 0 -35 35z" />
    <glyph glyph-name="Eacute" unicode="&#xc9;" horiz-adv-x="1128" 
d="M635 1536q-20 0 -28 12q-7 12 3 29l99 164q14 23 41 22h36q20 0 26 -12t-5 -31l-115 -161q-16 -23 -43 -23h-14zM215 35v1364q0 35 35 35h715q35 0 34 -35v-13q0 -35 -34 -34h-662v-588h537q35 0 34 -35v-12q0 -35 -34 -35h-537v-600h701q35 0 34 -35v-12q0 -35 -34 -35
h-754q-35 0 -35 35z" />
    <glyph glyph-name="Ecircumflex" unicode="&#xca;" horiz-adv-x="1128" 
d="M467 1536q-20 0 -27 12q-6 12 6 31l117 162q16 23 43 22h53q27 0 43 -22l117 -162q12 -19 7 -31t-25 -12h-25q-27 0 -41 23l-100 141h-4l-101 -141q-14 -23 -41 -23h-22zM215 35v1364q0 35 35 35h715q35 0 34 -35v-13q0 -35 -34 -34h-662v-588h537q35 0 34 -35v-12
q0 -35 -34 -35h-537v-600h701q35 0 34 -35v-12q0 -35 -34 -35h-754q-35 0 -35 35z" />
    <glyph glyph-name="Edieresis" unicode="&#xcb;" horiz-adv-x="1128" 
d="M481 1614q-35 0 -35 35v80q0 35 35 34h25q35 0 35 -34v-80q0 -35 -35 -35h-25zM762 1614q-35 0 -35 35v80q0 35 35 34h24q35 0 35 -34v-80q0 -35 -35 -35h-24zM215 35v1364q0 35 35 35h715q35 0 34 -35v-13q0 -35 -34 -34h-662v-588h537q35 0 34 -35v-12q0 -35 -34 -35
h-537v-600h701q35 0 34 -35v-12q0 -35 -34 -35h-754q-35 0 -35 35z" />
    <glyph glyph-name="Igrave" unicode="&#xcc;" horiz-adv-x="518" 
d="M242 1536q-27 0 -43 23l-115 161q-12 18 -6 30t26 13h37q27 0 41 -22l99 -164q10 -17 5 -29t-26 -12h-18zM215 35v1364q0 35 35 35h18q35 0 35 -35v-1364q0 -35 -35 -35h-18q-35 0 -35 35z" />
    <glyph glyph-name="Iacute" unicode="&#xcd;" horiz-adv-x="518" 
d="M262 1536q-20 0 -28 12q-7 12 4 29l98 164q14 23 41 22h37q20 0 26 -12t-6 -31l-115 -161q-16 -23 -43 -23h-14zM215 35v1364q0 35 35 35h18q35 0 35 -35v-1364q0 -35 -35 -35h-18q-35 0 -35 35z" />
    <glyph glyph-name="Icircumflex" unicode="&#xce;" horiz-adv-x="518" 
d="M94 1536q-20 0 -26 12t6 31l116 162q16 23 43 22h54q27 0 43 -22l116 -162q12 -18 8 -31q-5 -12 -26 -12h-25q-27 0 -41 23l-100 141h-4l-100 -141q-14 -23 -41 -23h-23zM215 35v1364q0 35 35 35h18q35 0 35 -35v-1364q0 -35 -35 -35h-18q-35 0 -35 35z" />
    <glyph glyph-name="Idieresis" unicode="&#xcf;" horiz-adv-x="518" 
d="M109 1614q-35 0 -35 35v80q0 35 35 34h24q35 0 35 -34v-80q0 -35 -35 -35h-24zM389 1614q-35 0 -35 35v80q0 35 35 34h25q35 0 35 -34v-80q0 -35 -35 -35h-25zM215 35v1364q0 35 35 35h18q35 0 35 -35v-1364q0 -35 -35 -35h-18q-35 0 -35 35z" />
    <glyph glyph-name="Eth" unicode="&#xd0;" horiz-adv-x="1499" 
d="M303 82h348q291 0 464 166t173 468t-173 469t-464 167h-348v-588h340q35 0 35 -35v-12q0 -35 -35 -35h-340v-600zM215 35v647h-88q-35 0 -35 35v12q0 35 35 35h88v635q0 35 35 35h416q324 0 520 -190t194 -528q0 -337 -194 -527q-195 -189 -520 -189h-416q-35 0 -35 35z
" />
    <glyph glyph-name="Ntilde" unicode="&#xd1;" horiz-adv-x="1527" 
d="M502 1542q-31 0 -31 45q0 80 46 128q45 48 107 48q102 0 160 -76t106 -76q86 2 89 113q0 33 37 33h12q31 0 31 -37q0 -86 -45 -135q-46 -49 -108 -49q-101 0 -159 76q-59 76 -107 76q-89 0 -89 -113q0 -33 -37 -33h-12zM215 35v1364q0 35 35 35h20q27 0 43 -23l801 -1102
l117 -180h4q-10 109 -10 180v1090q0 35 35 35h18q35 0 35 -35v-1364q0 -35 -35 -35h-21q-27 0 -43 23l-800 1101l-117 181h-4q10 -109 10 -181v-1089q0 -35 -35 -35h-18q-35 0 -35 35z" />
    <glyph glyph-name="Ograve" unicode="&#xd2;" horiz-adv-x="1675" 
d="M819 1536q-27 0 -43 23l-114 161q-12 18 -7 31q6 12 27 12h37q27 0 41 -22l98 -164q10 -17 5 -29t-25 -12h-19zM205 724q0 -280 181 -472q182 -192 452 -193q270 0 451 193t181 472q0 278 -181 464t-451 186t-452 -185q-181 -185 -181 -465zM113 723q0 313 209 524
t516 211t516 -211t209 -524t-209 -530t-516 -217t-516 216q-209 218 -209 531z" />
    <glyph glyph-name="Oacute" unicode="&#xd3;" horiz-adv-x="1675" 
d="M840 1536q-20 0 -28 12q-7 12 3 29l98 164q14 23 41 22h37q21 0 27 -12t-6 -31l-115 -161q-16 -23 -43 -23h-14zM205 724q0 -280 181 -472q182 -192 452 -193q270 0 451 193t181 472q0 278 -181 464t-451 186t-452 -185q-181 -185 -181 -465zM113 723q0 313 209 524
t516 211t516 -211t209 -524t-209 -530t-516 -217t-516 216q-209 218 -209 531z" />
    <glyph glyph-name="Ocircumflex" unicode="&#xd4;" horiz-adv-x="1675" 
d="M672 1536q-20 0 -27 12q-6 12 6 31l117 162q16 23 43 22h53q27 0 43 -22l117 -162q12 -19 7 -31t-25 -12h-25q-27 0 -41 23l-100 141h-4l-101 -141q-14 -23 -41 -23h-22zM205 724q0 -280 181 -472q182 -192 452 -193q270 0 451 193t181 472q0 278 -181 464t-451 186
t-452 -185q-181 -185 -181 -465zM113 723q0 313 209 524t516 211t516 -211t209 -524t-209 -530t-516 -217t-516 216q-209 218 -209 531z" />
    <glyph glyph-name="Otilde" unicode="&#xd5;" horiz-adv-x="1675" 
d="M575 1542q-31 0 -30 45q0 80 46 128q45 48 107 48q102 0 160 -76t106 -76q86 2 89 113q0 33 37 33h12q31 0 31 -37q1 -86 -45 -135t-108 -49q-100 0 -159 76t-107 76q-89 0 -89 -113q0 -33 -37 -33h-13zM205 724q0 -280 181 -472q182 -192 452 -193q270 0 451 193
t181 472q0 278 -181 464t-451 186t-452 -185q-181 -185 -181 -465zM113 723q0 313 209 524t516 211t516 -211t209 -524t-209 -530t-516 -217t-516 216q-209 218 -209 531z" />
    <glyph glyph-name="Odieresis" unicode="&#xd6;" horiz-adv-x="1675" 
d="M686 1614q-35 0 -35 35v80q0 35 35 34h25q35 0 34 -34v-80q0 -35 -34 -35h-25zM967 1614q-35 0 -35 35v80q0 35 35 34h24q35 0 35 -34v-80q0 -35 -35 -35h-24zM205 724q0 -280 181 -472q182 -192 452 -193q270 0 451 193t181 472q0 278 -181 464t-451 186t-452 -185
q-181 -185 -181 -465zM113 723q0 313 209 524t516 211t516 -211t209 -524t-209 -530t-516 -217t-516 216q-209 218 -209 531z" />
    <glyph glyph-name="multiply" unicode="&#xd7;" horiz-adv-x="1228" 
d="M123 35q-25 20 -2 49l436 496l-436 495q-23 29 2 49q35 38 59 9l432 -490l433 490q25 29 59 -9q25 -20 2 -49l-438 -495l438 -496q23 -29 -2 -49l-10 -10q-27 -25 -49 2l-433 489l-432 -489q-23 -27 -49 -2z" />
    <glyph glyph-name="Oslash" unicode="&#xd8;" horiz-adv-x="1673" 
d="M1470 738q0 292 -221 483l-755 -1057q152 -104 342 -105q264 0 449 193q185 194 185 486zM838 1374q-264 0 -448 -187t-185 -462q-1 -152 59 -285t162 -223l754 1055q-154 102 -342 102zM838 1458q211 0 393 -117l80 113q23 29 57 2t12 -53l-80 -113q262 -218 262 -548
t-211 -548q-212 -218 -513 -219q-213 0 -394 119l-79 -112q-23 -29 -58 -5q-32 25 -14 54l82 114q-123 104 -193 256t-69 324q0 309 212 521t513 212z" />
    <glyph glyph-name="Ugrave" unicode="&#xd9;" horiz-adv-x="1460" 
d="M711 1536q-27 0 -43 23l-115 161q-12 18 -6 30t26 13h37q27 0 41 -22l99 -164q10 -17 5 -29t-26 -12h-18zM195 492v907q0 35 34 35h19q35 0 35 -35v-903q1 -201 121 -319t325 -118t327 118t122 323v899q0 35 34 35h19q35 0 35 -35v-907q0 -236 -148 -376t-388 -140
q-239 0 -387 141q-148 142 -148 375z" />
    <glyph glyph-name="Uacute" unicode="&#xda;" horiz-adv-x="1460" 
d="M731 1536q-20 0 -28 12q-7 12 4 29l98 164q14 23 41 22h37q20 0 26 -12t-6 -31l-115 -161q-16 -23 -43 -23h-14zM195 492v907q0 35 34 35h19q35 0 35 -35v-903q1 -201 121 -319t325 -118t327 118t122 323v899q0 35 34 35h19q35 0 35 -35v-907q0 -236 -148 -376t-388 -140
q-239 0 -387 141q-148 142 -148 375z" />
    <glyph glyph-name="Ucircumflex" unicode="&#xdb;" horiz-adv-x="1460" 
d="M563 1536q-20 0 -26 12t6 31l116 162q16 23 43 22h54q27 0 43 -22l116 -162q12 -18 8 -31q-5 -12 -26 -12h-25q-27 0 -41 23l-100 141h-4l-100 -141q-14 -23 -41 -23h-23zM195 492v907q0 35 34 35h19q35 0 35 -35v-903q1 -201 121 -319t325 -118t327 118t122 323v899
q0 35 34 35h19q35 0 35 -35v-907q0 -236 -148 -376t-388 -140q-239 0 -387 141q-148 142 -148 375z" />
    <glyph glyph-name="Udieresis" unicode="&#xdc;" horiz-adv-x="1460" 
d="M578 1614q-35 0 -35 35v80q0 35 35 34h24q35 0 35 -34v-80q0 -35 -35 -35h-24zM858 1614q-35 0 -35 35v80q0 35 35 34h25q35 0 35 -34v-80q0 -35 -35 -35h-25zM195 492v907q0 35 34 35h19q35 0 35 -35v-903q1 -201 121 -319t325 -118t327 118t122 323v899q0 35 34 35h19
q35 0 35 -35v-907q0 -236 -148 -376t-388 -140q-239 0 -387 141q-148 142 -148 375z" />
    <glyph glyph-name="Yacute" unicode="&#xdd;" horiz-adv-x="1110" 
d="M557 1536q-20 0 -28 12q-7 12 3 29l99 164q14 23 41 22h37q20 0 26 -12t-6 -31l-115 -161q-16 -23 -43 -23h-14zM512 35v588l-463 770q-10 16 -3 28t28 13h24q25 0 41 -23l326 -543l88 -161h4q45 92 88 161l326 543q16 23 41 23h24q20 0 28 -12t-3 -29l-461 -770v-588
q0 -35 -35 -35h-18q-35 0 -35 35z" />
    <glyph glyph-name="Thorn" unicode="&#xde;" horiz-adv-x="1198" 
d="M303 410h379q160 0 254 90t94 250t-94 248t-254 87h-379v-675zM215 35v1364q0 35 35 35h18q35 0 35 -35v-232h383q190 1 313 -113t123 -306t-123 -306q-123 -115 -317 -114h-379v-293q0 -35 -35 -35h-18q-35 0 -35 35z" />
    <glyph glyph-name="germandbls" unicode="&#xdf;" horiz-adv-x="1134" 
d="M172 35v1055q0 170 116 269t268 99t242 -85q89 -85 89 -197q0 -76 -39 -142t-85 -104q-124 -101 -124 -176q1 -80 217 -204q80 -46 148 -123t67 -165q0 -133 -92 -205q-91 -71 -237 -71t-277 59q-25 12 -25 41v18q0 43 41 27q129 -61 277 -61q94 0 158 49t65 143
q0 58 -44 112q-43 54 -107 94t-129 80q-152 94 -152 202q0 61 39 118q39 58 85 96t85 95t39 126t-65 129q-64 60 -180 60t-205 -79t-89 -212v-1048q0 -35 -35 -35h-16q-35 0 -35 35z" />
    <glyph glyph-name="agrave" unicode="&#xe0;" horiz-adv-x="1026" 
d="M487 1206q-27 0 -43 23l-114 162q-12 18 -6 30t26 13h37q27 0 41 -23l98 -164q10 -16 5 -28t-25 -13h-19zM170 266q0 -76 70 -143q70 -68 192 -68q158 0 254 134t96 300v56h-65q-250 0 -341 -34q-48 -17 -101 -45q-105 -57 -105 -200zM80 272q0 204 193 285
q156 68 442 68h67v34q0 305 -280 306q-141 0 -264 -78q-32 -20 -58 20q-23 29 6 49q134 92 316 92t274 -98t92 -288v-627q0 -35 -34 -35h-17q-35 0 -35 35v100l9 92h-5q2 0 -20 -46t-78 -100q-112 -106 -255 -106q-144 0 -249 77q-104 77 -104 220z" />
    <glyph glyph-name="aacute" unicode="&#xe1;" horiz-adv-x="1026" 
d="M506 1206q-20 0 -28 12t3 29l99 164q14 23 41 23h36q21 0 27 -12t-6 -31l-115 -162q-16 -23 -43 -23h-14zM170 266q0 -76 70 -143q70 -68 192 -68q158 0 254 134t96 300v56h-65q-250 0 -341 -34q-48 -17 -101 -45q-105 -57 -105 -200zM80 272q0 204 193 285
q156 68 442 68h67v34q0 305 -280 306q-141 0 -264 -78q-32 -20 -58 20q-23 29 6 49q134 92 316 92t274 -98t92 -288v-627q0 -35 -34 -35h-17q-35 0 -35 35v100l9 92h-5q2 0 -20 -46t-78 -100q-112 -106 -255 -106q-144 0 -249 77q-104 77 -104 220z" />
    <glyph glyph-name="acircumflex" unicode="&#xe2;" horiz-adv-x="1026" 
d="M340 1206q-20 0 -26 12t5 31l117 162q16 23 43 23h53q27 0 43 -23l117 -162q12 -18 7 -30t-25 -13h-25q-27 0 -41 23l-100 141h-4l-101 -141q-14 -23 -41 -23h-22zM170 266q0 -76 70 -143q70 -68 192 -68q158 0 254 134t96 300v56h-65q-250 0 -341 -34q-48 -17 -101 -45
q-105 -57 -105 -200zM80 272q0 204 193 285q156 68 442 68h67v34q0 305 -280 306q-141 0 -264 -78q-32 -20 -58 20q-23 29 6 49q134 92 316 92t274 -98t92 -288v-627q0 -35 -34 -35h-17q-35 0 -35 35v100l9 92h-5q2 0 -20 -46t-78 -100q-112 -106 -255 -106q-144 0 -249 77
q-104 77 -104 220z" />
    <glyph glyph-name="atilde" unicode="&#xe3;" horiz-adv-x="1026" 
d="M244 1212q-31 0 -31 45q0 80 46 128q45 49 107 49q101 1 159 -76q57 -76 106 -76q87 0 90 113q0 33 37 32h12q31 0 31 -36q0 -85 -45 -135q-46 -50 -108 -50q-101 0 -159 76q-59 76 -107 76q-89 0 -89 -113q0 -33 -37 -33h-12zM170 266q0 -76 70 -143q70 -68 192 -68
q158 0 254 134t96 300v56h-65q-250 0 -341 -34q-48 -17 -101 -45q-105 -57 -105 -200zM80 272q0 204 193 285q156 68 442 68h67v34q0 305 -280 306q-141 0 -264 -78q-32 -20 -58 20q-23 29 6 49q134 92 316 92t274 -98t92 -288v-627q0 -35 -34 -35h-17q-35 0 -35 35v100
l9 92h-5q2 0 -20 -46t-78 -100q-112 -106 -255 -106q-144 0 -249 77q-104 77 -104 220z" />
    <glyph glyph-name="adieresis" unicode="&#xe4;" horiz-adv-x="1026" 
d="M354 1284q-35 0 -35 35v80q0 35 35 35h25q35 0 35 -35v-80q0 -35 -35 -35h-25zM635 1284q-35 0 -35 35v80q0 35 35 35h24q35 0 35 -35v-80q0 -35 -35 -35h-24zM170 266q0 -76 70 -143q70 -68 192 -68q158 0 254 134t96 300v56h-65q-250 0 -341 -34q-48 -17 -101 -45
q-105 -57 -105 -200zM80 272q0 204 193 285q156 68 442 68h67v34q0 305 -280 306q-141 0 -264 -78q-32 -20 -58 20q-23 29 6 49q134 92 316 92t274 -98t92 -288v-627q0 -35 -34 -35h-17q-35 0 -35 35v100l9 92h-5q2 0 -20 -46t-78 -100q-112 -106 -255 -106q-144 0 -249 77
q-104 77 -104 220z" />
    <glyph glyph-name="aring" unicode="&#xe5;" horiz-adv-x="1026" 
d="M506 1257q29 1 47 19t18 48t-18 48t-47 18t-47 -18q-19 -18 -19 -48t18 -48t48 -19zM506 1186q-59 0 -98 40t-39 97t39 97t98 40t98 -40t39 -97t-39 -97t-98 -40zM170 266q0 -76 70 -143q70 -68 192 -68q158 0 254 134t96 300v56h-65q-250 0 -341 -34q-48 -17 -101 -45
q-105 -57 -105 -200zM80 272q0 204 193 285q156 68 442 68h67v34q0 305 -280 306q-141 0 -264 -78q-32 -20 -58 20q-23 29 6 49q134 92 316 92t274 -98t92 -288v-627q0 -35 -34 -35h-17q-35 0 -35 35v100l9 92h-5q2 0 -20 -46t-78 -100q-112 -106 -255 -106q-144 0 -249 77
q-104 77 -104 220z" />
    <glyph glyph-name="ae" unicode="&#xe6;" horiz-adv-x="1769" 
d="M172 268q0 -81 70 -147t192 -66q158 0 253 134t95 300v46h-141q-138 0 -245 -21q-224 -44 -224 -246zM1246 967q-140 -1 -242 -91t-127 -262h706q-8 176 -102 264q-95 88 -235 89zM82 272q0 197 168 276q127 60 339 65q44 1 111 1h82v45q0 305 -288 306q-139 0 -256 -78
q-29 -18 -56 15t4 54q133 92 312 93q295 0 352 -240h4q60 119 166 179t240 61q194 0 304 -130t109 -350q0 -35 -37 -34h-768q0 -225 116 -351t293 -125q177 0 298 105q29 23 49 -6l8 -15q18 -29 -6 -47q-144 -121 -322 -121t-300 83t-179 231h-4q-13 -67 -91 -175
q-42 -58 -120 -98t-176 -41q-150 0 -251 78t-101 219z" />
    <glyph glyph-name="ccedilla" unicode="&#xe7;" horiz-adv-x="1095" 
d="M680 -266q0 68 -105 78q-16 2 -27 14t-7 33l24 121q-201 20 -333 164t-132 374t155 380t366 151q211 0 352 -123q25 -20 2 -49l-10 -15q-20 -27 -50 -4q-123 106 -297 106t-300 -125q-128 -126 -128 -328t127 -327t311 -125t316 119q25 25 47 -4l10 -14q18 -25 -8 -47
q-145 -133 -354 -138l-18 -98q63 -10 102 -47q39 -36 39 -104t-53 -106t-139 -38t-85 41q0 41 31 41l53 -6q111 0 111 76z" />
    <glyph glyph-name="egrave" unicode="&#xe8;" horiz-adv-x="1112" 
d="M586 1206q-27 0 -43 23l-115 162q-12 18 -6 30t27 13h36q27 0 41 -23l99 -164q10 -16 5 -28t-26 -13h-18zM590 969q-144 1 -255 -95t-138 -268h729q-8 178 -100 270t-236 93zM615 -25q-209 1 -362 149t-153 392t146 388t347 144q203 0 313 -132t110 -355q0 -35 -37 -35
h-789q0 -215 126 -341t304 -126t298 105q29 23 47 -6l12 -17q18 -25 -8 -45q-145 -121 -354 -121z" />
    <glyph glyph-name="eacute" unicode="&#xe9;" horiz-adv-x="1112" 
d="M604 1206q-20 0 -27 12t3 29l98 164q14 23 41 23h37q20 0 26 -12t-6 -31l-114 -162q-16 -23 -44 -23h-14zM590 969q-144 1 -255 -95t-138 -268h729q-8 178 -100 270t-236 93zM615 -25q-209 1 -362 149t-153 392t146 388t347 144q203 0 313 -132t110 -355q0 -35 -37 -35
h-789q0 -215 126 -341t304 -126t298 105q29 23 47 -6l12 -17q18 -25 -8 -45q-145 -121 -354 -121z" />
    <glyph glyph-name="ecircumflex" unicode="&#xea;" horiz-adv-x="1112" 
d="M436 1206q-20 0 -26 12t6 31l116 162q16 23 43 23h54q27 0 43 -23l116 -162q12 -18 8 -30t-26 -13h-25q-27 0 -40 23l-101 141h-4l-100 -141q-14 -23 -41 -23h-23zM590 969q-144 1 -255 -95t-138 -268h729q-8 178 -100 270t-236 93zM615 -25q-209 1 -362 149t-153 392
t146 388t347 144q203 0 313 -132t110 -355q0 -35 -37 -35h-789q0 -215 126 -341t304 -126t298 105q29 23 47 -6l12 -17q18 -25 -8 -45q-145 -121 -354 -121z" />
    <glyph glyph-name="edieresis" unicode="&#xeb;" horiz-adv-x="1112" 
d="M451 1284q-35 0 -35 35v80q0 35 35 35h24q35 0 35 -35v-80q0 -35 -35 -35h-24zM731 1284q-35 0 -35 35v80q0 35 35 35h25q35 0 35 -35v-80q0 -35 -35 -35h-25zM590 969q-144 1 -255 -95t-138 -268h729q-8 178 -100 270t-236 93zM615 -25q-209 1 -362 149t-153 392
t146 388t347 144q203 0 313 -132t110 -355q0 -35 -37 -35h-789q0 -215 126 -341t304 -126t298 105q29 23 47 -6l12 -17q18 -25 -8 -45q-145 -121 -354 -121z" />
    <glyph glyph-name="igrave" unicode="&#xec;" horiz-adv-x="430" 
d="M199 1206q-27 0 -43 23l-115 162q-12 18 -6 30t26 13h37q27 0 41 -23l99 -164q10 -16 5 -28t-26 -13h-18zM172 35v954q0 35 35 35h16q35 0 35 -35v-954q0 -35 -35 -35h-16q-35 0 -35 35z" />
    <glyph glyph-name="iacute" unicode="&#xed;" horiz-adv-x="430" 
d="M219 1206q-19 0 -27 12t3 29l98 164q14 23 41 23h37q20 0 26 -12t-6 -31l-115 -162q-16 -23 -43 -23h-14zM172 35v954q0 35 35 35h16q35 0 35 -35v-954q0 -35 -35 -35h-16q-35 0 -35 35z" />
    <glyph glyph-name="icircumflex" unicode="&#xee;" horiz-adv-x="430" 
d="M51 1206q-20 0 -26 12t6 31l116 162q16 23 43 23h54q27 0 43 -23l116 -162q11 -18 7 -30t-25 -13h-25q-27 0 -41 23l-100 141h-4l-100 -141q-14 -23 -41 -23h-23zM172 35v954q0 35 35 35h16q35 0 35 -35v-954q0 -35 -35 -35h-16q-35 0 -35 35z" />
    <glyph glyph-name="idieresis" unicode="&#xef;" horiz-adv-x="430" 
d="M66 1284q-35 0 -35 35v80q0 35 35 35h24q35 0 35 -35v-80q0 -35 -35 -35h-24zM346 1284q-35 0 -35 35v80q0 35 35 35h25q35 0 35 -35v-80q0 -35 -35 -35h-25zM172 35v954q0 35 35 35h16q35 0 35 -35v-954q0 -35 -35 -35h-16q-35 0 -35 35z" />
    <glyph glyph-name="eth" unicode="&#xf0;" horiz-adv-x="1183" 
d="M193 471q0 -166 102 -290t272 -124q133 0 228 77q174 143 174 405q1 147 -103 242t-284 95t-285 -119q-104 -120 -104 -286zM102 471q0 199 130 343t364 144q100 0 183 -34t116 -68l33 -33h4q-74 231 -281 375l-321 -149q-31 -12 -45 16l-6 14q-14 29 16 45l268 125
q-111 59 -278 109q-38 11 -21 53q10 35 43 25q211 -57 352 -144l222 105q33 14 45 -19q22 -43 -11 -57l-176 -82q319 -244 320 -686q0 -217 -118 -390q-59 -85 -157 -136t-221 -52q-211 1 -336 149t-125 347z" />
    <glyph glyph-name="ntilde" unicode="&#xf1;" horiz-adv-x="1183" 
d="M360 1212q-31 0 -30 45q0 80 46 128q46 49 108 49q101 1 158 -76q57 -76 106 -76q87 0 90 113q0 33 36 32h13q31 0 31 -36q0 -85 -46 -135t-107 -50q-100 0 -159 76t-107 76q-89 0 -89 -113q0 -33 -37 -33h-13zM172 35v954q0 35 35 35h16q35 0 35 -35v-145l-8 -84h4
q35 98 149 193q115 95 294 95t254 -100q75 -102 75 -299v-614q0 -35 -35 -35h-16q-35 0 -35 35v583q0 205 -61 275t-191 72q-178 0 -304 -130t-126 -325v-475q0 -35 -35 -35h-16q-35 0 -35 35z" />
    <glyph glyph-name="ograve" unicode="&#xf2;" horiz-adv-x="1253" 
d="M608 1206q-27 0 -43 23l-114 162q-12 18 -7 30q6 12 27 13h37q27 0 41 -23l98 -164q10 -16 5 -28t-25 -13h-19zM186 514q0 -192 128 -323q128 -132 312 -132t313 132q128 131 128 323t-128 322t-312 129q-184 0 -313 -129q-128 -130 -128 -322zM96 516q0 225 155 379
t376 154t375 -154t155 -379q0 -225 -155 -383q-156 -158 -376 -158t-375 158t-155 383z" />
    <glyph glyph-name="oacute" unicode="&#xf3;" horiz-adv-x="1253" 
d="M629 1206q-19 0 -27 12t2 29l98 164q14 23 41 23h37q20 0 26 -12t-5 -31l-115 -162q-16 -23 -43 -23h-14zM186 514q0 -192 128 -323q128 -132 312 -132t313 132q128 131 128 323t-128 322t-312 129q-184 0 -313 -129q-128 -130 -128 -322zM96 516q0 225 155 379t376 154
t375 -154t155 -379q0 -225 -155 -383q-156 -158 -376 -158t-375 158t-155 383z" />
    <glyph glyph-name="ocircumflex" unicode="&#xf4;" horiz-adv-x="1253" 
d="M461 1206q-21 0 -27 12t6 31l117 162q16 23 43 23h53q27 0 43 -23l117 -162q12 -18 7 -30t-25 -13h-25q-27 0 -41 23l-100 141h-4l-101 -141q-14 -23 -41 -23h-22zM186 514q0 -192 128 -323q128 -132 312 -132t313 132q128 131 128 323t-128 322t-312 129
q-184 0 -313 -129q-128 -130 -128 -322zM96 516q0 225 155 379t376 154t375 -154t155 -379q0 -225 -155 -383q-156 -158 -376 -158t-375 158t-155 383z" />
    <glyph glyph-name="otilde" unicode="&#xf5;" horiz-adv-x="1253" 
d="M365 1212q-31 0 -31 45q0 80 46 128q46 49 108 49q101 1 158 -76q57 -76 106 -76q87 0 90 113q0 33 37 32h12q31 0 31 -36q0 -85 -45 -135t-107 -50q-101 0 -160 76t-107 76q-89 0 -89 -113q0 -33 -37 -33h-12zM186 514q0 -192 128 -323q128 -132 312 -132t313 132
q128 131 128 323t-128 322t-312 129q-184 0 -313 -129q-128 -130 -128 -322zM96 516q0 225 155 379t376 154t375 -154t155 -379q0 -225 -155 -383q-156 -158 -376 -158t-375 158t-155 383z" />
    <glyph glyph-name="odieresis" unicode="&#xf6;" horiz-adv-x="1253" 
d="M475 1284q-35 0 -35 35v80q0 35 35 35h25q35 0 35 -35v-80q0 -35 -35 -35h-25zM756 1284q-35 0 -35 35v80q0 35 35 35h24q35 0 35 -35v-80q0 -35 -35 -35h-24zM186 514q0 -192 128 -323q128 -132 312 -132t313 132q128 131 128 323t-128 322t-312 129q-184 0 -313 -129
q-128 -130 -128 -322zM96 516q0 225 155 379t376 154t375 -154t155 -379q0 -225 -155 -383q-156 -158 -376 -158t-375 158t-155 383z" />
    <glyph glyph-name="divide" unicode="&#xf7;" horiz-adv-x="1228" 
d="M555 190v52q0 35 35 34h47q35 0 35 -34v-52q0 -35 -35 -34h-47q-35 -1 -35 34zM162 539q-35 0 -35 34v13q0 35 35 35h905q35 0 35 -35v-13q0 -35 -35 -34h-905zM590 883q-35 0 -35 35v51q0 35 35 35h47q35 0 35 -35v-51q0 -35 -35 -35h-47z" />
    <glyph glyph-name="oslash" unicode="&#xf8;" horiz-adv-x="1255" 
d="M1069 519q0 196 -139 325l-518 -727q98 -57 217 -58q184 0 312 132t128 328zM629 965q-185 0 -313 -129t-128 -330t152 -338l522 731q-109 66 -233 66zM98 518q0 223 155 377t376 154q156 0 282 -80l58 80q18 29 55 2t14 -54l-57 -82q178 -158 178 -391
q-1 -233 -155 -391t-375 -158q-147 0 -267 72l-55 -78q-18 -29 -55 -2q-34 29 -14 56l53 75q-193 160 -193 420z" />
    <glyph glyph-name="ugrave" unicode="&#xf9;" horiz-adv-x="1173" 
d="M563 1206q-27 0 -43 23l-114 162q-12 18 -7 30q6 12 27 13h37q27 0 41 -23l98 -164q10 -16 5 -28t-25 -13h-19zM158 375v614q0 35 35 35h16q35 0 35 -35v-583q0 -205 61 -275t191 -72q184 1 302 139t117 326v465q0 35 35 35h17q35 0 34 -35v-954q0 -35 -34 -35h-17
q-35 0 -35 35v145l9 84h-4q-35 -98 -148 -193q-114 -95 -286 -95t-250 98t-78 301z" />
    <glyph glyph-name="uacute" unicode="&#xfa;" horiz-adv-x="1173" 
d="M582 1206q-20 0 -28 12t3 29l98 164q14 23 41 23h37q21 0 27 -12t-6 -31l-115 -162q-16 -23 -43 -23h-14zM158 375v614q0 35 35 35h16q35 0 35 -35v-583q0 -205 61 -275t191 -72q184 1 302 139t117 326v465q0 35 35 35h17q35 0 34 -35v-954q0 -35 -34 -35h-17
q-35 0 -35 35v145l9 84h-4q-35 -98 -148 -193q-114 -95 -286 -95t-250 98t-78 301z" />
    <glyph glyph-name="ucircumflex" unicode="&#xfb;" horiz-adv-x="1173" 
d="M414 1206q-20 0 -26 12t5 31l117 162q16 23 43 23h53q27 0 43 -23l117 -162q12 -18 7 -30t-25 -13h-25q-27 0 -41 23l-100 141h-4l-101 -141q-14 -23 -41 -23h-22zM158 375v614q0 35 35 35h16q35 0 35 -35v-583q0 -205 61 -275t191 -72q184 1 302 139t117 326v465
q0 35 35 35h17q35 0 34 -35v-954q0 -35 -34 -35h-17q-35 0 -35 35v145l9 84h-4q-35 -98 -148 -193q-114 -95 -286 -95t-250 98t-78 301z" />
    <glyph glyph-name="udieresis" unicode="&#xfc;" horiz-adv-x="1173" 
d="M428 1284q-35 0 -35 35v80q0 35 35 35h25q35 0 34 -35v-80q0 -35 -34 -35h-25zM709 1284q-35 0 -35 35v80q0 35 35 35h24q35 0 35 -35v-80q0 -35 -35 -35h-24zM158 375v614q0 35 35 35h16q35 0 35 -35v-583q0 -205 61 -275t191 -72q184 1 302 139t117 326v465q0 35 35 35
h17q35 0 34 -35v-954q0 -35 -34 -35h-17q-35 0 -35 35v145l9 84h-4q-35 -98 -148 -193q-114 -95 -286 -95t-250 98t-78 301z" />
    <glyph glyph-name="yacute" unicode="&#xfd;" horiz-adv-x="985" 
d="M496 1206q-20 0 -28 12t3 29l98 164q14 23 41 23h37q21 0 27 -12t-6 -31l-115 -162q-16 -23 -43 -23h-14zM174 -348q125 0 203 184l72 170l-408 977q-16 41 27 41h20q27 0 39 -27l328 -790l37 -96h4q14 47 34 96l328 790q12 27 39 27h21q43 0 26 -41l-508 -1216
q-84 -197 -262 -197q-72 0 -139 39q-31 16 -15 45l9 14q16 29 47 15q61 -31 98 -31z" />
    <glyph glyph-name="thorn" unicode="&#xfe;" horiz-adv-x="1171" 
d="M624 965q-158 0 -262 -114q-104 -115 -104 -319t96 -339t256 -135t264 122q104 123 104 330t-98 331q-99 124 -256 124zM174 -375v1774q0 35 35 35h16q35 0 35 -35v-488l-2 -82h4q4 7 11 23t36 54q63 82 170 119q68 24 148 24q203 1 323 -147t119 -390q0 -242 -127 -389
t-328 -148q-74 0 -138 23t-124 74q-59 51 -82 102l-10 23h-4q4 -37 4 -91v-481q0 -35 -35 -35h-16q-35 0 -35 35z" />
    <glyph glyph-name="ydieresis" unicode="&#xff;" horiz-adv-x="985" 
d="M342 1284q-35 0 -35 35v80q0 35 35 35h25q35 0 34 -35v-80q0 -35 -34 -35h-25zM623 1284q-35 0 -35 35v80q0 35 35 35h24q35 0 35 -35v-80q0 -35 -35 -35h-24zM174 -348q125 0 203 184l72 170l-408 977q-16 41 27 41h20q27 0 39 -27l328 -790l37 -96h4q14 47 34 96
l328 790q12 27 39 27h21q43 0 26 -41l-508 -1216q-84 -197 -262 -197q-72 0 -139 39q-31 16 -15 45l9 14q16 29 47 15q61 -31 98 -31z" />
    <glyph glyph-name="Amacron" unicode="&#x100;" horiz-adv-x="1224" 
d="M403 1610q-35 0 -34 35v12q0 35 34 35h420q35 0 35 -35v-12q0 -35 -35 -35h-420zM338 578h547l-217 581l-54 172h-4q-31 -111 -53 -172zM594 1434h37q31 0 39 -29l512 -1364q14 -41 -29 -41h-23q-31 0 -38 27l-177 469h-608l-174 -467q-8 -29 -39 -29h-22q-43 0 -29 41
l512 1364q8 29 39 29z" />
    <glyph glyph-name="amacron" unicode="&#x101;" horiz-adv-x="1026" 
d="M297 1280q-35 0 -35 35v12q0 35 35 35h420q35 0 35 -35v-12q0 -35 -35 -35h-420zM170 266q0 -76 70 -143q70 -68 192 -68q158 0 254 134t96 300v56h-65q-250 0 -341 -34q-48 -17 -101 -45q-105 -57 -105 -200zM80 272q0 204 193 285q156 68 442 68h67v34q0 305 -280 306
q-141 0 -264 -78q-32 -20 -58 20q-23 29 6 49q134 92 316 92t274 -98t92 -288v-627q0 -35 -34 -35h-17q-35 0 -35 35v100l9 92h-5q2 0 -20 -46t-78 -100q-112 -106 -255 -106q-144 0 -249 77q-104 77 -104 220z" />
    <glyph glyph-name="Abreve" unicode="&#x102;" horiz-adv-x="1224" 
d="M613 1530q-85 0 -146 57t-61 144q0 33 34 32h13q33 0 34 -28q8 -127 125 -127t125 129q4 27 35 26h12q35 0 35 -32q0 -82 -60 -142q-61 -59 -146 -59zM338 578h547l-217 581l-54 172h-4q-31 -111 -53 -172zM594 1434h37q31 0 39 -29l512 -1364q14 -41 -29 -41h-23
q-31 0 -38 27l-177 469h-608l-174 -467q-8 -29 -39 -29h-22q-43 0 -29 41l512 1364q8 29 39 29z" />
    <glyph glyph-name="abreve" unicode="&#x103;" horiz-adv-x="1026" 
d="M713 1401q-1 -81 -61 -141t-145 -60t-147 57q-61 57 -61 144q0 33 35 33h12q33 0 35 -29q8 -127 125 -127t125 129q4 27 35 27h12q35 0 35 -33zM170 266q0 -76 70 -143q70 -68 192 -68q158 0 254 134t96 300v56h-65q-250 0 -341 -34q-48 -17 -101 -45q-105 -57 -105 -200
zM80 272q0 204 193 285q156 68 442 68h67v34q0 305 -280 306q-141 0 -264 -78q-32 -20 -58 20q-23 29 6 49q134 92 316 92t274 -98t92 -288v-627q0 -35 -34 -35h-17q-35 0 -35 35v100l9 92h-5q2 0 -20 -46t-78 -100q-112 -106 -255 -106q-144 0 -249 77q-104 77 -104 220z
" />
    <glyph glyph-name="Aogonek" unicode="&#x104;" horiz-adv-x="1224" 
d="M338 578h547l-217 581l-54 172h-4q-31 -111 -53 -172zM594 1434h37q27 0 39 -29l512 -1364q14 -39 -6 -57q-143 -111 -144 -207q0 -78 105 -109q33 -8 26 -41l-2 -12q-6 -35 -41 -29q-180 37 -180 183q0 79 52 145t114 106q-16 14 -25 35l-166 441h-608l-174 -467
q-8 -29 -39 -29h-22q-43 0 -29 41l512 1364q12 29 39 29z" />
    <glyph glyph-name="aogonek" unicode="&#x105;" horiz-adv-x="1028" 
d="M170 266q0 -76 70 -143q70 -68 192 -68q158 0 254 134t96 300v56h-65q-250 0 -341 -34q-48 -17 -101 -45q-105 -57 -105 -200zM80 272q0 204 193 285q156 68 442 68h67v34q0 305 -280 306q-141 0 -264 -78q-32 -20 -58 20q-23 29 6 49q134 92 316 92t274 -98t92 -288
v-627q0 -27 -41 -66t-82 -88t-40 -104q0 -78 104 -109q35 -10 27 -41l-2 -12q-10 -35 -41 -29q-180 37 -181 183q0 75 56 143t118 102q-4 6 -4 21v100l9 92h-5q2 0 -20 -46t-78 -100q-112 -106 -255 -106q-144 0 -249 77q-104 77 -104 220z" />
    <glyph glyph-name="Cacute" unicode="&#x106;" horiz-adv-x="1460" 
d="M817 1536q-20 0 -27 12t3 29l98 164q14 23 41 22h37q20 0 26 -12t-6 -31l-115 -161q-16 -23 -43 -23h-14zM827 -25q-310 -1 -511 217t-201 533t200 524q201 209 504 209t494 -158q26 -23 -6 -61q-23 -25 -50 -4q-193 139 -447 139t-429 -183q-174 -183 -174 -466
t175 -474q176 -191 442 -191t470 169q25 23 49 -2l9 -10q23 -25 -2 -49q-213 -193 -523 -193z" />
    <glyph glyph-name="cacute" unicode="&#x107;" horiz-adv-x="1091" 
d="M592 1206q-20 0 -28 12t3 29l99 164q14 23 41 23h36q21 0 27 -12t-6 -31l-115 -162q-16 -23 -43 -23h-14zM98 510q0 238 155 388t366 151q211 0 352 -123q25 -20 2 -49l-10 -15q-20 -27 -50 -4q-123 106 -297 106t-300 -125q-128 -126 -128 -328t127 -327t311 -125
t316 119q25 25 47 -4l10 -14q18 -25 -8 -47q-151 -137 -369 -137t-371 148t-153 386z" />
    <glyph glyph-name="Ccircumflex" unicode="&#x108;" horiz-adv-x="1460" 
d="M649 1536q-20 0 -26 12t6 31l116 162q16 23 43 22h54q27 0 43 -22l116 -162q12 -18 8 -31q-5 -12 -26 -12h-25q-27 0 -40 23l-101 141h-4l-100 -141q-14 -23 -41 -23h-23zM827 -25q-310 -1 -511 217t-201 533t200 524q201 209 504 209t494 -158q26 -23 -6 -61
q-23 -25 -50 -4q-193 139 -447 139t-429 -183q-174 -183 -174 -466t175 -474q176 -191 442 -191t470 169q25 23 49 -2l9 -10q23 -25 -2 -49q-213 -193 -523 -193z" />
    <glyph glyph-name="ccircumflex" unicode="&#x109;" horiz-adv-x="1091" 
d="M424 1206q-20 0 -26 12t5 31l117 162q16 23 43 23h53q27 0 43 -23l117 -162q12 -18 7 -30t-25 -13h-25q-27 0 -41 23l-100 141h-4l-101 -141q-14 -23 -41 -23h-22zM98 510q0 238 155 388t366 151q211 0 352 -123q25 -20 2 -49l-10 -15q-20 -27 -50 -4q-123 106 -297 106
t-300 -125q-128 -126 -128 -328t127 -327t311 -125t316 119q25 25 47 -4l10 -14q18 -25 -8 -47q-151 -137 -369 -137t-371 148t-153 386z" />
    <glyph glyph-name="Cdotaccent" unicode="&#x10a;" horiz-adv-x="1460" 
d="M803 1614q-35 0 -35 35v80q0 35 35 34h24q35 0 35 -34v-80q0 -35 -35 -35h-24zM827 -25q-310 -1 -511 217t-201 533t200 524q201 209 504 209t494 -158q26 -23 -6 -61q-23 -25 -50 -4q-193 139 -447 139t-429 -183q-174 -183 -174 -466t175 -474q176 -191 442 -191
t470 169q25 23 49 -2l9 -10q23 -25 -2 -49q-213 -193 -523 -193z" />
    <glyph glyph-name="cdotaccent" unicode="&#x10b;" horiz-adv-x="1091" 
d="M578 1284q-35 0 -35 35v80q0 35 35 35h24q35 0 35 -35v-80q0 -35 -35 -35h-24zM98 510q0 238 155 388t366 151q211 0 352 -123q25 -20 2 -49l-10 -15q-20 -27 -50 -4q-123 106 -297 106t-300 -125q-128 -126 -128 -328t127 -327t311 -125t316 119q25 25 47 -4l10 -14
q18 -25 -8 -47q-151 -137 -369 -137t-371 148t-153 386z" />
    <glyph glyph-name="Ccaron" unicode="&#x10c;" horiz-adv-x="1460" 
d="M788 1536q-27 0 -43 23l-116 161q-12 18 -6 30t26 13h23q27 0 41 -22l100 -142h4l101 142q14 23 40 22h23q21 0 27 -12t-7 -31l-116 -161q-16 -23 -43 -23h-54zM827 -25q-310 -1 -511 217t-201 533t200 524q201 209 504 209t494 -158q26 -23 -6 -61q-23 -25 -50 -4
q-193 139 -447 139t-429 -183q-174 -183 -174 -466t175 -474q176 -191 442 -191t470 169q25 23 49 -2l9 -10q23 -25 -2 -49q-213 -193 -523 -193z" />
    <glyph glyph-name="ccaron" unicode="&#x10d;" horiz-adv-x="1091" 
d="M563 1206q-27 0 -43 23l-117 162q-12 18 -6 30t27 13h22q27 0 41 -23l101 -141h4l100 141q14 23 41 23h23q20 0 26 -12t-6 -31l-117 -162q-16 -23 -43 -23h-53zM98 510q0 238 155 388t366 151q211 0 352 -123q25 -20 2 -49l-10 -15q-20 -27 -50 -4q-123 106 -297 106
t-300 -125q-128 -126 -128 -328t127 -327t311 -125t316 119q25 25 47 -4l10 -14q18 -25 -8 -47q-151 -137 -369 -137t-371 148t-153 386z" />
    <glyph glyph-name="Dcaron" unicode="&#x10e;" horiz-adv-x="1499" 
d="M664 1536q-27 0 -43 23l-117 161q-12 18 -6 30t26 13h23q27 0 41 -22l100 -142h4l101 142q14 23 41 22h22q20 0 26 -12t-5 -31l-117 -161q-16 -23 -43 -23h-53zM303 82h348q291 0 464 166t173 468t-173 469t-464 167h-348v-1270zM215 35v1364q0 35 35 35h416
q324 0 520 -190t194 -528q0 -337 -194 -527q-195 -189 -520 -189h-416q-35 0 -35 35z" />
    <glyph glyph-name="dcaron" unicode="&#x10f;" horiz-adv-x="1169" 
d="M1165 1434h27q43 0 43 -97q0 -55 -18 -116t-56 -62h-8q-31 0 -31 25q0 2 11 38q10 36 10 91l-8 94q0 27 30 27zM193 514q0 -207 99 -331t256 -124t261 114q104 113 104 319t-93 339t-256 133t-267 -121q-104 -122 -104 -329zM102 512q0 242 128 389t331 148q72 0 135 -24
t102 -57q78 -70 107 -128l10 -23h5q-8 37 -9 84v498q0 35 35 35h17q35 0 34 -35v-1364q0 -35 -34 -35h-17q-35 0 -35 35v94l9 78h-5q-32 -81 -117 -152q-38 -31 -106 -55t-147 -25q-203 -1 -323 147t-120 390z" />
    <glyph glyph-name="Dcroat" unicode="&#x110;" horiz-adv-x="1499" 
d="M303 82h348q291 0 464 166t173 468t-173 469t-464 167h-348v-588h340q35 0 35 -35v-12q0 -35 -35 -35h-340v-600zM215 35v647h-88q-35 0 -35 35v12q0 35 35 35h88v635q0 35 35 35h416q324 0 520 -190t194 -528q0 -337 -194 -527q-195 -189 -520 -189h-416q-35 0 -35 35z
" />
    <glyph glyph-name="dcroat" unicode="&#x111;" horiz-adv-x="1169" 
d="M193 514q0 -207 99 -331t256 -124t261 114q104 113 104 319t-93 340t-256 135q-163 0 -267 -123t-104 -330zM102 512q0 242 128 389t331 148q140 0 235 -78q74 -64 105 -121l10 -23h4q-4 37 -4 84v254h-237q-35 0 -35 35v12q0 35 35 35h237v152q0 35 35 35h17
q35 0 34 -35v-152h136q35 0 34 -35v-12q0 -35 -34 -35h-136v-1130q0 -35 -34 -35h-17q-35 0 -35 35v84l4 78h-4q-4 -7 -11 -23t-37 -54q-29 -38 -67 -68t-105 -54t-146 -23q-203 -1 -323 147t-120 390z" />
    <glyph glyph-name="Emacron" unicode="&#x112;" horiz-adv-x="1128" 
d="M424 1610q-35 0 -35 35v12q0 35 35 35h420q35 0 35 -35v-12q0 -35 -35 -35h-420zM215 35v1364q0 35 35 35h715q35 0 34 -35v-13q0 -35 -34 -34h-662v-588h537q35 0 34 -35v-12q0 -35 -34 -35h-537v-600h701q35 0 34 -35v-12q0 -35 -34 -35h-754q-35 0 -35 35z" />
    <glyph glyph-name="emacron" unicode="&#x113;" horiz-adv-x="1112" 
d="M393 1280q-35 0 -35 35v12q0 35 35 35h420q35 0 35 -35v-12q0 -35 -35 -35h-420zM590 969q-144 1 -255 -95t-138 -268h729q-8 178 -100 270t-236 93zM615 -25q-209 1 -362 149t-153 392t146 388t347 144q203 0 313 -132t110 -355q0 -35 -37 -35h-789q0 -215 126 -341
t304 -126t298 105q29 23 47 -6l12 -17q18 -25 -8 -45q-145 -121 -354 -121z" />
    <glyph glyph-name="Ebreve" unicode="&#x114;" horiz-adv-x="1128" 
d="M840 1731q0 -81 -60 -141t-146 -60q-85 0 -147 57q-61 57 -61 144q0 33 35 32h12q33 0 35 -28q8 -127 125 -127t125 129q4 27 35 26h12q35 0 35 -32zM215 35v1364q0 35 35 35h715q35 0 34 -35v-13q0 -35 -34 -34h-662v-588h537q35 0 34 -35v-12q0 -35 -34 -35h-537v-600
h701q35 0 34 -35v-12q0 -35 -34 -35h-754q-35 0 -35 35z" />
    <glyph glyph-name="ebreve" unicode="&#x115;" horiz-adv-x="1112" 
d="M809 1401q-1 -81 -61 -141t-145 -60t-146 57t-62 144q0 33 35 33h12q33 0 35 -29q8 -127 125 -127t125 129q4 27 35 27h12q35 0 35 -33zM590 969q-144 1 -255 -95t-138 -268h729q-8 178 -100 270t-236 93zM615 -25q-209 1 -362 149t-153 392t146 388t347 144
q203 0 313 -132t110 -355q0 -35 -37 -35h-789q0 -215 126 -341t304 -126t298 105q29 23 47 -6l12 -17q18 -25 -8 -45q-145 -121 -354 -121z" />
    <glyph glyph-name="Edotaccent" unicode="&#x116;" horiz-adv-x="1128" 
d="M621 1614q-35 0 -35 35v80q0 35 35 34h24q35 0 35 -34v-80q0 -35 -35 -35h-24zM215 35v1364q0 35 35 35h715q35 0 34 -35v-13q0 -35 -34 -34h-662v-588h537q35 0 34 -35v-12q0 -35 -34 -35h-537v-600h701q35 0 34 -35v-12q0 -35 -34 -35h-754q-35 0 -35 35z" />
    <glyph glyph-name="edotaccent" unicode="&#x117;" horiz-adv-x="1112" 
d="M590 1284q-35 0 -35 35v80q0 35 35 35h24q35 0 35 -35v-80q0 -35 -35 -35h-24zM590 969q-144 1 -255 -95t-138 -268h729q-8 178 -100 270t-236 93zM615 -25q-209 1 -362 149t-153 392t146 388t347 144q203 0 313 -132t110 -355q0 -35 -37 -35h-789q0 -215 126 -341
t304 -126t298 105q29 23 47 -6l12 -17q18 -25 -8 -45q-145 -121 -354 -121z" />
    <glyph glyph-name="Eogonek" unicode="&#x118;" horiz-adv-x="1128" 
d="M215 35v1364q0 35 35 35h715q35 0 34 -35v-13q0 -35 -34 -34h-662v-588h537q35 0 34 -35v-12q0 -35 -34 -35h-537v-600h701q35 0 34 -35v-16q0 -21 -43 -59t-86 -89t-43 -106q0 -78 105 -109q33 -8 26 -41l-2 -12q-6 -35 -41 -29q-180 37 -180 183q0 125 141 231h-665
q-35 0 -35 35z" />
    <glyph glyph-name="eogonek" unicode="&#x119;" horiz-adv-x="1112" 
d="M590 969q-144 1 -255 -95t-138 -268h729q-8 178 -100 270t-236 93zM100 516q0 244 146 388t348 144t312 -136q110 -138 110 -353q-2 -33 -37 -33h-789q0 -215 126 -341t304 -126t298 105q29 23 49 -6l8 -15q18 -29 -4 -46t-87 -64t-102 -77q-36 -30 -70 -80t-34 -99
q0 -78 104 -109q35 -10 27 -41l-2 -12q-10 -35 -41 -29q-180 37 -180 183q0 109 114 215q-41 -8 -71 -9q-223 1 -376 149t-153 392z" />
    <glyph glyph-name="Ecaron" unicode="&#x11a;" horiz-adv-x="1128" 
d="M606 1536q-27 0 -43 23l-117 161q-12 18 -6 30t27 13h22q27 0 41 -22l101 -142h4l100 142q14 23 41 22h23q20 0 26 -12t-6 -31l-117 -161q-16 -23 -43 -23h-53zM215 35v1364q0 35 35 35h715q35 0 34 -35v-13q0 -35 -34 -34h-662v-588h537q35 0 34 -35v-12q0 -35 -34 -35
h-537v-600h701q35 0 34 -35v-12q0 -35 -34 -35h-754q-35 0 -35 35z" />
    <glyph glyph-name="ecaron" unicode="&#x11b;" horiz-adv-x="1112" 
d="M575 1206q-27 0 -43 23l-116 162q-12 18 -6 30t26 13h23q27 0 41 -23l100 -141h4l101 141q14 23 40 23h23q20 0 26 -12t-6 -31l-116 -162q-16 -23 -43 -23h-54zM590 969q-144 1 -255 -95t-138 -268h729q-8 178 -100 270t-236 93zM615 -25q-209 1 -362 149t-153 392
t146 388t347 144q203 0 313 -132t110 -355q0 -35 -37 -35h-789q0 -215 126 -341t304 -126t298 105q29 23 47 -6l12 -17q18 -25 -8 -45q-145 -121 -354 -121z" />
    <glyph glyph-name="Gcircumflex" unicode="&#x11c;" horiz-adv-x="1525" 
d="M641 1536q-20 0 -27 12q-6 12 7 31l116 162q16 23 43 22h54q27 0 43 -22l116 -162q12 -19 7 -31t-25 -12h-25q-27 0 -41 23l-100 141h-4l-100 -141q-14 -23 -41 -23h-23zM115 716q0 312 206 527t494 215t488 -139q29 -23 4 -49l-11 -13q-18 -29 -49 -8q-180 125 -433 125
t-430 -188t-177 -469t173 -469t437 -189q212 0 407 152q44 35 64 59l21 25v276h-222q-35 0 -34 35v12q0 35 34 35h275q35 0 35 -35v-583q0 -35 -35 -35h-19q-35 0 -34 35v90l2 61h-4q-15 -20 -71 -65t-110 -73t-137 -50q-84 -22 -172 -23q-299 0 -501 214q-201 215 -201 527
z" />
    <glyph glyph-name="gcircumflex" unicode="&#x11d;" horiz-adv-x="1157" 
d="M399 1206q-20 0 -26 12t6 31l117 162q16 23 43 23h53q27 0 43 -23l117 -162q12 -18 7 -30t-26 -13h-24q-27 0 -41 23l-101 141h-4l-100 -141q-14 -23 -41 -23h-23zM556 84q159 0 252 105t93 337t-96 334q-96 104 -260 104t-257 -112t-93 -320t101 -328t260 -120z
M540 -346q146 0 253 88q106 88 106 264v119l8 84h-4q-102 -209 -344 -209q-203 0 -329 145t-126 385t121 380q121 138 328 139q158 0 237 -66q80 -66 103 -115l8 -20h4q-6 14 -6 39v102q0 35 35 35h16q35 0 35 -35v-983q0 -221 -134 -329t-333 -107q-152 0 -291 63
q-33 14 -16 48l10 18q14 27 45 12q128 -57 274 -57z" />
    <glyph glyph-name="Gbreve" unicode="&#x11e;" horiz-adv-x="1525" 
d="M1014 1731q0 -81 -60 -141t-146 -60q-85 0 -146 57t-62 144q0 33 35 32h12q33 0 35 -28q8 -127 125 -127t125 129q4 27 35 26h12q35 0 35 -32zM115 716q0 312 206 527t494 215t488 -139q29 -23 4 -49l-11 -13q-18 -29 -49 -8q-180 125 -433 125t-430 -188t-177 -469
t173 -469t437 -189q212 0 407 152q44 35 64 59l21 25v276h-222q-35 0 -34 35v12q0 35 34 35h275q35 0 35 -35v-583q0 -35 -35 -35h-19q-35 0 -34 35v90l2 61h-4q-15 -20 -71 -65t-110 -73t-137 -50q-84 -22 -172 -23q-299 0 -501 214q-201 215 -201 527z" />
    <glyph glyph-name="gbreve" unicode="&#x11f;" horiz-adv-x="1157" 
d="M772 1401q0 -81 -60 -141t-146 -60q-85 0 -146 57t-62 144q0 33 35 33h13q33 0 34 -29q8 -127 125 -127t125 129q4 27 35 27h12q35 0 35 -33zM556 84q159 0 252 105t93 337t-96 334q-96 104 -260 104t-257 -112t-93 -320t101 -328t260 -120zM540 -346q146 0 253 88
q106 88 106 264v119l8 84h-4q-102 -209 -344 -209q-203 0 -329 145t-126 385t121 380q121 138 328 139q158 0 237 -66q80 -66 103 -115l8 -20h4q-6 14 -6 39v102q0 35 35 35h16q35 0 35 -35v-983q0 -221 -134 -329t-333 -107q-152 0 -291 63q-33 14 -16 48l10 18
q14 27 45 12q128 -57 274 -57z" />
    <glyph glyph-name="Gdotaccent" unicode="&#x120;" horiz-adv-x="1525" 
d="M795 1614q-35 0 -35 35v80q0 35 35 34h24q35 0 35 -34v-80q0 -35 -35 -35h-24zM115 716q0 312 206 527t494 215t488 -139q29 -23 4 -49l-11 -13q-18 -29 -49 -8q-180 125 -433 125t-430 -188t-177 -469t173 -469t437 -189q212 0 407 152q44 35 64 59l21 25v276h-222
q-35 0 -34 35v12q0 35 34 35h275q35 0 35 -35v-583q0 -35 -35 -35h-19q-35 0 -34 35v90l2 61h-4q-15 -20 -71 -65t-110 -73t-137 -50q-84 -22 -172 -23q-299 0 -501 214q-201 215 -201 527z" />
    <glyph glyph-name="gdotaccent" unicode="&#x121;" horiz-adv-x="1157" 
d="M553 1284q-35 0 -35 35v80q0 35 35 35h25q35 0 34 -35v-80q0 -35 -34 -35h-25zM556 84q159 0 252 105t93 337t-96 334q-96 104 -260 104t-257 -112t-93 -320t101 -328t260 -120zM540 -346q146 0 253 88q106 88 106 264v119l8 84h-4q-102 -209 -344 -209q-203 0 -329 145
t-126 385t121 380q121 138 328 139q158 0 237 -66q80 -66 103 -115l8 -20h4q-6 14 -6 39v102q0 35 35 35h16q35 0 35 -35v-983q0 -221 -134 -329t-333 -107q-152 0 -291 63q-33 14 -16 48l10 18q14 27 45 12q128 -57 274 -57z" />
    <glyph glyph-name="Gcommaaccent" unicode="&#x122;" horiz-adv-x="1525" 
d="M799 -135h26q43 0 43 -96q0 -55 -18 -117t-55 -62h-9q-31 0 -30 25q0 2 10 38t10 91l-8 94q0 27 31 27zM115 716q0 312 206 527t494 215t488 -139q29 -23 4 -49l-11 -13q-18 -29 -49 -8q-180 125 -433 125t-430 -188t-177 -469t173 -469t437 -189q212 0 407 152
q44 35 64 59l21 25v276h-222q-35 0 -34 35v12q0 35 34 35h275q35 0 35 -35v-583q0 -35 -35 -35h-19q-35 0 -34 35v90l2 61h-4q-15 -20 -71 -65t-110 -73t-137 -50q-84 -22 -172 -23q-299 0 -501 214q-201 215 -201 527z" />
    <glyph glyph-name="gcommaaccent" unicode="&#x123;" horiz-adv-x="1157" 
d="M588 1159h-27q-43 0 -43 96q0 55 18 117t56 62h8q31 0 31 -25q0 -2 -10 -38t-11 -91l8 -94q0 -27 -30 -27zM556 84q159 0 252 105t93 337t-96 334q-96 104 -260 104t-257 -112t-93 -320t101 -328t260 -120zM540 -346q146 0 253 88q106 88 106 264v119l8 84h-4
q-102 -209 -344 -209q-203 0 -329 145t-126 385t121 380q121 138 328 139q158 0 237 -66q80 -66 103 -115l8 -20h4q-6 14 -6 39v102q0 35 35 35h16q35 0 35 -35v-983q0 -221 -134 -329t-333 -107q-152 0 -291 63q-33 14 -16 48l10 18q14 27 45 12q128 -57 274 -57z" />
    <glyph glyph-name="Hcircumflex" unicode="&#x124;" horiz-adv-x="1515" 
d="M592 1536q-20 0 -27 12q-6 12 6 31l117 162q16 23 43 22h53q27 0 43 -22l117 -162q12 -19 7 -31t-25 -12h-25q-27 0 -41 23l-100 141h-4l-101 -141q-14 -23 -41 -23h-22zM215 35v1364q0 35 35 35h18q35 0 35 -35v-639h909v639q0 35 35 35h19q35 0 34 -35v-1364
q0 -35 -34 -35h-19q-35 0 -35 35v643h-909v-643q0 -35 -35 -35h-18q-35 0 -35 35z" />
    <glyph glyph-name="hcircumflex" unicode="&#x125;" horiz-adv-x="1183" 
d="M51 1536q-20 0 -26 12t6 31l116 162q16 23 43 22h54q27 0 43 -22l116 -162q12 -18 8 -31q-5 -12 -26 -12h-25q-27 0 -41 23l-100 141h-4l-100 -141q-14 -23 -41 -23h-23zM172 35v1364q0 35 35 35h16q35 0 35 -35v-555l-8 -84h4q35 98 149 193q115 95 294 95t254 -100
q75 -102 75 -299v-614q0 -35 -35 -35h-16q-35 0 -35 35v583q0 205 -61 275t-191 72q-178 0 -304 -131t-126 -330v-469q0 -35 -35 -35h-16q-35 0 -35 35z" />
    <glyph glyph-name="Hbar" unicode="&#x126;" horiz-adv-x="1515" 
d="M303 760h909v287h-909v-287zM215 35v1012h-98q-35 0 -35 34v13q0 35 35 34h98v271q0 35 35 35h18q35 0 35 -35v-271h909v271q0 35 35 35h19q35 0 34 -35v-271h99q35 0 35 -34v-13q0 -35 -35 -34h-99v-1012q0 -35 -34 -35h-19q-35 0 -35 35v643h-909v-643q0 -35 -35 -35
h-18q-35 0 -35 35z" />
    <glyph glyph-name="hbar" unicode="&#x127;" horiz-adv-x="1183" 
d="M172 35v1130h-131q-35 0 -35 35v12q0 35 35 35h131v152q0 35 35 35h16q35 0 35 -35v-152h238q35 0 34 -35v-12q0 -35 -34 -35h-238v-311l-4 -84h4q35 96 148 187q114 91 292 91t253 -100q75 -102 75 -299v-614q0 -35 -35 -35h-16q-35 0 -35 35v583q0 205 -61 275t-191 72
q-182 1 -306 -133t-124 -322v-475q0 -35 -35 -35h-16q-35 0 -35 35z" />
    <glyph glyph-name="Itilde" unicode="&#x128;" horiz-adv-x="518" 
d="M-2 1542q-31 0 -31 45q0 80 46 128q45 48 107 48q101 0 160 -76t107 -76q47 1 68 35q20 34 20 72t37 39h12q31 0 31 -37q0 -86 -45 -135q-46 -49 -108 -49q-102 0 -159 76t-106 76q-87 0 -90 -113q0 -33 -37 -33h-12zM215 35v1364q0 35 35 35h18q35 0 35 -35v-1364
q0 -35 -35 -35h-18q-35 0 -35 35z" />
    <glyph glyph-name="itilde" unicode="&#x129;" horiz-adv-x="430" 
d="M-45 1212q-31 0 -31 45q0 80 46 128q46 49 108 49q100 1 158 -76q59 -76 107 -76t69 34q20 34 20 73t37 38h12q31 0 31 -36q0 -85 -45 -135t-107 -50q-102 0 -160 76q-57 76 -106 76q-87 0 -90 -113q0 -33 -37 -33h-12zM172 35v954q0 35 35 35h16q35 0 35 -35v-954
q0 -35 -35 -35h-16q-35 0 -35 35z" />
    <glyph glyph-name="Imacron" unicode="&#x12a;" horiz-adv-x="518" 
d="M51 1610q-35 0 -35 35v12q0 35 35 35h420q35 0 35 -35v-12q0 -35 -35 -35h-420zM215 35v1364q0 35 35 35h18q35 0 35 -35v-1364q0 -35 -35 -35h-18q-35 0 -35 35z" />
    <glyph glyph-name="imacron" unicode="&#x12b;" horiz-adv-x="430" 
d="M8 1280q-35 0 -35 35v12q0 35 35 35h420q35 0 35 -35v-12q0 -35 -35 -35h-420zM172 35v954q0 35 35 35h16q35 0 35 -35v-954q0 -35 -35 -35h-16q-35 0 -35 35z" />
    <glyph glyph-name="Ibreve" unicode="&#x12c;" horiz-adv-x="518" 
d="M261 1530q-85 0 -146 57t-62 144q0 33 35 32h12q33 0 35 -28q8 -127 125 -127t125 129q4 27 35 26h12q35 0 35 -32q0 -82 -60 -142q-61 -59 -146 -59zM215 35v1364q0 35 35 35h18q35 0 35 -35v-1364q0 -35 -35 -35h-18q-35 0 -35 35z" />
    <glyph glyph-name="ibreve" unicode="&#x12d;" horiz-adv-x="430" 
d="M424 1401q0 -81 -60 -141t-146 -60q-85 0 -146 57t-62 144q0 33 35 33h12q33 0 35 -29q8 -127 125 -127t125 129q4 27 35 27h12q35 0 35 -33zM172 35v954q0 35 35 35h16q35 0 35 -35v-954q0 -35 -35 -35h-16q-35 0 -35 35z" />
    <glyph glyph-name="Iogonek" unicode="&#x12e;" horiz-adv-x="518" 
d="M215 35v1364q0 35 35 35h18q35 0 35 -35v-1364q0 -27 -41 -66t-82 -88t-41 -104q0 -78 105 -109q35 -10 26 -41l-2 -12q-10 -35 -41 -29q-180 37 -180 183q0 75 56 143t118 102q-6 7 -6 21z" />
    <glyph glyph-name="iogonek" unicode="&#x12f;" horiz-adv-x="432" 
d="M174 35v954q0 35 35 35h16q35 0 35 -35v-954q0 -27 -41 -66t-82 -88t-41 -104q0 -78 105 -109q35 -10 26 -41l-2 -12q-10 -35 -41 -29q-180 37 -180 183q0 75 56 143t118 102q-4 7 -4 21zM201 1284q-35 0 -35 35v80q0 35 35 35h32q35 0 35 -35v-80q0 -35 -35 -35h-32z
" />
    <glyph glyph-name="Idotaccent" unicode="&#x130;" horiz-adv-x="518" 
d="M248 1614q-35 0 -35 35v80q0 35 35 34h24q35 0 35 -34v-80q0 -35 -35 -35h-24zM215 35v1364q0 35 35 35h18q35 0 35 -35v-1364q0 -35 -35 -35h-18q-35 0 -35 35z" />
    <glyph glyph-name="dotlessi" unicode="&#x131;" horiz-adv-x="430" 
d="M172 35v954q0 35 35 35h16q35 0 35 -35v-954q0 -35 -35 -35h-16q-35 0 -35 35z" />
    <glyph glyph-name="IJ" unicode="&#x132;" horiz-adv-x="1126" 
d="M215 35v1364q0 35 35 35h18q35 0 35 -35v-1364q0 -35 -35 -35h-18q-35 0 -35 35zM526 27v16q0 35 35 35q281 16 281 368v953q0 35 35 35h18q35 0 35 -35v-953q0 -246 -106 -349t-263 -103q-35 0 -35 33z" />
    <glyph glyph-name="ij" unicode="&#x133;" horiz-adv-x="870" 
d="M612 -43v1032q0 35 35 35h17q35 0 34 -35v-1030q0 -117 -36 -199t-92 -118q-101 -62 -197 -62h-17q-35 0 -34 35v8q0 31 40 34q173 13 226 143q24 63 24 157zM639 1284q-35 0 -35 35v80q0 35 35 35h33q35 0 35 -35v-80q0 -35 -35 -35h-33zM172 35v954q0 35 35 35h16
q35 0 35 -35v-954q0 -35 -35 -35h-16q-35 0 -35 35zM199 1284q-35 0 -35 35v80q0 35 35 35h32q35 0 35 -35v-80q0 -35 -35 -35h-32z" />
    <glyph glyph-name="Jcircumflex" unicode="&#x134;" horiz-adv-x="1024" 
d="M444 1536q-20 0 -26 12t6 31l117 162q16 23 43 22h53q27 0 43 -22l117 -162q12 -19 7 -31t-26 -12h-24q-27 0 -41 23l-101 141h-4l-100 -141q-14 -23 -41 -23h-23zM59 403q0 33 35 33h21q31 0 32 -43q14 -334 293 -334q125 0 211 79t86 251v963h-307q-35 0 -35 34v13
q0 35 35 35h361q35 0 34 -35v-1008q1 -213 -111 -314t-272 -101t-272 102q-112 104 -111 325z" />
    <glyph glyph-name="jcircumflex" unicode="&#x135;" horiz-adv-x="430" 
d="M172 -43v1032q0 35 35 35h16q35 0 35 -35v-1030q0 -117 -36 -199t-93 -118q-100 -62 -197 -62h-16q-35 0 -35 35v8q0 31 41 34t77 13q173 48 173 287zM41 1206q-21 0 -27 12t6 31l117 162q16 23 43 23h53q27 0 43 -23l117 -162q12 -18 7 -30t-25 -13h-25q-27 0 -41 23
l-100 141h-4l-101 -141q-14 -23 -41 -23h-22z" />
    <glyph glyph-name="Kcommaaccent" unicode="&#x136;" horiz-adv-x="1153" 
d="M592 -135h26q43 0 44 -96q0 -55 -18 -117t-56 -62h-8q-31 0 -31 25q0 2 10 38t10 91l-8 94q0 27 31 27zM215 35v1364q0 35 35 35h18q35 0 35 -35v-604h266l396 616q14 23 41 23h28q20 0 28 -12t-3 -31l-414 -633v-4l442 -713q12 -16 7 -29q-6 -12 -29 -12h-31
q-27 0 -41 23l-424 690h-266v-678q0 -35 -35 -35h-18q-35 0 -35 35z" />
    <glyph glyph-name="kcommaaccent" unicode="&#x137;" horiz-adv-x="952" 
d="M485 -135h27q43 0 43 -96q0 -55 -18 -117t-56 -62h-8q-31 0 -31 25q0 2 11 38q10 36 10 91l-8 94q0 27 30 27zM172 35v1364q0 35 35 35h16q35 0 35 -35v-778h182l316 383q18 20 43 20h30q23 0 28 -13t-9 -30l-334 -397v-4l377 -537q12 -19 6 -31t-29 -12h-30
q-27 0 -41 23l-357 518h-182v-506q0 -35 -35 -35h-16q-35 0 -35 35z" />
    <glyph glyph-name="kgreenlandic" unicode="&#x138;" horiz-adv-x="950" 
d="M172 35v954q0 35 35 35h16q35 0 35 -35v-401h176l338 416q18 20 43 20h35q23 0 29 -13t-9 -30l-356 -428v-4l356 -506q12 -18 7 -31q-6 -12 -29 -12h-35q-27 0 -41 23l-338 489h-176v-477q0 -35 -35 -35h-16q-35 0 -35 35z" />
    <glyph glyph-name="Lacute" unicode="&#x139;" horiz-adv-x="1001" 
d="M262 1536q-20 0 -28 12q-7 12 4 29l98 164q14 23 41 22h37q20 0 26 -12t-6 -31l-115 -161q-16 -23 -43 -23h-14zM215 35v1364q0 35 35 35h18q35 0 35 -35v-1317h649q35 0 35 -35v-12q0 -35 -35 -35h-702q-35 0 -35 35z" />
    <glyph glyph-name="lacute" unicode="&#x13a;" horiz-adv-x="468" 
d="M223 1536q-20 0 -27 12t3 29l98 164q14 23 41 22h37q20 0 26 -12t-6 -31l-114 -161q-16 -23 -43 -23h-15zM174 207v1192q0 35 35 35h16q35 0 35 -35v-1163q0 -105 37 -130t76 -30q39 -6 39 -35v-12q0 -37 -37 -37q-64 0 -111 28q-90 52 -90 187z" />
    <glyph glyph-name="Lcommaaccent" unicode="&#x13b;" horiz-adv-x="1001" 
d="M596 -135h27q43 0 43 -96q0 -55 -18 -117t-56 -62h-8q-31 0 -31 25q0 2 10 38t10 91l-8 94q0 27 31 27zM215 35v1364q0 35 35 35h18q35 0 35 -35v-1317h649q35 0 35 -35v-12q0 -35 -35 -35h-702q-35 0 -35 35z" />
    <glyph glyph-name="lcommaaccent" unicode="&#x13c;" horiz-adv-x="468" 
d="M233 -162q0 27 31 27h27q43 0 43 -96q0 -55 -18 -117t-56 -62h-8q-31 0 -31 25q0 2 10 38q11 36 11 82q0 47 -4 67t-5 36zM174 207v1192q0 35 35 35h16q35 0 35 -35v-1163q0 -105 37 -130t76 -30q39 -6 39 -35v-12q0 -37 -37 -37q-64 0 -111 28q-90 52 -90 187z" />
    <glyph glyph-name="Lcaron" unicode="&#x13d;" horiz-adv-x="1001" 
d="M532 1434h27q43 0 43 -97q0 -55 -18 -116t-56 -62h-8q-31 0 -31 25q0 2 11 38q10 36 10 91l-8 94q0 27 30 27zM215 35v1364q0 35 35 35h18q35 0 35 -35v-1317h649q35 0 35 -35v-12q0 -35 -35 -35h-702q-35 0 -35 35z" />
    <glyph glyph-name="lcaron" unicode="&#x13e;" horiz-adv-x="468" 
d="M430 1434h27q43 0 43 -97q0 -55 -18 -116t-56 -62h-8q-31 0 -31 25q0 2 10 38t11 91l-9 94q0 27 31 27zM174 207v1192q0 35 35 35h16q35 0 35 -35v-1163q0 -105 37 -130t76 -30q39 -6 39 -35v-12q0 -37 -37 -37q-64 0 -111 28q-90 52 -90 187z" />
    <glyph glyph-name="Ldot" unicode="&#x13f;" horiz-adv-x="1001" 
d="M610 684q-35 0 -35 35v59q0 35 35 35h56q35 0 34 -35v-59q0 -35 -34 -35h-56zM215 35v1364q0 35 35 35h18q35 0 35 -35v-1317h649q35 0 35 -35v-12q0 -35 -35 -35h-702q-35 0 -35 35z" />
    <glyph glyph-name="ldot" unicode="&#x140;" horiz-adv-x="477" 
d="M428 684q-35 0 -35 35v59q0 35 35 35h55q35 0 35 -35v-59q0 -35 -35 -35h-55zM174 207v1192q0 35 35 35h16q35 0 35 -35v-1163q0 -105 37 -130t76 -30q39 -6 39 -35v-12q0 -37 -37 -37q-64 0 -111 28q-90 52 -90 187z" />
    <glyph glyph-name="Lslash" unicode="&#x141;" horiz-adv-x="1001" 
d="M215 35v723l-92 -51q-16 -10 -29 -5q-12 6 -12 27v21q0 29 24 43l109 61v545q0 35 35 35h18q35 0 35 -35v-494l195 113q16 10 28 3t13 -28v-20q0 -27 -25 -43l-211 -121v-727h649q35 0 35 -35v-12q0 -35 -35 -35h-702q-35 0 -35 35z" />
    <glyph glyph-name="lslash" unicode="&#x142;" horiz-adv-x="483" 
d="M186 207v579l-141 -79q-16 -10 -29 -5q-12 6 -12 27v21q0 29 25 43l157 90v516q0 35 35 35h17q35 0 34 -35v-465l148 84q16 10 28 4t13 -27v-22q0 -27 -25 -43l-164 -94v-603q0 -101 37 -126t76 -31t39 -35v-12q0 -37 -37 -37q-62 0 -110 28q-91 52 -91 187z" />
    <glyph glyph-name="Nacute" unicode="&#x143;" horiz-adv-x="1527" 
d="M766 1536q-20 0 -28 12q-7 12 3 29l99 164q14 23 41 22h37q20 0 26 -12t-6 -31l-115 -161q-16 -23 -43 -23h-14zM215 35v1364q0 35 35 35h20q27 0 43 -23l801 -1102l117 -180h4q-10 109 -10 180v1090q0 35 35 35h18q35 0 35 -35v-1364q0 -35 -35 -35h-21q-27 0 -43 23
l-800 1101l-117 181h-4q10 -109 10 -181v-1089q0 -35 -35 -35h-18q-35 0 -35 35z" />
    <glyph glyph-name="nacute" unicode="&#x144;" horiz-adv-x="1183" 
d="M625 1206q-19 0 -27 12t2 29l98 164q14 23 41 23h37q20 0 26 -12t-5 -31l-115 -162q-16 -23 -43 -23h-14zM172 35v954q0 35 35 35h16q35 0 35 -35v-145l-8 -84h4q35 98 149 193q115 95 294 95t254 -100q75 -102 75 -299v-614q0 -35 -35 -35h-16q-35 0 -35 35v583
q0 205 -61 275t-191 72q-178 0 -304 -130t-126 -325v-475q0 -35 -35 -35h-16q-35 0 -35 35z" />
    <glyph glyph-name="Ncommaaccent" unicode="&#x145;" horiz-adv-x="1527" 
d="M743 -135h27q43 0 43 -96q0 -55 -18 -117t-56 -62h-8q-31 0 -31 25q0 2 11 38q10 36 10 91l-8 94q0 27 30 27zM215 35v1364q0 35 35 35h20q27 0 43 -23l801 -1102l117 -180h4q-10 109 -10 180v1090q0 35 35 35h18q35 0 35 -35v-1364q0 -35 -35 -35h-21q-27 0 -43 23
l-800 1101l-117 181h-4q10 -109 10 -181v-1089q0 -35 -35 -35h-18q-35 0 -35 35z" />
    <glyph glyph-name="ncommaaccent" unicode="&#x146;" horiz-adv-x="1183" 
d="M580 -135h26q43 0 43 -96q0 -55 -18 -117t-56 -62h-8q-31 0 -30 25q0 2 10 38t10 91l-8 94q0 27 31 27zM172 35v954q0 35 35 35h16q35 0 35 -35v-145l-8 -84h4q35 98 149 193q115 95 294 95t254 -100q75 -102 75 -299v-614q0 -35 -35 -35h-16q-35 0 -35 35v583
q0 205 -61 275t-191 72q-178 0 -304 -130t-126 -325v-475q0 -35 -35 -35h-16q-35 0 -35 35z" />
    <glyph glyph-name="Ncaron" unicode="&#x147;" horiz-adv-x="1527" 
d="M737 1536q-27 0 -43 23l-116 161q-12 18 -7 31q6 12 27 12h23q27 0 41 -22l100 -142h4l100 142q14 23 41 22h23q20 0 26 -12t-6 -31l-116 -161q-16 -23 -43 -23h-54zM215 35v1364q0 35 35 35h20q27 0 43 -23l801 -1102l117 -180h4q-10 109 -10 180v1090q0 35 35 35h18
q35 0 35 -35v-1364q0 -35 -35 -35h-21q-27 0 -43 23l-800 1101l-117 181h-4q10 -109 10 -181v-1089q0 -35 -35 -35h-18q-35 0 -35 35z" />
    <glyph glyph-name="ncaron" unicode="&#x148;" horiz-adv-x="1183" 
d="M596 1206q-27 0 -43 23l-117 162q-12 18 -6 30t27 13h22q27 0 41 -23l101 -141h4l100 141q14 23 41 23h22q20 0 26 -12t-5 -31l-117 -162q-16 -23 -43 -23h-53zM172 35v954q0 35 35 35h16q35 0 35 -35v-145l-8 -84h4q35 98 149 193q115 95 294 95t254 -100
q75 -102 75 -299v-614q0 -35 -35 -35h-16q-35 0 -35 35v583q0 205 -61 275t-191 72q-178 0 -304 -130t-126 -325v-475q0 -35 -35 -35h-16q-35 0 -35 35z" />
    <glyph glyph-name="napostrophe" unicode="&#x149;" horiz-adv-x="1183" 
d="M88 1434h27q43 0 43 -97q0 -55 -18 -116t-56 -62h-8q-31 0 -31 25q0 2 10 38t11 91l-9 94q0 27 31 27zM172 35v954q0 35 35 35h16q35 0 35 -35v-145l-8 -84h4q35 98 149 193q115 95 294 95t254 -100q75 -102 75 -299v-614q0 -35 -35 -35h-16q-35 0 -35 35v583
q0 205 -61 275t-191 72q-178 0 -304 -130t-126 -325v-475q0 -35 -35 -35h-16q-35 0 -35 35z" />
    <glyph glyph-name="Eng" unicode="&#x14a;" horiz-adv-x="1527" 
d="M215 35v1364q0 35 35 35h20q27 0 43 -23l801 -1102l117 -180h4q-10 109 -10 180v1090q0 35 35 35h18q35 0 35 -35v-1403q0 -205 -94 -304t-254 -110q-35 -4 -35 33v16q0 33 33 37q129 10 195 89t67 251l-811 1116l-117 181h-4q10 -109 10 -181v-1089q0 -35 -35 -35h-18
q-35 0 -35 35z" />
    <glyph glyph-name="eng" unicode="&#x14b;" horiz-adv-x="1185" 
d="M172 35v954q0 35 35 35h16q35 0 35 -35v-145l-8 -84h4q35 98 149 193q115 95 294 95t254 -100q75 -102 75 -299v-690q0 -117 -36 -199t-93 -118q-100 -62 -197 -62h-16q-35 0 -35 35v8q0 31 41 34t77 13q173 48 173 287v661q0 205 -61 275t-191 72q-178 0 -304 -130
t-126 -325v-475q0 -35 -35 -35h-16q-35 0 -35 35z" />
    <glyph glyph-name="Omacron" unicode="&#x14c;" horiz-adv-x="1675" 
d="M629 1610q-35 0 -35 35v12q0 35 35 35h420q35 0 34 -35v-12q0 -35 -34 -35h-420zM205 724q0 -280 181 -472q182 -192 452 -193q270 0 451 193t181 472q0 278 -181 464t-451 186t-452 -185q-181 -185 -181 -465zM113 723q0 313 209 524t516 211t516 -211t209 -524
t-209 -530t-516 -217t-516 216q-209 218 -209 531z" />
    <glyph glyph-name="omacron" unicode="&#x14d;" horiz-adv-x="1253" 
d="M418 1280q-35 0 -35 35v12q0 35 35 35h420q35 0 34 -35v-12q0 -35 -34 -35h-420zM186 514q0 -192 128 -323q128 -132 312 -132t313 132q128 131 128 323t-128 322t-312 129q-184 0 -313 -129q-128 -130 -128 -322zM96 516q0 225 155 379t376 154t375 -154t155 -379
q0 -225 -155 -383q-156 -158 -376 -158t-375 158t-155 383z" />
    <glyph glyph-name="Obreve" unicode="&#x14e;" horiz-adv-x="1675" 
d="M839 1530q-85 0 -147 57q-61 57 -61 144q0 33 35 32h12q33 0 35 -28q8 -127 125 -127t125 129q4 27 34 26h13q35 0 34 -32q0 -81 -60 -141t-145 -60zM205 724q0 -280 181 -472q182 -192 452 -193q270 0 451 193t181 472q0 278 -181 464t-451 186t-452 -185
q-181 -185 -181 -465zM113 723q0 313 209 524t516 211t516 -211t209 -524t-209 -530t-516 -217t-516 216q-209 218 -209 531z" />
    <glyph glyph-name="obreve" unicode="&#x14f;" horiz-adv-x="1253" 
d="M834 1401q0 -81 -60 -141t-146 -60q-85 0 -147 57q-61 57 -61 144q0 33 35 33h12q33 0 35 -29q8 -127 125 -127t125 129q4 27 34 27h13q35 0 35 -33zM186 514q0 -192 128 -323q128 -132 312 -132t313 132q128 131 128 323t-128 322t-312 129q-184 0 -313 -129
q-128 -130 -128 -322zM96 516q0 225 155 379t376 154t375 -154t155 -379q0 -225 -155 -383q-156 -158 -376 -158t-375 158t-155 383z" />
    <glyph glyph-name="Ohungarumlaut" unicode="&#x150;" horiz-adv-x="1675" 
d="M690 1536q-20 0 -27 12t3 29l90 162q14 25 43 24h24q19 0 27 -12t-2 -29l-94 -161q-16 -25 -41 -25h-23zM928 1536q-20 0 -28 12q-7 12 3 29l98 164q14 23 41 22h37q21 0 27 -12t-6 -31l-115 -161q-16 -23 -43 -23h-14zM205 724q0 -280 181 -472q182 -192 452 -193
q270 0 451 193t181 472q0 278 -181 464t-451 186t-452 -185q-181 -185 -181 -465zM113 723q0 313 209 524t516 211t516 -211t209 -524t-209 -530t-516 -217t-516 216q-209 218 -209 531z" />
    <glyph glyph-name="ohungarumlaut" unicode="&#x151;" horiz-adv-x="1253" 
d="M479 1206q-20 0 -27 12t3 29l90 162q16 25 43 25h24q20 0 28 -12t-3 -29l-94 -162q-14 -25 -41 -25h-23zM717 1206q-19 0 -27 12t2 29l99 164q14 23 40 23h37q20 0 26 -12t-5 -31l-115 -162q-16 -23 -43 -23h-14zM186 514q0 -192 128 -323q128 -132 312 -132t313 132
q128 131 128 323t-128 322t-312 129q-184 0 -313 -129q-128 -130 -128 -322zM96 516q0 225 155 379t376 154t375 -154t155 -379q0 -225 -155 -383q-156 -158 -376 -158t-375 158t-155 383z" />
    <glyph glyph-name="OE" unicode="&#x152;" horiz-adv-x="1892" 
d="M207 716q0 -282 174 -467t455 -186q64 0 122 13l21 4v1274q-68 16 -143 16q-281 0 -455 -186t-174 -468zM115 716q0 314 202 526q203 212 519 212l237 -20h656q35 0 34 -35v-13q0 -35 -34 -34h-662v-588h537q35 0 34 -35v-12q0 -35 -34 -35h-537v-600h700q35 0 35 -35
v-12q0 -35 -35 -35h-692l-239 -20q-315 0 -519 210q-202 212 -202 526z" />
    <glyph glyph-name="oe" unicode="&#x153;" horiz-adv-x="2078" 
d="M188 510q0 -201 127 -326t311 -125t313 127q128 127 128 329t-129 326t-312 124q-182 0 -310 -127t-128 -328zM1556 969q-144 1 -254 -95q-112 -96 -139 -268h729q-8 178 -100 270t-236 93zM98 510q0 238 155 388t374 151q159 0 287 -82t192 -224h4q59 145 181 225
t274 81q197 -1 307 -133t110 -355q0 -35 -36 -35h-789q6 -221 131 -344t300 -123t296 105q29 23 49 -6l9 -15q18 -29 -7 -47q-145 -121 -323 -121t-308 82t-192 226h-4q-62 -143 -192 -225t-289 -83q-221 1 -375 149t-154 386z" />
    <glyph glyph-name="Racute" unicode="&#x154;" horiz-adv-x="1230" 
d="M606 1536q-20 0 -27 12t3 29l98 164q14 23 41 22h37q20 0 26 -12t-6 -31l-114 -161q-16 -23 -43 -23h-15zM303 717h389q139 0 223 91t84 239q0 93 -45 167q-46 74 -116 106t-207 32h-328v-635zM215 35v1364q0 35 35 35h385q172 0 261 -44t142 -134q54 -90 54 -226
q0 -135 -80 -243t-207 -136v-4q14 -16 33 -51l299 -555q20 -41 -25 -41h-29q-29 0 -41 25l-327 610h-412v-600q0 -35 -35 -35h-18q-35 0 -35 35z" />
    <glyph glyph-name="racute" unicode="&#x155;" horiz-adv-x="657" 
d="M416 1206q-20 0 -28 12t3 29l98 164q14 23 41 23h37q21 0 27 -12t-6 -31l-115 -162q-16 -23 -43 -23h-14zM172 35v954q0 35 35 35h16q35 0 35 -35v-160l-8 -84h4q41 125 131 205t213 80q43 0 43 -35v-18q0 -35 -45 -35q-108 0 -188 -79q-150 -149 -150 -421v-407
q0 -35 -35 -35h-16q-35 0 -35 35z" />
    <glyph glyph-name="Rcommaaccent" unicode="&#x156;" horiz-adv-x="1228" 
d="M625 -135h26q43 0 43 -96q0 -55 -18 -117t-55 -62h-9q-31 0 -30 25q0 2 10 38t10 91l-8 94q0 27 31 27zM303 717h389q139 0 223 91t84 239q0 93 -45 167q-46 74 -116 106t-207 32h-328v-635zM215 35v1364q0 35 35 35h385q172 0 261 -44t142 -134q54 -90 54 -226
q0 -135 -80 -243t-207 -136v-4q14 -16 33 -51l299 -555q20 -41 -25 -41h-29q-29 0 -41 25l-327 610h-412v-600q0 -35 -35 -35h-18q-35 0 -35 35z" />
    <glyph glyph-name="rcommaaccent" unicode="&#x157;" horiz-adv-x="657" 
d="M199 -135h26q43 0 43 -96q0 -55 -18 -117t-55 -62h-9q-31 0 -30 25q0 2 10 38t10 91l-8 94q0 27 31 27zM172 35v954q0 35 35 35h16q35 0 35 -35v-160l-8 -84h4q41 125 131 205t213 80q43 0 43 -35v-18q0 -35 -45 -35q-108 0 -188 -79q-150 -149 -150 -421v-407
q0 -35 -35 -35h-16q-35 0 -35 35z" />
    <glyph glyph-name="Rcaron" unicode="&#x158;" horiz-adv-x="1230" 
d="M578 1536q-27 0 -43 23l-117 161q-12 18 -6 30t26 13h23q27 0 41 -22l100 -142h4l101 142q14 23 41 22h22q20 0 26 -12t-5 -31l-117 -161q-16 -23 -43 -23h-53zM303 717h389q139 0 223 91t84 239q0 93 -45 167q-46 74 -116 106t-207 32h-328v-635zM215 35v1364
q0 35 35 35h385q172 0 261 -44t142 -134q54 -90 54 -226q0 -135 -80 -243t-207 -136v-4q14 -16 33 -51l299 -555q20 -41 -25 -41h-29q-29 0 -41 25l-327 610h-412v-600q0 -35 -35 -35h-18q-35 0 -35 35z" />
    <glyph glyph-name="rcaron" unicode="&#x159;" horiz-adv-x="657" 
d="M387 1206q-27 0 -43 23l-117 162q-12 18 -6 30t27 13h22q27 0 41 -23l101 -141h4l100 141q14 23 41 23h23q20 0 26 -12t-6 -31l-117 -162q-16 -23 -43 -23h-53zM172 35v954q0 35 35 35h16q35 0 35 -35v-160l-8 -84h4q41 125 131 205t213 80q43 0 43 -35v-18
q0 -35 -45 -35q-108 0 -188 -79q-150 -149 -150 -421v-407q0 -35 -35 -35h-16q-35 0 -35 35z" />
    <glyph glyph-name="Sacute" unicode="&#x15a;" horiz-adv-x="1056" 
d="M535 1536q-20 0 -28 12q-7 12 3 29l98 164q14 23 41 22h37q20 0 26 -12t-5 -31l-115 -161q-16 -23 -43 -23h-14zM860 336q0 120 -76 196t-184 122t-214 94q-108 48 -184 134q-76 85 -75 208q0 166 124 267q125 101 317 101t329 -112q27 -20 8 -48l-12 -18q-20 -29 -49 -6
q-132 98 -280 98t-246 -76t-99 -190q0 -114 76 -187q75 -73 183 -117t216 -93t183 -137q76 -88 75 -218q0 -166 -114 -272t-324 -106q-211 0 -391 153q-25 25 -2 49l14 17q23 27 49 2q154 -135 351 -136q143 0 234 78t91 197z" />
    <glyph glyph-name="sacute" unicode="&#x15b;" horiz-adv-x="868" 
d="M446 1206q-20 0 -27 12t3 29l98 164q14 23 41 23h37q20 0 26 -12t-6 -31l-114 -162q-16 -23 -43 -23h-15zM686 243q0 81 -58 130t-140 80t-166 65q-82 34 -141 98q-58 63 -58 156q0 131 94 204t250 73t262 -88q27 -20 8 -48l-12 -16q-20 -27 -49 -4q-92 72 -210 72
t-186 -46q-68 -47 -67 -131q0 -84 58 -133q57 -49 141 -81t166 -66t140 -98t58 -172t-93 -186q-93 -77 -234 -77q-216 0 -347 125q-25 20 -4 47l13 15q20 25 49 2q121 -104 291 -105q99 -1 167 51t68 133z" />
    <glyph glyph-name="Scircumflex" unicode="&#x15c;" horiz-adv-x="1056" 
d="M369 1536q-20 0 -27 12q-6 12 6 31l117 162q16 23 43 22h53q27 0 43 -22l117 -162q12 -19 7 -31t-26 -12h-24q-27 0 -41 23l-100 141h-5l-100 -141q-14 -23 -41 -23h-22zM860 336q0 120 -76 196t-184 122t-214 94q-108 48 -184 134q-76 85 -75 208q0 166 124 267
q125 101 317 101t329 -112q27 -20 8 -48l-12 -18q-20 -29 -49 -6q-132 98 -280 98t-246 -76t-99 -190q0 -114 76 -187q75 -73 183 -117t216 -93t183 -137q76 -88 75 -218q0 -166 -114 -272t-324 -106q-211 0 -391 153q-25 25 -2 49l14 17q23 27 49 2q154 -135 351 -136
q143 0 234 78t91 197z" />
    <glyph glyph-name="scircumflex" unicode="&#x15d;" horiz-adv-x="868" 
d="M281 1206q-21 0 -27 12t6 31l117 162q16 23 43 23h53q27 0 43 -23l117 -162q12 -18 7 -30t-26 -13h-24q-27 0 -41 23l-100 141h-5l-100 -141q-14 -23 -41 -23h-22zM686 243q0 81 -58 130t-140 80t-166 65q-82 34 -141 98q-58 63 -58 156q0 131 94 204t250 73t262 -88
q27 -20 8 -48l-12 -16q-20 -27 -49 -4q-92 72 -210 72t-186 -46q-68 -47 -67 -131q0 -84 58 -133q57 -49 141 -81t166 -66t140 -98t58 -172t-93 -186q-93 -77 -234 -77q-216 0 -347 125q-25 20 -4 47l13 15q20 25 49 2q121 -104 291 -105q99 -1 167 51t68 133z" />
    <glyph glyph-name="Scedilla" unicode="&#x15e;" horiz-adv-x="1060" 
d="M862 336q0 120 -76 196t-184 122t-214 94q-108 48 -184 134q-76 85 -75 208q0 166 124 267q125 101 317 101t329 -112q27 -20 8 -48l-12 -18q-20 -29 -49 -6q-132 98 -280 98t-246 -76t-99 -190q0 -114 76 -187q75 -73 183 -117t216 -93t183 -137t75 -232t-103 -249
t-282 -114l-18 -100q63 -10 102 -47q39 -36 39 -104t-53 -106t-138 -38t-85 41t30 41l54 -6q111 0 110 76q0 68 -104 78q-16 2 -28 14q-11 13 -7 33l25 118q-215 14 -371 152q-25 25 -2 49l14 17q23 27 49 2q154 -135 351 -136q143 0 234 78t91 197z" />
    <glyph glyph-name="scedilla" unicode="&#x15f;" horiz-adv-x="872" 
d="M125 772q0 131 94 204t250 73t262 -88q27 -20 8 -48l-12 -16q-20 -27 -49 -4q-92 72 -210 72t-186 -46q-68 -47 -67 -131q0 -84 58 -133q57 -49 141 -81t166 -66t140 -98t58 -168t-85 -181q-85 -76 -216 -84l-18 -100q63 -10 102 -47q39 -36 39 -104t-53 -106t-138 -38
t-85 41t30 41l54 -6q111 0 110 76q0 68 -104 78q-16 2 -28 14q-11 13 -7 33l24 118q-184 14 -299 123q-25 20 -4 47l13 15q20 25 49 2q123 -104 291 -105q100 -1 168 51q67 52 67 133t-58 130t-140 80t-166 65q-82 34 -141 98q-58 63 -58 156z" />
    <glyph glyph-name="Scaron" unicode="&#x160;" horiz-adv-x="1056" 
d="M508 1536q-27 0 -43 23l-117 161q-12 18 -6 30t27 13h22q27 0 41 -22l100 -142h5l100 142q14 23 41 22h22q20 0 26 -12t-5 -31l-117 -161q-16 -23 -43 -23h-53zM860 336q0 120 -76 196t-184 122t-214 94q-108 48 -184 134q-76 85 -75 208q0 166 124 267q125 101 317 101
t329 -112q27 -20 8 -48l-12 -18q-20 -29 -49 -6q-132 98 -280 98t-246 -76t-99 -190q0 -114 76 -187q75 -73 183 -117t216 -93t183 -137q76 -88 75 -218q0 -166 -114 -272t-324 -106q-211 0 -391 153q-25 25 -2 49l14 17q23 27 49 2q154 -135 351 -136q143 0 234 78t91 197z
" />
    <glyph glyph-name="scaron" unicode="&#x161;" horiz-adv-x="868" 
d="M420 1206q-27 0 -43 23l-117 162q-12 18 -6 30t27 13h22q27 0 41 -23l100 -141h5l100 141q14 23 41 23h22q20 0 26 -12t-5 -31l-117 -162q-16 -23 -43 -23h-53zM686 243q0 81 -58 130t-140 80t-166 65q-82 34 -141 98q-58 63 -58 156q0 131 94 204t250 73t262 -88
q27 -20 8 -48l-12 -16q-20 -27 -49 -4q-92 72 -210 72t-186 -46q-68 -47 -67 -131q0 -84 58 -133q57 -49 141 -81t166 -66t140 -98t58 -172t-93 -186q-93 -77 -234 -77q-216 0 -347 125q-25 20 -4 47l13 15q20 25 49 2q121 -104 291 -105q99 -1 167 51t68 133z" />
    <glyph glyph-name="Tcommaaccent" unicode="&#x162;" horiz-adv-x="1181" 
d="M662 -266q0 68 -105 78q-16 2 -28 14q-11 13 -7 33l31 151q-6 10 -6 25v1317h-500q-35 0 -35 34v13q0 35 35 35h1088q35 0 34 -35v-13q0 -35 -34 -34h-500v-1317q0 -14 -8 -27l-25 -131q62 -10 102 -47q40 -36 40 -104t-54 -106q-53 -38 -138 -38t-85 41t31 41l53 -6
q111 0 111 76z" />
    <glyph glyph-name="tcommaaccent" unicode="&#x163;" horiz-adv-x="618" 
d="M459 -266q0 68 -105 78q-16 2 -28 14t-7 33l37 176q-150 88 -149 336v569h-101q-35 0 -34 35v8q0 35 34 35h101v256q0 35 35 35h16q35 0 35 -35v-256h233q35 0 35 -35v-8q0 -35 -35 -35h-233v-563q0 -293 250 -305q41 -2 41 -35v-10q0 -35 -35 -35q-66 0 -125 16
l-25 -131q63 -10 103 -47q40 -36 39 -104q1 -68 -53 -106t-139 -38t-85 41t31 41l53 -6q111 0 111 76z" />
    <glyph glyph-name="Tcaron" unicode="&#x164;" horiz-adv-x="1181" 
d="M563 1536q-27 0 -43 23l-117 161q-12 18 -6 30t27 13h22q27 0 41 -22l101 -142h4l100 142q14 23 41 22h23q20 0 26 -12t-6 -31l-117 -161q-16 -23 -43 -23h-53zM547 35v1317h-500q-35 0 -35 34v13q0 35 35 35h1088q35 0 34 -35v-13q0 -35 -34 -34h-500v-1317
q0 -35 -35 -35h-18q-35 0 -35 35z" />
    <glyph glyph-name="tcaron" unicode="&#x165;" horiz-adv-x="616" 
d="M471 1434h27q43 0 43 -97q-1 -55 -19 -116t-55 -62h-8q-31 0 -31 25q0 2 10 38t11 91l-9 94q0 27 31 27zM205 371v569h-101q-35 0 -34 35v8q0 35 34 35h101v256q0 35 35 35h16q35 0 35 -35v-256h233q35 0 35 -35v-8q0 -35 -35 -35h-233v-563q0 -293 250 -305
q41 -2 41 -35v-10q0 -35 -35 -35q-174 0 -258 100t-84 279z" />
    <glyph glyph-name="Tbar" unicode="&#x166;" horiz-adv-x="1185" 
d="M549 35v655h-305q-35 0 -35 35v12q0 35 35 35h305v580h-500q-35 0 -35 34v13q0 35 35 35h1088q35 0 34 -35v-13q0 -35 -34 -34h-500v-580h313q35 0 35 -35v-12q0 -35 -35 -35h-313v-655q0 -35 -35 -35h-18q-35 0 -35 35z" />
    <glyph glyph-name="tbar" unicode="&#x167;" horiz-adv-x="622" 
d="M205 371v233h-101q-35 0 -34 35v12q0 35 34 35h101v254h-101q-35 0 -34 35v8q0 35 34 35h101v256q0 35 35 35h16q35 0 35 -35v-256h233q35 0 35 -35v-8q0 -35 -35 -35h-233v-254h233q35 0 35 -35v-12q0 -35 -35 -35h-233v-227q0 -293 250 -305q41 -2 41 -35v-10
q0 -35 -35 -35q-174 0 -258 100t-84 279z" />
    <glyph glyph-name="Utilde" unicode="&#x168;" horiz-adv-x="1460" 
d="M467 1542q-31 0 -31 45q0 80 46 128t108 48q101 0 159 -76q59 -76 107 -76q47 1 68 35q20 34 20 72t37 39h12q31 0 31 -37q0 -86 -45 -135t-107 -49q-102 0 -160 76q-57 76 -106 76q-87 0 -90 -113q0 -33 -37 -33h-12zM195 492v907q0 35 34 35h19q35 0 35 -35v-903
q1 -201 121 -319t325 -118t327 118t122 323v899q0 35 34 35h19q35 0 35 -35v-907q0 -236 -148 -376t-388 -140q-239 0 -387 141q-148 142 -148 375z" />
    <glyph glyph-name="utilde" unicode="&#x169;" horiz-adv-x="1173" 
d="M317 1212q-31 0 -30 45q0 80 46 128q45 49 107 49q101 1 159 -76q57 -76 106 -76q87 0 90 113q0 33 36 32h13q31 0 30 -36q0 -85 -45 -135t-107 -50q-100 0 -159 76t-107 76q-89 0 -89 -113q0 -33 -37 -33h-13zM158 375v614q0 35 35 35h16q35 0 35 -35v-583
q0 -205 61 -275t191 -72q184 1 302 139t117 326v465q0 35 35 35h17q35 0 34 -35v-954q0 -35 -34 -35h-17q-35 0 -35 35v145l9 84h-4q-35 -98 -148 -193q-114 -95 -286 -95t-250 98t-78 301z" />
    <glyph glyph-name="Umacron" unicode="&#x16a;" horiz-adv-x="1460" 
d="M520 1610q-35 0 -35 35v12q0 35 35 35h420q35 0 35 -35v-12q0 -35 -35 -35h-420zM195 492v907q0 35 34 35h19q35 0 35 -35v-903q1 -201 121 -319t325 -118t327 118t122 323v899q0 35 34 35h19q35 0 35 -35v-907q0 -236 -148 -376t-388 -140q-239 0 -387 141
q-148 142 -148 375z" />
    <glyph glyph-name="umacron" unicode="&#x16b;" horiz-adv-x="1173" 
d="M371 1280q-35 0 -35 35v12q0 35 35 35h420q35 0 34 -35v-12q0 -35 -34 -35h-420zM158 375v614q0 35 35 35h16q35 0 35 -35v-583q0 -205 61 -275t191 -72q184 1 302 139t117 326v465q0 35 35 35h17q35 0 34 -35v-954q0 -35 -34 -35h-17q-35 0 -35 35v145l9 84h-4
q-35 -98 -148 -193q-114 -95 -286 -95t-250 98t-78 301z" />
    <glyph glyph-name="Ubreve" unicode="&#x16c;" horiz-adv-x="1460" 
d="M730 1530q-85 0 -146 57t-62 144q0 33 35 32h12q33 0 35 -28q8 -127 125 -127t125 129q4 27 35 26h12q35 0 35 -32q0 -82 -60 -142q-61 -59 -146 -59zM195 492v907q0 35 34 35h19q35 0 35 -35v-903q1 -201 121 -319t325 -118t327 118t122 323v899q0 35 34 35h19
q35 0 35 -35v-907q0 -236 -148 -376t-388 -140q-239 0 -387 141q-148 142 -148 375z" />
    <glyph glyph-name="ubreve" unicode="&#x16d;" horiz-adv-x="1173" 
d="M581 1200q-85 0 -147 57q-61 57 -61 144q0 33 35 33h12q33 0 35 -29q8 -127 125 -127t125 129q4 27 34 27h13q35 0 34 -33q0 -81 -60 -141t-145 -60zM158 375v614q0 35 35 35h16q35 0 35 -35v-583q0 -205 61 -275t191 -72q184 1 302 139t117 326v465q0 35 35 35h17
q35 0 34 -35v-954q0 -35 -34 -35h-17q-35 0 -35 35v145l9 84h-4q-35 -98 -148 -193q-114 -95 -286 -95t-250 98t-78 301z" />
    <glyph glyph-name="Uring" unicode="&#x16e;" horiz-adv-x="1460" 
d="M729 1587q29 1 47 19t18 48t-18 48t-47 18t-47 -18t-18 -48t18 -48t47 -19zM729 1516q-57 0 -97 38t-40 98t40 99t97 39t97 -39t40 -98t-40 -98t-97 -39zM195 492v907q0 35 34 35h19q35 0 35 -35v-903q1 -201 121 -319t325 -118t327 118t122 323v899q0 35 34 35h19
q35 0 35 -35v-907q0 -236 -148 -376t-388 -140q-239 0 -387 141q-148 142 -148 375z" />
    <glyph glyph-name="uring" unicode="&#x16f;" horiz-adv-x="1173" 
d="M580 1257q29 1 47 19t18 48t-18 48t-47 18q-30 0 -48 -18t-18 -48t18 -48t48 -19zM580 1186q-59 0 -99 40q-39 40 -39 97t39 97t99 40t98 -40q39 -40 39 -97t-39 -97t-98 -40zM158 375v614q0 35 35 35h16q35 0 35 -35v-583q0 -205 61 -275t191 -72q184 1 302 139t117 326
v465q0 35 35 35h17q35 0 34 -35v-954q0 -35 -34 -35h-17q-35 0 -35 35v145l9 84h-4q-35 -98 -148 -193q-114 -95 -286 -95t-250 98t-78 301z" />
    <glyph glyph-name="Uhungarumlaut" unicode="&#x170;" horiz-adv-x="1460" 
d="M582 1536q-20 0 -28 12q-7 12 3 29l90 162q16 25 43 24h25q20 0 27 -12t-3 -29l-94 -161q-14 -25 -41 -25h-22zM819 1536q-20 0 -27 12t3 29l98 164q14 23 41 22h37q20 0 26 -12t-6 -31l-114 -161q-16 -23 -43 -23h-15zM195 492v907q0 35 34 35h19q35 0 35 -35v-903
q1 -201 121 -319t325 -118t327 118t122 323v899q0 35 34 35h19q35 0 35 -35v-907q0 -236 -148 -376t-388 -140q-239 0 -387 141q-148 142 -148 375z" />
    <glyph glyph-name="uhungarumlaut" unicode="&#x171;" horiz-adv-x="1173" 
d="M432 1206q-20 0 -28 12t4 29l90 162q14 25 43 25h24q19 0 27 -12t-2 -29l-94 -162q-14 -25 -41 -25h-23zM670 1206q-20 0 -28 12t3 29l98 164q14 23 41 23h37q21 0 27 -12t-6 -31l-115 -162q-16 -23 -43 -23h-14zM158 375v614q0 35 35 35h16q35 0 35 -35v-583
q0 -205 61 -275t191 -72q184 1 302 139t117 326v465q0 35 35 35h17q35 0 34 -35v-954q0 -35 -34 -35h-17q-35 0 -35 35v145l9 84h-4q-35 -98 -148 -193q-114 -95 -286 -95t-250 98t-78 301z" />
    <glyph glyph-name="Uogonek" unicode="&#x172;" horiz-adv-x="1460" 
d="M195 492v907q0 35 34 35h19q35 0 35 -35v-903q1 -201 121 -319t325 -118t327 118t122 323v899q0 35 34 35h19q35 0 35 -35v-907q0 -176 -75 -282t-198 -177q-223 -129 -223 -256q0 -78 104 -109q35 -10 27 -41l-2 -12q-10 -35 -41 -29q-180 37 -180 183q0 113 113 208
q-256 -19 -426 123t-170 392z" />
    <glyph glyph-name="uogonek" unicode="&#x173;" horiz-adv-x="1173" 
d="M158 375v614q0 35 35 35h16q35 0 35 -35v-583q0 -205 61 -275t191 -72q184 1 302 139t117 326v465q0 35 35 35h17q35 0 34 -35v-954q-1 -27 -41 -66t-81 -88t-41 -104q0 -78 104 -109q35 -10 27 -41l-2 -12q-10 -35 -41 -29q-180 37 -181 183q1 75 57 143t118 102
q-4 6 -5 21v145l9 84h-4q-35 -98 -148 -193q-114 -95 -286 -95t-250 98t-78 301z" />
    <glyph glyph-name="Wcircumflex" unicode="&#x174;" horiz-adv-x="1878" 
d="M793 1536q-20 0 -27 12q-6 12 6 31l117 162q16 23 43 22h53q27 0 43 -22l117 -162q12 -19 7 -31t-26 -12h-24q-27 0 -41 23l-100 141h-5l-100 -141q-14 -23 -41 -23h-22zM127 1434h20q31 0 39 -31l295 -1137l35 -153h4q18 82 39 153l320 1139q10 29 39 29h36q29 0 39 -29
l320 -1139l39 -153h4q16 84 35 153l305 1137q8 31 39 31h20q41 0 31 -39l-369 -1366q-10 -29 -39 -29h-49q-29 0 -39 29l-295 1052l-55 228h-8q-29 -135 -55 -228l-295 -1052q-10 -29 -39 -29h-49q-31 0 -39 31l-359 1364q-10 39 31 39z" />
    <glyph glyph-name="wcircumflex" unicode="&#x175;" horiz-adv-x="1615" 
d="M641 1206q-21 0 -27 12t7 31l116 162q16 23 43 23h54q27 0 43 -23l116 -162q12 -18 7 -30t-25 -13h-25q-27 0 -41 23l-100 141h-4l-100 -141q-14 -23 -41 -23h-23zM78 1024h18q33 0 41 -29l269 -774l34 -110h4q18 61 35 110l271 770q8 29 41 29h34q33 0 41 -29l271 -770
l34 -110h5q16 59 34 110l269 774q8 29 41 29h18q43 0 29 -39l-336 -956q-8 -29 -41 -29h-31q-33 0 -41 29l-274 766l-35 110h-4q-16 -61 -35 -110l-272 -766q-8 -29 -41 -29h-31q-33 0 -41 29l-336 956q-14 39 29 39z" />
    <glyph glyph-name="Ycircumflex" unicode="&#x176;" horiz-adv-x="1110" 
d="M389 1536q-20 0 -27 12q-6 12 7 31l116 162q16 23 43 22h54q27 0 43 -22l116 -162q12 -18 8 -31q-5 -12 -26 -12h-25q-27 0 -41 23l-100 141h-4l-100 -141q-14 -23 -41 -23h-23zM512 35v588l-463 770q-10 16 -3 28t28 13h24q25 0 41 -23l326 -543l88 -161h4q45 92 88 161
l326 543q16 23 41 23h24q20 0 28 -12t-3 -29l-461 -770v-588q0 -35 -35 -35h-18q-35 0 -35 35z" />
    <glyph glyph-name="ycircumflex" unicode="&#x177;" horiz-adv-x="985" 
d="M330 1206q-20 0 -26 12t5 31l117 162q16 23 43 23h53q27 0 43 -23l117 -162q12 -18 7 -30t-25 -13h-25q-27 0 -41 23l-100 141h-4l-101 -141q-14 -23 -41 -23h-22zM174 -348q125 0 203 184l72 170l-408 977q-16 41 27 41h20q27 0 39 -27l328 -790l37 -96h4q14 47 34 96
l328 790q12 27 39 27h21q43 0 26 -41l-508 -1216q-84 -197 -262 -197q-72 0 -139 39q-31 16 -15 45l9 14q16 29 47 15q61 -31 98 -31z" />
    <glyph glyph-name="Ydieresis" unicode="&#x178;" horiz-adv-x="1110" 
d="M391 1614q-35 0 -35 35v80q0 35 35 34h25q35 0 35 -34v-80q0 -35 -35 -35h-25zM672 1614q-35 0 -35 35v80q0 35 35 34h24q35 0 35 -34v-80q0 -35 -35 -35h-24zM512 35v588l-463 770q-10 16 -3 28t28 13h24q25 0 41 -23l326 -543l88 -161h4q45 92 88 161l326 543
q16 23 41 23h24q20 0 28 -12t-3 -29l-461 -770v-588q0 -35 -35 -35h-18q-35 0 -35 35z" />
    <glyph glyph-name="Zacute" unicode="&#x179;" horiz-adv-x="1155" 
d="M602 1536q-20 0 -28 12q-7 12 4 29l98 164q14 23 41 22h37q20 0 26 -12t-6 -31l-115 -161q-16 -23 -43 -23h-14zM70 35v10q0 25 14 45l774 1131l98 131v4q-33 -4 -104 -4h-705q-35 0 -34 34v13q0 35 34 35h881q35 0 35 -35v-10q0 -25 -14 -46l-775 -1130l-98 -131v-4
q33 4 105 4h753q35 0 35 -35v-12q0 -35 -35 -35h-930q-34 0 -34 35z" />
    <glyph glyph-name="zacute" unicode="&#x17a;" horiz-adv-x="989" 
d="M494 1206q-20 0 -28 12t3 29l98 164q14 23 41 23h37q21 0 27 -12t-6 -31l-115 -162q-16 -23 -43 -23h-14zM74 35v10q0 27 14 43l606 762l80 94v4q-37 -4 -104 -4h-535q-35 0 -35 35v10q0 35 35 35h721q35 0 35 -35v-10q0 -27 -14 -43l-609 -762l-82 -94v-4q39 4 107 4
h586q35 0 34 -35v-10q0 -35 -34 -35h-770q-35 0 -35 35z" />
    <glyph glyph-name="Zdotaccent" unicode="&#x17b;" horiz-adv-x="1155" 
d="M588 1614q-35 0 -35 35v80q0 35 35 34h24q35 0 35 -34v-80q0 -35 -35 -35h-24zM70 35v10q0 25 14 45l774 1131l98 131v4q-33 -4 -104 -4h-705q-35 0 -34 34v13q0 35 34 35h881q35 0 35 -35v-10q0 -25 -14 -46l-775 -1130l-98 -131v-4q33 4 105 4h753q35 0 35 -35v-12
q0 -35 -35 -35h-930q-34 0 -34 35z" />
    <glyph glyph-name="zdotaccent" unicode="&#x17c;" horiz-adv-x="989" 
d="M481 1284q-35 0 -35 35v80q0 35 35 35h25q35 0 35 -35v-80q0 -35 -35 -35h-25zM74 35v10q0 27 14 43l606 762l80 94v4q-37 -4 -104 -4h-535q-35 0 -35 35v10q0 35 35 35h721q35 0 35 -35v-10q0 -27 -14 -43l-609 -762l-82 -94v-4q39 4 107 4h586q35 0 34 -35v-10
q0 -35 -34 -35h-770q-35 0 -35 35z" />
    <glyph glyph-name="Zcaron" unicode="&#x17d;" horiz-adv-x="1155" 
d="M573 1536q-27 0 -43 23l-116 161q-12 18 -6 30t26 13h23q27 0 41 -22l100 -142h4l100 142q14 23 41 22h23q20 0 26 -12t-6 -31l-116 -161q-16 -23 -43 -23h-54zM70 35v10q0 25 14 45l774 1131l98 131v4q-33 -4 -104 -4h-705q-35 0 -34 34v13q0 35 34 35h881q35 0 35 -35
v-10q0 -25 -14 -46l-775 -1130l-98 -131v-4q33 4 105 4h753q35 0 35 -35v-12q0 -35 -35 -35h-930q-34 0 -34 35z" />
    <glyph glyph-name="zcaron" unicode="&#x17e;" horiz-adv-x="989" 
d="M467 1206q-27 0 -43 23l-117 162q-12 18 -6 30t27 13h22q27 0 41 -23l101 -141h4l100 141q14 23 41 23h22q21 0 27 -12t-6 -31l-117 -162q-16 -23 -43 -23h-53zM74 35v10q0 27 14 43l606 762l80 94v4q-37 -4 -104 -4h-535q-35 0 -35 35v10q0 35 35 35h721q35 0 35 -35
v-10q0 -27 -14 -43l-609 -762l-82 -94v-4q39 4 107 4h586q35 0 34 -35v-10q0 -35 -34 -35h-770q-35 0 -35 35z" />
    <glyph glyph-name="longs" unicode="&#x17f;" horiz-adv-x="456" 
d="M199 35v905h-95q-35 0 -34 35v8q0 35 34 35h95v47q1 113 35 193t90 118q99 66 198 68h19q35 0 34 -35v-12q0 -33 -45 -35q-90 -4 -156 -48q-91 -61 -89 -247v-1032q0 -35 -35 -35h-17q-34 0 -34 35z" />
    <glyph glyph-name="florin" unicode="&#x192;" horiz-adv-x="667" 
d="M-184 -154q0 39 44 33t78 -6q177 0 242 165q23 56 29 132l53 604h-162q-35 0 -34 35v8q0 35 34 35h168l21 227q8 96 39 169t69 112q98 98 252 98q55 0 133 -10q33 -2 33 -37v-10q0 -37 -37 -31q-66 8 -118 8q-255 0 -281 -297l-23 -229h238q35 0 35 -35v-8q0 -35 -35 -35
h-244l-53 -602q-25 -302 -260 -367q-47 -12 -102 -12t-87 6q-33 2 -32 37v10z" />
    <glyph glyph-name="Scommaaccent" unicode="&#x218;" horiz-adv-x="1056" 
d="M510 -135h27q43 0 43 -96q0 -55 -18 -117t-56 -62h-8q-31 0 -31 25q0 2 10 38t10 91l-8 94q0 27 31 27zM860 336q0 120 -76 196t-184 122t-214 94q-108 48 -184 134q-76 85 -75 208q0 166 124 267q125 101 317 101t329 -112q27 -20 8 -48l-12 -18q-20 -29 -49 -6
q-132 98 -280 98t-246 -76t-99 -190q0 -114 76 -187q75 -73 183 -117t216 -93t183 -137q76 -88 75 -218q0 -166 -114 -272t-324 -106q-211 0 -391 153q-25 25 -2 49l14 17q23 27 49 2q154 -135 351 -136q143 0 234 78t91 197z" />
    <glyph glyph-name="scommaaccent" unicode="&#x219;" horiz-adv-x="868" 
d="M424 -135h27q43 0 43 -96q0 -55 -18 -117t-56 -62h-8q-31 0 -31 25q0 2 10 38t10 91l-8 94q0 27 31 27zM686 243q0 81 -58 130t-140 80t-166 65q-82 34 -141 98q-58 63 -58 156q0 131 94 204t250 73t262 -88q27 -20 8 -48l-12 -16q-20 -27 -49 -4q-92 72 -210 72
t-186 -46q-68 -47 -67 -131q0 -84 58 -133q57 -49 141 -81t166 -66t140 -98t58 -172t-93 -186q-93 -77 -234 -77q-216 0 -347 125q-25 20 -4 47l13 15q20 25 49 2q121 -104 291 -105q99 -1 167 51t68 133z" />
    <glyph glyph-name="uni021A" unicode="&#x21a;" horiz-adv-x="1185" 
d="M575 -135h27q43 0 43 -96q0 -55 -18 -117t-56 -62h-8q-31 0 -31 25q0 2 11 38q10 36 10 91l-8 94q0 27 30 27zM549 35v1317h-500q-35 0 -35 34v13q0 35 35 35h1088q35 0 34 -35v-13q0 -35 -34 -34h-500v-1317q0 -35 -35 -35h-18q-35 0 -35 35z" />
    <glyph glyph-name="uni021B" unicode="&#x21b;" horiz-adv-x="614" 
d="M315 -135h27q43 0 43 -96q0 -55 -18 -117t-56 -62h-8q-31 0 -31 25q0 2 11 38q10 36 10 91l-8 94q0 27 30 27zM205 371v569h-101q-35 0 -34 35v8q0 35 34 35h101v256q0 35 35 35h16q35 0 35 -35v-256h233q35 0 35 -35v-8q0 -35 -35 -35h-233v-563q0 -293 250 -305
q41 -2 41 -35v-10q0 -35 -35 -35q-174 0 -258 100t-84 279z" />
    <glyph glyph-name="circumflex" unicode="&#x2c6;" horiz-adv-x="1040" 
d="M354 1536q-20 0 -26 12t6 31l117 162q16 23 43 22h53q27 0 43 -22l117 -162q12 -19 7 -31t-26 -12h-24q-27 0 -41 23l-101 141h-4l-100 -141q-14 -23 -41 -23h-23z" />
    <glyph glyph-name="caron" unicode="&#x2c7;" horiz-adv-x="1040" 
d="M494 1536q-27 0 -43 23l-117 161q-12 18 -6 30t26 13h23q27 0 41 -22l100 -142h4l101 142q14 23 41 22h22q20 0 26 -12t-5 -31l-117 -161q-16 -23 -43 -23h-53z" />
    <glyph glyph-name="breve" unicode="&#x2d8;" horiz-adv-x="1044" 
d="M523 1530q-85 0 -146 57t-62 144q0 33 35 32h12q33 0 35 -28q8 -127 125 -127t125 129q4 27 35 26h12q35 0 35 -32q0 -82 -60 -142q-61 -59 -146 -59z" />
    <glyph glyph-name="dotaccent" unicode="&#x2d9;" horiz-adv-x="1044" 
d="M510 1614q-35 0 -35 35v80q0 35 35 34h25q35 0 34 -34v-80q0 -35 -34 -35h-25z" />
    <glyph glyph-name="ring" unicode="&#x2da;" horiz-adv-x="1044" 
d="M522 1587q29 1 47 19q19 18 19 48t-18 48t-48 18q-29 0 -47 -18t-18 -48t18 -48t47 -19zM522 1516q-59 0 -98 38t-39 98t39 99t98 39q58 0 98 -39t40 -98t-39 -99q-40 -38 -99 -38z" />
    <glyph glyph-name="ogonek" unicode="&#x2db;" horiz-adv-x="1042" 
d="M383 -231q0 83 56 151q110 132 171 111q45 -16 8 -47q-143 -111 -143 -207q0 -78 105 -109q33 -8 26 -41l-2 -12q-6 -35 -41 -29q-180 38 -180 183z" />
    <glyph glyph-name="tilde" unicode="&#x2dc;" horiz-adv-x="1042" 
d="M258 1542q-31 0 -31 45q0 80 46 128q45 48 107 48q101 0 160 -76t107 -76q47 1 68 35q20 34 20 72t37 39h12q31 0 31 -37q0 -86 -45 -135q-46 -49 -108 -49q-102 0 -159 76t-106 76q-87 0 -90 -113q0 -33 -37 -33h-12z" />
    <glyph glyph-name="hungarumlaut" unicode="&#x2dd;" horiz-adv-x="1042" 
d="M326 1536q-20 0 -28 12q-7 12 3 29l90 162q14 25 43 24h25q20 0 27 -12t-3 -29l-94 -161q-16 -25 -41 -25h-22zM563 1536q-20 0 -27 12t3 29l98 164q14 23 41 22h37q20 0 26 -12t-6 -31l-114 -161q-16 -23 -43 -23h-15z" />
    <glyph glyph-name="uni1E9E" unicode="&#x1e9e;" horiz-adv-x="1341" 
d="M199 35v1040q0 150 104 254t254 105h578q35 0 34 -31v-10q0 -23 -14 -39l-395 -551v-4h74q164 0 280 -117t115 -282q0 -164 -116 -282t-279 -118h-316q-35 0 -35 35v12q0 35 35 35h311q131 0 220 93q88 93 88 225t-87 224t-216 93h-156q-35 0 -35 33v12q0 23 14 39
l306 432l90 119v4q-27 -4 -86 -4h-398q-123 0 -203 -80t-79 -197v-1040q0 -35 -35 -35h-19q-34 0 -34 35z" />
    <glyph glyph-name="thinspace" unicode="&#x2009;" horiz-adv-x="40" 
 />
    <glyph glyph-name="endash" unicode="&#x2013;" horiz-adv-x="1282" 
d="M188 539q-35 0 -34 34v13q0 35 34 35h906q35 0 34 -35v-13q0 -35 -34 -34h-906z" />
    <glyph glyph-name="emdash" unicode="&#x2014;" horiz-adv-x="1691" 
d="M188 539q-35 0 -34 34v13q0 35 34 35h1315q35 0 35 -35v-13q0 -35 -35 -34h-1315z" />
    <glyph glyph-name="quoteleft" unicode="&#x2018;" horiz-adv-x="397" 
d="M145 1059q-41 0 -28 39l100 323q10 29 39 29h10q41 0 31 -39l-80 -321q-6 -31 -37 -31h-35z" />
    <glyph glyph-name="quoteright" unicode="&#x2019;" horiz-adv-x="393" 
d="M150 1059q-41 0 -31 39l80 321q6 31 37 31h34q41 0 29 -39l-100 -324q-10 -29 -39 -28h-10z" />
    <glyph glyph-name="quotesinglbase" unicode="&#x201a;" horiz-adv-x="442" 
d="M215 125h35q41 0 29 -39l-101 -324q-10 -29 -39 -28h-10q-37 0 -31 39l80 321q6 31 37 31z" />
    <glyph glyph-name="quotedblleft" unicode="&#x201c;" horiz-adv-x="622" 
d="M145 1059q-41 0 -28 39l100 323q10 29 39 29h10q37 0 31 -39l-80 -321q-6 -31 -37 -31h-35zM371 1059q-41 0 -29 39l100 323q10 29 39 29h11q37 0 30 -39l-80 -321q-6 -31 -36 -31h-35z" />
    <glyph glyph-name="quotedblright" unicode="&#x201d;" horiz-adv-x="618" 
d="M150 1059q-41 0 -31 39l80 321q6 31 37 31h34q41 0 29 -39l-100 -324q-10 -29 -39 -28h-10zM375 1059q-41 0 -31 39l80 321q6 31 37 31h35q41 0 28 -39l-100 -324q-10 -29 -39 -28h-10z" />
    <glyph glyph-name="quotedblbase" unicode="&#x201e;" horiz-adv-x="667" 
d="M215 125h35q41 0 29 -39l-101 -324q-10 -29 -39 -28h-10q-41 0 -31 39l80 321q6 31 37 31zM440 125h35q41 0 29 -39l-101 -324q-10 -29 -38 -28h-11q-40 0 -30 39l79 321q6 31 37 31z" />
    <glyph glyph-name="dagger" unicode="&#x2020;" horiz-adv-x="776" 
d="M342 -68v1010h-199q-35 0 -34 35v12q0 35 34 35h199v375q0 35 35 35h16q35 0 35 -35v-375h209q35 0 35 -35v-12q0 -35 -35 -35h-209v-1010q0 -35 -35 -34h-16q-35 -1 -35 34z" />
    <glyph glyph-name="daggerdbl" unicode="&#x2021;" horiz-adv-x="800" 
d="M352 -68v449h-198q-35 0 -35 35v12q0 35 35 35h198v479h-198q-35 0 -35 35v12q0 35 35 35h198v375q0 35 35 35h16q35 0 35 -35v-375h209q35 0 35 -35v-12q0 -35 -35 -35h-209v-479h209q35 0 35 -35v-12q0 -35 -35 -35h-209v-449q0 -35 -35 -34h-16q-35 -1 -35 34z" />
    <glyph glyph-name="bullet" unicode="&#x2022;" horiz-adv-x="782" 
d="M391 326q-113 0 -191 78t-79 192q0 114 79 192q80 78 192 78t191 -79t79 -191t-79 -192q-79 -78 -192 -78z" />
    <glyph glyph-name="ellipsis" unicode="&#x2026;" horiz-adv-x="1304" 
d="M154 35v59q0 35 34 35h56q35 0 35 -35v-59q0 -35 -35 -35h-56q-34 0 -34 35zM590 35v59q0 35 35 35h55q35 0 35 -35v-59q0 -35 -35 -35h-55q-35 0 -35 35zM1026 35v59q0 35 35 35h55q35 0 35 -35v-59q0 -35 -35 -35h-55q-35 0 -35 35z" />
    <glyph glyph-name="perthousand" unicode="&#x2030;" horiz-adv-x="2025" 
d="M852 242q0 -78 51 -131t127 -53t128 52q52 54 52 132t-52 132t-128 54t-127 -54t-51 -132zM1507 242q-1 -78 51 -131t128 -53t128 52q52 54 52 132t-52 132t-128 54t-128 -54t-51 -132zM764 242q0 112 78 190t188 78t190 -79q78 -79 78 -189t-78 -189q-78 -78 -190 -78
q-110 0 -188 78t-78 189zM1419 242q0 112 78 190t189 78q112 0 190 -79t78 -189t-79 -189q-79 -78 -189 -78t-189 78q-78 78 -78 189zM383 1006q76 0 128 53t52 131t-52 132t-128 54t-127 -54t-51 -132t51 -131t127 -53zM1253 1434q23 0 29 -12t-8 -31l-1038 -1371
q-18 -20 -43 -20h-27q-23 0 -29 12t8 31l1039 1370q18 20 43 21h26zM383 924q-111 0 -189 78t-77 188q0 112 78 190q79 78 189 78t188 -79t79 -189q-1 -110 -79 -188t-189 -78z" />
    <glyph glyph-name="guilsinglleft" unicode="&#x2039;" horiz-adv-x="626" 
d="M444 999h27q23 0 29 -12t-8 -31l-302 -378l302 -377q14 -19 9 -31t-28 -12h-29q-25 0 -43 20l-299 375q-20 25 0 49l299 377q18 20 43 20z" />
    <glyph glyph-name="guilsinglright" unicode="&#x203a;" horiz-adv-x="626" 
d="M158 158q-23 0 -29 12t8 31l301 377l-301 378q-14 18 -8 30t29 13h26q25 0 43 -20l299 -377q23 -25 0 -49l-299 -375q-18 -20 -43 -20h-26z" />
    <glyph glyph-name="fraction" unicode="&#x2044;" horiz-adv-x="305" 
d="M-174 0h-16q-45 0 -25 41l655 1366q12 27 41 27h15q45 0 24 -41l-653 -1366q-12 -27 -41 -27z" />
    <glyph glyph-name="zerosuperior" unicode="&#x2070;" horiz-adv-x="794" 
d="M397 920q223 0 224 391t-223 391t-224 -391t223 -391zM397 846q-303 0 -303 465t303 465t303 -465t-303 -465z" />
    <glyph glyph-name="foursuperior" unicode="&#x2074;" horiz-adv-x="743" 
d="M152 1188h327v301l6 133h-4q-35 -55 -71 -102l-258 -328v-4zM514 866q-35 0 -35 35v213h-405q-35 0 -35 27v10q0 18 14 35l424 549q18 20 43 20h2q35 0 35 -35v-532h105q35 0 34 -35v-4q0 -35 -34 -35h-105v-213q0 -35 -35 -35h-8z" />
    <glyph glyph-name="fivesuperior" unicode="&#x2075;" horiz-adv-x="708" 
d="M320 846q-135 0 -238 115q-21 28 11 50q32 21 54 -5q67 -86 171 -86t170 63t67 155q0 92 -68 158q-69 66 -151 66t-154 -41q-26 -14 -50 -3t-21 40l45 364q2 33 37 33h354q35 0 35 -35v-4q0 -35 -35 -35h-322l-20 -186l-15 -88h5q55 29 133 29q131 0 219 -86t88 -209
t-90 -209t-225 -86z" />
    <glyph glyph-name="sixsuperior" unicode="&#x2076;" horiz-adv-x="755" 
d="M172 1202q0 -98 64 -190t161 -92q96 0 151 65q54 66 54 163q0 98 -57 156t-147 58t-158 -51t-68 -109zM387 846q-133 0 -216 116t-83 295t86 340q43 80 120 129q77 50 160 50t150 -27q37 -13 12 -53q-14 -25 -45 -15q-53 20 -104 21q-123 0 -201 -106t-96 -259h4
q36 43 100 71t125 28q123 0 203 -79t80 -215t-81 -216t-214 -80z" />
    <glyph glyph-name="sevensuperior" unicode="&#x2077;" horiz-adv-x="653" 
d="M141 866q-47 0 -24 41l334 641l75 133v5q-41 -4 -112 -5h-330q-35 0 -35 35v4q0 35 35 35h502q35 0 35 -26v-5q0 -25 -11 -43l-415 -790q-12 -25 -41 -25h-13z" />
    <glyph glyph-name="eightsuperior" unicode="&#x2078;" horiz-adv-x="770" 
d="M166 1118q0 -90 66 -144t152 -54q85 0 151 51q65 51 65 126t-69 118q-53 35 -128 69l-102 45q-135 -90 -135 -211zM390 1702q-77 0 -131 -39t-54 -116t88 -128q57 -31 110 -54l72 -32q104 96 105 213q0 74 -56 115t-134 41zM388 846q-122 0 -212 73t-90 209t154 236
q-115 76 -115 184t79 168q80 60 188 60t188 -60t80 -178q0 -117 -121 -238q141 -76 141 -202q0 -104 -85 -178t-207 -74z" />
    <glyph glyph-name="ninesuperior" unicode="&#x2079;" horiz-adv-x="755" 
d="M154 1474q0 -96 57 -156q57 -58 146 -58t158 51t69 108q0 99 -65 191t-161 92t-150 -66t-54 -162zM289 920q123 0 201 106t96 258h-4q-35 -43 -100 -71t-126 -27q-122 0 -202 79t-80 215t81 216t213 80t216 -116t84 -294t-86 -342q-43 -80 -120 -129q-76 -49 -160 -49
t-150 26q-34 12 -13 54q14 26 56 10t94 -16z" />
    <glyph glyph-name="zeroinferior" unicode="&#x2080;" horiz-adv-x="794" 
d="M397 -268q223 0 224 391t-223 391t-224 -391t223 -391zM397 -342q-303 0 -303 465t303 465t303 -465t-303 -465z" />
    <glyph glyph-name="oneinferior" unicode="&#x2081;" horiz-adv-x="565" 
d="M100 -322q-35 0 -34 35v4q0 35 34 35h162v666l2 45h-2q-8 -16 -47 -55l-65 -64q-25 -25 -52 3t-2 52l148 150q18 18 43 18h18q35 0 35 -35v-780h156q35 0 34 -35v-4q0 -35 -34 -35h-396z" />
    <glyph glyph-name="twoinferior" unicode="&#x2082;" horiz-adv-x="696" 
d="M106 -322q-37 0 -36 50q0 94 47 169t113 121t132 90q160 105 160 228q0 74 -52 126t-139 52t-163 -76q-24 -24 -51 2q-25 27 -2 49q92 99 220 99q127 0 197 -73t70 -168q0 -168 -158 -273q-66 -45 -132 -87q-158 -100 -162 -235h434q35 0 34 -35v-4q0 -35 -34 -35h-478z
" />
    <glyph glyph-name="threeinferior" unicode="&#x2083;" horiz-adv-x="712" 
d="M332 -344q-164 0 -260 106q-25 25 3 52t54 2q82 -86 205 -86q80 0 146 60t65 148q0 88 -67 141q-67 54 -152 54h-37q-31 0 -39 25q-12 23 6 47l203 237l51 52v4q-37 -6 -78 -6h-301q-35 0 -35 34v4q0 35 35 35h453q35 0 34 -26v-9q0 -16 -16 -36l-246 -289
q104 -7 186 -71t83 -189q0 -125 -87 -207t-206 -82z" />
    <glyph glyph-name="fourinferior" unicode="&#x2084;" horiz-adv-x="743" 
d="M152 0h327v301l6 133h-4q-35 -55 -71 -102l-258 -328v-4zM514 -322q-35 0 -35 35v213h-405q-35 0 -35 27v10q0 18 14 35l424 549q18 20 43 20h2q35 0 35 -35v-532h105q35 0 34 -35v-4q0 -35 -34 -35h-105v-213q0 -35 -35 -35h-8z" />
    <glyph glyph-name="fiveinferior" unicode="&#x2085;" horiz-adv-x="708" 
d="M320 -342q-135 0 -238 115q-21 28 11 50q32 21 54 -5q67 -86 171 -86t170 63t67 155q0 92 -68 159q-69 65 -151 65t-154 -41q-26 -14 -50 -3t-21 40l45 365q2 33 37 32h354q35 0 35 -35v-4q0 -35 -35 -34h-322l-20 -187l-15 -88h5q55 29 133 29q131 0 219 -86t88 -209
t-90 -209t-225 -86z" />
    <glyph glyph-name="sixinferior" unicode="&#x2086;" horiz-adv-x="755" 
d="M172 14q0 -98 64 -190t161 -92q96 0 151 65q54 66 54 163q0 98 -57 156t-147 58t-158 -51t-68 -109zM387 -342q-133 0 -216 116t-83 294t86 342q43 80 120 129t160 49t150 -27q37 -13 12 -53q-14 -26 -56 -10t-93 16q-123 0 -201 -106t-96 -258h4q36 42 100 70t125 28
q123 0 203 -79t80 -215t-81 -216t-214 -80z" />
    <glyph glyph-name="seveninferior" unicode="&#x2087;" horiz-adv-x="653" 
d="M141 -324q-47 0 -24 41l334 641l75 134v4q-41 -4 -112 -4h-330q-35 0 -35 34v4q0 35 35 35h502q35 0 35 -26v-4q0 -25 -11 -43l-415 -791q-12 -25 -41 -25h-13z" />
    <glyph glyph-name="eightinferior" unicode="&#x2088;" horiz-adv-x="770" 
d="M166 -68q0 -90 66 -144t152 -54q85 0 151 51q65 51 65 126t-72 121q-72 47 -227 111q-135 -90 -135 -211zM390 516q-77 0 -131 -39t-54 -116t88 -128q57 -31 110 -54l72 -32q104 96 105 213q0 74 -56 115t-134 41zM388 -340q-122 0 -212 73t-90 209t154 236
q-115 76 -115 184t79 168q80 60 188 60t188 -60t80 -178q0 -117 -121 -237q141 -76 141 -203q0 -104 -85 -178t-207 -74z" />
    <glyph glyph-name="nineinferior" unicode="&#x2089;" horiz-adv-x="755" 
d="M584 231q0 99 -65 191t-161 92t-150 -66t-54 -162q0 -98 57 -156t146 -58t158 51t69 108zM289 -268q123 0 201 106t96 258h-4q-35 -42 -100 -70t-126 -28q-122 0 -202 79t-80 215t81 216t213 80t216 -116t84 -294t-86 -342q-43 -80 -120 -129q-76 -49 -160 -49t-150 27
q-33 12 -13 53q14 26 56 10t94 -16z" />
    <glyph glyph-name="Euro" unicode="&#x20ac;" horiz-adv-x="1212" 
d="M127 559q-35 0 -35 41t35 41h76q-4 29 -4 87t6 95h-78q-35 0 -35 41t35 41h92q57 244 245 399t437 154q76 0 148 -14q37 -6 26 -43l-4 -17q-8 -33 -43 -26q-68 14 -127 14q-217 0 -375 -128t-213 -339h633q39 0 31 -41t-41 -41h-639q-14 -80 -4 -182h606q39 0 31 -41
t-41 -41h-584q47 -221 209 -359t387 -139q82 0 148 17q35 6 43 -23l4 -18q10 -31 -25 -41q-88 -20 -170 -21q-258 0 -448 163t-240 421h-86z" />
    <glyph glyph-name="trademark" unicode="&#x2122;" horiz-adv-x="1931" 
d="M449 541q-35 0 -35 34v781h-293q-35 0 -35 35v8q0 35 35 35h667q35 0 35 -35v-8q0 -35 -35 -35h-294v-781q0 -35 -35 -34h-10zM1012 1434h10q29 0 41 -27l246 -526l28 -82h4q10 41 29 82l246 526q12 27 41 27h10q31 0 35 -33l67 -823q0 -37 -34 -37h-9q-31 0 -34 32
l-56 639l2 58h-4l-248 -535q-12 -27 -40 -26h-13q-29 0 -41 26l-248 535h-4l2 -58l-55 -639q-4 -33 -35 -32h-8q-35 0 -35 37l68 823q4 33 35 33z" />
    <glyph glyph-name="minus" unicode="&#x2212;" horiz-adv-x="1228" 
d="M141 539q-35 0 -35 34v13q0 35 35 35h946q35 0 35 -35v-13q0 -35 -35 -34h-946z" />
    <glyph glyph-name="infinity" unicode="&#x221e;" horiz-adv-x="944" 
d="M473 377q-139 0 -239 99q-99 98 -99 238t99 238q98 98 238 98t238 -98t99 -237q0 -139 -98 -239q-99 -99 -238 -99z" />
    <glyph glyph-name="approxequal" unicode="&#x2248;" horiz-adv-x="1228" 
d="M817 383q104 0 211 90q27 25 49 -2l8 -8q18 -29 -4 -49q-125 -113 -264 -113q-102 0 -220 72t-185 71q-104 0 -211 -90q-27 -26 -53 7t-1 53q125 113 265 112q102 0 220 -72t185 -71zM412 854q102 0 220 -72t185 -71q104 0 211 90q27 25 49 -2l8 -8q18 -29 -4 -50
q-125 -113 -264 -112q-102 -1 -220 71t-185 72q-104 0 -211 -90q-26 -25 -53 6t-1 53q125 113 265 113z" />
    <glyph glyph-name="notequal" unicode="&#x2260;" horiz-adv-x="1228" 
d="M180 375q-35 0 -35 35v12q0 35 35 35h285l186 245h-471q-35 0 -35 35v13q0 35 35 34h533l164 215q18 29 55 2q31 -27 12 -51l-125 -166h225q35 0 35 -34v-13q0 -35 -35 -35h-286l-187 -245h473q35 0 35 -35v-12q0 -35 -35 -35h-534l-158 -209q-18 -29 -54 -3t-13 52
l118 160h-223z" />
    <glyph glyph-name="lessequal" unicode="&#x2264;" horiz-adv-x="1228" 
d="M170 -231h829q35 0 35 -35v-13q0 -35 -35 -34h-829q-35 0 -35 34v13q0 35 35 35zM135 571v17q0 29 27 41l831 372q41 16 41 -26v-25q0 -29 -26 -41l-746 -327v-4l746 -328q27 -12 26 -41v-25q0 -43 -41 -26l-831 372q-27 12 -27 41z" />
    <glyph glyph-name="greaterequal" unicode="&#x2265;" horiz-adv-x="1228" 
d="M227 -231h830q35 0 35 -35v-13q0 -35 -35 -34h-830q-35 0 -34 34v13q-1 35 34 35zM195 184v25q0 29 26 41l746 328v4l-746 327q-27 12 -26 41v25q0 43 41 26l831 -372q27 -12 27 -41v-17q0 -29 -27 -41l-831 -372q-41 -17 -41 26z" />
    <glyph glyph-name="commaaccent" unicode="&#xf6c3;" horiz-adv-x="686" 
d="M322 -135h26q43 0 43 -96q0 -55 -18 -117t-56 -62h-8q-31 0 -30 25q0 2 10 38t10 91l-8 94q0 27 31 27z" />
    <glyph glyph-name="apple" unicode="&#xf8ff;" horiz-adv-x="2314" 
d="M915 186h89v467h466v82h-466v393h407q35 0 47 -13t12 -46v-86h86v111q0 61 -26 89q-27 28 -92 27h-656v-82h133v-942zM496 131v248l-203 123v461l203 118v252l440 234l225 -121l219 121l439 -234v-252l204 -118v-461l-204 -123v-248l-439 -233l-219 118l-225 -118z
M426 61l487 -258l248 136l242 -136l487 258v285l234 131v510l-234 135v279l-487 258l-242 -131l-248 131l-487 -258v-279l-233 -135v-510l233 -131v-285zM344 -10v311l-258 148v569l258 145v310l543 290l274 -145l271 145l542 -290v-310l254 -145v-569l-254 -148v-311
l-542 -289l-271 145l-274 -145z" />
    <glyph glyph-name="zero.tnum" 
d="M569 61q223 0 312 191q78 167 80 465q1 655 -391 655t-392 -655q0 -481 202 -606q78 -50 189 -50zM569 -25q-483 -1 -483 741t483 742t483 -742t-483 -741z" />
    <glyph glyph-name="one.tnum" 
d="M229 35v12q0 35 35 35h291v1167l2 72h-4q-14 -27 -76 -88l-145 -146q-25 -25 -49 0l-11 11q-27 25 -2 49l267 268q18 18 43 19h28q35 0 35 -35v-1317h283q35 0 35 -35v-12q0 -35 -35 -35h-662q-35 0 -35 35z" />
    <glyph glyph-name="two.tnum" 
d="M127 35v41q0 195 152 338q97 90 245 191t216 159q152 131 151 301q0 133 -91 220q-90 87 -224 87t-218 -56t-129 -120q-23 -29 -49 -8l-8 6q-29 18 -10 47q150 217 397 217q201 0 313 -115t111 -278q0 -115 -56 -213q-55 -98 -141 -164t-184 -136t-183 -132t-141 -150
t-57 -188h750q35 0 35 -35v-12q0 -35 -35 -35h-805q-39 0 -39 35z" />
    <glyph glyph-name="three.tnum" 
d="M543 61q143 -1 251 99t108 257t-115 248q-114 91 -269 91h-69q-31 0 -39 26q-15 33 4 56l383 448l63 66v4q-39 -4 -110 -4h-553q-35 0 -35 34v13q0 35 35 35h751q35 0 35 -31v-6q0 -27 -16 -43l-447 -516q158 0 300 -84q77 -45 125 -133t48 -207q0 -182 -134 -310
t-320 -129q-234 1 -422 175q-25 25 0 49l16 16q23 23 49 0q160 -154 361 -154z" />
    <glyph glyph-name="four.tnum" 
d="M160 492h614v671l6 129h-4q-35 -51 -71 -98l-545 -698v-4zM72 410q-35 0 -35 34v2q0 27 14 43l713 924q18 20 43 21h20q35 0 35 -35v-907h178q35 0 35 -35v-13q0 -35 -35 -34h-178v-375q0 -35 -35 -35h-18q-35 0 -35 35v375h-702z" />
    <glyph glyph-name="five.tnum" 
d="M924 438q0 160 -115 269t-267 109t-272 -73q-24 -14 -56 -3t-28 42l74 619q2 33 37 33h598q35 0 35 -35v-13q0 -35 -35 -34h-553l-51 -428l-15 -88h5q100 66 245 65q205 0 347 -135q143 -135 143 -329q0 -193 -144 -327t-346 -135q-238 1 -383 179q-23 29 7 49l16 12
q27 23 49 -6q113 -147 296 -147t298 107q115 109 115 269z" />
    <glyph glyph-name="six.tnum" 
d="M209 539q0 -166 115 -322q114 -156 280 -156t260 109t94 281t-97 272t-256 100t-277 -91t-119 -193zM706 1458q140 0 236 -43q33 -12 16 -45l-10 -18q-14 -29 -47 -17q-78 37 -180 37q-158 0 -277 -101q-221 -188 -243 -558h4q59 90 169 143t236 53q193 0 317 -125
q124 -126 124 -340t-127 -342t-314 -127q-231 1 -366 193t-135 479t141 535q70 124 194 200q122 76 262 76z" />
    <glyph glyph-name="seven.tnum" 
d="M825 1352h-661q-35 0 -35 34v13q0 35 35 35h837q35 0 35 -31v-8q0 -25 -10 -43l-657 -1327q-12 -25 -41 -25h-19q-44 0 -24 41l577 1178l76 133v4q-41 -4 -113 -4z" />
    <glyph glyph-name="eight.tnum" 
d="M190 406q0 -152 115 -249t261 -97t261 90q115 92 115 221t-101 198q-101 70 -231 123q-130 54 -182 78q-238 -147 -238 -364zM911 1092q0 130 -93 206q-92 76 -242 76t-239 -77t-89 -189q0 -139 161 -231q73 -43 324 -146q72 56 125 166q53 111 53 195zM98 401
q0 90 32 169t98 145t118 98q-190 115 -190 293q0 147 111 250q112 102 310 102q199 0 313 -100t114 -262q0 -98 -58 -220t-129 -184q217 -119 217 -299t-134 -299t-326 -119q-192 1 -334 117t-142 309z" />
    <glyph glyph-name="nine.tnum" 
d="M178 983q0 -173 97 -273t256 -100t278 91t119 194q0 166 -115 322q-115 155 -281 155t-260 -108t-94 -281zM416 61q158 -1 276 101q219 188 244 559h-4q-59 -90 -169 -143t-237 -54q-192 0 -316 125t-124 340t127 342t313 127q231 0 367 -192q135 -193 135 -478
t-141 -536q-70 -123 -194 -200t-263 -77t-235 43q-33 12 -17 43l10 23q12 29 48 14q84 -37 180 -37z" />
    <glyph glyph-name="hyphen.case" horiz-adv-x="874" 
d="M188 674q-35 0 -34 35v12q0 35 34 35h496q35 0 35 -35v-12q0 -35 -35 -35h-496z" />
    <glyph glyph-name="parenleft.case" horiz-adv-x="524" 
d="M127 748q0 414 211 774q14 25 41 24h16q21 0 27 -11t-4 -30q-207 -371 -207 -760q0 -451 209 -837q20 -41 -23 -41h-16q-29 0 -41 20q-213 393 -213 861z" />
    <glyph glyph-name="parenright.case" horiz-adv-x="524" 
d="M311 745q0 389 -207 760q-25 41 21 41h18q27 0 41 -24q211 -360 211 -774q0 -471 -211 -857q-14 -25 -43 -24h-14q-20 0 -28 12q-7 13 3 31q209 385 209 835z" />
    <glyph glyph-name="bracketleft.case" horiz-adv-x="514" 
d="M190 -98v1609q0 35 35 35h152q35 0 35 -35v-12q0 -35 -35 -35h-98v-1515h98q35 0 35 -35v-12q0 -35 -35 -35h-152q-35 0 -35 35z" />
    <glyph glyph-name="bracketright.case" horiz-adv-x="514" 
d="M102 -86q0 35 35 35h99v1515h-99q-35 0 -35 35v12q0 35 35 35h152q35 0 35 -35v-1609q0 -35 -35 -35h-152q-35 0 -35 35v12z" />
    <glyph glyph-name="braceleft.case" horiz-adv-x="598" 
d="M330 981q0 -179 -162 -260v-4q22 -7 53 -30t53 -49q54 -66 56 -181v-217q0 -192 72 -250q51 -43 94 -43t43 -35v-12q0 -35 -35 -35h-10q-69 0 -147 59q-46 35 -76 117q-29 82 -29 201v192q0 182 -146 236q-29 12 -28 39v20q0 27 28 39q145 53 146 236v163q0 119 29 201
q30 82 76 117q78 59 147 59h10q35 0 35 -35v-12q0 -35 -43 -35t-85 -35q-81 -69 -81 -258v-188z" />
    <glyph glyph-name="braceright.case" horiz-adv-x="598" 
d="M59 -88q0 35 43 35t85 35q81 69 81 258v217q0 148 105 227q20 15 57 33v4q-22 7 -53 32q-106 84 -109 228v188q0 192 -72 250q-51 43 -94 43t-43 35v12q0 35 35 35h10q69 0 147 -59q46 -35 76 -117t29 -201v-163q0 -182 146 -236q29 -12 28 -39v-20q0 -27 -28 -39
q-145 -53 -146 -236v-192q0 -119 -30 -201t-75 -117q-78 -59 -147 -59h-10q-35 0 -35 35v12z" />
    <glyph glyph-name="at.case" horiz-adv-x="1492" 
d="M575 713q-1 -131 91 -223t223 -93h297v635h-293q-133 0 -225 -94t-93 -225zM94 721q0 305 209 524t500 219q247 0 361 -104t114 -258v-705h108q35 0 35 -35v-12q0 -35 -35 -35h-507q-164 0 -280 117t-116 282q0 164 116 282t280 118h307q-6 117 -94 193t-277 75
q-264 0 -446 -194q-183 -194 -183 -466t170 -462t424 -205q35 0 35 -35v-16q0 -35 -35 -35q-290 15 -488 231t-198 521z" />
    <glyph glyph-name="guillemotleft.case" horiz-adv-x="933" 
d="M422 1122h27q23 0 29 -12t-9 -31l-301 -379l301 -376q14 -18 9 -30t-27 -13h-29q-25 0 -43 20l-299 375q-23 25 0 49l299 377q18 20 43 20zM750 1122h26q23 0 29 -12t-8 -31l-301 -379l301 -376q14 -18 9 -30t-28 -13h-28q-25 0 -43 20l-299 375q-23 25 0 49l299 377
q18 20 43 20z" />
    <glyph glyph-name="guillemotright.case" horiz-adv-x="935" 
d="M160 281q-23 0 -29 12t8 31l301 376l-301 379q-14 19 -8 31t29 12h26q25 0 43 -20l299 -377q20 -25 0 -49l-299 -375q-18 -20 -43 -20h-26zM487 1122h27q25 0 43 -20l299 -377q20 -25 0 -49l-299 -375q-18 -20 -43 -20h-27q-23 1 -29 13t9 30l301 376l-301 379
q-14 19 -8 31t28 12z" />
    <glyph glyph-name="guilsinglleft.case" horiz-adv-x="606" 
d="M422 1122h27q23 0 29 -12t-9 -31l-301 -379l301 -376q14 -18 9 -30t-27 -13h-29q-25 0 -43 20l-299 375q-23 25 0 49l299 377q18 20 43 20z" />
    <glyph glyph-name="guilsinglright.case" horiz-adv-x="608" 
d="M160 281q-23 0 -29 12t8 31l301 376l-301 379q-14 19 -8 31t29 12h26q25 0 43 -20l299 -377q20 -25 0 -49l-299 -375q-18 -20 -43 -20h-26z" />
    <glyph glyph-name="endash.case" horiz-adv-x="1282" 
d="M188 662q-35 0 -34 34v13q0 35 34 34h906q35 0 34 -34v-13q0 -35 -34 -34h-906z" />
    <glyph glyph-name="emdash.case" horiz-adv-x="1691" 
d="M188 662q-35 0 -34 34v13q0 35 34 34h1315q35 0 35 -34v-13q0 -35 -35 -34h-1315z" />
    <glyph glyph-name="periodcentered.case" horiz-adv-x="425" 
d="M188 649q-35 0 -34 35v51q0 35 34 35h48q35 0 34 -35v-51q0 -35 -34 -35h-48z" />
    <glyph glyph-name="questiondown.case" horiz-adv-x="825" 
d="M553 1399v-56q0 -35 -35 -34h-51q-35 0 -35 34v56q0 35 35 35h51q35 0 35 -35zM502 1075q35 0 35 -35v-55q0 -170 -130 -293q-53 -51 -107 -101q-130 -121 -130 -265q0 -113 84 -189t211 -76t235 68q29 16 48 -10l8 -13q23 -31 -8 -49q-129 -82 -290 -82q-161 1 -271 101
q-109 100 -109 262t130 285q54 51 109 100q132 118 132 262v55q0 35 34 35h19z" />
    <glyph glyph-name="exclamdown.case" horiz-adv-x="489" 
d="M303 1399v-56q0 -35 -35 -34h-51q-35 0 -35 34v56q0 35 35 35h51q35 0 35 -35zM254 1075q35 0 35 -35v-1005q0 -35 -35 -35h-18q-35 0 -35 35v1005q0 35 35 35h18z" />
    <glyph glyph-name="bullet.case" horiz-adv-x="778" 
d="M389 449q-113 1 -191 79t-79 191q0 113 79 191q80 78 192 79q112 0 191 -79q79 -80 79 -192t-79 -191q-79 -78 -192 -78z" />
    <glyph glyph-name="zero.p_osf" horiz-adv-x="1241" 
d="M240 553q0 -201 100 -347t280 -146t281 146q100 146 100 347t-100 347t-280 146q-181 0 -281 -146t-100 -347zM150 550q0 234 124 408q124 172 346 172t347 -173t125 -407t-124 -404t-347 -171q-223 0 -348 170q-123 171 -123 405z" />
    <glyph glyph-name="one.p_osf" horiz-adv-x="897" 
d="M141 35v10q0 35 35 35h291v838l2 98h-4q-33 -25 -80 -53l-211 -127q-29 -18 -49 14q-20 31 10 49l311 195q20 12 43 12h29q35 0 35 -35v-991h252q35 0 35 -35v-10q0 -35 -35 -35h-629q-35 0 -35 35z" />
    <glyph glyph-name="two.p_osf" horiz-adv-x="1087" 
d="M143 35v4q0 27 23 43q367 248 515 402t148 293q0 138 -87 204t-222 66q-166 0 -309 -138q-28 -26 -57 13q-23 27 0 49q166 159 366 159t300 -102q99 -102 100 -231q0 -174 -144 -337t-481 -380v-4q39 4 111 4h532q35 0 35 -35v-10q0 -35 -35 -35h-760q-35 0 -35 35z" />
    <glyph glyph-name="three.p_osf" horiz-adv-x="1032" 
d="M463 -178q141 0 249 90t108 240t-114 230q-112 80 -272 81h-67q-31 0 -41 33t6 53l375 416l63 61v4q-39 -4 -111 -4h-487q-35 0 -35 35v10q0 35 35 35h692q35 0 35 -29v-4q0 -27 -16 -43l-447 -483q155 0 299 -75q78 -40 126 -124t48 -198q0 -184 -132 -298t-318 -114
q-225 0 -387 162q-23 23 2 49l14 12q27 20 49 -4q135 -135 326 -135z" />
    <glyph glyph-name="four.p_osf" horiz-adv-x="1165" 
d="M768 164v674l6 129h-4q-35 -63 -72 -113l-516 -690h586zM63 113v12q0 20 15 37l682 923q18 20 43 21h16q35 0 35 -35v-907h197q35 0 34 -35v-10q0 -35 -34 -35h-197v-287q0 -35 -35 -35h-16q-35 0 -35 35v287h-670q-35 0 -35 29z" />
    <glyph glyph-name="five.p_osf" horiz-adv-x="1050" 
d="M453 -156q167 0 283 94t116 253t-114 249t-258 90t-263 -65q-22 -10 -54 -2t-28 41l74 569q2 33 37 33h575q35 0 35 -35v-10q0 -35 -35 -35h-532l-49 -387l-15 -82h4q104 57 272 57t305 -109q136 -111 136 -309t-137 -317t-356 -119t-357 162q-25 29 6 49l17 11
q25 18 47 -9q123 -129 291 -129z" />
    <glyph glyph-name="six.p_osf" horiz-adv-x="1191" 
d="M233 496q0 -154 115 -295t282 -141t261 100q94 102 94 261t-98 251t-257 92t-278 -86t-119 -182zM728 1368q136 0 239 -39q35 -14 14 -47l-8 -16q-14 -27 -47 -15q-92 33 -181 33q-233 0 -369 -188t-153 -445h4q59 93 169 145t239 52q193 0 317 -116t123 -318
q0 -202 -127 -320q-127 -119 -313 -119q-229 -1 -365 175t-135 442q0 266 141 510q70 118 193 192t259 74z" />
    <glyph glyph-name="seven.p_osf" horiz-adv-x="1030" 
d="M756 1026h-631q-35 0 -35 35v10q0 35 35 35h809q35 0 35 -29v-10q0 -18 -11 -39l-626 -1241q-12 -25 -41 -25h-19q-46 0 -26 41l553 1100l69 123v4q-41 -4 -112 -4z" />
    <glyph glyph-name="eight.p_osf" horiz-adv-x="1191" 
d="M225 383q0 -145 112 -235t257 -89q145 0 256 85t111 207t-105 187q-105 66 -225 113q-119 46 -162 66q-49 -22 -135 -97q-47 -42 -78 -104t-31 -133zM930 1030q0 117 -92 187q-92 69 -236 69t-231 -71q-88 -71 -88 -175q0 -131 153 -214q63 -34 312 -134q72 48 127 152
t55 186zM602 1370q192 0 306 -94q112 -94 112 -246q0 -94 -50 -189t-83 -130t-60 -58q223 -113 224 -295q0 -158 -132 -270q-131 -112 -319 -113q-188 0 -327 110q-138 110 -138 283t112 280q73 70 138 112q-193 111 -192 280q0 135 108 233q109 97 301 97z" />
    <glyph glyph-name="nine.p_osf" horiz-adv-x="1177" 
d="M548 342q160 0 278 86t118 182q0 154 -115 295t-281 141t-261 -100q-94 -102 -94 -261t98 -251t257 -92zM432 -178q233 0 370 188q136 188 152 445h-4q-59 -93 -169 -145t-238 -52q-193 0 -317 116t-124 318t127 320q127 119 314 118q229 0 364 -175t135 -443t-141 -508
q-71 -118 -193 -192t-258 -74t-239 39q-35 14 -14 47q16 32 20 38t6 5q121 -45 209 -45z" />
    <glyph glyph-name="zero.t_osf" 
d="M188 553q0 -201 100 -347t281 -146t281 146t100 347t-100 347t-280 146t-282 -146q-100 -146 -100 -347zM569 -25q-223 1 -347 171t-124 404t125 408q125 172 346 172t346 -173t125 -407t-124 -404t-347 -171z" />
    <glyph glyph-name="one.t_osf" 
d="M258 35v10q0 35 35 35h291v838l2 98h-4q-33 -25 -80 -53l-211 -127q-29 -18 -49 14q-20 31 10 49l311 195q20 12 43 12h29q35 0 35 -35v-991h252q35 0 34 -35v-10q0 -35 -34 -35h-629q-35 0 -35 35z" />
    <glyph glyph-name="two.t_osf" 
d="M166 35v4q0 27 22 43q367 248 515 402q149 154 149 293q0 138 -87 204t-222 66q-166 0 -310 -138q-28 -26 -57 13q-23 27 0 49q166 159 367 159t300 -102t99 -231q0 -174 -143 -337t-482 -380v-4q39 4 111 4h533q35 0 34 -35v-10q0 -35 -34 -35h-760q-35 0 -35 35z" />
    <glyph glyph-name="three.t_osf" 
d="M514 -178q141 0 249 90q107 90 107 240t-112 230t-273 81h-67q-31 0 -41 33t6 53l375 416l63 61v4q-39 -4 -110 -4h-488q-35 0 -35 35v10q0 35 35 35h692q35 0 35 -29v-4q0 -27 -16 -43l-447 -483q155 0 299 -75q78 -40 126 -124t49 -198q-1 -184 -133 -298t-318 -114
q-225 0 -387 162q-25 23 2 49l14 12q27 20 49 -4q135 -135 326 -135z" />
    <glyph glyph-name="four.t_osf" 
d="M756 164v674l6 129h-4q-35 -63 -72 -113l-516 -690h586zM51 113v12q0 20 15 37l682 923q18 20 43 21h16q35 0 35 -35v-907h196q35 0 35 -35v-10q0 -35 -35 -35h-196v-287q0 -35 -35 -35h-16q-35 0 -35 35v287h-670q-35 0 -35 29z" />
    <glyph glyph-name="five.t_osf" 
d="M498 -156q168 0 284 94t115 253q0 159 -114 249t-258 90t-263 -65q-22 -10 -54 -2t-28 41l74 569q2 33 37 33h575q35 0 35 -35v-10q0 -35 -35 -35h-532l-49 -387l-15 -82h4q104 57 272 57t305 -109q136 -111 136 -309t-137 -317t-356 -119t-357 162q-25 29 6 49l17 11
q25 18 47 -9q123 -129 291 -129z" />
    <glyph glyph-name="six.t_osf" 
d="M207 496q0 -154 115 -295q116 -141 282 -141t260 100q94 102 94 261t-98 251t-257 92t-277 -86t-119 -182zM702 1368q136 0 238 -39q35 -14 14 -47l-8 -16q-14 -27 -47 -15q-92 33 -180 33q-233 0 -369 -188t-153 -445h4q59 93 169 145t238 52q193 0 317 -116t124 -318
t-127 -320q-127 -119 -314 -119q-229 -1 -364 175t-135 444t141 508q70 118 192 192q124 74 260 74z" />
    <glyph glyph-name="seven.t_osf" 
d="M807 1026h-631q-35 0 -35 35v10q0 35 35 35h809q35 0 35 -29v-10q0 -18 -10 -39l-627 -1241q-12 -25 -41 -25h-18q-47 0 -27 41l553 1100l70 123v4q-41 -4 -113 -4z" />
    <glyph glyph-name="eight.t_osf" 
d="M199 383q0 -145 111 -235q112 -89 257 -89t256 85t111 207t-107 188q-107 67 -224 113q-118 45 -161 65q-49 -22 -135 -97q-47 -42 -77 -104t-31 -133zM903 1030q0 117 -92 187q-91 69 -235 69t-232 -71t-88 -175q0 -130 154 -214q66 -36 311 -134q72 48 127 152t55 186z
M576 1370q192 0 305 -94t112 -246q0 -94 -50 -189t-83 -130t-59 -58q223 -113 223 -295q0 -158 -132 -270t-320 -113q-188 0 -325 110q-138 110 -138 283t111 280q73 70 138 112q-193 111 -192 280q0 135 108 233q110 97 302 97z" />
    <glyph glyph-name="nine.t_osf" 
d="M527 342q159 0 278 86t119 182q0 154 -115 295t-282 141t-261 -100q-94 -102 -94 -261t98 -251t257 -92zM412 -178q233 0 369 188t153 445h-4q-59 -93 -169 -145t-239 -52q-192 0 -316 116t-124 318t127 320q127 119 313 118q228 0 364 -175t136 -441t-141 -510
q-70 -118 -193 -192t-259 -74t-239 39q-35 14 -14 47q16 32 21 39q4 6 6 4q121 -45 209 -45z" />
    <glyph glyph-name="dollar.osf" horiz-adv-x="997" 
d="M518 59q117 -1 198 61t81 158t-67 152q-67 57 -163 93t-191 75t-162 110t-67 175q-1 139 93 220t237 93v137q0 35 35 35h18q35 0 35 -35v-137q164 -14 266 -100q27 -24 -8 -64q-20 -23 -49 -4q-106 86 -242 86t-216 -55q-79 -55 -78 -168q0 -146 228 -235q95 -36 191 -76
t163 -111t67 -191t-97 -207t-249 -94v-155q0 -35 -35 -35h-19q-35 0 -34 35v158q-207 20 -344 170q-25 25 2 49l16 14q27 20 49 -4q143 -150 342 -150z" />
    <glyph glyph-name="cent.osf" horiz-adv-x="1120" 
d="M553 -16v135q-195 18 -323 152t-128 339t128 338t323 152v143q0 35 35 35h18q35 0 35 -35v-141q188 -12 326 -135q29 -29 6 -49l-12 -13q-23 -23 -46 -4q-125 119 -302 119t-299 -114t-122 -296t122 -296t296 -114t305 119q23 25 46 -4l12 -14q18 -23 -6 -47
q-139 -127 -326 -137v-133q0 -35 -35 -35h-18q-35 0 -35 35z" />
    <glyph glyph-name="sterling.osf" horiz-adv-x="1181" 
d="M125 35v10q0 35 35 35h100v428h-59q-35 0 -35 35v10q0 35 35 35h59v248q0 154 116 258t284 104t303 -84q33 -20 6 -49l-13 -14q-23 -25 -49 -7q-105 70 -247 70t-228 -83t-86 -204v-239h463q35 0 35 -35v-10q0 -35 -35 -35h-463v-428h684q35 0 35 -35v-10q0 -35 -35 -35
h-870q-35 0 -35 35z" />
    <glyph glyph-name="yen.osf" horiz-adv-x="1165" 
d="M231 322q-35 0 -34 34v13q0 35 34 34h310v66l-62 98h-248q-35 0 -34 35v12q0 35 34 35h199l-299 488q-12 16 -6 28t29 13h24q27 0 41 -23l275 -453l88 -155h4q45 86 88 155l274 453q14 23 41 23h25q22 0 28 -12t-6 -29l-297 -488h193q35 0 35 -35v-12q0 -35 -35 -35h-244
l-59 -98v-66h303q35 0 35 -34v-13q0 -35 -35 -34h-303v-287q0 -35 -35 -35h-19q-35 0 -34 35v287h-310z" />
    <glyph glyph-name="florin.osf" horiz-adv-x="669" 
d="M-184 -209q0 15 8 25t40 6t74 -4q44 0 80 10q173 49 193 287l49 563h-162q-35 0 -35 35v8q0 35 35 35h168l21 235q10 119 52 201t101 117q103 61 205 61q55 0 133 -10q33 -2 33 -37v-10q0 -37 -37 -31q-66 8 -118 8t-88 -10q-172 -48 -193 -287l-23 -237h238q35 0 35 -35
v-8q0 -35 -35 -35h-244l-49 -561q-10 -119 -52 -201q-41 -82 -101 -118q-99 -60 -182 -60q-82 0 -114 6q-33 2 -32 37v10z" />
    <glyph glyph-name="Euro.osf" horiz-adv-x="1212" 
d="M137 426q-35 0 -35 35v12q0 35 35 35h99q-10 82 -3 149h-96q-35 0 -35 35v13q0 35 35 34h109q45 199 204 329t418 130q61 0 154 -16q38 -7 22 -60q-8 -31 -43 -24q-76 14 -133 14q-213 0 -347 -104t-181 -269h578q37 0 30 -41t-41 -41h-585q-12 -74 2 -149h550
q37 0 30 -41t-40 -41h-522q45 -162 180 -263t346 -102q59 0 148 17q33 10 43 -23l4 -18q10 -35 -25 -41q-70 -20 -170 -21q-248 0 -408 127t-210 324h-113z" />
    <glyph glyph-name="zero.numerator" horiz-adv-x="794" 
d="M397 598q223 0 224 391t-223 391t-224 -391t223 -391zM397 524q-303 0 -303 465t303 465t303 -465t-303 -465z" />
    <glyph glyph-name="one.numerator" horiz-adv-x="565" 
d="M100 545q-35 0 -34 35v4q0 35 34 34h162v666l2 45h-2q-8 -16 -47 -55l-65 -64q-27 -27 -53 3q-26 29 -1 53l148 149q18 18 43 19h18q35 0 35 -35v-781h156q35 0 34 -34v-4q0 -35 -34 -35h-396z" />
    <glyph glyph-name="two.numerator" horiz-adv-x="696" 
d="M106 545q-37 0 -36 49q0 94 47 169t112 122q67 47 133 90q160 104 160 227q0 74 -52 126t-139 52t-163 -75q-24 -24 -51 2q-25 27 -2 49q92 98 220 98q127 0 197 -73t70 -168t-46 -161t-112 -112q-66 -45 -132 -87q-158 -100 -162 -235h434q35 0 34 -34v-4q0 -35 -34 -35
h-478z" />
    <glyph glyph-name="three.numerator" horiz-adv-x="712" 
d="M332 524q-164 0 -260 107q-25 25 3 51t54 2q82 -86 205 -86q80 0 146 60t65 148q0 88 -67 141q-67 54 -152 54h-37q-31 0 -39 25q-12 23 6 47l203 238l51 51v4q-37 -6 -78 -6h-301q-35 0 -35 35v4q0 35 35 35h453q35 0 34 -27v-8q0 -16 -16 -37l-246 -289q104 -7 186 -71
t83 -189q0 -125 -87 -207t-206 -82z" />
    <glyph glyph-name="four.numerator" horiz-adv-x="743" 
d="M152 866h327v301l6 133h-4q-35 -55 -71 -102l-258 -328v-4zM514 545q-35 0 -35 35v213h-405q-35 0 -35 26v10q0 18 14 35l424 549q18 20 43 21h2q35 0 35 -35v-533h105q35 0 34 -35v-4q0 -35 -34 -34h-105v-213q0 -35 -35 -35h-8z" />
    <glyph glyph-name="five.numerator" horiz-adv-x="708" 
d="M320 524q-135 0 -238 115q-21 28 11 50q32 21 54 -5q67 -86 171 -86t170 64t67 155q0 92 -68 158q-69 65 -151 65t-154 -41q-26 -14 -50 -3t-21 40l45 365q2 33 37 33h354q35 0 35 -35v-4q0 -35 -35 -35h-322l-20 -186l-15 -89h5q55 29 133 29q131 0 219 -86t88 -209
t-90 -209t-225 -86z" />
    <glyph glyph-name="six.numerator" horiz-adv-x="755" 
d="M172 881q0 -99 64 -191t161 -92q96 0 151 66q54 66 54 162t-57 156q-57 58 -147 58t-158 -51t-68 -108zM387 524q-133 0 -216 116t-83 294t86 342q43 80 120 129t160 49t150 -27q37 -13 12 -53q-14 -26 -56 -10t-93 16q-123 0 -201 -106t-96 -258h4q36 42 100 70t125 28
q123 0 203 -79t80 -215t-81 -216t-214 -80z" />
    <glyph glyph-name="seven.numerator" horiz-adv-x="653" 
d="M141 545q-46 0 -24 41l334 641l75 133v4q-41 -4 -112 -4h-330q-35 0 -35 35v4q0 35 35 35h502q35 0 35 -27v-4q0 -25 -11 -43l-415 -791q-12 -25 -41 -24h-13z" />
    <glyph glyph-name="eight.numerator" horiz-adv-x="770" 
d="M384 596q85 0 151 51q65 51 65 127t-69 118q-53 35 -128 69l-102 45q-135 -90 -135 -211q0 -90 66 -145q67 -54 152 -54zM390 1378q-77 0 -131 -39t-54 -116t77 -120t126 -64t67 -29q104 96 105 213q0 75 -56 115t-134 40zM388 522q-122 0 -212 73t-90 209t154 236
q-115 76 -115 184t79 168q80 60 188 60t188 -60t80 -177t-121 -238q141 -76 141 -203q0 -104 -85 -178t-207 -74z" />
    <glyph glyph-name="nine.numerator" horiz-adv-x="755" 
d="M358 1380q-96 0 -150 -66t-54 -162q0 -98 57 -156t146 -58t158 51t69 109q0 98 -65 190t-161 92zM289 598q123 0 201 106t96 259h-4q-35 -43 -100 -71t-126 -28q-122 0 -202 79t-80 215t81 216t213 80t216 -116t84 -294t-86 -342q-43 -80 -120 -129q-76 -49 -160 -49
t-150 27q-33 12 -13 53q14 26 56 10t94 -16z" />
    <glyph glyph-name="zero.denominator" horiz-adv-x="794" 
d="M397 53q223 0 224 391q0 391 -224 392q-223 0 -223 -392t223 -391zM397 -20q-303 0 -303 464t303 465q303 -1 303 -465t-303 -464z" />
    <glyph glyph-name="one.denominator" horiz-adv-x="565" 
d="M100 0q-35 0 -34 35v4q0 35 34 35h162v665l2 45h-2q-8 -16 -47 -55l-65 -63q-25 -25 -52 3t-2 52l148 149q18 18 43 19h18q35 0 35 -35v-780h156q35 0 34 -35v-4q0 -35 -34 -35h-396z" />
    <glyph glyph-name="two.denominator" horiz-adv-x="696" 
d="M106 0q-37 0 -36 49q0 94 47 169t112 122q67 47 133 90q160 104 160 227q0 74 -52 126q-52 53 -139 53t-163 -76q-24 -24 -51 2q-25 27 -2 49q92 98 220 98q127 -1 197 -73t70 -168t-46 -162t-112 -111t-132 -87q-158 -100 -162 -234h434q35 0 34 -35v-4q0 -35 -34 -35
h-478z" />
    <glyph glyph-name="three.denominator" horiz-adv-x="714" 
d="M334 -20q-164 0 -260 106q-25 25 4 52t53 1q82 -86 205 -86q80 1 146 61t65 147q0 87 -67 141t-152 55h-37q-29 -1 -40 23t7 48l203 238l51 51v4q-37 -6 -78 -6h-301q-35 0 -35 35v4q0 35 35 35h453q35 0 35 -27v-8q0 -16 -17 -37l-246 -289q104 -8 186 -71t83 -189
q0 -126 -87 -206q-87 -82 -206 -82z" />
    <glyph glyph-name="four.denominator" horiz-adv-x="743" 
d="M152 322h327v301l6 133h-4q-35 -55 -71 -103l-258 -327v-4zM514 0q-35 0 -35 35v213h-405q-35 0 -35 26v11q0 18 14 34l424 549q18 20 43 21h2q35 0 35 -35v-532h105q35 0 34 -35v-4q0 -35 -34 -35h-105v-213q0 -35 -35 -35h-8z" />
    <glyph glyph-name="five.denominator" horiz-adv-x="708" 
d="M635 274q0 -122 -90 -208t-225 -86t-238 114q-21 28 11 50q32 21 54 -5q67 -86 171 -86q104 -1 170 63t67 156q0 92 -68 158q-69 66 -151 66t-154 -41q-26 -14 -50 -3t-21 40l45 364q2 33 37 33h354q35 0 35 -35v-4q0 -35 -35 -35h-322l-20 -186l-15 -88h5q55 29 133 28
q131 0 219 -86t88 -209z" />
    <glyph glyph-name="six.denominator" horiz-adv-x="755" 
d="M172 336q0 -98 64 -190t161 -93q96 0 151 66q54 66 54 163t-57 155q-57 59 -147 59t-158 -52t-68 -108zM682 276q0 -136 -81 -216t-214 -80t-216 116t-83 293q0 178 86 342q43 80 120 129t160 49t150 -26q35 -13 12 -54q-14 -25 -56 -9t-93 16q-123 0 -201 -106t-96 -259
h4q36 43 100 71t125 27q123 0 203 -79q80 -78 80 -214z" />
    <glyph glyph-name="seven.denominator" horiz-adv-x="653" 
d="M141 0q-46 0 -24 41l334 641l75 133v4q-41 -4 -112 -4h-330q-35 0 -35 35v4q0 35 35 35h502q35 0 35 -27v-4q0 -25 -11 -43l-415 -790q-12 -25 -41 -25h-13z" />
    <glyph glyph-name="eight.denominator" horiz-adv-x="770" 
d="M166 252q0 -90 66 -144t152 -55q85 0 151 51q65 51 65 127t-69 118q-53 35 -128 69l-102 45q-135 -90 -135 -211zM390 836q-77 0 -131 -39t-54 -116t77 -121t126 -64q49 -21 67 -29q104 96 105 213q0 74 -56 115t-134 41zM680 231q0 -103 -85 -177t-207 -74t-212 72
t-90 209q0 136 154 237q-115 76 -115 184t79 168q80 60 188 59q108 0 188 -60t80 -177t-121 -238q141 -76 141 -203z" />
    <glyph glyph-name="nine.denominator" horiz-adv-x="755" 
d="M154 607q0 -97 57 -155t146 -59q89 0 158 51t69 109q0 98 -65 190q-65 93 -161 93t-150 -66t-54 -163zM356 319q-122 0 -202 79t-80 215t81 216t213 80t217 -115q83 -116 83 -294t-86 -342q-43 -80 -120 -129q-76 -49 -160 -49t-150 26q-33 12 -13 53q14 25 45 15
q53 -20 105 -21q123 1 201 107t96 258h-4q-35 -43 -100 -71t-126 -28z" />
    </font>
</defs>
</svg>
